<?xml version="1.0" encoding="UTF-8"?>
<svg xmlns="http://www.w3.org/2000/svg" viewBox="0 0 400 400">
  <defs>
    <style>
      .cls-1 {
        fill: [[color_1]];
      }

      .cls-1, .cls-2, .cls-3, .cls-4, .cls-5, .cls-6, .cls-7, .cls-8, .cls-9, .cls-10, .cls-11, .cls-12 {
        stroke-width: 0px;
      }

      .cls-2 {
        fill: [[color_2]];
      }

      .cls-3 {
        fill: [[color_3]];
      }

      .cls-4 {
        fill: [[color_4]];
      }

      .cls-5 {
        fill: [[color_5]];
      }

      .cls-6 {
        fill: [[color_6]];
      }

      .cls-7 {
        fill: [[color_7]];
      }

      .cls-8 {
        fill: [[color_8]];
      }

      .cls-9 {
        fill: [[color_9]];
      }

      .cls-13 {
        isolation: isolate;
      }

      .cls-10 {
        fill: [[color_10]];
        mix-blend-mode: multiply;
      }

      .cls-11 {
        fill: [[color_11]];
      }

      .cls-12 {
        fill: [[color_12]];
        mix-blend-mode: screen;
      }
    </style>
  </defs>
  <g class="cls-13">
    <g id="_Слой_2" data-name="Слой 2">
      <g id="_Слой_1-2" data-name="Слой 1">
        <g>
          <rect class="cls-2" width="400" height="400"/>
          <g>
            <g>
              <path class="cls-4" d="M299.44,204.17c6.47,74.19-44.56,130.66-99.52,130.66s-104.94-56.39-99.52-130.66c5.58-76.45,54.88-139,99.52-139s93.01,64.4,99.52,139Z"/>
              <g>
                <path class="cls-4" d="M267.05,303.85c-41.83,39.5-92.26,39.62-133.9.02-50.47-60.11-37.85-145.32,7.67-204.63,38.84-41.9,79.17-42.58,117.98-.21,44.98,59.44,59.05,144.73,8.25,204.82Z"/>
                <path class="cls-11" d="M270.31,115.26c-.52-.84-.78-1.25-1.31-2.08-49.41-39.34-119.39,13.27-159.24,43.55-1.31,4.01-1.92,6.05-3.04,10.19,39.75-26.2,114.19-87,163.59-51.66Z"/>
                <path class="cls-5" d="M299.69,216.83c-25.24,9.96-57.07,10.63-83.81,12.51-26.56,1.87-58.4,5.47-84.6-1.31.08,2.08.13,3.12.24,5.17,46.09,21.42,116.58,28.38,165.26,12.05,2.01-9.11,3.01-19.1,2.9-28.43Z"/>
                <path class="cls-1" d="M101.12,196.41c-1.5,12.75-1.53,25.66.2,38.39,28.61.05,57.18-4.81,85.03-10.98,35.62-7.89,79.19-15.42,110.96-34.45-.8-5-1.27-7.48-2.35-12.37-27.81,6.7-57.66,7.57-86.02,10.36-35.89,3.53-71.81,7.1-107.82,9.05Z"/>
                <path class="cls-6" d="M122.73,126.31c-3.2,5.97-4.69,9.1-7.42,15.58,29.3,5.87,58.43,9.71,87.44,17.57,30.9,8.38,61.94,20.57,93.75,25.04-1.14-6.21-1.82-9.27-3.38-15.28-32.5-8.29-63.94-20.41-96.37-29.05-24.23-6.45-50.21-7.06-74.01-13.87Z"/>
                <path class="cls-1" d="M105.86,255.68c2.42,8.02,3.93,11.85,7.44,19.07,52.61,37.28,121.49,38.19,173.76-.56,1.23-2.58,1.81-3.89,2.9-6.57-58.8,32.53-128.76,23.52-184.1-11.94Z"/>
                <path class="cls-8" d="M299.27,227.87c-30.48,11.31-62.15,20.78-93.85,27.92-30.46,6.87-67.13,14.21-97.97,4.81,1.23,3.57,1.91,5.32,3.37,8.73,59.38,18.52,133.46-17.73,188.16-38.24.13-1.28.19-1.92.29-3.21Z"/>
                <path class="cls-8" d="M108.04,162.26c-.83,2.81-1.22,4.23-1.96,7.1,33.79,3.73,70.33-4.66,104.14-6.5,27.15-1.48,54.08.73,81.13.02-.17-.58-.26-.87-.43-1.46-61.66-2.68-121.15-4.07-182.87.83Z"/>
                <path class="cls-3" d="M100.11,209.43c-.09,2.4-.11,3.59-.11,5.96,61.79-20.77,128.44-45.58,194.76-39.35-.13-.59-.2-.89-.34-1.48-62.7-10.8-136.68,11.24-194.31,34.87Z"/>
                <path class="cls-9" d="M278.73,130.45c.93,1.89,1.39,2.84,2.28,4.77-53.17-12.5-111.95-11.95-164.43,3.7.41-.93.62-1.4,1.04-2.32,55.18-15.71,105.26-14,161.11-6.15Z"/>
                <path class="cls-5" d="M119.27,285.62c47.48,39.76,114.75,35.01,162.55-1.58-.41.69-.61,1.03-1.03,1.7-47.24,36.54-111.34,44.13-158.84,4.02-1.1-1.63-1.64-2.46-2.68-4.15Z"/>
                <path class="cls-7" d="M100.75,230c.27,2.61.43,3.91.81,6.46,41.29,31.87,119.39,105.49,171.76,60.02,1.25-1.61,1.87-2.43,3.06-4.1-22.76,17.03-53.96,9-78.03-.45-33.12-13-73.95-34.24-97.6-61.93Z"/>
                <path class="cls-11" d="M126.69,296.3c1.74,2.23,2.63,3.31,4.48,5.39,23.87,22.69,60.89-3.67,81.49-18.38,31.27-22.34,65.19-49.63,86.51-82.11-.16-1.56-.24-2.33-.43-3.88-21.47,35.64-58.33,65.64-93.02,87.73-22.84,14.55-54.41,30.95-79.02,11.25Z"/>
                <path class="cls-8" d="M284.11,142.19c.55,1.33.82,2,1.36,3.35-43.26-32.53-104.89-69.69-155.72-31.19.36-.56.54-.83.9-1.38,50.22-38.48,110.73-3.98,153.46,29.22Z"/>
                <path class="cls-1" d="M128.03,117.09c-.71,1.14-1.05,1.72-1.74,2.89,31-21.33,81.06-48.4,119.87-34.1-5.36-4.79-8.14-6.88-13.81-10.35-38.52-1.79-74.09,19.64-104.33,41.56Z"/>
              </g>
            </g>
            <path class="cls-10" d="M224.05,292.42c-53.77,0-102.67-55.38-97.37-128.31,1.59-21.84,6.8-42.53,14.47-60.88-20.07,25.03-35.16,61.19-38.07,101.24-5.3,72.93,43.59,128.31,97.37,128.31,38.81,0,75.61-28.89,90.71-72.35-18.06,20.06-42.16,32-67.1,32Z"/>
            <ellipse class="cls-12" cx="226.92" cy="148.3" rx="30.92" ry="39.02"/>
          </g>
        </g>
      </g>
    </g>
  </g>
</svg>