<?xml version="1.0" encoding="UTF-8"?>
<svg xmlns="http://www.w3.org/2000/svg" viewBox="0 0 400 400">
  <defs>
    <style>
      .cls-1 {
        fill: #1e122b;
      }

      .cls-1, .cls-2, .cls-3, .cls-4, .cls-5, .cls-6, .cls-7, .cls-8, .cls-9, .cls-10, .cls-11, .cls-12 {
        stroke-width: 0px;
      }

      .cls-2 {
        fill: none;
      }

      .cls-3 {
        fill: #f6ab89;
      }

      .cls-4 {
        fill: #fce2a1;
      }

      .cls-5 {
        fill: #996b8e;
      }

      .cls-6 {
        fill: #fccb82;
      }

      .cls-7 {
        fill: #a0a2b1;
      }

      .cls-8 {
        fill: #5b7794;
      }

      .cls-9 {
        fill: #b1859b;
      }

      .cls-13 {
        isolation: isolate;
      }

      .cls-10 {
        fill: #d1d2d4;
        mix-blend-mode: multiply;
      }

      .cls-11 {
        fill: #fff;
      }

      .cls-12 {
        fill: #332d1b;
        mix-blend-mode: screen;
      }
    </style>
  </defs>
  <g class="cls-13">
    <g id="_Слой_2" data-name="Слой 2">
      <g id="_Слой_1-2" data-name="Слой 1">
        <g>
          <rect class="cls-1" width="400" height="400"/>
          <g>
            <g>
              <path class="cls-4" d="M299.44,204.17c6.47,74.19-44.56,130.66-99.52,130.66s-104.94-56.39-99.52-130.66c5.58-76.45,54.88-139,99.52-139s93.01,64.4,99.52,139Z"/>
              <g>
                <path class="cls-4" d="M266.86,304.05c-41.85,39.32-92.16,39.33-133.71-.18-50.47-60.11-37.85-145.32,7.67-204.63,38.73-41.79,78.98-42.63,117.8-.43,44.85,59.62,58.86,144.97,8.24,205.24Z"/>
                <g>
                  <path class="cls-2" d="M211.65,205.73c-7.38-4.73-11.08-7.05-18.29-11.63-5.43,7.44-8.2,11.32-13.67,18.77,1.58,6.81,2.4,10.18,4.06,16.84,6.44-3.86,9.71-5.87,16.2-9.92,5.61,11.97,11.31,23.9,16.93,35.87,6.62-17.17,12.94-34.39,18.69-51.87-1.16-3.5-1.74-5.16-2.91-8.59-8.24,4.04-12.47,6.15-21.01,10.53Z"/>
                  <path class="cls-2" d="M188.34,247.67c2.44,9.37,4.93,18.72,7.39,28.09,7.13-4.88,10.85-7.51,18.34-12.91.08-.21.12-.32.21-.53-4.62-8.28-9.27-16.55-13.92-24.82-4.88,4.16-7.27,6.21-12.02,10.17Z"/>
                  <path class="cls-2" d="M128.44,122.91c3.08-2.76,4.62-4.15,7.67-6.9-1.11-.13-1.64-.17-2.67-.18-1.99,2.83-2.99,4.25-5,7.08Z"/>
                  <path class="cls-2" d="M150.29,272.57c-2.3-6.55-3.42-9.88-5.56-16.63-5.89-4.29-8.84-6.44-14.66-10.66-3.51,1.25-5.22,1.82-8.55,2.86.03,9.06.32,13.36,1.49,21.39,7.46,6.15,14.88,12.35,22.27,18.58,1.56.42,2.34.62,3.92,1.01.14-6.26.37-9.58,1.08-16.53Z"/>
                  <path class="cls-2" d="M198.82,306.15c-1.28-4.85-1.96-7.35-3.36-12.46-7.56,3.47-11.21,5-18.08,7.49-9.27-1.52-13.85-2.59-22.77-5.25,8.89,7.47,13.24,11.14,21.45,17.89,14.72,4.2,28.17,6.55,43.48,6.89,3.2-2.28,4.84-3.47,8.16-5.93-.72-2.39-1.11-3.62-1.96-6.16-10.31.06-15.77-.45-26.92-2.47Z"/>
                  <path class="cls-2" d="M220.62,107.61c10.04,5.78,19.86,11.74,29.67,17.9-1.17-5.35-1.8-7.96-3.1-13.06-8.28-6.05-16.74-11.96-25.37-17.49-.37,4.89-.61,7.42-1.19,12.64Z"/>
                  <path class="cls-2" d="M220.02,112.72c8.68,17.42,17.91,34.57,27.23,51.66,2.84-10.92,4.03-16.11,5.72-25.67-.78-4.19-1.19-6.26-2.06-10.33-10.05-6.16-20.23-12.13-30.65-17.65-.09.79-.14,1.19-.24,1.99Z"/>
                  <path class="cls-2" d="M261.84,176.69c5.2-.07,7.76-.06,12.78.01,1.02-2.57,1.51-3.83,2.42-6.28-6.98-7.49-10.52-11.39-17.47-19.23-2.06,8.96-3.39,13.79-6.48,23.93.94,1.72,1.41,2.58,2.34,4.29,2.6-1.13,3.88-1.68,6.4-2.72Z"/>
                  <path class="cls-2" d="M257.65,183.47c3.2,5.88,4.79,8.81,7.89,14.57,3.28-7.29,4.8-10.8,7.51-17.42-3.84.12-5.79.2-9.73.4-2.24.95-3.37,1.45-5.67,2.46Z"/>
                  <path class="cls-2" d="M239.4,215.54c-5.59,14.5-11.5,28.83-17.61,43.12,2.61,4.72,3.87,7.02,6.25,11.46,7.13-12.63,14.17-25.29,21.02-38.07-2.03-.77-3.05-1.17-5.11-1.98-1.72-5.68-2.64-8.59-4.55-14.53Z"/>
                  <path class="cls-2" d="M153.46,290.09c6.12,1.35,9.25,1.91,15.59,2.76,8.19-4.77,12.73-7.68,22.25-14.09-2.55-9.07-5.11-18.15-7.61-27.24-9.03,7.45-13.42,10.97-21.47,17.12-4.32-3.13-6.5-4.71-10.85-7.87,1.15,5.25,1.76,7.83,3.02,12.92-.61,6.86-.8,10.16-.93,16.4Z"/>
                  <path class="cls-2" d="M176.46,183.43c-1.46-.91-2.19-1.36-3.64-2.26.35,1.74.53,2.62.89,4.38,1.1-.85,1.65-1.27,2.75-2.12Z"/>
                  <path class="cls-2" d="M151.17,110.67c2.41.21,4.81.56,6.99.97-.04-2.93-.03-4.35.04-7.13-2.77,2.43-4.18,3.67-7.03,6.16Z"/>
                  <path class="cls-2" d="M154.47,246.32c9.31-4.91,14.23-7.7,24.17-13.57-1.42-5.45-2.12-8.2-3.48-13.75-6.85,9.14-13.75,18.25-20.69,27.32Z"/>
                  <path class="cls-2" d="M153.79,304.85c3.93,1.86,5.91,2.74,9.88,4.38-3.97-3.49-6.01-5.28-10.12-8.9.07,1.84.12,2.75.25,4.52Z"/>
                  <path class="cls-2" d="M266.6,284.89c-2.11-.58-3.22-.93-5.52-1.73-1.4.43-2.11.65-3.52,1.06,1.06,2.48,1.53,3.66,2.36,5.89,2.66-2.08,4-3.13,6.68-5.22Z"/>
                  <path class="cls-2" d="M165.95,176.97c-5.79-3.51-8.61-5.18-14.06-8.29-4.18,3.19-6.28,4.78-10.46,7.92.13,10.72.89,21.38,1.71,32.06,8.49-6.31,16.96-12.66,25.36-19.1-1.07-5.1-1.58-7.63-2.54-12.6Z"/>
                  <path class="cls-2" d="M182.34,113.28c-7.04,4.26-10.69,6.57-18.13,11.34.79,9.04,1.38,13.81,2.84,23.73,7.95-6.32,15.88-12.67,23.84-18.99-3.69-6.74-5.42-9.98-8.55-16.09Z"/>
                  <path class="cls-2" d="M185.65,176.32c7.85-6.09,11.69-9.11,19.22-14.84,2.34-9.37,4.57-18.78,6.62-28.22-3.34-10.29-6.67-20.58-9.69-30.97-5.82,2.94-8.73,4.63-14.89,8.27,4.06,8.33,6.36,12.81,11.34,22.13-10.04,7.75-20,15.58-30,23.38.48,2.96.73,4.45,1.26,7.47,6.23,4.85,9.48,7.45,16.15,12.79Z"/>
                  <path class="cls-2" d="M200.7,98.5c-3.04-10.65-4.29-15.7-6.33-24.98-6.43,5.13-9.99,8.18-17.54,14.7,2.49,6.16,4.01,9.59,7.48,16.94,6.75-3.08,9.93-4.45,16.39-6.66Z"/>
                  <path class="cls-2" d="M179.41,107.46c-3.29-6.65-4.73-9.74-7.12-15.29-3.57,3.11-5.4,4.72-9.14,8-.05,4.83,0,7.36.25,12.63,2.2.55,3.58.96,3.58.96,5.03-2.67,7.52-3.94,12.42-6.3Z"/>
                  <path class="cls-2" d="M198.67,186.8c6.05,4.88,9.19,7.37,15.41,12.32,6.92-3.47,10.34-5.18,17.04-8.43-5.3-15.44-10.68-30.85-15.92-46.31-1.82,10.32-2.85,15.66-5.04,26.58-4.47,6.21-6.82,9.4-11.49,15.84Z"/>
                  <path class="cls-2" d="M202.61,302.72c9.48,1.75,19.78,2.64,29.43,2.31.78,2.13,1.14,3.17,1.81,5.17,6.41-4.83,9.71-7.37,16.4-12.56-.61-4.11-1.04-6.3-2.1-10.92-7.37,1.78-11.15,2.52-18.78,3.67-2.14-4.21-3.3-6.42-5.74-10.99-9.72,5.32-14.53,7.85-23.77,12.25,1.15,4.53,1.71,6.75,2.76,11.08Z"/>
                  <path class="cls-8" d="M204.87,161.48c-7.53,5.73-11.37,8.76-19.22,14.84,5.11,4.09,7.72,6.21,13.01,10.47,4.67-6.45,7.02-9.64,11.49-15.84,2.19-10.92,3.22-16.26,5.04-26.58-1.52-4.49-2.26-6.72-3.71-11.12-2.05,9.44-4.28,18.85-6.62,28.22Z"/>
                  <path class="cls-8" d="M183.69,251.53c-2.03-7.39-3.06-11.16-5.05-18.79-9.95,5.87-14.86,8.66-24.17,13.57,6.94-9.08,13.84-18.18,20.69-27.32-2.41-9.76-4.6-19.59-6.67-29.43-8.39,6.44-16.87,12.79-25.36,19.1,1.88,17.58,4.64,34.81,8.24,52.11,4.35,3.17,6.53,4.75,10.85,7.87,8.05-6.15,12.44-9.67,21.47-17.12Z"/>
                  <path class="cls-8" d="M173.71,185.55c2.19,10.66,3.41,16.25,5.97,27.31,5.47-7.45,8.25-11.32,13.67-18.77-6.87-4.37-10.27-6.53-16.9-10.66-1.1.85-1.65,1.27-2.75,2.12Z"/>
                  <path class="cls-8" d="M183.75,229.7c1.82,7.3,2.75,10.9,4.59,17.97,4.75-3.96,7.14-6.01,12.02-10.17,4.64,8.27,9.3,16.53,13.92,24.82,1.04-2.65,1.56-3.98,2.6-6.67-5.62-11.97-11.33-23.89-16.93-35.87-6.48,4.05-9.76,6.06-16.2,9.92Z"/>
                  <path class="cls-8" d="M229.37,290.39c7.63-1.15,11.41-1.89,18.78-3.67-.61-2.68-.96-4.06-1.71-6.9-6.53,2.23-9.82,3.28-16.41,5.17-1.2-2.88-1.84-4.36-3.16-7.38-1.3.72-1.95,1.08-3.25,1.79,2.45,4.58,3.61,6.78,5.74,10.99Z"/>
                  <path class="cls-8" d="M220.26,110.73c-.67-.35-1-.53-1.66-.87.56,1.14.85,1.71,1.42,2.86.1-.8.15-1.2.24-1.99Z"/>
                  <path class="cls-8" d="M221.81,94.97c8.63,5.53,17.09,11.44,25.37,17.49-1.3-5.07-1.98-7.55-3.4-12.35-7.81-7.03-15.6-14.07-23.57-20.92-.74,9.65-1.43,14.99-3.33,26.38,1.49.8,2.23,1.21,3.73,2.05.58-5.22.82-7.75,1.19-12.64Z"/>
                  <path class="cls-8" d="M257.56,284.22c1.42-.41,2.12-.62,3.52-1.06,2.3.8,3.41,1.15,5.52,1.73,3.31-2.59,4.97-3.89,8.29-6.48-5.23-.87-8.15-1.63-14.42-3.7-2.02.78-3.03,1.16-5.07,1.92-.18.71-.26,1.06-.44,1.77,1.13,2.43,1.65,3.59,2.6,5.83Z"/>
                  <path class="cls-8" d="M280.32,286.48c1.8-2.88,2.66-4.36,4.28-7.41-2.27.13-3.51.09-6.14-.18-3.45,2.72-5.18,4.08-8.62,6.8,4.86,1.06,7,1.25,10.48.79Z"/>
                  <path class="cls-8" d="M101.52,236.15c.98,6.67,1.67,9.91,3.38,16.18,2.4-.44,3.64-.7,6.2-1.31-.13-7.98.12-12.25,1.24-21.26-4.55,2.83-6.73,4.11-10.83,6.39Z"/>
                  <path class="cls-8" d="M282.6,138.8c-1.18-2.71-1.8-4.05-3.06-6.68-7.48-6.54-11.21-9.88-18.5-16.44,1.98,4.17,2.96,6.29,4.88,10.59,6.66,4.98,10.02,7.51,16.68,12.52Z"/>
                  <path class="cls-8" d="M130.07,245.28c5.82,4.22,8.77,6.37,14.66,10.66-4.1-13.47-7.68-26.92-10.72-40.67-4.5,3.19-6.7,4.72-10.99,7.58-1.22,10.61-1.53,15.69-1.5,25.28,3.33-1.04,5.04-1.61,8.55-2.86Z"/>
                  <path class="cls-11" d="M264.52,106.47c-.74-1.03-1.11-1.53-1.87-2.54-7.04-6.99-11.39-9.26-21.24-11.5.97,3,1.45,4.54,2.37,7.67,6.72,6.07,10.2,9.24,17.25,15.58-2.68-5.64-4.06-8.4-6.83-13.77,4.76.9,6.84,1.79,10.31,4.57Z"/>
                  <path class="cls-11" d="M195.73,275.76c1.71,6.52,2.54,9.7,4.12,15.88,9.24-4.4,14.06-6.93,23.77-12.25-3.48-6.51-5.38-9.95-9.35-17.07-.08.21-.12.32-.21.53-7.48,5.4-11.21,8.03-18.34,12.91Z"/>
                  <path class="cls-11" d="M145.28,288.09c1.56,1.31,2.34,1.96,3.89,3.27,0-.9.02-1.35.04-2.26-1.58-.39-2.36-.59-3.92-1.01Z"/>
                  <path class="cls-11" d="M250.29,125.51c8.43,5.37,12.7,8.19,21.2,13.78-2.17-5.28-3.28-7.89-5.57-13.02-7.56-5.65-11.33-8.46-18.73-13.82,1.31,5.1,1.93,7.71,3.1,13.06Z"/>
                  <path class="cls-11" d="M114.1,276.35c.59,1.18.9,1.76,1.52,2.92,9.39,5.48,19.21,9.51,29.3,13.48-3.28-2.87-4.93-4.32-8.26-7.21-9.49-3.08-14.05-4.93-22.56-9.18Z"/>
                  <path class="cls-11" d="M228.04,270.12c-2.39-4.44-3.65-6.74-6.25-11.46,6.11-14.29,12.02-28.62,17.61-43.12-1.49-4.63-2.26-6.99-3.84-11.76-5.75,17.48-12.07,34.7-18.69,51.87,4.32,9.22,6.37,13.65,9.99,21.95.54-.3.81-.45,1.36-.75,8.55-14.3,17.1-28.61,25.19-43.17-1.73-.64-2.6-.97-4.36-1.64-6.85,12.78-13.88,25.45-21.02,38.07Z"/>
                  <path class="cls-11" d="M169.06,292.86c-6.34-.85-9.47-1.41-15.59-2.76-.04,1.97-.05,2.94-.04,4.85.47.4.71.6,1.18.99,8.92,2.66,13.5,3.73,22.77,5.25,6.87-2.49,10.52-4.02,18.08-7.49-1.6-5.82-2.44-8.81-4.15-14.93-9.52,6.41-14.06,9.32-22.25,14.09Z"/>
                  <path class="cls-11" d="M265.54,198.04c1.3,2.41,1.94,3.56,3.21,6.01,4.82-10.31,7.04-14.84,10.76-23.58-2.56.04-3.85.07-6.45.15-2.71,6.63-4.23,10.13-7.51,17.42Z"/>
                  <path class="cls-11" d="M252.97,138.71c-1.69,9.56-2.88,14.75-5.72,25.67,2.34,4.3,3.52,6.45,5.86,10.74,3.08-10.14,4.42-14.97,6.48-23.93,6.95,7.84,10.49,11.74,17.47,19.23-.92,2.45-1.4,3.71-2.42,6.28,2.58.04,3.86.07,6.39.15.91-2.22,1.35-3.3,2.17-5.41-3.11-9.96-6.71-19.9-10.65-29.56-8.65-5.48-13.01-8.23-21.63-13.5.86,4.07,1.28,6.14,2.06,10.33Z"/>
                  <path class="cls-7" d="M214.27,262.32c3.97,7.13,5.87,10.57,9.35,17.07,1.3-.71,1.95-1.07,3.25-1.79-3.63-8.3-5.68-12.73-9.99-21.95-1.04,2.68-1.57,4.02-2.6,6.67Z"/>
                  <path class="cls-3" d="M247.19,112.45c7.4,5.36,11.17,8.17,18.73,13.82-1.92-4.3-2.9-6.42-4.88-10.59-7.05-6.34-10.53-9.51-17.25-15.58,1.42,4.8,2.1,7.28,3.4,12.35Z"/>
                  <path class="cls-6" d="M168.24,156.06c-1.67,1.3-2.51,1.95-4.19,3.25,2.15,1.64,3.24,2.49,5.45,4.21-.53-3.02-.78-4.51-1.26-7.47Z"/>
                  <path class="cls-6" d="M165.18,76.89c-1.62,1.07-2.42,1.64-4.02,2.83-1.4,5.62-1.9,8.78-2.48,15.71,1.94-1.77,2.9-2.65,4.79-4.38.39-6.13.73-8.98,1.71-14.15Z"/>
                  <path class="cls-6" d="M202.61,302.72c-1.05-4.33-1.6-6.55-2.76-11.08-1.77.84-2.65,1.25-4.39,2.05,1.4,5.11,2.08,7.6,3.36,12.46,11.15,2.02,16.61,2.53,26.92,2.47.85,2.54,1.24,3.78,1.96,6.16,2.43-1.8,3.66-2.71,6.15-4.59-.67-2-1.03-3.04-1.81-5.17-9.65.33-19.94-.56-29.43-2.31Z"/>
                  <path class="cls-6" d="M158.19,104.51c-.07,2.78-.07,4.2-.04,7.13,1.99.37,3.79.79,5.24,1.15-.25-5.26-.3-7.8-.25-12.63-1.96,1.72-2.95,2.59-4.95,4.35Z"/>
                  <path class="cls-6" d="M191.3,278.77c1.75-1.18,2.64-1.78,4.43-3.01-2.47-9.36-4.95-18.72-7.39-28.09-1.87,1.56-2.8,2.33-4.65,3.86,2.5,9.09,5.06,18.16,7.61,27.24Z"/>
                  <path class="cls-6" d="M231.1,328.73c2.73-1.09,4.07-1.69,6.73-3-.65-4.43-1.29-7.01-3.08-12.74-2.52,1.9-3.76,2.83-6.22,4.65,1.35,4.82,1.88,7.05,2.57,11.09Z"/>
                  <path class="cls-6" d="M164.21,124.63c-.73.47-1.1.71-1.83,1.18-1.52-.8-2.27-1.19-3.73-1.92.59,9.55,1.69,19.19,3.13,28.65,2.12-1.68,3.18-2.51,5.27-4.18-1.46-9.92-2.05-14.7-2.84-23.73Z"/>
                  <path class="cls-6" d="M172.83,181.17c-2.78-1.72-4.16-2.56-6.87-4.21.96,4.97,1.47,7.49,2.54,12.6,2.09-1.6,3.14-2.4,5.22-4.01-.36-1.76-.54-2.63-.89-4.38Z"/>
                  <path class="cls-6" d="M178.64,232.74c2.03-1.2,3.06-1.81,5.11-3.04-1.66-6.66-2.48-10.03-4.06-16.84-1.82,2.48-2.73,3.7-4.53,6.13,1.36,5.55,2.06,8.3,3.48,13.75Z"/>
                  <path class="cls-6" d="M183.69,251.53c1.84-1.52,2.78-2.29,4.65-3.86-1.84-7.07-2.77-10.67-4.59-17.97-2.05,1.23-3.07,1.84-5.11,3.04,1.99,7.63,3.02,11.4,5.05,18.79Z"/>
                  <path class="cls-6" d="M168.49,189.56c2.06,9.84,4.26,19.67,6.67,29.43,1.8-2.43,2.71-3.65,4.53-6.13-2.57-11.07-3.78-16.65-5.97-27.31-2.09,1.61-3.13,2.41-5.22,4.01Z"/>
                  <path class="cls-6" d="M195.46,293.69c1.74-.8,2.62-1.21,4.39-2.05-1.57-6.18-2.4-9.36-4.12-15.88-1.79,1.22-2.67,1.83-4.43,3.01,1.72,6.12,2.56,9.11,4.15,14.93Z"/>
                  <path class="cls-3" d="M153.55,300.33c-1.72-1.52-2.59-2.28-4.34-3.81.07,2.57.13,3.83.32,6.25,1.7.85,2.55,1.27,4.27,2.08-.13-1.77-.17-2.68-.25-4.52Z"/>
                  <path class="cls-3" d="M152.67,320.32c1.55,1,2.33,1.49,3.91,2.41-1.39-5.29-1.89-8.22-2.51-14.55-1.71-.85-2.56-1.29-4.25-2.19.68,6.31,1.24,9.2,2.84,14.34Z"/>
                  <path class="cls-3" d="M149.2,289.1c1.69.42,2.55.61,4.26.99.13-6.25.32-9.54.93-16.4-1.26-5.08-1.87-7.67-3.02-12.92-2.66-1.93-3.99-2.9-6.64-4.84,2.14,6.75,3.26,10.08,5.56,16.63-.71,6.95-.94,10.27-1.08,16.53Z"/>
                  <path class="cls-3" d="M161.78,152.54c-1.3,1.03-1.95,1.54-3.26,2.57,1.63,1.22,2.46,1.85,4.13,3.13-.37-2.3-.54-3.44-.87-5.7Z"/>
                  <path class="cls-3" d="M171.54,73.05c-2.05,1.12-3.08,1.72-5.11,3.03.85,3.22,1.49,5.13,3.14,9.42,1.88-1.7,2.81-2.54,4.63-4.18-1.31-3.63-1.84-5.3-2.66-8.27Z"/>
                  <path class="cls-3" d="M186.9,110.55c-1.81,1.07-2.72,1.61-4.57,2.73,3.13,6.11,4.85,9.36,8.55,16.09-7.96,6.31-15.89,12.66-23.84,18.99.45,3.04.69,4.58,1.19,7.7,10-7.79,19.97-15.63,30-23.38-4.98-9.32-7.28-13.8-11.34-22.13Z"/>
                  <path class="cls-3" d="M184.31,105.16c-3.47-7.35-4.99-10.78-7.48-16.94-1.79,1.55-2.7,2.34-4.55,3.95,2.39,5.55,3.83,8.64,7.12,15.29,1.98-.95,2.96-1.41,4.91-2.3Z"/>
                  <path class="cls-3" d="M141.42,176.6c4.19-3.14,6.28-4.73,10.46-7.92-2.55-1.45-3.8-2.15-6.27-3.5-6.8,5.25-10.23,7.87-17,12.91,1.12,12.47,2.94,24.89,5.39,37.17,3.6-2.55,5.43-3.88,9.12-6.6-.82-10.69-1.58-21.34-1.71-32.06Z"/>
                  <path class="cls-7" d="M151.37,260.77c-3.6-17.3-6.36-34.53-8.24-52.11-3.7,2.73-5.53,4.05-9.12,6.6,3.04,13.75,6.62,27.2,10.72,40.67,2.66,1.93,3.98,2.9,6.64,4.84Z"/>
                  <path class="cls-3" d="M153.46,290.09c-1.71-.38-2.57-.58-4.26-.99-.02.91-.03,1.36-.04,2.26,1.71,1.44,2.56,2.16,4.26,3.58-.01-1.91,0-2.88.04-4.85Z"/>
                  <path class="cls-6" d="M164.05,159.31c1.68-1.3,2.52-1.96,4.19-3.25-.51-3.12-.74-4.66-1.19-7.7-2.1,1.67-3.15,2.5-5.27,4.18.33,2.26.51,3.4.87,5.7.56.43.84.64,1.41,1.08Z"/>
                  <path class="cls-5" d="M272.8,240.26c5.36-12.22,10.1-24.73,13.68-37.6,4.66,10.68,8.86,21.61,11.97,32.85.36-2.67.51-4.02.74-6.74-3.34-11.28-7.63-22.28-12.47-32.99-4.81,6.6-7.41,10.31-13.04,17.86-1.9-3.75-2.89-5.67-4.93-9.6-4.89,10.04-9.99,19.83-15.33,29.63,8.01,2.96,11.92,4.31,19.38,6.58Z"/>
                  <path class="cls-5" d="M216.35,108.7c-5.76-2.94-8.58-4.29-14.08-6.66-.19.1-.29.14-.48.24,3.02,10.39,6.35,20.68,9.69,30.97,2.24-10.25,3.23-15.19,4.86-24.55Z"/>
                  <path class="cls-5" d="M172.29,92.17c-1.22-2.83-1.76-4.17-2.73-6.67-2.4,2.17-3.62,3.28-6.09,5.54-.22,3.51-.29,5.34-.32,9.13,3.74-3.28,5.57-4.89,9.14-8Z"/>
                  <path class="cls-5" d="M194.38,73.51c2.04,9.28,3.28,14.33,6.33,24.98.48-.16.72-.24,1.19-.4,5.61,2.53,8.52,3.99,14.44,7.17-6.3-13.2-12.51-26.41-17.73-40.08-2.58.07-3.87.19-6.47.6-6.54,5.34-10.19,8.57-17.95,15.53.94,2.6,1.47,3.99,2.64,6.9,7.55-6.53,11.11-9.57,17.54-14.7Z"/>
                  <path class="cls-5" d="M128.44,122.91c2-2.84,3.01-4.25,5-7.08-1.53-.02-2.25.03-3.59.26-1.83,2.28-2.75,3.42-4.6,5.69-4.17,7.27-6.11,11.14-9.57,19.24,9.3-7.7,18.48-15.54,27.6-23.46-3.08-.92-4.52-1.24-7.17-1.55-3.05,2.76-4.58,4.14-7.67,6.9Z"/>
                  <path class="cls-5" d="M249.25,187.27c-3.11,9.47-6.39,18.92-9.85,28.27,1.91,5.94,2.83,8.85,4.55,14.53,2.06.81,3.08,1.2,5.11,1.98,5.89-11.15,11.36-22.49,16.48-34.01-3.09-5.76-4.68-8.69-7.89-14.57-3.31,1.46-4.99,2.23-8.4,3.8Z"/>
                  <path class="cls-5" d="M232.66,195.19c1.17,3.43,1.75,5.08,2.91,8.59,1.54-4.89,2.3-7.16,3.74-11.82-2.64,1.27-3.97,1.92-6.65,3.23Z"/>
                  <path class="cls-5" d="M255.44,179.41c-.93-1.71-1.4-2.57-2.34-4.29-.74,2.44-1.13,3.67-1.92,6.17,1.72-.77,2.57-1.14,4.26-1.88Z"/>
                  <path class="cls-5" d="M158.19,104.51c.09-3.79.19-5.61.48-9.1-6.48,5.92-9.84,9.02-16.7,15.26,2.84-.29,6.02-.28,9.19,0,2.84-2.49,4.25-3.72,7.03-6.16Z"/>
                  <path class="cls-5" d="M154.97,84.7c-1.21,1.05-1.81,1.59-3,2.7-6.41,8.73-13.07,17.24-19.77,25.75,1.08-.48,2.48-1.01,4.14-1.45,6.26-8.97,12.47-17.96,18.63-27Z"/>
                  <path class="cls-5" d="M215.2,144.37c5.23,15.46,10.61,30.88,15.92,46.31,4.07-1.98,6.09-2.94,10.05-4.8,2.68-8.9,3.92-13.22,6.08-21.5-9.32-17.09-18.54-34.24-27.23-51.66-1.29,10.6-3.04,21.12-4.82,31.65Z"/>
                  <path class="cls-5" d="M215.2,144.37c1.77-10.53,3.53-21.05,4.82-31.65-.57-1.15-.86-1.72-1.42-2.86-.9-.47-1.35-.7-2.24-1.16-1.63,9.36-2.62,14.31-4.86,24.55,1.45,4.4,2.19,6.62,3.71,11.12Z"/>
                  <path class="cls-5" d="M251.18,181.29c.79-2.5,1.18-3.73,1.92-6.17-2.34-4.29-3.51-6.44-5.86-10.74-2.16,8.28-3.39,12.6-6.08,21.5,4.07-1.91,6.08-2.83,10.01-4.59Z"/>
                  <path class="cls-3" d="M249.06,232.04c1.75.67,2.62.99,4.36,1.64,5.34-9.81,10.44-19.6,15.33-29.63-1.27-2.44-1.91-3.59-3.21-6.01-5.12,11.52-10.59,22.86-16.48,34.01Z"/>
                  <path class="cls-5" d="M239.31,191.96c-1.44,4.66-2.2,6.93-3.74,11.82,1.58,4.77,2.35,7.13,3.84,11.76,3.47-9.35,6.74-18.8,9.85-28.27-3.92,1.81-5.91,2.75-9.94,4.69Z"/>
                  <path class="cls-5" d="M163.15,100.16c.04-3.79.1-5.62.32-9.13-1.9,1.73-2.85,2.61-4.79,4.38-.3,3.49-.39,5.31-.48,9.1,2-1.76,2.99-2.63,4.95-4.35Z"/>
                  <path class="cls-3" d="M176.84,88.22c-1.18-2.91-1.71-4.29-2.64-6.9-1.82,1.64-2.75,2.47-4.63,4.18.96,2.5,1.51,3.84,2.73,6.67,1.85-1.61,2.76-2.4,4.55-3.95Z"/>
                  <path class="cls-11" d="M216.89,105.56c-.22-.12-.33-.18-.55-.29.18.36.27.54.44.91.04-.25.06-.37.1-.61Z"/>
                  <path class="cls-11" d="M186.9,110.55c6.17-3.64,9.08-5.33,14.89-8.27-.45-1.53-.66-2.28-1.09-3.79-6.46,2.21-9.65,3.58-16.39,6.66,1,2.12,1.52,3.2,2.59,5.4Z"/>
                  <path class="cls-11" d="M136.1,116.01c2.37-2.14,3.54-3.21,5.88-5.33-2.09.21-4,.57-5.64,1.02-1.16,1.65-1.74,2.48-2.9,4.13,1.03.02,1.56.05,2.67.18Z"/>
                  <path class="cls-11" d="M151.17,110.67c-3.12,2.73-4.71,4.11-7.9,6.89,5.51,1.65,8.62,2.96,15.38,6.33-.33-5.08-.43-7.53-.49-12.24-2.18-.41-4.58-.77-6.99-.97Z"/>
                  <path class="cls-11" d="M129.68,114.47c-.49.76-.73,1.14-1.21,1.92.54-.15.81-.21,1.38-.31.94-1.17,1.41-1.76,2.35-2.93-1.45.64-2.34,1.18-2.52,1.33Z"/>
                  <path class="cls-11" d="M220.26,110.73c10.42,5.52,20.6,11.49,30.65,17.65-.24-1.15-.37-1.73-.62-2.87-9.81-6.16-19.63-12.12-29.67-17.9-.14,1.24-.21,1.86-.36,3.12Z"/>
                  <path class="cls-11" d="M179.41,107.46c-4.9,2.35-7.39,3.63-12.42,6.3,0,0-1.38-.41-3.58-.96.22,4.58.38,6.95.81,11.83,7.43-4.77,11.09-7.09,18.13-11.34-1.22-2.38-1.81-3.55-2.93-5.82Z"/>
                  <path class="cls-11" d="M287.61,151.46c-.29-.8-.43-1.21-.73-2-6.12-4.04-9.21-6.09-15.39-10.16.42,1.03.63,1.55,1.05,2.59,6.06,3.84,9.08,5.77,15.07,9.57Z"/>
                  <path class="cls-11" d="M218.6,109.86c.66.35,1,.52,1.66.87.15-1.26.22-1.88.36-3.12-1.5-.84-2.25-1.24-3.73-2.05-.04.24-.06.37-.1.61.72,1.46,1.08,2.2,1.81,3.68Z"/>
                  <path class="cls-8" d="M250.91,128.38c8.62,5.27,12.98,8.02,21.63,13.5-.42-1.04-.63-1.56-1.05-2.59-8.5-5.59-12.77-8.4-21.2-13.78.25,1.14.37,1.71.62,2.87Z"/>
                  <path class="cls-8" d="M164.21,124.63c-.43-4.88-.59-7.25-.81-11.83-1.45-.36-3.26-.78-5.24-1.15.06,4.71.16,7.17.49,12.24,1.47.73,2.21,1.12,3.73,1.92.73-.47,1.1-.71,1.83-1.18Z"/>
                  <path class="cls-11" d="M179.41,107.46c1.12,2.27,1.71,3.44,2.93,5.82,1.84-1.11,2.76-1.66,4.57-2.73-1.07-2.2-1.59-3.28-2.59-5.4-1.95.89-2.93,1.35-4.91,2.3Z"/>
                  <path class="cls-5" d="M200.7,98.5c.43,1.5.65,2.26,1.09,3.79.19-.1.29-.14.48-.24,5.49,2.36,8.32,3.72,14.08,6.66.18-1.02.26-1.52.43-2.53-.18-.36-.27-.54-.44-.91-5.93-3.18-8.83-4.65-14.44-7.17-.48.16-.71.24-1.19.4Z"/>
                  <path class="cls-6" d="M136.34,111.69c-1.67.45-3.06.98-4.14,1.45-.94,1.17-1.41,1.76-2.35,2.93,1.34-.23,2.06-.28,3.59-.26,1.16-1.65,1.75-2.48,2.9-4.13Z"/>
                  <path class="cls-11" d="M141.98,110.67c-2.33,2.12-3.51,3.19-5.88,5.33,2.64.31,4.08.63,7.17,1.55,3.19-2.77,4.77-4.15,7.9-6.89-3.17-.27-6.35-.28-9.19,0Z"/>
                  <path class="cls-5" d="M216.78,106.18c-.17,1-.25,1.51-.43,2.53.89.46,1.34.69,2.24,1.16-.73-1.48-1.1-2.22-1.81-3.68Z"/>
                  <path class="cls-7" d="M261.35,246.66c10.34,4.78,20.62,9.69,31.72,12.48.73-2.24,1.08-3.38,1.71-5.67-12.76-3.56-24.63-9.14-36.55-14.82-3.5,13.82-7.46,27.4-11.84,40.96.02.08.03.13.06.21,3.6-1.23,5.39-1.87,8.96-3.19,2.49-9.82,4.5-19.94,5.95-29.97Z"/>
                  <path class="cls-7" d="M250.36,318.32c5.09-3.54,7.54-5.54,12.16-9.92,1.78-3.62,1.29-6.92-1.65-15.63-4.11,3.23-6.15,4.84-10.2,7.99.98,8.28.97,11.86-.31,17.56Z"/>
                  <path class="cls-7" d="M259.92,290.11c-.83-2.23-1.3-3.41-2.36-5.89-3.72,1.08-5.6,1.58-9.41,2.5,1.06,4.62,1.48,6.81,2.1,10.92,3.84-2.98,5.78-4.49,9.67-7.53Z"/>
                  <path class="cls-7" d="M257.56,284.22c-.95-2.23-1.47-3.4-2.6-5.83.18-.7.27-1.06.44-1.77-3.56,1.32-5.36,1.96-8.96,3.19.75,2.84,1.09,4.22,1.71,6.9,3.81-.92,5.69-1.42,9.41-2.5Z"/>
                  <path class="cls-9" d="M144.91,292.75c1.73,1.51,2.59,2.27,4.3,3.77-.02-.91-.03-1.37-.04-2.3-1.71-.57-2.56-.86-4.26-1.47Z"/>
                  <path class="cls-9" d="M193.3,334.56c3.91.32,5.89.36,9.81.21-7.15-5.03-11.23-8.17-19.78-15.04-4.95-1.41-7.42-2.24-12.36-4.11,7.33,6.43,14.75,12.81,22.33,18.94Z"/>
                  <path class="cls-9" d="M153.43,295.58c.02,1.94.04,2.89.11,4.75,4.12,3.62,6.15,5.41,10.12,8.9,4.94,2.03,7.42,2.96,12.39,4.59-8.21-6.74-12.56-10.41-21.45-17.89-.47-.14-.7-.21-1.17-.35Z"/>
                  <path class="cls-9" d="M127.61,195.09c-10.6-4.19-15.67-6.04-25.06-8.94-.32,1.92-.47,2.89-.74,4.82,6.63,1.83,10.11,2.9,17.29,5.26-2.78,11.24-5.01,22.07-6.76,33.51,4.12-2.56,6.27-3.95,10.68-6.91,1.03-9.27,2.6-18.64,4.59-27.76Z"/>
                  <path class="cls-9" d="M123.01,269.52c-1.17-8.03-1.46-12.33-1.49-21.39-4.34,1.35-6.43,1.93-10.42,2.89.1,5.69.31,8.41,1.06,13.52,8.23,6.92,16.36,13.95,24.49,21,3.4,1.1,5.13,1.61,8.63,2.56-7.4-6.22-14.82-12.42-22.27-18.58Z"/>
                  <path class="cls-8" d="M123.02,222.85c-4.41,2.96-6.56,4.35-10.68,6.91-1.12,9.01-1.38,13.28-1.24,21.26,3.99-.95,6.09-1.54,10.42-2.89-.03-9.59.28-14.68,1.5-25.28Z"/>
                  <path class="cls-11" d="M149.17,291.36c-1.55-1.3-2.33-1.96-3.89-3.27-3.5-.94-5.23-1.45-8.63-2.56,3.33,2.89,4.98,4.34,8.26,7.21,1.69.61,2.54.9,4.26,1.47-.01-1.13-.01-1.7,0-2.86Z"/>
                  <path class="cls-9" d="M153.43,294.94c0,.26,0,.38,0,.64.47.14.7.21,1.17.35-.47-.4-.71-.59-1.18-.99Z"/>
                  <path class="cls-3" d="M149.17,291.36c-.01,1.16-.01,1.73,0,2.86,0,.93.02,1.39.04,2.3,1.74,1.53,2.61,2.29,4.34,3.81-.07-1.87-.09-2.82-.11-4.75,0-.25,0-.38,0-.64-1.7-1.43-2.55-2.14-4.26-3.58Z"/>
                  <path class="cls-7" d="M118.34,284.09c.77,1.29,1.17,1.93,1.97,3.19,9.7,6.83,19.19,12.86,29.51,18.71-.14-1.26-.2-1.91-.3-3.22-10.84-5.45-21.25-11.73-31.19-18.68Z"/>
                  <path class="cls-7" d="M153.79,304.85c.1,1.35.15,2.02.28,3.33,6.7,3.35,10.09,4.86,16.9,7.44-2.87-2.5-4.33-3.78-7.3-6.39-3.97-1.63-5.95-2.51-9.88-4.38Z"/>
                  <path class="cls-3" d="M259.92,290.11c.41,1.09.6,1.63.94,2.66,3.58-2.81,5.37-4.23,8.98-7.08-1.25-.27-1.9-.43-3.24-.8-2.68,2.1-4.02,3.14-6.68,5.22Z"/>
                  <path class="cls-3" d="M288.53,270.96c.82-1.85,1.21-2.78,1.96-4.68-6.21,4.8-9.35,7.24-15.6,12.13,1.47.24,2.19.34,3.57.48,4.04-3.18,6.06-4.77,10.08-7.93Z"/>
                  <path class="cls-3" d="M233.84,310.19c.38,1.14.56,1.7.9,2.8,6.22-4.7,9.43-7.18,15.91-12.23-.14-1.22-.23-1.85-.42-3.12-6.69,5.18-9.99,7.73-16.4,12.56Z"/>
                  <path class="cls-3" d="M219.53,320.71c-15.31-.34-28.76-2.69-43.48-6.89,2.97,2.44,4.42,3.62,7.27,5.91,11.7,3.37,23.92,5.09,36.1,4.49,3.56-2.52,5.39-3.84,9.1-6.58-.32-1.12-.48-1.69-.83-2.86-3.32,2.45-4.96,3.65-8.16,5.93Z"/>
                  <path class="cls-8" d="M269.84,285.69c3.44-2.72,5.17-4.08,8.62-6.8-1.38-.14-2.09-.24-3.57-.48-3.32,2.59-4.98,3.89-8.29,6.48,1.34.37,1.99.53,3.24.8Z"/>
                  <path class="cls-6" d="M227.7,314.78c.35,1.16.52,1.73.83,2.86,2.46-1.82,3.7-2.75,6.22-4.65-.34-1.1-.52-1.66-.9-2.8-2.49,1.87-3.72,2.79-6.15,4.59Z"/>
                  <path class="cls-7" d="M149.53,302.77c.1,1.31.16,1.95.3,3.22,1.69.9,2.54,1.34,4.25,2.19-.13-1.31-.18-1.97-.28-3.33-1.71-.81-2.57-1.23-4.27-2.08Z"/>
                  <path class="cls-3" d="M250.24,297.64c.19,1.27.27,1.9.42,3.12,4.04-3.15,6.09-4.76,10.2-7.99-.35-1.03-.54-1.56-.94-2.66-3.9,3.04-5.83,4.55-9.67,7.53Z"/>
                  <path class="cls-5" d="M163.67,309.23c2.97,2.6,4.43,3.89,7.3,6.39,4.93,1.87,7.41,2.7,12.36,4.11-2.85-2.29-4.31-3.48-7.27-5.91-4.97-1.63-7.45-2.55-12.39-4.59Z"/>
                  <path class="cls-7" d="M198.67,186.8c-2.11,2.9-3.17,4.37-5.31,7.3,7.2,4.58,10.91,6.91,18.29,11.63,8.54-4.38,12.77-6.5,21.01-10.53-.62-1.8-.92-2.7-1.54-4.51-6.7,3.25-10.12,4.96-17.04,8.43-6.22-4.95-9.36-7.45-15.41-12.32Z"/>
                  <path class="cls-7" d="M185.65,176.32c-6.67-5.35-9.92-7.94-16.15-12.79,1.21,6.91,1.88,10.45,3.32,17.65,1.45.89,2.18,1.35,3.64,2.26,3.7-2.85,5.54-4.28,9.19-7.11Z"/>
                  <path class="cls-7" d="M255.44,179.41c.89,1.63,1.33,2.44,2.21,4.06,2.29-1.01,3.43-1.51,5.67-2.46,3.94-.2,5.89-.28,9.73-.4.65-1.58.96-2.37,1.58-3.91-5.02-.08-7.58-.08-12.78-.01-2.52,1.05-3.81,1.59-6.4,2.72Z"/>
                  <path class="cls-7" d="M295.7,180.54c-.24-1.2-.37-1.79-.63-2.98-5.47-.38-8.29-.52-14.06-.7-.59,1.42-.89,2.15-1.51,3.61,6.67-.11,9.92-.09,16.2.07Z"/>
                  <path class="cls-7" d="M162.96,160.16c-4.4,3.41-6.62,5.12-11.07,8.52,5.45,3.1,8.28,4.78,14.06,8.29-1.32-6.87-1.93-10.23-2.99-16.8Z"/>
                  <path class="cls-7" d="M137.75,140.59c-9.1,4.26-18.13,8.74-27.05,13.36-2.79,8.1-4,12.31-5.95,20.96,9.82-5.18,19.61-10.42,29.38-15.7,4.41,2.16,6.72,3.36,11.49,5.97,5.19-4.01,7.78-6.03,12.9-10.07-9.13-6.85-13.36-9.87-20.77-14.53Z"/>
                  <path class="cls-11" d="M185.65,176.32c-3.65,2.83-5.49,4.26-9.19,7.11,6.63,4.13,10.02,6.29,16.9,10.66,2.14-2.93,3.2-4.39,5.31-7.3-5.29-4.27-7.91-6.38-13.01-10.47Z"/>
                  <path class="cls-7" d="M273.05,180.61c2.61-.08,3.9-.11,6.45-.15.62-1.47.93-2.19,1.51-3.61-2.53-.08-3.81-.11-6.39-.15-.61,1.54-.93,2.32-1.58,3.91Z"/>
                  <path class="cls-7" d="M172.83,181.17c-1.44-7.2-2.11-10.73-3.32-17.65-2.21-1.72-3.3-2.57-5.45-4.21-.44.34-.66.51-1.1.85,1.07,6.57,1.67,9.94,2.99,16.8,2.72,1.65,4.09,2.49,6.87,4.21Z"/>
                  <path class="cls-3" d="M162.65,158.24c-1.68-1.28-2.5-1.9-4.13-3.13-5.12,4.03-7.71,6.06-12.9,10.07,2.47,1.35,3.72,2.05,6.27,3.5,4.45-3.4,6.67-5.11,11.07-8.52.44-.34.66-.51,1.1-.85-.56-.43-.85-.65-1.41-1.08Z"/>
                  <path class="cls-7" d="M257.65,183.47c-.88-1.62-1.32-2.43-2.21-4.06-1.69.74-2.54,1.11-4.26,1.88-.75,2.37-1.14,3.56-1.93,5.98,3.41-1.58,5.09-2.34,8.4-3.8Z"/>
                  <path class="cls-7" d="M239.31,191.96c.76-2.45,1.13-3.67,1.86-6.08-3.97,1.86-5.98,2.83-10.05,4.8.62,1.8.93,2.7,1.54,4.51,2.68-1.31,4.01-1.96,6.65-3.23Z"/>
                  <path class="cls-7" d="M249.25,187.27c.79-2.42,1.18-3.61,1.93-5.98-3.94,1.76-5.94,2.68-10.01,4.59-.73,2.41-1.1,3.63-1.86,6.08,4.03-1.94,6.03-2.88,9.94-4.69Z"/>
                  <path class="cls-3" d="M231.88,168.14c-2.28-.14-3.42-.21-5.72-.33-.13-2.5-.2-3.75-.34-6.23,2.26.14,3.39.21,5.65.38.17,2.46.25,3.7.41,6.18Z"/>
                  <path class="cls-3" d="M211.51,115.63c-1.62-.12-2.43-.17-4.05-.25-.06-1.86-.09-2.78-.15-4.62,1.59.08,2.38.14,3.97.26.09,1.83.14,2.75.23,4.6Z"/>
                  <path class="cls-3" d="M228,137.51c-1.8-.21-2.71-.3-4.52-.48-.15-2.02-.23-3.02-.39-5.01,1.78.19,2.67.29,4.44.52.19,1.98.28,2.98.46,4.98Z"/>
                  <path class="cls-3" d="M229.19,96.08c-1.47-.43-2.21-.63-3.69-1.01-.27-1.74-.41-2.61-.7-4.32,1.44.4,2.16.61,3.59,1.06.32,1.69.48,2.55.8,4.28Z"/>
                  <path class="cls-3" d="M199.29,176.12c-1.91,0-2.86,0-4.76.02.01-2.1.02-3.15.04-5.24,1.89-.02,2.83-.02,4.72-.02,0,2.09,0,3.14,0,5.24Z"/>
                  <path class="cls-4" d="M161.87,211.68c-2.12-.01-3.17-.02-5.28-.04.03-2.29.05-3.44.1-5.75,2.1,0,3.15,0,5.27-.02-.05,2.33-.06,3.49-.09,5.8Z"/>
                  <path class="cls-3" d="M130.89,235.97c-2.08-.2-3.12-.3-5.18-.52-.15-2.08-.22-3.13-.33-5.23,2.07.17,3.11.26,5.2.42.1,2.15.16,3.21.3,5.33Z"/>
                  <path class="cls-3" d="M159.46,236.04c-2.36-.12-3.54-.18-5.89-.32-.09-2.45-.12-3.68-.18-6.15,2.35.11,3.54.16,5.91.25.05,2.51.08,3.75.16,6.23Z"/>
                  <path class="cls-3" d="M167.34,248.52c-1.22-.07-1.83-.11-3.05-.19-.06-1.26-.09-1.89-.14-3.16,1.22.07,1.83.11,3.06.17.05,1.27.07,1.91.13,3.18Z"/>
                  <path class="cls-3" d="M249.65,213.49c-.87.01-1.31.02-2.18.03-.02-.94-.03-1.41-.05-2.36.87,0,1.31,0,2.18-.01.02.94.03,1.41.05,2.35Z"/>
                  <path class="cls-3" d="M256.69,199.53c-.6-.01-.9-.02-1.5-.03-.03-.64-.05-.96-.09-1.6.6.01.9.02,1.49.04.04.64.05.96.09,1.59Z"/>
                  <path class="cls-3" d="M263.92,222.26c-.85.04-1.28.05-2.13.09,0-.9,0-1.34,0-2.24.85-.03,1.28-.04,2.13-.08,0,.89,0,1.34,0,2.23Z"/>
                  <path class="cls-3" d="M270.3,229.32c-1.17.09-1.76.13-2.93.21.04-1.21.06-1.82.09-3.04,1.18-.07,1.77-.11,2.94-.18-.03,1.21-.05,1.81-.09,3.01Z"/>
                  <path class="cls-3" d="M274.85,220.89c-.91.04-1.37.07-2.29.11,0-.95,0-1.43,0-2.39.92-.04,1.38-.05,2.29-.09,0,.95,0,1.42,0,2.37Z"/>
                  <path class="cls-3" d="M189.87,149.56c-1.23.04-1.84.06-3.07.1.05-1.37.07-2.05.12-3.41,1.22-.05,1.82-.07,3.04-.11-.04,1.36-.05,2.05-.09,3.42Z"/>
                  <path class="cls-3" d="M200.52,150.1c-1.99,0-2.96,0-4.93.02.02-2.2.03-3.3.06-5.48,1.94-.03,2.89-.03,4.85-.02,0,2.18,0,3.28.01,5.48Z"/>
                  <path class="cls-3" d="M196.57,157.04c-1.17,0-1.75.01-2.92.03.02-1.3.03-1.95.04-3.24,1.16-.02,1.74-.03,2.9-.03,0,1.29-.01,1.94-.02,3.24Z"/>
                  <path class="cls-3" d="M131.68,148.35c-1.28.32-1.92.48-3.19.81.32-1.32.49-1.98.83-3.29,1.26-.35,1.89-.52,3.15-.86-.32,1.33-.48,1.99-.79,3.34Z"/>
                  <path class="cls-3" d="M120.58,160.14c-1.18.26-1.77.4-2.95.67.29-1.19.44-1.78.74-2.97,1.16-.29,1.75-.44,2.92-.72-.29,1.2-.44,1.8-.72,3.01Z"/>
                  <path class="cls-4" d="M115.22,158.65c-1.78.47-2.66.7-4.41,1.19.51-1.75.78-2.61,1.33-4.33,1.73-.53,2.6-.8,4.35-1.31-.52,1.77-.77,2.66-1.26,4.45Z"/>
                  <path class="cls-3" d="M128.93,129.05c-1.13.52-1.69.78-2.81,1.31.47-1.15.71-1.72,1.19-2.86,1.1-.56,1.66-.83,2.77-1.37-.46,1.16-.69,1.74-1.15,2.91Z"/>
                  <path class="cls-3" d="M276.16,283.67c-1.04.49-1.56.74-2.61,1.21.43-1.02.63-1.53,1.04-2.56,1.07-.46,1.6-.69,2.65-1.17-.43,1.01-.64,1.51-1.09,2.51Z"/>
                  <path class="cls-3" d="M189.84,308.48c-1.61-.11-2.42-.18-4.02-.33-.11-1.64-.17-2.47-.28-4.15,1.64.15,2.46.21,4.1.31.08,1.68.12,2.51.2,4.16Z"/>
                  <path class="cls-3" d="M210.69,316.23c-1.96.17-2.94.23-4.9.32.07-2.02.1-3.04.17-5.12,2.02-.09,3.03-.15,5.04-.31-.12,2.06-.18,3.08-.31,5.1Z"/>
                  <path class="cls-3" d="M203.92,327.98c-1.15.05-1.73.06-2.89.08.01-1.2.02-1.81.03-3.03,1.18-.01,1.77-.03,2.95-.07-.04,1.22-.05,1.83-.09,3.03Z"/>
                  <path class="cls-3" d="M222.01,294.53c-2.25.25-3.38.36-5.65.55.15-2.31.22-3.48.35-5.83,2.32-.17,3.47-.28,5.77-.51-.18,2.34-.28,3.5-.48,5.79Z"/>
                  <path class="cls-9" d="M135.81,269.87c-1.22-.28-1.83-.43-3.04-.72-.25-1.19-.38-1.79-.62-3,1.22.28,1.84.42,3.07.69.23,1.22.35,1.83.59,3.04Z"/>
                  <path class="cls-9" d="M144.58,278.2c-2.1-.48-3.14-.74-5.21-1.26-.45-2.05-.66-3.09-1.07-5.18,2.11.48,3.17.72,5.31,1.16.37,2.14.57,3.19.97,5.29Z"/>
                  <path class="cls-9" d="M125.83,280.62c-.79-.32-1.18-.48-1.96-.81-.29-.75-.44-1.13-.72-1.89.79.32,1.19.48,1.99.79.28.77.42,1.16.7,1.92Z"/>
                  <path class="cls-9" d="M183.83,268.93c-1.08-.05-1.62-.08-2.7-.14-.05-1.11-.07-1.66-.11-2.78,1.08.06,1.63.08,2.71.13.04,1.12.06,1.67.1,2.78Z"/>
                  <path class="cls-9" d="M225.17,216.42c-1.7.01-2.55.02-4.25.03-.01-1.85-.02-2.78-.05-4.64,1.7,0,2.55,0,4.25-.01.03,1.86.04,2.78.05,4.62Z"/>
                  <path class="cls-9" d="M225.26,206.36c-.85,0-1.27,0-2.12,0-.02-.94-.03-1.41-.05-2.35.85,0,1.27,0,2.11,0,.02.94.03,1.41.05,2.34Z"/>
                  <path class="cls-9" d="M212.78,208.7c-.85,0-1.28,0-2.14,0,0-.94-.01-1.41-.03-2.36.85,0,1.28,0,2.13,0,.01.94.02,1.42.03,2.36Z"/>
                  <path class="cls-9" d="M287.33,242.02c-1.81.31-2.72.45-4.55.74.23-1.81.33-2.72.52-4.56,1.85-.25,2.77-.38,4.59-.65-.2,1.8-.31,2.69-.56,4.46Z"/>
                  <path class="cls-9" d="M288.23,231.82c-.84.1-1.25.14-2.1.24.06-.84.09-1.26.15-2.1.84-.09,1.26-.13,2.1-.22-.06.84-.09,1.25-.15,2.08Z"/>
                  <path class="cls-9" d="M289.21,189.59c-1.56-.13-2.35-.2-3.93-.33-.21-1.62-.32-2.42-.55-4.03,1.57.16,2.35.24,3.91.4.24,1.58.35,2.37.57,3.95Z"/>
                  <path class="cls-4" d="M245.51,175.9c-1.68-.12-2.53-.18-4.22-.29-.13-1.83-.2-2.74-.34-4.56,1.68.13,2.52.19,4.19.33.16,1.8.23,2.71.38,4.52Z"/>
                  <path class="cls-9" d="M148.96,184.27c-1.34.07-2.01.11-3.34.19.11-1.43.16-2.14.28-3.55,1.33-.09,1.99-.13,3.32-.21-.11,1.43-.16,2.15-.26,3.58Z"/>
                  <path class="cls-9" d="M111.73,199.71c-2.02.06-3.02.09-5.01.16.17-2.03.27-3.04.49-5.05,1.98-.11,2.98-.17,4.99-.28-.21,2.06-.3,3.09-.47,5.17Z"/>
                  <path class="cls-9" d="M111.49,206.7c-1.02,0-1.52,0-2.53,0,.05-1.05.08-1.57.15-2.62,1.01-.01,1.51-.02,2.53-.03-.07,1.06-.1,1.6-.15,2.65Z"/>
                  <path class="cls-9" d="M106.45,212.7c-.84-.03-1.25-.04-2.08-.06.01-.84.03-1.27.05-2.11.83.02,1.25.03,2.08.04-.03.86-.04,1.28-.05,2.13Z"/>
                  <path class="cls-8" d="M274.05,155.11c-1.41-.34-2.12-.5-3.54-.83-.33-1.49-.49-2.23-.83-3.71,1.41.35,2.11.53,3.5.89.36,1.45.53,2.18.88,3.65Z"/>
                  <path class="cls-8" d="M236.98,90.83c-.62-.28-.93-.42-1.56-.7-.2-.74-.3-1.1-.49-1.83.61.28.92.42,1.53.71.21.72.31,1.09.52,1.82Z"/>
                  <path class="cls-8" d="M228,80.11c-1.37-.58-2.05-.85-3.43-1.36-.35-1.68-.52-2.51-.88-4.16,1.33.53,1.99.81,3.3,1.41.4,1.62.6,2.44,1,4.1Z"/>
                  <path class="cls-8" d="M233.81,79.5c-.62-.35-.93-.53-1.55-.86-.23-.76-.35-1.13-.58-1.88.61.34.91.52,1.52.88.25.74.37,1.11.61,1.86Z"/>
                  <path class="cls-8" d="M270.46,116.76c-1.41-1.05-2.13-1.56-3.57-2.57-.81-1.54-1.22-2.29-2.05-3.79,1.39,1.05,2.08,1.59,3.45,2.69.88,1.45,1.31,2.18,2.17,3.67Z"/>
                  <path class="cls-8" d="M272.46,122.25c-.38-.24-.56-.35-.94-.59-.2-.4-.29-.59-.49-.99.37.24.56.36.93.59.2.39.3.59.5.98Z"/>
                  <path class="cls-8" d="M239.68,113.25c-.58-.16-.87-.25-1.45-.41-.13-.66-.19-.99-.32-1.64.58.16.86.25,1.44.41.13.65.2.98.33,1.63Z"/>
                  <path class="cls-8" d="M212.19,79.99c-1.14-.19-1.71-.27-2.85-.42-.1-1.4-.15-2.09-.25-3.47,1.11.15,1.66.24,2.77.43.13,1.37.19,2.06.32,3.45Z"/>
                  <path class="cls-8" d="M191.38,91.16c-.81.07-1.22.11-2.03.2.07-.98.1-1.47.17-2.44.8-.09,1.2-.13,2-.21-.05.97-.08,1.46-.13,2.44Z"/>
                  <path class="cls-8" d="M191.96,100.45c-1.43.1-2.14.16-3.57.3.11-1.69.16-2.53.27-4.2,1.39-.15,2.09-.21,3.49-.31-.08,1.67-.11,2.51-.19,4.21Z"/>
                  <path class="cls-8" d="M193.81,217.81c-2.37,0-3.56,0-5.93-.02,0-2.58,0-3.88,0-6.48,2.36,0,3.55,0,5.92,0,0,2.61,0,3.91.02,6.5Z"/>
                  <path class="cls-8" d="M197.33,205.81c-1.04,0-1.56,0-2.6,0,0-1.16,0-1.75,0-2.89,1.04,0,1.56,0,2.59,0,0,1.14,0,1.74,0,2.89Z"/>
                  <path class="cls-8" d="M202.11,212.88c-1.24,0-1.86,0-3.1,0,0-1.36,0-2.04-.01-3.4,1.23,0,1.85,0,3.09,0,0,1.36.01,2.04.02,3.4Z"/>
                  <path class="cls-8" d="M197.52,252.44c-.93,0-1.4,0-2.33-.02,0-.97-.01-1.45-.02-2.43.94,0,1.4.01,2.34.01,0,.97,0,1.46.01,2.43Z"/>
                  <path class="cls-8" d="M137.29,256.44c-1.71-.27-2.57-.41-4.26-.7-.24-1.69-.35-2.54-.57-4.25,1.71.26,2.57.39,4.3.64.2,1.74.31,2.6.53,4.32Z"/>
                  <path class="cls-8" d="M129.1,252.81c-1.1-.19-1.65-.28-2.74-.48-.16-1.08-.24-1.62-.39-2.71,1.1.18,1.65.27,2.75.45.14,1.1.22,1.65.38,2.74Z"/>
                  <path class="cls-8" d="M113.08,176.63c-.65.1-.97.14-1.62.24.12-.65.18-.98.31-1.63.64-.1.97-.15,1.61-.25-.12.66-.18.98-.3,1.64Z"/>
                  <path class="cls-8" d="M125.12,175.85c-1.01.12-1.51.18-2.51.31.16-1.03.24-1.55.4-2.58,1-.14,1.49-.2,2.5-.34-.16,1.04-.24,1.56-.39,2.6Z"/>
                  <path class="cls-8" d="M277.81,267.78c-.7.21-1.05.31-1.75.52.18-.68.27-1.02.44-1.71.71-.2,1.06-.3,1.76-.5-.18.68-.27,1.02-.46,1.7Z"/>
                  <path class="cls-8" d="M273.19,274.16c-.61.2-.92.29-1.54.49.17-.6.25-.9.42-1.51.62-.19.93-.28,1.55-.47-.17.6-.26.9-.43,1.5Z"/>
                  <path class="cls-8" d="M282.71,271.46c-1.25.48-1.88.71-3.14,1.17.41-1.22.61-1.83,1-3.06,1.28-.44,1.92-.66,3.19-1.11-.41,1.21-.62,1.81-1.05,3Z"/>
                  <path class="cls-8" d="M285.55,263.36c-.84.27-1.26.4-2.1.66.23-.81.35-1.22.57-2.04.85-.25,1.28-.38,2.12-.63-.23.81-.35,1.21-.59,2.01Z"/>
                  <path class="cls-5" d="M141.82,127.6c-.81.27-1.21.41-2.02.68.24-.86.37-1.29.61-2.15.8-.29,1.2-.43,2-.7-.24.86-.36,1.3-.59,2.17Z"/>
                  <path class="cls-5" d="M147.65,131.73c-1.61.42-2.42.63-4.02,1.08.4-1.72.6-2.58,1.02-4.27,1.57-.47,2.36-.7,3.95-1.15-.39,1.72-.58,2.59-.95,4.34Z"/>
                  <path class="cls-5" d="M141.01,134.88c-1.22.34-1.83.52-3.04.88.33-1.29.49-1.93.83-3.2,1.2-.38,1.8-.56,3-.92-.32,1.29-.48,1.94-.79,3.24Z"/>
                  <path class="cls-5" d="M157.26,88.97c-1.11.68-1.66,1.04-2.76,1.76.53-1.25.79-1.87,1.33-3.1,1.07-.75,1.6-1.11,2.68-1.82-.5,1.25-.75,1.88-1.25,3.16Z"/>
                  <path class="cls-5" d="M151.34,94.96c-.71.46-1.06.69-1.77,1.17.35-.79.53-1.18.89-1.95.69-.48,1.04-.72,1.73-1.19-.34.79-.52,1.18-.86,1.98Z"/>
                  <path class="cls-5" d="M289.49,162.64c-1.67-.44-2.51-.66-4.2-1.08-.45-1.72-.68-2.57-1.16-4.27,1.67.46,2.49.7,4.14,1.18.5,1.65.75,2.49,1.22,4.16Z"/>
                  <path class="cls-5" d="M289.94,171.85c-.71-.14-1.06-.2-1.77-.34-.16-.72-.24-1.08-.4-1.79.71.14,1.06.21,1.76.36.17.71.25,1.06.41,1.77Z"/>
                  <path class="cls-5" d="M246.8,135.1c-1.26-.27-1.89-.4-3.16-.65-.22-1.4-.33-2.09-.56-3.47,1.25.26,1.88.4,3.12.68.24,1.37.36,2.06.6,3.44Z"/>
                  <path class="cls-5" d="M244.64,139.76c-.89-.16-1.33-.24-2.22-.39-.14-.98-.21-1.47-.35-2.44.88.16,1.32.24,2.2.41.15.97.22,1.45.37,2.42Z"/>
                  <path class="cls-5" d="M145.34,310.88c-1.04-.63-1.56-.96-2.59-1.62-.55-1.04-.82-1.56-1.36-2.62,1.06.64,1.59.95,2.66,1.57.51,1.08.77,1.62,1.29,2.67Z"/>
                  <path class="cls-5" d="M136.24,302.39c-.74-.47-1.11-.72-1.84-1.2-.42-.72-.62-1.08-1.03-1.81.74.48,1.12.71,1.87,1.17.4.74.6,1.11,1,1.84Z"/>
                  <path class="cls-5" d="M140.99,309.09c-.82-.58-1.22-.88-2.03-1.48-.51-.81-.76-1.21-1.25-2.04.83.59,1.24.87,2.08,1.44.48.84.72,1.25,1.2,2.08Z"/>
                  <path class="cls-5" d="M168.74,281.93c-1.19-.15-1.79-.23-2.97-.39-.13-1.21-.19-1.81-.32-3.03,1.2.16,1.8.23,3,.37.11,1.22.17,1.83.29,3.05Z"/>
                  <path class="cls-5" d="M129.41,295.85c-.68-.45-1.02-.67-1.69-1.13-.4-.65-.6-.98-.99-1.64.68.45,1.03.67,1.71,1.1.38.67.57,1,.96,1.66Z"/>
                  <path class="cls-5" d="M270.92,296.96c-.36.25-.54.38-.9.63.22-.35.33-.53.55-.88.37-.25.55-.37.91-.62-.22.35-.33.53-.56.88Z"/>
                  <path class="cls-5" d="M249.94,309.95c-.53.25-.8.37-1.33.61.2-.54.3-.81.5-1.36.54-.24.81-.36,1.35-.6-.2.54-.3.81-.51,1.35Z"/>
                  <path class="cls-5" d="M246.03,317.19c-.76.39-1.13.58-1.9.96.3-.78.46-1.18.75-1.97.78-.37,1.16-.56,1.93-.94-.31.79-.47,1.18-.79,1.95Z"/>
                  <path class="cls-5" d="M243.38,313.24c-.81.33-1.22.49-2.04.8.25-.84.38-1.26.63-2.11.83-.31,1.25-.46,2.07-.78-.26.84-.39,1.26-.66,2.09Z"/>
                  <path class="cls-3" d="M237.26,246.49c-1.58.1-2.37.15-3.95.24.06-1.64.09-2.47.14-4.13,1.59-.08,2.39-.12,3.97-.21-.06,1.65-.09,2.47-.16,4.1Z"/>
                  <path class="cls-3" d="M220.91,230.32c-1.63.03-2.44.05-4.07.07,0-1.73,0-2.6,0-4.35,1.63-.02,2.45-.03,4.08-.06,0,1.74,0,2.61-.01,4.33Z"/>
                  <path class="cls-3" d="M239.88,269.14c-.75.09-1.13.14-1.88.23.07-.77.1-1.15.17-1.92.76-.09,1.13-.13,1.89-.22-.07.77-.11,1.15-.18,1.91Z"/>
                  <path class="cls-11" d="M183.65,161.91c-1.4.05-2.1.08-3.49.14.06-1.54.1-2.31.16-3.84,1.38-.07,2.08-.1,3.46-.15-.05,1.54-.08,2.31-.13,3.85Z"/>
                  <path class="cls-11" d="M243.61,200.07c-1.45-.02-2.17-.03-3.63-.05-.06-1.57-.09-2.36-.16-3.92,1.45.03,2.17.05,3.61.08.07,1.55.11,2.33.17,3.89Z"/>
                  <path class="cls-11" d="M202.18,263.55c-.92,0-1.39,0-2.31,0,0-.95,0-1.42,0-2.38.93,0,1.39,0,2.32,0,0,.95,0,1.43,0,2.38Z"/>
                  <path class="cls-11" d="M258.05,302.7c-1.53.76-2.3,1.13-3.86,1.83.6-1.56.89-2.36,1.46-3.96,1.6-.67,2.4-1.02,3.98-1.75-.62,1.57-.93,2.34-1.58,3.87Z"/>
                  <path class="cls-11" d="M256.79,309.64c-.7.44-1.05.66-1.75,1.09.36-.71.54-1.07.89-1.79.72-.42,1.08-.63,1.79-1.06-.36.71-.55,1.07-.92,1.77Z"/>
                  <path class="cls-11" d="M114.44,239.44c-.6-.09-.9-.13-1.49-.23-.07-.58-.11-.88-.18-1.46.6.09.89.13,1.49.22.07.59.1.89.17,1.47Z"/>
                  <path class="cls-11" d="M125.93,243.46c-1.47-.2-2.21-.31-3.66-.52-.17-1.45-.25-2.18-.4-3.65,1.47.19,2.21.28,3.69.46.14,1.49.21,2.23.37,3.7Z"/>
                  <path class="cls-11" d="M156.8,258.25c-.77-.08-1.15-.12-1.91-.21-.07-.78-.1-1.17-.16-1.95.77.08,1.15.12,1.92.2.06.79.09,1.18.15,1.96Z"/>
                  <path class="cls-11" d="M144.55,153.87c-1.78.29-2.67.44-4.44.74.31-1.88.48-2.81.81-4.67,1.75-.34,2.62-.5,4.38-.82-.31,1.89-.46,2.83-.75,4.74Z"/>
                  <path class="cls-11" d="M157.01,101.12c-.85.36-1.28.55-2.12.92.29-.96.44-1.43.73-2.38.83-.39,1.25-.58,2.09-.95-.28.95-.42,1.43-.7,2.4Z"/>
                  <path class="cls-11" d="M246.52,90.16c-.96-.69-1.44-1.03-2.41-1.69-.47-1.13-.71-1.69-1.19-2.8.94.68,1.41,1.03,2.34,1.74.51,1.09.76,1.64,1.26,2.75Z"/>
                  <path class="cls-11" d="M150.57,193.81c-1.43.04-2.14.06-3.56.11.08-1.53.12-2.29.22-3.8,1.42-.06,2.13-.09,3.55-.14-.09,1.53-.13,2.3-.2,3.84Z"/>
                  <path class="cls-11" d="M149.28,218.56c-.79-.02-1.18-.03-1.97-.05,0-.84,0-1.26,0-2.1.79.02,1.18.02,1.97.04,0,.84,0,1.27,0,2.11Z"/>
                  <path class="cls-11" d="M138.02,199.99c-1.03.02-1.54.03-2.56.05.06-1.08.09-1.63.15-2.71,1.02-.03,1.53-.04,2.55-.07-.06,1.09-.09,1.63-.14,2.73Z"/>
                  <path class="cls-11" d="M133.91,186.43c-1.63.11-2.44.16-4.05.27.16-1.69.25-2.54.43-4.22,1.6-.13,2.41-.2,4.03-.33-.17,1.7-.26,2.56-.41,4.28Z"/>
                  <path class="cls-11" d="M196.05,232.34c-.82,0-1.22,0-2.04,0,0-.87,0-1.3-.01-2.18.82,0,1.22,0,2.04,0,0,.87,0,1.31.01,2.18Z"/>
                  <path class="cls-11" d="M171.72,323.96c-1.06-.32-1.59-.49-2.65-.84-.27-1.1-.4-1.65-.66-2.77,1.08.34,1.62.5,2.71.81.24,1.13.36,1.69.6,2.8Z"/>
                  <path class="cls-11" d="M182.5,324.52c-.81-.14-1.21-.21-2.01-.37-.12-.84-.17-1.26-.29-2.11.82.15,1.23.23,2.05.36.1.85.15,1.27.26,2.12Z"/>
                </g>
              </g>
            </g>
            <ellipse class="cls-12" cx="226.29" cy="148.3" rx="30.92" ry="39.02"/>
            <path class="cls-10" d="M221.47,293.54c-53.77,0-102.67-55.38-97.37-128.31,1.59-21.84,6.8-42.53,14.47-60.88-20.07,25.03-35.16,61.19-38.07,101.24-5.3,72.93,43.59,128.31,97.37,128.31,38.81,0,75.61-28.89,90.71-72.35-18.06,20.06-42.16,32-67.1,32Z"/>
          </g>
        </g>
      </g>
    </g>
  </g>
</svg>