<?xml version="1.0" encoding="UTF-8"?>
<svg xmlns="http://www.w3.org/2000/svg" viewBox="0 0 400 400">
  <defs>
    <style>
      .cls-1 {
        fill: #1e122b;
      }

      .cls-1, .cls-2, .cls-3, .cls-4, .cls-5, .cls-6, .cls-7, .cls-8, .cls-9, .cls-10, .cls-11, .cls-12, .cls-13, .cls-14, .cls-15, .cls-16 {
        stroke-width: 0px;
      }

      .cls-2 {
        fill: none;
      }

      .cls-3 {
        fill: #b58250;
      }

      .cls-4 {
        fill: #506e81;
      }

      .cls-5 {
        fill: #768c87;
      }

      .cls-6 {
        fill: #364562;
      }

      .cls-7 {
        fill: #ae9759;
      }

      .cls-8 {
        fill: #69322e;
      }

      .cls-9 {
        fill: #7a784b;
      }

      .cls-10 {
        fill: #fce2a1;
      }

      .cls-11 {
        fill: #7d6d41;
      }

      .cls-12 {
        fill: #3c6f61;
      }

      .cls-17 {
        isolation: isolate;
      }

      .cls-13 {
        fill: #d1d2d4;
        mix-blend-mode: multiply;
      }

      .cls-14 {
        fill: #fff;
      }

      .cls-15 {
        fill: #8d3e51;
      }

      .cls-16 {
        fill: #332d1b;
        mix-blend-mode: screen;
      }
    </style>
  </defs>
  <g class="cls-17">
    <g id="_Слой_2" data-name="Слой 2">
      <g id="_Слой_1-2" data-name="Слой 1">
        <g>
          <rect class="cls-1" width="400" height="400"/>
          <g>
            <g>
              <path class="cls-7" d="M299.44,204.17c6.47,74.19-44.56,130.66-99.52,130.66s-104.94-56.39-99.52-130.66c5.58-76.45,54.88-139,99.52-139s93.01,64.4,99.52,139Z"/>
              <g>
                <path class="cls-7" d="M267.04,303.85c-41.83,39.5-92.26,39.61-133.9.02-50.47-60.11-37.85-145.32,7.67-204.63,38.84-41.9,79.17-42.58,117.98-.21,44.98,59.45,59.04,144.73,8.25,204.83Z"/>
                <g>
                  <path class="cls-15" d="M148.86,98.07c-8.65,6.23-18.74,15.54-19.76,19.23-2.26,8.18.14,12.7,2.61,17.35,1.69,3.19,6.49-.09,8.76-4.41,5.42-10.33,14.16-23.09,14.32-32.76.03-1.84-1.1-2.88-5.93.6Z"/>
                  <path class="cls-15" d="M236.77,105.68c-1.48,3.71-3.85,20.99-3.37,24.96.48,3.98,9.69,6.78,14.92,8.26,5.23,1.48,8.13-.6,6.1-5.04-2.03-4.44-7.5-16.91-10.35-22.76-2.85-5.85-6.44-7.58-7.3-5.42Z"/>
                  <path class="cls-15" d="M272.29,206.07c-5.15,4.6-8.25,10.87-6.98,13.86,2.76,6.46,7.13,11.15,9.91,13.68,4.09,3.73,14.71-5.25,20-9.58,5.29-4.32,2.08-9.94-4.16-13.8-7.46-4.62-15.85-6.79-18.78-4.17Z"/>
                  <path class="cls-15" d="M172.27,254.64c-2.72,5.76-7.93,12.31-6.41,15.2,3.7,7.07,6.4,9.16,10.29,14.09,1.17,1.48,5.61,2.74,11.97,0,4.72-2.04,7.02-7.4,6.26-14.77-.77-7.44-2.3-10.92-7.88-12.35-4.96-1.27-12.86-5.04-14.22-2.17Z"/>
                </g>
                <g>
                  <path class="cls-4" d="M192.36,128.37c-1.37,2.07-.22,15.04.44,21.2.48,4.52.21,8.29,4.49,7.76,5.22-.65,10.61-5.7,15.56-11.97,5.28-6.69,6.4-9.07,3.29-13.95-3.11-4.88-10.61-11.8-13.36-10.45-2.76,1.35-9.04,5.34-10.41,7.41Z"/>
                  <path class="cls-4" d="M212.76,200.39c-3.52,4.77-9.11,14.83-6.48,18.82,2.24,3.4,3.77,6.55,7.8,8.63,5.25,2.7,11.85,4.61,15.53,3.15,3.05-1.21,8.52-8.45,11.42-16.29.98-2.65-5.01-17.79-7.33-18.82-5.43-2.42-18.19.79-20.94,4.52Z"/>
                  <path class="cls-4" d="M172.97,291.12c-4.29.14,2.61,7.38,7.31,11.55,3.32,2.94,6.27,1.04,9.61-2.06,1.44-1.34-.61-8.57-3.88-9.06-1.3-.19-7.97-.59-13.04-.43Z"/>
                  <path class="cls-4" d="M233.49,288.12c-2.88,7.38-6.34,16.12-3.1,18.21,3.46,2.24,5.81,2.84,8.16,1.6,1.95-1.03,5.72-7.19,7.8-10.2,1.26-1.82-.94-7.44-3.31-10.9-2.36-3.46-7.53-3.86-9.54,1.29Z"/>
                </g>
                <g>
                  <path class="cls-12" d="M181.29,134.01c-8.16,4.51-20.38,9.33-24.42,16.36-1.94,3.37-1.07,8.72,8.28,9.94,4.6.6,19.99,3.67,20.23-3.65.24-7.32,1.65-25.81-4.08-22.65Z"/>
                  <path class="cls-12" d="M161.35,206.92c-9.2.79-19.95,14.84-18.63,18.41,3.22,8.69,11.33,20.77,19.83,23.58,2.72.9,6.74-17.98,6.57-25.08-.15-5.96-4.76-17.16-7.77-16.9Z"/>
                  <path class="cls-12" d="M111.96,249.26c4.89,2.63,14.25,12.31,15.68,14.94,1.43,2.62-2.93,6.61-6.86,7.86-3.93,1.25-7.87-1.69-9.13-6.35-1.25-4.66-3.31-18.39.32-16.44Z"/>
                  <path class="cls-12" d="M269.99,278.02c-2.54,3.27-7.99,10.47-7.03,11.89,1.66,2.44,2.65,4.78,3.52,5.93.44.58,5.92-4.09,7.24-5.6,3.1-3.53,7-9.01,6.82-11.43-.18-2.42-8.15-3.89-10.55-.79Z"/>
                  <path class="cls-12" d="M207.69,310.67c.96,8.7-2.1,14.23,2.33,12.33,4.43-1.9,6.24-7.74,7.74-10.72,1.01-1.99-.12-3.3-1.55-3.93-1.62-.71-3.84-1.12-5.87-1.05-2.14.07-2.86,1.53-2.65,3.38Z"/>
                </g>
                <path class="cls-10" d="M291.6,256.53c-1.27-2.06-4.39-11.68-4.52-14.78-.15-3.69.31-4.66,1.28-5.65,4.02-4.15,8.56-8.73,11.4-11.15.06-.98.08-1.48.12-2.47-3.2,2.46-10.86,9.77-15.71,14.78-1.34,1.39-6.19,2.07-7.67,1.72-1.02-.24-4.24-3.19-5.79-5.59-2.63-4.06-4.73-8.2-8.12-12.16-.89-1.04-2.18-4.08-.6-7.27,1.13-2.3,3.4-4.47,4.55-6.22,1.6-2.43,4.26-5.09,6.46-5.79,3.05-.97,7.95,1.1,10.73,2.3,3.98,1.72,12.33,5.98,16.21,8.53-.02-.74-.03-1.11-.06-1.85-3.63-2.62-11.25-6.87-15.5-8.68-2.28-.97-5.68-1.99-8.64-2.8-2.36-.65-5.29-2.92-5.96-8.51-.8-6.65-2.83-15.6-1.81-17.01,1.05-1.46,6.32-8.66,6.84-9.51,1.37-2.26,3.07-2.17,4.55-1.62,3.52,1.32,12.35,7.23,14.54,8.97.04-.07.06-.1.09-.16-.19-.78-.29-1.17-.5-1.94-2.53-1.73-7.3-4.5-11.38-6.77-2.44-1.36-7.01-6-8.51-7.55,0,0-5.92-6.19-7.64-7.9-.99-.98-2.07-4.18-.09-5.5,1.2-.8,8.26-1.85,10.94-2.97,2.68-1.12,4.56-1.3,5.38-1.57-.75-1.67-1.13-2.5-1.92-4.14-.97,2.68-13.48,4.84-14.3,5.35-1.22.76-6.13.38-7.9-3.8-3.09-7.32-7.47-17.09-10.23-22.82-.87-1.81-.98-4.05.78-3.99,3.71.13,5.8-1.03,8.97-.19.85.23,3.79,1.3,4.7,1.91,2.3,1.54,8.32,7.61,11.82,11.72-.65-1.15-.99-1.72-1.65-2.85-.82-.77-1.76-1.67-2.77-2.64-1.78-1.69-3.73-3.57-5.56-5.27-2.18-2.03-5.29-4.45-8.14-8.68,0,0-8.01-11.97-11.3-17.61-.51-.45-.77-.67-1.29-1.1,3.36,5.98,11.71,18.67,11.71,18.67,2.59,3.56,2.91,3.9,1.61,4.13-1.3.23-5.76-.07-9.2-.11-1.41-.02-5.97-2.99-7.56-4.13-6.54-4.66-8.1-8.11-9.53-10.36-2.01-3.13-3.91-6.9-1.85-7.07,1.36-.11,2.64-.44,3.48-.83.07-.03,5.87-2.34,6.43-4.21-.67-.5-1.01-.74-1.68-1.22-.87,1.09-3.92,2.59-5.98,3.57-.81.39-3.83.87-5.17,1.11-1.26.23-4.33-2.69-5.39-3.69-1.6-1.5-3.5-3.28-5.42-4.85-1.04-.85-2.99-4.67-3.09-5.96-.05-.63-.08-1.26-.11-1.87-.56-.13-.84-.19-1.41-.3.02.59.05,1.2.08,1.8.11,1.81-1.46,4.57-2.36,5.23-2.76,2-9.7,7.05-11.38,6.76-1.6-.27-5.68-1.36-6.45-1.81-.89-.52-2.88-6.09-4.04-11.08-.92.25-1.37.39-2.29.68,1.43,1.78,1.59,3.92,2.58,7.64.3,1.12.62,5.54-1.4,9.06-3.29,5.73-8.64,11.43-11.21,13.64-1.43,1.23-3.02,1.05-5.16.41-3.06-.91-6.56-1.56-7.5-3.27,0,0-4.67-6.42-.4-14.96.06-.13.1-.23.16-.34-.54.41-.82.61-1.36,1.03-.06.15-.12.29-.18.44-.67,1.66-1.28,3.31-1.78,4.78-.52,1.56-2.18,5.23-6.6,8.74-4.42,3.5-13.97,11.09-18.27,15.06-.92,1.34-1.38,2.02-2.28,3.4,4.55-4.77,14.22-12.74,19.35-16.63,3.02-2.29,6.39-5.14,6.96-3.78.71,1.69,1.24,4.44-1.43,9.94-1.94,3.98-5.71,12.9-8.99,21.05-2.35,5.85-3.46,8.51-4.12,9.62-2.1,3.53-5.65,5.5-7.13,6.11-2.39,1-4.21,1.94-5.56-.11-1.17-.88-3.56-17.16-2.64-20.5-1.63,2.73-2.43,4.13-3.96,6.99,1.11,1.28,3,8.53,4.42,13.38.49,1.69,1.07,4.38-.63,6.97-1.69,2.58-3.44,5.08-4.44,6.55-2.46,3.6-6.91,7.43-15.04,12.38-.24.85-.35,1.28-.58,2.14,2.44-1.37,6.66-3.97,9.96-6.78,2.64-2.25,4.4-1.68,4.68-.64.88,3.24,2.38,8.17,3.58,11.7.6,1.75-.08,7.23-.33,8.23-.85,3.3-2.87,11.42-4.61,14.81-1.45,2.82-2.63,3.44-4.88,3.39-4.36-.09-11.42-.03-14.1.76-.06.59-.09.89-.14,1.49.09.21.13.32.22.53,1.38-.7,9.91-.86,14.62-.73.97.03,1.97,1.59,1.88,2.12-.32,1.92-.97,3.84-1.91,4.73-2.12,2-5.16,4.72-7.56,6.83-4.1,3.6-6.68,6.9-7.78,8.37.11,2.32.19,3.47.39,5.75.04.18.05.27.09.45-.28-3.95,9.83-13.08,13.65-16.49,5.55-4.97,8.33-4.71,11.25-3.68,3.67,1.29,8.55,4.32,10.04,6.7,1.49,2.38-1.14,12.96-1.55,14.99-.41,1.14-7.48,13.71-9.74,17.96-.55,1.04-3.63,1.16-5.21.18-6.01-3.72-14.61-10.91-18.06-15.52.23,1.89.36,2.83.65,4.69,1.68,1.67,3.75,3.46,5.97,5.2-.6,1.35-2.31,5.41-3.12,8.49.46,1.75.7,2.62,1.22,4.34.08.04.12.06.19.1-.07-1.98.67-6.07,2.14-8.81.71-1.33,2.56-2.28,4.28-.63,5.23,5.01,13.38,11.02,18.79,17.79,1.77,2.22.34,3.56-.24,4.11-4.37,4.1-7.62,7.08-10.86,7.81-1.29.29-5.26-1.09-9.1-6.08,1.65,3.81,2.54,5.66,4.45,9.25.35-.48,1.4-1.68,2.85-1.34,2.72.64,5.53,3.54,7.7,5.53.66.61,1.42,1.29,2.22,2.06,6.72,6.41,13.84,12.8,21.43,18.04,1.82,1.26,3.67,3.96,3.97,5.08.29,1.06-.44,5.01-1.17,6.63-.79,1.74-2.81,2.82-3.74,2.12-3-2.27-7.37-6.04-10.24-9.06-4.04-4.25-13.59-15.09-17.91-20.32,1.02,1.58,1.55,2.36,2.62,3.89,4.65,5.31,11.42,12.82,15.12,16.73,1.66,1.76,4.09,4.14,6.44,6.33,3.06,2.44,4.64,3.58,7.87,5.68.28-.94.87-2.42,1.49-3.77.75-1.64,1.44-2.96,1.74-3.62,3.17,3.2,11.38,11.57,13.13,13.3,2.04,2.02,7.16,3.95,8.89,4.48.05.38.11.78.19,1.17.64.18.97.26,1.61.43-.06-.34-.11-.68-.15-1.01,2.39.91,7.53,2.51,8.77,2.71,4.72.77,17.97-6.04,19.23-6.62,1.22-.57,4.08-.47,4.53-.19,2.5.74,3.82,3.4,4.62,5.47.07.17.1.26.17.43.41-.09.62-.13,1.03-.22.27-.2.41-.29.69-.49-.12-.33-.18-.49-.31-.82-.73-1.93-1.52-3.85-2.27-5.28-.32-.6.04-3.12.5-4.08,1.21-2.5,4.61-8.34,6.07-10.06,2.5-2.95,3.56-2.82,4.45-2.42,4.14,1.85,9.75,3.39,9.99,4.67.26,1.4-1.7,8.5-3.62,13.46,2.96-1.27,4.42-1.98,7.29-3.52-1.68-.67-3.05-3.78-1.87-7.9.49-1.7,2.27-5.7,3.59-7.47,2.75-3.69,6.76-9.18,8.05-11.29,1.65-2.69,5.21-5.85,7.91-5.48,1.41.2,1.86,2.17,2.42,3.24,1.76,3.39,2.36,6.31,2.1,7.44-.27,1.19-.78,2.88-1.34,3.68-.73,1.05-6.44,6.61-8.71,9.1-1.64,1.79-4.77,4.11-6.34,5.29,2.29-1.44,3.41-2.2,5.62-3.8.28-.29.58-.59.89-.92,1.8-1.84,3.47-3.56,4.91-5.06.61-.63,4.36-3.72,5.18-4.24.88-.55,1.5-.93,1.6-.89.12.04.18.09.21.12.89-.89,1.32-1.34,2.19-2.26.98-1.04,1.46-1.58,2.42-2.66-.31.32-.87.89-1.76,1.74-1.01.96-2.78,2.33-3.9,2.72-.53.19.32-2.45.76-4.23.11-.43,1.3-2.15,3.94-4.47,1.1-.96,4.38-3.7,5.2-4.4,2.12-1.8,4.2-4.51,6.38-7.4.99-1.32,2.54-3.09,3.83-4.51.78-1.41,1.17-2.13,1.91-3.58-.37-1.31-1.36-4.65-.85-6.07.3-.82,2.27-4.05,3.91-5.02.89-.54,1.5-.25,1.92.11,1.1-2.78,1.61-4.2,2.56-7.09-.5-.4-.93-1.13-1.76-2.47ZM274.23,242.1c3.89-.43,9.76,1.8,10.36,2.36,1.63,1.53,4.03,12.13,3.45,15.34-.17.93-.95,4.09-1.27,4.81-1.61,3.66-5.59,7.3-6,7.48-1.06.06-3.52.75-6.12,1.2-1.43.25-4.74-2.09-6.66-5.6-1.93-3.52-5.03-8.86-4.58-10.98.41-1.92,9.16-14.43,10.83-14.61ZM270.3,236.92c.85,2.24.34,4.34-.5,5.6-2.7,4.04-6.82,12.39-8.27,13.68-1.04.93-4.64,3.67-7.7,4.89-2.42.97-4.11,1.18-5.51.66-4.7-1.72-8.13-4.12-11.84-7.34-1.31-1.14-3.2-4.19-3.24-5.68-.08-2.91-.29-4.56-.35-8.08-.05-3.29.98-5.89,1.72-6.71,3.26-3.61,7.81-10.29,10.59-14.72,1.15-1.84,2.98-3.3,5.84-2.56,1.15.3,4.16.73,6.85,3.35,4.12,4.01,10.55,12,12.4,16.89ZM168.1,289.02c2.99-.31,9.53-.23,12.51-.27,1.89-.03,7.13.33,7.89.51.62.79,2.59,4.06,3.76,6.03.73,1.22,1.22,2.03,1.56,2.59.44.72.2,2.12-.31,2.48-.94.66-2,1.39-3.1,2.13-1.89,1.28-3.8,2.54-5.06,3.46-1.61,1.18-4.13,1.58-4.85.65-.26-.34-.52-.67-.77-1-.27-.35-.4-.53-.67-.88-2.33-3.1-7.12-9.43-11.65-13.6,0,0-1.14-1.61.67-2.1ZM162.71,287.43c-1.04.08-2.87-.93-3.6-1.86-1.83-2.33-4.27-4.95-5.65-7.61-.28-.53-.57-1.85-.39-2.16.95-1.59,1.75-3.47,6.22-5.14.63-.23,2.14.35,2.71,1.06,3.91,4.83,6.98,8.44,9.23,12.85.4.78.05,1.87-1.61,2.17-2.25.4-4.7.52-6.9.68ZM188.06,287.06c-2.33.5-10.74.68-12.46-.5-1.72-1.17-9.27-12.13-11.78-15.42-1.94-2.55-.24-4.33.13-5.25,1.6-3.99,4.62-10.35,7.42-13.2,1.45-1.48,3.42-1.83,4.37-1.55,11.04,3.32,13.41,3.9,16.09,5.43,2.68,1.53,3.02,2.61,3.73,5.45.79,3.14,1.99,8.78,2.71,11.96.32,1.41-.18,3.88-1.63,5.45-2.43,2.64-5.49,5.48-8.58,7.63ZM176.19,173.32c.75-2.29,3.28-5.08,3.94-5.49,2.11-1.31,7.01-3.51,9.77-3.41,2.71.09,4.62,2.28,6,5.75,2.66,6.66,6.61,16.49,8.69,22.96.62,1.93,2.18,5.62,1.47,7.86-.71,2.24-1.91,5.44-3.1,8.46-1.38,3.49-2.9,7.1-8.28,6.98-6.62-.15-21.46-1.41-22.76-3.85-1.21-2.27-4.99-10.27-4.05-13.15,1.04-3.17,3.56-10.37,5.17-15.82,1.04-3.53,2.17-7.3,3.14-10.29ZM174.87,164.59c-2.21-.44-9.51-2.54-14.83-3.76-1.86-.42-4.76-3.93-5.03-5.8-.24-1.64-.39-3.39-.02-5.1.23-1.05.6-2.35,2.83-3.86,3.3-2.24,8.22-4.78,8.82-5.09,2.64-1.37,8.93-6.09,11.75-8.55,3.35-2.92,6.93-4.82,7.37-2.82,2.02,9.05,2.1,19.14,2.38,28.67.11,3.82-6,7.77-13.27,6.31ZM204.09,221.36c-1.5-2.13-1.22-5.29-.43-7.27,1.93-4.82,4.41-11.21,5.22-13.33.9-2.35,5.11-5.78,10.8-7.04,2.44-.54,8.08-1.76,8.52-1.89,1.66-.52,5.86-1.04,7.1.97,2.33,3.76,5,8.52,7.57,14.66,1.69,4.05,1.46,8.86.37,10.6-3.79,6.07-10.4,15.31-12.2,16.1-2.48,1.08-14.32-.34-16.28-1.24-.92-.42-9.91-10.46-10.68-11.54ZM210.55,237.31c-3.33,4.85-8.75,10.59-12.37,14.36-1.6,1.67-5.26,2.17-7.23,1.78-4.9-.98-9.6-2.21-13.71-4.16-1.46-.7-3.28-1.62-3.72-5.74-.41-3.9.06-16.94.33-21.41.11-1.74,3-4.67,6.54-4.4,16.94,1.29,18.58,2.06,19.25,2.55.8.58,5.65,6.76,7.99,9.42,3.35,3.81,3.76,6.36,2.91,7.6ZM206.39,190.39c-4.68-8.08-7.2-18.17-8.87-22.76-.99-2.72-.15-4.59.7-4.94,2.42-1.01,4.15-1.73,6.54-2.05.96-.13,2.85.66,3.4,1.58,3.98,6.57,9.02,15.28,14.3,23.82.94,1.53,2.3,2.95-1.72,4.75-1.77.8-5.7,1.8-9.21,2.3-1.59.23-3.87-.49-5.14-2.69ZM231.05,187.67c-2.09.56-5.38-1.27-6.58-2.78-5.01-6.25-11.34-16.53-13.99-22.84-1.26-3.02-.21-4.96.62-5.95,3.78-4.53,9.25-11.43,10.96-18.42.28-1.13,1.81-3.9,4.2-2.95,2.64,1.05,5.08,2.47,5.94,3.55,5.14,6.46,9.8,18.17,11.52,26.92.61,3.1,1.4,6.55-.79,11.34-.05.11-2.15,2.36-5.89,6.51-1.46,1.62-3.03,3.82-5.99,4.62ZM219.52,137.09c-2.37,8.47-10.38,18.48-12.43,19.78-2.59,1.65-12.13,5.26-15.03,3.28-2.23-1.52-2.53-19.45-2.5-27.18,0-2.85.76-4.77,2.31-6.76.94-1.21,4.26-5.72,10.52-7.97.91-.33,3.6-.2,4.29.36,2.74,2.25,10.74,8.73,12.13,11.53.79,1.58,1.11,5.52.71,6.95ZM168.05,209.57c2.05,3.89,3.69,9.56,3.57,10.96-.36,4.53-.43,11.36-.42,17.41,0,4.68.3,8.14-.68,9.59-1.87,2.77-5,5.27-6.37,5.2-2.36-.12-5.27-2.11-6.66-3.49-1.12-1.1-16.6-17.18-17.95-20.25-1.35-3.07-.78-7.19,2.51-10.83,5.95-6.59,18.88-15.15,23.66-12.48.77.43,1.24,1.79,2.35,3.89ZM197.49,260.87c-.33-2.74.22-5.43,1.12-6.32,3.94-3.86,10.58-11.53,14.23-16.33.82-1.07,3.45-2.06,4.46-2.16,3.96-.42,7.36-.28,10.92.91,1.36.46,1.88,2.13,1.93,3.03.3,5.37,1.04,14.27.8,16.1-.34,2.48-2.4,10.49-6.93,14.88-2.6,2.52-13.7,4.5-19.88,5.02-1.32.11-3.1-.56-3.79-2.95-1.05-3.65-2.4-8.41-2.86-12.18ZM227.36,270.31c3-3.96,4.72-9.04,5.46-12.2.18-.79,1.59-2.18,2.29-1.69,3.84,2.71,9.9,6.31,13.1,7.98.82.43,1.31,2.47.84,3.33-1.41,2.58-4.03,6.74-4.03,6.74-.56,1-5.37,5.64-8.66,6.94-1.98.78-3.54.93-4.31.43,0,0,0,0-.01.02-1.03-2.52-3.28-5.85-4.9-8.02-.55-.74-.26-2.89.22-3.54ZM268.12,196.01c0,.13.01.19.02.32.18,2.38-.75,7.61-2.95,10.96-2.06,3.14-6.59,7.83-8.99,8.09-2.67-.23-6.84-.94-8.31-3.16-1.42-2.14-7.79-14.64-10.7-20.69-.69-1.44-.73-4.59.02-5.49,2.93-3.51,9.16-8.96,11.13-10.55.49-.4,2.71-1.02,4.04-.72,3.33.75,6.12,1.65,8.78,1.9,1.33.13,3.55.65,4.74,4.08.92,2.66,1.72,8.43,2.22,15.26ZM271.72,155.62c1.6,2.33,2.15,4.35,1.89,5.73-.55,2.87-4.24,7.99-7.18,10.57-1.51,1.33-3.44,3.03-8.4,2-3.65-.76-8.16-3.06-8.88-4.58-4.38-9.27-8.62-18.85-13.07-28.09-.51-1.07,1.01-2.27,2.86-1.86,3.04.68,6.89,1.63,10.1,2.48,5.37,1.42,9.94,2.79,11.04,3.04,1.9.44,10.05,8.37,11.65,10.71ZM236.51,101.02c1.98.63,6.69,4.89,7.73,6.71,5.24,9.28,9.38,20.25,13.53,30.55.79,1.96.5,3.86-2.04,3.41-1.9-.34-16.56-4.29-19.12-4.89-7.01-1.66-5.86-6.42-6.05-9.43-.08-1.25,1.14-6.38,2.1-11.07,1.38-6.72,1.92-10.8,2.06-13.55.06-1.2,1.01-1.98,1.81-1.73ZM200.13,80.78c3.05-1.7,6.52-4.29,8.73-5.87.86-.61,3.54-.57,4.26-.04,2.28,1.7,8.68,7.47,9.27,8.09,4.92,5.16,6.64,8.74,8.61,12.92,1.21,2.57,2.04,5.65,1.7,8.43-.41,3.38-3.85,18.72-4.63,20.47-1.14,2.54-5.04,6.66-9.28,2.92-5.04-4.45-11.76-10.69-12.84-13.38-3.52-8.76-5.36-19.43-7.32-29.26-.31-1.53.74-3.86,1.5-4.29ZM174.7,99.82c2.07-3.06,9.22-12.19,13.02-17.08.83-1.06,2.98-2.24,5.94-1.43.99.27,3.13,2.8,3.48,4.62,1.23,6.46,4.12,19.56,6.02,26.07.35,1.19-1.11,3.82-2.06,4.51-5.23,3.77-15.03,8.35-16,8.7-3.3,1.19-5.32-.76-6.04-2.81-1.13-3.23-2.71-6.59-4.75-12.68-.09-.28-.14-.41-.23-.69-1.01-3.04-1.6-5.93.62-9.21ZM148.66,121.39c3.05-7.71,5.13-12.03,7-15.97.94-1.99,3.57-5.23,4.59-5.63,2.17-.85,6.19.85,8.29,1.51,2.49.78,3.13,6.95,3.79,8.97.09.27.14.41.23.69,2.03,6.14,3.69,10.75,4.8,13.93.76,2.18,1.31,4.37-1.58,7.34-2.55,2.62-6.86,6.1-9.21,7.33-5.29,2.77-11.91,5.91-13.61,6.06,0,0-.9-.14-1.37-.28-4.59-1.34-9.15-7-8.74-8.56.66-2.48,2.98-8.25,5.81-15.39ZM126.17,168.73c-1.22-3.94-2.63-8.67-3.36-11.34-.24-.89.53-3.57,1.35-4.81.51-.77,3.38-4.95,5.21-7.67.72-1.06,2.03-2.47,4.19-3.1.94-.28,4.46-1.78,5.02-1.97,1.77-.63,2.63-.09,2.85.34,1.55,3.04,6.05,6.42,9.08,7.32,2.53.75,3.41,5.1,3.12,8.82-.25,3.18-1.4,4.79-2.33,5.3-1.93,1.07-14,7.1-20.06,10.25-1.71.89-3.73,1.2-5.08-3.15ZM125.28,205.62c-2.76-.95-4.52-2.17-4.72-3.42-.42-3.66,5.16-19.48,6.25-23.07.9-3.01,2.12-3.86,2.9-4.31,2.72-1.55,19.6-9.78,21.56-10.82,1.56-.84,3.96-1.61,6.1-1.19,3.95.78,10.84,2.35,15.5,3.94,1.3.44,2.13,2.1,1.27,4.97-.84,2.83-1.8,6.47-3.24,11.27-2.07,6.93-7.83,17.01-9.03,18.13-1.71,1.31-12.68,5.94-19.92,8.64-2.41.9-9.98-1.82-16.65-4.13ZM127.71,257.15c-1.93-2.8-2.01-5.09-1.38-6.27,3.38-6.43,5.97-12.62,7.53-15.48.83-1.52,3.29-1.95,4.28-1.01,7.28,6.91,14.68,14.11,22.32,20.38,2.44,2,2.5,4.7,2.16,6.35-.44,2.12-2.59,5.7-3.47,6.85-2.65,2.03-8.02,6.38-13.25,3.97-3.66-1.68-13.02-7.32-18.19-14.79ZM148.16,300.21c-5.64-3.51-14.71-11.43-19.3-15.84-.86-.83-1.66-1.54-2.36-2.17-2.45-2.2-3.05-2.75-2.96-3.99.13-1.72,5.63-6.14,10.23-8.36.82-.4,4.58.44,7.19,1.78,3.05,1.56,8.09,3.86,10.1,5.74,3.61,3.36,5.6,6.68,6.89,8.87.65,1.11.5,4.17-.14,5.41-1.89,3.64-4.03,8.24-4.46,9.5-.49,1.45-2.87.19-5.2-.94ZM178.32,326.66c-.28,1.09-.63,2.28-2.27,1.81-2.44-.7-5.37-2.2-6.41-3.23-1.83-1.8-10.05-10.7-12.56-13.22-1.79-1.62-2.78-7.25-2.55-8.24.32-1.33,2.94-8.01,6.09-12.52,1.1-1.57,3.08-.94,3.68-.49,4.62,3.48,10.87,11.68,13.31,14.92.27.36.41.54.68.9.26.34.53.68.8,1.03,1.68,2.16,1.68,5.9,1.36,7.37-.29,1.32-1.93,10.91-2.13,11.68ZM202.02,328.19c-6.33,3.61-11.61,4.57-13.63,4.46-2.36-.13-7.06-1.42-7.57-3.99-.88-4.45,2.01-12.17,2.5-13.5.63-1.72,2.19-6.57,4.31-8.14,1.23-.91,4.22-3.25,6.12-4.56,1.87-1.29,5.49.16,9.1,1.64.4.4.6.59.99.99.68,1.42.59,10.88.31,18.27-.06,1.44.2,3.5-2.13,4.83ZM221.46,310.56c-1.46,3.1-3.92,7.25-5.72,10.15-.9,1.44-2.2,2.98-4.23,3.98-.65.32-2.54.93-3.97,1.51-1.68.69-1.65-1.73-1.57-3.26.22-4.39.44-10.59.24-14.79-.05-1.03,1.95-3.91,5.41-3.29,1.96.35,5.72.91,8.27,1.52,1.75.42,1.84,3.58,1.57,4.17ZM220.22,304.17c-12.53-.72-22.12-4.33-24.11-6.48-.2-.26-1.19-1.92-2.08-3.41-.65-1.09-1.24-2.07-1.76-2.93-.86-1.41-.67-4.09.15-4.73,1.85-1.46,4.12-3.39,5.94-5.38.88-.95,3.57-2.85,4.47-2.91,4.94-.3,14.41-1.68,19.66-4.02.51-.23,2.18.18,2.72.9,2.17,2.89,5.45,8.03,5.3,9.5-.17,1.65-3.58,12.17-5.89,18.28-.5,1.32-2.38,1.3-4.41,1.18ZM248.9,297.44c-1.11,1.99-4.5,6.72-8.02,10.18-1.08,1.05-3.02,2.75-4.8,2.85-2.65.14-4.78-.72-7.96-2.08-3.06-1.3-2.01-4.29-1.33-6.06,1.72-4.49,3.86-10.7,5.01-14.61.46-1.55,3.96-3.98,4.84-4.33,1.01-.4,5.85-1.78,6.37-.81.63,1.17,1.55,2.71,2.79,4.68,1.38,2.2,2.88,4.47,3.98,6.04.43.62.15,2.33-.87,4.15ZM257.47,288.45c-3.93,3.51-6.27,3.64-6.87,2.76-2.47-3.61-5.67-7.27-4.74-12.15.74-3.89,5.13-11.5,6.18-13.47.48-.9,7.42-6.72,8.92-5.81s2.76,5.09,5.12,9.4c1.26,2.31,1.79,5.96.23,8.6-2.25,3.83-7.08,9.1-8.84,10.67ZM283.22,277.58c.43.61-.52,2.64-1.8,4.41-1.74,2.41-6.23,8.48-7.55,9.58-.89.74-1.96,1.67-3.1,2.66-1.79,1.55-4.4,3.45-5.86,3.3-.35-.15-1.17-1.43-2.37-3.75-.72-1.39-1.41-2.64-1.98-3.6-.4-.67.41-3.08,1.2-3.98,2.08-2.37,4.41-5.25,6.14-7.47.85-1.09,3.73-3.15,4.85-3.4,2.71-.62,5.99-1.26,7.03-1.07.9.17,2.51,1.98,3.45,3.31Z"/>
                <g>
                  <path class="cls-3" d="M135.05,142.41c-1.87.92-8.71,6.58-8.72,12.02,0,4,.25,13.38,4.05,14.15,2.96.6,9.52-4.52,15.17-7.57,6.84-3.69,6.19-10.53-.66-13.83-2.82-1.36-7.81-5.78-9.85-4.78Z"/>
                  <path class="cls-3" d="M189.45,168.46c-3.5-1.03-11.36,4.5-12.39,9.07-1.03,4.56-4.46,19.8-5.7,26.03-1.23,6.23,5.78,8.94,17.48,10.47,11.7,1.52,14.11-7.57,14.86-13.03,1.16-8.46-7.88-30.65-14.25-32.53Z"/>
                  <path class="cls-3" d="M256.75,146.67c-6.13-2.3-15.94-7.23-17.01-4.54-1.07,2.7,2.97,10.25,6.62,16.56,3.64,6.31,5.95,12.58,12.78,13.32,6.83.74,9.9-4.89,12.32-8.74s-1.3-11.58-14.7-16.61Z"/>
                  <path class="cls-3" d="M247.99,220.24c-2.23,1.6-8.04,9.97-11.94,16.4-2.14,3.53-.59,9.71-.55,10.62.12,2.58,7.1,8.15,12.5,10.72,5.04,2.41,11.25-4.94,15.57-9.8,4.32-4.86,7.02-10.87,2.63-15.7-4.4-4.84-12.96-16.03-18.21-12.25Z"/>
                  <path class="cls-3" d="M134.25,240.94c-2.56,3.92-4.79,14.13-1.18,17.85,5.04,5.2,7.46,6.85,11.43,9.83.8.6,2.63,1.3,4.27,1.3,2.93,0,6.81-3.13,8.48-4.99,1.08-1.21.21-8.37-3.07-10.96-3.28-2.58-8.08-6.91-11.42-10.6-3.34-3.69-6.76-5.11-8.5-2.44Z"/>
                  <path class="cls-3" d="M128.53,287.79c3.31,2.87,12.67,10.37,19.4,15.6,2.27,1.76,3.32,4.07,3.28,5.3-.13,4.6-1.25,6.71-2.57,7.02-.69.16-9.16-7.38-10.86-9.27-4.75-5.25-11.36-12.59-14.12-15.85-2.44-2.88-4.11-6.01-4.05-6.89.07-1.15.59-1.73,1.57-1.77,1.11-.04,5.75,4.46,7.35,5.85Z"/>
                  <path class="cls-3" d="M201.4,283.23c-3.47,2.56-7.67,8.64-4.83,11.18,5.58,4.98,14.94,8.55,21.47,9.85,3.9.78,6.31-4.11,7.44-9.16,1.12-5.05,3.73-17.12-2.55-17.04-6.28.08-17.31,2.05-21.53,5.17Z"/>
                </g>
                <g>
                  <path class="cls-9" d="M187.95,84.76c-5.81,9.07-12.97,15.65-11.45,21.53,1.5,5.82,3.77,14.79,8.78,14.58,3.67-.15,11.38-4.38,13.82-7.69,2.44-3.31-3.24-22.33-4.08-25.96-.79-3.41-4.72-6.13-7.07-2.46Z"/>
                  <path class="cls-9" d="M215.28,239.39c-6.05,8.48-12.24,13.08-14.1,16.19-1.86,3.11,1.75,16.46,4.67,17.77,3.17,1.42,17.47-5.03,20.22-10.7,1.73-3.57,2.61-18.84,2.08-23.64-.39-3.53-10.86-2.45-12.87.37Z"/>
                  <path class="cls-9" d="M161.74,292.83c-2.27,4.6-9.37,11.66-1.99,20.34,3.64,4.29,9,9.28,12,11.06,3.07,1.83,3.95,1.38,4.41-.09,2.17-6.89,3.82-12.77,1.2-16.17-7.62-9.88-14.31-17.81-15.63-15.14Z"/>
                  <path class="cls-9" d="M232.24,85.81c-4.18,1.73,2.47,8.66,8.79,14.9,4.14,4.09,6.69,1.57,11.13,1.9,4.12.3-5.38-11.31-8.38-15.77-2.99-4.46-9.16-2.01-11.55-1.03Z"/>
                </g>
                <g>
                  <path class="cls-8" d="M154.95,109.39c-3.7,7.72-12.91,26.08-9.06,30.54,5.09,5.9,29.2-4.32,28.84-15.52-.19-5.88-3.77-14.86-6.06-18.92-1.14-2.02-4.89-3.76-5.84-4.06-1.86-.58-5.36,2.7-7.88,7.96Z"/>
                  <path class="cls-8" d="M223.65,141.63c-2.62,4.94-8.08,15.33-8.86,18.45-.78,3.12,5.56,16.75,11.69,22.14,6.13,5.39,14.19-4.72,15.47-9.33,2.34-8.38-4.17-21.29-9.34-29.51-4.14-6.58-7.68-4.17-8.96-1.75Z"/>
                  <path class="cls-8" d="M121.41,210.14c4.94.5,10.73,4.32,10.76,7.97.07,9.54-4.91,18.47-7.88,23.59-1.99,3.43-6.18,3.97-9.6,1.09-9.75-8.19-12.51-14.57-9.03-18.53,3.49-3.96,13.12-14.38,15.75-14.12Z"/>
                  <path class="cls-8" d="M272.72,245.69c-1.79,2.64-4.98,6.01-6.09,9.43-2.78,8.56,6.22,13.8,10.45,15.76,4.23,1.96,6.66-4.24,8.53-9.67,1.87-5.43-.76-14.37-3.23-15.32-2.47-.95-7.08-4-9.65-.2Z"/>
                </g>
                <g>
                  <path class="cls-5" d="M249.93,178.58c-6.82,5.28-13.31,8.98-10.29,13.95,4.19,6.88,7.67,14.49,11.41,18.88,3.74,4.39,10.82-1.08,12.33-2.28,1.52-1.2,3.58-12.79,3.63-17.34.05-4.55-11.54-17.5-17.09-13.21Z"/>
                  <path class="cls-5" d="M159.34,273.21c-4.36,1.7-8.25.19-2.74,6.26,5.52,6.07,11.16,7.77,10.62,4.77-.53-3-3.85-12.6-7.89-11.03Z"/>
                  <path class="cls-5" d="M234.27,261.97c-2.27,4.74-5.36,11.32-4.07,13.82.87,1.68,2.72,3.18,4.39,3.01,1.75-.18,5.12-1.66,6.64-3.46,1.93-2.28,3.91-6.83,3.28-8.64-.96-2.72-8.96-7.4-10.24-4.73Z"/>
                  <path class="cls-5" d="M250.82,298.76c4.85-5.86,6.32-5.42,7.19-2.56.87,2.86,3.56,6.62,3.63,8.19.07,1.57-2.25,3.94-8.2,9.9-5.95,5.96-7.37,5.78-10.02,5.17-2.64-.6-5.05-.69-1.36-6.52,2.43-3.84,5.56-10.32,8.75-14.18Z"/>
                  <path class="cls-5" d="M199.99,167.92c1.75,6.48,5.92,20.21,9.64,20.75,3.72.54,8.39.71,10.01-.46,1.37-.99-7.68-18.5-10.91-23.23-3.22-4.73-9.88-1.26-8.74,2.94Z"/>
                  <path class="cls-5" d="M250.54,112.18c.78,5.16,8.14,17.99,10.1,21.94,1.96,3.95,3.65,4.16,6.79,3.01,3.14-1.15,7.1-4.19,8.52-5.21,1.41-1.02.16-7.31-6.45-14.15-5.18-5.36-6.39-6.57-9.32-7.49-2.93-.91-10.09-1.08-9.64,1.9Z"/>
                </g>
                <g>
                  <path class="cls-6" d="M213.78,78.77c-2.79-.68-12.46,5.3-11.32,11.17,1.79,9.22,3.59,19.34,5.52,22.41,2.52,4.02,7.78,8.52,10.53,11.85,2.13,2.57,9.42-3.77,9.63-6.57.75-10.29,2.9-17.01,1.14-21.1-3.57-8.3-10.95-16.67-15.5-17.77Z"/>
                  <path class="cls-6" d="M130.43,178.13c-3.24,4.26-6.01,11.71-6.63,20.72-.27,3.87,14.11,8.73,17.48,8.15,7-1.21,13.88-5.3,16.11-6.95,6.76-4.98,11.71-18.7,13.47-27.9.85-4.42-14.76-7.15-18.36-5.17-12.02,6.64-18.77,6.79-22.07,11.14Z"/>
                  <path class="cls-6" d="M176.4,222.22c-2.35,6.93-1.1,24.15,3.54,25.6,4.54,1.41,12.45,2.34,15.54,1.19,2.26-.84,6.6-5.8,9.22-9.99,1.97-3.14-3.84-13.65-6.32-15-7.3-3.96-20.36-6.57-21.97-1.81Z"/>
                  <path class="cls-6" d="M135.73,271.76c-4,2.05-13.01,3.89-6.96,10.36,6.04,6.47,14.06,12.85,18.91,15.75,2.88,1.72,5.9-5.08,7.13-7.69.83-1.77-1.94-8.34-4.52-11-3.31-3.42-12.32-8.57-14.56-7.42Z"/>
                  <path class="cls-6" d="M256.17,264.56c-8.77,9.01-8.14,18.09-6.12,21.06,3.5,5.15,5.13,3.43,9.08-.21s7.01-8.89,5.92-12.57c-1.47-4.96-5.27-12-8.89-8.28Z"/>
                  <path class="cls-6" d="M196.37,304.41c4.94,1.98,7.62,1.88,6.95,6.68-.67,4.8,1.61,15.05-3.52,16.87-5.13,1.82-14.98,4.18-16.43.61-1.45-3.56,1.92-14.49,2.9-16.73.98-2.25,6.85-8.73,10.1-7.43Z"/>
                  <path class="cls-2" d="M289.41,242.81c-1.36-3.33-.55-5.67,5.7-11.25,1.28-1.14,2.75-1.3,4.21-.94,1.04-9.51.96-19.79-.15-29.29-.42.32-.89.57-1.4.73-4.69,1.44-14.18-3.35-23.1-7.37-1.43-.64-3.35-14.87-3.54-18.63-.14-2.84,3.02-7.47,6.82-10.68,2.11-1.78,11.73,6.42,17.28,11.53-1.77-7.94-2.84-11.84-5.29-19.38-.01.04-.03.07-.04.11-1.2,3.41-1.44,7.55-6.95,3.64-5.51-3.91-9.29-7.14-12.05-11.83-2.76-4.69,2.3-5.29,5.95-8.62,1.72-1.57,5.15.61,8.2,3.3-3.72-9.46-8.49-19.03-13.87-27.66-.79-.54-2.37-2-5.03-4.7-7.26-7.35-11.73-12.42-15.77-19.2-1.55-2.6-2.78-4.73-3.68-6.4-4.99-4.57-7.57-6.59-12.84-10.01.68,1.19.51,1.85-.82,2.66-2.51,1.52-8.02-.33-10.52-1.89-2.2-1.37-8.03-6.32-9.66-10.17-13.55-1.85-20.29-1.26-33.44,2.55,3.31.98,5.95,4.35,4.26,9.68-.61,1.92-2.96,6.09-5.59,10.15-2.48,3.84-4.93,5.69-8.07,5.71-3.48.03-11.06-6.36-10.3-9.64.67-2.88,1.35-4.64,2.17-6.05-1.35.98-2.02,1.49-3.35,2.55-.1.24-.21.5-.35.81-2.58,5.91-4.79,9.01-7.35,11.48-3.63,3.51-11.52,9.45-12.29,9.53-.77.08,2.45-4.21,4.67-7.11-.96,1.1-1.44,1.65-2.38,2.79-7.98,9.62-14.74,20.22-20.32,31.38,1.71,4.26,5.94,9.28,4.9,14.93-.62,3.35-9.43,12.44-17.88,18.56-.82,2.87-1.2,4.32-1.92,7.25,2.77-2.17,6.2-5.07,11.25-8.02,1.78-1.04,6.52,8.83,6.11,11.49-.79,5.09-5.85,20.81-8.93,20.86-2.75.04-7.94-.3-12.84.3-.35,3.01-.49,4.52-.72,7.57.29-.16.59-.31.9-.42,1.33-.49,7.58-.94,10.81-1.21,3.23-.27,3.33,4,1.44,5.68-1.89,1.68-6.93,6.09-9.88,8.12-1.67,1.15-2.76,1.04-3.72-.04,1.61,32.86,10.54,63.41,33.14,88.2,6.16,6.81,14.09,13.35,22,18.01-.48-.73-.75-1.38-.45-1.9,2.19-3.84,3.37-4.78,8.69,1.51,2.65,3.13,5.43,5.88,6.79,7.77,11.51,3.54,20.11,5.04,32.14,5.54-3.38-4.73,9.7-8.79,11.49-4.92.6,1.29,1,2.49,1.14,3.55,3.31-.62,4.95-1.01,8.19-1.96-2.57-1.51-5.74-5.15-3.04-10.09,1.77-3.23,3.8-8.42,6.19-8.09,6.07.83,9.47,2.73,8.34,5.96-1.13,3.23-2.57,6.58-4,9.38-.07.13-.14.25-.21.37,14.34-6.66,25.17-14.25,36.63-25.15,1.93-2.06,2.87-3.12,4.69-5.33-3.05,3.24-5.55,5.52-5.94,3.5-.42-2.19,1.55-2.64,9.76-10.13,1.27-1.16,1.55-.78,1.1.24,8.57-13.36,14.35-26.06,19.07-41.21-2.74,1.52-4.08-2.63-6.32-8.11Z"/>
                  <path class="cls-4" d="M125.39,145.55c1.04-5.65-3.19-10.66-4.9-14.93-5.37,10.72-9.7,21.95-12.99,33.48,8.45-6.12,17.27-15.21,17.88-18.56Z"/>
                  <path class="cls-4" d="M163.38,321.49c-5.32-6.29-6.5-5.35-8.69-1.51-.3.52-.03,1.17.45,1.9,5.79,3.52,8.82,5.01,15.02,7.37-1.36-1.89-4.14-4.63-6.79-7.77Z"/>
                  <path class="cls-12" d="M277.94,165.39c-3.8,3.21-6.97,7.84-6.82,10.68.19,3.76,2.11,17.98,3.54,18.63,8.92,4.01,18.41,8.81,23.1,7.37.52-.16.98-.41,1.4-.73-1.01-9.96-1.82-14.87-3.94-24.41-5.55-5.11-15.17-13.31-17.28-11.53Z"/>
                  <path class="cls-3" d="M222.51,76.96c2.5,1.56,8.02,3.41,10.52,1.89,1.33-.81,1.5-1.47.82-2.66-8.18-5.3-12.44-7.26-21.01-9.4,1.63,3.85,7.46,8.8,9.66,10.17Z"/>
                  <path class="cls-3" d="M295.1,231.56c-6.24,5.58-7.06,7.92-5.7,11.25,2.24,5.48,3.58,9.63,6.32,8.11,2.01-7.81,2.75-11.88,3.58-20.29-1.45-.37-2.93-.21-4.21.94Z"/>
                  <path class="cls-3" d="M202.31,334.8c5.1-.15,7.63-.43,12.63-1.37-.13-1.06-.54-2.26-1.14-3.55-1.79-3.88-14.87.19-11.49,4.92Z"/>
                  <path class="cls-3" d="M275.56,291.89c-8.21,7.49-10.17,7.95-9.76,10.13.38,2.02,2.89-.25,5.94-3.5,2.04-2.47,3.03-3.75,4.92-6.4.45-1.02.17-1.4-1.1-.24Z"/>
                  <path class="cls-9" d="M114.01,195.68c3.08-.05,8.14-15.77,8.93-20.86.41-2.66-4.32-12.53-6.11-11.49-5.05,2.95-8.49,5.84-11.25,8.02-2.34,9.56-3.25,14.51-4.41,24.63,4.89-.6,10.09-.25,12.84-.3Z"/>
                  <path class="cls-9" d="M276.85,140.85c-3.65,3.33-8.71,3.94-5.95,8.62,2.76,4.69,6.54,7.92,12.05,11.83,5.51,3.91,5.75-.23,6.95-3.64.01-.04.03-.07.04-.11-1.78-5.49-2.77-8.17-4.88-13.4-3.05-2.69-6.49-4.87-8.2-3.3Z"/>
                  <path class="cls-8" d="M234.63,319.25c1.13-3.23-2.27-5.13-8.34-5.96-2.39-.33-4.42,4.86-6.19,8.09-2.7,4.95.47,8.58,3.04,10.09,2.95-.86,4.4-1.36,7.28-2.47.07-.12.14-.25.21-.37,1.43-2.79,2.87-6.14,4-9.38Z"/>
                  <path class="cls-8" d="M250.37,92.59c4.04,6.78,8.51,11.85,15.77,19.2,2.66,2.7,4.24,4.16,5.03,4.7-4.63-7.55-7.13-11.08-12.39-17.47-4.64-5.64-7.07-8.23-12.1-12.83.9,1.67,2.13,3.8,3.68,6.4Z"/>
                  <path class="cls-5" d="M159.71,85.23c-.76,3.28,6.82,9.67,10.3,9.64,3.13-.03,5.58-1.88,8.07-5.71,2.63-4.05,4.98-8.23,5.59-10.15,1.69-5.32-.95-8.69-4.26-9.68-7.11,2.83-10.66,4.85-17.53,9.85-.82,1.41-1.51,3.17-2.17,6.05Z"/>
                  <path class="cls-5" d="M103.72,215.71c2.95-2.04,7.99-6.44,9.88-8.12,1.89-1.68,1.79-5.95-1.44-5.68-3.23.27-9.48.72-10.81,1.21-.31.11-.61.26-.9.42-.37,4.82-.47,7.34-.45,12.12.96,1.08,2.05,1.2,3.72.04Z"/>
                  <path class="cls-6" d="M138.53,103.56c.78-.08,8.66-6.02,12.29-9.53,2.56-2.47,4.77-5.57,7.35-11.48.14-.31.25-.57.35-.81-6.36,5.05-9.46,8.03-15.33,14.72-2.21,2.89-5.44,7.19-4.67,7.11Z"/>
                </g>
                <g>
                  <path class="cls-14" d="M158.87,95.79c-.31,2.06-2.09,5.85-1.13,4.86.97-.99,1.63-1.71,2.6-2.1.97-.39.21-2.34-.27-2.98-.47-.64-1.09-.58-1.21.22Z"/>
                  <path class="cls-14" d="M187.81,78.21c.49,1.57-.57,3.16.39,2.56.97-.6,1.36-1.62,1.03-2.46-.33-.84-.55-1.36-1-2.21-.44-.85-.83.8-.42,2.11Z"/>
                  <path class="cls-14" d="M197.75,80.84c-.83-.02-2-.04-1.01,1.43,1,1.47,1.54.3,1.69-.46.15-.76.47-.95-.68-.97Z"/>
                  <path class="cls-14" d="M210.97,70.6c-.22,1.13-1.44,2.17-1.71,2.62-.27.45,1.26-.07,1.69-.1.43-.03,1.42.32,1.82.46.4.14-.01-1.66-.62-2.58-.61-.92-1.01-1.27-1.18-.4Z"/>
                  <path class="cls-14" d="M204.75,113.5c-.17,1.36-.48,1.75-1.5,2.64-1.02.9.23.13,1.62.5,1.39.37,1.73.13,1.06-1.21-.66-1.34-1.14-2.33-1.18-1.94Z"/>
                  <path class="cls-14" d="M179.05,125.26c.19,1.18.92,1.62.21,3.34-.72,1.73,0,1.53.88.85.88-.68,1.56-1.21,3.17-1.61,1.62-.4.79-1.33-.45-1.23-1.24.1-2.34-.85-2.8-1.59s-1.16-.73-1,.24Z"/>
                  <path class="cls-14" d="M227.65,127.81c-.8,1.29-2.98,3.15-4.65,3.04-1.67-.11-.39,1.82.57,1.92.96.1,2.49-.06,4.71,1.41,2.22,1.47,2.74,1.75,2.32.63-.65-1.73-1.03-4.78-1.29-6.12-.26-1.33-1.06-1.84-1.66-.88Z"/>
                  <path class="cls-14" d="M259.63,138.86c.18.79.54,2.44-.06,2.93-.6.49.57.9,2.25,1.84,1.67.94,1.75.55,1.72-.99-.04-1.54-.57-1.96-1.88-3.06-1.31-1.1-2.26-1.75-2.02-.72Z"/>
                  <path class="cls-14" d="M243.91,105.49c1.04,1.6,1.41,3.74,2.24,2.85s1.37-1.23,0-2.19c-1.36-.96-3.09-1.95-2.25-.66Z"/>
                  <path class="cls-14" d="M232.2,95.93c1.17,2,1.33,4.2,1.81,3.81.48-.39,2.45.66,1.17-1-1.28-1.66-2.71-3.47-3.48-4.36-.77-.9-.27.23.5,1.55Z"/>
                  <path class="cls-14" d="M273.47,156.4c.4.75,1.3,2.58,1.31,4.22,0,1.63.78,1.03,1.53.84.74-.19,1.4-.96.38-2.04-1.02-1.08-2.41-3.12-3.08-3.61-.66-.5-.8-.64-.14.6Z"/>
                  <path class="cls-14" d="M266.05,174.11c-1.32,1.54-2.6,1.02-1.6,2.04s1.75,1.62,2.23,2.98c.47,1.36,1.2-.41.87-2.07-.33-1.66-.58-4.02-1.49-2.95Z"/>
                  <path class="cls-14" d="M269.83,197.31c-.62,1.46-.95,3.97-.97,4.65-.02.68.44-.27,1.94-1.05,1.5-.78,3.69-.58,1.97-2.1-1.71-1.52-2.17-3.3-2.94-1.5Z"/>
                  <path class="cls-14" d="M245.57,167.08c.65,1.65-.08,6.96,1.43,6.6s4.76-.49,3.7-1.54c-1.06-1.05-3.86-6.23-4.2-6.54-.35-.31-1.27.63-.93,1.48Z"/>
                  <path class="cls-14" d="M225.51,187.63c-.45,1.06-1.76,2.48-.45,2.8,1.31.32,3.78-.88,5.07-.92,1.29-.04,1.75-.25,3.76.83,2.01,1.08,3.67-2.44,1.25-2.15-2.41.29-4.75,1.18-6.35.11s-2.72-1.99-3.28-.67Z"/>
                  <path class="cls-14" d="M189.5,159.98c-1.67,2.71-3.76,4.14-1.98,3.66,1.78-.48,5.52-1.13,6.56.17,1.04,1.3,2.09,2.82,2.29,1.58.2-1.24.74-2.62,1.26-3.21.53-.58-.06-.87-1.83-.42-1.77.45-4.52.34-4.93-2.24-.41-2.59-1.11-2.71-1.14-1.63-.02,1.08.03,1.65-.24,2.09Z"/>
                  <path class="cls-14" d="M175.48,165.46c.87.32,2.7,1.1,4.7.44,1.99-.65,2.74-1.33.77.4-1.97,1.73-3.56,3.46-4.27,4.87-.72,1.41-1.29.77-.97-.61.32-1.39-.41-4.02-.78-4.57-.37-.56-.48-.91.55-.53Z"/>
                  <path class="cls-14" d="M154.83,158.58c-1.61,2.51-2.75,2.86-.61,2.83s3.09-.8,2.51-1.82c-.59-1.03-1.15-2.17-1.89-1.01Z"/>
                  <path class="cls-14" d="M153.12,146.82c.22,1.08.31,2.54,1.36,1.41,1.05-1.13,2.26-2.61,1.16-2.45-1.1.17-2.67.35-2.52,1.04Z"/>
                  <path class="cls-14" d="M138.26,139.31c1.2-.32,2.93-.6,3.75-1.38.82-.79,1.37-3.74,1.38-4.25.01-.51-.41.4-1.27,1.37-.86.97-3.17,2.9-4,3.3-.84.4-1.4,1.39.14.97Z"/>
                  <path class="cls-14" d="M126.43,172.75c-.84,2.51.29,4.77.73,3.82s1.16-2.17,2.38-2.64c1.23-.47-.67-.5-1.33-1.36-.66-.86-1.45-.81-1.78.17Z"/>
                  <path class="cls-14" d="M118.28,199.05c1.27-.43,2.47-3.49,2.19-1.51-.28,1.98-.62,5.28.54,6.33,1.15,1.06,2.2,2.09,1.04,2.23-1.16.14-3.66,1.96-5.4,3-1.74,1.04-2.69.96-1.07-.27,1.62-1.24,2.68-2.31,2.99-4.46.31-2.15-.46-3.88-.8-4.39-.34-.51-.14-.71.51-.93Z"/>
                  <path class="cls-14" d="M136.87,211.09c.92.34,5.5.43,8.34-.78,2.84-1.21,3.49-.25.71,1.45-2.78,1.7-5.61,4.92-6.6,7.48-.99,2.56-1.32,1.56-1.46-.47-.14-2.03-1.29-5.99-1.94-6.77-.65-.78-.44-1.41.94-.9Z"/>
                  <path class="cls-14" d="M165.83,198.34c-.84,1.1-1.85,2.84-3.02,3.52-1.18.68-2.77,1.8-.58,1.56,2.19-.24,3.96-.1,4.71.35.74.45-.49-2.61-.46-3.8.03-1.19.28-2.82-.64-1.62Z"/>
                  <path class="cls-14" d="M172.11,215.12c.49,3.8.83,5.26,2.42,3.78,1.59-1.48,3.26-2.53,1.39-3.15-1.87-.62-3.94-1.69-3.81-.63Z"/>
                  <path class="cls-14" d="M136.73,228.71c-.86,1.69-2.38,2.81-1,2.91s2.31.5,4.03,2.05c1.72,1.55,2.22,1.11,1.3-.45-.93-1.56-2.44-3.02-2.71-5.57-.27-2.55-1.07-2.94-1.24-1.78-.17,1.16,0,2.12-.38,2.85Z"/>
                  <path class="cls-14" d="M162.39,253.58c1.82.39,3.48.34,4.7-.54,1.23-.88,3.09-2.93,4.41-3.91,1.32-.98,1.63.02.64.81-.99.79-3.89,4.04-5.45,6.99-1.56,2.95-2.36,5.34-3.08,6.27-.71.93-.4.9.22-1.51.61-2.41.55-4.6-.81-6.2-1.36-1.61-2.19-2.22-.64-1.89Z"/>
                  <path class="cls-14" d="M125.65,248.65c-1.55,1.12-2.62,1.93-4.61.98-1.99-.95-2.32-.09-.66,1.38,1.66,1.47,2.87,3.04,4.19,3.54,1.32.49.4-.73.55-2.06.15-1.33.8-1.87,1.23-2.71.43-.83.18-1.78-.7-1.14Z"/>
                  <path class="cls-14" d="M132.46,263.93c-.1,1.07,1.21,2.45.62,2.94-.59.49.65,1.57,1.26,1.14.6-.43.68-.64,2.37.01,1.69.66-.24-.98-1.25-2.06s-2.94-2.65-3-2.03Z"/>
                  <path class="cls-14" d="M152.01,273.42c-2.34-.14-4.17-.44-3.55.45.62.9,1.99,2.48,2.78,1.72.79-.76,2.43-2.07.77-2.17Z"/>
                  <path class="cls-14" d="M160.21,287.64c-1.08.95-.96,2.46.46,1.91s2.58-1.18,3.37-.15c.79,1.03,2.51-.72.87-.99-1.64-.27-3.93-1.45-4.71-.77Z"/>
                  <path class="cls-14" d="M150.08,301.71c1.38,1.01,2.68,1.19,3.17,1.01.49-.18.66.47.71,1.71.05,1.23.77,2.91.54,3.06-.23.15-.94-1.95-2.02-2.91s-1.54-1.41-2.64-2.24c-1.09-.83-.91-1.47.24-.62Z"/>
                  <path class="cls-14" d="M122.3,276.71c-1.28.29-1.65.61-2.99-.13-1.34-.75-.41.55.67,1.11,1.09.56,2,1.33,3.09,1.96,1.08.63-.76-1.72-.41-2.1.36-.38.06-.94-.36-.85Z"/>
                  <path class="cls-14" d="M180.61,307.42c.9,1.35,2.29.75,3.16.26.88-.49,2.37-.33.93,1.62-1.45,1.95-2.09,3.79-2.32,4.26-.23.48-.73-.09-.76-1.52-.03-1.43-.95-3.98-1.28-4.42-.33-.45-.2-.9.26-.2Z"/>
                  <path class="cls-14" d="M195.47,298.55c-.53,1.24.28,2.24,1.5,2.2,1.21-.04.11-1.17-.14-1.55-.25-.38-1.12-1.2-1.35-.65Z"/>
                  <path class="cls-14" d="M204.47,302.13c1.5.5,4.01.64,4.41,1.11s-.93.96-1.78,1.6c-.85.64-1.05,1.43-1.3,1.92-.25.49-.69-.64-.73-1.6-.04-.97-1.33-2.46-1.5-2.7-.18-.24-.11-.67.91-.33Z"/>
                  <path class="cls-14" d="M224.51,304.7c-.52.08-2.04.48-1.96,1.22s.03,2.7.19,3.58c.17.88,2.01-.23,2.4-1.03.38-.8-.22-1.72-.1-2.6.11-.88.78-1.39-.53-1.18Z"/>
                  <path class="cls-14" d="M199.6,275.13c-.13,1.09-.59,1.75-1.24,3.48-.65,1.73,1.37.34,2.23-.26.85-.6,1.97-.68,2.7-.82.72-.14-1.38-.72-2.03-1.59-.66-.87-1.52-1.88-1.65-.8Z"/>
                  <path class="cls-14" d="M196.6,253.64c-1.02.36-3.01.26-3.7.32-.68.06-1.74.28-.26.99,2.13,1.02,2.86,2.5,3.04,3.14.27.98,1.51,3.06,1.08-1.68-.09-1.03.88-1.76,1.56-2.69.68-.92-.14-.64-1.72-.08Z"/>
                  <path class="cls-14" d="M232.91,233.67c-.56.53-1.74,1.65-3.6,1.64-1.86,0-.42.38.47.92.88.55,1.22,1.25,1.32,2.83.1,1.57.8.82,1.24-.27s.62-3.61,1.47-4.73c.84-1.11.3-1.53-.89-.4Z"/>
                  <path class="cls-14" d="M248.78,262.36c1.18.33,3.87.29,5.16-.53,1.28-.82.86.62.37,1.07-.49.45-3.29,3.44-3.71,4.32-.42.88-.13.09-.14-1.35-.01-1.44-1.48-2.38-2.3-3.04s-.3-.73.62-.47Z"/>
                  <path class="cls-14" d="M245.03,276.51c-1.21,1.3-2.16,2.07-3.75,3.07-1.59.99-1.44,1.27-.51,1.12.93-.15,2.81.13,3.26.7.45.58,1,.06,1.09-1.34.09-1.4-.13-2.39.45-3.52s.34-.98-.54-.03Z"/>
                  <path class="cls-14" d="M211.62,232.71c.77.96.83,2.28.69,3.38-.14,1.1.91-.01,2.1-.62,1.19-.61.08-1.91-1.1-2.93-1.18-1.02-2.45-.78-1.68.17Z"/>
                  <path class="cls-14" d="M201.46,214.77c-.61,1.04-1.54,1.83-2.87,2.14-1.33.3-1.19.99.29,1.45,1.47.46,3.38,1.59,3.37.45,0-1.14.68-4.12.68-4.81,0-.69-.5-.92-1.47.77Z"/>
                  <path class="cls-14" d="M206.47,193.19c.56,2.33.83,5.75,1.66,5.45.83-.3,3.78-2.7,4.26-3.38.47-.67-.64-1.14-1.68-1.14-1.04,0-3.06-1.45-3.69-1.91-.63-.46-.76.07-.54.98Z"/>
                  <path class="cls-14" d="M245.65,212.58c-.12,2.31-.48,4.4.87,3.72,1.35-.68,2.78-.48,1.81-1.85-.97-1.37-2.63-2.83-2.68-1.87Z"/>
                  <path class="cls-14" d="M257.05,216.96c1.48,1.14,1.82,2.43,2.89,2.95,1.06.53.8-.37.72-1.77-.08-1.4.11-2.46.23-3.24.12-.78-.27-.49-1.66.03-1.39.52-1.93.32-2.39.83-.46.51-.86.38.22,1.2Z"/>
                  <path class="cls-14" d="M272.19,237.77c.35,1.23-.14,2.57-.5,3.81-.36,1.25.67.23,1.44-.62.77-.85.95-.16,2.85.09,1.9.25,6.03.61,7.19.96,1.16.35,1.64-2.75,1.12-3.58-.41-.66-1.73.21-3.55.8-3,.96-6.33,0-7.28-1.61-.95-1.62-2.43-3.69-2.56-2.57-.13,1.12.98,1.65,1.28,2.71Z"/>
                  <path class="cls-14" d="M289.1,262c-.88,2.09-2.43,4.66-1.11,3.6,1.32-1.07,1.84-1.42,1.98-2.7.15-1.28-.26-2.37-.87-.9Z"/>
                  <path class="cls-14" d="M268.66,270.71c-.56,1.28.25,3.45.26,4.64,0,1.19.94.79,2.26-.23,1.32-1.02.88-1.21-.06-2.28-.94-1.07-2.11-2.93-2.46-2.13Z"/>
                  <path class="cls-14" d="M284.91,268.7c-1.81,1.86-3.48,3.19-3.39,3.96.1.76.99,1.13,1.53.99.54-.14.87-1.07,1.05-2,.18-.93.42-1.6,1.07-2.38s1.37-2.25-.26-.57Z"/>
                  <path class="cls-14" d="M264.35,299.96c.73.11,1.17-.62,2.03-1.64.86-1.01.29-.75-.04-.76-.34,0-1.23.38-1.74.48-.52.1-.74,1.84-.24,1.91Z"/>
                  <path class="cls-14" d="M255.5,290.7c1.04-.85,4.88-4.03,6-5.3,1.12-1.27,2.02-1.56.62-.05-1.39,1.5-2.08,3.72-1.96,4.45.12.73-.21,1.19-1.3,1.23-1.09.04-4.16.94-5.09,1.95-.93,1-1.98,2.1-2.83,3.37-.85,1.28-.9.54-.59-.07.31-.61.87-2.57.67-3.24-.2-.67.04-.79,1.18-.97,1.14-.18,2.38-.62,3.3-1.37Z"/>
                  <path class="cls-14" d="M236.99,311.11c1.12-.34,2.5-1.22,3.71-2.35,1.21-1.13,2.12-1.82,1.01.01-1.11,1.83-1.5,2.93-2.11,4.14-.61,1.21-1.36,1.1-1.63.31-.27-.78-1.03-1.04-1.47-1.26-.44-.22-.3-.61.5-.85Z"/>
                  <path class="cls-14" d="M214.05,324.39c-1.22.23-2.61,1.04-1.7,1.28.91.24,1.43.56,1.96,1,.54.44.88.3.74-.29-.14-.59-.1-2.17-1.01-2Z"/>
                </g>
                <path class="cls-12" d="M188.25,66.54c.08.24.17.5.26.76,1.31,3.67,1.98,11.41,5.83,11.11,3.85-.31,12.79-5.13,15.06-11.12.16-.42.26-.81.33-1.19-8.67-1.65-12.94-1.54-21.47.44Z"/>
                <path class="cls-11" d="M268.64,302.12c-.31.32-1.3,1.34-2.18,2.19-1,.96-2.74,2.36-3.84,2.76-.52.19.35-2.41.8-4.18.11-.43,1.3-2.14,3.93-4.46,1.09-.97,4.35-3.72,5.17-4.41,2.11-1.81,4.2-4.51,6.37-7.39,1-1.32,2.99-3.29,4.29-4.71.8-1.4,1.19-2.11,1.94-3.54-.34-1.28-1.77-4.42-1.25-5.83.3-.82,2.29-4.04,3.92-5.03.89-.54,1.93-.2,2.34.14,1.13-2.76,1.66-4.17,2.65-7.03-.48-.39-1.39-1.21-2.2-2.54-1.25-2.04-4.29-11.61-4.39-14.7-.12-3.68.35-4.65,1.32-5.65,4.05-4.17,9.31-9.07,12.15-11.51.07-.98.09-1.47.14-2.46-3.22,2.48-11.61,10.13-16.49,15.15-1.35,1.4-6.19,2.1-7.67,1.76-1.02-.23-4.21-3.16-5.75-5.55-2.6-4.04-4.68-8.16-8.06-12.1-.88-1.03-2.16-4.06-.57-7.26,1.15-2.3,3.43-4.48,4.6-6.24,1.62-2.44,4.3-5.16,6.51-5.87,3.07-.99,7.97,1.1,10.75,2.28,3.97,1.69,12.98,6.23,16.84,8.72-.01-.74-.02-1.1-.04-1.84-3.6-2.57-11.87-7.15-16.13-8.94-2.28-.96-5.68-1.96-8.65-2.75-2.37-.63-5.3-2.9-5.94-8.51-.76-6.68-2.75-15.67-1.72-17.1,1.06-1.48,6.42-8.78,6.95-9.64,1.4-2.29,3.11-2.22,4.59-1.68,3.54,1.29,12.38,7.16,14.57,8.89.36.3.55.45.91.74-.19-.78-.28-1.18-.48-1.96-2.53-1.7-9.78-6.69-13.88-8.96-2.45-1.35-5.36-4.64-6.86-6.19,0,0-5.92-6.18-7.64-7.89-.99-.98-2.05-4.2-.05-5.56,1.22-.83,8.36-1.98,11.1-3.17,2.74-1.19,5.05-1.51,5.88-1.8-.74-1.68-1.12-2.51-1.9-4.16-1.01,2.72-14.12,5.24-14.94,5.76-1.24.79-6.2.46-7.95-3.74-3.06-7.36-7.4-17.18-10.14-22.94-.86-1.82-.95-4.08.83-4.06,3.77.06,5.91-1.16,9.13-.39.87.21,3.85,1.22,4.78,1.82,2.33,1.51,9.11,8.32,12.62,12.44-.64-1.16-.97-1.74-1.63-2.88-.83-.77-2.5-2.45-3.52-3.4-1.79-1.68-3.62-3.76-5.45-5.45-2.19-2.02-5.49-4.16-8.33-8.41,0,0-8.88-13.45-12.13-19.12-.51-.44-.77-.66-1.29-1.08,3.31,6.01,12.52,20.19,12.52,20.19,2.59,3.57,2.91,3.91,1.57,4.19-1.33.28-5.88.07-9.37.1-1.43,0-6.02-2.93-7.63-4.06-6.59-4.62-8.13-8.08-9.57-10.34-2.01-3.14-3.91-6.93-1.82-7.13,1.39-.13,2.69-.49,3.54-.91.07-.04,6.66-3.03,7.2-4.87-.67-.5-1-.75-1.67-1.23-.85,1.06-4.64,3.21-6.75,4.25-.83.41-3.9.95-5.27,1.22-1.28.25-4.37-2.66-5.44-3.65-1.61-1.49-3.53-3.26-5.46-4.82-1.05-.85-3.01-4.67-3.1-5.98-.04-.64-.11-2.57-.12-3.17-.56-.12-.84-.18-1.41-.29.01.6.05,2.51.09,3.11.1,1.83-1.5,4.63-2.43,5.31-2.81,2.04-9.83,7.18-11.53,6.9-1.61-.26-5.73-1.34-6.52-1.79-.89-.52-3.52-7.26-4.62-12.19-.92.27-1.37.42-2.29.73,1.4,1.73,2.14,4.97,3.13,8.7.3,1.12.61,5.58-1.44,9.11-3.34,5.77-8.74,11.5-11.33,13.72-1.44,1.23-3.05,1.06-5.21.41-3.09-.92-6.62-1.58-7.57-3.3,0,0-4.73-6.48-.44-15.06.06-.13.62-1.41.68-1.53-.54.41-.81.62-1.36,1.05-.06.14-.65,1.46-.72,1.62-.67,1.67-1.29,3.33-1.78,4.81-.52,1.57-2.19,5.26-6.65,8.75-4.3,3.37-13.44,10.47-17.95,14.54-.85,1.25-1.27,1.89-2.1,3.17,4.79-4.83,13.9-12.18,18.84-15.88,3.05-2.29,6.45-5.13,7.02-3.76.72,1.71,1.26,4.48-1.43,9.99-1.95,3.99-5.74,12.94-9.02,21.11-2.35,5.86-3.46,8.53-4.13,9.63-2.11,3.53-5.67,5.49-7.16,6.1-2.4.99-4.23,1.92-5.59-.14-1.1-.83-3.73-15.62-2.95-19.83-1.47,2.54-2.18,3.84-3.56,6.48,1.07,1.78,2.96,8.62,4.32,13.2.5,1.7,1.09,4.4-.61,6.99-1.68,2.57-3.44,5.07-4.44,6.54-2.38,3.49-6.64,7.18-14.31,11.85-.23.87-.35,1.3-.58,2.17,2.49-1.42,6.24-3.78,9.24-6.32,2.64-2.24,4.4-1.66,4.69-.61.9,3.26,2.42,8.2,3.64,11.74.6,1.75-.05,7.24-.3,8.24-.83,3.29-2.82,11.41-4.55,14.79-1.43,2.81-2.61,3.42-4.87,3.36-4.02-.11-10.35-.11-13.39.49-.08.82-.11,1.22-.18,2.04,2.18-.56,9.82-.63,14.17-.48.97.03,1.98,1.59,1.89,2.13-.31,1.96-.94,3.84-1.88,4.72-2.11,1.98-5.11,4.65-7.49,6.73-3.42,2.98-5.74,5.74-7.04,7.4.11,2.02.18,3.03.35,5.02,1.88-4.25,9.78-11.41,13-14.28,5.5-4.9,8.28-4.62,11.21-3.58,3.67,1.31,8.57,4.35,10.07,6.72,1.5,2.37-1.06,12.88-1.46,14.89-.4,1.13-7.35,13.55-9.56,17.75-.54,1.03-3.59,1.11-5.17.12-5.58-3.48-13.45-10-17.3-14.57.25,1.77.38,2.65.68,4.4,1.54,1.46,3.31,2.98,5.22,4.48-.51,1.17-1.87,4.44-2.68,7.24.45,1.7.68,2.54,1.18,4.2.13-2.1.82-5.18,1.98-7.37.69-1.31,2.51-2.22,4.23-.58,5.25,5.02,13.39,11.05,18.82,17.81,1.78,2.21.37,3.53-.2,4.06-4.28,4.01-7.45,6.89-10.61,7.53-1.15.23-4.51-.96-8.03-4.93,1.42,3.13,2.18,4.66,3.79,7.63.44-.5,1.34-1.25,2.52-.95,2.68.69,5.49,3.59,7.66,5.59.66.61,1.42,1.3,2.22,2.06,6.7,6.42,13.79,12.83,21.34,18.12,1.81,1.27,3.66,3.96,3.97,5.07.3,1.05-.36,4.91-1.04,6.48-.63,1.45-2.2,2.42-3.15,2.15,1.43,1.02,2.16,1.51,3.63,2.46.27-.85.72-1.97,1.18-3.01.7-1.58,1.36-2.87,1.64-3.51,3.16,3.2,11.33,11.58,13.07,13.32,1.51,1.51,4.69,3.05,6.93,3.9,6.92,2.12,10.49,2.83,17.69,3.41,5.43-1.48,12.57-5.39,13.45-5.8,1.2-.56,4.04-.45,4.48-.17,2.19.65,3.48,2.81,4.29,4.71.74-.14,1.11-.22,1.85-.38-.72-1.91-1.5-3.81-2.25-5.23-.32-.6.03-3.09.49-4.06,1.19-2.48,4.56-8.28,6.01-9.99,2.48-2.93,3.53-2.8,4.41-2.41,4.11,1.84,9.68,3.36,9.92,4.64.24,1.27-1.37,7.34-3.12,12.11,2.41-1.02,3.6-1.58,5.96-2.77-1.21-1.16-2.03-3.9-1.04-7.31.49-1.69,2.26-5.67,3.57-7.43,2.73-3.67,6.73-9.15,8.02-11.25,1.65-2.68,5.19-5.84,7.87-5.48,1.4.19,1.84,2.15,2.38,3.2,1.73,3.35,2.29,6.24,2.03,7.36-.28,1.18-.8,2.85-1.35,3.65-.73,1.05-6.4,6.61-8.66,9.09-.32.35-.69.72-1.1,1.1.99-.69,1.48-1.05,2.45-1.77,1.33-1.38,2.58-2.67,3.69-3.83.6-.63,4.32-3.73,5.13-4.26.86-.56,1.47-.94,1.57-.92.04.01.08.03.11.04,1.43-1.39,2.14-2.11,3.52-3.58.64-.68.96-1.03,1.59-1.73ZM273.35,243.81c3.89-.45,9.74,1.74,10.33,2.29,1.62,1.52,3.93,12.07,3.32,15.27-.17.93-.98,4.08-1.3,4.8-1.63,3.66-5.61,7.3-6.02,7.49-1.05.07-3.5.77-6.09,1.23-1.43.26-4.7-2.05-6.6-5.54-1.9-3.5-4.97-8.8-4.52-10.92.41-1.91,9.21-14.43,10.87-14.62ZM269.44,238.66c.83,2.23.32,4.33-.53,5.59-2.71,4.04-6.86,12.39-8.32,13.68-1.05.93-4.64,3.68-7.69,4.91-2.42.97-4.1,1.18-5.49.68-4.68-1.7-8.1-4.09-11.79-7.29-1.31-1.13-3.19-4.17-3.23-5.65-.08-2.9-.28-4.54-.33-8.05-.04-3.28.99-5.88,1.74-6.7,3.27-3.61,7.84-10.29,10.64-14.72,1.16-1.84,2.99-3.3,5.85-2.57,1.15.29,4.16.72,6.84,3.32,4.1,3.98,10.5,11.94,12.31,16.81ZM167.59,290.49c2.96-.29,9.46-.16,12.42-.18,1.88-.02,7.08.36,7.84.55.62.79,2.58,4.05,3.76,6.01.73,1.21,1.22,2.03,1.56,2.59.44.72.2,2.11-.3,2.46-.93.65-1.98,1.37-3.06,2.1-1.87,1.26-3.76,2.5-5,3.4-1.59,1.16-4.09,1.54-4.81.61-.26-.34-.52-.67-.77-1-.26-.35-.4-.53-.66-.88-2.33-3.09-7.11-9.41-11.63-13.57,0,0-1.14-1.6.65-2.08ZM162.24,288.87c-1.04.07-2.85-.95-3.58-1.88-1.83-2.32-4.27-4.95-5.66-7.59-.28-.53-.58-1.84-.4-2.14.93-1.56,1.71-3.43,6.14-5.05.62-.23,2.13.37,2.7,1.07,3.92,4.82,6.98,8.43,9.24,12.81.4.78.06,1.86-1.59,2.14-2.23.39-4.66.48-6.84.63ZM187.41,288.66c-2.31.48-10.67.61-12.38-.56-1.72-1.18-9.26-12.1-11.78-15.39-1.94-2.54-.26-4.3.1-5.22,1.58-3.95,4.55-10.26,7.33-13.08,1.44-1.46,3.4-1.81,4.35-1.52,11.02,3.35,13.38,3.93,16.05,5.46,2.67,1.53,3.01,2.61,3.73,5.44.8,3.13,2,8.75,2.72,11.91.32,1.4-.17,3.86-1.61,5.42-2.41,2.61-5.45,5.43-8.51,7.55ZM175.36,175.2c.75-2.3,3.29-5.08,3.95-5.5,2.11-1.31,7.03-3.51,9.81-3.42,2.72.09,4.64,2.28,6.02,5.76,2.66,6.67,6.6,16.52,8.68,23,.62,1.93,2.18,5.63,1.47,7.88-.71,2.25-1.91,5.48-3.11,8.48-1.38,3.48-2.9,7.08-8.29,6.96-6.62-.15-21.47-1.44-22.77-3.87-1.21-2.26-5.02-10.28-4.08-13.16,1.04-3.17,3.55-10.37,5.16-15.83,1.04-3.54,2.17-7.31,3.15-10.3ZM174.03,166.45c-2.22-.45-9.54-2.56-14.88-3.79-1.87-.43-4.78-3.95-5.06-5.82-.24-1.64-.4-3.4-.02-5.11.23-1.06.6-2.35,2.84-3.86,3.31-2.24,8.25-4.77,8.86-5.09,2.65-1.37,8.97-6.1,11.81-8.57,3.37-2.93,6.97-4.84,7.42-2.84,2.02,9.07,2.09,19.2,2.36,28.75.11,3.83-6.03,7.79-13.32,6.32ZM203.29,223.29c-1.5-2.12-1.22-5.28-.42-7.25,1.93-4.8,4.43-11.22,5.24-13.34.9-2.35,5.12-5.79,10.83-7.08,2.45-.55,8.1-1.78,8.54-1.92,1.67-.53,5.87-1.06,7.12.95,2.32,3.76,5,8.58,7.54,14.7,1.68,4.03,1.43,8.84.33,10.58-3.82,6.07-10.45,15.31-12.25,16.09-2.48,1.08-14.31-.33-16.27-1.22-.92-.42-9.9-10.42-10.67-11.51ZM209.74,239.19c-3.33,4.83-8.74,10.55-12.34,14.29-1.6,1.66-5.24,2.15-7.21,1.75-4.88-.99-9.58-2.23-13.68-4.19-1.46-.7-3.28-1.62-3.72-5.72-.42-3.88.01-16.86.28-21.31.1-1.73,2.99-4.64,6.52-4.36,16.94,1.32,18.58,2.08,19.25,2.57.8.58,5.64,6.74,7.98,9.4,3.35,3.8,3.76,6.34,2.91,7.57ZM205.62,192.31c-4.68-8.1-7.19-18.2-8.86-22.81-.99-2.72-.15-4.6.71-4.96,2.43-1.02,4.16-1.74,6.56-2.07.96-.13,2.86.66,3.41,1.57,3.98,6.58,9.03,15.3,14.3,23.86.94,1.53,2.3,2.95-1.73,4.77-1.78.8-5.71,1.82-9.24,2.33-1.59.23-3.87-.48-5.15-2.69ZM230.35,189.52c-2.1.57-5.39-1.26-6.6-2.76-5.01-6.25-11.34-16.55-13.99-22.88-1.26-3.02-.2-4.98.63-5.97,3.81-4.55,9.32-11.51,11.07-18.55.28-1.14,1.84-3.93,4.24-2.99,2.65,1.04,5.11,2.46,5.96,3.53,5.14,6.46,9.78,18.23,11.47,27,.6,3.11,1.38,6.58-.84,11.39-.05.11-2.17,2.38-5.93,6.57-1.47,1.63-3.05,3.85-6.02,4.66ZM218.92,138.78c-2.41,8.53-10.49,18.6-12.55,19.91-2.61,1.66-12.18,5.3-15.09,3.32-2.24-1.52-2.52-19.51-2.48-27.26.01-2.86.77-4.78,2.34-6.79.95-1.22,4.29-5.75,10.6-8.03.92-.33,3.63-.22,4.32.35,2.75,2.25,10.78,8.72,12.17,11.53.79,1.59,1.1,5.54.69,6.99ZM167.25,211.49c2.06,3.88,3.71,9.54,3.6,10.92-.35,4.51-.41,11.3-.38,17.33.02,4.66.32,8.1-.65,9.54-1.86,2.75-4.96,5.22-6.33,5.14-2.35-.13-5.25-2.13-6.65-3.5-1.12-1.1-16.63-17.17-17.99-20.23-1.36-3.06-.82-7.1,2.45-10.75,8.12-9.09,21.38-15.24,23.6-12.33.88,1.16,1.24,1.78,2.36,3.88ZM196.73,262.64c-.34-2.73.21-5.41,1.11-6.29,3.92-3.84,10.54-11.47,14.2-16.26.82-1.07,3.44-2.05,4.46-2.16,3.96-.42,7.36-.28,10.91.89,1.36.45,1.87,2.12,1.92,3.02.29,5.36,1.02,14.23.77,16.05-.34,2.47-2.4,10.46-6.92,14.84-2.59,2.51-13.65,4.48-19.81,4.97-1.32.11-3.09-.56-3.78-2.95-1.05-3.64-2.41-8.38-2.87-12.13ZM226.5,272.07c2.99-3.95,4.71-9.01,5.46-12.16.18-.79,1.59-2.17,2.29-1.68,3.83,2.69,9.86,6.27,13.04,7.93.82.42,1.3,2.46.83,3.32-1.41,2.57-4.03,6.73-4.03,6.73-.56,1-5.36,5.63-8.63,6.93-1.97.78-3.53.93-4.29.44,0,0,0,0-.01.02-1.03-2.51-3.26-5.82-4.88-7.98-.55-.73-.26-2.88.22-3.52ZM267.51,197.72c0,.13.01.2.02.33.17,2.39-.79,7.69-3.02,11.05-2.09,3.15-6.65,7.85-9.05,8.13-2.67-.22-6.85-.91-8.31-3.12-1.41-2.13-7.76-14.66-10.65-20.72-.69-1.44-.72-4.61.03-5.51,2.95-3.54,9.23-9.04,11.21-10.65.49-.4,2.73-1.04,4.06-.75,3.34.73,6.14,1.62,8.81,1.86,1.33.12,3.57.63,4.74,4.07.91,2.67,1.68,8.46,2.15,15.33ZM271.38,157.03c1.6,2.34,2.13,4.37,1.85,5.76-.57,2.9-4.33,8.09-7.3,10.71-1.53,1.35-3.48,3.08-8.45,2.08-3.66-.74-8.19-3.02-8.9-4.55-4.36-9.3-8.58-18.9-13.02-28.16-.51-1.07,1.03-2.29,2.89-1.89,3.06.66,6.94,1.59,10.16,2.41,5.41,1.38,10.01,2.72,11.11,2.96,1.91.43,10.07,8.34,11.66,10.68ZM236.26,102.3c2,.6,6.74,4.85,7.77,6.68,5.22,9.31,9.31,20.36,13.42,30.71.78,1.97.47,3.89-2.09,3.46-1.91-.32-16.66-4.17-19.24-4.76-7.06-1.62-5.87-6.42-6.05-9.45-.07-1.26,1.18-6.43,2.18-11.17,1.43-6.78,2.01-10.92,2.17-13.7.07-1.22,1.04-2.01,1.85-1.77ZM199.59,82.26c3.02-1.73,6.6-4.37,8.85-5.99.87-.62,3.59-.62,4.31-.08,2.29,1.69,8.74,7.44,9.34,8.06,4.95,5.15,6.66,8.74,8.62,12.94,1.2,2.58,2.02,5.68,1.66,8.5-.44,3.42-4,18.91-4.79,20.67-1.16,2.56-5.11,6.74-9.36,3-5.06-4.44-11.8-10.68-12.88-13.38-3.52-8.8-5.33-19.52-7.28-29.38-.3-1.54.77-3.89,1.53-4.33ZM173.88,101.48c2.09-3.07,9.31-12.26,13.17-17.19.84-1.07,3.02-2.26,6.01-1.47,1,.27,3.16,2.8,3.5,4.63,1.22,6.49,4.08,19.65,5.98,26.19.35,1.2-1.13,3.85-2.09,4.54-5.28,3.81-15.14,8.42-16.12,8.77-3.33,1.19-5.35-.76-6.07-2.82-1.13-3.24-2.72-6.61-4.78-12.73-.09-.28-.14-.42-.23-.69-1.02-3.06-1.61-5.96.63-9.24ZM147.66,123.09c3.06-7.73,5.15-12.05,7.02-16.01.95-2,3.59-5.25,4.62-5.65,2.19-.85,6.24.87,8.36,1.54,2.51.79,3.15,6.98,3.82,9.01.09.27.14.41.23.69,2.04,6.17,3.71,10.79,4.82,13.98.76,2.19,1.31,4.38-1.59,7.36-2.56,2.63-6.89,6.12-9.25,7.35-5.32,2.77-11.96,5.9-13.66,6.05,0,0-.9-.14-1.37-.28-4.61-1.36-9.21-7.05-8.8-8.62.65-2.48,2.98-8.26,5.81-15.42ZM125.2,170.45c-1.24-3.96-2.67-8.7-3.42-11.38-.25-.89.52-3.58,1.34-4.81.51-.77,3.38-4.94,5.21-7.66.72-1.06,2.03-2.46,4.21-3.08.95-.27,4.47-1.76,5.04-1.95,1.78-.62,2.64-.08,2.87.36,1.57,3.06,6.09,6.46,9.13,7.37,2.54.76,3.43,5.13,3.15,8.85-.24,3.19-1.4,4.79-2.33,5.3-1.93,1.06-14.02,7.06-20.09,10.18-1.71.88-3.74,1.18-5.1-3.18ZM124.48,207.37c-2.77-.97-4.53-2.21-4.74-3.46-.44-3.67,5.08-19.45,6.15-23.05.89-3,2.11-3.86,2.89-4.29,2.72-1.53,19.62-9.71,21.58-10.75,1.57-.83,3.97-1.6,6.11-1.17,3.97.79,10.88,2.38,15.55,3.97,1.31.45,2.14,2.1,1.28,4.98-.85,2.83-1.81,6.48-3.24,11.28-2.07,6.93-7.82,17.01-9.02,18.13-1.71,1.3-12.66,5.92-19.89,8.57-2.4.88-9.98-1.86-16.67-4.2ZM127.29,258.54c-1.95-2.79-2.04-5.06-1.43-6.23,3.3-6.34,5.83-12.46,7.37-15.29.82-1.51,3.26-1.92,4.26-.97,7.29,6.91,14.7,14.11,22.34,20.38,2.44,2,2.51,4.69,2.18,6.32-.43,2.11-2.55,5.64-3.42,6.78-2.62,2-7.92,6.27-13.13,3.83-3.64-1.7-12.97-7.38-18.17-14.82ZM147.98,301.33c-5.59-3.55-14.63-11.5-19.22-15.91-.86-.83-1.65-1.55-2.35-2.18-2.45-2.21-3.04-2.76-2.97-3.97.1-1.68,5.46-5.95,9.99-8.1.81-.38,4.54.48,7.14,1.83,3.04,1.58,8.05,3.91,10.06,5.78,3.61,3.36,5.61,6.67,6.89,8.85.65,1.1.53,4.13-.1,5.36-1.84,3.58-3.9,8.1-4.31,9.33-.47,1.42-2.82.15-5.13-1.01ZM175.76,329.61c-2.4-.72-5.3-2.25-6.34-3.28-1.82-1.81-10.01-10.7-12.51-13.22-1.78-1.62-2.83-7.19-2.61-8.16.3-1.31,2.81-7.87,5.9-12.31,1.07-1.54,3.05-.91,3.65-.45,4.61,3.49,10.85,11.67,13.28,14.9.27.36.41.54.68.89.26.34.53.68.79,1.03,1.68,2.16,1.7,5.86,1.39,7.31-.28,1.3-1.83,10.78-2.02,11.53-.27,1.08-.6,2.24-2.22,1.76ZM201.41,329.57c-6.25,3.54-11.46,4.44-13.45,4.31-2.33-.15-6.97-1.48-7.49-4.03-.9-4.4,1.9-12.03,2.37-13.34.62-1.7,2.13-6.5,4.23-8.04,1.22-.89,4.17-3.2,6.05-4.49,1.85-1.27,5.45.18,9.04,1.67.4.4.6.59.99.98.68,1.42.62,10.81.36,18.15-.05,1.43.21,3.48-2.09,4.79ZM220.65,312.13c-1.45,3.08-3.88,7.2-5.66,10.08-.89,1.43-2.18,2.96-4.18,3.94-.64.32-2.52.92-3.93,1.49-1.66.67-1.64-1.73-1.57-3.25.21-4.36.41-10.52.2-14.68-.05-1.03,1.93-3.88,5.36-3.25,1.95.35,5.69.92,8.22,1.53,1.74.42,1.84,3.56,1.56,4.14ZM219.41,305.77c-12.45-.73-21.99-4.36-23.97-6.51-.2-.26-1.19-1.92-2.07-3.4-.65-1.09-1.24-2.06-1.76-2.92-.86-1.4-.68-4.07.14-4.7,1.84-1.44,4.09-3.36,5.9-5.32.87-.94,3.55-2.83,4.45-2.88,4.92-.29,14.35-1.65,19.58-3.98.51-.23,2.17.18,2.71.89,2.16,2.88,5.42,7.99,5.27,9.46-.17,1.65-3.56,12.11-5.85,18.19-.5,1.32-2.36,1.29-4.38,1.17ZM247.91,299.05c-1.1,1.98-4.48,6.7-7.98,10.14-1.07,1.05-3,2.74-4.77,2.84-2.63.15-4.74-.71-7.91-2.06-3.03-1.29-2-4.26-1.32-6.03,1.7-4.47,3.84-10.64,4.98-14.54.45-1.54,3.94-3.97,4.82-4.32,1-.4,5.82-1.78,6.34-.81.62,1.17,1.54,2.7,2.76,4.65,1.37,2.18,2.86,4.44,3.94,6,.43.62.14,2.31-.87,4.13ZM256.45,290.07c-3.91,3.51-6.24,3.65-6.84,2.77-2.45-3.58-5.63-7.22-4.69-12.08.74-3.87,5.14-11.47,6.18-13.44.48-.9,7.42-6.73,8.91-5.82,1.5.91,2.73,5.07,5.07,9.34,1.25,2.29,1.75,5.92.19,8.57-2.25,3.82-7.08,9.09-8.83,10.66ZM263.78,299.04c-.35-.14-1.15-1.41-2.32-3.7-.7-1.37-1.38-2.61-1.95-3.56-.39-.67.42-3.07,1.21-3.96,2.08-2.37,4.4-5.24,6.13-7.46.85-1.09,3.73-3.16,4.84-3.42,2.7-.63,5.96-1.29,6.99-1.11.89.16,2.48,1.95,3.39,3.26.42.6-.55,2.63-1.82,4.39-1.75,2.41-6.24,8.46-7.56,9.57-.88.74-1.95,1.68-3.09,2.67-1.78,1.55-4.38,3.47-5.82,3.33Z"/>
                <path class="cls-11" d="M138.7,308.62c-3.67-3.88-11.93-13.2-16.68-18.75,1,1.48,1.52,2.21,2.56,3.64,4.59,5.15,10.59,11.77,13.98,15.38.84.9,1.88,1.96,3,3.08,2.31,2,3.5,2.95,5.92,4.75-2.82-2.3-6.33-5.5-8.78-8.09Z"/>
              </g>
            </g>
            <ellipse class="cls-16" cx="227" cy="147.7" rx="30.92" ry="39.02"/>
            <path class="cls-13" d="M224.9,291.34c-53.77,0-102.67-55.38-97.37-128.31,1.59-21.84,6.8-42.53,14.47-60.88-20.07,25.03-35.16,61.19-38.07,101.24-5.3,72.93,43.59,128.31,97.37,128.31,38.81,0,75.61-28.89,90.71-72.35-18.06,20.06-42.16,32-67.1,32Z"/>
          </g>
        </g>
      </g>
    </g>
  </g>
</svg>