<?xml version="1.0" encoding="UTF-8"?>
<svg xmlns="http://www.w3.org/2000/svg" viewBox="0 0 400 400">
  <defs>
    <style>
      .cls-1 {
        fill: #5c8378;
      }

      .cls-1, .cls-2, .cls-3, .cls-4, .cls-5, .cls-6, .cls-7, .cls-8, .cls-9, .cls-10, .cls-11, .cls-12, .cls-13 {
        stroke-width: 0px;
      }

      .cls-2 {
        fill: #1e122b;
      }

      .cls-3 {
        fill: #ccb067;
      }

      .cls-4 {
        fill: #b58250;
      }

      .cls-5 {
        fill: #506e81;
      }

      .cls-6 {
        fill: #768c87;
      }

      .cls-7 {
        fill: #364562;
      }

      .cls-8 {
        fill: #4a6d8d;
      }

      .cls-9 {
        fill: #69322e;
      }

      .cls-10 {
        fill: #fce2a1;
      }

      .cls-14 {
        isolation: isolate;
      }

      .cls-11 {
        fill: #d1d2d4;
        mix-blend-mode: multiply;
      }

      .cls-12 {
        fill: #8d3e51;
      }

      .cls-13 {
        fill: #332d1b;
        mix-blend-mode: screen;
      }
    </style>
  </defs>
  <g class="cls-14">
    <g id="_Слой_2" data-name="Слой 2">
      <g id="_Слой_1-2" data-name="Слой 1">
        <g>
          <rect class="cls-2" width="400" height="400"/>
          <g>
            <path class="cls-3" d="M299.44,204.17c6.47,74.19-44.56,130.66-99.52,130.66s-104.94-56.39-99.52-130.66c5.58-76.45,54.88-139,99.52-139s93.01,64.4,99.52,139Z"/>
            <g>
              <path class="cls-4" d="M299.25,203.47c-.23-2.59-.37-3.88-.69-6.46-18.85,3.19-38.51-1.04-57.11-3.78-47.46-10.72-89.13-32.82-137.55-14.35-2.69,15.64-3.96,30.41-3.56,46.28,69.1,17.42,133.02.04,198.91-21.7Z"/>
              <path class="cls-3" d="M102.09,189.04c-1.64,10.89-2.21,16.77-2.08,27.84,28.06,7.4,60.51,11.99,87.9,1.21,18.51-7.29-11.64-26.08-18.41-28.06-21.98-6.41-45.36-10.19-67.41-.98Z"/>
              <path class="cls-3" d="M215.84,90.01c-31.22-10.91-63.29,7.78-87.36,26.36-5.71,8.99-10.02,18.47-14.28,28.2,33.04-12.11,67.34-28.19,100.83-31.23,23.41-2.13,43.73,6.78,64.84,19.25-1.05-2.19-1.59-3.26-2.69-5.39-18.72-14.53-38.95-29.36-61.33-37.18Z"/>
              <path class="cls-8" d="M289.64,156.93c-3.35-10.2-5.33-15.12-9.77-24.35-21.11-12.47-41.42-21.38-64.84-19.25-33.49,3.04-67.79,19.12-100.83,31.23-1.24,3.08-1.83,4.64-2.96,7.82,3.06-1.13,6.05-1.86,9.18-2.82,56.29-9.48,112.48,15.46,169.21,7.37Z"/>
              <path class="cls-9" d="M271.58,117.23c-4.79-7.92-7.38-11.61-12.86-18.28-17.11-18.65-38.21-36.89-65.57-33.31,27.65,2.84,53.83,34.13,75.46,49.5.68.49,2.19,1.48,2.96,2.09Z"/>
              <path class="cls-3" d="M193.16,65.64c-21.93,3.26-37.97,17.97-52.35,33.6-1.88,2.26-2.8,3.42-4.61,5.84,29.28-28.61,52.35-32.69,87.92-13.58,17.61,9.47,35.06,19.66,51.11,32.07-1.71-3.12-2.6-4.64-4.42-7.59-22.8-16.63-48.13-47.24-77.65-50.33Z"/>
              <path class="cls-1" d="M216.46,84.74c-33.16-16.29-54.35-5.19-80.26,20.34-3.22,4.29-4.77,6.55-7.72,11.29,30.59-22.74,58.8-36.01,96.03-21.5,19.13,8.86,35.96,19.54,52.66,32.33-1.81-3.48-2.75-5.18-4.7-8.47-18.27-12.12-36.76-24.52-56.01-33.98Z"/>
              <path class="cls-12" d="M204,97.33c-29.72-3.45-56.59,11.1-80.33,27.23-2.41,4.38-3.56,6.66-5.72,11.33,29.08-10.22,58.1-20.13,86.55-31.86,4.81-1.98,4.84-6.09-.49-6.7Z"/>
              <path class="cls-3" d="M210.34,139.67c19.79,7.44,47.56,12.44,68.39,9.05,6.55-1.07,3.9-6.23-3.36-11.63-18.22-13.15-45.85-24.21-67.43-13.88-8.95,4.28-8.05,12.53,2.41,16.46Z"/>
              <path class="cls-10" d="M230.28,132.35c12.68,4.6,27.97,8.21,41.26,8.46,4.2.08,3.07-2.49-1.33-5.3-11.84-7.49-28.49-13.02-41.85-10.41-5.23,1.02-4.42,4.96,1.92,7.26Z"/>
              <path class="cls-12" d="M249.01,133.56c4.94,2.39,16.59,5.61,21.13,5.39,2.27-.11,1.58-1.51-.76-3.04-5.38-3.43-16.46-7.18-21.68-6.32-2.66.44-2.02,2.35,1.31,3.97Z"/>
              <path class="cls-7" d="M291.52,162.98c-38-4.33-77.14-7.05-114.46-8.17-24.96-.75-47.52,5.02-71.03,14.73-.3,1.18-.45,1.78-.73,2.97,17.86-7.05,33.4-9.96,51.7-7.94,45.47,5.02,92.44,21.94,140.36,24.04-1.72-10.54-2.92-15.7-5.84-25.64Z"/>
              <path class="cls-3" d="M295.24,177.51c-.49-2.25-.75-3.37-1.3-5.59-18.13-.82-35.67-4-53.44-6.85-6.3-1.01-6.69,1.37-1.46,4.91,13.83,9.34,39.86,13.52,56.2,7.54Z"/>
              <path class="cls-6" d="M165.15,163.35c-19.84-1.76-41.7.33-59.85,9.17-.6,2.52-.88,3.8-1.41,6.36,48.43-18.46,90.09,3.64,137.55,14.35,18.61,2.73,38.26,6.96,57.11,3.78-.41-3.38-.65-5.06-1.2-8.39-45.59-1.1-87.34-21.29-132.22-25.27Z"/>
              <path class="cls-9" d="M161.05,194.03c-16.67-9.51-42.66-8.17-59.72.66-.64,5.23-.89,7.89-1.15,13.26,16.14,8.28,40.13,11.75,57.1,5.5,13.57-4.99,13.27-14,3.77-19.42Z"/>
              <path class="cls-3" d="M297.21,243.97c1.64-8.19,2.17-12.46,2.53-21.24-30.28,3.22-60.69,9.41-90.26,13.3-36.05,4.74-72.08,4.62-108.45-3.54.57,4.72.95,7.04,1.89,11.58,64.44-.21,130.03,4.47,194.29-.1Z"/>
              <path class="cls-5" d="M288.49,261.01c1.59-.38,3.01-.55,4.3-.59,2.16-6.34,3.06-9.64,4.42-16.45-64.53,4.44-129.95-2.82-194.67-1.76.43,2.24.67,3.34,1.19,5.53,59.08,5.73,125.66,24.63,184.76,13.26Z"/>
              <path class="cls-3" d="M292.02,262.61c.31-.87.47-1.31.77-2.19-1.29.04-2.7.21-4.3.59-59.1,11.37-125.68-7.54-184.76-13.26,1.07,4.54,1.7,6.76,3.13,11.09,59.59,16.16,124.88,16.78,185.16,3.78Z"/>
              <path class="cls-3" d="M268.39,302.39c4.17-4.63,6.14-7.12,9.74-12.43-58.05,40.25-109.3,25.72-163.65-12.87,4.53,8.85,7.2,12.95,13.13,20.35,41.48,31.83,98.7,40.3,140.79,4.94Z"/>
              <path class="cls-4" d="M127.6,297.45c2.13,2.66,3.24,3.94,5.52,6.39,41.63,39.55,92.02,39.48,133.88.06.56-.6.84-.9,1.39-1.51-42.09,35.36-99.31,26.9-140.79-4.94Z"/>
              <path class="cls-6" d="M291.4,264.3c.25-.67.38-1.01.62-1.69-60.28,13-125.58,12.38-185.16-3.78.59,1.79.9,2.67,1.54,4.42,60.86,31.73,119.92,20.08,183,1.04Z"/>
              <path class="cls-12" d="M108.4,263.25c.55,1.48.83,2.21,1.41,3.65,31.71,21.78,64.66,42.2,103.38,43.26,24.38.66,48.79-11.74,68.6-25.96,4.45-7.44,6.41-11.44,9.6-19.91-63.15,19.04-121.82,29.62-183-1.04Z"/>
              <path class="cls-7" d="M109.82,266.91c1.7,4.2,2.64,6.24,4.65,10.19,54.35,38.59,105.6,53.12,163.65,12.87,1.53-2.25,2.26-3.4,3.67-5.76-61.7,38.65-114.87,20.23-171.98-17.3Z"/>
              <path class="cls-1" d="M100.34,225.16c.2,2.97.34,4.43.69,7.33,36.37,8.16,72.4,8.28,108.45,3.54,29.57-3.89,59.98-10.07,90.26-13.3.31-7.53.19-11.63-.5-19.27-65.89,21.73-129.81,39.12-198.91,21.7Z"/>
              <path class="cls-3" d="M291.52,162.98c-.87-2.95-1.33-4.41-2.3-7.3-38.5,7.1-85.04-11.19-123.03-13.97-18.11-1.33-38.46,2.2-54.95,10.67-2.36,6.67-3.41,10.11-5.21,17.17,22.46-10.58,47.16-16.08,71.03-14.73,36.32,2.06,76.72,11.39,114.46,8.17Z"/>
              <path class="cls-10" d="M278.09,128.98c-18.25-13.72-37.41-26.52-58.26-34.17-31.74-11.65-67.59,3.73-93.24,24.64-.52.87-.77,1.3-1.28,2.18,30.5-23.74,65.35-35.19,101.38-21.54,7.02,2.66,7.83,7.24,1.57,6.9-16.51-.88-32.73,5.45-48.01,10.74-20.93,7.24-42.17,14.29-63.49,20.76-.65,1.47-.97,2.21-1.6,3.7,23.27-7.4,46.08-16.57,69.26-24.15,32.41-10.61,66.02-8.54,94.23,12.07-.23-.45-.34-.68-.57-1.13Z"/>
              <path class="cls-10" d="M109.9,156.31c25.34-9.18,51.22-9.4,77.46-6.56,33.71,3.64,68.71,7.9,102.88,9.05.28.87.41,1.31.68,2.19-35.44-3.52-71.12-5.5-106.39-9.58-26.08-3.02-53.09.07-76.82,11.96.83-2.85,1.26-4.27,2.18-7.05Z"/>
              <path class="cls-10" d="M297.75,191.06c-39.75,6.97-77.78-10.46-114.83-19.92-26.07-6.66-52.2-8.68-77.92,2.68-.26,1.13-.39,1.7-.64,2.84,25.37-12.7,50.57-10.88,76.57-3.48,37.14,10.57,77.21,27.13,117.33,21.41-.19-1.42-.29-2.12-.5-3.53Z"/>
              <path class="cls-10" d="M221.19,69.52c11.33,14.78,29.16,23.1,42.49,35.82.68.92,1.01,1.39,1.68,2.34-15.96-14.85-34.99-25.94-51.2-40.55,2.83.77,4.24,1.25,7.03,2.39Z"/>
              <path class="cls-10" d="M100.45,226.71c60.46,26.02,139.62-.61,199.22-17.37.13,1.55.19,2.33.28,3.87-31.66,10.38-65.52,16.72-98.49,20.86-31.92,4-69.69,7.63-100.7-3.89-.14-1.38-.21-2.07-.32-3.46Z"/>
              <path class="cls-10" d="M103.24,245.59c38.11,3.63,76.04,2.36,113.9,9.22,26.36,4.78,51.63,6.86,77.66-.85.85-2.99,1.23-4.5,1.9-7.59-25.9,8.97-48.82,10.7-75.47,5.87-38.15-6.92-79.16-6.84-118.23-7.75.09.44.14.66.24,1.1Z"/>
              <path class="cls-10" d="M104.89,251.82c19.74.52,39.26,3.01,58.8,5.4,16.87,2.06,17.05,9.54,5.38,8.62-21.16-1.66-42.45-4.62-63.13-10.32-.44-1.47-.65-2.2-1.05-3.69Z"/>
              <path class="cls-10" d="M213.44,289.12c21.91-10.22,49.78-11.28,73.96-15.4-.98,2.07-1.49,3.09-2.56,5.09-21.23,13.6-44.11,25.39-69.92,18.94-7.37-1.84-8.78-5.24-1.48-8.64Z"/>
              <path class="cls-10" d="M110.75,269.15c50.76,41.83,114.22,60.91,169.81,17.08-.54.87-.82,1.3-1.37,2.15-52.18,41.13-116.96,24.88-165.85-13.55-1.08-2.23-1.6-3.36-2.58-5.67Z"/>
              <path class="cls-10" d="M119.43,285.89c45.85,38.73,109.06,46.32,156.79,6.8-.79,1.09-1.19,1.63-2.01,2.7-46.53,41.09-106.25,29.69-152.24-5.58-1.04-1.54-1.55-2.33-2.54-3.92Z"/>
              <path class="cls-10" d="M131.08,301.59c31.89,31.71,81.3,34.89,120.54,15.84-6.18,4.45-9.45,6.36-16.19,9.45-36.27,10.41-75.75,4.4-102.82-23.59-.62-.67-.92-1.01-1.53-1.69Z"/>
              <path class="cls-3" d="M220,289.64c12.25-2.45,25.24-3.78,37.77-4.3,6.77-.28,5.36,2.92-5.03,6.93-10.06,3.88-20.91,5.51-31.7,4.37-7.41-.78-11.76-4.87-1.04-7.01Z"/>
              <path class="cls-10" d="M229.74,195.66c-41.79-13.4-81.12-25.22-126.11-13.87-.34,1.83-.5,2.74-.81,4.59,30.26-10.82,63.87-10.61,92.86,1.65,11.47,4.85,29.22,24.57,8.12,31.42-30.47,9.89-73.42,13.07-103.77-.77.02,1.04.04,1.56.08,2.59,31.82,10.41,64.55,10.81,96.98,5.88,33.92-5.15,69.03-14.93,101.89-26.33-.15-1.48-.24-2.22-.42-3.69-19.45,11.51-49.69,4.67-68.84-1.47Z"/>
              <path class="cls-6" d="M125.63,200.47c8.63,4.12,21.04,5.22,30.01,1.77,3.98-1.53,4.16-4.93,1.26-6.95-9.09-5.09-21.42-5.9-30.73-2.09-4.17,1.71-4.37,5.45-.54,7.28Z"/>
              <path class="cls-3" d="M141.23,197.73c2.31,1.23,8.54,2.01,11.7.63,1.57-.69,1.61-1.89.5-2.67-2.57-1.72-8.74-2.36-12.03-.91-1.68.74-1.73,2.12-.17,2.95Z"/>
              <path class="cls-10" d="M145.65,115.71c9.75-7.46,24.49-12.04,37.06-12.3,6.6-.13-4.4,6.4-16.16,9.96-11.76,3.56-28.07,7.82-20.9,2.33Z"/>
            </g>
            <path class="cls-11" d="M222.7,291.34c-53.77,0-102.67-55.38-97.37-128.31,1.59-21.84,6.8-42.53,14.47-60.88-20.07,25.03-35.16,61.19-38.07,101.24-5.3,72.93,43.59,128.31,97.37,128.31,38.81,0,75.61-28.89,90.71-72.35-18.06,20.06-42.16,32-67.1,32Z"/>
            <ellipse class="cls-13" cx="218.11" cy="147.7" rx="30.92" ry="39.02"/>
          </g>
        </g>
      </g>
    </g>
  </g>
</svg>