<?xml version="1.0" encoding="UTF-8"?>
<svg xmlns="http://www.w3.org/2000/svg" viewBox="0 0 400 400">
  <defs>
    <style>
      .cls-1 {
        fill: #1e122b;
      }

      .cls-1, .cls-2, .cls-3, .cls-4, .cls-5, .cls-6, .cls-7, .cls-8, .cls-9, .cls-10, .cls-11 {
        stroke-width: 0px;
      }

      .cls-2 {
        fill: none;
      }

      .cls-3 {
        fill: #223a68;
      }

      .cls-4 {
        fill: #94436c;
      }

      .cls-5 {
        fill: #c784a5;
      }

      .cls-6 {
        fill: #a3b3dc;
      }

      .cls-12 {
        isolation: isolate;
      }

      .cls-7 {
        fill: #d1d2d4;
        mix-blend-mode: multiply;
      }

      .cls-8 {
        fill: #e7bdc8;
      }

      .cls-9 {
        fill: #50688b;
      }

      .cls-10 {
        fill: #819cc4;
      }

      .cls-11 {
        fill: #332d1b;
        mix-blend-mode: screen;
      }
    </style>
  </defs>
  <g class="cls-12">
    <g id="_Слой_2" data-name="Слой 2">
      <g id="_Слой_1-2" data-name="Слой 1">
        <g>
          <rect class="cls-1" width="400" height="400"/>
          <g>
            <g>
              <path class="cls-3" d="M267.06,303.84c-41.63,39.34-91.83,39.68-133.51.46-50.1-60.49-37.57-145.85,7.66-205.53,38.86-41.56,79.02-41.87,117.6.27,44.99,59.43,59.06,144.71,8.25,204.8Z"/>
              <path class="cls-8" d="M256.67,300.18c3.52-4.97,7.25-4.93,5.25-1.09-1.04,2-4.38,6.54-8.04,10.64-4.53,5.07-3.07,7.45,1,4.57,3.76-2.66,8.87-7.86,14.31-14.16,8-9.27,9.39-16.61,5.37-21.26-6.11-7.07,12.61-27.13,21.49-32.28.29-.17.56-.34.84-.51,2.07-12,2.94-22.5,3-34.69-14.34-4.59-26.19,6.45-31.75,15.91-7.09,12.06-3.57,27.08-3.3,42.3.31,17.5-16.78,35.59-29.45,46.98-6.8,6.11-23.03,8.84-26.27,17.72,11.87-2.19,20.41-4.94,31.39-9.96,5.89-7.92,10.68-16.44,16.16-24.17Z"/>
              <path class="cls-6" d="M202.99,116.84c-11.6,2.48-24.44-.45-35.22-4.72-13.83-5.47-24.96,1.77-35.1,9.91-5.3,4.26-10.64,10.27-15.27,16.03-5.75,13.07-9.54,26.47-12.78,40.34,1.5,4.84,4.22,8.4,7.22,8.56,7.34.4,5.27-5.08,2.28-11.14-3-6.06,2.95-12.79,4.69-12.08,3.79,1.54,4.21,18.92,8.39,26.86,6.59,12.52,26.92,15.55,40.45,12.01,14.38-3.76,8.21-20.98-3.69-21.61-11-.58-18.61-11.42-15.1-21.71,6.37-18.67,32.07-18.67,45.81-8.58,13.67,10.05,41.13-1.53,38.84-20.25-1.83-14.96-18.96-16.1-30.49-13.64Z"/>
              <path class="cls-10" d="M130.48,180.69c1.49,9.8,10.44,16.51,20.17,16.83,12.95.43,25.71-9.44,14.56-11.39-10.47-1.83-23.12-9.49-23.83-20.4-.65-9.9,7.08-20.89,16.24-25.32,5.02-2.43,7.65-8.52,5.69-16.03-1.02-3.9-3.64-7.91-9.8-8.25-12.79-.69-28.62,14.13-34.7,25.25-3.83,7,2.28,4.37,10.42-2.94,11.46-10.3,14.41,3.95,8.78,12.14-5.29,7.68-8.99,20.43-7.52,30.11Z"/>
              <path class="cls-9" d="M176.6,121.05c7.51,4.1,19.99,3.02,28.34.09,8.1-2.84,21.97-2.94,20.12,9.41-1.29,8.58-11.3,16.48-20.01,15.78-6.77-.55-8.61-7.16-2.02-6.87,11.35.51,11.83-12.5,4.25-9.26-10.27,4.39-23.44,10.39-33.75,6.54-5.22-1.95-7.12-8.94-5.32-13.92,1.04-2.89,3.29-4.56,8.4-1.77Z"/>
              <path class="cls-10" d="M283.8,175.84c-15.5,3.43-15.85,29.35-38,33.11-19.6,3.32-41.79,14.83-56.24,28.54-15.3,14.51-21.41,43.23-5.12,59.65,11.32,11.41,32.69,9.43,40.31-4.48,6.01-10.97-3.3-21.93-3.29-32.87,0-9.63,8.41-17.62,18.69-16.12,14.18,2.07,11.73-13.2,5.21-17.72-6.52-4.51-9.08-12.06,3.26-10.26,15.68,2.29,38.89-5.69,44.74-21.68,3.98-10.87-2.52-19.74-9.56-18.18Z"/>
              <path class="cls-5" d="M193.05,165.02c2.71,11.14-.78,22.39,4.31,33.45,4.06,8.82,11.11,9.47,15.67,6.76,4.56-2.72,11.12,5.79.41,9.81-14.98,5.62-32.54,12.74-42.93,25.46-12.04,14.73-14.47,34.4-7.23,51.14,7.49,17.33-7.53,16.69-16.11,8.27-11.19-10.99-16.92-29.72-10.12-43.28,3.1-6.18,14.93-18.24,7.33-25.57-5.71-5.51-16.33-19.87-2.44-22.8,10.95-2.32,16.74,8.47,27.66,6.68,17.91-2.93,22.93-46.5,4.97-42.98-8.19,1.61-23.88-.19-21.13-9.95,4.5-15.97,35-15.91,39.6,3.01Z"/>
              <path class="cls-4" d="M254.42,264.57c-.9-14.1-20.89-20.41-25.97-9.75-5.86,12.28,12.23,31.01.07,47.51-9.01,12.23-25.18,16.48-36.45,5.76-9.9-9.42-19.44-6.53-21.58,1.7-2.92,11.22-16.48,3.56-22.4-2.7-7.82-8.27-18.06-12.57-19.64-10.45-.67.9,2.1,4.24,6.62,9.24,17.37,15.75,33.98,24.7,57.28,28.59,7.77-5.74,17.32-9.22,26.01-12.98,21.35-9.22,37.57-33.33,36.07-56.93Z"/>
              <path class="cls-10" d="M114.41,263.15c-.72,1.52-2.78,2.87-3.88,4.32,2.14,5.31,3.34,7.88,5.98,12.77,6.73,7.02,14.39,12.99,16.72,12.01,4.72-1.98-4.8-12.61-6.55-24.83-1.04-7.3.55-12.47,4.78-20.96,5.18-10.42-7.28-25.75-4.56-37.36,3.78-16.15-15.47-18.05-25.19-12.07-1.47,12.9-1.42,25.97.4,38.84,5.18,6.68,16.39,18.63,12.29,27.27Z"/>
              <path class="cls-10" d="M233.97,82.54c1.97,4.54,11.51,29.75,2.47,29.43-3.97-.14-5.18-7.48-3.66-12.45,1.94-6.35,1.42-13.01-3.34-22.76-.75-1.53-1.56-3.06-2.46-4.57-3.17-1.63-4.78-2.34-8-3.52,6.69,8.48,10.08,19.43,7.29,30.12-2.49,9.53-3.11,16.4,4.91,17.74,8.02,1.34,11.97,5.23,14.04,15.89,2.06,10.67-1.98,17.88-12.19,19.04-13.31,1.52-22.33,11.92-22.29,25.28.05,14.37,11.37,26.02,25.56,24.62,15.11-1.48,33.54-16.96,40.18-30.61,5.91-12.14,4.24-26.24-3.46-37.36-5.36-7.75-15.81-14.04-17.43-23.77-1.54-9.25,2.14-6.83.53-11.16-.79-2.12-2.54-4.73-4.59-7.57-7.34-7.55-11.25-10.76-19.26-15.71-.15,1.81.43,4.44,1.7,7.36Z"/>
              <path class="cls-5" d="M181.31,73.7c-8.54,9.38-12.82,15.82-18.1,18.96-3.66,2.18-3.33-.84-2.46-2.96.94-2.29,3.16-5.47,5.1-5.9,3.5-.77,8.66-4.52,11.04-9.27.86-1.71,1.27-3.4.74-4.47-11.13,5.84-18.79,11.42-28.23,19.78-4.55,5.15-8.96,10.36-13.04,15.14-5.98,8.12-8.78,12.61-13.79,22.25,1.35-.85,3.07-2.31,5.01-4.25,7.5-7.51,22.45-24.9,32.56-20.22,6.98,3.23,14.4,10.24,18.31,4.32,2.61-3.95-.81-6.37,1.87-16.23,2.92-10.77,17.5-17.16,19.63-7.07,2.13,10.09-2.43,17.78.87,22.37,4.39,6.1,13.76,3.93,18.97-4.36,6.5-10.34,3.81-25.63-5.24-34.55-9.77-2.75-14.7-3-24.36-1.12-3.19,1.99-6.24,4.65-8.9,7.57Z"/>
              <path class="cls-5" d="M186.5,323.54c7.33,4.28,14.28,1.33,17.11-1.05,2.82-2.38,3.25-5.55-1.75-4.16-9.05,2.53-18.31-10.7-23.82-7.38-5.52,3.31-3.4,10.48-10.1,11.47-9.07,1.33-18.61-10.29-24.31-16.11-7.71-7.88-13.12-8.9-10.18-4.05,1.35,2.23,4.87,6.12,8.74,10.27,8.92,7.6,19.15,13.65,30.21,17.55,1.22-.6,2.45-1.48,3.69-2.71,4.01-4.01,2.26-8.58,10.41-3.82Z"/>
              <path class="cls-5" d="M240.94,294.76c3.67-9.38,6.96-37.38-2.44-40.04-5.57-1.57-8.18,6.34-5.21,12.67,5.39,11.51,7.21,30.44-3.8,38.15-7.82,5.49-3.12,6.63,1.16,3.86,4.28-2.77,7.23-6.84,10.29-14.65Z"/>
              <path class="cls-5" d="M266.03,208c9.43-.87,21.49-7.76,23.1-17.43,1.31-7.82-3.38-12.48-6.71-10.38-3.32,2.1-9.76,18.12-15.36,21.9-5.6,3.78-6.41,6.41-1.04,5.91Z"/>
              <path class="cls-6" d="M209.44,235.68c-11.69,10.02-29.77,39.96-13.79,53.09,11.22,9.22,23.24-4.69,22.63-15.76-.62-11.27-2.92-19.71.8-25.61,5.08-8.05,11.66-10.34,18.11-10.45,6.56-.12,4.59-13.44-4.05-12.49-8.64.95-15.06,3.82-23.69,11.23Z"/>
              <path class="cls-5" d="M284.59,220.23c-12.2,6.96-17.85,25.99-13.81,39.5,1.58,5.27,4.86,3.26,6.47-1.88,2.72-8.74,14.54-15.94,21.59-23,.73-5.62.96-8.5,1.11-14.37-3.51-2.39-9.82-3.41-15.36-.25Z"/>
              <path class="cls-4" d="M135.37,141.2c-3.37-3.23-18.81,7.11-24.47,13.72-1.42,4.25-2.07,6.41-3.27,10.81.9,1.36,2.69,1.56,4.33.05,4.48-4.14,7.91-5.9,11.74-6.16,6.11-.41,12.6-17.54,11.68-18.43Z"/>
              <path class="cls-5" d="M271.18,118.49c-1.41-2.9-1.82-4.27-2-5.18-3.93-6.1-6.02-8.97-10.38-14.27-1.91-2.33-2.89-3.45-4.87-5.61,2.39,3.42,7.54,9.42,6.01,10.39-2.04,1.28-3.49,7.85,6.37,18.55,7.83,8.49,19.85,20.2,18.98,31.97-.58,7.82-1.24,18.2,7.34,21.66.91.37,1.73.45,2.47.33-3.67-15.78-8.87-31.4-16.21-45.89-3.42-4.66-6.26-8.94-7.72-11.94Z"/>
              <path class="cls-6" d="M186.82,109.06c-4.13-3.03-4.93-15,.38-21,5.31-6,9.51-5.05,10.28,1.41.78,6.45.53,13.71-2.49,17.59-1.92,2.47-5.29,4.12-8.17,2Z"/>
              <path class="cls-8" d="M262.73,107.59c-.93,1.39-.93,6.32,5.25,13.5,6.18,7.18,8.84,8.36,6.05,4.03-2.79-4.33-6.64-11.26-6.46-12.71.19-1.45-3.88-6.26-4.84-4.82Z"/>
              <path class="cls-10" d="M280.2,275.1c.03,3.17,2.13,4.2,5.39,2.46,4.43-8.53,6.29-13.13,9.11-22.82-6.66,3.55-14.55,14.47-14.5,20.36Z"/>
              <path class="cls-6" d="M237.65,78.79c-.9,2.34,2.2,11.74,7.14,17.82,5.93,7.3,6.94-.43,3.96-6.51-.76-1.54-1.59-2.96-2.45-4.26-3.39-3.08-5.13-4.5-8.66-7.05Z"/>
              <path class="cls-4" d="M136.82,105.83c-8.92,10.67-12.73,16.58-7.09,12.57,5.64-4.01,11.93-12.94,15.27-16.96,8.12-9.77,14.05-15.94,17.82-17.89,3.17-1.63,7.01-4.76,8.28-8.28.39-1.09.46-1.77.3-2.15-4.37,2.39-6.54,3.8-10.78,7-8.6,7.91-16.32,16.77-23.8,25.72Z"/>
              <path class="cls-4" d="M250.69,128.79c4.38,15.03-1.63,25.92-17.61,27.95-12.93,1.65-23.16,19.48-13.2,28.85,12.73,11.97,37.26.18,42.73-15.95,5.47-16.14,1.46-36.51-9.22-49.67-4.24-5.23-5.73-1.56-2.71,8.82Z"/>
              <path class="cls-5" d="M268.5,281.94c-1.15,3.62,8.72,2.67,5.29,9.06-4.75,8.85-11.59,16.38-14.11,15.18-1.45-.69,8.08-11.04,7.59-13.55-.49-2.51-4.15-3.06-2.51-7.68,1.64-4.62,4.72-6.09,3.74-3.01Z"/>
              <path class="cls-4" d="M282.2,233.62c-2.2,4.73-10.22,9.58-9.55,17.21.39,4.39,5.37-1.63,6.76-4.2,3.71-6.86,8.42-7.89,13.91-10.93,5.49-3.04,4.62-10.93.13-8.31-4.49,2.62-6.29.93-4.14-1.31s3.07-5.66-3.23-2.78c-6.3,2.88-7.91,8.48-6.78,8.37,1.13-.11,4.23-.9,2.9,1.95Z"/>
              <path class="cls-8" d="M142.85,264.98c-1.62,9.55,2.27,26.8,11.22,30.21,5.57,2.12,3.24-10,1.88-20.14-1.91-14.2.23-31.86,12.04-41.4,6.4-5.17,3.12-8.66-4.96-2.78-10.34,7.54-18.07,21.71-20.17,34.1Z"/>
              <path class="cls-8" d="M147.28,212.83c-5.35.1-8.28,2.96-5.17,8.12,3.11,5.16,10.69,3.86,11.54-.01.85-3.87-.52-8.22-6.37-8.11Z"/>
              <path class="cls-3" d="M170.85,154.69c-8.34,1.09-15.43,11.19-7.17,10.94,8.26-.24,18.51-1.79,21.07,3.94s2.64,14.33,4.91,12.97c2.27-1.36,1.56-7.06-.46-15.13-2.04-8.2-4.95-14.47-18.36-12.72Z"/>
              <path class="cls-10" d="M199.7,167.32c-2.5,8.42-2.79,22.04,2.92,28.5,3.08,3.48,8.87.41,6.84-6.16-2.03-6.57-4.73-17.83-1.75-23.2,2.97-5.37-5.56-7.36-8.01.87Z"/>
              <path class="cls-3" d="M141.11,123.42c-5.7,2.67-10,7.8-4.43,5.9,5.57-1.89,14.74.02,10.5,7.26-4.24,7.24,5.4,3.47,8.43-2.44,4.45-8.66-3.22-16-14.5-10.72Z"/>
              <path class="cls-5" d="M104.79,227.47c-3.76-11.8-.6-22.67,5.05-24.39,5.65-1.72,10.6,4.42,8.25,10.78-2.35,6.36-1.39,13.65,2.01,18.69,3.41,5.04-.29,9.01-5.43,7.32-5.14-1.69-8.07-6.73-9.88-12.4Z"/>
              <path class="cls-6" d="M122.66,271.37c4.6,8.47,7.44,16.65,2.27,13.09s-9.03-7.15-8.39-12.39c.64-5.24,4.06-4.49,6.12-.69Z"/>
              <path class="cls-5" d="M125.11,242.13c-5.09-.44-9.41,3.17-7.65,7.32,1.76,4.15,4.33,3,6.8-.25s4.22-6.77.85-7.07Z"/>
              <path class="cls-8" d="M188.09,203.24c-.27,3.2-5.2,10.88-9.99,15.28-3.09,2.84.72,5.42,4.81,2.17,5.39-4.28,10.46-4.36,15.7-6.18,3.39-1.18,1.74-4.92-1.12-5.18-3.72-.34-4.52-5.75-4.61-7.27-.17-2.93-4.42-3.31-4.79,1.18Z"/>
              <path class="cls-5" d="M135.97,177.48c.25,7.08,7.88,15.45,17.28,15.36,5.3-.05,4.32-4.97.5-6.27-3.82-1.3-11.47-7.79-13.42-12.06-1.95-4.27-4.51-1.44-4.36,2.97Z"/>
              <path class="cls-3" d="M191.63,128.3c-4.79,1.41-11.19-.5-13.69-2.58-2.49-2.08-6.72,1.62-4.04,5.19,2.67,3.57,13.37,3.34,18.56.67,3.27-1.68,3.93-4.68-.83-3.28Z"/>
              <path class="cls-5" d="M237.27,134.14c-.19-2.54-1.14-6.22-2.57-9.38-1.44-3.15,1.72-3.88,4.5.75,4.21,7.02,3.94,17.04-1.79,19.86-3.82,1.88-4.76-1.13-2.82-3.26,1.93-2.13,2.89-5.31,2.69-7.97Z"/>
              <path class="cls-9" d="M190.5,95.01c.06-2.35,1.58-5.41,3.38-6.6,1.8-1.19,3.45,5.99.81,9.94-2.64,3.94-4.3.88-4.19-3.34Z"/>
              <path class="cls-4" d="M192.64,69.73c8.62-5.91,19.26-1.22,21.76,8.33,1.98,7.55-2.33,23.09-7.52,24.4-5.18,1.31-3.26-5.69-2.2-10.1,3.04-12.61-6.82-18.22-10.71-17.14s-5.65-2.53-1.34-5.49Z"/>
              <path class="cls-8" d="M181.32,82.25c-5.01,4.24-5.39,15.64-5.01,18.59s-2.21,6.88-5.67,4.26c-3.46-2.62-5.93-4.75-2.2-12.27,2.64-5.32,8.26-12.86,12.45-14.44,4.18-1.58,2.76,1.9.43,3.87Z"/>
              <path class="cls-4" d="M155.76,91.74c-5.47,4.43-13.2,13.63-9.85,11.94,3.35-1.69,7.71-3.33,9.9-7.77,2.19-4.45,3.2-6.81-.06-4.17Z"/>
              <path class="cls-6" d="M167.35,85.37c-2.03.49-4.91,3.59-4.89,4.51.02.92,3.67-1.06,4.69-2.6,1.02-1.54,1.38-2.2.2-1.91Z"/>
              <path class="cls-6" d="M249.29,102.42c-2.84-.62-6.22,3.56-4.96,6.7,1.26,3.14,8.52,8.29,7.79,4.34s-1.25-5.82-.84-6.99c.42-1.17.22-3.56-2-4.05Z"/>
              <path class="cls-8" d="M227.96,163.37c-5.85,4.91-6.24,16.74,3.41,19.54,5.92,1.71,10.8-.16,11.67-8.38.84-8.04,2.42-14.62,7.11-13.7,4.69.92,1.1,5.24-.41,7.88-1.51,2.64-4.43,5.13-1.81,8.85,2.25,3.19,12.36-4.59,11.37-13.84-.99-9.25-7.21-9.91-11.5-7.95-4.29,1.96-16.97,5.19-19.84,7.6Z"/>
              <path class="cls-5" d="M257.59,145.13c-1.97-6.57-6.23-16.55-3.7-17.9,2.53-1.35,6.82,8.93,6.47,13.56-.35,4.64-1.98,6.98-2.77,4.33Z"/>
              <path class="cls-6" d="M270.19,161.62c1.22-4.38-2.22-18.48-6-26.26-2.6-5.35,2.13-6.08,5.28-.89,5.14,8.46,9.08,22.96,4.44,31.22-2.65,4.72-4.87.06-3.72-4.08Z"/>
              <path class="cls-8" d="M203.49,259.93c-8.21,7.04-8.01,21.15-4.94,25.05,3.31,4.21,8.89,4.6,12.03-1.4,3.14-6,2.8-14.08,1.02-20.06-1.31-4.42-4.08-7.05-8.11-3.6Z"/>
              <path class="cls-6" d="M168.16,253.81c-5.41,10.29-6.39,24.96-.6,34.86,3.67,6.28,8.87,5.36,7.03.63-4.09-10.55-5.92-24.7-2.29-35.05,1.87-5.35-.53-7.29-4.14-.44Z"/>
              <path class="cls-8" d="M263.74,219.87c-2.67,1.71-4.37,1.67-9.88,1.23-3.26-.26-3.96,4.36-1.09,6.93,4.26,3.81,4.29,9.64,1.26,12.67s-1.18,8.02,2,5.49c3.18-2.53,2.29-6.35,3.35-11.65,1.07-5.3,2.3-8.75,5.69-11.37,3.39-2.62,4.24-6.88-1.33-3.31Z"/>
              <path class="cls-5" d="M198.73,234.89c-5.69,1.61-12.59,10.41-12.8,15.38-.2,4.97,4.51,2.91,6.27-.19,1.76-3.1,2.63-7.2,6.25-9.74,3.62-2.55,4.83-6.74.28-5.45Z"/>
              <path class="cls-5" d="M180.94,262.02c-2.1,4.21-3.15,12.49-1.85,15.73,1.3,3.24,6.89,3.93,6.09-2.22-.8-6.14-1.13-7.08-.06-10.33,1.06-3.25-2.28-7-4.18-3.18Z"/>
              <path class="cls-5" d="M184.69,289.43c3.04,6.31,9.25,10.97,15.07,10.98,5.82,0,5.11-4.39,1.88-4.36-3.23.03-7.79-2.75-11.87-9.41-3.86-6.31-7.45-2.11-5.08,2.79Z"/>
              <path class="cls-8" d="M216.62,237.23c3.41-4.92,8.88-7.79,13.56-7.91,5.38-.15,4.83,4.15-1.08,5.2-4.54.81-7.79,3.68-10.07,6.31-2.28,2.63-4.7-.31-2.42-3.6Z"/>
              <path class="cls-8" d="M205.91,244.94c-3.9.85-3.28,6.21-1.05,6.82,2.23.61,6.32-1.78,5.74-4.96-.58-3.18-2.64-2.31-4.69-1.86Z"/>
              <path class="cls-4" d="M138.24,233.41c-2.85.47-3.59,7.14-2.49,8.99,1.1,1.85,3.35,1.95,4.63-1.87,1.28-3.82.36-7.54-2.14-7.12Z"/>
              <path class="cls-3" d="M108.88,214.19c.77-2.92,4.99-3.64,4.59,1.11s-.38,9.93,1.52,13.8c2.35,4.8,4.1,7.96.33,6.41-3.76-1.56-8.15-14.83-6.44-21.31Z"/>
              <path class="cls-8" d="M117.32,154.44c1.94-4.17,9.82-11.32,10.02-8.03.19,3.29-.28,6.78-4.24,9.23-3.96,2.44-7.75,3.06-5.78-1.19Z"/>
              <path class="cls-8" d="M143.55,99.01c-3.93,4.4-10.41,11.63-10.64,12.96-.23,1.33,3.8-2.12,6.84-5.95,3.03-3.82,4.64-6.18,6.63-8.47,2.77-3.18,4.52-4.8,4.25-5.59-.24-.69-4.45,4.1-7.08,7.04Z"/>
              <path class="cls-3" d="M209.95,74.55c-3.87-4.59-5.27.2-4.22,2.63,1.05,2.43,4.01,3.28,4.59,2.03.58-1.25,1.36-2.61-.37-4.66Z"/>
              <path class="cls-8" d="M246.41,91.04c-3.26-3.67-4.59-2.21-2.78,1.1,1.82,3.31,4.02,4.65,4.4,3.45.39-1.2.22-2.47-1.62-4.55Z"/>
              <path class="cls-8" d="M149.91,315.2c-4.38-3.56-11.21-12.03-12.45-11.49-1.24.54,4.26,7.06,8.52,10.89,5.05,4.54,8.05,6.14,7.61,4.42-.44-1.72-.75-1.43-3.69-3.82Z"/>
              <path class="cls-2" d="M102.12,235.88c2.01,10.86,4.15,21.33,8.42,31.59,1.1-1.45,3.16-2.8,3.88-4.32,4.1-8.63-7.12-20.59-12.29-27.27Z"/>
              <path class="cls-2" d="M176.9,74.53c-2.38,4.75-7.54,8.5-11.04,9.27-1.94.43-4.16,3.61-5.1,5.9-.87,2.12-1.21,5.14,2.46,2.96,5.28-3.14,9.56-9.59,18.1-18.96,2.66-2.92,5.71-5.58,8.9-7.57-5.03.98-7.56,1.78-12.57,3.94.52,1.06.11,2.76-.74,4.47Z"/>
              <path class="cls-2" d="M232.78,99.52c-1.52,4.97-.31,12.31,3.66,12.45,9.05.32-.5-24.88-2.47-29.43-1.27-2.92-1.85-5.55-1.7-7.36-2.1-1.3-3.16-1.9-5.29-3,.9,1.51,1.72,3.05,2.46,4.57,4.76,9.75,5.28,16.41,3.34,22.76Z"/>
              <path class="cls-3" d="M245.81,314.08c2.49-3.99,2.83-7.03-2.7-1.29-7.83,8.13-23.05,12.43-26.52,19.05-.15.29-.11.88-.12,1.28,7.98-1.65,11.91-2.97,19.42-6.47,4.25-4.61,8.16-9.76,9.92-12.58Z"/>
            </g>
            <path class="cls-4" d="M234.56,163.23c-3.52.88-4.55,3.35-2.63,5.99,1.92,2.63,4.55,1.92,5.03-.48s1.44-6.47-2.4-5.51Z"/>
            <path class="cls-7" d="M225.94,291.35c-53.77,0-102.67-55.38-97.37-128.31,1.59-21.84,6.8-42.53,14.47-60.88-20.07,25.03-35.16,61.19-38.07,101.24-5.3,72.93,43.59,128.31,97.37,128.31,38.81,0,75.61-28.89,90.71-72.35-18.06,20.06-42.16,32-67.1,32Z"/>
            <ellipse class="cls-11" cx="229.81" cy="148.73" rx="30.92" ry="39.02"/>
          </g>
        </g>
      </g>
    </g>
  </g>
</svg>