<?xml version="1.0" encoding="UTF-8"?>
<svg xmlns="http://www.w3.org/2000/svg" viewBox="0 0 400 400">
  <defs>
    <style>
      .cls-1 {
        fill: [[color_1]];
      }

      .cls-1, .cls-2, .cls-3, .cls-4, .cls-5, .cls-6, .cls-7, .cls-8, .cls-9, .cls-10, .cls-11, .cls-12 {
        stroke-width: 0px;
      }

      .cls-2 {
        fill: [[color_2]];
      }

      .cls-3 {
        fill: [[color_3]];
      }

      .cls-4 {
        fill: [[color_4]];
      }

      .cls-5 {
        fill: [[color_5]];
      }

      .cls-6 {
        fill: [[color_6]];
      }

      .cls-7 {
        fill: [[color_7]];
      }

      .cls-8 {
        fill: [[color_8]];
      }

      .cls-9 {
        fill: [[color_9]];
      }

      .cls-13 {
        isolation: isolate;
      }

      .cls-10 {
        fill: [[color_10]];
        mix-blend-mode: multiply;
      }

      .cls-11 {
        fill: [[color_11]];
      }

      .cls-12 {
        fill: [[color_12]];
        mix-blend-mode: screen;
      }
    </style>
  </defs>
  <g class="cls-13">
    <g id="_Слой_2" data-name="Слой 2">
      <g id="_Слой_1-2" data-name="Слой 1">
        <g>
          <rect class="cls-1" width="400" height="400"/>
          <g>
            <g>
              <path class="cls-11" d="M299.44,204.17c6.47,74.19-44.56,130.66-99.52,130.66s-104.94-56.39-99.52-130.66c5.58-76.45,54.88-139,99.52-139s93.01,64.4,99.52,139Z"/>
              <g>
                <path class="cls-8" d="M293.94,194.5c-1.22-.87-1.3,1.48-.93,2.32s1.02.56,1.39,0,.19-1.85-.46-2.32Z"/>
                <path class="cls-3" d="M244.43,126.57c-2.32,1.48-6.33,13.15-5.79,16.83,1.04,7.09,3.6,14.24,6.83,16.49,3.22,2.25,11.38-11.78,10.85-18.09-.53-6.31-9.58-16.72-11.9-15.23Z"/>
                <path class="cls-8" d="M235.34,103.31c-1.64,1.79.26,6.23.26,8.56s5.71,1.82,7,2.33c1.3.52,2.33-4.41,2.08-5.71-.26-1.3-7.69-6.98-9.34-5.19Z"/>
                <path class="cls-8" d="M260.5,124.32c-2.03,2.03-.26,7-.78,9.34s5.71,3.11,5.97,2.33,2.08-5.45,1.82-6.74-4.93-7-7-4.93Z"/>
                <path class="cls-5" d="M262.05,160.37c-4.22,0-4.93,8.56-4.93,9.34s0,3.63.52,7.26c.52,3.63,3.11-.26,4.41-2.08,1.3-1.82,3.11-14.53,0-14.53Z"/>
                <path class="cls-7" d="M235.43,84.67c-3.9-1.8-4.41,3.89-2.85,6.74,1.56,2.85.26,4.15,4.67,3.11s1.56-8.3-1.82-9.86Z"/>
                <path class="cls-8" d="M202.14,76.33c-2.58-.4-4.41-1.82-6.23,2.59s3.37,5.71,5.71,3.63,3.89-5.71.52-6.23Z"/>
                <path class="cls-5" d="M256.09,109.01c-2.67-1.42-4.41.52-1.82,4.93s5.45,5.97,6.23,3.37-.52-6.23-4.41-8.3Z"/>
                <path class="cls-4" d="M234.3,175.67c-2.52,3.15-2.59,2.59-2.59,7.78s4.15,8.3,6.48,5.19,4.41-6.48,3.11-10.89-5.97-3.37-7-2.08Z"/>
                <path class="cls-8" d="M262.83,208.09c-2.34-4.17-14.27,4.67-14.78,5.97s-1.56,8.82-.26,12.71c1.3,3.89,8.3.26,12.19-2.85s5.19-11.67,2.85-15.82Z"/>
                <path class="cls-4" d="M236.11,241.55c-4.55-3.64-8.04,4.41-8.04,9.6s.26,10.63,3.37,14.01c3.11,3.37,5.97,1.04,8.56-2.59,2.59-3.63,2.33-8.04.52-11.41s-1.82-7.52-4.41-9.6Z"/>
                <path class="cls-7" d="M198.76,202.13c-2.73-.39-8.3,8.82-11.67,11.41-3.37,2.59-4.93,12.19-2.08,16.6s8.82-1.04,11.67-3.37,4.93-7.78,4.15-11.93c-.78-4.15-.26-12.45-2.08-12.71Z"/>
                <path class="cls-9" d="M195.15,300.32c1.19-2.31.56-7.88-4.52-9.92-5.08-2.03-9.41-8.35-15.1-8.07-5.69.28-8.18,4.54-6.23,7s6.16,8.43,9.95,11.84c3.79,3.41,14.6,1.69,15.9-.85Z"/>
                <path class="cls-7" d="M148.7,243.63c-3.36-.92-5.97,4.41-7.26,9.08-1.3,4.67-.78,15.56,3.63,21.27,4.41,5.71,9.86,1.04,11.15-3.11s1.82-10.12,0-14.27-4.67-12.19-7.52-12.97Z"/>
                <path class="cls-4" d="M125.88,212.24c-3.54-2.07-9.86,9.86-9.86,9.86,0,0-2.33,6.48,2.59,13.49,4.93,7,7.26,4.67,9.6,1.82,2.33-2.85,5.19-9.08,4.15-13.49-1.04-4.41-3.37-9.86-6.48-11.67Z"/>
                <path class="cls-5" d="M222.63,286.69c.65,4.54-13.49,6.23-13.49,15.04s.52,16.34,4.15,15.56,11.15-3.11,14.27-9.08c3.11-5.97,1.3-14.78.26-17.9s-5.45-5.45-5.19-3.63Z"/>
                <path class="cls-9" d="M277.62,224.95c-2.46-3.28-3.63-1.56-6.74,4.41-3.11,5.97-5.97,5.97-6.48,9.08s3.11,6.23,3.63,7.78,7.78-4.41,8.82-5.71,2.33-13.49.78-15.56Z"/>
                <path class="cls-8" d="M275.8,185.27c-1.04.26-2.33,1.04-2.33,5.71s5.71,8.3,8.82,11.93c3.11,3.63,6.23-5.19,6.23-7.52s-7-5.71-8.56-7.26c-1.56-1.56-4.15-2.85-4.15-2.85Z"/>
                <path class="cls-5" d="M199.28,248.82c-7.23,1.45-7,12.19-6.48,17.64s2.85,10.63,5.19,12.71c2.33,2.08,6.74-2.85,7.26-8.56s2.33-10.89.52-13.23-3.89-9.08-6.48-8.56Z"/>
                <path class="cls-9" d="M160.9,222.62c-4.67,0-8.82-2.33-5.97,2.08,2.85,4.41,8.3,11.93,11.93,13.75,3.63,1.82,6.74-4.93,6.23-8.82s-10.12-7-12.19-7Z"/>
                <path class="cls-5" d="M125.1,258.93c-3.65-.36-3.11,2.59-3.63,7.52-.52,4.93,5.97,13.49,7.78,15.56,1.82,2.08,3.37-8.04,4.67-11.41s-6.23-11.41-8.82-11.67Z"/>
                <path class="cls-9" d="M258.67,253.95c-5.54,0-4.73,10.13-4.39,12.15.34,2.03,4.39-.68,7.09-4.05s1.01-8.1-2.7-8.1Z"/>
                <path class="cls-7" d="M126.18,159.27c-2.53,3.11-5.9,7.18-6.47,11.05s1.69,7.73,4.78,6.08c3.09-1.66,4.5-4.42,8.15-5.8s-3.09-15.47-6.47-11.32Z"/>
                <path class="cls-5" d="M106.78,202.99c-2.25,2.25.34,8.1,1.69,9.79,1.35,1.69,3.38.34,3.38-2.36s-2.03-10.46-5.06-7.43Z"/>
                <path class="cls-3" d="M241.83,291.62c.66,2.97.34,4.73,3.04,7.76,2.7,3.04,6.41-.68,6.41-4.73s-.68-7.09-3.71-8.44c-3.04-1.35-6.41,2.36-5.74,5.4Z"/>
                <path class="cls-8" d="M146.61,295.13c-4.99,1.31-8.44,5.4-2.36,8.78,6.08,3.38,9.79,3.38,10.8-2.7,1.01-6.08-2.03-7.76-8.44-6.08Z"/>
                <path class="cls-8" d="M225.59,218.51c-4.95-.62-8.44.68-7.43,6.08,1.01,5.4,1.01,10.8,4.73,11.48,3.71.68,4.05-2.36,4.73-7.09s.68-10.13-2.03-10.46Z"/>
                <path class="cls-9" d="M152.01,106.11c-4.95-.55-9.11,3.71-7.43,10.46s3.38,12.03,7.12,16.11c1.1,1.2,7.05-1.26,9.08-5.31s-2.7-20.59-8.78-21.26Z"/>
                <path class="cls-3" d="M203.65,96.66c-1.37-2.35-7.43,2.7-6.08,10.8s3.71,8.1,6.08,5.06,4.73,1.35,5.4-4.05-3.04-7.76-5.4-11.81Z"/>
                <path class="cls-8" d="M207.7,156.07c-9.82,1.45-12.83,10.8-8.44,18.9,4.39,8.1,13.04,18.53,14.18,12.15.55-3.08,5.4-9.11,2.03-13.84-3.38-4.73,1.35-18.56-7.76-17.21Z"/>
                <path class="cls-5" d="M164.5,175.64c-6.37,0-8.78,7.09-7.43,13.5s1.01,7.76,3.04,10.46,4.39-3.71,6.75-7.76,1.69-16.2-2.36-16.2Z"/>
                <path class="cls-8" d="M140.2,186.78c-3.04-1.01-8.78,6.08-5.74,11.81,3.04,5.74,2.36,19.24,6.08,13.84,3.71-5.4,5.74-7.76,5.06-12.49-.68-4.73-4.39-12.83-5.4-13.16Z"/>
                <path class="cls-2" d="M235.72,201.97c-4.26.33-5.74,0-3.71,4.39,2.03,4.39,4.73,4.39,5.06,3.38s3.04-8.1-1.35-7.76Z"/>
                <path class="cls-8" d="M214.79,116.91c-3.71,5.06-8.78,10.13-8.44,13.16s5.76,13.26,8.78,15.53c4.05,3.04,11.81-5.74,13.84-8.78.9-1.35.62-12-1.69-15.53-2.9-4.42-8.78-9.45-12.49-4.39Z"/>
                <path class="cls-3" d="M166.19,142.57c-4.12-8.25-9.49,4.04-11.52,10.45-2.03,6.41,2.41,16.89,8.48,14.86s8.78-5.06,8.78-10.8-4.39-11.81-5.74-14.51Z"/>
                <path class="cls-8" d="M177.4,90.03c-2.59,4.91-6.59,5.75-3.69,9.25s6.33,10.76,10.28,7.75c3.95-3,3.69-10.26,2.64-11.26-1.05-1-8.17-7.75-9.22-5.75Z"/>
                <path class="cls-8" d="M185.09,135.82c-2.49,3.23-6.41,4.39-2.7,11.81,3.71,7.43,9.45,1.01,10.13-2.7s-4.05-13.5-7.43-9.11Z"/>
                <path class="cls-8" d="M132.77,135.82c-.85.54-4.05,5.74-2.36,8.44s5.5,7.16,7.43,6.41,1.35-3.71,3.04-7.43c1.69-3.71-4.39-9.79-8.1-7.43Z"/>
                <path class="cls-8" d="M260.7,190.16c-2.7-2.03-7.76,3.38-7.09,5.74s4.73,1.01,7.76-.34,2.03-3.38-.68-5.4Z"/>
                <path class="cls-5" d="M286.01,212.44c-4.49,3.37.68,7.76,2.36,12.15s7.09,2.7,6.41-3.38-6.08-10.8-8.78-8.78Z"/>
                <path class="cls-8" d="M180.7,184.76c-2.43,5.21-1.35,8.44.68,10.46,2.03,2.03,6.08-3.38,8.44-6.08,2.36-2.7-6.75-9.45-9.11-4.39Z"/>
                <path class="cls-8" d="M184.08,321.12c-1.69-2.36,5.06-10.8,10.46-4.73,5.4,6.08,8.44,11.48,4.39,12.83-4.05,1.35-13.16-5.74-14.85-8.1Z"/>
                <path class="cls-4" d="M165.51,312.69c-4.05.34-4.39,2.03-3.04,3.71,1.35,1.69,3.71-1.01,4.73,4.05,1.01,5.06,5.4,8.44,6.75,3.04s-1.69-9.11-4.05-10.46c-2.36-1.35-4.39-.34-4.39-.34Z"/>
                <path class="cls-8" d="M238.76,310.66c-3.33-.55-11.14,3.38-11.14,5.74s3.04,4.73,3.04,4.73c0,0,3.38-2.36,4.39-1.69,1.01.68,7.43.34,7.09-2.7s2.7-5.06-3.38-6.08Z"/>
                <path class="cls-8" d="M174.96,251.59c-.72,3.99-5.74,1.01-6.08,4.73s.34,5.4.34,7.09,1.35,3.38,3.71,2.03c2.36-1.35,1.35-3.38,6.08-4.05,4.73-.68,5.74-2.36,5.4-4.05s0-4.73-1.01-6.75-7.76-2.7-8.44,1.01Z"/>
                <path class="cls-8" d="M113.19,244.5s-3.04,2.7-3.04,3.71,1.69,5.4,1.69,5.4c0,0,1.01.34,2.7-1.35s3.38-4.05,3.38-4.05c0,0-1.01-4.39-4.73-3.71Z"/>
                <path class="cls-5" d="M114.58,152.67c-1.02-1.53,3.15-5.24,2.88-6.81s4.46,1.31,4.72,2.36,0,3.41-3.41,4.98c-3.41,1.57-3.67.26-4.19-.52Z"/>
                <path class="cls-7" d="M276.53,278.11c-2.85-5.19-6.48-5.45-8.82-3.37-5.63,5-.78,12.97-3.37,16.08-2.59,3.11-1.82,8.3,0,10.12.8.8,2.84.64,5.04-.06,3.06-3.51,5.94-7.26,8.62-11.22.45-3.93.21-8.49-1.46-11.54Z"/>
                <path class="cls-5" d="M294.01,252.6c-.34-5.74.61-8.82-.34-12.15-.94-3.33-10.46,1.35-10.46,7.76s-.34,15.86,0,18.23c.2,1.39,3.56,1.84,6.29,1.77,1.72-4.14,3.25-8.43,4.55-12.85.02-.95,0-1.88-.04-2.76Z"/>
                <path class="cls-3" d="M283.43,143.75c-2.43-.81-5.31,3.86-7.24,7s-.24,10.13,1.93,13.99c2.17,3.86,6.03,4.1,7.48,1.45,1.14-2.09,2.73-7.78,3.23-10.68-1.01-3.01-2.08-5.98-3.22-8.9-.85-1.5-1.67-2.68-2.19-2.86Z"/>
                <path class="cls-3" d="M131.52,126.2c2.36-1.57,3.41-4.46,4.72-9.44.87-3.3-.91-5.45-2.9-7.52-3,4.31-5.87,8.88-8.56,13.67.4.62.81,1.11.98,1.45.52,1.05,3.41,3.41,5.77,1.83Z"/>
                <path class="cls-5" d="M109.24,189.1c0-1.31-.79-9.44-.79-15.99,0-3.44-.22-6.29-.73-8.92-2.53,8.94-4.5,18.26-5.79,27.84.66-.17,1.36-.31,2.07-.31,3.41,0,5.24-1.31,5.24-2.62Z"/>
                <path class="cls-4" d="M151.7,95.01c2.1.52,4.98,3.93,8.12,1.83,3.15-2.1,6.03-3.93,4.46-7.86-1.23-3.07-.87-7.87-3.14-9.22-4.49,3.35-8.89,7.23-13.12,11.58,1.26,1.92,2.73,3.43,3.68,3.67Z"/>
                <path class="cls-8" d="M189.28,68.8c-3.93.52-4.46.79-6.03,3.41s2.1,2.62,3.67,1.83,2.36-5.24,2.36-5.24Z"/>
                <path class="cls-8" d="M222.56,72.21c-1.11-.74-2.1-1.83-2.36,1.31-.26,3.15,1.83,3.93,3.15,3.67,1.31-.26,0-4.46-.79-4.98Z"/>
                <path class="cls-9" d="M141.79,233.6c-1.7-2.54-3.41,2.1-3.41,3.67s2.88,1.57,3.67.26.26-3.15-.26-3.93Z"/>
                <path class="cls-6" d="M229.66,272.21c-3.98.76.8,6.99.8,6.99,0,0,1.19,1.82,1.99-.61s3.58-7.59-2.79-6.38Z"/>
                <path class="cls-8" d="M272.89,256.46c-4.46.26-4.72,0-4.72,2.1s4.98,3.93,5.77,4.98,3.41-2.1,2.88-4.46c-.52-2.36-3.93-2.62-3.93-2.62Z"/>
                <path class="cls-3" d="M114.11,183.98c-1.01,4.35-1.34,4.52.68,5.12,2.01.59,5.18-3.66,6.41-4.12s-1.05-3.86-3.46-4.03c-2.41-.17-3.63,3.03-3.63,3.03Z"/>
                <path class="cls-5" d="M293.59,180.45c-.59-.59-3.41,3.67-3.41,4.98s0,3.93,1.31,2.88c1.31-1.05,2.1-1.31,2.62-2.88.52-1.57.26-4.19-.52-4.98Z"/>
                <path class="cls-8" d="M231.48,157.91c-1.22-.49-2.36,1.05-2.36,2.36s5.24,1.31,6.03.52-2.36-2.36-3.67-2.88Z"/>
                <path class="cls-8" d="M170.24,205.71c-.39-1.57-2.5.37-2.5,1.76s1.3.74,1.48,1.39,2.04-.74,2.04-1.48-.83-.93-1.02-1.67Z"/>
                <path class="cls-8" d="M151.62,193.29c-1.11,0-1.67-.46-1.67.93s.19,1.58.19,2.22,3.34.37,4.08-.46-2.59-2.69-2.59-2.69Z"/>
                <path class="cls-9" d="M127.82,192.4c-1.44-3.92-4.8,0-4.8,1.84s.87,2.5,1.45,3.15,2.76-.39,2.91-1.31.87-2.5.44-3.68Z"/>
                <path class="cls-5" d="M144.76,164.56c-1.13,0-1.48.83-1.48,1.95s.37,3.15.56,3.52,2.22-.56,2.59-1.39-1.02-4.08-1.67-4.08Z"/>
                <path class="cls-7" d="M187.1,167.07c-.81-.2-1.85-.46-1.95.65s-.09,1.76.09,2.32,3.24-.46,3.43-.83-.83-1.95-1.58-2.13Z"/>
                <path class="cls-2" d="M215.83,195.88c-.65,1.3.37,3.43,1.02,2.87s1.95-2.5,1.95-2.5c0,0,2.41.65,2.69.37s1.3-1.95,1.2-2.97.83-3.89-1.67-3.71c-2.5.19-2.87-.56-3.43.74-.56,1.3-1.11,3.89-1.76,5.19Z"/>
                <path class="cls-8" d="M212.22,216.27c-.79,0-1.58,3.89-1.11,4.73s1.3,0,1.76-.74,2.04-1.02,1.02-2.13-.56-1.85-1.67-1.85Z"/>
                <path class="cls-5" d="M215.92,247.87c-1.39,0-2.22.28-1.58,2.13.65,1.85,2.04,2.5,2.04,2.5,0,0,.09-1.76,1.2-2.22,1.11-.46.09-2.41-1.67-2.41Z"/>
                <path class="cls-8" d="M255.95,242.4c-1.4-.51-2.78.28-3.52.28s-.37,1.39.93,1.95,3.61.28,3.61-.46,0-1.39-1.02-1.76Z"/>
                <path class="cls-5" d="M164.68,283.08c-2.11-.3-2.13,2.78-1.11,4.26,1.02,1.48,2.97.09,2.87-.83s-.46-3.24-1.76-3.43Z"/>
                <path class="cls-8" d="M152.45,278.63c-.38.12-.56,1.11.19,1.67s1.76.74,1.76-.09-.74-1.95-1.95-1.58Z"/>
                <path class="cls-8" d="M161.72,270.01c-.75-.05-1.58,1.67-1.58,2.59s.83,1.67,1.11,1.67,1.3-.37,1.39-1.11.46-3.06-.93-3.15Z"/>
                <path class="cls-5" d="M171.54,271.13c-.53.18-1.95.83-1.39,1.67s1.76,2.41,2.59,2.13,1.76-.56,1.95-1.95-2.04-2.22-3.15-1.85Z"/>
                <path class="cls-8" d="M191.74,305.87c0,1.72-.56,2.04.56,2.59s2.69.83,2.5-.56.83-1.39-.19-2.59-2.87-.28-2.87.56Z"/>
                <path class="cls-8" d="M128.36,291.97c-2.26-1.61-1.2-3.89-.09-3.52,1.11.37,1.58,1.2,2.32,2.32s2.04,2.69.65,3.06-2.22-1.39-2.87-1.85Z"/>
                <path class="cls-8" d="M122.15,284.47s-1.02.83-.56,1.67,1.85,2.41,2.13.83-.28-2.22-1.58-2.5Z"/>
                <path class="cls-8" d="M217.5,284.56c-.5-2.24-3.52,1.02-1.58,2.32s3.52.74,3.43,0-1.48-.65-1.85-2.32Z"/>
                <path class="cls-9" d="M231.95,298.83c-.83,1.2-.65,2.97.19,3.43s2.59.09,2.59-1.11-1.95-3.52-2.78-2.32Z"/>
                <path class="cls-9" d="M234.41,288.18c-1.15,1.86-.89,4.59.26,5.31s3.57.14,3.57-1.72-2.68-5.45-3.83-3.58Z"/>
                <path class="cls-8" d="M243.72,302.17c-1.16.06-1.11,1.2-.65,1.95s2.04.74,2.87.19-.37-2.22-2.22-2.13Z"/>
                <path class="cls-8" d="M255.95,277.98c-.35-.76-1.2.46-1.02,1.95s1.48,2.5,2.13,1.2-.65-2.13-1.11-3.15Z"/>
                <path class="cls-5" d="M259.84,305.04c-.58-2.62-2.5-2.59-4.36.83s-2.5,4.82-2.13,4.91,1.95-.93,2.97-1.2,3.61,0,4.26-1.48-.37-1.39-.74-3.06Z"/>
                <path class="cls-8" d="M287.83,233.41c-1.97-.56-1.3,1.76-1.02,2.41s2.5.56,2.78,0-.46-2.04-1.76-2.41Z"/>
                <path class="cls-3" d="M279.23,207.97c-3.48-1.28-2.84,3.24-1.81,4.32s3.1.15,3.22-.77.26-2.93-1.42-3.55Z"/>
                <path class="cls-4" d="M139.91,284.27c-3.48-1.28-2.84,3.24-1.81,4.32s3.1.15,3.22-.77.26-2.93-1.42-3.55Z"/>
                <path class="cls-5" d="M262.07,203.11c-.92.25-.19,1.58.19,2.04s1.02.09,1.2-.65-.37-1.67-1.39-1.39Z"/>
                <path class="cls-8" d="M244.18,222.85c.6.45.93.83.56,1.85s-.93,2.04-1.48.93-1.2-2.32-.83-2.69,1.39-.37,1.76-.09Z"/>
                <path class="cls-8" d="M233.9,233.69c-1.08-.43-1.02.83-.46,1.39s1.95.28,1.85-.28-.93-.93-1.39-1.11Z"/>
                <path class="cls-8" d="M250.39,160.67c-.53.27-.65,1.2-.28,2.22s2.5-.09,2.5-1.02-.37-2.13-2.22-1.2Z"/>
                <path class="cls-8" d="M266.7,145.29c-.86-.17-1.67.56-2.41,1.76-.74,1.2-1.95.56-1.85,2.04s2.32,1.58,3.06.74,1.85-1.48,1.95-2.5-.28-1.95-.74-2.04Z"/>
                <path class="cls-8" d="M266.42,151.13c-.75.41-1.11,1.3,0,2.04s2.32.28,2.04-.74-.83-1.95-2.04-1.3Z"/>
                <path class="cls-8" d="M202.95,122.03c-1.82-.26-2.32,1.95-1.2,3.43s2.59-.19,2.59-1.02-.74-2.32-1.39-2.41Z"/>
                <path class="cls-6" d="M201.28,139.17c-1.44,0-1.95,1.2-1.3,2.5s1.2,1.76,1.67.93.28-3.43-.37-3.43Z"/>
                <path class="cls-2" d="M172.46,128.06c-1.48.15-1.85.65-1.11,1.85s.09,4.17,1.67,2.32c1.58-1.85,1.67-2.41,1.58-2.97s-1.2-1.3-2.13-1.2Z"/>
                <path class="cls-8" d="M167.37,103.87c-2.31-.51-.65,2.87-.28,3.52s1.95-.46,1.95-1.3-.83-2.04-1.67-2.22Z"/>
                <path class="cls-8" d="M220.74,92.66c-.62-1.03-1.48-.37-1.3,1.11s1.11,1.85,1.58,1.3.28-1.48-.28-2.41Z"/>
                <path class="cls-6" d="M224.17,97.38c-1.32-1.32-1.2-.28-2.13,1.48-.93,1.76-2.13,3.89-.65,2.97s2.32-.83,2.69-1.76.74-2.04.09-2.69Z"/>
                <path class="cls-4" d="M224.35,102.94c-1.6-.11-2.22.83-1.76,2.04s1.76,2.04,1.95.74,1.11-2.69-.19-2.78Z"/>
                <path class="cls-8" d="M214.35,102.76c-1.54-.31-1.95,1.67-2.22,3.06s.37,3.34,1.67,2.22,2.13-2.32,2.69-3.24-1.2-1.85-2.13-2.04Z"/>
                <path class="cls-8" d="M248.73,98.96c-1.25-1.4-2.13.09-2.04,1.11s1.95,1.2,2.22,1.02.56-1.3-.19-2.13Z"/>
                <path class="cls-8" d="M244.83,119.81c-1.7.3-.93.65-.19,1.67s2.41,1.3,2.22-.28.09-1.76-2.04-1.39Z"/>
                <path class="cls-3" d="M230.4,115c-3.12.54-1.7,1.19-.34,3.06s4.42,2.38,4.08-.51c-.34-2.89.17-3.23-3.74-2.55Z"/>
                <path class="cls-5" d="M211.94,69.03c-2.14-.31-2.59,1.2-2.5,2.04s1.02,1.76,2.32,1.67c1.3-.09,2.59-.65,2.13-1.95s-1.3-1.67-1.95-1.76Z"/>
                <path class="cls-6" d="M198.13,69.68c-1.28-.09-1.48,1.11-.65,1.76s2.78.28,2.78-.37-.83-1.3-2.13-1.39Z"/>
                <path class="cls-8" d="M189.46,78.46c-.72.09-.82,1.07-.48,1.41s.78-.19.87-.58.82-.97-.39-.82Z"/>
                <path class="cls-8" d="M174.19,76.28c-1.24-.69-1.94,1.02-1.74,1.36s.78-.05,1.41-.05,1.21-.82.34-1.31Z"/>
                <path class="cls-8" d="M177.92,78.31c-.47.1-.29.82-.05.97s.78-.1.78-.39.19-.78-.73-.58Z"/>
                <path class="cls-6" d="M179.62,81.51c-1.74-.41-1.36,1.45-1.07,2.04s1.55.87,1.84.24.24-2.04-.78-2.28Z"/>
                <path class="cls-8" d="M182.82,84.42c-.63.34-.53.44-.29.92s.19.58.34,1.16.24.39.97.05,1.5-.39.97-1.21-1.26-1.31-1.99-.92Z"/>
                <path class="cls-4" d="M189.6,86.46c0,1.3-.87.73-1.36,1.55s-1.6,1.65-.63,2.52,2.76,1.11,3.73.78c.97-.34,2.13.15,1.45-2.57s-3.2-2.91-3.2-2.28Z"/>
                <path class="cls-4" d="M279.58,269.32c-1.01-1.77-2.43.66-2.88,1.99s.22,4.64,1.77,2.43c1.55-2.21,1.99-2.88,1.11-4.42Z"/>
                <path class="cls-9" d="M172.09,83.78c-1.24.35-1.79.64-1.93,1.5s.36,1.43.79,1.36,1.57-.21,1.71-1.36.43-1.79-.57-1.5Z"/>
                <path class="cls-5" d="M148.65,99.72c-1.11-.19-3.22,1.21-3.93,1.86s-2.36,1.07-1.93,2.22,2.36.07,2.86.07,2.86-.21,3.14-1.07.64-2.14.64-2.64.07-.29-.79-.43Z"/>
                <path class="cls-8" d="M139.58,120.51c.27-2.41-2.86,1.93-2.72,3.07s1.14,1.64,1.29,1.07,1.29-2.86,1.43-4.14Z"/>
                <path class="cls-5" d="M131.29,130.23c-.53-1.2-2,1.07-2,2s1.5,1.43,1.5,1.43c0,0,.21-.71.79-1.57s0-1.21-.29-1.86Z"/>
                <path class="cls-5" d="M151.15,147.16c-.25-2.01-2.29-.43-2.72.86s-1.07,1.86-.79,2.57,2.86,0,2.86,0c0,0,.71-2.86.64-3.43Z"/>
                <path class="cls-5" d="M140.36,107.72c-.87-.61-1.57,1.86-1.14,2.93s1.64,1.64,1.64.36.21-2.79-.5-3.29Z"/>
                <path class="cls-5" d="M210.67,96.29c-.76-1.1-1.64.5-1.29,1.79s1.07,2.36,1.57.93.36-1.79-.29-2.72Z"/>
                <path class="cls-3" d="M224.89,111.15c-1.76-1.98-4.43,1.29-4.43,2.14s1.64,1.5,2.07,1.57,2-.71,2-1.36.93-1.71.36-2.36Z"/>
                <path class="cls-9" d="M162.08,130.09c-.81-.3-1.5.57-1.5,1.5s1.71,1.79,2,2.07.93-1,1.14-1.64-.86-1.64-1.64-1.93Z"/>
                <path class="cls-5" d="M169.23,139.09c-.32-.32-1.5,1.36-1.71,2s.14,1.07.57,1.43,1.29-.71,1.29-1.29.57-1.43-.14-2.14Z"/>
                <path class="cls-8" d="M175.01,168.83c-1.33.33-2.07,1.5-1.86,2.64s1.5,2.79,2.5,3.72,1.64.21,2-1.71-1.5-4.93-2.64-4.64Z"/>
              </g>
            </g>
            <path class="cls-10" d="M222.82,292.25c-53.77,0-102.67-55.38-97.37-128.31,1.59-21.84,6.8-42.53,14.47-60.88-20.07,25.03-35.16,61.19-38.07,101.24-5.3,72.93,43.59,128.31,97.37,128.31,38.81,0,75.61-28.89,90.71-72.35-18.06,20.06-42.16,32-67.1,32Z"/>
            <ellipse class="cls-12" cx="235.45" cy="158.08" rx="30.92" ry="39.02"/>
          </g>
        </g>
      </g>
    </g>
  </g>
</svg>