<?xml version="1.0" encoding="UTF-8"?>
<svg xmlns="http://www.w3.org/2000/svg" viewBox="0 0 400 400">
  <defs>
    <style>
      .cls-1 {
        fill: #1e122b;
      }

      .cls-1, .cls-2, .cls-3, .cls-4, .cls-5, .cls-6, .cls-7, .cls-8, .cls-9, .cls-10, .cls-11, .cls-12, .cls-13, .cls-14, .cls-15 {
        stroke-width: 0px;
      }

      .cls-2 {
        fill: #73516b;
      }

      .cls-3 {
        fill: #7b6425;
      }

      .cls-4 {
        fill: #506e81;
      }

      .cls-5 {
        fill: #69403c;
      }

      .cls-6 {
        fill: #a18b51;
      }

      .cls-7 {
        fill: #364562;
      }

      .cls-8 {
        fill: #fbd69f;
      }

      .cls-9 {
        fill: #c8ac64;
      }

      .cls-10 {
        fill: #3c6f61;
      }

      .cls-16 {
        isolation: isolate;
      }

      .cls-11 {
        fill: #d1d2d4;
        mix-blend-mode: multiply;
      }

      .cls-12 {
        fill: #2d5449;
      }

      .cls-13 {
        fill: #8d3e51;
      }

      .cls-14 {
        fill: #645019;
      }

      .cls-15 {
        fill: #332d1b;
        mix-blend-mode: screen;
      }
    </style>
  </defs>
  <g class="cls-16">
    <g id="_Слой_2" data-name="Слой 2">
      <g id="_Слой_1-2" data-name="Слой 1">
        <g>
          <rect class="cls-1" width="400" height="400"/>
          <g>
            <g>
              <path class="cls-6" d="M299.44,204.17c6.47,74.19-44.56,130.66-99.52,130.66s-104.94-56.39-99.52-130.66c5.58-76.45,54.88-139,99.52-139s93.01,64.4,99.52,139Z"/>
              <g>
                <g>
                  <path class="cls-6" d="M263.4,260.96c-2.99-4.44-4.64-6.83-8.15-11.88-4.39,5.91-6.62,8.88-11.04,14.77,3.39,4.94,4.98,7.27,7.85,11.6,4.53-5.78,6.81-8.7,11.34-14.49Z"/>
                  <path class="cls-6" d="M254.52,248.02c-3.54-5.1-5.44-7.79-9.36-13.41-4.25,6.04-6.42,9.08-10.75,15.09,3.83,5.49,5.67,8.13,9.1,13.11,4.42-5.9,6.64-8.88,11.02-14.8Z"/>
                  <path class="cls-6" d="M242.59,264.04c-3.42-4.97-5.26-7.61-9.08-13.08-4.33,6.01-6.51,9-10.78,14.87,3.76,5.37,5.56,7.95,8.91,12.82,4.33-5.77,6.54-8.71,10.95-14.6Z"/>
                  <path class="cls-6" d="M221.06,265.93c-3.79-5.4-5.78-8.21-9.86-14-4.23,5.97-6.33,8.91-10.41,14.62,4.08,5.68,6.06,8.45,9.82,13.75,4.08-5.61,6.19-8.5,10.45-14.37Z"/>
                  <path class="cls-12" d="M232.71,249.82c-3.85-5.52-5.87-8.4-9.99-14.31-4.26,6.14-6.41,9.19-10.65,15.18,4.08,5.8,6.08,8.62,9.87,14.03,4.27-5.88,6.45-8.88,10.77-14.89Z"/>
                  <path class="cls-8" d="M240.33,138.69c4.34,6.02,6.56,9.06,11.03,15.08,2.95-4.89,4.31-7.2,6.76-11.5-4.54-5.96-6.79-8.96-11.18-14.93-2.39,4.24-3.72,6.52-6.61,11.35Z"/>
                  <path class="cls-6" d="M210.34,250.72c-4.1-5.82-6.24-8.82-10.48-14.92-4.19,6.1-6.3,9.1-10.36,14.92,4.24,5.98,6.35,8.93,10.43,14.64,4.06-5.71,6.18-8.66,10.41-14.64Z"/>
                  <path class="cls-6" d="M263.85,172.22c-3.07,5.01-4.73,7.66-8.21,13.16,4.41,5.97,6.61,8.93,10.91,14.69,3.57-5.58,5.28-8.26,8.46-13.35-4.41-5.68-6.66-8.6-11.16-14.5Z"/>
                  <path class="cls-5" d="M275.5,245.38c-3.17-4.57-4.91-7.03-8.59-12.22-4.2,5.82-6.37,8.77-10.74,14.68,3.52,5.06,5.17,7.46,8.17,11.91,4.52-5.79,6.77-8.68,11.15-14.37Z"/>
                  <path class="cls-6" d="M266.7,202.43c-3.61,5.62-5.52,8.7-9.5,14.66,4.1,5.77,6.08,8.54,9.81,13.78,4.16-5.82,6.18-8.71,10.01-14.35-3.94-5.38-6.04-8.34-10.31-14.09Z"/>
                  <path class="cls-6" d="M259.07,143.51c-2.46,4.31-3.83,6.62-6.78,11.52,4.48,6.02,6.75,9.02,11.26,14.93,3.03-4.96,4.44-7.31,6.98-11.69-4.6-5.84-6.91-8.81-11.46-14.76Z"/>
                  <path class="cls-6" d="M157.41,168.79c3.44,5.48,5.26,8.33,9.04,14.2,4.32-6.17,6.48-9.26,10.71-15.4-3.73-5.8-5.52-8.62-8.89-14.03-4.28,6.08-6.47,9.14-10.86,15.23Z"/>
                  <path class="cls-6" d="M136.51,170.83c3.09,5.02,4.75,7.68,8.26,13.2,4.39-5.99,6.62-9.03,11.02-15.11-3.41-5.44-5.03-8.06-8.03-13.01-4.48,6.01-6.75,9.01-11.25,14.92Z"/>
                  <path class="cls-6" d="M144.49,246.76c3.53-5.1,5.42-7.8,9.32-13.42-4.26-6.05-6.37-9.07-10.42-15.04-4.04,5.75-6,8.52-9.68,13.74,4.22,5.84,6.4,8.8,10.78,14.72Z"/>
                  <path class="cls-13" d="M145.5,185.18c3.54,5.56,5.4,8.46,9.27,14.42,4.29-6.08,6.47-9.17,10.79-15.33-3.79-5.88-5.61-8.74-9.06-14.22-4.39,6.09-6.61,9.13-11,15.13Z"/>
                  <path class="cls-6" d="M143.39,215.86c4.08-5.8,6.21-8.92,10.49-14.99-3.87-5.96-5.75-8.87-9.29-14.44-4.38,5.99-6.56,8.95-10.81,14.75,3.66,5.66,5.59,8.71,9.61,14.68Z"/>
                  <path class="cls-6" d="M177.2,265.83c-4.28-5.87-6.46-8.87-10.8-14.88-3.8,5.48-5.62,8.11-9.03,13.07,4.42,5.9,6.63,8.84,10.95,14.61,3.34-4.86,5.14-7.44,8.88-12.81Z"/>
                  <path class="cls-6" d="M187.78,250.69c-4.25-5.99-6.41-9.04-10.68-15.19-4.08,5.92-6.08,8.8-9.91,14.31,4.34,6.02,6.52,9.02,10.79,14.9,3.77-5.4,5.75-8.23,9.8-14.02Z"/>
                  <path class="cls-7" d="M199.18,296.07c-3.76-5.21-5.73-7.93-9.79-13.51-3.72,5.26-5.5,7.78-8.8,12.54,4.07,5.5,6.04,8.18,9.79,13.32,3.29-4.69,5.07-7.18,8.8-12.36Z"/>
                  <path class="cls-6" d="M147.92,275.42c2.86-4.32,4.45-6.65,7.83-11.58-4.43-5.9-6.67-8.87-11.07-14.78-3.48,5.05-5.12,7.43-8.1,11.87,4.54,5.8,6.83,8.71,11.35,14.5Z"/>
                  <path class="cls-6" d="M199.09,266.55c-4.08-5.7-6.19-8.64-10.43-14.62-4.05,5.79-6.03,8.61-9.8,14,4.26,5.87,6.37,8.76,10.45,14.37,3.75-5.3,5.73-8.07,9.77-13.75Z"/>
                  <path class="cls-6" d="M141.05,286.12c2.19-3.56,3.46-5.54,6.28-9.81-4.53-5.78-6.83-8.69-11.37-14.48-2.93,4.38-4.27,6.41-6.58,10.08,4.69,5.67,7.04,8.53,11.67,14.2Z"/>
                  <path class="cls-6" d="M128.84,158.08c2.56,4.38,3.98,6.74,7.03,11.71,4.51-5.9,6.78-8.9,11.27-14.9-2.96-4.9-4.32-7.22-6.79-11.52-4.58,5.93-6.9,8.89-11.52,14.71Z"/>
                  <path class="cls-10" d="M135.63,259.71c2.99-4.44,4.64-6.84,8.13-11.89-4.4-5.91-6.58-8.87-10.81-14.69-3.65,5.18-5.37,7.64-8.52,12.2,4.41,5.7,6.67,8.59,11.2,14.38Z"/>
                  <path class="cls-6" d="M133.03,200.01c4.26-5.79,6.44-8.75,10.83-14.73-3.51-5.53-5.18-8.19-8.28-13.22-4.5,5.9-6.74,8.81-11.13,14.51,3.22,5.12,4.95,7.82,8.58,13.44Z"/>
                  <path class="cls-6" d="M132.83,230.83c3.7-5.24,5.66-8.01,9.72-13.77-4.03-5.96-5.97-9.02-9.64-14.68-4.23,5.78-6.3,8.71-10.2,14.09,3.88,5.65,5.93,8.54,10.12,14.37Z"/>
                  <path class="cls-6" d="M188.54,281.4c-4.08-5.6-6.19-8.49-10.46-14.35-3.74,5.36-5.54,7.93-8.87,12.79,4.31,5.76,6.43,8.6,10.52,14.12,3.3-4.77,5.08-7.3,8.8-12.56Z"/>
                  <path class="cls-6" d="M159.43,291.83c-4.39-5.66-6.64-8.54-11.16-14.32-2.81,4.26-4.08,6.23-6.26,9.79,4.62,5.67,6.91,8.5,11.36,14.08,2.1-3.46,3.33-5.38,6.06-9.54Z"/>
                  <path class="cls-6" d="M179.06,294.95c-4.09-5.51-6.22-8.35-10.53-14.1-3.3,4.81-4.84,7.08-7.61,11.29,4.37,5.66,6.51,8.45,10.63,13.89,2.73-4.12,4.25-6.36,7.51-11.08Z"/>
                  <path class="cls-12" d="M167.63,279.65c-4.33-5.77-6.54-8.7-10.97-14.59-3.37,4.92-4.95,7.25-7.81,11.56,4.52,5.78,6.77,8.67,11.15,14.34,2.78-4.22,4.32-6.49,7.62-11.31Z"/>
                  <path class="cls-6" d="M148.69,154.66c2.99,4.94,4.6,7.55,8.01,12.99,4.4-6.09,6.59-9.15,10.88-15.22-3.34-5.37-4.92-7.95-7.83-12.83-4.35,6.01-6.58,9.04-11.05,15.05Z"/>
                  <path class="cls-6" d="M210.96,151.16c4.05,6,6.15,9.06,10.4,15.2,3.73-5.78,5.53-8.6,8.91-13.99-4.28-6.08-6.38-9.12-10.45-15.07-3.36,5.35-5.14,8.13-8.86,13.86Z"/>
                  <path class="cls-6" d="M200.39,135.27c3.74,5.72,5.7,8.66,9.74,14.65,3.72-5.73,5.5-8.51,8.86-13.86-4.04-5.94-6.01-8.87-9.75-14.56-3.35,5.31-5.13,8.08-8.85,13.76Z"/>
                  <path class="cls-6" d="M220.52,136.19c4.07,5.95,6.17,8.98,10.45,15.06,3.35-5.36,4.94-7.93,7.86-12.8-4.32-6.02-6.44-9.03-10.53-14.94-2.89,4.82-4.45,7.37-7.78,12.68Z"/>
                  <path class="cls-4" d="M189.97,151.09c3.71,5.76,5.66,8.73,9.65,14.77,3.98-6.03,5.98-9,9.72-14.75-4.03-5.99-6.04-8.94-9.73-14.65-3.7,5.71-5.64,8.66-9.64,14.64Z"/>
                  <path class="cls-6" d="M169.17,152.3c3.37,5.4,5.16,8.22,8.88,14.02,4.22-6.13,6.3-9.18,10.32-15.17-3.69-5.74-5.45-8.53-8.78-13.88-4.06,5.94-6.16,8.97-10.43,15.03Z"/>
                  <path class="cls-6" d="M231.86,152.51c4.29,6.08,6.49,9.15,10.89,15.25,3.4-5.42,5.01-8.03,8-12.96-4.47-6.03-6.69-9.07-11.02-15.1-2.93,4.87-4.51,7.45-7.87,12.81Z"/>
                  <path class="cls-6" d="M160.65,138.37c2.91,4.87,4.48,7.45,7.82,12.81,4.28-6.06,6.38-9.09,10.44-15.02-3.29-5.31-4.84-7.86-7.69-12.68-4.1,5.89-6.23,8.89-10.56,14.89Z"/>
                  <path class="cls-6" d="M180.43,136.03c3.32,5.35,5.09,8.14,8.77,13.87,4-5.97,5.95-8.92,9.65-14.63-3.66-5.69-5.42-8.46-8.71-13.77-3.72,5.68-5.68,8.6-9.71,14.53Z"/>
                  <path class="cls-3" d="M141.31,142.14c2.46,4.29,3.82,6.61,6.77,11.5,4.48-6.01,6.71-9.03,11.07-15.04-2.88-4.83-4.2-7.11-6.58-11.34-4.42,5.94-6.69,8.93-11.26,14.87Z"/>
                  <path class="cls-6" d="M165.5,249.7c-4.34-6.02-6.52-9.06-10.8-15.1-3.9,5.61-5.78,8.3-9.3,13.4,4.39,5.92,6.62,8.9,11.05,14.81,3.42-4.98,5.24-7.61,9.05-13.1Z"/>
                  <path class="cls-6" d="M100.55,215.33c0-.83,0-1.24.01-2.08.36.51.53.77.89,1.28,3.69-4.86,5.69-7.56,9.83-12.91-3.37-5.18-4.95-7.64-7.83-12.22-.61.74-.91,1.11-1.51,1.84-1.36,9.8-1.84,15.05-1.77,24.98.21-.28.31-.41.52-.69-.06-.08-.09-.12-.15-.21Z"/>
                  <path class="cls-6" d="M176.21,234.23c-4.27-6.15-6.41-9.26-10.58-15.45-4.16,6.06-6.2,9.01-10.12,14.65,4.27,6.06,6.44,9.1,10.78,15.13,3.83-5.52,5.84-8.41,9.92-14.33Z"/>
                  <path class="cls-6" d="M102.9,241.36c-.14-.77-.21-1.15-.34-1.92.43.53.64.79,1.08,1.32,2.74-3.95,4.28-6.12,7.63-10.78-4.12-5.47-6.11-8.16-9.81-13.35-.51.68-.76,1.01-1.26,1.67.21,9.88.73,14.67,2.49,23.84.15-.22.23-.33.38-.56-.07-.08-.1-.13-.17-.21Z"/>
                  <path class="cls-6" d="M102.74,188.28c.12-.81.19-1.22.32-2.02.27.44.41.66.69,1.11,4.35-5.27,6.6-8,11.14-13.57-2.67-4.43-3.88-6.49-5.99-10.23-.66.77-.99,1.16-1.65,1.92-2.54,9.19-3.57,13.96-5.03,23.72.25-.3.37-.45.62-.75-.05-.07-.07-.11-.11-.18Z"/>
                  <path class="cls-13" d="M108.39,162.65c.22-.76.33-1.14.56-1.89.2.36.3.54.5.9,4.71-5.49,7.1-8.31,11.85-14.02-1.92-3.58-2.74-5.19-4.05-8-.68.79-1.03,1.19-1.71,1.97-3.54,8.41-5.11,12.83-7.74,21.97.27-.31.41-.47.68-.79-.03-.06-.05-.09-.08-.15Z"/>
                  <path class="cls-6" d="M119.85,286.14c-.37-.6-.55-.9-.91-1.51.49.54.74.8,1.24,1.34.65-1.88,1.19-3.06,2.67-5.82-4.85-5.53-7.29-8.29-12.12-13.71-.23.41-.34.6-.56.99,3.33,8.16,5.32,12.02,9.8,19.18.03-.1.05-.15.08-.26-.08-.09-.12-.13-.2-.22Z"/>
                  <path class="cls-6" d="M176.21,200.63c-4.06-6.19-6.05-9.23-9.86-15.14-4.32,6.17-6.49,9.26-10.77,15.35,3.89,5.99,5.92,9.18,10.06,15.39,4.18-6.1,6.32-9.35,10.58-15.59Z"/>
                  <path class="cls-6" d="M144.23,217.1c4.04,5.98,6.14,9.01,10.4,15.07,3.93-5.66,5.98-8.61,10.15-14.68-4.15-6.19-6.19-9.39-10.08-15.39-4.27,6.08-6.39,9.2-10.46,14.99Z"/>
                  <path class="cls-6" d="M134.52,301.84c4.83,5.45,7.2,8.17,11.79,13.55.44-1.65.88-2.72,2.14-5.25-4.53-5.47-6.86-8.24-11.6-13.8-1.33,2.63-1.81,3.74-2.33,5.5Z"/>
                  <path class="cls-6" d="M109.52,265.11c-.26-.69-.39-1.04-.65-1.73.47.54.71.8,1.19,1.34,1.72-2.96,2.78-4.65,5.22-8.4-4.61-5.54-6.9-8.28-11.3-13.63-.37.55-.56.82-.92,1.35,1.87,9.1,3.19,13.47,6.41,21.71.09-.16.14-.25.23-.41-.08-.09-.12-.13-.19-.22Z"/>
                  <path class="cls-7" d="M180.33,69.41c-.1.16-.15.24-.26.4,1.64,3.34,2.61,5.21,4.8,9.25,3.3-5.23,4.84-7.75,7.64-12.52-.13-.25-.2-.37-.33-.62-4.94.77-7.42,1.46-12.36,3.38.05.1.07.15.12.25.15-.06.23-.09.38-.15Z"/>
                  <path class="cls-6" d="M193.75,66.04c-.08.15-.13.22-.21.37,2.21,4.1,3.45,6.32,6.17,11.02,2.74-4.72,4.08-6.95,6.36-11.07-.17-.29-.26-.43-.43-.72-5.04-.56-7.51-.53-12.44.14.07.12.1.19.17.31.15-.02.23-.03.38-.05Z"/>
                  <path class="cls-6" d="M207.3,66.18c-.07.13-.1.19-.17.31,2.84,4.76,4.38,7.28,7.69,12.51,2.24-4.07,3.23-5.94,4.91-9.31-.2-.32-.31-.48-.51-.8-4.96-1.82-7.48-2.46-12.52-3.13.09.14.13.22.22.36.16.02.23.03.39.05Z"/>
                  <path class="cls-6" d="M220.88,69.83c-.05.1-.07.15-.13.25,3.36,5.24,5.15,7.97,8.93,13.54,1.65-3.33,2.33-4.82,3.36-7.37-.23-.34-.35-.51-.58-.85-4.81-2.97-7.26-4.21-12.22-6.13.1.16.15.24.26.4.15.06.23.09.38.15Z"/>
                  <path class="cls-6" d="M127.88,117.68c.37-.61.55-.91.93-1.52.04.16.06.24.1.41,4.84-5.67,7.23-8.54,11.86-14.26-.41-1.77-.42-2.39,0-3.01.12-.14.17-.21.29-.35-.09.11-.13.16-.22.27-5.81,7.02-8.58,10.93-13.63,19.34.28-.33.42-.49.7-.82,0-.03-.01-.04-.02-.07Z"/>
                  <path class="cls-6" d="M152.88,86.89c-.02-.09-.03-.14-.05-.23-4.59,4.18-6.84,6.5-11.14,11.54-.38.63-.36,1.23.03,2.93,4.61-5.72,6.85-8.58,11.16-14.24Z"/>
                  <path class="cls-6" d="M116.93,138.96c.3-.69.45-1.04.76-1.72.12.26.18.4.3.67,4.87-5.63,7.3-8.49,12.07-14.25-1.15-2.64-1.57-3.76-2.07-5.54-.68.8-1.03,1.2-1.71,1.99-4.37,7.45-6.39,11.43-10,19.77.28-.32.42-.48.7-.81-.02-.04-.03-.07-.05-.11Z"/>
                  <path class="cls-6" d="M154.17,85.6c-.13.17-.2.26-.33.44.38,1.61.73,2.65,1.75,5.13,4.24-5.71,6.28-8.55,10.14-14.08-.06-.15-.09-.22-.15-.37-4.81,3.15-7.19,4.98-11.8,9.08.01.05.02.07.03.12.14-.13.21-.19.36-.31Z"/>
                  <path class="cls-6" d="M167.24,184.21c3.81,5.9,5.79,8.94,9.85,15.12,4.26-6.25,6.39-9.39,10.58-15.6-4.02-6.11-5.98-9.11-9.73-14.94-4.23,6.14-6.39,9.24-10.7,15.42Z"/>
                  <path class="cls-6" d="M167.04,76.03c-.12.17-.18.26-.3.43,1.03,2.51,1.7,3.98,3.32,7.28,3.8-5.55,5.6-8.28,8.97-13.52-.1-.2-.15-.3-.24-.5-4.93,2.01-7.38,3.3-12.21,6.36.03.07.05.11.08.19.15-.09.22-.14.37-.23Z"/>
                  <path class="cls-2" d="M187.48,217.71c-4.23-6.29-6.34-9.58-10.42-15.79-4.25,6.26-6.39,9.51-10.56,15.6,4.16,6.2,6.29,9.31,10.56,15.48,4.1-5.96,6.21-9.03,10.42-15.28Z"/>
                  <path class="cls-6" d="M251.68,156.05c-2.99,4.94-4.6,7.55-8.01,12.98,4.41,6.09,6.64,9.13,11.06,15.12,3.47-5.5,5.12-8.14,8.19-13.15-4.5-5.92-6.77-8.92-11.24-14.95Z"/>
                  <path class="cls-6" d="M266.14,232.08c-3.71-5.23-5.69-8-9.77-13.75-4.01,5.97-6.09,8.99-10.33,15.03,3.94,5.62,5.84,8.32,9.39,13.43,4.37-5.92,6.53-8.87,10.71-14.71Z"/>
                  <path class="cls-6" d="M254.92,186.53c-3.51,5.54-5.36,8.43-9.19,14.36,4.33,6.05,6.49,9.19,10.62,14.99,3.97-5.97,5.86-9.04,9.46-14.65-4.29-5.77-6.49-8.72-10.89-14.7Z"/>
                  <path class="cls-6" d="M222.24,167.64c4.26,6.15,6.44,9.25,10.79,15.41,3.76-5.85,5.58-8.7,9.01-14.16-4.4-6.1-6.59-9.17-10.89-15.26-3.39,5.4-5.18,8.22-8.92,14Z"/>
                  <path class="cls-6" d="M189.39,183.72c4.04,6.12,6.12,9.24,10.33,15.52,4.15-6.28,6.26-9.4,10.3-15.51-4.24-6.21-6.37-9.3-10.38-15.36-3.99,6.05-6.07,9.14-10.24,15.35Z"/>
                  <path class="cls-6" d="M178.82,167.52c3.75,5.82,5.71,8.82,9.73,14.93,4.18-6.2,6.25-9.29,10.25-15.33-4-6.04-5.94-9.01-9.66-14.78-4.02,5.99-6.1,9.05-10.32,15.18Z"/>
                  <path class="cls-6" d="M200.46,167.12c4.06,6.05,6.15,9.14,10.39,15.35,4.01-6.09,5.98-9.09,9.73-14.9-4.25-6.14-6.34-9.2-10.39-15.21-3.75,5.76-5.7,8.73-9.73,14.76Z"/>
                  <path class="cls-9" d="M211.73,183.75c4.25,6.21,6.41,9.35,10.73,15.59,4.03-6.17,6-9.2,9.79-15.08-4.35-6.17-6.52-9.27-10.78-15.43-3.76,5.82-5.72,8.81-9.73,14.91Z"/>
                  <path class="cls-6" d="M233.94,184.33c4.36,6.16,6.55,9.24,10.89,15.31,3.82-5.93,5.67-8.81,9.17-14.35-4.41-5.99-6.64-9.04-11.04-15.13-3.44,5.47-5.25,8.32-9.02,14.17Z"/>
                  <path class="cls-7" d="M255.52,217.13c-4.11-5.79-6.26-8.94-10.59-15-3.85,5.96-5.85,9.18-9.97,15.37,4.22,6.07,6.29,9.03,10.25,14.69,4.22-6.05,6.31-9.08,10.3-15.06Z"/>
                  <path class="cls-6" d="M210.43,217.71c-4.28-6.26-6.48-9.57-10.7-15.86-4.16,6.3-6.29,9.61-10.5,15.87,4.24,6.29,6.39,9.42,10.63,15.55,4.2-6.13,6.36-9.26,10.57-15.55Z"/>
                  <path class="cls-6" d="M221.62,200.63c-4.32-6.25-6.48-9.39-10.73-15.61-4.03,6.12-6.11,9.24-10.3,15.52,4.25,6.29,6.42,9.59,10.7,15.86,4.2-6.3,6.28-9.59,10.32-15.78Z"/>
                  <path class="cls-6" d="M198.85,200.54c-4.21-6.29-6.3-9.41-10.34-15.54-4.19,6.22-6.32,9.36-10.58,15.61,4.08,6.2,6.18,9.48,10.41,15.79,4.21-6.27,6.33-9.57,10.5-15.86Z"/>
                  <path class="cls-6" d="M198.99,234.54c-4.24-6.12-6.39-9.24-10.63-15.52-4.21,6.24-6.31,9.31-10.41,15.26,4.27,6.15,6.43,9.21,10.68,15.21,4.07-5.83,6.16-8.83,10.36-14.94Z"/>
                  <path class="cls-6" d="M221.86,234.27c-4.14-5.95-6.27-9.02-10.54-15.26-4.21,6.28-6.35,9.41-10.57,15.52,4.26,6.11,6.38,9.11,10.48,14.94,4.24-6,6.38-9.06,10.64-15.21Z"/>
                  <path class="cls-6" d="M244.34,233.44c-3.96-5.65-6.02-8.6-10.23-14.66-4.13,6.19-6.25,9.29-10.51,15.44,4.13,5.93,6.15,8.81,10.01,14.34,4.32-6.03,6.49-9.07,10.73-15.12Z"/>
                  <path class="cls-6" d="M244.03,200.87c-4.33-6.07-6.53-9.15-10.88-15.32-3.79,5.88-5.77,8.92-9.8,15.09,4.32,6.24,6.5,9.49,10.73,15.59,4.1-6.2,6.1-9.41,9.94-15.36Z"/>
                  <path class="cls-6" d="M233.23,217.52c-4.22-6.09-6.4-9.35-10.72-15.6-4.05,6.19-6.13,9.49-10.33,15.78,4.28,6.25,6.41,9.33,10.55,15.28,4.25-6.16,6.37-9.27,10.49-15.47Z"/>
                  <path class="cls-6" d="M234.12,76.7c-.03.08-.04.11-.08.19,3.83,5.55,5.85,8.39,10.04,14.12,1.02-2.53,1.37-3.59,1.73-5.26-.26-.35-.39-.52-.65-.87-4.56-4.01-6.92-5.79-11.71-8.85.12.17.17.25.29.42.15.09.22.14.37.24Z"/>
                  <path class="cls-6" d="M268.35,122.45c1.14-2.68,1.55-3.83,2.02-5.66-4.79-5.71-7.14-8.6-11.71-14.35-.41,1.75-.79,2.85-1.86,5.46,4.52,5.83,6.84,8.75,11.55,14.55Z"/>
                  <path class="cls-7" d="M265.32,132.08c4.64,5.87,7,8.8,11.72,14.55,1.9-3.59,2.71-5.22,3.99-8.06-4.82-5.67-7.22-8.55-11.94-14.35-1.2,2.75-1.96,4.34-3.77,7.86Z"/>
                  <path class="cls-6" d="M272.02,158.58c4.61,5.82,6.92,8.69,11.48,14.29,2.62-4.41,3.81-6.46,5.88-10.2-4.68-5.52-7.05-8.35-11.76-14.09-1.96,3.66-3.08,5.67-5.59,10.01Z"/>
                  <path class="cls-6" d="M278.62,216.46c3.92,5.34,5.79,7.87,9.21,12.6,4.05-5.48,6-8.17,9.61-13.37-3.71-4.85-5.73-7.59-9.89-12.9-3.34,5.17-5.13,8.06-8.93,13.68Z"/>
                  <path class="cls-6" d="M199.96,297.14c-3.72,5.17-5.51,7.66-8.8,12.35,3.72,5.11,5.5,7.57,8.79,12.2,3.3-4.64,5.08-7.1,8.81-12.21-3.29-4.69-5.07-7.17-8.79-12.35Z"/>
                  <path class="cls-9" d="M257.71,101.25c-4.55-5.75-6.76-8.63-11.02-14.31-.36,1.67-.72,2.73-1.73,5.27,4.22,5.75,6.41,8.66,10.9,14.48,1.07-2.6,1.44-3.7,1.85-5.44Z"/>
                  <path class="cls-6" d="M229.33,84.32c-3.77-5.57-5.56-8.3-8.92-13.54-1.67,3.37-2.66,5.25-4.91,9.31,3.34,5.26,5.13,8,8.87,13.6,2.26-4.09,3.26-5.98,4.96-9.37Z"/>
                  <path class="cls-13" d="M217.47,105.66c2.82-4.73,4.12-6.97,6.42-11.11-3.74-5.6-5.53-8.34-8.87-13.6-2.29,4.12-3.58,6.35-6.39,11.07,3.33,5.27,5.11,8.02,8.83,13.65Z"/>
                  <path class="cls-6" d="M243.87,91.55c-4.19-5.74-6.2-8.58-10.03-14.14-1.04,2.55-1.71,4.04-3.36,7.37,3.8,5.59,5.81,8.46,9.95,14.25,1.68-3.38,2.38-4.89,3.45-7.49Z"/>
                  <path class="cls-6" d="M252.06,114.89c1.73-3.44,2.45-4.98,3.57-7.65-4.49-5.83-6.68-8.75-10.89-14.5-1.07,2.6-1.77,4.12-3.45,7.5,4.17,5.81,6.34,8.75,10.78,14.65Z"/>
                  <path class="cls-6" d="M235.02,109.22c2.3-4.13,3.31-6.04,5.04-9.48-4.14-5.8-6.14-8.67-9.94-14.26-1.7,3.4-2.7,5.29-4.96,9.38,3.78,5.62,5.76,8.51,9.87,14.36Z"/>
                  <path class="cls-6" d="M218.21,321.13c2.65,4,3.83,5.85,5.83,9.16,3.78-5.02,5.78-7.62,9.94-12.96-2.03-3.37-3.23-5.25-5.9-9.32-4.12,5.41-6.11,8.05-9.87,13.12Z"/>
                  <path class="cls-12" d="M235.26,316.92c1.98,3.32,2.81,4.8,4.06,7.32,4.22-5.27,6.43-7.98,10.95-13.44-1.31-2.61-2.16-4.13-4.19-7.53-4.46,5.55-6.64,8.29-10.82,13.64Z"/>
                  <path class="cls-6" d="M220.03,296.09c-4.08,5.49-6.06,8.17-9.82,13.31,3.24,4.65,4.75,6.84,7.44,10.9,3.77-5.08,5.75-7.72,9.87-13.13-2.72-4.12-4.23-6.35-7.49-11.07Z"/>
                  <path class="cls-6" d="M200.63,322.66c3.25,4.59,4.76,6.76,7.45,10.76,3.29-4.59,5.06-7.03,8.8-12.07-2.7-4.05-4.2-6.24-7.44-10.89-3.73,5.1-5.5,7.56-8.8,12.2Z"/>
                  <path class="cls-6" d="M277.06,245.14c3.14,4.53,4.58,6.63,7.1,10.45,4.58-5.55,6.84-8.29,11.19-13.65-2.74-3.95-4.29-6.12-7.65-10.77-4.1,5.49-6.25,8.3-10.63,13.97Z"/>
                  <path class="cls-6" d="M258.43,288.08c-4.64,5.66-6.94,8.48-11.42,14.04,2.04,3.41,2.89,4.93,4.21,7.55,4.55-5.47,6.89-8.25,11.63-13.8-1.4-2.71-2.3-4.29-4.42-7.79Z"/>
                  <path class="cls-6" d="M264.12,295.28c1.34,2.65,1.83,3.78,2.35,5.56,4.87-5.44,7.35-8.18,12.34-13.6-.64-1.89-1.18-3.07-2.65-5.83-4.85,5.53-7.28,8.32-12.04,13.87Z"/>
                  <path class="cls-13" d="M272.07,271.56c2.27,3.63,3.25,5.27,4.79,8.11,4.84-5.54,7.28-8.3,12.08-13.73-1.71-2.96-2.77-4.65-5.22-8.4-4.61,5.55-6.96,8.37-11.65,14.02Z"/>
                  <path class="cls-6" d="M251.48,310.21c1.25,2.55,1.69,3.62,2.13,5.29,4.62-5.37,7-8.09,11.85-13.54-.52-1.77-1-2.89-2.33-5.54-4.75,5.55-7.1,8.32-11.65,13.78Z"/>
                  <path class="cls-6" d="M276.59,186.85c4.41,5.66,6.59,8.42,10.79,13.76,3.29-5.12,4.83-7.56,7.65-12.1-4.35-5.26-6.6-7.99-11.13-13.57-2.68,4.47-4.15,6.86-7.3,11.91Z"/>
                  <path class="cls-6" d="M121.09,216.41c-3.86-5.62-5.7-8.47-9.1-13.7-4.12,5.36-6.11,8.05-9.77,12.9,3.68,5.21,5.65,7.9,9.75,13.38,3.4-4.72,5.24-7.25,9.12-12.59Z"/>
                  <path class="cls-6" d="M134.1,131.98c-1.82-3.49-2.58-5.06-3.79-7.77-4.77,5.76-7.19,8.63-12.05,14.26,1.3,2.8,2.11,4.41,4.03,7.98,4.75-5.72,7.13-8.63,11.81-14.47Z"/>
                  <path class="cls-6" d="M122.85,245.09c-4.41-5.68-6.58-8.49-10.72-13.98-3.33,4.65-4.87,6.81-7.58,10.76,4.38,5.36,6.66,8.11,11.26,13.66,2.5-3.81,3.93-5.91,7.05-10.43Z"/>
                  <path class="cls-6" d="M127.35,158.38c-2.53-4.33-3.67-6.34-5.64-9.99-4.74,5.71-7.12,8.54-11.82,14.04,2.1,3.73,3.3,5.79,5.96,10.21,4.56-5.59,6.87-8.46,11.5-14.26Z"/>
                  <path class="cls-7" d="M122.86,186.69c-3.2-5.08-4.69-7.49-7.4-11.97-4.53,5.58-6.77,8.31-11.11,13.59,2.87,4.58,4.44,7.03,7.8,12.2,4.16-5.38,6.32-8.16,10.71-13.83Z"/>
                  <path class="cls-6" d="M214.34,79.86c-3.3-5.23-4.85-7.75-7.68-12.51-2.28,4.12-3.56,6.35-6.37,11.07,2.83,4.75,4.37,7.27,7.67,12.51,2.81-4.72,4.1-6.94,6.39-11.06Z"/>
                  <path class="cls-6" d="M209.76,281.46c-3.76-5.29-5.76-8.06-9.82-13.73-4.04,5.68-6.02,8.44-9.77,13.74,4.06,5.59,6.04,8.31,9.8,13.52,3.75-5.22,5.74-7.94,9.8-13.53Z"/>
                  <path class="cls-6" d="M135.87,295.19c-4.75-5.55-7.17-8.35-12.02-13.88-1.46,2.75-2,3.92-2.64,5.79,4.98,5.42,7.46,8.16,12.31,13.61.52-1.76,1.01-2.88,2.35-5.52Z"/>
                  <path class="cls-6" d="M127.93,271.5c-4.7-5.66-7.05-8.48-11.68-14.03-2.43,3.74-3.48,5.43-5.18,8.38,4.81,5.43,7.25,8.19,12.09,13.73,1.54-2.83,2.51-4.46,4.77-8.08Z"/>
                  <path class="cls-6" d="M246.11,85.73c.13.17.19.26.32.43.14.13.21.19.35.32,0,.05-.01.07-.02.12,4.26,5.68,6.47,8.55,11.03,14.3.36-1.72.36-2.35-.01-3.07.23.26.34.4.56.66.15.19.22.28.37.47.4.72.4,1.36.02,3.13,4.57,5.74,6.93,8.63,11.72,14.33.02-.1.03-.14.05-.24.24.41.36.61.6,1.02.29.35.44.52.73.86.36.62.55.93.91,1.56-.56-.66-.83-.99-1.39-1.64-.48,1.84-.89,2.99-2.03,5.68,4.72,5.79,7.13,8.67,11.96,14.33.07-.15.1-.23.17-.38.2.46.3.69.49,1.15.29.34.44.51.73.86.3.7.45,1.05.74,1.76-.56-.65-.83-.97-1.39-1.63-1.29,2.85-2.1,4.47-4.01,8.07,4.72,5.73,7.09,8.56,11.78,14.07.11-.2.17-.3.27-.5.15.5.22.75.37,1.25.28.33.43.5.71.83.22.76.33,1.14.54,1.91-.54-.63-.81-.95-1.35-1.58-2.08,3.75-3.27,5.8-5.91,10.22,4.54,5.57,6.8,8.3,11.16,13.55.15-.25.23-.37.38-.61.09.53.13.8.22,1.33.26.32.4.48.66.79.13.81.19,1.21.31,2.02-.5-.6-.75-.9-1.25-1.5-2.83,4.55-4.38,6.99-7.68,12.12,4.18,5.31,6.22,8.02,9.95,12.89.2-.28.29-.42.49-.71.01.55.02.82.02,1.37.22.29.34.44.56.73,0,.83,0,1.24,0,2.06-.41-.54-.62-.82-1.05-1.37-3.64,5.19-5.6,7.88-9.67,13.35,3.38,4.67,4.94,6.84,7.71,10.8.24-.29.35-.44.59-.73-.08.51-.13.76-.21,1.27.17.24.25.36.41.59-.14.76-.21,1.14-.36,1.9-.3-.44-.45-.66-.76-1.11-4.37,5.35-6.64,8.09-11.24,13.63,2.46,3.76,3.53,5.46,5.26,8.43.26-.3.39-.44.65-.74-.17.46-.25.69-.42,1.14.1.18.15.27.25.44-.26.69-.4,1.03-.67,1.71-.18-.32-.27-.49-.46-.82-4.82,5.42-7.26,8.17-12.12,13.7,1.48,2.77,2.03,3.96,2.68,5.86.27-.3.41-.44.68-.74-.24.4-.36.6-.6,1,.04.11.05.17.09.28-.37.6-.56.9-.94,1.49-.05-.2-.08-.3-.15-.51-5,5.41-7.49,8.14-12.37,13.57.46,1.74.48,2.37,0,3.12-.37.38-.56.57-.94.95.36-.75.34-1.35-.08-2.93-4.76,5.33-7.11,7.99-11.64,13.25-.42.31-.62.47-1.04.78.2-.24.31-.36.51-.6-.32.24-.49.36-.81.59-.46-1.61-.88-2.62-2.04-5-4.44,5.34-6.61,7.99-10.75,13.16-.45.23-.68.35-1.13.58.19-.23.28-.35.47-.58-.35.18-.53.26-.88.43-1.22-2.41-2-3.8-3.85-6.9-4.07,5.22-6.04,7.78-9.75,12.69-.48.15-.72.22-1.19.36.17-.22.25-.33.42-.55-.37.11-.56.16-.93.27-1.92-3.14-3.03-4.87-5.51-8.61-3.66,4.94-5.4,7.33-8.63,11.84-.49.05-.74.08-1.24.13.14-.2.22-.3.36-.51-.38.04-.57.05-.96.09-2.56-3.78-3.98-5.82-7.02-10.11-3.19,4.5-4.69,6.62-7.37,10.56-.5-.04-.74-.07-1.24-.12.12-.18.18-.26.3-.44-.38-.04-.58-.06-.96-.1-3.1-4.33-4.76-6.61-8.23-11.33-2.61,3.92-3.78,5.72-5.77,8.97-.48-.14-.72-.21-1.19-.36.09-.14.13-.22.22-.36-.37-.11-.55-.17-.92-.28-3.54-4.72-5.41-7.16-9.28-12.15-1.95,3.24-2.77,4.68-4.02,7.16-.45-.23-.68-.34-1.13-.58.05-.11.08-.16.14-.28-.35-.18-.52-.27-.87-.45-3.95-4.95-6.01-7.48-10.22-12.59-1.22,2.48-1.66,3.52-2.1,5.15-.42-.31-.62-.46-1.04-.78.02-.07.03-.11.05-.18-.32-.24-.48-.36-.8-.6-4.32-5.03-6.54-7.58-11.07-12.67-.44,1.64-.45,2.25-.03,2.97-.37-.38-.56-.57-.93-.96-.54-.71-.53-1.35-.05-3.14-4.85-5.44-7.34-8.17-12.33-13.58-.08.25-.11.38-.18.61,4.47,6.9,6.96,10.1,12.34,15.89,41.55,39.41,91.79,39.35,133.59.09,50.58-60.26,36.6-145.54-8.15-205.18-4.82-5.81-7.35-8.47-12.58-13.17Z"/>
                  <path class="cls-6" d="M182.07,105.67c3.72-5.62,5.5-8.37,8.81-13.64-2.74-4.7-4-6.93-6.24-11.03-3.34,5.26-5.12,8-8.88,13.59,2.27,4.12,3.54,6.35,6.31,11.08Z"/>
                  <path class="cls-6" d="M184.18,80.16c-2.19-4.05-3.16-5.91-4.8-9.26-3.36,5.24-5.17,7.97-8.97,13.52,1.67,3.37,2.65,5.24,4.88,9.31,3.76-5.59,5.55-8.32,8.89-13.58Z"/>
                  <path class="cls-6" d="M199.14,78.42c-2.72-4.7-3.96-6.92-6.17-11.02-2.8,4.77-4.34,7.29-7.64,12.52,2.24,4.1,3.49,6.32,6.23,11.03,3.27-5.24,4.8-7.76,7.58-12.52Z"/>
                  <path class="cls-6" d="M199.66,104.44c3.25-5.25,4.86-7.77,7.71-12.53-3.29-5.24-4.9-7.76-7.66-12.51-2.78,4.76-4.31,7.29-7.58,12.52,2.78,4.75,4.3,7.27,7.53,12.51Z"/>
                  <path class="cls-9" d="M169.28,84.89c-1.63-3.31-2.3-4.78-3.33-7.29-3.87,5.54-5.9,8.38-10.14,14.09,1.07,2.56,1.76,4.05,3.43,7.4,4.19-5.77,6.21-8.63,10.04-14.21Z"/>
                  <path class="cls-6" d="M164.58,109.22c4.13-5.82,6.13-8.7,9.93-14.31-2.23-4.07-3.21-5.95-4.89-9.32-3.83,5.58-5.85,8.44-10.03,14.21,1.72,3.41,2.72,5.31,4.99,9.42Z"/>
                  <path class="cls-6" d="M147.48,114.88c4.48-5.87,6.67-8.8,10.88-14.58-1.67-3.35-2.37-4.85-3.44-7.41-4.26,5.73-6.48,8.63-11.02,14.43,1.12,2.62,1.84,4.15,3.57,7.56Z"/>
                  <path class="cls-6" d="M154.71,92.36c-1.02-2.49-1.38-3.53-1.76-5.15-4.3,5.67-6.54,8.53-11.15,14.26.42,1.68.81,2.76,1.88,5.31,4.55-5.8,6.77-8.7,11.03-14.42Z"/>
                  <path class="cls-5" d="M142.74,107.99c-1.08-2.56-1.46-3.64-1.89-5.33-4.62,5.72-7.01,8.59-11.85,14.27.49,1.77.91,2.89,2.05,5.52,4.76-5.76,7.11-8.67,11.68-14.47Z"/>
                  <path class="cls-6" d="M239.62,293.02c-4.38,5.65-6.54,8.44-10.68,13.86,2.67,4.08,3.87,5.96,5.91,9.34,4.18-5.35,6.36-8.1,10.81-13.66-2.09-3.46-3.31-5.39-6.04-9.55Z"/>
                  <path class="cls-10" d="M275.93,187.91c-3.19,5.09-4.9,7.78-8.48,13.36,4.28,5.74,6.4,8.69,10.36,14.08,3.79-5.62,5.56-8.5,8.88-13.67-4.19-5.34-6.36-8.11-10.76-13.78Z"/>
                  <path class="cls-6" d="M247.44,126.47c4.39,5.96,6.65,8.96,11.2,14.92,2.41-4.25,3.49-6.22,5.34-9.79-4.62-5.89-6.91-8.85-11.36-14.76-1.79,3.5-2.83,5.45-5.18,9.63Z"/>
                  <path class="cls-6" d="M190.92,120.32c3.29,5.3,5.04,8.07,8.7,13.76,3.67-5.69,5.5-8.45,8.85-13.76-3.71-5.66-5.54-8.42-8.81-13.7-3.28,5.29-5.05,8.04-8.74,13.7Z"/>
                  <path class="cls-5" d="M235.88,110.43c4.13,5.86,6.27,8.83,10.65,14.79,2.34-4.18,3.38-6.12,5.17-9.62-4.43-5.9-6.6-8.85-10.77-14.66-1.73,3.44-2.75,5.36-5.05,9.49Z"/>
                  <path class="cls-6" d="M264.94,132.81c-1.86,3.58-2.94,5.55-5.36,9.81,4.56,5.95,6.87,8.91,11.48,14.75,2.5-4.33,3.63-6.34,5.57-9.99-4.71-5.76-7.06-8.68-11.7-14.56Z"/>
                  <path class="cls-6" d="M256.57,108.45c-1.12,2.67-1.85,4.22-3.58,7.66,4.45,5.9,6.74,8.86,11.37,14.74,1.8-3.51,2.56-5.09,3.75-7.84-4.71-5.8-7.03-8.73-11.54-14.57Z"/>
                  <path class="cls-6" d="M209.93,120.41c3.74,5.68,5.7,8.61,9.75,14.55,3.32-5.31,4.89-7.86,7.77-12.67-4.07-5.89-6.04-8.8-9.79-14.46-2.86,4.78-4.42,7.31-7.73,12.58Z"/>
                  <path class="cls-6" d="M200.34,105.53c3.33,5.28,5.1,8.04,8.81,13.7,3.31-5.27,4.87-7.8,7.73-12.58-3.72-5.63-5.5-8.38-8.83-13.65-2.85,4.76-4.4,7.28-7.72,12.53Z"/>
                  <path class="cls-6" d="M228.9,122.51c4.09,5.9,6.22,8.91,10.54,14.93,2.89-4.82,4.22-7.11,6.6-11.34-4.37-5.96-6.51-8.94-10.64-14.8-2.34,4.18-3.65,6.44-6.5,11.22Z"/>
                  <path class="cls-6" d="M218.25,106.83c3.75,5.65,5.73,8.56,9.8,14.45,2.85-4.77,4.15-7.03,6.49-11.21-4.1-5.85-6.09-8.74-9.86-14.36-2.31,4.14-3.61,6.38-6.43,11.12Z"/>
                  <path class="cls-6" d="M271.49,159.48c-2.55,4.38-3.97,6.74-7,11.71,4.51,5.9,6.76,8.81,11.18,14.49,3.14-5.04,4.61-7.43,7.27-11.89-4.54-5.6-6.85-8.48-11.45-14.3Z"/>
                  <path class="cls-6" d="M239.04,292.15c-2.77-4.21-4.31-6.49-7.61-11.3-4.32,5.75-6.45,8.59-10.55,14.1,3.26,4.73,4.78,6.96,7.5,11.09,4.14-5.43,6.29-8.23,10.67-13.88Z"/>
                  <path class="cls-3" d="M230.74,279.84c-3.34-4.86-5.14-7.44-8.9-12.8-4.26,5.86-6.38,8.74-10.46,14.35,3.73,5.26,5.51,7.79,8.81,12.56,4.1-5.52,6.23-8.36,10.54-14.12Z"/>
                  <path class="cls-6" d="M183,321.34c3.72,5.05,5.48,7.48,8.76,12.08,2.72-4,4.23-6.17,7.5-10.76-3.3-4.63-5.07-7.09-8.79-12.19-3.25,4.64-4.76,6.83-7.48,10.88Z"/>
                  <path class="cls-6" d="M219.35,295.1c-3.3-4.76-5.08-7.29-8.81-12.55-4.06,5.58-6.04,8.3-9.8,13.51,3.73,5.18,5.51,7.67,8.79,12.36,3.76-5.14,5.74-7.83,9.82-13.32Z"/>
                  <path class="cls-6" d="M276.15,246.32c-4.4,5.69-6.66,8.57-11.19,14.35,2.96,4.4,4.3,6.44,6.63,10.13,4.68-5.66,7.02-8.49,11.62-14.05-2.5-3.81-3.93-5.91-7.06-10.43Z"/>
                  <path class="cls-6" d="M275.86,280.82c-1.53-2.83-2.5-4.46-4.76-8.08-4.69,5.66-7.05,8.51-11.7,14.17,2.14,3.51,3.04,5.09,4.45,7.81,4.76-5.56,7.18-8.35,12.02-13.9Z"/>
                  <path class="cls-6" d="M277.83,217.63c-3.84,5.63-5.87,8.51-10.05,14.32,3.69,5.2,5.44,7.66,8.62,12.24,4.37-5.68,6.51-8.5,10.59-14-3.41-4.71-5.26-7.24-9.16-12.57Z"/>
                  <path class="cls-6" d="M270.62,271.98c-2.32-3.68-3.66-5.72-6.6-10.1-4.54,5.78-6.83,8.69-11.36,14.47,2.82,4.28,4.1,6.26,6.29,9.83,4.64-5.67,7-8.52,11.68-14.19Z"/>
                  <path class="cls-8" d="M257.98,287.35c-2.18-3.57-3.45-5.54-6.27-9.81-4.53,5.77-6.78,8.65-11.18,14.31,2.73,4.17,3.95,6.09,6.05,9.56,4.47-5.57,6.77-8.4,11.4-14.06Z"/>
                  <path class="cls-6" d="M251.12,276.65c-2.86-4.32-4.44-6.65-7.83-11.58-4.42,5.89-6.64,8.82-10.97,14.58,3.31,4.82,4.85,7.1,7.63,11.32,4.39-5.67,6.65-8.55,11.17-14.33Z"/>
                  <path class="cls-8" d="M141.56,288.03c-2.13,3.49-3.03,5.06-4.43,7.76,4.73,5.56,7.06,8.34,11.58,13.82,1.32-2.6,2.18-4.12,4.22-7.52-4.46-5.57-6.75-8.39-11.38-14.06Z"/>
                  <path class="cls-6" d="M149.66,310.74c4.5,5.47,6.69,8.17,10.89,13.45,1.27-2.52,2.1-3.99,4.09-7.3-4.16-5.35-6.33-8.1-10.77-13.65-2.04,3.39-2.9,4.9-4.21,7.5Z"/>
                  <path class="cls-6" d="M136.15,294.63c1.41-2.71,2.31-4.28,4.45-7.78-4.64-5.67-7-8.52-11.7-14.18-2.25,3.61-3.22,5.24-4.75,8.05,4.84,5.55,7.25,8.34,11.99,13.91Z"/>
                  <path class="cls-6" d="M123.51,244.14c3.17-4.58,4.9-7.04,8.56-12.23-4.21-5.82-6.27-8.7-10.17-14.34-3.86,5.33-5.7,7.85-9.07,12.56,4.13,5.5,6.29,8.32,10.68,14.01Z"/>
                  <path class="cls-9" d="M128.4,270.74c2.32-3.68,3.66-5.72,6.61-10.11-4.54-5.78-6.81-8.67-11.24-14.36-3.11,4.51-4.53,6.61-7.01,10.41,4.61,5.57,6.96,8.39,11.64,14.06Z"/>
                  <path class="cls-6" d="M179.91,296.09c-3.26,4.72-4.78,6.95-7.51,11.06,4.1,5.41,6.08,8.06,9.83,13.14,2.71-4.05,4.22-6.25,7.48-10.89-3.75-5.14-5.72-7.82-9.79-13.31Z"/>
                  <path class="cls-3" d="M165.91,317.31c4.13,5.33,6.12,7.95,9.88,12.96,2.02-3.3,3.21-5.15,5.88-9.14-3.75-5.07-5.73-7.72-9.83-13.13-2.68,4.06-3.88,5.94-5.92,9.31Z"/>
                  <path class="cls-6" d="M160.34,293c-2.73,4.15-3.95,6.07-6.05,9.53,4.43,5.56,6.6,8.31,10.76,13.67,2.05-3.37,3.25-5.25,5.93-9.32-4.12-5.43-6.27-8.22-10.64-13.87Z"/>
                  <path class="cls-6" d="M182.65,106.66c2.81,4.77,4.34,7.3,7.59,12.57,3.69-5.65,5.45-8.41,8.74-13.69-3.23-5.25-4.75-7.77-7.53-12.52-3.31,5.27-5.08,8.02-8.8,13.64Z"/>
                  <path class="cls-6" d="M135.45,131.5c1.86,3.55,2.94,5.51,5.35,9.75,4.58-5.93,6.85-8.92,11.27-14.85-2.34-4.17-3.38-6.1-5.16-9.58-4.49,5.88-6.8,8.83-11.46,14.68Z"/>
                  <path class="cls-7" d="M147.85,115.59c1.78,3.47,2.81,5.4,5.14,9.57,4.41-5.93,6.57-8.9,10.73-14.73-2.27-4.11-3.28-6.01-5-9.43-4.21,5.79-6.4,8.72-10.87,14.6Z"/>
                  <path class="cls-6" d="M153.48,126.04c2.37,4.22,3.7,6.5,6.57,11.32,4.34-6,6.47-8.99,10.58-14.88-2.82-4.77-4.11-7.02-6.43-11.19-4.15,5.84-6.31,8.81-10.72,14.75Z"/>
                  <path class="cls-8" d="M165.06,110.08c2.31,4.16,3.61,6.42,6.42,11.18,4.08-5.87,6.06-8.77,9.81-14.42-2.77-4.73-4.04-6.96-6.32-11.09-3.79,5.61-5.79,8.5-9.92,14.32Z"/>
                  <path class="cls-6" d="M172.06,122.25c2.85,4.81,4.4,7.36,7.69,12.67,4.04-5.92,6-8.84,9.72-14.52-3.26-5.27-4.78-7.8-7.6-12.57-3.75,5.65-5.73,8.55-9.81,14.43Z"/>
                  <path class="cls-6" d="M128.31,157.17c4.63-5.81,6.95-8.77,11.54-14.69-2.42-4.25-3.5-6.21-5.37-9.77-4.67,5.85-7.05,8.76-11.79,14.49,1.96,3.64,3.1,5.64,5.62,9.97Z"/>
                  <path class="cls-8" d="M121.9,215.3c3.91-5.39,6-8.32,10.24-14.09-3.64-5.63-5.38-8.33-8.61-13.46-4.38,5.68-6.53,8.46-10.68,13.85,3.39,5.22,5.21,8.07,9.05,13.7Z"/>
                  <path class="cls-6" d="M123.78,185.51c4.4-5.69,6.65-8.6,11.16-14.49-3.06-4.98-4.48-7.34-7.06-11.73-4.62,5.81-6.93,8.68-11.48,14.28,2.7,4.47,4.19,6.88,7.37,11.95Z"/>
                  <path class="cls-6" d="M131.3,123.01c1.2,2.7,1.96,4.27,3.77,7.76,4.67-5.85,6.98-8.8,11.48-14.67-1.73-3.42-2.46-4.94-3.59-7.57-4.56,5.8-6.91,8.72-11.66,14.49Z"/>
                  <path class="cls-8" d="M107.58,163.84c-.22.76-.32,1.14-.54,1.9.09-.1.13-.15.22-.26.21-.76.32-1.15.54-1.9-.09.1-.13.15-.22.26Z"/>
                  <path class="cls-8" d="M126.97,118.83c-.37.61-.55.92-.91,1.54.09-.11.14-.16.23-.27.36-.62.55-.93.91-1.54-.09.11-.14.16-.23.27Z"/>
                  <path class="cls-8" d="M102.03,189.46c-.12.81-.18,1.22-.29,2.03.08-.1.12-.15.2-.25.11-.81.17-1.22.29-2.03-.08.1-.12.15-.2.25Z"/>
                  <path class="cls-8" d="M116.05,140.14c-.3.69-.45,1.04-.74,1.74.09-.11.14-.16.23-.26.29-.7.44-1.05.74-1.74-.09.11-.14.16-.23.27Z"/>
                  <path class="cls-8" d="M141.71,98.18c-.23.27-.34.41-.57.68-.03.04-.05.06-.09.11.26-.31.39-.46.65-.76,0,0,0-.01.01-.02Z"/>
                  <path class="cls-8" d="M109.4,265.87c.27.68.41,1.02.68,1.7.03-.05.04-.08.07-.13-.28-.68-.41-1.02-.68-1.7-.03.05-.05.08-.08.13Z"/>
                  <path class="cls-8" d="M100.01,216.46c0,.82.01,1.23.03,2.05.07-.09.1-.13.17-.22-.02-.82-.02-1.23-.03-2.06-.07.09-.1.14-.17.23Z"/>
                  <path class="cls-8" d="M119.94,286.7c.37.59.56.89.94,1.47,0-.03.01-.05.02-.08-.38-.59-.57-.88-.94-1.48,0,.03-.01.05-.02.08Z"/>
                  <path class="cls-8" d="M102.57,242.31c.15.76.22,1.14.38,1.89.05-.07.07-.11.12-.18-.16-.76-.23-1.14-.38-1.9-.05.07-.07.11-.12.18Z"/>
                  <path class="cls-8" d="M193.13,65.64c-.41.06-.61.09-1.02.15.03.06.04.08.07.14.41-.06.62-.09,1.03-.15-.03-.06-.04-.08-.07-.14Z"/>
                  <path class="cls-8" d="M153.78,85.74c-.38.34-.57.51-.96.86,0,.02,0,.03,0,.05.38-.35.57-.52.96-.86,0-.02,0-.03-.01-.05Z"/>
                  <path class="cls-8" d="M245.96,85.53c-.38-.34-.57-.51-.94-.84.06.08.09.12.14.2.38.33.57.5.95.84-.06-.08-.09-.12-.15-.2Z"/>
                  <path class="cls-8" d="M220.13,69.1c-.41-.16-.62-.24-1.03-.39.05.07.07.11.11.18.41.15.62.23,1.03.39-.05-.07-.07-.11-.11-.18Z"/>
                  <path class="cls-8" d="M233.32,75.85c-.4-.25-.6-.38-1-.63.05.08.08.11.13.19.4.25.6.37,1,.63-.05-.08-.08-.11-.13-.19Z"/>
                  <path class="cls-8" d="M166.56,75.99c-.4.26-.6.38-1,.65.01.03.02.05.03.08.4-.26.6-.39,1-.64-.01-.03-.02-.05-.03-.08Z"/>
                  <path class="cls-8" d="M179.77,69.19c-.41.16-.61.24-1.02.41.02.04.03.07.05.11.41-.17.61-.25,1.02-.41-.02-.05-.03-.07-.06-.11Z"/>
                  <path class="cls-8" d="M206.6,65.61c-.42-.05-.63-.08-1.05-.13.04.06.06.1.1.16.42.05.63.07,1.05.13-.04-.07-.06-.1-.1-.16Z"/>
                </g>
                <g>
                  <path class="cls-3" d="M256.94,96.84c-.32,13.74-12.7,29.99-19.34,41.1-12.44,20.79-25.94,40.94-39.33,61.12-15.18,22.88-30.98,45.32-46.37,68.06-7.17,10.6-18.14,23.03-19.42,36.02.39.44.59.65.98,1.08,1.05,1.12,1.58,1.66,2.66,2.74,2.17-13.47,12.8-25.83,20.34-36.94,15.37-22.65,31.15-45,46.26-67.83,13.25-20.03,26.59-40.03,38.89-60.66,6.43-10.78,18.82-27.01,18.86-40.41-.63-.8-.95-1.19-1.59-1.97-.77-.94-1.16-1.4-1.95-2.31Z"/>
                  <path class="cls-3" d="M245,84.74c-9.74,34.85-38,68.05-57.87,97.52-22.14,32.84-52.42,66.11-67.94,102.81,1.35,2.26,2.06,3.36,3.51,5.51,4.89-14.35,15.23-27.06,23.74-39.44,14.67-21.34,29.39-42.62,43.81-64.13,19.38-28.9,50.8-64.14,58.25-99.06-1.39-1.32-2.09-1.97-3.51-3.2Z"/>
                  <path class="cls-3" d="M232.29,75.3c-29.35,69.13-85.45,124.4-123.24,188.57.96,2.59,1.47,3.86,2.55,6.36,36.21-66.46,96.43-121.38,124.4-192.52-1.47-1.01-2.21-1.5-3.7-2.41Z"/>
                  <path class="cls-3" d="M219.03,68.83c-30.71,61.67-77.04,115.06-116.4,171.17.5,2.87.78,4.29,1.42,7.08,39.51-58.26,88.28-112.83,118.81-176.72-1.53-.67-2.3-.97-3.84-1.53Z"/>
                  <path class="cls-3" d="M205.47,65.62c-29.79,53.01-68.19,100.04-104.93,148.25-.03,3.1,0,4.64.13,7.68,37.79-50.46,78.69-99.63,108.7-155.36-1.56-.28-2.34-.4-3.9-.57Z"/>
                  <path class="cls-3" d="M192,65.96c-25.49,43.15-57.22,82.34-89.05,120.89-.48,3.02-.7,4.54-1.07,7.6,33.48-41.18,67.42-82.82,93.95-128.96-1.53.13-2.29.22-3.82.46Z"/>
                  <path class="cls-3" d="M178.62,69.79c-21.2,32.16-44.89,62.23-69.85,91.53-.84,2.82-1.24,4.25-1.98,7.13,27.11-32,52.94-64.8,75.66-100.1-1.53.52-2.3.81-3.82,1.44Z"/>
                  <path class="cls-3" d="M165.42,76.83c-15.08,21.09-31.1,41.23-47.97,60.92-1.14,2.57-1.69,3.87-2.75,6.52,19.26-22.46,37.52-45.5,54.46-69.76-1.5.88-2.25,1.35-3.75,2.33Z"/>
                  <path class="cls-3" d="M152.67,86.81c-7.76,10.17-15.82,20.11-24.15,29.82-1.39,2.26-2.06,3.42-3.38,5.77,10.79-12.56,21.27-25.41,31.12-38.72-1.45,1.21-2.16,1.84-3.59,3.14Z"/>
                  <path class="cls-3" d="M251.58,317.45c1.57-1.13,2.34-1.71,3.87-2.92,7.92-9.1,16.03-18.04,24.26-26.86,1.42-2.19,2.11-3.31,3.42-5.61-10.76,11.58-21.28,23.38-31.55,35.39Z"/>
                  <path class="cls-3" d="M237.3,325.99c1.7-.82,2.54-1.26,4.2-2.17,15.86-19.35,32.26-38.16,48.94-56.81,1.03-2.53,1.51-3.82,2.41-6.44-18.91,21.49-37.6,43.11-55.54,65.42Z"/>
                  <path class="cls-3" d="M222.07,331.77c1.79-.5,2.68-.77,4.44-1.36,22.81-29.61,47-58.07,70.9-86.81.56-2.82.8-4.25,1.22-7.14-25.59,31.73-51.92,62.82-76.55,95.31Z"/>
                  <path class="cls-3" d="M206.18,334.59c1.84-.14,2.76-.24,4.6-.49,28.83-39.44,60.47-76.71,89.22-116.2.02-3.06,0-4.6-.15-7.72-29.46,42.77-63.51,82.13-93.66,124.41Z"/>
                  <path class="cls-3" d="M190.01,334.22c1.84.23,2.76.31,4.61.44,33.57-48.54,71.78-93.61,103.25-143.61-.46-3.01-.71-4.5-1.27-7.47-32.16,52.66-72.11,99.61-106.6,150.64Z"/>
                  <path class="cls-3" d="M174.24,330.69c1.77.58,2.66.84,4.45,1.32,36.01-56.85,80.76-107.57,113.65-166.57-.8-2.84-1.23-4.25-2.12-7.04-32.78,61.41-79.79,113.21-115.98,172.29Z"/>
                  <path class="cls-3" d="M159.24,324.23c1.66.9,2.5,1.33,4.2,2.14,35.32-64.35,89.67-117.6,120.56-184.81-1.1-2.62-1.67-3.91-2.85-6.45-29.9,69.32-88.8,122.11-121.91,189.12Z"/>
                  <path class="cls-3" d="M145.28,315.04c1.53,1.2,2.3,1.78,3.87,2.89,14.17-35.55,44.1-67.12,65.17-98.7,20.21-30.29,48.13-63.99,58.91-99.32-1.35-2.33-2.05-3.47-3.47-5.7-8.17,35.25-39.19,70.68-58.76,100.16-20.75,31.26-53.75,64.59-65.72,100.66Z"/>
                </g>
                <g>
                  <path class="cls-14" d="M143.03,96.66c1.56,12.65,10.07,24.73,16.42,35.58,13.34,22.82,28,44.89,42.75,66.82,14.1,20.95,28.71,41.54,42.96,62.39,7.06,10.33,22.85,27.7,22.9,41.33-.4.43-.6.65-1,1.07-1.05,1.12-1.58,1.67-2.66,2.74-1.12-14.4-16.16-31.08-23.82-42.26-14.21-20.76-28.81-41.24-42.8-62.15-14.57-21.77-29.08-43.68-42.29-66.31-6.19-10.6-14.69-22.55-16.01-34.94.63-.79.94-1.18,1.58-1.95.79-.94,1.19-1.4,1.99-2.32Z"/>
                  <path class="cls-14" d="M155.22,84.55c11.22,34.97,37.59,67.86,58.05,97.74,22.12,32.31,53.77,65.79,68.25,102.5-1.37,2.25-2.08,3.34-3.55,5.48-4.78-15.91-18.04-31.26-27.29-44.62-13.54-19.52-27.15-38.99-40.53-58.63-20.15-29.58-49.06-63.98-58.5-99.28,1.42-1.32,2.13-1.97,3.57-3.2Z"/>
                  <path class="cls-14" d="M168.08,75.15c29.28,69.34,85.45,124.5,123.65,188.54-.96,2.58-1.47,3.84-2.56,6.33-36.82-66.61-95.44-121.43-124.83-192.48,1.49-1.01,2.23-1.49,3.74-2.4Z"/>
                  <path class="cls-14" d="M181.34,68.74c31.04,61.85,77.15,114.88,116.74,171.18-.48,2.86-.76,4.27-1.39,7.05-39.65-58.67-87.95-112.67-119.17-176.72,1.53-.66,2.29-.96,3.82-1.51Z"/>
                  <path class="cls-14" d="M194.73,65.6c28.69,53.42,68.31,100.56,105.24,148.31.06,3.09.05,4.62-.05,7.65-38.14-50.26-79.18-99.52-109.02-155.41,1.53-.28,2.3-.39,3.83-.55Z"/>
                  <path class="cls-14" d="M208.25,66c25.81,43.05,56.96,82.64,89,121.16.51,2.99.74,4.49,1.15,7.52-33.83-41.08-67.03-83.18-94.05-129.16,1.56.13,2.35.23,3.91.48Z"/>
                  <path class="cls-14" d="M221.77,69.89c21.17,32.2,44.6,62.49,69.5,91.88.85,2.81,1.25,4.24,2.01,7.11-27.1-32.07-52.62-65.13-75.36-100.44,1.54.53,2.31.82,3.84,1.46Z"/>
                  <path class="cls-14" d="M234.93,77c14.98,21.15,30.86,41.4,47.61,61.18,1.14,2.58,1.69,3.89,2.76,6.54-19.14-22.56-37.23-45.74-54.08-70.06,1.5.89,2.24,1.36,3.72,2.34Z"/>
                  <path class="cls-14" d="M247.5,87c7.7,10.2,15.69,20.18,23.95,29.93,1.39,2.28,2.07,3.44,3.39,5.81-10.76-12.57-21.02-25.58-30.86-38.88,1.42,1.21,2.13,1.84,3.53,3.14Z"/>
                  <path class="cls-14" d="M148.94,317.78c-1.57-1.12-2.34-1.7-3.86-2.91-7.86-9.12-15.91-18.08-24.1-26.91-1.41-2.2-2.08-3.33-3.39-5.63,10.68,11.61,21.2,23.38,31.35,35.45Z"/>
                  <path class="cls-14" d="M163.2,326.25c-1.69-.82-2.53-1.25-4.2-2.15-15.74-19.4-32.05-38.25-48.68-56.89-1.02-2.54-1.5-3.84-2.4-6.47,18.87,21.48,37.46,43.14,55.27,65.51Z"/>
                  <path class="cls-14" d="M178.44,331.95c-1.79-.48-2.68-.75-4.45-1.33-22.67-29.7-46.74-58.23-70.67-86.91-.57-2.83-.82-4.27-1.25-7.17,25.67,31.66,51.88,62.83,76.36,95.42Z"/>
                  <path class="cls-14" d="M194.37,334.64c-1.85-.13-2.77-.22-4.61-.45-28.72-39.56-60.2-76.97-89.2-116.31-.05-3.07-.04-4.62.06-7.76,29.81,42.57,63.67,82.13,93.75,124.51Z"/>
                  <path class="cls-14" d="M210.53,334.13c-1.83.24-2.75.34-4.6.47-33.34-48.83-71.83-93.87-103.57-143.82.43-3.04.67-4.55,1.2-7.55,32.53,52.57,72.72,99.54,106.97,150.89Z"/>
                  <path class="cls-14" d="M226.27,330.49c-1.77.59-2.66.86-4.44,1.35-35.38-57.43-80.43-108.14-114.11-166.84.79-2.85,1.21-4.26,2.09-7.05,33.71,61.04,81.02,112.83,116.46,172.54Z"/>
                  <path class="cls-14" d="M241.27,323.94c-1.66.91-2.5,1.34-4.2,2.16-33.98-65.25-88.54-118.4-121.07-184.99,1.1-2.61,1.67-3.89,2.85-6.42,30.38,69.2,89.28,122.1,122.43,189.26Z"/>
                  <path class="cls-14" d="M255.23,314.7c-1.53,1.2-2.3,1.79-3.87,2.91-12.87-35.48-44.12-67.4-65-98.36-20.77-30.81-47.3-64.16-59.62-99.66,1.35-2.31,2.05-3.44,3.46-5.66,10.17,35.64,39.14,70.21,59.43,100.46,12.89,19.21,26.41,37.98,39.56,57.01,8.91,12.9,21.62,27.88,26.05,43.3Z"/>
                </g>
                <g>
                  <path class="cls-8" d="M153.05,86.4c10.07,35.05,37.85,68.72,58.05,98.31,21.81,31.95,55.29,66.38,68.27,103.24.38-.59.57-.89.94-1.48-13.86-36.86-46.34-70.8-68.37-103.03-20.28-29.67-47.38-62.93-57.93-97.9-.38.34-.57.51-.96.86Z"/>
                  <path class="cls-8" d="M165.79,76.48c29.69,70.21,86.62,125.31,124.27,190.76.27-.68.41-1.02.67-1.71-38.03-64.83-94-120.01-123.95-189.7-.4.25-.6.38-1,.64Z"/>
                  <path class="cls-8" d="M178.99,69.5c31.1,63.08,78.37,116.71,118.03,174.29.15-.76.22-1.14.36-1.9-39.64-56.92-86.38-110.3-117.37-172.79-.41.16-.61.24-1.02.41Z"/>
                  <path class="cls-8" d="M192.35,65.75c29.25,54.82,69.68,103.15,107.27,152.28,0-.82,0-1.23,0-2.06-37.26-48.47-77.27-96.23-106.25-150.37-.41.05-.61.08-1.02.15Z"/>
                  <path class="cls-8" d="M205.8,65.51c26.44,44.68,58.71,85.69,91.72,125.62-.12-.81-.18-1.21-.31-2.02-32.54-39.25-64.25-79.58-90.36-123.48-.42-.06-.63-.08-1.05-.13Z"/>
                  <path class="cls-8" d="M219.34,68.81c22,33.94,46.58,65.79,72.68,96.66-.21-.76-.32-1.15-.54-1.91-25.45-30.07-49.96-61.08-71.11-94.36-.41-.16-.62-.24-1.03-.39Z"/>
                  <path class="cls-8" d="M232.56,75.37c15.78,23.03,33.12,44.85,51.15,66.14-.29-.7-.44-1.05-.74-1.75-17.41-20.6-33.9-41.69-49.42-63.76-.4-.26-.6-.38-1-.63Z"/>
                  <path class="cls-8" d="M245.24,84.89c8.99,11.88,18.23,23.48,27.77,34.92-.36-.63-.54-.94-.91-1.56-8.88-10.66-17.61-21.41-25.92-32.52-.38-.34-.57-.51-.94-.84Z"/>
                  <path class="cls-8" d="M146.78,315.83c-8.97-10.53-18.23-20.81-27.57-31.02.36.61.54.91.91,1.51,8.71,9.42,17.27,18.99,25.62,28.73.42.31.62.47,1.04.78Z"/>
                  <path class="cls-8" d="M161.01,324.58c-16.75-20.83-34.13-41.05-51.81-61.08.25.7.38,1.04.64,1.74,17.08,19.27,33.86,38.73,50.04,58.77.45.23.68.35,1.13.58Z"/>
                  <path class="cls-8" d="M176.25,330.59c-23.37-31.22-48.64-60.94-73.34-91.09.13.77.2,1.16.34,1.93,24.25,29.37,48.75,58.49,71.81,88.81.48.15.72.22,1.2.36Z"/>
                  <path class="cls-8" d="M192.22,333.66c-29.5-40.84-61.97-79.43-91.29-120.39-.01.83-.01,1.25-.01,2.08,29.08,40.11,60.99,78.06,90.06,118.19.5.05.75.08,1.24.13Z"/>
                  <path class="cls-8" d="M208.5,333.58c-33.8-50.05-73-96.11-105.08-147.36-.13.81-.2,1.22-.32,2.03,31.88,50.55,70.61,96.09,104.16,145.45.5-.04.75-.07,1.24-.12Z"/>
                  <path class="cls-8" d="M224.42,330.36c-35.48-58.5-81.5-109.81-115.14-169.7-.23.76-.34,1.14-.56,1.9,33.62,59.25,79.05,110.26,114.49,168.15.48-.14.72-.21,1.2-.35Z"/>
                  <path class="cls-8" d="M239.65,324.23c-34-65.99-90.64-119.02-121.66-187.14-.31.69-.46,1.03-.76,1.73,31.38,67.52,86.96,120.56,121.28,185.98.46-.22.68-.34,1.14-.57Z"/>
                  <path class="cls-8" d="M253.88,315.39c-11.97-35.83-44.73-68.66-65.52-99.64-20.46-30.48-48.11-64.28-59.3-99.79-.37.61-.56.91-.92,1.52,11.75,35.46,38.76,68.96,59.34,99.58,20.89,31.08,52.74,63.39,65.35,99.1.42-.3.63-.46,1.05-.77Z"/>
                  <path class="cls-8" d="M141.35,98.6c-.15.18-.22.28-.37.46.88,12.11,9.53,24.08,15.53,34.4,13.21,22.72,27.76,44.68,42.38,66.5,14.12,21.08,28.81,41.76,43.15,62.69,7.58,11.07,22.96,28.04,23.83,42.39.38-.38.56-.57.94-.95-.27-13.9-16.04-31.24-23.29-41.83-14.34-20.96-29.05-41.67-43.2-62.76-14.72-21.93-29.35-43.99-42.64-66.82-6.09-10.45-14.75-22.49-15.75-34.74-.23.27-.34.4-.57.68Z"/>
                </g>
                <g>
                  <path class="cls-8" d="M247.01,86.68c-8.8,35.11-38.58,69.29-58.35,98.7-21.69,32.26-53.78,66.25-67.51,102.98-.38-.59-.57-.88-.94-1.48,14.51-36.69,45.73-70.28,67.61-102.77,19.88-29.53,48.86-63.21,58.24-98.27.38.34.57.51.95.85Z"/>
                  <path class="cls-8" d="M234.35,76.85c-28.83,70.24-87.07,125.27-123.95,190.85-.28-.68-.41-1.02-.68-1.7,37.3-64.96,94.46-120.08,123.64-189.78.4.25.6.38,1,.64Z"/>
                  <path class="cls-8" d="M221.13,69.93c-30.74,62.92-78.37,116.97-117.83,174.35-.16-.76-.23-1.14-.38-1.9,39.41-56.8,86.39-110.54,117.18-172.85.41.16.62.24,1.03.4Z"/>
                  <path class="cls-8" d="M207.55,66.22c-30.17,54.48-69.77,102.77-107.15,152.32-.02-.82-.02-1.23-.03-2.06,37.09-48.92,76.1-96.62,106.13-150.4.42.05.63.08,1.05.14Z"/>
                  <path class="cls-8" d="M194,66.01c-26.13,44.83-59.11,85.41-91.9,125.45.11-.82.17-1.22.29-2.04,32.34-39.33,64.74-79.26,90.59-123.28.41-.06.62-.08,1.03-.13Z"/>
                  <path class="cls-8" d="M180.57,69.32c-22.08,33.92-47,65.53-73.2,96.34.21-.77.32-1.15.53-1.91,25.57-30.01,50.33-60.81,71.63-94.04.41-.16.62-.24,1.03-.39Z"/>
                  <path class="cls-8" d="M167.28,75.88c-15.92,22.98-33.47,44.67-51.67,65.86.29-.7.44-1.05.74-1.74,17.58-20.51,34.26-41.48,49.92-63.49.4-.26.6-.38,1.01-.63Z"/>
                  <path class="cls-8" d="M154.4,85.4c-9.09,11.84-18.44,23.39-28.08,34.78.36-.62.54-.93.91-1.54,8.98-10.61,17.81-21.31,26.21-32.39.38-.34.58-.51.96-.85Z"/>
                  <path class="cls-8" d="M253.13,316.17c9.03-10.51,18.32-20.77,27.69-30.97-.36.61-.55.91-.92,1.51-8.74,9.41-17.34,18.96-25.73,28.68-.41.31-.62.47-1.04.78Z"/>
                  <path class="cls-8" d="M238.92,324.94c16.83-20.77,34.29-40.96,51.99-60.99-.25.7-.38,1.04-.65,1.73-17.1,19.27-33.95,38.7-50.21,58.68-.45.24-.68.35-1.13.58Z"/>
                  <path class="cls-8" d="M223.73,331c23.41-31.17,48.82-60.77,73.46-90.96-.13.77-.19,1.15-.33,1.92-24.2,29.4-48.78,58.45-71.93,88.68-.48.15-.72.22-1.19.36Z"/>
                  <path class="cls-8" d="M207.85,334.12c29.54-40.73,62.13-79.16,91.19-120.23.02.83.02,1.25.03,2.08-28.84,40.21-60.87,78.01-89.98,118.03-.49.06-.74.08-1.24.13Z"/>
                  <path class="cls-8" d="M191.63,334.08c33.95-49.78,72.89-95.8,104.7-147.08.14.8.2,1.21.33,2.02-31.62,50.56-70.09,96.08-103.79,145.18-.5-.04-.74-.07-1.24-.12Z"/>
                  <path class="cls-8" d="M175.76,330.88c36.01-57.98,81.76-109.26,114.65-169.4.23.76.34,1.14.56,1.9-32.9,59.49-78.05,110.47-114.01,167.85-.48-.14-.72-.21-1.2-.35Z"/>
                  <path class="cls-8" d="M160.61,324.72c33.65-66,90.29-118.88,121.13-186.97.3.69.45,1.04.75,1.74-31.19,67.49-86.75,120.39-120.75,185.8-.45-.23-.68-.34-1.13-.57Z"/>
                  <path class="cls-8" d="M146.49,315.83c12.9-35.73,44.34-68.09,65.16-99.38,20.08-30.18,49.22-64.55,59.11-100.08.37.61.55.92.92,1.54-10.53,35.5-38.91,69.48-59.14,99.83-20.9,31.37-51.54,63.27-65.01,98.85-.42-.31-.63-.46-1.04-.77Z"/>
                  <path class="cls-8" d="M258.55,98.74c.15.19.22.28.37.47.17,13.3-12.44,29.77-18.79,40.42-12.38,20.77-25.83,40.89-39.17,61.04-15.2,22.95-31.06,45.43-46.49,68.22-7.34,10.84-18.22,23.28-19.85,36.51-.37-.38-.56-.57-.93-.96,1.11-12.92,12.18-25.43,19.31-35.96,15.43-22.82,31.31-45.32,46.53-68.28,13.42-20.25,26.95-40.46,39.41-61.33,6.46-10.82,19.08-27.31,19.05-40.79.23.27.34.4.56.67Z"/>
                </g>
              </g>
            </g>
            <path class="cls-11" d="M223.81,292.25c-53.77,0-102.67-55.38-97.37-128.31,1.59-21.84,6.8-42.53,14.47-60.88-20.07,25.03-35.16,61.19-38.07,101.24-5.3,72.93,43.59,128.31,97.37,128.31,38.81,0,75.61-28.89,90.71-72.35-18.06,20.06-42.16,32-67.1,32Z"/>
            <ellipse class="cls-15" cx="236.44" cy="158.08" rx="30.92" ry="39.02"/>
          </g>
        </g>
      </g>
    </g>
  </g>
</svg>