<?xml version="1.0" encoding="UTF-8"?>
<svg xmlns="http://www.w3.org/2000/svg" viewBox="0 0 400 400">
  <defs>
    <style>
      .cls-1 {
        fill: [[color_1]];
      }

      .cls-1, .cls-2, .cls-3, .cls-4, .cls-5, .cls-6, .cls-7, .cls-8 {
        stroke-width: 0px;
      }

      .cls-2 {
        fill: [[color_2]];
      }

      .cls-3 {
        fill: [[color_3]];
      }

      .cls-4 {
        fill: [[color_4]];
      }

      .cls-5 {
        fill: [[color_5]];
      }

      .cls-6 {
        fill: [[color_6]];
      }

      .cls-9 {
        isolation: isolate;
      }

      .cls-7 {
        fill: [[color_7]];
        mix-blend-mode: multiply;
      }

      .cls-8 {
        fill: [[color_8]];
        mix-blend-mode: screen;
      }
    </style>
  </defs>
  <g class="cls-9">
    <g id="_Слой_2" data-name="Слой 2">
      <g id="_Слой_1-2" data-name="Слой 1">
        <g>
          <rect class="cls-1" width="400" height="400"/>
          <g>
            <path class="cls-6" d="M299.44,204.17c6.47,74.19-44.56,130.66-99.52,130.66s-104.94-56.39-99.52-130.66c5.58-76.45,54.88-139,99.52-139s93.01,64.4,99.52,139Z"/>
            <g>
              <g>
                <path class="cls-3" d="M153.99,91.69c-.24.16-.44.22-.54.13-1.22-1.1-1.73-1.52-2.54-2.06-.13-.08.22-.69.77-1.37.55-.68,1.08-1.17,1.21-1.08.82.55,1.33.98,2.55,2.09.19.17-.09.86-.64,1.53-.27.33-.56.6-.81.76Z"/>
                <path class="cls-3" d="M148.04,95.87c-.24.18-.43.26-.5.2-.16-.12.18-.76.74-1.44,3.64-4.37,5.41-6.56,8.83-10.86.53-.67,1.08-1.11,1.24-.97.16.14-.13.79-.66,1.45-3.42,4.29-5.2,6.46-8.83,10.83-.28.34-.57.62-.81.8Z"/>
              </g>
              <path class="cls-5" d="M172.07,77.77c-.57,2.22-2.56,4.71-4.44,5.59-1.88.89-2.83-.11-2.13-2.25.7-2.15,2.69-4.7,4.44-5.66,1.75-.96,2.7.1,2.13,2.32Z"/>
              <g>
                <path class="cls-2" d="M204.6,76.64c-.26-.02-.53-.16-.73-.42-2.66-3.33-3.92-4.91-6.2-7.85-.35-.46-.33-1.22.04-1.7.37-.48.94-.5,1.29-.04,2.28,2.98,3.57,4.57,6.24,7.92.41.52.45,1.31.07,1.77-.19.23-.44.33-.71.32Z"/>
                <path class="cls-2" d="M198.2,76.49c-.26,0-.51-.11-.7-.35-.38-.48-.36-1.27.04-1.77,2.53-3.24,3.75-4.78,6.02-7.63.35-.44.94-.39,1.33.11.39.5.43,1.26.08,1.7-2.26,2.82-3.52,4.34-6.05,7.56-.2.25-.45.38-.71.38Z"/>
              </g>
              <path class="cls-4" d="M184.24,79.12c-2.69.61-4.43-1.42-3.87-4.59.56-3.18,3-6.39,5.42-7.07,2.42-.68,4.15,1.5,3.85,4.75-.3,3.25-2.72,6.31-5.4,6.91ZM185.46,69.81c-1.45.39-2.88,2.25-3.17,4.12-.3,1.87.72,3.07,2.27,2.71,1.54-.36,2.96-2.18,3.17-4.07.21-1.9-.81-3.15-2.26-2.76Z"/>
              <path class="cls-3" d="M221.24,75.05c.43,2.28-.78,3.67-2.71,3.15-1.92-.53-3.72-2.8-4.01-5.13s.92-3.79,2.71-3.22c1.79.57,3.58,2.92,4.01,5.2Z"/>
              <g>
                <path class="cls-4" d="M254.54,97.98c-.23-.19-.52-.47-.8-.81-3.64-4.4-5.42-6.59-8.86-10.93-.53-.67-.84-1.32-.7-1.43.14-.12.67.34,1.21,1.02,3.44,4.35,5.22,6.55,8.85,10.96.56.68.92,1.31.78,1.42-.07.05-.25-.04-.48-.22Z"/>
                <path class="cls-4" d="M248.74,93.61c-.24-.17-.52-.44-.8-.78-.55-.67-.85-1.35-.68-1.51,1.1-1,1.55-1.36,2.23-1.79.11-.07.62.44,1.17,1.13.55.68.92,1.28.81,1.35-.68.42-1.13.77-2.22,1.76-.09.08-.28.01-.51-.16Z"/>
              </g>
              <path class="cls-5" d="M235.77,86.38c-2.61-1.31-5.42-4.82-6.24-7.89-.83-3.07.42-4.45,2.78-2.99,2.36,1.46,5.15,5.08,6.23,8,1.08,2.92-.16,4.19-2.77,2.88ZM233.04,77.69c-1.41-.84-2.14-.04-1.63,1.74.52,1.78,2.16,3.85,3.66,4.64,1.5.79,2.23.03,1.63-1.7-.6-1.73-2.24-3.84-3.65-4.68Z"/>
              <path class="cls-3" d="M226.99,270.94c-3.88.32-6.92-2.73-6.76-6.8.15-4.07,3.53-7.6,7.53-7.84,4-.24,7.04,2.82,6.77,6.81-.27,3.99-3.66,7.5-7.54,7.83ZM227.62,259.38c-2.33.15-4.31,2.21-4.41,4.59-.1,2.38,1.67,4.16,3.96,3.98,2.29-.18,4.27-2.24,4.42-4.59.14-2.35-1.64-4.14-3.97-3.99Z"/>
              <path class="cls-4" d="M280.57,255.96c-.5,2.48-2.98,4.97-5.54,5.57-2.55.6-4.26-1.01-3.83-3.6.43-2.59,2.89-5.1,5.5-5.58,2.62-.49,4.36,1.14,3.86,3.62Z"/>
              <g>
                <path class="cls-5" d="M255.94,266.28c-.36.06-.69-.01-.93-.24-3.04-2.94-4.65-4.51-7.98-7.82-.52-.51-.44-1.45.18-2.09.62-.64,1.54-.74,2.06-.23,3.34,3.31,4.95,4.88,8,7.83.47.46.35,1.34-.28,1.98-.31.32-.69.52-1.04.58Z"/>
                <path class="cls-5" d="M247.08,267.68c-.36.05-.71-.04-.96-.28-.49-.48-.4-1.4.22-2.04,3.99-4.12,6-6.2,9.98-10.32.62-.64,1.53-.76,2.02-.27.5.49.4,1.39-.22,2.03-4,4.12-6,6.19-10,10.31-.31.32-.69.51-1.05.56Z"/>
              </g>
              <path class="cls-2" d="M132.32,258.56c.41,2.63-1.33,4.28-3.91,3.71-2.58-.58-5.07-3.08-5.55-5.6-.48-2.52,1.29-4.19,3.94-3.72,2.65.47,5.11,2.99,5.53,5.62Z"/>
              <g>
                <path class="cls-5" d="M181.31,270.51c-.38-.02-.76-.19-1.06-.5-3.88-4.01-5.85-6.06-9.8-10.17-.61-.64-.66-1.6-.11-2.16.55-.56,1.5-.5,2.11.14,3.95,4.12,5.92,6.16,9.8,10.18.6.62.64,1.58.08,2.14-.28.28-.65.41-1.02.38Z"/>
                <path class="cls-5" d="M172.08,269.86c-.37-.03-.75-.21-1.06-.52-.61-.63-.67-1.57-.14-2.11,3.45-3.46,5.24-5.27,8.9-9.01.57-.58,1.52-.54,2.13.09.61.63.64,1.61.07,2.19-3.66,3.74-5.45,5.55-8.9,9.01-.27.27-.63.38-1,.35Z"/>
              </g>
              <path class="cls-3" d="M152.22,268.51c-3.76-.56-7.21-4.11-7.67-7.91-.46-3.8,2.35-6.56,6.23-6.13,3.88.43,7.3,3.99,7.64,7.93.34,3.94-2.44,6.68-6.2,6.11ZM151.04,257.42c-2.26-.27-3.9,1.35-3.65,3.59.25,2.24,2.27,4.32,4.49,4.64,2.22.31,3.85-1.29,3.64-3.58-.21-2.29-2.22-4.38-4.48-4.64Z"/>
              <path class="cls-4" d="M207.13,264.61c-.04,2.96-2.39,5.38-5.25,5.4-2.87.02-5.2-2.37-5.22-5.34-.02-2.96,2.32-5.38,5.24-5.4,2.92-.01,5.27,2.38,5.23,5.34Z"/>
              <path class="cls-3" d="M126.81,173.98c-3.67.47-6.11-2.14-5.42-5.78.69-3.65,4.17-7.15,7.72-7.82,3.55-.67,5.96,1.92,5.38,5.76-.58,3.85-4.02,7.37-7.69,7.84ZM128.6,163.16c-2.1.37-4.13,2.42-4.52,4.59-.39,2.16,1.03,3.68,3.17,3.39,2.14-.3,4.15-2.36,4.51-4.59.35-2.23-1.06-3.75-3.16-3.38Z"/>
              <path class="cls-4" d="M181.2,161.85c-.12,3.07-2.49,5.67-5.31,5.8-2.81.13-4.95-2.23-4.76-5.27.19-3.04,2.57-5.64,5.32-5.8,2.75-.16,4.87,2.2,4.75,5.27Z"/>
              <g>
                <path class="cls-3" d="M231.03,169.18c-.37-.02-.76-.2-1.06-.53-3.93-4.24-5.88-6.36-9.72-10.55-.59-.65-.64-1.65-.11-2.24.53-.59,1.44-.53,2.03.12,3.83,4.2,5.78,6.32,9.71,10.56.61.66.68,1.66.14,2.24-.27.29-.63.43-1.01.4Z"/>
                <path class="cls-3" d="M221.76,168.7c-.38-.02-.76-.19-1.06-.52-.6-.65-.64-1.67-.09-2.28,3.53-3.89,5.26-5.79,8.58-9.44.51-.57,1.41-.49,2.02.16.6.66.68,1.64.16,2.21-3.32,3.65-5.04,5.55-8.58,9.44-.27.3-.64.44-1.02.43Z"/>
              </g>
              <g>
                <path class="cls-5" d="M155.53,170c-.37.03-.73-.09-.98-.37-3.29-3.61-4.87-5.35-7.91-8.65-.47-.51-.35-1.45.27-2.1s1.49-.77,1.96-.26c3.03,3.3,4.62,5.04,7.9,8.65.51.56.43,1.55-.19,2.2-.31.33-.69.51-1.06.54Z"/>
                <path class="cls-5" d="M146.49,170.8c-.36.04-.71-.08-.96-.35-.49-.54-.38-1.49.23-2.14,3.99-4.19,5.99-6.3,9.94-10.53.61-.66,1.5-.76,1.99-.22.49.54.39,1.51-.22,2.16-3.95,4.23-5.94,6.34-9.93,10.53-.31.32-.69.51-1.05.54Z"/>
              </g>
              <path class="cls-2" d="M201.06,169.33c-3.98-.01-7.13-3.52-7.08-7.82.05-4.3,3.16-7.8,7.02-7.78,3.85.02,7.05,3.54,7.13,7.84.08,4.29-3.09,7.77-7.07,7.76ZM201.01,156.93c-2.27-.01-4.1,2.04-4.11,4.56-.01,2.52,1.83,4.57,4.15,4.58,2.32,0,4.17-2.03,4.14-4.55-.03-2.52-1.91-4.58-4.18-4.59Z"/>
              <path class="cls-5" d="M255.4,165.03c.36,2.86-1.57,4.96-4.3,4.69-2.73-.27-5.19-2.88-5.49-5.81-.3-2.94,1.62-5.04,4.3-4.69,2.67.35,5.14,2.95,5.5,5.81Z"/>
              <path class="cls-4" d="M275.21,174.53c-3.63-.49-7.07-4-7.68-7.81-.61-3.81,1.75-6.34,5.26-5.64,3.51.7,6.98,4.2,7.7,7.8.72,3.6-1.66,6.15-5.29,5.66ZM273.34,163.82c-2.07-.38-3.46,1.1-3.09,3.31.37,2.21,2.39,4.26,4.5,4.58s3.5-1.18,3.09-3.31c-.41-2.14-2.43-4.19-4.51-4.57Z"/>
              <g>
                <path class="cls-2" d="M165.19,102.56c-.29.09-.55.05-.72-.13-2.15-2.36-3.14-3.43-4.94-5.32-.28-.29-.05-1.05.49-1.71.55-.65,1.21-.95,1.48-.65,1.79,1.91,2.79,2.98,4.93,5.35.33.37.17,1.19-.38,1.83-.27.32-.59.54-.88.63Z"/>
                <path class="cls-2" d="M158.09,104.97c-.29.11-.54.09-.69-.07-.31-.33-.09-1.12.47-1.77,3.63-4.24,5.4-6.34,8.81-10.47.53-.64,1.2-.89,1.5-.55.31.34.13,1.13-.39,1.77-3.41,4.11-5.18,6.21-8.81,10.43-.28.33-.6.56-.89.66Z"/>
              </g>
              <path class="cls-4" d="M142.45,112.51c-2.89,1.45-4.16.27-2.83-2.65,1.33-2.92,4.58-6.69,7.25-8.34,2.67-1.66,3.93-.42,2.83,2.71-1.11,3.13-4.36,6.83-7.25,8.28ZM145.92,103.74c-1.59.94-3.5,3.14-4.25,4.88-.75,1.74,0,2.43,1.66,1.56,1.67-.87,3.57-3.05,4.25-4.86.68-1.81-.07-2.53-1.66-1.58Z"/>
              <path class="cls-3" d="M185.61,92.53c-.23,2.56-2.2,4.92-4.39,5.3-2.19.38-3.69-1.33-3.34-3.85.35-2.52,2.33-4.94,4.4-5.36,2.07-.42,3.56,1.35,3.33,3.91Z"/>
              <g>
                <path class="cls-4" d="M224.32,99.85c-.29-.06-.61-.26-.87-.57-3.35-4-4.97-5.97-8.07-9.76-.48-.59-.56-1.42-.19-1.85.37-.44,1.06-.31,1.54.28,3.1,3.81,4.72,5.78,8.07,9.8.52.62.65,1.46.27,1.88-.19.21-.46.28-.76.21Z"/>
                <path class="cls-4" d="M217.04,98.48c-.3-.05-.61-.22-.86-.52-.5-.6-.57-1.46-.18-1.92,2.57-2.96,3.78-4.35,6.02-6.91.35-.4,1.02-.22,1.52.4.5.61.63,1.43.29,1.82-2.24,2.54-3.45,3.92-6.02,6.86-.2.23-.48.31-.78.27Z"/>
              </g>
              <path class="cls-5" d="M200.79,98.07c-3.13-.03-5.51-2.91-5.4-6.5.1-3.59,2.45-6.56,5.34-6.53,2.89.03,5.36,3.05,5.49,6.64.13,3.59-2.3,6.42-5.43,6.39ZM200.75,87.68c-1.72-.02-3.11,1.71-3.14,3.81-.03,2.1,1.37,3.81,3.17,3.82,1.81.02,3.23-1.66,3.18-3.76-.05-2.1-1.49-3.86-3.22-3.88Z"/>
              <path class="cls-2" d="M242.61,100.74c.67,2.36-.52,3.62-2.66,2.84-2.14-.78-4.32-3.36-4.87-5.8-.55-2.43.64-3.74,2.66-2.88,2.02.85,4.2,3.48,4.86,5.84Z"/>
              <path class="cls-3" d="M259.13,113.53c-2.84-1.49-6.08-5.22-7.22-8.33-1.13-3.12.08-4.3,2.69-2.61,2.62,1.7,5.85,5.48,7.21,8.39,1.36,2.91.15,4.04-2.69,2.55ZM255.57,104.8c-1.56-.97-2.27-.28-1.58,1.52.69,1.8,2.59,3.99,4.23,4.89,1.64.9,2.35.23,1.58-1.5-.77-1.73-2.66-3.94-4.23-4.91Z"/>
              <g>
                <path class="cls-5" d="M138.05,284.41c-.32-.1-.67-.33-.99-.65-4.03-4.13-6.06-6.19-10.13-10.29-.63-.64-.85-1.41-.49-1.75.37-.33,1.18-.1,1.81.54,4.06,4.1,6.09,6.17,10.12,10.29.62.64.83,1.43.47,1.77-.18.17-.47.19-.79.08Z"/>
                <path class="cls-5" d="M130.25,281.74c-.31-.11-.66-.35-.98-.66-.63-.64-.88-1.39-.55-1.68,2.13-1.91,3.32-2.99,5.87-5.37.4-.37,1.23-.16,1.85.48s.81,1.46.41,1.83c-2.55,2.38-3.73,3.46-5.86,5.37-.17.15-.44.15-.75.04Z"/>
              </g>
              <path class="cls-4" d="M159.63,284.5c.37,2.63-1.38,4.33-3.92,3.78-2.54-.55-4.97-3.08-5.44-5.64-.46-2.56,1.3-4.25,3.93-3.78,2.63.48,5.06,3,5.43,5.63Z"/>
              <path class="cls-3" d="M178.8,293.8c-3.63-.38-6.88-3.77-7.24-7.52-.36-3.75,2.45-6.53,6.25-6.22,3.8.32,7.06,3.67,7.24,7.49.19,3.82-2.63,6.63-6.26,6.25ZM178,282.96c-2.21-.19-3.85,1.44-3.67,3.65.19,2.21,2.09,4.18,4.24,4.4,2.15.22,3.8-1.43,3.67-3.66-.13-2.23-2.03-4.2-4.24-4.39Z"/>
              <path class="cls-4" d="M231.05,285.95c-.28,2.69-2.64,5.14-5.27,5.46-2.62.32-4.6-1.64-4.4-4.37.19-2.73,2.55-5.17,5.27-5.45,2.72-.28,4.69,1.67,4.4,4.36Z"/>
              <g>
                <path class="cls-3" d="M273.72,280.33c-.31.12-.58.12-.73-.01-2.02-1.79-3.15-2.82-5.6-5.09-.38-.35-.19-1.16.44-1.8.63-.64,1.45-.86,1.83-.51,2.46,2.27,3.59,3.29,5.62,5.09.31.28.05,1.01-.58,1.65-.32.32-.66.55-.97.67Z"/>
                <path class="cls-3" d="M266.02,283.13c-.32.11-.6.1-.77-.06-.35-.32-.13-1.1.5-1.73,4.05-4.12,6.09-6.18,10.15-10.26.63-.63,1.43-.88,1.78-.56.35.32.12,1.08-.51,1.71-4.08,4.08-6.12,6.14-10.17,10.26-.31.32-.67.55-.98.65Z"/>
              </g>
              <g>
                <path class="cls-5" d="M206.62,293.85c-.36.01-.71-.12-.97-.38-3.44-3.47-5.23-5.28-8.88-9-.57-.58-.58-1.5-.02-2.07.56-.57,1.48-.56,2.04.02,3.66,3.72,5.45,5.52,8.88,8.98.53.54.5,1.43-.05,2-.28.29-.64.44-.99.45Z"/>
                <path class="cls-5" d="M197.85,293.95c-.36,0-.71-.15-.99-.43-.55-.56-.56-1.46-.02-2.01,3.5-3.54,5.31-5.39,9.01-9.17.57-.59,1.49-.61,2.04-.05.55.56.53,1.48-.05,2.07-3.7,3.79-5.51,5.64-9.01,9.19-.27.28-.63.41-.98.41Z"/>
              </g>
              <path class="cls-2" d="M248.21,289.1c-3.46.84-5.83-1.43-5.27-5.06.55-3.63,3.96-7.15,7.6-7.85,3.64-.7,6.02,1.57,5.29,5.05-.73,3.48-4.16,7.01-7.62,7.86ZM250.1,278.92c-2.11.43-4.11,2.49-4.46,4.6-.35,2.11,1.04,3.44,3.09,2.96,2.05-.48,4.06-2.54,4.46-4.6.41-2.06-.99-3.39-3.1-2.96Z"/>
              <path class="cls-4" d="M130.52,189.28c-.26,2.88-2.67,5.32-5.4,5.45-2.73.12-4.72-2.04-4.43-4.82.29-2.77,2.72-5.2,5.42-5.42,2.7-.23,4.66,1.92,4.41,4.79Z"/>
              <g>
                <path class="cls-3" d="M180.39,194.25c-.39,0-.78-.15-1.07-.48-3.77-4.16-5.63-6.21-9.25-10.21-.56-.62-.52-1.65.09-2.3.61-.66,1.55-.69,2.11-.07,3.61,3.99,5.47,6.04,9.24,10.19.58.64.57,1.7-.04,2.36-.3.33-.7.5-1.09.5Z"/>
                <path class="cls-3" d="M170.78,194.39c-.39,0-.77-.15-1.06-.47-.57-.63-.54-1.68.07-2.33,3.94-4.24,5.92-6.37,9.82-10.61.6-.66,1.55-.68,2.13-.05.57.63.55,1.68-.05,2.33-3.9,4.24-5.87,6.37-9.81,10.62-.31.33-.7.5-1.09.5Z"/>
              </g>
              <path class="cls-2" d="M149.83,195.95c-3.96.1-6.97-3.21-6.68-7.36.29-4.15,3.72-7.7,7.61-7.94,3.89-.24,6.87,3.04,6.65,7.32-.22,4.28-3.61,7.87-7.57,7.98ZM150.53,183.79c-2.29.12-4.29,2.21-4.45,4.66-.16,2.45,1.6,4.38,3.91,4.31,2.31-.08,4.31-2.18,4.44-4.67.14-2.49-1.61-4.42-3.9-4.3Z"/>
              <path class="cls-5" d="M206.99,187.2c.04,3.21-2.33,5.81-5.3,5.8-2.97,0-5.34-2.62-5.34-5.83,0-3.21,2.35-5.8,5.27-5.79,2.92,0,5.32,2.61,5.36,5.82Z"/>
              <g>
                <path class="cls-2" d="M258.17,195.21c-.38-.01-.76-.18-1.07-.49-3.96-4.07-5.96-6.14-9.94-10.32-.62-.65-.69-1.65-.16-2.23.53-.58,1.45-.52,2.07.12,3.99,4.17,5.99,6.24,9.95,10.3.61.63.68,1.61.15,2.19-.27.29-.63.43-1.01.42Z"/>
                <path class="cls-2" d="M248.85,194.9c-.38-.01-.77-.18-1.08-.5-.62-.64-.67-1.65-.13-2.26,3.52-3.88,5.23-5.77,8.53-9.4.51-.56,1.42-.49,2.04.14.62.64.71,1.6.19,2.17-3.31,3.63-5.02,5.52-8.54,9.41-.27.3-.64.45-1.03.43Z"/>
              </g>
              <path class="cls-4" d="M227.94,195.53c-4.06-.07-7.48-3.73-7.6-8.14-.13-4.41,3.02-7.87,7.01-7.72,3.99.15,7.4,3.79,7.6,8.11.2,4.33-2.94,7.81-7.01,7.74ZM227.49,182.93c-2.35-.08-4.19,1.95-4.11,4.53.08,2.57,2.08,4.72,4.46,4.76,2.37.05,4.22-1.99,4.11-4.53-.11-2.55-2.11-4.68-4.46-4.76Z"/>
              <path class="cls-3" d="M282.37,190.32c.32,2.72-1.61,4.83-4.31,4.7-2.7-.13-5.11-2.54-5.4-5.37-.29-2.83,1.63-4.92,4.3-4.68,2.66.24,5.09,2.63,5.42,5.35Z"/>
              <path class="cls-3" d="M142.59,123.79c-.7,2.44-3.13,5.09-5.43,5.91-2.3.82-3.51-.4-2.71-2.74.8-2.34,3.24-5,5.44-5.93,2.2-.93,3.41.31,2.7,2.76Z"/>
              <g>
                <path class="cls-4" d="M183.5,120.22c-.33.03-.65-.08-.87-.34-2.96-3.36-4.37-4.97-7.04-7.99-.41-.47-.3-1.35.23-1.98.54-.63,1.3-.76,1.71-.29,2.67,3.04,4.08,4.65,7.03,8.02.46.52.4,1.45-.13,2.06-.27.31-.61.48-.93.51Z"/>
                <path class="cls-4" d="M175.44,121.16c-.33.05-.64-.05-.86-.3-.44-.49-.34-1.4.22-2.03,3.57-4.09,5.32-6.11,8.67-10.03.52-.61,1.28-.7,1.72-.19.44.5.38,1.4-.14,2.01-3.35,3.91-5.09,5.92-8.66,10-.28.32-.62.5-.94.55Z"/>
              </g>
              <path class="cls-5" d="M157.69,125.37c-3.35.77-5.44-1.47-4.64-5.02.8-3.55,4.02-7.21,7.18-8.12,3.15-.91,5.22,1.39,4.62,5.07-.6,3.69-3.81,7.29-7.16,8.07ZM159.68,114.9c-1.87.52-3.76,2.66-4.2,4.75-.44,2.1.78,3.41,2.72,2.95,1.94-.47,3.82-2.59,4.2-4.73.38-2.15-.84-3.48-2.71-2.97Z"/>
              <path class="cls-2" d="M205.68,113.5c.07,2.79-1.89,5-4.37,4.98-2.48-.02-4.42-2.28-4.38-5.07.04-2.79,1.95-5.06,4.33-5.03,2.38.03,4.36,2.34,4.43,5.13Z"/>
              <g>
                <path class="cls-5" d="M248.81,126.32c-.32-.09-.66-.31-.96-.64-3.82-4.28-5.71-6.42-9.38-10.64-.57-.65-.73-1.51-.36-1.91.37-.4,1.11-.19,1.68.47,3.67,4.24,5.55,6.38,9.38,10.67.59.66.78,1.51.42,1.91-.18.2-.47.24-.79.15Z"/>
                <path class="cls-5" d="M240.97,124.32c-.32-.07-.66-.28-.96-.61-.58-.66-.73-1.54-.34-1.97,2.52-2.75,3.71-4.04,5.9-6.38.34-.36,1.08-.11,1.66.55.58.66.79,1.49.45,1.85-2.19,2.33-3.37,3.61-5.9,6.36-.2.21-.49.27-.81.2Z"/>
              </g>
              <path class="cls-3" d="M223.44,122.07c-3.43-.46-6.45-3.91-6.73-7.74-.28-3.83,2.12-6.56,5.35-6.03,3.23.53,6.25,4.07,6.73,7.82.48,3.75-1.92,6.4-5.34,5.95ZM222.35,111.1c-1.92-.3-3.32,1.29-3.13,3.52.19,2.24,1.96,4.27,3.94,4.55,1.99.28,3.39-1.28,3.13-3.49-.26-2.21-2.03-4.27-3.94-4.57Z"/>
              <path class="cls-4" d="M267.95,128.29c.83,2.32-.33,3.49-2.59,2.63-2.26-.86-4.69-3.51-5.41-5.94-.73-2.42.43-3.61,2.59-2.65,2.16.97,4.59,3.64,5.42,5.95Z"/>
              <g>
                <path class="cls-3" d="M129.42,219.45c-.37-.01-.74-.18-1.03-.48-3.68-3.95-5.48-5.89-8.93-9.68-.54-.59-.5-1.53.08-2.11.58-.58,1.48-.59,2.01,0,3.44,3.8,5.23,5.75,8.89,9.71.57.61.57,1.58,0,2.16-.28.29-.65.42-1.03.4Z"/>
                <path class="cls-3" d="M120.35,219.06c-.36-.02-.73-.18-1.01-.47-.56-.6-.56-1.52,0-2.07,3.59-3.57,5.45-5.45,9.25-9.34.59-.6,1.51-.61,2.05,0,.55.61.52,1.59-.07,2.19-3.78,3.88-5.63,5.75-9.21,9.31-.28.28-.64.4-1.01.39Z"/>
              </g>
              <path class="cls-5" d="M155.21,213.5c-.03,3.14-2.39,5.62-5.28,5.55-2.89-.07-5.22-2.6-5.19-5.67.04-3.07,2.43-5.59,5.31-5.59,2.88,0,5.18,2.58,5.15,5.72Z"/>
              <g>
                <path class="cls-2" d="M207.32,220.76c-.4,0-.8-.16-1.11-.49-3.97-4.25-5.97-6.4-9.9-10.74-.61-.67-.61-1.76,0-2.43.6-.67,1.59-.67,2.2,0,3.93,4.35,5.95,6.51,9.92,10.77.62.66.62,1.73.01,2.39-.3.33-.7.5-1.11.5Z"/>
                <path class="cls-2" d="M197.45,220.78c-.4,0-.8-.17-1.11-.5-.61-.66-.62-1.73,0-2.4,3.92-4.27,5.89-6.44,9.79-10.79.6-.67,1.59-.67,2.21,0,.62.67.63,1.76.02,2.43-3.9,4.33-5.89,6.49-9.81,10.75-.3.33-.7.49-1.1.49Z"/>
              </g>
              <path class="cls-4" d="M175.92,221.77c-4.12-.06-7.47-3.69-7.44-8.15.03-4.46,3.41-8.15,7.51-8.16,4.1-.01,7.42,3.71,7.42,8.24,0,4.52-3.36,8.12-7.48,8.07ZM175.95,208.87c-2.41,0-4.38,2.15-4.39,4.77-.01,2.62,1.94,4.76,4.36,4.78,2.41.02,4.38-2.09,4.39-4.74,0-2.64-1.94-4.81-4.35-4.82Z"/>
              <path class="cls-3" d="M234.17,213.6c.05,3.2-2.33,5.8-5.3,5.84-2.97.04-5.39-2.54-5.43-5.78-.04-3.24,2.32-5.89,5.28-5.89,2.96,0,5.4,2.63,5.45,5.83Z"/>
              <g>
                <path class="cls-4" d="M284.01,218.9c-.36.02-.72-.11-.99-.38-3.55-3.48-5.4-5.32-9.18-9.14-.59-.59-.63-1.56-.1-2.16.53-.6,1.44-.59,2.03,0,3.8,3.83,5.66,5.68,9.23,9.17.55.54.56,1.45.01,2.03-.27.29-.63.45-.99.47Z"/>
                <path class="cls-4" d="M275.05,219.3c-.37.02-.74-.11-1.02-.4-.56-.56-.57-1.52-.01-2.12,3.59-3.91,5.33-5.82,8.67-9.55.52-.58,1.4-.57,1.98,0,.58.57.63,1.5.11,2.07-3.36,3.72-5.11,5.63-8.72,9.52-.28.3-.65.46-1.01.48Z"/>
              </g>
              <path class="cls-5" d="M254.74,221.09c-3.98.12-7.26-3.27-7.34-7.6-.08-4.34,3.05-7.9,7.02-7.87,3.97.02,7.32,3.5,7.41,7.69.09,4.19-3.11,7.66-7.09,7.78ZM254.54,208.85c-2.33,0-4.17,2.08-4.12,4.6.05,2.52,1.98,4.52,4.31,4.46,2.33-.05,4.2-2.1,4.15-4.57-.05-2.47-2.01-4.5-4.33-4.5Z"/>
              <path class="cls-3" d="M139.82,301.37c-2.9-1.49-6.32-5.06-7.62-7.94-1.3-2.88.21-4.17,3.35-2.89,3.14,1.28,6.55,4.83,7.61,7.91,1.06,3.08-.44,4.4-3.34,2.91ZM136.38,292.85c-1.81-.78-2.69-.02-1.96,1.69.73,1.71,2.73,3.8,4.46,4.65,1.73.85,2.61.08,1.96-1.7-.65-1.78-2.65-3.86-4.46-4.64Z"/>
              <path class="cls-4" d="M183.56,308.77c.21,2.52-1.57,4.29-3.96,3.92-2.39-.37-4.58-2.7-4.91-5.18-.32-2.48,1.45-4.22,3.95-3.89,2.5.33,4.71,2.62,4.91,5.15Z"/>
              <g>
                <path class="cls-3" d="M226.45,312.45c-.31.06-.61,0-.81-.2-2.63-2.57-4.04-3.97-7.02-6.93-.46-.46-.39-1.3.17-1.89.56-.58,1.39-.68,1.86-.22,2.98,2.95,4.39,4.34,7.01,6.91.41.4.28,1.19-.28,1.78-.28.3-.61.48-.92.55Z"/>
                <path class="cls-3" d="M218.67,313.79c-.32.05-.62-.04-.84-.25-.44-.43-.36-1.25.18-1.82,3.5-3.67,5.3-5.57,9-9.43.57-.6,1.4-.74,1.83-.31.43.43.31,1.25-.26,1.85-3.7,3.88-5.5,5.78-9,9.46-.27.29-.6.46-.92.5Z"/>
              </g>
              <g>
                <path class="cls-5" d="M162.73,309.78c-.31-.09-.64-.3-.92-.6-3.71-3.96-5.62-5.98-9.49-10.04-.6-.63-.8-1.41-.44-1.75.36-.34,1.15-.11,1.75.52,3.87,4.06,5.78,6.07,9.49,10.02.58.61.74,1.39.37,1.74-.18.17-.46.2-.77.12Z"/>
                <path class="cls-5" d="M155.29,307.38c-.3-.11-.63-.33-.92-.64-.59-.63-.81-1.37-.47-1.68,2.14-1.97,3.32-3.08,5.86-5.51.39-.38,1.2-.18,1.79.43.59.62.74,1.43.34,1.81-2.55,2.43-3.73,3.55-5.86,5.53-.17.15-.43.16-.73.06Z"/>
              </g>
              <path class="cls-2" d="M201.16,316c-3.35.03-6.16-2.87-6.24-6.4-.09-3.53,2.75-6.39,6.33-6.42,3.58-.03,6.37,2.79,6.24,6.31-.13,3.53-2.97,6.47-6.32,6.51ZM201.23,305.89c-2.07.02-3.74,1.7-3.71,3.77.02,2.07,1.67,3.76,3.66,3.74,1.99-.02,3.66-1.73,3.71-3.8.05-2.07-1.59-3.73-3.66-3.71Z"/>
              <path class="cls-5" d="M248.7,301.55c-.65,2.31-3.02,4.81-5.29,5.57-2.27.76-3.68-.58-3.14-2.96.53-2.39,2.9-4.86,5.29-5.55,2.39-.68,3.79.63,3.14,2.94Z"/>
              <path class="cls-4" d="M262.24,300.37c-2.88,1.53-4.32.27-3.2-2.78,1.11-3.05,4.55-6.59,7.67-7.91,3.11-1.32,4.56-.09,3.21,2.75-1.35,2.84-4.8,6.41-7.68,7.93ZM265.83,291.96c-1.8.8-3.81,2.88-4.49,4.64-.68,1.76.16,2.49,1.88,1.62,1.72-.87,3.74-2.96,4.5-4.64.76-1.69-.08-2.41-1.88-1.62Z"/>
              <g>
                <path class="cls-4" d="M136.39,150.07c-.34.07-.65,0-.85-.2-2.59-2.75-3.81-4.03-6.06-6.36-.35-.36-.12-1.17.5-1.83s1.41-.9,1.76-.54c2.25,2.33,3.47,3.61,6.05,6.37.4.43.23,1.31-.39,1.96-.31.33-.67.53-1.01.61Z"/>
                <path class="cls-4" d="M128.18,151.95c-.33.08-.63.03-.82-.17-.38-.39-.17-1.23.46-1.88,4.05-4.17,6.06-6.29,10.06-10.53.62-.66,1.42-.88,1.79-.48.37.4.18,1.26-.44,1.91-3.99,4.24-6.01,6.36-10.05,10.53-.31.32-.67.53-1,.61Z"/>
              </g>
              <path class="cls-2" d="M160.41,139.85c-.37,2.82-2.76,5.43-5.36,5.84-2.6.4-4.35-1.5-3.9-4.25.45-2.75,2.86-5.38,5.37-5.85,2.51-.47,4.25,1.44,3.89,4.26Z"/>
              <g>
                <path class="cls-5" d="M206.34,143.33c-.36,0-.72-.17-1-.48-3.6-4.01-5.36-5.98-8.72-9.79-.52-.59-.51-1.56.02-2.16s1.37-.61,1.89-.02c3.35,3.82,5.14,5.79,8.74,9.81.56.62.58,1.61.05,2.2-.27.3-.62.44-.98.43Z"/>
                <path class="cls-5" d="M197.51,143.25c-.36,0-.71-.15-.98-.45-.54-.6-.52-1.59.02-2.2,3.52-3.96,5.25-5.89,8.59-9.64.52-.58,1.37-.55,1.91.06s.57,1.58.05,2.15c-3.34,3.73-5.1,5.67-8.62,9.62-.27.31-.63.46-.98.46Z"/>
              </g>
              <path class="cls-3" d="M178.2,145.08c-3.7.27-6.44-2.76-6.08-6.77.36-4.01,3.54-7.58,7.07-7.92,3.53-.34,6.25,2.74,6.06,6.82-.19,4.08-3.35,7.6-7.06,7.87ZM178.98,133.39c-2.09.19-3.95,2.27-4.14,4.63-.19,2.36,1.41,4.14,3.56,3.97,2.15-.17,4-2.23,4.14-4.62.13-2.38-1.46-4.18-3.55-3.99Z"/>
              <path class="cls-4" d="M229.94,138.66c.27,2.88-1.66,5.01-4.31,4.76-2.66-.25-4.97-2.81-5.16-5.73-.19-2.92,1.74-5.07,4.32-4.78,2.57.29,4.88,2.88,5.15,5.76Z"/>
              <path class="cls-3" d="M249.12,148.5c-3.6-.6-6.95-4.25-7.48-8.15-.53-3.9,1.84-6.48,5.27-5.73,3.43.75,6.8,4.42,7.49,8.18.69,3.75-1.68,6.31-5.28,5.71ZM247.39,137.45c-2.03-.42-3.42,1.09-3.09,3.36.33,2.27,2.3,4.41,4.39,4.78,2.09.37,3.48-1.13,3.09-3.35-.39-2.22-2.35-4.37-4.39-4.79Z"/>
              <g>
                <path class="cls-5" d="M275.36,153.2c-.32-.09-.68-.3-.99-.62-4.03-4.16-6.04-6.27-10.03-10.53-.62-.66-.82-1.51-.46-1.89.36-.38,1.15-.14,1.76.51,3.99,4.25,6,6.37,10.03,10.53.62.64.84,1.46.48,1.84-.18.19-.47.23-.8.15Z"/>
                <path class="cls-5" d="M267.28,151.19c-.33-.08-.69-.29-1-.61-.62-.65-.81-1.52-.42-1.93,2.49-2.65,3.66-3.88,5.81-6.1.33-.35,1.1-.09,1.72.57.62.65.86,1.45.53,1.8-2.15,2.23-3.32,3.45-5.82,6.1-.19.21-.5.26-.83.18Z"/>
              </g>
              <g>
                <path class="cls-2" d="M154.09,244.82c-.38-.03-.77-.21-1.08-.53-3.96-4.16-5.94-6.23-9.84-10.35-.6-.64-.64-1.61-.08-2.17.56-.57,1.5-.51,2.1.13,3.89,4.12,5.86,6.2,9.82,10.37.61.65.66,1.62.11,2.18-.28.28-.65.4-1.03.37Z"/>
                <path class="cls-2" d="M144.77,244.03c-.38-.04-.76-.22-1.07-.54-.61-.64-.68-1.59-.14-2.12,3.47-3.47,5.27-5.29,8.94-9.06.57-.58,1.52-.54,2.13.11.61.65.64,1.65.07,2.23-3.67,3.76-5.47,5.58-8.93,9.04-.27.27-.63.38-1.01.34Z"/>
              </g>
              <path class="cls-4" d="M124.82,242.73c-3.74-.51-7.09-3.9-7.42-7.6-.33-3.69,2.55-6.49,6.35-6.18s7.08,3.76,7.34,7.66c.26,3.9-2.53,6.63-6.27,6.12ZM123.91,231.84c-2.22-.2-3.9,1.42-3.71,3.62.18,2.19,2.14,4.19,4.34,4.46,2.2.27,3.85-1.34,3.68-3.6-.16-2.26-2.09-4.28-4.31-4.48Z"/>
              <path class="cls-3" d="M180.29,239.59c.05,3.11-2.28,5.52-5.21,5.41-2.93-.12-5.38-2.69-5.46-5.77-.08-3.07,2.26-5.51,5.22-5.43,2.96.08,5.4,2.68,5.45,5.79Z"/>
              <g>
                <path class="cls-4" d="M232.48,245.7c-.39.02-.77-.11-1.06-.41-3.7-3.78-5.61-5.74-9.46-9.74-.6-.62-.59-1.65.02-2.31.61-.65,1.59-.68,2.19-.05,3.86,4.02,5.76,5.98,9.47,9.76.57.59.54,1.58-.07,2.23-.31.32-.7.5-1.09.52Z"/>
                <path class="cls-4" d="M222.87,246.14c-.39.01-.78-.13-1.07-.43-.59-.6-.57-1.61.04-2.26,3.95-4.17,5.93-6.27,9.85-10.48.61-.65,1.58-.68,2.17-.07.59.61.57,1.62-.04,2.27-3.93,4.2-5.91,6.3-9.86,10.46-.31.32-.7.49-1.09.51Z"/>
              </g>
              <path class="cls-5" d="M201.38,247.66c-4.12.01-7.48-3.5-7.51-7.85-.03-4.35,3.31-7.92,7.48-7.93,4.17,0,7.55,3.55,7.54,7.89-.02,4.34-3.39,7.87-7.51,7.88ZM201.36,235.2c-2.44,0-4.4,2.09-4.39,4.64.01,2.55,1.98,4.61,4.4,4.6,2.42,0,4.4-2.08,4.4-4.62,0-2.55-1.98-4.62-4.42-4.62Z"/>
              <path class="cls-2" d="M258.79,237.52c-.14,2.9-2.57,5.43-5.4,5.68-2.83.24-5.02-1.96-4.91-4.93.11-2.97,2.51-5.54,5.37-5.7,2.86-.17,5.08,2.06,4.93,4.96Z"/>
              <path class="cls-3" d="M277.77,242.41c-3.71.52-6.49-2.18-6.23-6.03.25-3.86,3.49-7.29,7.26-7.6,3.77-.31,6.64,2.44,6.32,6.09-.32,3.65-3.64,7.02-7.35,7.54ZM278.65,231.64c-2.2.21-4.11,2.21-4.27,4.45-.16,2.24,1.48,3.82,3.66,3.54,2.18-.28,4.12-2.26,4.3-4.43.18-2.17-1.49-3.77-3.69-3.56Z"/>
              <path class="cls-4" d="M149.12,315.02c.93,1.96.21,2.54-1.6,1.26-1.81-1.28-4.14-3.83-5.22-5.69-1.08-1.86-.37-2.4,1.59-1.23,1.95,1.17,4.3,3.7,5.23,5.66Z"/>
              <g>
                <path class="cls-3" d="M186.01,333.16c-.28-.05-.57-.21-.81-.47-3.11-3.39-4.73-5.16-8.1-8.81-.52-.57-.65-1.32-.27-1.69.38-.37,1.11-.21,1.64.35,3.37,3.64,5,5.4,8.11,8.77.48.52.55,1.26.17,1.64-.19.19-.46.26-.74.21Z"/>
                <path class="cls-3" d="M179.19,331.71c-.27-.07-.57-.25-.82-.53-.5-.55-.64-1.27-.29-1.61,2.23-2.18,3.46-3.39,6.09-6.01.41-.41,1.16-.3,1.66.24s.57,1.31.16,1.72c-2.63,2.64-3.86,3.86-6.1,6.06-.17.17-.43.21-.7.14Z"/>
              </g>
              <path class="cls-2" d="M164.84,327.31c-2.7-1.23-5.74-4.63-6.78-7.5-1.04-2.88.53-4.29,3.51-3.2,2.98,1.1,6.03,4.41,6.8,7.42.77,3.01-.83,4.51-3.53,3.28ZM162.23,318.9c-1.71-.66-2.63.18-2.06,1.88.58,1.7,2.36,3.68,3.97,4.39,1.62.71,2.55-.16,2.07-1.91-.48-1.75-2.27-3.7-3.98-4.36Z"/>
              <path class="cls-5" d="M205.44,329.27c-.1,2.3-1.91,4.23-4.06,4.26-2.15.04-3.93-1.83-3.97-4.14-.04-2.3,1.79-4.16,4.07-4.2,2.28-.03,4.05,1.77,3.95,4.07Z"/>
              <g>
                <path class="cls-2" d="M241.07,323.8c-.26.14-.47.17-.59.07-1.5-1.33-2.37-2.13-4.33-3.97-.3-.28-.11-1.01.45-1.62.56-.6,1.27-.86,1.57-.58,1.96,1.83,2.83,2.62,4.33,3.94.23.2-.04.86-.6,1.48-.28.31-.58.55-.83.68Z"/>
                <path class="cls-2" d="M234.68,326.88c-.26.12-.49.12-.63,0-.27-.25-.06-.94.48-1.54,3.5-3.85,5.31-5.82,9.01-9.82.57-.62,1.27-.92,1.53-.68.27.24,0,.93-.57,1.55-3.7,4.01-5.51,5.99-9.01,9.85-.27.3-.57.52-.83.64Z"/>
              </g>
              <path class="cls-4" d="M219.91,332.63c-2.85.71-4.87-1.33-4.49-4.48.38-3.15,3.23-6.18,6.35-6.81,3.11-.63,5.12,1.31,4.47,4.38-.65,3.07-3.48,6.21-6.32,6.92ZM221.39,323.74c-1.79.38-3.46,2.17-3.72,4.01-.25,1.84.93,3.02,2.63,2.61,1.7-.41,3.36-2.23,3.71-4.04.35-1.81-.83-2.96-2.62-2.58Z"/>
              <path class="cls-3" d="M260.12,308.93c-1.14,1.82-3.5,4.38-5.29,5.71-1.79,1.32-2.44.82-1.45-1.11.99-1.93,3.37-4.46,5.3-5.68,1.93-1.22,2.58-.74,1.44,1.08Z"/>
              <path class="cls-6" d="M140.81,99.53s-.03.04-.05.06c.25-.3.49-.58.71-.85-.26.31-.4.47-.66.79Z"/>
              <path class="cls-2" d="M142.32,98.71c1.64-2.45,1.25-2.46-.85.03-.23.27-.47.55-.71.85-.57.68-.85,1.03-1.41,1.72.27-.32.53-.62.77-.89,1.26-1.43,1.49-1.43.5-.02-.99,1.41-2.89,3.63-4.24,4.97-.25.25-.45.44-.63.6-.54.73-.81,1.1-1.35,1.85.21-.19.43-.4.69-.64,2.35-2.23,5.6-6.02,7.24-8.47Z"/>
              <path class="cls-2" d="M261.02,102.33c.71.97,1.76,2.27,2.83,3.52-1.41-1.93-2.13-2.87-3.59-4.7-.18-.17.04.22.75,1.19Z"/>
              <path class="cls-2" d="M291.95,253.17c-.58,2.34.3,3.92,2.05,4.16.35-1.12.52-1.69.84-2.82-.43-.42-.59-1.12-.36-2.02.24-.9.82-1.83,1.59-2.6.29-1.16.42-1.74.69-2.92-2.31,1.44-4.23,3.86-4.81,6.21Z"/>
              <path class="cls-4" d="M109.53,257.79c.31.31.67.52.99.62s.61.08.79-.09c.36-.33.16-1.1-.46-1.71-1.56-1.54-2.34-2.3-3.88-3.81.94-.84,1.42-1.28,2.42-2.19.4-.36.23-1.16-.38-1.76s-1.44-.79-1.84-.43c-1,.91-1.49,1.35-2.43,2.19-.19-.19-.29-.28-.48-.47.42,1.65.64,2.46,1.1,4.08.11-.1.17-.15.28-.25,1.55,1.51,2.33,2.28,3.89,3.81Z"/>
              <path class="cls-4" d="M109.86,170.35c.55-2.38-.81-3.86-3.05-3.46-.93,3.43-1.36,5.17-2.15,8.69,2.36-.57,4.65-2.85,5.19-5.23Z"/>
              <path class="cls-5" d="M130.77,115.75c1.06-1.88.56-2.3-1.08-1.01-1.71,2.65-2.54,4.02-4.15,6.81,1.88-1.39,4.17-3.92,5.23-5.8Z"/>
              <path class="cls-5" d="M292.13,174.12c-.39.41-.21,1.23.4,1.82.31.3.66.48.99.54.33.06.63,0,.83-.21.22-.23.33-.34.54-.57-.33-1.44-.5-2.15-.86-3.57-.75.78-1.13,1.18-1.91,2Z"/>
              <path class="cls-5" d="M290.16,166.1c-.36.37-.15,1.18.47,1.79,1.25,1.22,1.87,1.82,3.11,3.02-.36-1.42-.55-2.13-.93-3.53-.35-.34-.52-.51-.87-.85-.62-.61-1.41-.8-1.77-.43Z"/>
              <path class="cls-5" d="M267.83,112.84c-.13.09.24.73.84,1.4,1.21,1.36,1.82,2.05,3.03,3.4-.68-1.12-1.02-1.68-1.72-2.78-.34-.38-.51-.57-.84-.95-.6-.68-1.18-1.17-1.31-1.08Z"/>
              <path class="cls-5" d="M271.52,119.21c-.16.13.19.79.8,1.47.31.34.62.61.87.79.26.17.45.25.54.18.09-.07.14-.11.22-.18-.66-1.15-.99-1.73-1.67-2.86-.29.21-.44.33-.77.6Z"/>
              <path class="cls-3" d="M117.66,272.75c-1.14-3.04-4.64-6.51-7.83-7.72-.34-.13-.66-.22-.97-.3.35.92.53,1.38.9,2.29.28.04.58.11.93.24,1.85.74,3.91,2.77,4.6,4.52.69,1.75-.2,2.5-1.98,1.67-.34-.16-.68-.37-1.03-.6.41.88.61,1.32,1.04,2.19.33.2.66.39.98.55,3,1.47,4.51.19,3.37-2.84Z"/>
              <path class="cls-5" d="M287.83,270.6c-.5,1.19-.36,1.97.21,2.23,1.06-2.29,1.56-3.45,2.51-5.81-1.2,1.08-2.22,2.39-2.72,3.58Z"/>
              <path class="cls-5" d="M104.83,196.27c.23.25.57.37.91.35.35-.02.71-.17,1-.45.59-.56.68-1.44.21-1.94-1.17-1.25-1.75-1.87-2.87-3.07,1.48-1.42,2.23-2.13,3.73-3.58.6-.58.73-1.44.28-1.91-.44-.47-1.28-.37-1.89.21-1.5,1.45-2.25,2.16-3.74,3.57-.14-.15-.21-.22-.34-.36-.27,1.81-.4,2.71-.64,4.54.18-.17.27-.26.46-.43,1.13,1.2,1.71,1.82,2.88,3.08Z"/>
              <path class="cls-5" d="M294.22,191.26c.37,2.58,2.17,4.93,4.47,6.06-.16-1.28-.24-1.92-.42-3.19-.73-.71-1.26-1.65-1.41-2.65-.15-1,.11-1.86.64-2.46-.21-1.26-.31-1.89-.54-3.15-1.96.74-3.12,2.79-2.75,5.38Z"/>
              <path class="cls-2" d="M119.95,137.14c.13.12.37.1.67-.03.29-.13.63-.38.94-.7.63-.65.92-1.39.67-1.63-.64-.6-.95-.89-1.53-1.42,1.57-1.64,2.36-2.46,3.92-4.12.62-.66.94-1.37.72-1.57-.23-.2-.91.18-1.53.84-1.56,1.66-2.35,2.48-3.92,4.12-.07-.06-.1-.09-.17-.15-.73,1.49-1.08,2.24-1.79,3.75.2-.2.3-.31.49-.51.58.53.89.81,1.53,1.41Z"/>
              <path class="cls-3" d="M277.7,132.94c.96,2.18,3.03,4.71,5.24,6.46-.48-1.09-.72-1.63-1.21-2.71-.79-.84-1.46-1.77-1.85-2.61-.39-.84-.42-1.42-.17-1.68-.51-1.05-.77-1.58-1.3-2.62-1.31-.2-1.68.98-.72,3.16Z"/>
              <path class="cls-2" d="M107.74,212.62c.07-3.75-2.72-6.83-6.31-6.81-.39,0-.76.04-1.13.11-.07,1.13-.1,1.7-.15,2.82.36-.11.74-.18,1.14-.18,2.1.02,3.76,1.82,3.71,3.98-.04,2.16-1.77,3.82-3.87,3.72-.4-.02-.77-.12-1.13-.25,0,1.11.01,1.66.04,2.75.37.09.74.15,1.13.18,3.59.24,6.5-2.58,6.58-6.32Z"/>
              <path class="cls-2" d="M298.19,212.51c.05,1.48.75,2.75,1.8,3.55-.02-2.87-.07-4.32-.24-7.24-.99.88-1.61,2.21-1.57,3.69Z"/>
              <path class="cls-2" d="M281.1,283.43c-.64.64-.99,1.28-.79,1.43.39.3.57.44.91.69.68-1.1,1.01-1.66,1.66-2.78-.11-.08-.16-.12-.27-.2-.2-.15-.88.23-1.52.87Z"/>
              <path class="cls-2" d="M277.46,289.69c-.63.64-1.01,1.26-.86,1.36.08.05.27-.03.53-.21.26-.18.57-.45.89-.77.36-.36.53-.54.89-.9.71-1.07,1.06-1.61,1.75-2.7-1.28,1.28-1.92,1.92-3.19,3.21Z"/>
              <path class="cls-4" d="M122.72,288.16c-1.05-1.85-3.41-4.25-5.4-5.51,1.58,2.75,2.41,4.09,4.14,6.7,1.73,1.16,2.31.66,1.26-1.18Z"/>
              <path class="cls-5" d="M118.3,149.8c1.04-3.29-.65-4.96-3.76-3.72-.34.13-.67.3-1.01.48-.37.95-.56,1.43-.92,2.4.35-.22.7-.41,1.05-.54,1.85-.7,2.83.28,2.21,2.18-.63,1.9-2.67,3.95-4.57,4.56-.36.12-.67.16-.96.16-.33.99-.5,1.48-.82,2.48.31-.04.64-.11,1-.22,3.27-.99,6.76-4.49,7.79-7.78Z"/>
              <path class="cls-4" d="M286.57,151.87c.45,1.3,1.45,2.67,2.64,3.74-.87-2.57-1.32-3.85-2.27-6.36-.63.39-.82,1.32-.37,2.62Z"/>
              <path class="cls-5" d="M105.38,233.57c-.27-2.41-2.37-4.62-4.8-5.07.32,3.58.54,5.34,1.07,8.81,2.35.27,4-1.34,3.73-3.75Z"/>
              <path class="cls-5" d="M296.97,228.32c-.56.57-.63,1.41-.15,1.85.96.89,1.43,1.33,2.36,2.18.16-1.44.23-2.17.35-3.63-.27-.25-.4-.37-.67-.62-.48-.45-1.33-.35-1.89.22Z"/>
              <path class="cls-5" d="M296.13,236.5c-.58.58-.69,1.4-.25,1.81.22.2.54.27.88.21.34-.06.69-.24.98-.54.33-.33.49-.49.82-.82.21-1.42.3-2.14.47-3.58-1.15,1.16-1.73,1.74-2.9,2.91Z"/>
              <path class="cls-5" d="M134.71,305.7c.3.33.59.62.8.83.22.21.36.34.4.33.06-.01-.36-.56-.97-1.21-1.52-1.62-2.28-2.44-3.82-4.06.18-.05.29-.1.56-.25.11-.06-.3-.64-.91-1.28-.62-.65-1.21-1.12-1.32-1.06-.26.14-.38.19-.55.24-.19-.2-.29-.3-.48-.51.96,1.18,1.46,1.76,2.45,2.89.01,0,.02,0,.04,0,1.54,1.63,2.3,2.44,3.81,4.07Z"/>
              <path class="cls-5" d="M268.15,302.41c-1.33,1.68-1.52,2.15-.75,1.35.72-.78,1.08-1.17,1.79-1.97-.04-.01.19-.34.73-.98.54-.64,1.28-1.47,2.07-2.3.68-.83,1.02-1.25,1.69-2.1-2.03,1.95-4.19,4.32-5.52,6Z"/>
            </g>
            <path class="cls-7" d="M224.74,292.25c-53.77,0-102.67-55.38-97.37-128.31,1.59-21.84,6.8-42.53,14.47-60.88-20.07,25.03-35.16,61.19-38.07,101.24-5.3,72.93,43.59,128.31,97.37,128.31,38.81,0,75.61-28.89,90.71-72.35-18.06,20.06-42.16,32-67.1,32Z"/>
            <ellipse class="cls-8" cx="227.71" cy="149.62" rx="30.92" ry="39.02"/>
          </g>
        </g>
      </g>
    </g>
  </g>
</svg>