<?xml version="1.0" encoding="UTF-8"?>
<svg xmlns="http://www.w3.org/2000/svg" viewBox="0 0 400 400">
  <defs>
    <style>
      .cls-1 {
        fill: #1e122b;
      }

      .cls-1, .cls-2, .cls-3, .cls-4, .cls-5, .cls-6, .cls-7 {
        stroke-width: 0px;
      }

      .cls-2 {
        fill: #5c779d;
      }

      .cls-3 {
        fill: #fce2a1;
      }

      .cls-4 {
        fill: #996b8e;
      }

      .cls-5 {
        fill: #f39883;
      }

      .cls-8 {
        isolation: isolate;
      }

      .cls-6 {
        fill: #d1d2d4;
        mix-blend-mode: multiply;
      }

      .cls-7 {
        fill: #332d1b;
        mix-blend-mode: screen;
      }
    </style>
  </defs>
  <g class="cls-8">
    <g id="_Слой_2" data-name="Слой 2">
      <g id="_Слой_1-2" data-name="Слой 1">
        <g>
          <rect class="cls-1" width="400" height="400"/>
          <g>
            <g>
              <path class="cls-3" d="M299.44,204.17c6.47,74.19-44.56,130.66-99.52,130.66s-104.94-56.39-99.52-130.66c5.58-76.45,54.88-139,99.52-139s93.01,64.4,99.52,139Z"/>
              <g>
                <path class="cls-3" d="M267.06,303.84c-41.83,39.51-92.26,39.63-133.91.03-50.47-60.11-37.85-145.32,7.67-204.63,38.84-41.9,79.18-42.57,117.99-.2,44.99,59.43,59.06,144.71,8.25,204.8Z"/>
                <g>
                  <path class="cls-4" d="M252.65,94.34c-17.5-10.85-34.02,31.56-38.6,41.6-11.41,25.03-34.58,68.22-68.02,63.51-5.38-.76-10.09-4.77-13.15-11.09-9.39-19.38-4.13-45.62,5.95-64.09.61-1.09.92-1.63,1.53-2.71,9.91-17.69,20.83-34.96,34.34-50.15-.39.19-.77.38-1.16.57-13.15,15.16-24.12,32.14-33.91,49.62-.62,1.08-.92,1.62-1.54,2.7-10.27,18.63-15.7,45.09-6.19,64.7,3.2,6.6,8.1,10.71,13.89,11.64,1.73.28,3.52.43,5.28.38,31.92-.96,52.37-39.1,63.93-64.51,4.58-10.07,20.79-51.88,38.25-41.28,2.99,1.81,5.84,4.73,9.24,8.5-.17-.22-.33-.44-.51-.68-3.44-3.86-6.32-6.85-9.33-8.72Z"/>
                  <path class="cls-5" d="M143.75,310.24c-16.71-19.77-46.22-50.35-36.83-77.95,3.43-10.08,13.65-16.73,24.4-17.67,34.71-3.02,65.78-26.16,79.94-57.9,8.34-18.69,16.08-37.81,25.09-56.19,2.59-5.29,4.59-12.08,10.2-14.48-.27-.25-.54-.49-.81-.73-8.03,4.3-11.36,17.33-14.96,25.28-6.87,15.18-13.47,30.49-20.26,45.69-14.06,31.47-44.86,54.36-79.28,57.47-11.01.99-21.34,7.73-25.05,18.14-9.88,27.76,20.86,58.99,37.29,78.39,3.02,3.57,6.09,6.91,9.08,9.97.37.24.55.36.92.59-3.21-3.21-6.5-6.78-9.73-10.6Z"/>
                  <path class="cls-5" d="M242.23,295.11c-14.49,1.29-29.43,14.16-38.98,26.02-4.86,6.03-10.22,10.49-15.5,12.78.52.08.78.12,1.3.19,5.02-2.42,10.09-6.79,14.72-12.53,9.39-11.66,24.04-24.41,38.27-25.71,8.3-.76,20.34-1.56,23.41,9.13.25-.26.38-.39.63-.64-3.15-10.82-15.43-9.98-23.85-9.23Z"/>
                  <path class="cls-2" d="M192.89,217.97c-28.71-10.11-61.44-19.76-92.55-12.99-.02.32-.03.48-.05.8,31.22-6.44,63.5,2.96,92.33,13.11,33.15,11.67,68.63,25.06,100.08,42.09.09-.27.18-.54.28-.8-31.64-16.85-66.85-30.49-100.09-42.2Z"/>
                  <path class="cls-2" d="M227.47,161.63c-1.32-8.55-4.95-14.26-10.48-16.74-12.14-5.46-28.19,4.59-36.27,12.66-.61.61-1.32,1.38-2.09,2.22-11.37,12.23-26.8,27.47-44.64,28.47-6.49.36-13.22-1.39-18.59-5.76-8.53-6.94-6.66-19.53-2.94-28.75,11.1-27.5,31.87-52.38,50.49-75.3-.25.18-.5.36-.75.54-18.48,22.94-39.13,47.84-50.41,74.95-3.81,9.15-5.66,22.27,3.06,29.23,5.53,4.41,12.26,6.2,18.88,5.84,18.1-.98,33.88-16.14,45.46-28.6.77-.83,1.48-1.6,2.08-2.21,7.89-7.88,23.63-17.78,35.5-12.47,5.23,2.34,8.66,7.78,9.91,15.98,4.38,28.77,2.13,122.7-36.72,127.12-19.95,2.27-41.18-13.68-56.28-25.48-11.82-9.24-23.51-19.8-32.8-32.25.06.52.09.78.15,1.29,9.28,12.06,20.72,22.38,32.33,31.49,14.44,11.34,32.24,24.27,51.49,25.81,1.81.14,3.63.14,5.25-.06,20.66-2.63,29.11-35.72,33.13-52.7,5.69-24.02,8.03-50.82,4.25-75.27Z"/>
                </g>
                <path class="cls-5" d="M134.09,138.27c-5.77.54-15.91,7.07-22.99,14.54-2.91,8.29-4.17,12.6-6.2,21.47,1.22.48,2.8.14,4.49-1.17,5.19-4.05,7.93.54,12.22,7.94,7.31,12.6,31.33-2.57,33.74-14.68,2.78-13.96-4.85-29.62-21.25-28.09Z"/>
                <path class="cls-2" d="M121.1,244.61c-3.79-18.19,29.79-23.41,34.12-5.15,3.9,16.45,7.95,34.72,21.99,45.67,8.37,6.53,24.57,27.44,17.33,33.3-6.06,4.9-26.25-11.6-33.65-18.17-16.36-14.53-35.26-33.87-39.8-55.65Z"/>
                <path class="cls-2" d="M178.59,319.01c-1.96-.37-4.8-1.85-8.33-4.46-22.04-16.29-55.2-49.29-55.49-78.72-.09-9.3,10.01-14.73,19.81-14.31.08,0,.16,0,.25.01,7.17.37,15.21,4.46,16.22,14.47.28,2.84.56,5.57.81,8.17,1.35,13.81,4.48,28.9,14.83,38.93,7.72,7.47,15.97,18.24,16.76,29.1.21,2.93-.78,5.24-2.57,6.51-.53.38-1.3.47-2.28.29ZM115.17,235.92c.16.03.24.05.39.08.08,29.37,33,61.91,54.91,78.02,4.97,3.66,8.54,5.05,9.92,4.08,1.65-1.16,2.56-3.31,2.34-6.02-.84-10.58-8.99-21.16-16.53-28.48-10.49-10.18-13.8-25.4-15.19-39.45-.26-2.59-.53-5.31-.82-8.14-.95-9.39-8.57-13.23-15.37-13.6-9.47-.52-19.4,4.57-19.27,13.59-.16-.03-.24-.05-.39-.08Z"/>
                <path class="cls-2" d="M182.2,323.77c-1.89-.33-4.66-1.73-8.06-4.26-12.2-9.1-22.51-20.93-32.36-32.61-10.85-12.87-21.73-28.88-22.74-45.69-.54-9.04,9.71-14.46,19.49-13.91.08,0,.16,0,.25.02,7.15.48,15.2,4.58,16.26,14.46.31,2.83.6,5.55.86,8.14,1.43,13.72,4.55,28.76,14.82,38.74,7.5,7.29,15.56,17.88,16.22,28.45.18,2.84-.82,5.11-2.57,6.37-.51.37-1.24.47-2.18.31ZM119.3,241.28c.11.02.16.04.26.06.64,29.15,32.78,61.72,54.72,77.83,4.88,3.59,8.4,4.89,9.78,3.89,1.65-1.19,2.59-3.34,2.41-6.04-.68-10.42-8.67-20.86-16.07-28.05-10.37-10.08-13.6-25.21-15.06-39.08-.27-2.58-.56-5.29-.87-8.12-1.03-9.46-8.79-13.4-15.69-13.87-9.59-.66-19.52,4.34-19.22,13.43-.11-.02-.16-.04-.26-.06Z"/>
                <path class="cls-4" d="M161.67,99.23c-5.21,17.72,16.46,27.06,30.25,26.79,12.76-.25,22.4-7.08,32.27-13.78,8.7-5.91,20.84.66,22.22-2.18,3.57-7.29-9.81-23.96-18.06-29.34-13.86-9.03-33.38,4.43-45.29-3.54-10.4-6.96-19.07,14.15-21.4,22.05Z"/>
                <path class="cls-4" d="M198.94,128.77c-1.83,0-3.8-.09-5.9-.3-15.6-1.58-33.44-15.08-27-32.8.12-.04.18-.05.3-.09-.12.04-.18.05-.3.09,2.04-7.5,8.99-18.97,14.5-22.49,2.29-1.46,5.26-2.2,7.88,3.11,2.43,4.94,12.23,3.36,22.43,4.33,8.37.79,16.69,3.26,24.09,8.57,7.07,5.07,13.58,14.49,16.55,20.96,2.26,4.93,2.49,8.51.43,9.95-1.87,1.31-5.3.29-9.3-.76-4.54-1.19-9.67-2.41-15.05-.11-1.87.8-3.63,1.7-5.37,2.6-6.59,3.45-13.05,6.91-23.26,6.94ZM182.19,73.01c-.52.16-1.06.41-1.62.77-5.33,3.36-12.05,14.48-13.93,21.71-4.39,16.91,10.37,30.64,26.5,32.12,10.03.92,19.86-1.73,28.64-6.56,1.68-.93,3.5-1.81,5.38-2.61,5.5-2.36,10.69-1.11,15.29.12,3.86,1.03,7.17,2.02,8.9.81,1.9-1.33,1.68-4.71-.43-9.36-2.94-6.47-9.42-15.58-15.97-20.24-7.34-5.22-15.65-7.65-24.02-8.43-10.87-1.01-20.45.64-23.02-4.58-1.58-3.21-3.45-4.43-5.72-3.75Z"/>
                <path class="cls-4" d="M189.35,132.79c-13.7.57-34.82-8.58-31.4-25.76,1.36-6.84,7.57-19.05,13.37-23.93,2.38-2.01,5.58-3.74,8.81.38,3.07,3.91,13.18-.4,23.3-2.5,8.28-1.72,16.21-1.83,23.34,1.74,6.78,3.39,13.5,12.27,17.02,18.79,2.67,4.94,3.5,8.83,1.97,10.82-1.39,1.81-4.55,1.42-8.28,1.14-4.27-.31-9.15-.47-13.93,3.04-1.65,1.22-3.26,2.49-4.75,3.78-7.84,6.79-17.13,11.53-27.69,12.38-.58.05-1.17.09-1.76.12ZM174.1,81.78c-.87.32-1.77.88-2.72,1.67-5.65,4.74-11.67,16.67-12.99,23.38-3.48,17.66,19.04,26.32,32.71,25.27,10.49-.81,19.62-5.55,27.37-12.27,1.48-1.29,3.1-2.57,4.76-3.79,4.85-3.57,9.78-3.41,14.08-3.09,3.64.27,6.73.66,8.05-1.06,1.45-1.89.67-5.63-1.9-10.38-3.54-6.58-10.29-15.19-16.64-18.35-7.09-3.52-15.03-3.4-23.3-1.7-10.71,2.21-20.53,6.48-23.72,2.41-1.74-2.21-3.61-2.86-5.7-2.1Z"/>
                <path class="cls-5" d="M290.42,196.81c-8.16-20.21-39.76-25.27-54.25-12.27-10.49,9.41-21.48,19.93-36.94,14.61-26.8-9.22-15.59,55.88-6.19,65.93,17.1,18.29,52.37,16.44,69.88-.52,17.3-16.75,38.05-41.63,27.5-67.76Z"/>
                <path class="cls-5" d="M218.97,274.35c-8.97.97-21.28-1.4-28.51-7.11-15.94-12.6-25.11-38.48-17.86-57.8,2.42-6.44,6.86-9.65,12.1-8.77,13.86,2.32,22.04-5.82,29.04-16.42,1.31-1.99,2.74-4.11,4.29-6.18,7.64-10.21,21.56-15.51,34.24-13.01,8.88,1.75,16.22,7.3,21.23,15.15,15.69,24.61,5.56,52.64-11.24,73.53-8.57,10.66-22.72,17.16-35.77,19.68-2.52.49-5.06.78-7.53.93ZM182.99,201.48c-4.1.02-7.58,3-9.58,8.33-7.1,18.96,1.99,45.04,17.55,56.75,19.49,14.66,55.69,5.49,70.74-13.23,16.51-20.53,26.49-48.6,11.18-72.8-6.1-9.63-14.55-13.46-20.56-14.63-12.44-2.42-26.1,2.76-33.59,12.77-1.54,2.06-3.01,4.19-4.27,6.16-6.91,10.8-15.95,19.13-29.88,16.79-.54-.09-1.06-.13-1.58-.13Z"/>
                <path class="cls-5" d="M230.56,274.37c-2.62.27-5.32.36-8.09.27-12.44-.42-25.92-4.72-34.15-14.04-13.51-15.3-17.19-43.39-6.26-61.23,3.58-5.84,8.74-8.09,13.54-5.95,11.94,5.3,22.89-.81,31.11-9.23,1.56-1.59,3.38-3.3,5.24-4.89,9.74-8.31,24.66-9.11,36.5-4.27,8.78,3.59,15.29,9.86,18.68,17.92,11.06,26.28-9.01,52.12-27.3,68.96-8.29,7.63-18.55,10.24-29.28,12.47ZM191.83,193.92c-3.99.02-7.01,3.19-8.82,6.16-10.63,17.4-7.03,45,6.15,59.76,16.17,18.1,52.03,17.95,70.11,1.37,17.99-16.49,37.62-42.24,26.92-68.01-4.07-9.8-12.01-14.77-17.89-17.15-11.55-4.67-26.1-3.87-35.58,4.22-1.85,1.58-3.67,3.28-5.22,4.87-8.54,8.76-19.92,14.98-32.3,9.47-1.14-.51-2.32-.7-3.36-.69Z"/>
                <g>
                  <path class="cls-5" d="M175.7,83.44c-3.11,2.24-7.12,6.8-6.63,7.83.49,1.03,2.34-1.16,3.67-2.69,1.33-1.53,1.99-2.45,3.92-3.99,1.22-.97,1.47-2.9-.96-1.15Z"/>
                  <path class="cls-5" d="M171.21,97.15c-2.54,2.7-4.81,4.34-5.15,5.47-.34,1.12,1.85.37,3.78-1.59,1.93-1.96,3.82-6.5,1.36-3.88Z"/>
                  <path class="cls-5" d="M184.1,82.84c-1.88,2.37-4.52,4.6-4.91,5.63-.4,1.04,1.06,1.18,2.79-.16,1.73-1.34,3.12-3.43,3.9-4.75,1.2-2.01.1-3.09-1.78-.73Z"/>
                  <path class="cls-5" d="M230.43,88.4c-.04.84,1.54,1.84,2.86,1.52,1.31-.32,1.96-1.56,2.28-2.36.04-.09.06-.19.07-.29-.58-.65-1.16-1.27-1.75-1.87-.14.06-.28.16-.42.31-1.05,1.17-3.01,1.86-3.05,2.7Z"/>
                  <path class="cls-5" d="M195.12,82.5c-2.48.43-5.03,3.19-6.25,5.17-1.21,1.97.03,3.47,1.51,1.75,2.07-2.4,3.76-3.88,5-4.77,1.25-.89,2.26-2.59-.26-2.15Z"/>
                  <path class="cls-5" d="M180.13,98.18c-2.47,2.02-3.66,4-4.38,5.8-.71,1.8.22,3.04,1.61.55,1.38-2.49,2.97-3.72,4.15-4.92,2.06-2.09.77-3.18-1.37-1.43Z"/>
                  <path class="cls-5" d="M223.73,80.18c-1.72.77-2.3,2.17-2.49,3.63-.19,1.45,1.01,3.04,1.65,1.22.63-1.81,1.75-2.27,2.5-2.86,1.32-1.02-.17-2.66-1.66-1.99Z"/>
                  <path class="cls-5" d="M177.75,110.84c-2.53,2.33-4.75,6.1-3.48,6.19,1.27.09,2.4-2.46,4.93-5,2.53-2.54,1.75-4.14-1.45-1.19Z"/>
                  <path class="cls-5" d="M231.12,101.71c-1.57,1.6-2.38,4.84-1.11,5.24,1.27.4,1.45-1.87,2.93-3.67,1.47-1.81.16-3.6-1.82-1.57Z"/>
                  <path class="cls-5" d="M193.61,94.76c-1.01.11-3.64,3.4-4.22,5.44-.58,2.03.72.95,2.29-.77,1.58-1.72,3.72-4.86,1.93-4.67Z"/>
                  <path class="cls-5" d="M190.76,111.65c-2.12,1.77-3.77,4.98-4.43,6.74-.66,1.76,1.11,1.04,1.71.25.6-.79,3.44-4.33,3.94-5.79.51-1.46-.18-2.07-1.23-1.2Z"/>
                  <path class="cls-5" d="M202.55,102.61c-1.03.91-2.65,3.33-3.42,5.7-.77,2.37.9,1.84,1.58.84.68-1,2.03-2.5,2.98-4.29.95-1.79.34-3.56-1.15-2.26Z"/>
                  <path class="cls-5" d="M241.47,99.46c-.7.42-1.59,1.99-1.78,3.85-.19,1.86,1.22,1.93,1.62,1.27.39-.66,1.27-1.53,1.7-2.75s-.52-2.97-1.53-2.37Z"/>
                  <path class="cls-5" d="M204.78,82.88c-.76.94-1.26,3-1.96,4.24-.96,1.69-.16,2.53.73,1.88.89-.65,3.18-3.89,3.5-5.38.32-1.49-1.02-2.29-2.27-.74Z"/>
                  <path class="cls-5" d="M205.32,119.47c-.94.57-2.35,2.78-3.06,4.18-.19.38-.31.7-.4.99,1.03-.26,2.02-.55,2.96-.87.47-.78.95-1.67,1.45-2.53,1.06-1.81,0-2.34-.95-1.77Z"/>
                  <path class="cls-5" d="M191.01,123.07c-1.02.49-2.91,1.61-4.05,2.87,1.07.09,2.14.13,3.2.12.46-.51.92-1.01,1.37-1.43,1.04-.98.74-2.17-.52-1.56Z"/>
                  <path class="cls-5" d="M167.59,109.79c-1.31,1.79-2.55,3.24-3.73,4.84.31.45.64.88.99,1.3,1.01-1.36,2.53-3.75,3.53-5.31,1.3-2.04.78-2.97-.8-.83Z"/>
                  <path class="cls-5" d="M175.93,77.04c-.55,1.05.05,1.51,1.15.34.83-.88,1.59-1.85,2.33-2.78-.59-.11-1.18-.06-1.79.11-.77.85-1.29,1.58-1.68,2.32Z"/>
                  <path class="cls-5" d="M210.38,79.19c-.4,1.55.71,1.71,1.39.95.69-.76,1.95-2.21,2.49-3.42.05-.12.08-.23.11-.34-.65-.05-1.3-.08-1.95-.1-.89.9-1.73,1.7-2.04,2.91Z"/>
                  <path class="cls-5" d="M215.24,92.22c-1.64.84-2.95,2.95-4.01,5.11-1.07,2.16,1.3,2.04,1.78,1.2.48-.84,2.03-3.54,2.67-4.7.64-1.16.54-2.11-.44-1.61Z"/>
                  <path class="cls-5" d="M217.17,108.84c-.8.85-2.07,5.06-2.26,6.37-.19,1.3.62,1.65,1,1.1.38-.54,2.75-4.19,2.96-5.86.21-1.67-.84-2.53-1.7-1.61Z"/>
                  <path class="cls-5" d="M223.64,93.38c-.28.41-1.9,1.21-2.29,3.76-.39,2.55,1.95,1.57,2.33.65.39-.92.85-2.12,1.62-3.19.77-1.07-1.01-2.17-1.66-1.22Z"/>
                </g>
                <g>
                  <path class="cls-3" d="M255.02,204.28c-.29,0-.55-.26-.59-.58-.16-1.32,2.6-5.01,4.53-7.02.21-.22.56-.2.79.05.23.24.24.61.03.83-2.53,2.64-4.22,5.5-4.23,6.07.04.33-.18.62-.48.65-.02,0-.03,0-.05,0Z"/>
                  <path class="cls-3" d="M261.63,214.26c-.17,0-.35-.08-.46-.24-.19-.26-.14-.64.11-.83,2.03-1.62,2.72-2.94,3.66-4.76.22-.43.45-.87.7-1.35.15-.28.49-.36.75-.19.27.17.36.54.21.82-.25.47-.48.91-.69,1.32-.96,1.87-1.74,3.35-3.96,5.12-.1.08-.21.12-.32.12Z"/>
                  <path class="cls-3" d="M246.94,216.64c-.08,0-.17-.02-.25-.06-.28-.14-.41-.51-.27-.82.58-1.33,3.23-4.18,5.73-6.17.25-.2.6-.14.79.14.19.27.14.66-.1.85-2.72,2.18-4.98,4.8-5.38,5.71-.1.22-.3.35-.51.35Z"/>
                  <path class="cls-3" d="M238.31,209.34c-.06,0-.12-.01-.18-.03-.3-.11-.48-.47-.38-.8.38-1.35,2.38-3.13,4.36-4.82.27-.23.51-.43.68-.58.24-.21.6-.16.81.11.21.27.18.66-.06.88-.18.16-.42.36-.7.61-1.19,1.01-3.68,3.12-3.98,4.21-.07.26-.3.43-.54.43Z"/>
                  <path class="cls-3" d="M228.87,226.98c-.07-.03-.13-.06-.19-.12-.24-.22-.26-.62-.04-.88.13-.15.2-.23.33-.39,2.29-2.69,2.86-3.58,2.93-3.84.09-.33.42-.52.72-.44.29.08.49.42.4.75-.18.71-1.35,2.19-3.2,4.35-.13.15-.19.23-.32.38-.17.2-.42.26-.64.18Z"/>
                  <path class="cls-3" d="M274.1,185.82c-.06-.03-.13-.07-.18-.12-.24-.22-.3-.57-.13-.78.1-.12.15-.19.26-.31,1.79-2.16,2.18-2.84,2.22-3.06.04-.28.31-.41.6-.3.27.1.49.42.45.69-.08.59-.96,1.74-2.4,3.48-.1.12-.15.18-.25.3-.13.16-.35.19-.56.1Z"/>
                  <path class="cls-3" d="M237.58,231.1c-.14,0-.29-.05-.4-.16-.23-.23-.23-.61,0-.86,1.47-1.63,3.73-5.9,3.83-6.52.05-.33.35-.57.66-.52.31.05.53.35.47.69-.16,1.04-2.7,5.57-4.14,7.17-.11.13-.27.2-.42.2Z"/>
                  <path class="cls-3" d="M216.14,238.99c-.18,0-.35-.08-.47-.24-.19-.27-.14-.66.13-.86.18-.15,4.52-3.63,6.57-5.1.27-.19.63-.12.81.16.17.28.1.66-.17.86-2.03,1.45-6.47,5.02-6.52,5.06-.11.08-.23.13-.35.13Z"/>
                  <path class="cls-3" d="M217.91,223.29c-.1,0-.19-.02-.28-.08-.28-.16-.39-.55-.23-.86.19-.37.52-.76.98-1.29.5-.58,1.18-1.38,1.93-2.49.19-.28.56-.34.82-.14.26.21.32.6.12.89-.79,1.16-1.5,1.99-2.02,2.59-.38.45-.69.8-.81,1.04-.11.21-.31.33-.52.33Z"/>
                  <path class="cls-3" d="M202.73,227.54c-.14,0-.27-.05-.38-.15-.25-.22-.28-.62-.07-.89.98-1.24,3.84-3.91,6.06-4.79.31-.12.65.05.76.38.11.33-.04.69-.35.82-1.99.79-4.68,3.3-5.56,4.41-.12.15-.28.22-.45.23Z"/>
                  <path class="cls-3" d="M189.97,226.96c-.3,0-.56-.25-.59-.58-.06-.7.64-1.34,2.51-2.88.75-.61,1.87-1.54,2.06-1.9.03-.3.25-.55.54-.57.32-.03.61.23.64.58.06.71-.64,1.36-2.51,2.9-.75.61-1.86,1.53-2.06,1.89-.03.3-.25.54-.53.56-.02,0-.03,0-.05,0ZM190.54,226.43h0ZM190.55,226.28s0,0,0,0c0,0,0,0,0,0ZM193.95,221.72s0,0,0,0c0,0,0,0,0,0Z"/>
                  <path class="cls-3" d="M185.76,241.72c-.11,0-.21-.03-.31-.1-.28-.18-.36-.56-.2-.85.17-.3.46-.64.83-1.09.82-.98,1.94-2.34,2.57-4.05.12-.32.46-.47.76-.34.3.13.45.49.33.81-.71,1.91-1.96,3.42-2.78,4.4-.32.39-.6.72-.72.93-.11.18-.3.28-.49.28Z"/>
                  <path class="cls-3" d="M195.08,246.62c-.09,0-.17-.02-.26-.06-.29-.15-.41-.52-.27-.82.54-1.17,3.27-4.77,4.01-5.47.24-.23.61-.2.83.05.22.25.2.64-.05.87-.71.67-3.29,4.13-3.74,5.09-.1.22-.31.34-.52.34Z"/>
                  <path class="cls-3" d="M207.7,249.31c-.09,0-.17-.02-.26-.06-.29-.14-.4-.5-.26-.81.56-1.17,3.33-4.81,4.07-5.51.24-.23.61-.21.83.04.21.25.19.63-.06.86-.71.67-3.34,4.16-3.8,5.13-.1.22-.31.34-.53.35Z"/>
                  <path class="cls-3" d="M192.39,260.1c-.12,0-.24-.04-.34-.12-.26-.2-.31-.57-.13-.83,1.45-2.01,3.91-3.63,4.63-4.08.27-.17.63-.08.79.2.17.28.08.65-.19.82-.48.3-2.95,1.9-4.31,3.79-.11.15-.28.23-.46.23Z"/>
                  <path class="cls-3" d="M202.24,270.02c-.13,0-.27-.05-.38-.15-.23-.21-.25-.58-.04-.81.11-.12,2.67-3.02,3.94-4.14.24-.21.6-.19.8.05.2.24.17.61-.07.82-1.22,1.07-3.81,4-3.84,4.03-.11.13-.27.19-.42.19Z"/>
                  <path class="cls-3" d="M212.38,258.85c-.13,0-.26-.04-.37-.13-.24-.2-.26-.58-.05-.83.19-.23.59-.62,1.1-1.11.73-.71,2.26-2.18,2.4-2.62.06-.33.36-.55.67-.51.31.04.52.35.46.67-.12.65-.95,1.55-2.76,3.3-.44.42-.85.82-1,1-.12.14-.28.22-.44.22Z"/>
                  <path class="cls-3" d="M259.82,184.64c-.12,0-.25-.06-.36-.16-.25-.22-.31-.59-.14-.82.16-.21.5-.55.92-.98.62-.62,1.89-1.88,1.96-2.28.02-.31.27-.49.57-.41.3.08.53.39.51.7-.03.61-.7,1.37-2.22,2.9-.37.37-.72.72-.84.88-.1.13-.24.19-.4.18Z"/>
                  <path class="cls-3" d="M224.28,246.6c-.11,0-.22-.02-.32-.09-.26-.17-.32-.54-.14-.83.21-.32.39-.67.6-1.05.5-.94,1.12-2.1,2.33-3.44.23-.25.59-.27.82-.05.23.22.23.6,0,.85-1.1,1.22-1.65,2.26-2.15,3.18-.22.42-.43.8-.66,1.15-.12.18-.3.28-.49.29Z"/>
                  <path class="cls-3" d="M221.55,210.79c-.11,0-.23-.03-.33-.11-.27-.2-.35-.6-.17-.89.2-.33.37-.7.57-1.1.47-.98,1.05-2.2,2.21-3.58.22-.26.58-.27.82-.02.24.25.26.65.04.91-1.05,1.25-1.58,2.34-2.04,3.3-.21.44-.41.84-.62,1.2-.11.19-.29.29-.48.29Z"/>
                  <path class="cls-3" d="M223.27,261.55c-.16,0-.32-.05-.42-.18-.19-.23-.15-.6.1-.82.62-.56,2.14-1.96,3.6-3.33,1.67-1.56,3.12-2.91,3.42-3.16.26-.22.61-.2.79.04s.13.61-.13.83c-.28.24-1.85,1.71-3.37,3.12-1.48,1.38-3,2.79-3.62,3.35-.11.1-.24.15-.37.16Z"/>
                  <path class="cls-3" d="M249.03,248.4s-.1,0-.14,0c-.28-.06-.44-.33-.35-.63.24-.81,2.9-4.39,4.44-5.64.26-.21.61-.19.77.05.17.24.1.6-.16.81-1.45,1.18-3.81,4.48-3.99,4.96-.09.25-.33.44-.57.46Z"/>
                  <path class="cls-3" d="M252.89,232.63c-.07,0-.14,0-.21-.03-.29-.1-.42-.44-.29-.74.4-.99,2.49-3.79,2.9-4.31.21-.26.56-.31.79-.11.23.2.26.57.05.82-.65.81-2.43,3.27-2.71,3.97-.09.23-.31.39-.53.4Z"/>
                  <path class="cls-3" d="M263.77,229.11c-.17.01-.33-.06-.44-.2-.18-.24-.12-.61.13-.81,1.32-1.08,6.08-7.24,6.39-7.84.15-.28.49-.4.75-.25.26.14.36.48.21.76-.38.73-5.24,7-6.71,8.21-.1.08-.22.13-.34.14Z"/>
                  <path class="cls-3" d="M276.02,210.66c-.08,0-.15-.01-.23-.05-.28-.13-.41-.47-.29-.76.06-.15.09-.23.15-.38,1.62-4.1,2.27-5.35,3.01-5.41.3-.02.57.21.61.53.04.31-.16.59-.45.61-.27.2-1,1.79-2.17,4.74-.06.15-.09.23-.15.38-.08.21-.27.33-.48.34Z"/>
                  <path class="cls-3" d="M266.67,194.56c-.12,0-.25-.05-.36-.15-.25-.21-.3-.58-.13-.81,1.8-2.41,2.69-3.58,4.4-5.88.17-.22.5-.23.75-.01.25.21.31.57.14.79-1.72,2.3-2.6,3.47-4.4,5.88-.1.13-.25.19-.4.19Z"/>
                  <path class="cls-3" d="M282.9,217.33c-.12,0-.24-.03-.34-.11-.23-.19-.26-.53-.07-.77.47-.6,2.76-4.16,3.28-5.45.11-.28.42-.4.69-.28.27.12.4.45.28.72-.57,1.39-2.94,5.05-3.44,5.68-.1.13-.25.21-.41.21Z"/>
                  <path class="cls-3" d="M275.72,226.3c-.08,0-.16,0-.24-.04-.26-.12-.37-.44-.23-.72.31-.64,1.12-2.16,1.96-2.58.27-.14.59-.03.7.25.11.27-.02.6-.3.74-.28.14-.85.87-1.41,2.01-.1.2-.29.33-.49.34Z"/>
                  <path class="cls-3" d="M250.99,198.06c-.08,0-.17-.02-.25-.07-.29-.15-.42-.52-.3-.81.27-.66.99-2.24,1.84-2.61.28-.12.61.03.75.34.14.31.03.65-.25.78-.28.12-.82.86-1.3,2.05-.09.21-.28.33-.49.32Z"/>
                  <path class="cls-3" d="M191.16,211.25c-.09,0-.18-.02-.26-.07-.29-.16-.41-.55-.27-.87.32-.72,1.16-2.45,2.07-2.88.3-.14.64.01.77.34.13.33,0,.71-.31.85-.3.14-.91.97-1.48,2.26-.1.23-.31.36-.53.36Z"/>
                  <path class="cls-3" d="M276.02,240.85c-.09.01-.17,0-.25-.03-.24-.11-.31-.42-.14-.7.08-.13.35-.54.75-1.13,1.31-1.96,4.31-6.52,4.68-7.76.09-.29.38-.5.66-.46.28.04.44.31.35.6-.37,1.24-2.51,4.59-4.85,8.07-.37.55-.63.94-.71,1.06-.11.19-.3.31-.49.33Z"/>
                  <path class="cls-3" d="M203.38,209.96c-.09-.03-.18-.08-.26-.16-.23-.25-.24-.66-.01-.92.11-.12.48-.49,1-1.01,1.76-1.76,5.87-5.86,6.52-7.17.15-.31.51-.41.8-.24.28.17.39.56.24.87-.66,1.31-3.62,4.38-6.76,7.5-.5.5-.85.84-.95.96-.16.17-.38.23-.58.17Z"/>
                  <path class="cls-3" d="M265.16,242.52c-.14.02-.28-.02-.37-.12-.19-.19-.17-.54.06-.78.99-1.02,2.24-2.67,2.97-3.93.16-.28.5-.41.75-.29.25.12.33.45.16.73-.79,1.36-2.1,3.08-3.18,4.19-.11.12-.26.19-.39.2Z"/>
                  <path class="cls-3" d="M258.97,256.23c-.09.01-.17,0-.25-.03-.24-.11-.3-.42-.13-.71.21-.34.71-.85,1.57-1.72.8-.81,1.71-1.72,2.18-2.36.2-.27.54-.37.76-.24.23.14.25.47.05.73-.54.74-1.49,1.69-2.33,2.54-.54.55-1.22,1.23-1.35,1.43-.12.19-.31.32-.5.35Z"/>
                  <path class="cls-3" d="M267.89,258.18c-.12.02-.23,0-.32-.06-.19-.14-.17-.47.05-.72.53-.61,2.38-3.7,2.57-4.6.06-.29.35-.55.63-.57.28-.03.47.19.4.48-.27,1.24-2.31,4.52-2.91,5.22-.12.14-.28.23-.43.26Z"/>
                  <path class="cls-3" d="M237.09,268.48c-.1.01-.2,0-.28-.05-.24-.13-.29-.47-.11-.75.3-.46,1.78-2.36,4.03-5.22,1.49-1.91,2.9-3.71,3.39-4.38.2-.27.55-.36.78-.21.23.15.26.5.06.77-.51.69-1.93,2.5-3.43,4.41-1.72,2.2-3.67,4.68-3.96,5.12-.12.18-.3.29-.49.31Z"/>
                  <path class="cls-3" d="M228.86,279.89c-.15.02-.3-.03-.39-.15-.17-.21-.12-.56.13-.77.95-.86,2.6-2.44,2.96-2.99.18-.27.52-.39.76-.26.24.13.28.46.1.73-.58.88-2.94,3.03-3.2,3.27-.11.1-.23.15-.36.17Z"/>
                  <path class="cls-3" d="M244.2,273.57c-.11.02-.22,0-.3-.06-.21-.14-.22-.47-.02-.73.11-.14,2.69-3.5,4.39-4.98.25-.22.58-.23.74-.03.15.2.07.55-.18.77-1.58,1.37-4.15,4.71-4.18,4.74-.12.16-.29.26-.45.28Z"/>
                  <path class="cls-3" d="M253.29,271.97c-.12.02-.24,0-.32-.07-.19-.15-.16-.48.06-.73,2.03-2.29,3.05-3.44,5.08-5.73.22-.25.56-.33.75-.18.19.15.16.48-.06.73-2.04,2.29-3.05,3.44-5.09,5.73-.12.14-.27.22-.42.25Z"/>
                  <path class="cls-3" d="M221.21,271.99c-.17.01-.34-.06-.44-.2-.17-.24-.09-.6.16-.8.73-.57,2.79-2.29,3.47-3.41.17-.28.52-.39.77-.25.26.14.32.48.15.76-.95,1.56-3.68,3.68-3.79,3.77-.1.08-.22.12-.33.13Z"/>
                  <path class="cls-3" d="M211.94,277.44c-.14,0-.27-.04-.38-.14-.21-.21-.21-.56,0-.79,1.25-1.34,2.69-3.05,2.82-3.45-.02-.31.22-.55.52-.58.31-.04.56.23.58.54.01.22.02.84-3.15,4.24-.11.12-.26.18-.4.19Z"/>
                  <path class="cls-3" d="M215.52,288.89c-.1,0-.19-.01-.28-.06-.24-.14-.3-.47-.13-.73,1.84-2.84,3.84-6.17,4.02-6.83-.02-.23.12-.48.36-.6.28-.14.59-.03.69.23.1.27.23.85-4.21,7.7-.11.17-.29.27-.46.28ZM219.17,281.41s0,0,0,0c0,0,0,0,0,0Z"/>
                  <path class="cls-3" d="M235.28,285.71c-.11.02-.21,0-.3-.06-.21-.14-.21-.46-.01-.72.66-.84.99-1.26,1.65-2.11.2-.26.53-.35.74-.21.21.14.21.46,0,.72-.66.84-.99,1.27-1.65,2.11-.12.15-.28.25-.44.27Z"/>
                  <path class="cls-3" d="M198.78,282.39c-.14,0-.27-.05-.38-.16-.22-.21-.23-.57-.02-.79.03-.03,2.89-3.07,4.06-4.48.2-.24.55-.27.78-.07.23.2.26.55.06.79-1.19,1.44-3.99,4.41-4.1,4.53-.11.11-.25.17-.39.17Z"/>
                  <path class="cls-3" d="M230.57,200.42c-.13,0-.27-.05-.39-.16-.25-.23-.28-.63-.08-.89,2.05-2.62,3.06-3.91,5.06-6.47.2-.25.56-.27.8-.04.25.23.29.62.09.87-2,2.55-3.01,3.85-5.06,6.47-.11.14-.27.21-.43.21Z"/>
                  <path class="cls-3" d="M247.46,188.52c-.1,0-.2-.04-.3-.1-.27-.18-.38-.56-.24-.83.95-1.82,1.65-3.7,1.56-4.15-.18-.29-.11-.61.14-.77.25-.16.61-.01.79.28.46.73-.02,2.49-1.5,5.31-.09.18-.27.27-.46.27Z"/>
                  <path class="cls-3" d="M281.49,194.33c-.13,0-.26-.06-.37-.16-.24-.21-.29-.56-.11-.77.02-.02,1.99-2.43,2.92-3.67.16-.21.48-.21.72,0,.24.21.31.54.15.75-.94,1.25-2.92,3.67-2.94,3.69-.09.11-.23.16-.37.16Z"/>
                  <path class="cls-3" d="M239.17,246.3c-.14,0-.27-.03-.38-.13-.22-.2-.22-.57,0-.83.03-.03,2.57-2.96,3.83-4.5.21-.26.57-.32.8-.12.23.19.25.56.03.82-1.27,1.56-3.83,4.5-3.86,4.53-.12.13-.27.21-.43.22Z"/>
                  <path class="cls-3" d="M287.43,225.08c-.05,0-.1,0-.16-.01-.27-.06-.42-.35-.32-.63.68-2.02,1.01-3.03,1.63-5.05.09-.29.38-.46.66-.39.27.07.43.36.34.64-.63,2.01-.96,3.02-1.64,5.03-.08.23-.29.39-.51.41Z"/>
                  <path class="cls-3" d="M288.09,206.59c-.1,0-.2-.03-.29-.09-.25-.16-.34-.51-.2-.76.02-.04,2.31-4.16,2.83-5.9.08-.27.37-.39.64-.27.28.12.43.42.35.69-.55,1.82-2.81,5.9-2.91,6.07-.09.16-.25.25-.42.25Z"/>
                  <path class="cls-3" d="M276.2,247.27c-.12.02-.23,0-.31-.06-.2-.14-.2-.47.01-.72.04-.04,3.68-4.45,4.76-5.7.21-.24.54-.32.74-.17.2.15.19.47-.02.72-1.07,1.24-4.71,5.63-4.75,5.67-.12.14-.28.23-.43.26Z"/>
                </g>
                <g>
                  <path class="cls-3" d="M140.87,148.27c-.91.25-2.45,1.69-1.67,2.52.78.84,1.9.28,2.47-.69.57-.97,1.15-2.37-.8-1.83Z"/>
                  <path class="cls-3" d="M132.32,141.33c-1.38.41-2.56,1.94-2.3,2.56.26.62,1.45.29,1.96-.3.52-.59,1.19-2.5.34-2.25Z"/>
                  <path class="cls-3" d="M139.94,140.96c-1.1.41-1.9.87-1.59,2.07.31,1.2,1.13,1.29,1.69.14.56-1.15.45-2.41-.1-2.21Z"/>
                  <path class="cls-3" d="M125.97,151.8c-1.17-.69-2.71,1.84-2.74,2.75-.04.91,1.73.16,2.33-.77.6-.93.8-1.76.42-1.98Z"/>
                  <path class="cls-3" d="M121.15,148.81c-.53-1.77-3.37,1.52-3.05,2.19.32.66,1.58.41,2.08-.1.5-.51,1.26-1.11.97-2.09Z"/>
                  <path class="cls-3" d="M124.46,142.67c-.59.61-1.09,1.29-.7,1.52.39.22,1.56-.39,1.84-.96s-.56-1.16-1.14-.56Z"/>
                  <path class="cls-3" d="M114.55,148.47c-1.16.82-2.07,2.14-.99,2.2,1.08.06,2.03-.59,2.5-1.64s-.56-1.23-1.5-.56Z"/>
                  <path class="cls-3" d="M116.78,160.78c-.92-.17-2.26,1.48-1.8,2.46.46.98,2.16.29,2.5-.62.34-.92-.1-1.72-.7-1.83Z"/>
                  <path class="cls-3" d="M110.25,168.09c-1.66.12-2.86,2.36-1.82,2.85,1.04.49,1.93.27,2.5-.81.57-1.08.23-2.1-.68-2.04Z"/>
                  <path class="cls-3" d="M127.11,166.08c-1.04.12-1.86,1.22-1.39,2.07.47.85,1.6.33,2.25-.71.66-1.03.67-1.54-.87-1.36Z"/>
                  <path class="cls-3" d="M131.44,155.56c-1.47.03-2.64,1.29-2.27,2.39.38,1.1,1.78,1.11,2.37.16.58-.95,1.03-2.57-.1-2.55Z"/>
                  <path class="cls-3" d="M139.61,162.05c-1.95-.29-3.17,1.41-2.28,3.07.89,1.66,2.86.9,3.12.03.26-.86.95-2.84-.84-3.11Z"/>
                  <path class="cls-3" d="M148.77,152.93c-1,.08-1.83,1.54-1.24,2.36.59.82,1.66.75,2.13-.15s.24-2.3-.89-2.21Z"/>
                  <path class="cls-3" d="M148.8,144.15c-.89.27-2.02,1.24-1.43,2.15.59.91,2.08.58,2.43-.36s-.36-1.98-1-1.79Z"/>
                  <path class="cls-3" d="M155.93,153.85c-1.58-1.1-2.82.89-2.4,2.23.42,1.34,2.99.89,3.15.09s-.09-1.86-.75-2.32Z"/>
                  <path class="cls-3" d="M150.61,163.33c-.99.04-2.5,1.52-1.57,2.35.93.84,2.11.81,2.5-.1.39-.91.24-2.3-.93-2.26Z"/>
                  <path class="cls-3" d="M143.29,172.91c-1.53.06-2.62,1.8-1.79,2.35.83.55,2.66,0,2.74-.79.08-.79.46-1.61-.94-1.56Z"/>
                  <path class="cls-3" d="M132.35,174.5c-1.07,0-2.64,1.56-1.2,2.09,1.45.52,2.17-.6,2.3-1.15.14-.55.26-.94-1.11-.94Z"/>
                  <path class="cls-3" d="M125.04,173.18c-1.75.07-1.93,2.05-1.08,2.53.84.48,1.82-.44,1.98-1.05.16-.6-.13-1.51-.9-1.48Z"/>
                  <path class="cls-3" d="M119.48,168.55c-1.42.44-1.38,1.6-.94,1.73.45.13.75.29,1.14-.33.38-.62.8-1.72-.2-1.41Z"/>
                  <path class="cls-3" d="M122.99,183.96c-1.15-1.72,1.32-3.17,1.86-2.85.53.32.57,1.81-.1,2.62-.67.81-1.15,1.14-1.75.23Z"/>
                  <path class="cls-3" d="M135.31,184.04c-1.71-1.22,1.62-3.71,2.23-3.14s1.72.58.48,2c-1.25,1.43-2.01,1.63-2.7,1.13Z"/>
                  <path class="cls-3" d="M147.57,176.09c-1.33-.09-2.28,1.29-1.75,2.05.53.76,1.01.49,1.58-.12.58-.6,1.28-1.86.17-1.93Z"/>
                  <path class="cls-3" d="M155.83,168.7c-1.25-2.54-4.33,1-3.47,2.21.86,1.21,2.05,1.36,2.51.28.46-1.08,1.34-1.72.96-2.49Z"/>
                  <path class="cls-3" d="M110,158.57c-.31.05-.65.24-.99.51-.37,1.19-.56,1.79-.91,2.99.73-.02,1.75-.66,2.08-1.32.44-.89,1.12-2.38-.17-2.17Z"/>
                </g>
                <path class="cls-2" d="M266.23,124.62c-7.49-8.42-14.8-4.73-13.23,5.02,1.57,9.75,8.06,12.13,13.81,13.12,5.75,1,9.81,10.35,7.16,15.72-3.7,7.53,9.21,21.68,17.85,15.91.87-.58,1.63-1.48,2.28-2.31-3.12-12.64-7.42-24.99-12.88-36.81-5.91-5.29-9.2-4.16-14.99-10.65Z"/>
                <path class="cls-2" d="M280.56,167.59c-6.98.13-11.8-4.57-13.84-9.18-1.85-4.2-1.85-9.13,1.67-9.76,4.32-.78,4.9-3.79,4.07-6.45-.8-2.58-2.95-5.24-5.59-6.97-3-1.97-7.22-4.98-9.12-8.46-1.15-2.12-1.38-4.27-.8-6.26.87-3,4.17-3.46,8.17-1.33.3.16.61.34.92.53,3.05,1.85,5.81,4.58,7.83,7.57,2.23,3.3,4.62,5.45,7.14,7.59-.09-.19-.13-.28-.22-.47-2.34-2-4.55-4.04-6.6-7.06-2.12-3.13-5.13-6.1-8.29-8.04-4.57-2.8-8.42-2.52-9.39.83-.61,2.09-.36,4.39.87,6.67,2.01,3.7,6.37,6.81,9.47,8.84,2.47,1.61,4.41,4,5.15,6.42.77,2.51.2,5.34-3.9,6.08-3.76.67-3.79,5.9-1.84,10.34,1.75,3.98,5.73,8.4,11.5,9.42.95.17,1.96.25,3,.23,4.67-.1,8.58-1.53,11.24-3.84-.08-.27-.12-.4-.2-.67-2.46,2.28-6.27,3.91-11.25,4Z"/>
                <path class="cls-2" d="M280.96,171.71c-5.07,1.58-10.31-.38-13.7-5.73-2.88-4.54-3.79-10.88-.46-12.81,4.16-2.41,3.89-6.62,2.53-9.67-1.25-2.82-3.55-5.21-6.15-6.4-2.91-1.33-7.08-3.44-9.35-6.85-1.5-2.25-2.06-4.93-1.81-7.81.4-4.65,3.89-6.75,8.25-4.95.2.08.41.17.61.27,2.48,1.2,4.86,3.39,6.83,6.14,2.81,3.92,5.59,5.9,8.26,7.83,1.87,1.35,3.76,2.74,5.8,4.77-.15-.32-.22-.49-.37-.81-1.97-1.89-3.79-3.23-5.51-4.49-2.64-1.93-5.16-3.73-7.75-7.34-2.36-3.28-5.21-5.85-8.16-7.08-4.56-1.91-8.23.3-8.66,5.19-.27,3.09.34,6,1.99,8.49,2.48,3.73,6.88,5.95,9.95,7.34,2.29,1.04,4.32,3.15,5.42,5.65,1.25,2.82,1.45,6.73-2.43,8.98-3.62,2.09-2.7,8.95.39,13.84,2.02,3.19,5.35,6.07,9.46,6.67,1.66.24,3.45.11,5.29-.47,5.27-1.66,8.73-5.11,10.35-9.09-.15-.53-.23-.79-.39-1.32-1.44,4.23-4.92,7.94-10.4,9.65Z"/>
                <path class="cls-5" d="M217.37,325.21c.08-2.5,1.17-4.83,3.25-6.7,1.83-1.65,4.22-2.79,6.7-3.35,1.57-.36,3.18-.48,4.68-.36,2.68.21,4.07-.14,5.29-1.08,1.64-1.27,2.7-3.5,4.63-7.67.72-1.56,1.54-3.35,2.57-5.47,2.6-5.39,8.37-11.79,15.53-17.07,8.4-6.2,17.31-9.97,23.09-10.79,2.38-.34,3.87-.11,4.54.7.17-.35.25-.53.41-.88-.8-.65-2.28-.82-4.52-.51-6.04.83-14.98,4.55-23.71,10.96-7.47,5.49-13.25,11.92-15.97,17.6-1.02,2.14-1.84,3.93-2.56,5.51-1.82,3.98-2.82,6.11-4.17,7.15-1,.77-2.3,1.06-4.77.86-4.09-.33-8.88,1.07-12.08,3.95-2.26,2.03-3.48,4.65-3.56,7.35-.09,3.03,1.98,5.28,4.76,6.55.48-.13.72-.2,1.2-.33-3.08-1.15-5.41-3.39-5.31-6.39Z"/>
                <path class="cls-4" d="M218.75,320.56c.46-2.6,1.87-4.83,4.13-6.42,1.43-1.02,3.12-1.71,4.86-2.08,2.18-.47,4.43-.43,6.33.12,2.07.6,3.58.7,5.06-.24,1.74-1.11,3.1-3.37,5.63-7.56.94-1.56,2.01-3.33,3.33-5.43,3.33-5.29,9.69-11.11,16.94-15.65,8.5-5.33,16.78-8.21,21.33-8.48.22-.01.4,0,.6,0,.17-.36.26-.54.43-.89-.11,0-.21,0-.32,0-4.82.25-13.19,3.07-22.11,8.62-7.64,4.75-14.09,10.65-17.61,16.28-1.32,2.12-2.39,3.9-3.33,5.47-2.27,3.8-3.62,6.05-4.97,6.9-1,.63-2.19.7-4.39.06-3.72-1.08-8.55-.38-12.13,2.14-2.54,1.79-4.17,4.37-4.67,7.27-.81,4.68,3.06,8.47,7.36,10.18.6-.19.9-.29,1.51-.49-4.74-1.56-8.73-5.51-7.97-9.78Z"/>
                <path class="cls-4" d="M267.67,303.18c9.65-10.47,16.22-22.16,22.26-34.94-14.72,4.91-29.76,17.1-36.57,30.39-5.74,11.19-5.12,13.6-11.7,14.46-6.58.86-14.5,6.46-14.8,12.74-.08,1.71.73,2.97,2.03,3.75,14.58-6.47,25.56-13.93,37.26-24.78.51-.54,1.01-1.08,1.53-1.62Z"/>
                <path class="cls-5" d="M129.72,142.22c-5.21,1.41-12.93,6.49-19.18,12.17-.08.24-.12.36-.2.6,6.2-5.71,14-10.87,19.22-12.27,15.9-4.27,29.17,5.93,28.13,22.14-.65,10.08-8.84,17.38-16.25,20.53-8.11,3.45-15.66,2.9-18.27-.91-4.19-6.11-7.35-8.49-10.57-8.28-.16.01-.33.03-.49.05-1.5.23-3.03,1.05-4.55,2.42-1.29,1.16-2.68,1.75-3.96,1.73-.04.19-.06.29-.09.49,1.41,0,2.91-.64,4.32-1.9,1.58-1.42,3.1-2.18,4.65-2.28,3.06-.2,6.14,2.15,10.25,8.14,1.68,2.45,5.26,3.61,9.73,3.34,2.79-.17,5.97-1.02,9.13-2.27,7.9-3.11,16.19-12.25,16.66-21.13.86-16.48-12.3-26.97-28.5-22.57Z"/>
              </g>
            </g>
            <ellipse class="cls-7" cx="228.06" cy="148.3" rx="30.92" ry="39.02"/>
            <path class="cls-6" d="M223.25,293.54c-53.77,0-102.67-55.38-97.37-128.31,1.59-21.84,6.8-42.53,14.47-60.88-20.07,25.03-35.16,61.19-38.07,101.24-5.3,72.93,43.59,128.31,97.37,128.31,38.81,0,75.61-28.89,90.71-72.35-18.06,20.06-42.16,32-67.1,32Z"/>
          </g>
        </g>
      </g>
    </g>
  </g>
</svg>