<?xml version="1.0" encoding="UTF-8"?>
<svg xmlns="http://www.w3.org/2000/svg" viewBox="0 0 400 400">
  <defs>
    <style>
      .cls-1 {
        fill: #1e122b;
      }

      .cls-1, .cls-2, .cls-3, .cls-4, .cls-5, .cls-6, .cls-7, .cls-8, .cls-9, .cls-10, .cls-11, .cls-12 {
        stroke-width: 0px;
      }

      .cls-2 {
        fill: #ccb067;
      }

      .cls-3 {
        fill: #768c87;
      }

      .cls-4 {
        fill: #364562;
      }

      .cls-5 {
        fill: #4a6d8d;
      }

      .cls-6 {
        fill: #69322e;
      }

      .cls-7 {
        fill: #fce2a1;
      }

      .cls-8 {
        fill: #282d37;
      }

      .cls-9 {
        fill: #3c6f61;
      }

      .cls-13 {
        isolation: isolate;
      }

      .cls-10 {
        fill: #d1d2d4;
        mix-blend-mode: multiply;
      }

      .cls-11 {
        fill: #8d3e51;
      }

      .cls-12 {
        fill: #332d1b;
        mix-blend-mode: screen;
      }
    </style>
  </defs>
  <g class="cls-13">
    <g id="_Слой_2" data-name="Слой 2">
      <g id="_Слой_1-2" data-name="Слой 1">
        <g>
          <rect class="cls-1" width="400" height="400"/>
          <g>
            <path class="cls-2" d="M299.44,204.17c6.47,74.19-44.56,130.66-99.52,130.66s-104.94-56.39-99.52-130.66c5.58-76.45,54.88-139,99.52-139s93.01,64.4,99.52,139Z"/>
            <g>
              <path class="cls-2" d="M266.92,303.98c-41.84,39.38-92.19,39.43-133.77-.12-50.47-60.11-37.85-145.32,7.67-204.63,38.77-41.83,79.05-42.61,117.86-.36,44.89,59.56,58.93,144.89,8.25,205.1Z"/>
              <path class="cls-5" d="M260.26,100.86c-.63-.8-.95-1.2-1.59-1.98-38.81-42.26-79.09-41.47-117.86.36-1.48,1.77-2.21,2.69-3.64,4.56,37.38-40.24,85.76-46.37,123.09-2.93Z"/>
              <path class="cls-2" d="M261.2,102.06c-.37-.48-.56-.72-.93-1.2-37.33-43.43-85.71-37.31-123.09,2.93-1.25,1.63-1.87,2.46-3.08,4.16,38.95-37.98,87.55-49.7,127.11-5.9Z"/>
              <path class="cls-11" d="M270.75,115.92c-43.06-35.8-97.37-38.64-140.74-1.96-4.99,7.7-7.32,11.87-11.47,20.68,46.1-25.37,107.09-46.47,155.12-13.82-1.14-2-1.72-2.98-2.91-4.9Z"/>
              <path class="cls-2" d="M107.59,260.97c57.15,26.16,127.32,25.4,184.79.45.67-1.93.99-2.91,1.6-4.89-62.48,12.79-127.88,11.94-189.43-5.53,1.07,4.08,1.68,6.08,3.04,9.98Z"/>
              <path class="cls-9" d="M269.49,113.9c-3.17-4.99-4.83-7.37-8.29-11.84-39.56-43.8-88.15-32.08-127.11,5.9-1.13,1.58-1.68,2.38-2.78,4.02,42.97-37.57,95.85-35.56,138.17,1.93Z"/>
              <path class="cls-7" d="M270.75,115.92c-.5-.81-.75-1.22-1.26-2.02-42.32-37.48-95.2-39.49-138.17-1.93-.53.79-.79,1.18-1.31,1.99,43.37-36.68,97.69-33.85,140.74,1.96Z"/>
              <path class="cls-2" d="M131.81,302.41c40.67,41.18,102.92,25.41,143.04-7.89.43-.58.65-.87,1.07-1.45-40.89,33.91-103.5,48.54-145.28,8.03.46.53.7.8,1.17,1.32Z"/>
              <path class="cls-9" d="M111.87,271.69c.73,1.62,1.11,2.42,1.9,4,52.46,28.3,119.73,27.51,172.45.36,2.23-4.48,3.25-6.81,5.07-11.62-53.62,27.92-124.38,35.68-179.41,7.26Z"/>
              <path class="cls-2" d="M273.66,120.82c-48.03-32.65-109.02-11.55-155.12,13.82-.2.43-.3.64-.5,1.07,49.34-27.43,109.27-35.64,159.92-6.9-1.66-3.27-2.52-4.87-4.3-7.99Z"/>
              <path class="cls-9" d="M133.15,303.87c41.58,39.54,91.93,39.5,133.77.12,3.34-3.57,4.93-5.47,7.93-9.47-40.12,33.3-102.37,49.08-143.04,7.89.53.59.8.88,1.34,1.46Z"/>
              <path class="cls-11" d="M122.72,290.9c2.97,4.3,4.57,6.34,7.92,10.19,41.78,40.52,104.39,25.89,145.28-8.03.62-.85.92-1.28,1.52-2.14-45.44,34.94-109.14,34.17-154.72-.02Z"/>
              <path class="cls-6" d="M113.77,275.7c2.78,5.61,4.34,8.29,7.7,13.36,46.85,34.19,110.67,32.7,157.61-.56,3.11-4.73,4.54-7.23,7.14-12.44-52.72,27.15-119.99,27.95-172.45-.36Z"/>
              <path class="cls-2" d="M121.47,289.05c.5.75.75,1.12,1.25,1.85,45.58,34.19,109.27,34.96,154.72.02.67-.96.99-1.45,1.64-2.43-46.94,33.27-110.76,34.76-157.61.56Z"/>
              <path class="cls-2" d="M107.59,260.97c1.54,4.42,2.4,6.56,4.28,10.72,55.03,28.42,125.79,20.66,179.41-7.26.45-1.2.67-1.8,1.09-3.01-57.47,24.95-127.64,25.71-184.79-.45Z"/>
              <path class="cls-2" d="M291.65,163.69c-.16-.57-.25-.85-.42-1.41-59.92-18.92-126.97-11.22-185.56,8.7-.27,1.09-.4,1.64-.66,2.74,58.7-20.86,126.14-26.13,186.63-10.03Z"/>
              <path class="cls-2" d="M296.94,186.6c-.15-.86-.23-1.3-.38-2.16-64.63-7.89-128.28-4.72-193.08-3.43-.18.96-.27,1.44-.45,2.4,64.89-2.79,129.22-4.06,193.91,3.2Z"/>
              <path class="cls-5" d="M298.93,232.31c.64-5.84.82-8.82.84-14.91-65.86,7.8-132.61,16.46-199.04,12.43.11,1.13.18,1.7.31,2.82,65.69,6.83,132.3,8.78,197.89-.34Z"/>
              <path class="cls-3" d="M296.56,184.44c-1.56-8.49-2.56-12.66-4.9-20.75-60.49-16.11-127.93-10.83-186.63,10.03-.67,2.89-.98,4.35-1.55,7.29,64.8-1.28,128.45-4.46,193.08,3.43Z"/>
              <path class="cls-4" d="M297.33,188.9c-65.03.85-130.53,4.17-195.53,2.17-1.25,8.91-1.71,13.64-1.79,22.73,66.51-1.24,132.89-6.32,199.4-7.32-.52-7.25-.96-10.67-2.08-17.58Z"/>
              <path class="cls-2" d="M299.41,206.49c-66.5,1-132.89,6.08-199.4,7.32-.05,5.36.05,7.99.47,13.16,66.73.91,132.88-7.54,199.28-12.73-.06-3.07-.13-4.62-.35-7.74Z"/>
              <path class="cls-11" d="M297.33,188.9c-.15-.92-.23-1.38-.39-2.3-64.69-7.25-129.03-5.99-193.91-3.2-.55,3.04-.79,4.58-1.23,7.67,64.99,1.99,130.5-1.32,195.53-2.17Z"/>
              <path class="cls-2" d="M282.14,137.61c-1.21-2.72-1.84-4.07-3.13-6.7-51.19-28.1-111.45-20.27-161.59,6.15-.32.69-.47,1.04-.78,1.74,51.88-29.09,113.01-28.88,165.51-1.19Z"/>
              <path class="cls-3" d="M287.52,150.99c-1.99-5.5-3.07-8.18-5.38-13.38-52.49-27.69-113.63-27.89-165.51,1.19-1.49,3.38-2.21,5.1-3.56,8.61,55.46-25.83,119.31-19.87,174.44,3.58Z"/>
              <path class="cls-3" d="M101.05,232.65c.92,7.58,1.64,11.27,3.5,18.35,61.55,17.48,126.95,18.32,189.43,5.53,2.81-9.22,3.84-14.1,4.96-24.22-65.59,9.12-132.2,7.18-197.89.34Z"/>
              <path class="cls-7" d="M289.57,156.93c-.79-2.4-1.19-3.59-2.04-5.94-55.14-23.45-118.98-29.41-174.44-3.58-.27.71-.41,1.06-.67,1.77,55.19-22.62,123.65-17.65,177.16,7.75Z"/>
              <path class="cls-5" d="M291.24,162.28c-.64-2.16-.98-3.22-1.67-5.35-53.51-25.4-121.97-30.37-177.16-7.75-3.14,8.39-4.5,12.77-6.73,21.8,58.59-19.92,125.64-27.63,185.56-8.7Z"/>
              <path class="cls-2" d="M299.75,214.23c-66.4,5.19-132.55,13.64-199.28,12.73.09,1.15.15,1.72.26,2.86,66.43,4.02,133.19-4.63,199.04-12.43,0-1.26,0-1.89-.02-3.16Z"/>
              <path class="cls-8" d="M277.96,128.81c-50.65-28.74-110.58-20.53-159.92,6.9-.4.87-.6,1.31-1,2.19,49.71-28.48,110.67-35.29,161.97-6.99-.41-.84-.62-1.26-1.05-2.1Z"/>
              <path class="cls-7" d="M103.08,244.83c64.06,14.88,129.09,13.26,193.55,2.45-.39,1.71-.6,2.56-1.04,4.24-63.9,13.27-128.89,9.33-192.2-5.29-.13-.56-.19-.84-.31-1.4Z"/>
              <path class="cls-7" d="M115.72,279.47c50.28,28.31,119.7,31.66,169.13-.75-.53,1-.8,1.5-1.35,2.49-50.62,29.46-117.08,29.45-167.33-.9-.18-.33-.27-.5-.45-.83Z"/>
              <path class="cls-7" d="M255.3,94.94c20.94,29.43-28.15,80.05-44.39,99.94-17.73,21.71-36.62,43.1-58.54,60.71-10.57,8.49-24.48,20.23-39.1,19.09.44.92.67,1.37,1.13,2.27,33.34-3.51,66.57-42.98,87.17-65.65,19.27-21.2,80.41-81.01,55.96-113.79-.73-.86-1.47-1.72-2.24-2.57Z"/>
              <path class="cls-7" d="M299.18,229.88c-18.48-32.04-55.68-58.82-84.13-81.4-23.55-18.69-59.02-48.28-89.66-26.97-.15.27-.23.4-.39.67,30.4-20.12,65.67,9.26,88.52,27.69,28.97,23.35,68.5,52.63,84.79,87.23.42-2.86.59-4.3.86-7.23Z"/>
              <path class="cls-7" d="M185.03,333.45c.92.17,1.39.25,2.32.4-84.33-67.37-43.14-199.85,18.19-268.37-1.21-.13-1.71-.17-2.91-.24-29.42,35.68-54.22,86.36-64.28,131.23-11.57,51.59,7.95,101.78,46.68,136.98Z"/>
              <path class="cls-8" d="M299.59,209.56c-34.87,3.77-68.56,15.61-99.03,32.83-14.85,8.39-75.13,41.49-63.2,65.76.49.47.74.7,1.23,1.17-7.14-22.13,38.41-49.27,52.63-58.32,32.63-20.75,69.66-34.75,108.54-36.43-.03-1.99-.07-3-.17-5.01Z"/>
            </g>
            <path class="cls-10" d="M224.93,291.34c-53.77,0-102.67-55.38-97.37-128.31,1.59-21.84,6.8-42.53,14.47-60.88-20.07,25.03-35.16,61.19-38.07,101.24-5.3,72.93,43.59,128.31,97.37,128.31,38.81,0,75.61-28.89,90.71-72.35-18.06,20.06-42.16,32-67.1,32Z"/>
            <ellipse class="cls-12" cx="232.74" cy="147.7" rx="30.92" ry="39.02"/>
          </g>
        </g>
      </g>
    </g>
  </g>
</svg>