<?xml version="1.0" encoding="UTF-8"?>
<svg xmlns="http://www.w3.org/2000/svg" xmlns:xlink="http://www.w3.org/1999/xlink" viewBox="0 0 700 700">
  <defs>
    <style>
      .cls-1 {
        fill: #83c7ca;
      }

      .cls-1, .cls-2, .cls-3, .cls-4, .cls-5, .cls-6, .cls-7, .cls-8, .cls-9, .cls-10, .cls-11, .cls-12, .cls-13, .cls-14, .cls-15, .cls-16, .cls-17, .cls-18, .cls-19, .cls-20, .cls-21, .cls-22, .cls-23 {
        stroke-width: 0px;
      }

      .cls-2 {
        fill: #63939d;
      }

      .cls-3 {
        fill: #8b5c58;
      }

      .cls-4 {
        fill: #edc5c2;
      }

      .cls-5 {
        fill: none;
      }

      .cls-6 {
        fill: #ffe4e2;
      }

      .cls-7 {
        fill: #ffaea8;
      }

      .cls-8 {
        fill: #b0e4ee;
      }

      .cls-9 {
        fill: #ffc5b9;
      }

      .cls-10 {
        fill: #b26964;
      }

      .cls-11 {
        fill: #7babb5;
      }

      .cls-12 {
        fill: #ff786e;
      }

      .cls-13 {
        fill: url(#_Безымянный_градиент_16);
      }

      .cls-13, .cls-23 {
        mix-blend-mode: screen;
      }

      .cls-14 {
        fill: #5e9eab;
      }

      .cls-15 {
        fill: #9eced8;
      }

      .cls-16 {
        fill: #e8988b;
      }

      .cls-17 {
        fill: #1d0d2b;
      }

      .cls-18 {
        fill: #e29f9a;
      }

      .cls-19 {
        fill: url(#_Безымянный_градиент_140);
        mix-blend-mode: multiply;
      }

      .cls-24 {
        isolation: isolate;
      }

      .cls-20 {
        fill: #3c7884;
      }

      .cls-21 {
        fill: #d1d3d4;
      }

      .cls-22 {
        fill: #b1d8e0;
      }

      .cls-23 {
        fill: url(#_Безымянный_градиент_139);
      }
    </style>
    <radialGradient id="_Безымянный_градиент_140" data-name="Безымянный градиент 140" cx="746.44" cy="521.38" fx="746.44" fy="521.38" r="320.28" gradientTransform="translate(-393.68 -352.88) scale(1.1 1.3)" gradientUnits="userSpaceOnUse">
      <stop offset=".36" stop-color="#f1f2f2" stop-opacity="0"/>
      <stop offset=".42" stop-color="rgba(220, 221, 222, .15)" stop-opacity=".15"/>
      <stop offset=".59" stop-color="rgba(172, 173, 175, .52)" stop-opacity=".52"/>
      <stop offset=".74" stop-color="rgba(137, 138, 141, .78)" stop-opacity=".78"/>
      <stop offset=".87" stop-color="rgba(116, 117, 120, .94)" stop-opacity=".94"/>
      <stop offset=".97" stop-color="#6d6e71"/>
    </radialGradient>
    <radialGradient id="_Безымянный_градиент_16" data-name="Безымянный градиент 16" cx="521.33" cy="313.31" fx="521.33" fy="313.31" r="424.94" gradientTransform="translate(0 -42.12) scale(1 1.03)" gradientUnits="userSpaceOnUse">
      <stop offset=".68" stop-color="#221e1f" stop-opacity="0"/>
      <stop offset=".71" stop-color="rgba(46, 42, 43, .06)" stop-opacity=".06"/>
      <stop offset=".77" stop-color="rgba(79, 76, 77, .23)" stop-opacity=".23"/>
      <stop offset=".86" stop-color="rgba(133, 132, 133, .51)" stop-opacity=".51"/>
      <stop offset=".97" stop-color="rgba(206, 206, 207, .88)" stop-opacity=".88"/>
      <stop offset="1" stop-color="#e6e7e8"/>
    </radialGradient>
    <radialGradient id="_Безымянный_градиент_139" data-name="Безымянный градиент 139" cx="792.77" cy="863.15" fx="792.77" fy="863.15" r="106.23" gradientTransform="translate(-474.63 -1074.29) scale(1.07 1.57)" gradientUnits="userSpaceOnUse">
      <stop offset="0" stop-color="#f1f2f2"/>
      <stop offset="1" stop-color="#221e1f" stop-opacity="0"/>
    </radialGradient>
  </defs>
  <g class="cls-24">
    <g id="_Слой_2" data-name="Слой 2">
      <g id="_Слой_3" data-name="Слой 3">
        <g>
          <rect class="cls-17" width="700" height="700"/>
          <g>
            <g>
              <path class="cls-22" d="M534.38,357.73c12.01,137.55-82.62,242.27-184.53,242.27s-194.58-104.56-184.53-242.27c10.35-141.75,101.75-257.73,184.53-257.73s172.45,119.42,184.53,257.73Z"/>
              <g>
                <path class="cls-6" d="M454.38,534.85c7.11-9.28,13.44-9.12,9.74-2.02-1.92,3.69-8.12,12.09-14.91,19.67-8.39,9.37-5.69,13.77,1.85,8.45,6.97-4.92,16.44-14.53,26.53-26.18,14.83-17.14,17.39-30.71,9.96-39.3-10.96-12.67,23.5-50.52,39.84-59.66.53-.3,1.04-.63,1.55-.94,4.72-20.33,6.66-43.31,5.57-64.13-24.32-7.76-46.97,9.64-58.87,29.41-14.66,24.36-6.91,52.41-6.11,78.18,1.04,33.66-32.09,66.22-54.6,86.84-14.68,13.45-37.39,15.87-48.72,32.75,19.37-1.87,41.26-8.92,58.21-18.4,15.61-18.68,21.58-33.75,29.96-44.68Z"/>
                <path class="cls-16" d="M354.85,195.98c-21.76,5.1-46.53-1.47-65.31-8.72-23.72-9.16-47.67,4.76-65.08,18.32-9.79,7.63-19.73,18.99-28.31,29.63-10.55,23.92-18.47,48.97-23.7,74.56,2.78,8.95,7.83,15.53,13.39,15.82,13.61.73,9.78-9.39,4.22-20.58-5.56-11.19.59-20.66,8.7-22.33,8.11-1.67,4.68,30.24,15.55,49.65,14.99,26.77,49.62,26.67,75,22.21,26.03-4.58,15.1-38.91-6.85-39.94-22.83-1.07-33.92-23.4-28-40.13,12.29-34.75,59.62-35.26,84.93-15.85,26,19.94,75.79-4.53,72.01-37.43-3.1-27-35.32-30.19-56.54-25.21Z"/>
                <path class="cls-9" d="M220.39,314c1.73,12.53,13.32,30.25,37.39,31.11,24.07.85,47.53-18.02,26.99-21.05-17.89-2.64-42.81-18.7-44.18-37.71-1.24-17.24,13.98-39.35,30.11-46.81,9.54-4.42,14.19-15.75,10.54-29.63-1.89-7.21-6.94-14.83-18.16-15.24-23.58-.87-52.73,25.53-64.34,46.67-7.1,12.93.56,7.78,19.31-5.43,24.49-17.25,30.78-1.48,16.27,22.44-9.01,14.86-16.4,37.86-13.94,55.65Z"/>
                <path class="cls-12" d="M305.92,203.77c7.32,4.84,34.11,6.84,52.55.17,30.64-11.08,39.92-.45,37.3,17.39-2.61,17.84-17.83,30.12-37.1,29.16-12.98-.64-15.96-13.24-3.74-12.69,21.04.95,21.93-23.11,7.87-17.11-19.04,8.12-43.46,19.21-62.59,12.09-9.69-3.61-13.2-16.53-9.87-25.73,1.93-5.34,5.74-9.78,15.58-3.28Z"/>
                <path class="cls-2" d="M504.67,305.03c-28.62,7.25-28.01,53.92-70.46,61.19-36.15,6.19-77.41,27.01-104.28,52.76-28.28,27.1-40.87,81.27-9.49,110.25,20.58,19,60.04,19.89,74.75-8.27,10.95-20.96-6.53-40.97-6.1-60.76.39-18.13,13.38-32.41,34.65-29.79,26.97,3.32,21.74-24.41,9.65-32.75-12.09-8.34-16.51-21.87,6.04-18.97,29.27,3.77,71.67-9.99,82.96-40.06,7.47-19.89-5.22-36.77-17.72-33.6Z"/>
                <path class="cls-6" d="M336.4,285.04c4.61,21.01.92,42.21,8,61.83,5.57,15.44,20.6,17.51,29.05,12.49,8.45-5.02,20.56,10.82.76,18.12-28.57,10.53-58.8,23.98-79.6,47.06-25.14,27.9-24.57,65.34-13.41,94.53,11.54,30.17-15.01,30.61-29.86,15.29-19.92-20.54-31.56-52.67-18.76-79.99,10.61-22.65,27.03-34.64,13.6-47.27-13.44-12.63-30.15-37.53-4.53-42.15,25.62-4.62,24.95,16.57,51.29,12.35,32.15-5.15,43.77-84.87,9.21-79.44-25.5,4.01-45.54-3.91-39.17-18.39,14.16-32.18,65.81-29.14,73.43,5.57Z"/>
                <path class="cls-18" d="M450.2,469.03c-1.01-25.53-38.51-37-48.16-18.02-11.84,23.28,21.48,56.89.13,87.81-15.45,22.38-47.57,29.57-67.58,10.64-18.36-17.37-37.22-13.98-40.01,3.15-2.79,17.13-19.87,16.06-41.53-4.98-15.76-15.31-33.48-23.23-36.41-19.32-1.25,1.66,3.9,7.84,12.27,17.09,27.4,28.97,66.39,49.01,106.2,52.85,9.46-7.01,24.13-13.98,48.22-23.99,39.27-16.31,68.51-63.74,66.87-105.22Z"/>
                <path class="cls-1" d="M190.6,466.41c-1.76,2.95-5.15,5.31-7.19,7.99,3.97,9.82,6.2,14.56,11.09,23.61,12.48,12.98,26.68,24.02,31.01,22.2,8.74-3.67-8.91-23.3-12.14-45.89-1.93-13.48,1.27-23.14,8.86-38.75,9.56-19.67-13.6-47-8.46-69.05,6.9-29.63-28.69-33.6-46.71-22.3-1.79,25.08-1.66,46.79.75,71.79,16.12,19.68,29.82,38.66,22.8,50.4Z"/>
                <path class="cls-11" d="M412.28,132.58c5.59,12.84,18.96,53.45,4.59,54.4-6.43.43-9.6-13.83-6.79-23.01,3.6-11.74,2.64-24.05-6.19-42.07-1.38-2.82-2.9-5.67-4.57-8.45-5.88-3.02-8.86-4.33-14.84-6.5,12.04,13.84,18.47,38.13,13.51,55.66-4.85,17.18-5.76,30.32,9.1,32.79,14.87,2.47,22.2,9.66,26.03,29.38,3.83,19.71-3.57,33.36-22.6,35.2-24.32,2.36-42,22.02-41.33,46.72.73,26.97,22.17,48.9,47.39,45.51,26.75-3.6,61.75-29.77,74.5-56.58,10.83-22.78,7.43-48.5-6.41-69.05-14.56-21.62-29.63-26.63-32.32-43.94-2.69-17.31,3.97-12.63.99-20.62-1.46-3.92-4.71-8.75-8.51-13.98-13.61-13.95-20.85-19.9-35.72-29.04-.28,3.34.8,8.21,3.15,13.6Z"/>
                <path class="cls-2" d="M314.64,116.23c-15.83,17.33-23.76,29.24-33.55,35.05-6.79,4.03-6.17-1.55-4.55-5.46,1.75-4.23,5.86-10.11,9.45-10.9,6.48-1.43,16.05-8.36,20.47-17.14,1.59-3.16,2.35-6.29,1.38-8.25-20.36,8.49-36.06,22.19-52.35,36.57-8.44,9.51-16.62,19.15-24.18,27.98-11.08,15-16.28,23.31-25.56,41.12,2.5-1.57,5.74-4.19,9.28-7.85,13.54-14.03,42.03-45.84,60.38-37.38,12.94,5.96,26.7,18.93,33.94,7.98,4.83-7.3-1.5-11.77,3.46-30,5.42-19.9,32.46-31.72,36.4-13.07,3.94,18.65-4.51,32.86,1.62,41.36,8.14,11.28,25.52,7.25,35.18-8.05,12.05-19.1,7.06-47.37-9.71-63.86-18.11-5.08-27.26-5.55-45.16-2.08-5.92,3.68-11.58,8.6-16.51,13.99Z"/>
                <path class="cls-10" d="M324.27,578.04c13.59,7.9,26.48,2.46,31.72-1.95,5.24-4.41,6.02-10.27-3.24-7.68-16.77,4.68-33.94-19.77-44.17-13.65-10.23,6.12-5.54,18.33-18.72,21.2-13.26,2.89-26.65-10.44-45.07-29.79-14.29-15.01-24.33-16.44-18.88-7.49,2.51,4.13,9.03,11.32,16.21,18.98,15.45,13.64,36.39,25.94,56.01,32.45,2.27-1.1,4.54-2.73,6.83-5.01,7.44-7.41,4.19-15.85,19.31-7.06Z"/>
                <path class="cls-7" d="M425.2,524.83c6.92-17.82,11.81-68.7-4.52-74-9.7-3.15-15.16,11.73-9.67,23.42,9.99,21.28,13.37,56.26-7.04,70.52-14.51,10.14-5.78,12.25,2.15,7.13,7.93-5.12,13.48-12.67,19.08-27.07Z"/>
                <path class="cls-1" d="M471.72,364.48c18.41-1.23,41.18-16.74,42.84-32.22,1.66-15.48-6.27-23.06-12.44-19.18-6.16,3.88-18.09,33.49-28.48,40.47-10.39,6.98-12.16,11.61-1.92,10.93Z"/>
                <path class="cls-1" d="M366.79,415.64c-21.25,18.27-54.67,73.9-25.57,98.13,20.5,17.07,43.09-8.67,41.96-29.14-1.15-20.83-5.41-36.43,1.48-47.33,9.41-14.87,21.61-19.1,33.57-19.32,12.16-.22,8.52-24.85-7.51-23.09-16.03,1.76-28,7.06-43.93,20.76Z"/>
                <path class="cls-7" d="M506.14,387.09c-22.93,12.83-33.37,47.86-25.6,73.01,3.03,9.8,8.91,5.8,11.99-3.48,5.05-15.23,27.24-30.29,40.03-42.51,1.36-10.39,1.78-15.71,2.06-26.55-6.51-4.42-18.1-6.27-28.48-.45Z"/>
                <path class="cls-10" d="M229.46,241.01c-2.31-7.85-32.26,8.42-45.37,25.36-2.63,7.85-3.84,11.85-6.06,19.98,1.68,2.52,5,2.89,8.02.1,8.3-7.65,14.67-10.9,21.76-11.38,11.32-.76,23.03-29.41,21.66-34.06Z"/>
                <path class="cls-18" d="M481.27,199.03c-2.62-5.37-3.38-7.89-3.7-9.57-7.29-11.28-11.17-16.59-19.25-26.38-3.55-4.3-5.36-6.38-9.03-10.36,4.42,6.33,13.99,17.42,11.14,19.2-3.78,2.37-7.25,14.6,11.82,34.29,14.81,15.29,36.76,37.99,35.19,59.09-1.08,14.46-2.3,33.63,13.6,40.03,1.69.68,3.21.83,4.58.6-7.71-29.65-17.28-56.96-30.05-84.82-6.34-8.62-11.6-16.53-14.31-22.08Z"/>
                <path class="cls-1" d="M324.85,181.61c-7.65-5.61-9.14-27.72.7-38.82,9.84-11.09,17.62-9.33,19.06,2.6,1.44,11.93.97,25.34-4.62,32.51-3.56,4.57-9.82,7.61-15.15,3.71Z"/>
                <path class="cls-7" d="M465.61,178.89c-1.73,2.57-1.73,11.68,9.73,24.96,11.46,13.28,16.39,15.46,11.21,7.46-5.17-8-12.32-20.82-11.97-23.5.35-2.68-7.19-11.56-8.97-8.92Z"/>
                <path class="cls-2" d="M497.99,488.51c.06,5.86,3.94,7.77,9.98,4.54,8.2-15.77,11.67-24.26,16.89-42.18-12.35,6.55-26.99,26.74-26.88,37.64Z"/>
                <path class="cls-8" d="M419.11,125.65c-1.68,4.32,4.09,21.71,13.24,32.93,11,13.49,12.87-.79,7.34-12.03-1.4-2.85-2.95-5.47-4.53-7.87-6.29-5.69-9.51-8.31-16.05-13.03Z"/>
                <path class="cls-1" d="M232.15,175.64c-16.39,19.71-23.61,30.65-13.15,23.23,10.45-7.42,22.12-23.91,28.32-31.36,15.05-18.06,26.04-29.47,33.05-33.06,5.87-3.01,13-8.8,15.36-15.3.73-2.02.84-3.27.55-3.98-8.1,4.42-12.12,7.02-19.99,12.93-15.87,14.43-30.5,31.16-44.13,47.54Z"/>
                <path class="cls-22" d="M443.29,218.06c8.97,27.6-5.39,46.27-32.65,51.67-22.57,4.47-44.12,35.26-24.47,53.32,23.46,21.56,71.67.09,79.23-29.49,7.66-29.99,5.02-65.27-17.09-91.8-8.03-9.64-11.01-2.13-5.02,16.3Z"/>
                <path class="cls-4" d="M476.3,501.14c-2.13,6.69,16.17,4.94,9.81,16.75-8.81,16.36-21.5,30.27-26.16,28.06-2.69-1.28,14.98-20.41,14.07-25.05-.92-4.64-7.69-5.66-4.66-14.2s8.76-11.26,6.94-5.56Z"/>
                <path class="cls-12" d="M501.71,411.84c-4.07,8.75-18.96,17.71-17.71,31.82.72,8.11,9.96-3.01,12.54-7.76,6.88-12.68,15.61-14.58,25.78-20.2,10.17-5.63,8.57-20.2.24-15.36-8.33,4.84-11.67,1.72-7.68-2.43s5.7-10.46-5.98-5.14c-11.68,5.32-14.67,15.67-12.57,15.47,2.1-.2,7.84-1.67,5.39,3.61Z"/>
                <path class="cls-9" d="M243.34,469.8c-3.17,18.04,4.06,49.45,20.81,55.84,10.3,3.93,6.03-18.46,3.48-37.22-3.42-25.19.34-59.41,22.32-76.52,12.16-9.47,5.78-16.01-9.2-5.13-19.18,13.93-33.36,40.02-37.41,63.03Z"/>
                <path class="cls-16" d="M251.55,373.4c-9.91.19-15.35,5.46-9.58,15.01,5.78,9.54,19.82,7.14,21.39-.02,1.57-7.16-.97-15.2-11.82-14.99Z"/>
                <path class="cls-16" d="M295.25,265.95c-15.47,2.02-28.61,20.68-13.29,20.23,15.32-.45,34.33-3.32,39.08,7.28,4.75,10.6,4.89,26.49,9.1,23.97,4.21-2.52,2.89-13.05-.85-27.97-3.79-15.15-9.19-26.75-34.04-23.51Z"/>
                <path class="cls-18" d="M348.74,289.28c-3.24,9.54-5.28,42.72,5.42,52.67,6.97,6.48,16.45.75,12.68-11.39-3.77-12.14-8.76-32.95-3.25-42.89,5.51-9.93-9.54-14.01-14.85,1.6Z"/>
                <path class="cls-6" d="M240.1,208.14c-10.57,4.93-18.55,14.41-8.22,10.91,10.33-3.5,27.34.04,19.47,13.43-7.87,13.38,10.01,6.41,15.64-4.51,8.24-16-5.98-29.58-26.88-19.82Z"/>
                <path class="cls-2" d="M172.76,400.46c-6.97-21.8-1.12-41.91,9.36-45.08,10.48-3.18,19.66,8.17,15.29,19.92-4.37,11.75-2.58,25.23,3.74,34.55,6.32,9.31-.54,16.65-10.07,13.53-9.53-3.13-14.97-12.44-18.32-22.91Z"/>
                <path class="cls-14" d="M205.89,481.61c8.53,15.66,13.8,30.78,4.21,24.19-9.59-6.59-16.75-13.21-15.56-22.91,1.19-9.69,7.53-8.31,11.35-1.28Z"/>
                <path class="cls-14" d="M210.43,427.56c-9.45-.81-17.45,5.86-14.18,13.53,3.26,7.67,8.03,5.55,12.61-.47,4.58-6.02,7.83-12.52,1.58-13.06Z"/>
                <path class="cls-9" d="M327.22,355.68c-.49,5.92-9.64,20.11-18.52,28.24-5.74,5.25,1.34,10.02,8.92,4.01,9.99-7.92,19.39-8.06,29.11-11.43,6.29-2.18,3.23-9.1-2.08-9.58-6.9-.62-8.38-10.62-8.55-13.43-.32-5.42-8.19-6.12-8.89,2.19Z"/>
                <path class="cls-6" d="M230.58,308.06c.46,13.08,14.61,28.56,32.03,28.38,9.82-.1,8.02-9.18.93-11.59-7.08-2.4-21.27-14.39-24.89-22.3-3.62-7.9-8.36-2.65-8.08,5.5Z"/>
                <path class="cls-9" d="M333.77,217.16c-8.88,2.61-20.76-.92-25.38-4.76-4.62-3.84-12.45,2.99-7.5,9.59,4.96,6.6,24.78,6.17,34.41,1.24,6.07-3.11,7.28-8.66-1.53-6.07Z"/>
                <path class="cls-2" d="M418.4,227.96c-.35-4.69-2.11-11.5-4.77-17.33-2.66-5.83,3.19-7.17,8.34,1.38,7.8,12.97,7.31,31.49-3.32,36.71-7.08,3.48-8.82-2.09-5.24-6.03,3.58-3.94,5.35-9.81,4.98-14.73Z"/>
                <path class="cls-14" d="M331.67,155.63c.11-4.34,2.93-9.99,6.26-12.2s6.4,11.08,1.5,18.36c-4.9,7.28-7.97,1.63-7.76-6.17Z"/>
                <path class="cls-1" d="M335.66,108.9c22.25-14.16,36.85,1.18,40.35,15.4,3.51,14.22-4.33,42.68-13.93,45.09-9.61,2.42-6.04-10.52-4.07-18.67,5.63-23.31-12.64-33.67-19.87-31.68-7.23,1.99-10.94-4.76-2.48-10.14Z"/>
                <path class="cls-15" d="M314.67,132.05c-9.29,7.83-9.99,28.91-9.29,34.36.7,5.44-4.09,12.71-10.5,7.87-6.41-4.84-11-8.79-4.08-22.69,4.9-9.84,15.32-23.77,23.08-26.69,7.76-2.92,5.12,3.51.79,7.15Z"/>
                <path class="cls-7" d="M267.27,149.59c-10.14,8.19-24.48,25.19-18.26,22.07,6.22-3.12,14.3-6.15,18.36-14.37,4.06-8.22,5.94-12.58-.11-7.7Z"/>
                <path class="cls-10" d="M288.76,137.82c-3.77.91-9.11,6.63-9.07,8.33.04,1.7,6.81-1.95,8.7-4.8,1.89-2.85,2.57-4.06.36-3.53Z"/>
                <path class="cls-15" d="M440.69,169.32c-5.26-1.15-11.54,6.58-9.19,12.39,2.34,5.81,15.81,15.31,14.45,8.01-1.35-7.3-2.32-10.76-1.55-12.92s.42-6.58-3.71-7.49Z"/>
                <path class="cls-16" d="M401.14,281.98c-10.85,9.07-11.58,30.94,6.33,36.11,10.97,3.17,20.03-.3,21.63-15.48,1.57-14.86,4.48-27.03,13.19-25.32,8.7,1.71,2.05,9.69-.75,14.57-2.8,4.88-8.21,9.49-3.36,16.35,4.18,5.91,22.92-8.49,21.08-25.59-1.83-17.1-13.36-18.32-21.32-14.69-7.96,3.63-31.47,9.59-36.79,14.04Z"/>
                <path class="cls-14" d="M456.07,248.26c-3.65-12.15-11.55-30.58-6.87-33.08,4.68-2.5,12.64,16.5,12,25.07-.65,8.57-3.66,12.9-5.13,8.01Z"/>
                <path class="cls-3" d="M479.44,278.75c2.26-8.1-4.12-34.16-11.12-48.53-4.82-9.89,3.83-11.27,9.79-1.65,9.8,15.81,16.94,42.28,8.23,57.71-4.93,8.73-9.03.1-6.9-7.53Z"/>
                <path class="cls-16" d="M355.77,460.45c-15.22,13.01-14.85,39.09-9.16,46.3,6.13,7.78,16.48,8.5,22.3-2.59,5.82-11.08,5.19-26.02,1.9-37.07-2.43-8.17-7.57-13.03-15.03-6.65Z"/>
                <path class="cls-12" d="M290.26,449.16c-10.03,19.01-11.85,46.14-1.11,64.44,6.81,11.61,16.49,9.94,13.04,1.16-7.7-19.57-11.07-45.61-4.25-64.79,3.52-9.91-.99-13.47-7.67-.81Z"/>
                <path class="cls-12" d="M467.49,386.42c-4.95,3.17-8.1,3.09-18.31,2.28-6.05-.48-7.35,8.06-2.03,12.81,7.89,7.03,7.95,17.82,2.33,23.42-5.62,5.6-2.18,14.83,3.71,10.15,5.89-4.68,4.24-11.73,6.21-21.53,1.98-9.79,4.27-16.17,10.56-21.01,6.29-4.84,7.85-12.72-2.47-6.11Z"/>
                <path class="cls-15" d="M346.93,414.19c-10.55,2.97-23.35,19.25-23.73,28.43-.38,9.18,8.36,5.38,11.62-.34,3.26-5.72,4.88-13.3,11.59-18.01,6.71-4.71,8.96-12.46.52-10.08Z"/>
                <path class="cls-15" d="M313.95,464.33c-3.89,7.78-5.84,23.08-3.43,29.08,2.41,5.99,12.78,7.26,11.29-4.1-1.48-11.36-2.09-13.09-.12-19.1,1.97-6.01-4.22-12.94-7.74-5.89Z"/>
                <path class="cls-15" d="M320.9,514.98c5.64,11.66,17.15,20.28,27.95,20.29,10.8,0,9.48-8.11,3.49-8.06-5.99.05-14.45-5.08-22.01-17.39-7.16-11.66-13.81-3.91-9.42,5.16Z"/>
                <path class="cls-16" d="M380.11,418.5c6.33-9.1,16.46-14.39,25.15-14.62,9.98-.27,8.96,7.68-1.99,9.62-8.41,1.49-14.45,6.8-18.67,11.66-4.23,4.87-8.71-.58-4.48-6.66Z"/>
                <path class="cls-16" d="M360.25,432.75c-7.24,1.58-6.09,11.47-1.94,12.6,4.14,1.13,11.72-3.28,10.64-9.17-1.08-5.89-4.9-4.26-8.7-3.43Z"/>
                <path class="cls-12" d="M234.79,411.44c-5.28.87-6.65,13.2-4.62,16.63,2.03,3.42,6.2,3.6,8.59-3.46,2.38-7.06.66-13.93-3.97-13.17Z"/>
                <path class="cls-20" d="M180.35,375.93c1.42-5.4,9.25-6.72,8.52,2.05-.73,8.78-.7,18.35,2.81,25.5,4.36,8.87,7.6,14.72.62,11.84-6.98-2.88-15.11-27.41-11.95-39.4Z"/>
                <path class="cls-12" d="M195.99,265.49c3.59-7.71,18.22-20.93,18.57-14.85.36,6.08-.53,12.54-7.86,17.06-7.34,4.52-14.38,5.66-10.71-2.21Z"/>
                <path class="cls-22" d="M244.62,163.02c-7.29,8.13-19.31,21.5-19.74,23.96-.43,2.46,7.05-3.93,12.68-10.99,5.63-7.07,8.6-11.42,12.3-15.65,5.13-5.87,8.38-8.87,7.88-10.34-.44-1.27-8.24,7.58-13.12,13.02Z"/>
                <path class="cls-15" d="M367.75,117.82c-7.17-8.49-9.78.37-7.83,4.87,1.95,4.49,7.44,6.06,8.51,3.75,1.08-2.31,2.52-4.82-.69-8.62Z"/>
                <path class="cls-7" d="M435.34,148.3c-6.05-6.78-8.52-4.09-5.15,2.03,3.37,6.12,7.45,8.6,8.16,6.38.71-2.22.42-4.57-3.01-8.41Z"/>
                <path class="cls-12" d="M256.42,562.62c-8.12-6.57-20.78-22.23-23.08-21.24-2.29.99,7.9,13.05,15.79,20.13,9.37,8.4,14.93,11.35,14.12,8.17-.81-3.18-1.38-2.65-6.83-7.06Z"/>
                <path class="cls-5" d="M167.8,416.02c2.52,19.45,8.04,40.27,15.61,58.38,2.04-2.68,5.43-5.04,7.19-7.99,7.02-11.74-6.68-30.72-22.8-50.4Z"/>
                <path class="cls-5" d="M306.46,117.78c-4.41,8.78-13.98,15.71-20.47,17.14-3.59.79-7.71,6.67-9.45,10.9-1.61,3.91-2.24,9.49,4.55,5.46,9.79-5.81,17.72-17.72,33.55-35.05,4.93-5.4,10.59-10.31,16.51-13.99-9.33,1.81-14.02,3.3-23.31,7.29.97,1.97.21,5.09-1.38,8.25Z"/>
                <path class="cls-5" d="M410.08,163.97c-2.81,9.18.39,23.43,6.79,23.01,14.46-.96,1.01-41.55-4.59-54.4-2.35-5.39-3.43-10.26-3.15-13.6-3.89-2.4-5.86-3.51-9.81-5.54,1.67,2.79,3.19,5.63,4.57,8.45,8.83,18.03,9.79,30.34,6.19,42.07Z"/>
                <path class="cls-4" d="M434.23,560.56c4.62-7.38,5.58-12.19-5-2.38-14.67,13.6-42.6,24.13-49.16,35.22-.28.48-.21,1.63-.23,2.36,14.8-3.04,22.08-5.49,36.01-11.95,7.88-8.52,15.13-18.03,18.39-23.25Z"/>
                <path class="cls-21" d="M416.67,296.87c-6.52,1.62-8.44,6.2-4.88,11.07,3.55,4.87,8.44,3.54,9.33-.89.89-4.43,2.66-11.95-4.44-10.18Z"/>
              </g>
            </g>
            <g>
              <path class="cls-19" d="M349.86,100c-82.78,0-174.18,115.98-184.53,257.73-10.05,137.71,82.62,242.27,184.53,242.27s196.53-104.72,184.53-242.27c-12.07-138.32-98.3-257.73-184.53-257.73Z"/>
              <path class="cls-13" d="M349.63,600c28.6,0,55.67-8.27,79.85-22.97,15.96-60.76,5.46-139.19-33.95-212.92-45.35-84.85-117.15-141.34-184.96-153.6-28.63,41.83-45.99,106.03-45.99,165.36,0,129.61,82.85,224.13,185.05,224.13Z"/>
              <ellipse class="cls-23" cx="376.7" cy="284.22" rx="114.08" ry="167.2"/>
            </g>
          </g>
        </g>
      </g>
    </g>
  </g>
</svg>