<?xml version="1.0" encoding="UTF-8"?>
<svg xmlns="http://www.w3.org/2000/svg" xmlns:xlink="http://www.w3.org/1999/xlink" viewBox="0 0 700 700">
  <defs>
    <style>
      .cls-1 {
        fill: #4e428a;
      }

      .cls-1, .cls-2, .cls-3, .cls-4, .cls-5, .cls-6, .cls-7, .cls-8, .cls-9, .cls-10, .cls-11, .cls-12 {
        stroke-width: 0px;
      }

      .cls-2 {
        fill: #913252;
      }

      .cls-3 {
        fill: #958eb9;
      }

      .cls-4 {
        fill: #ebd88e;
      }

      .cls-5 {
        fill: #d9c883;
      }

      .cls-6 {
        fill: #1d0d2b;
      }

      .cls-7 {
        fill: #bba863;
      }

      .cls-8 {
        fill: #76ab9c;
      }

      .cls-9 {
        fill: url(#_Безымянный_градиент_140);
        mix-blend-mode: multiply;
      }

      .cls-13 {
        isolation: isolate;
      }

      .cls-10 {
        fill: #e6e7e8;
      }

      .cls-11 {
        fill: url(#_Безымянный_градиент_142);
      }

      .cls-11, .cls-12 {
        mix-blend-mode: screen;
      }

      .cls-12 {
        fill: url(#_Безымянный_градиент_139);
      }
    </style>
    <radialGradient id="_Безымянный_градиент_140" data-name="Безымянный градиент 140" cx="808.5" cy="940.8" fx="808.5" fy="940.8" r="320.28" gradientTransform="translate(-461.68 -897.28) scale(1.1 1.3)" gradientUnits="userSpaceOnUse">
      <stop offset=".36" stop-color="#f1f2f2" stop-opacity="0"/>
      <stop offset=".42" stop-color="rgba(220, 221, 222, .15)" stop-opacity=".15"/>
      <stop offset=".59" stop-color="rgba(172, 173, 175, .52)" stop-opacity=".52"/>
      <stop offset=".74" stop-color="rgba(137, 138, 141, .78)" stop-opacity=".78"/>
      <stop offset=".87" stop-color="rgba(116, 117, 120, .94)" stop-opacity=".94"/>
      <stop offset=".97" stop-color="#6d6e71"/>
    </radialGradient>
    <radialGradient id="_Безымянный_градиент_142" data-name="Безымянный градиент 142" cx="521.33" cy="361.83" fx="521.33" fy="361.83" r="424.94" gradientTransform="translate(0 -91.97) scale(1 1.03)" gradientUnits="userSpaceOnUse">
      <stop offset=".77" stop-color="#221e1f" stop-opacity="0"/>
      <stop offset=".79" stop-color="rgba(46, 42, 43, .06)" stop-opacity=".06"/>
      <stop offset=".84" stop-color="rgba(79, 76, 77, .23)" stop-opacity=".23"/>
      <stop offset=".9" stop-color="rgba(133, 132, 133, .51)" stop-opacity=".51"/>
      <stop offset=".98" stop-color="rgba(206, 206, 207, .88)" stop-opacity=".88"/>
      <stop offset="1" stop-color="#e6e7e8"/>
    </radialGradient>
    <radialGradient id="_Безымянный_градиент_139" data-name="Безымянный градиент 139" cx="841.57" cy="1529.28" fx="841.57" fy="1529.28" r="106.23" gradientTransform="translate(-527.04 -2122.74) scale(1.07 1.57)" gradientUnits="userSpaceOnUse">
      <stop offset="0" stop-color="#f1f2f2"/>
      <stop offset="1" stop-color="#221e1f" stop-opacity="0"/>
    </radialGradient>
  </defs>
  <g class="cls-13">
    <g id="_Слой_2" data-name="Слой 2">
      <g id="_Слой_3" data-name="Слой 3">
        <g>
          <rect class="cls-6" width="700" height="700"/>
          <g>
            <g>
              <path class="cls-1" d="M534.38,357.73c12.01,137.55-82.62,242.27-184.53,242.27s-194.58-104.56-184.53-242.27c10.35-141.75,101.75-257.73,184.53-257.73s172.45,119.42,184.53,257.73Z"/>
              <g>
                <path class="cls-1" d="M474.33,542.54c-73.82,73.44-174.57,73.9-248.29.05-94.76-107.78-70.41-273,14.22-379.42,28.14-31.88,64.5-62.86,109.45-63.17,44.96-.32,81.49,30.89,109.32,62.8,83.68,106.63,110.67,272.02,15.3,379.74Z"/>
                <path class="cls-1" d="M474.33,542.54c-73.82,73.44-174.57,73.9-248.29.05-94.76-107.78-70.41-273,14.22-379.42,28.14-31.88,64.5-62.86,109.45-63.17,44.96-.32,81.49,30.89,109.32,62.8,83.68,106.63,110.67,272.02,15.3,379.74Z"/>
                <g>
                  <path class="cls-7" d="M428.88,526.07c.2-1.05-.52-1.67-1.58-1.34-14.55,4.5-29.51,7.15-44.43,8.81-3.42.38-7.02.61-10.64.81-.61.03-1.19.35-1.57.88-3.01,4.14-7.4,9.56-12.71,15.53-.51.57-.63,1.39-.35,2.05,6.31,14.56,12.14,29.67,15.5,45.39,15.11-2.96,28.74-7.15,42.94-13.1.9-.41,1.86-1.58,2-2.42,3.17-18.91,7.26-37.76,10.84-56.6Z"/>
                  <path class="cls-8" d="M352.57,556.63c-12.34,13.26-26.19,26.3-41.66,35.55-1.01.6-.06,2.7,1.38,3.07,19.67,4.16,37.63,5.24,57.6,3.41-3.29-14.39-8.66-28.21-14.41-41.57-.49-1.15-2.04-1.4-2.92-.46Z"/>
                  <path class="cls-10" d="M350.35,545.88c-1.08-2.29-2.21-4.64-3.38-7.06-1.34-2.76-4.1-4.57-7.1-4.83-28.21-2.44-55.42-9-81.98-18.95-3.27-1.22-6.07-.6-6.95,1.68-2.56,6.57-5.68,13.41-8.26,17.17-.66.97-.46,2.62.55,4.62,4.44,8.84,8.85,17.71,13.13,26.64,1.63,3.38,5.63,7.85,8.9,9.88,11.04,6.86,22.83,12.51,35.14,16.69,1.28.43,2.47.45,3.35,0,17.31-8.68,31.79-22.83,45.17-36.72,2.28-2.36,2.87-6.04,1.42-9.13Z"/>
                  <path class="cls-2" d="M239.91,536.81c-.68-1.32-1.38-2.65-2.09-4-5.67-10.84-11.37-21.69-17.08-32.51-1.01-1.91-2.87-3.77-4.81-4.85-4.8-2.65-9.33-5.31-13.55-7.92-.82-.51-1.64-1.02-2.44-1.52-3.32-2.1-6.43-4.16-9.31-6.16-3.65-2.53-6.21-1.81-4.84,1.3,10.19,21.35,22.05,40.09,37.27,58.18,1.63,1.82,4.44,4.84,6.28,6.73,7.15,7.44,15.29,14.57,23.64,20.64,2,1.47,2.78,1.02,1.74-1.05-4.85-9.65-9.83-19.25-14.82-28.83Z"/>
                  <path class="cls-10" d="M467.62,458.41c-6.57,4.27-14.31,8.7-21.22,11.67-2.48,1.07-4.44,3.46-4.86,5.97-2.42,14.38-5.01,28.79-7.8,43.13-.24,1.23-.48,2.46-.72,3.66-3.76,18.94-8.03,37.88-11.7,56.84-.36,1.87.79,2.47,2.74,1.45,5.64-2.96,8.41-4.58,13.84-8.08,1.76-1.13,3.9-3.35,5.29-5.4,19.09-28.31,39.7-55.73,60.49-82.84,1.65-2.15,2.18-4.22,1.21-5.11-9.37-8.5-20.64-15.29-31.35-21.93-1.53-.95-3.85-.7-5.91.63Z"/>
                  <path class="cls-10" d="M513.88,483.11c2.91-6.41,4.26-9.7,6.72-16.44-2.92,3.66-6.23,7.84-9.83,12.43,1.27,1.37,2.3,2.7,3.11,4Z"/>
                  <path class="cls-10" d="M463.32,186.54c-2.97-.57-6.11-.88-9.45-.91-1.28-.01-1.9.97-1.67,2.65,2.98,21.53,4.3,43.3,5.03,64.93.04,1.26.07,2.54.1,3.82.21,8.51.31,17.5.29,26.94,0,1.9.72,3.97,2.01,5.69,10.97,14.59,22.19,29.1,33.74,43.28,2.51,3.08,6.55,4.07,9.4,2.41,9.67-5.61,17.56-9.62,23.5-12.21,2.01-.88,2.97-2.95,2.49-5.39-8.8-41.54-22.74-80.14-43.55-117.18-2.02-3.44-6.6-8.32-9.19-9.64-3.23-1.65-6.73-3-10.55-3.92-.71-.17-1.44-.33-2.17-.47Z"/>
                  <path class="cls-2" d="M535.12,368.73c-.57-11.77-1.86-23.5-3.62-35.15-.54-3.56-4.72-6.24-7.63-4.82-5.13,2.51-11.39,5.88-18.69,10.17-2.43,1.43-2.73,5.04-.61,7.54,7.28,8.61,14.61,17.28,22.19,25.68,3.07,3.4,8.57,1.08,8.36-3.43Z"/>
                  <path class="cls-8" d="M221.23,276.55c2.3-10.04,5.05-20.13,8.09-29.97.51-1.64-.75-2.42-2.31-1.43-5.72,3.63-11.24,7.09-16.51,10.35-1.3.81-2.15,2.36-1.78,3.28,2.43,5.97,5.21,12.49,8.34,19.51.74,1.67,3.66.47,4.17-1.76Z"/>
                  <path class="cls-4" d="M454.01,376.66c-1.53,18.86-3.54,37.79-6.04,56.6-.39,2.94.85,5.57,3.2,6.75,6.05,3.03,13.34,7.11,20.74,11.51,1.02.61,2.05,1.22,3.06,1.84,10.38,6.39,21.06,12.94,30.48,20.77,2.06,1.71,7.03-.74,10.18-4.76,2.08-2.66,4.03-5.11,5.8-7.32.9-1.12,1.57-2.28,1.92-3.36,7.33-22.54,10.64-45.41,11.92-69.01.05-1.69-.56-3.26-1.7-4.44-11.2-11.57-21.56-24.01-31.88-36.34-2.48-2.96-6.53-3.9-9.48-2.03-11.9,7.52-23.42,15.59-34.89,23.72-1.9,1.35-3.12,3.62-3.32,6.07Z"/>
                  <path class="cls-8" d="M448.6,565.6c7.89-5.81,15.57-12.55,22.38-19.58,1.87-1.9,4.72-4.94,6.38-6.78,13.63-14.92,24.16-31.91,33.5-49.74.45-.91.58-1.65.35-2.11-.25-.49-.54-.98-.86-1.48-.98-1.52-5.41.67-8.19,4.25-18.56,23.97-37.01,48.14-54.38,73.01-2.14,3.07-1.7,4.32.82,2.43Z"/>
                  <path class="cls-10" d="M204.53,469.69c-5.04-9.49-10.1-18.98-15.23-28.42-1.06-1.96-3.27-3.36-5.1-3.28-3.55.16-6.9.18-10,.08-1.67-.06-2.55,1.1-2.14,2.78,2.25,9.42,5.2,18.94,8.68,27.98.46,1.22,1.59,2.59,2.95,3.63,3.22,2.46,6.94,5.07,11.12,7.8,1.96,1.28,3.73,1.35,4.01.03.61-2.86,3.04-5.21,5.6-7.04.87-.62.92-2.02.11-3.55Z"/>
                  <path class="cls-4" d="M362.4,145.44c-7.01-13.75-14.25-27.97-18.26-42.91-.37-1.37-1.33-2.26-2.47-2.16-9.63.87-14.49,1.95-24.14,5.24-1.71.58-3.4,3.05-3.44,5.08-.47,21.37,2.07,42.9,5.13,63.97.36,2.48,2.81,3.49,4.93,2.02,12.46-8.6,24.91-17.29,37.37-25.86,1.53-1.05,1.87-3.46.89-5.39Z"/>
                  <path class="cls-8" d="M397.63,111.81c-15.54-6.81-30.59-11.53-47.75-11.81-1.85,0-3.05,2.47-2.36,4.65,4.35,13.57,10.96,26.47,17.42,39.07.96,1.87,3.03,2.64,4.4,1.66,11.06-7.86,24.49-15.87,31.58-27.48.83-1.36-1.18-5.05-3.3-6.09Z"/>
                  <path class="cls-10" d="M370.05,153.29c7.88,14.44,16.34,28.59,24.98,42.53,1.03,1.67,2.9,2.42,4.19,1.79,15.13-7.42,31.05-14.46,48.27-15.51.6-.04.88-.5.78-1.27-.77-5.47-1.57-10.36-2.34-14.65-.16-.88-.31-1.73-.47-2.56-1.72-9.12-3.28-15.19-3.89-18.4-.18-.92-2.25-3.7-3.77-5.11-9.5-8.86-19.86-16.83-31.07-23.41-.74-.44-1.26-.32-1.45.2-5.06,14.11-22.53,23.57-34.63,32.04-1.17.82-1.46,2.74-.59,4.35Z"/>
                  <path class="cls-10" d="M275.51,141.76c-.61,1.15-1.24,2.33-1.87,3.55-13.89,26.73-25.52,54.69-35.27,83-1.2,3.5,1.48,5.21,4.82,3.02,11.23-7.38,22.45-14.84,33.6-22.34,1.31-.88,2.62-1.77,3.93-2.65,10.93-7.39,21.86-14.84,32.74-22.31,1.86-1.28,2.93-3.74,2.63-5.85-3.15-22.13-5.85-44.91-4.66-67.4.09-1.75-.9-2.56-2.38-1.93-8.77,3.74-13.15,6.09-21.74,11.63.22.33.34.5.57.85-2.96,3.62-7.21,10.73-12.37,20.43Z"/>
                  <path class="cls-1" d="M165.61,401.75c1.22,11.11,2.83,21.73,4.97,32.7,4.41.17,9.38.09,14.82-.32-6.16-11.02-12.1-22.32-19.79-32.38Z"/>
                  <path class="cls-10" d="M253.52,418.56c1.36-.47,2.71-.98,4.02-1.47,4.74-1.77,9.04-3.52,12.71-5.15,3.76-1.67,5.17-6.51,3.04-10.47-12.89-24.03-25.25-48.45-37.31-72.91-.87-1.76-2.46-2.92-4.37-3.19-4.68-.68-9.23-1.35-13.6-2.03-1.32-.2-2.64-.4-3.92-.61-11.7-1.88-23.59-3.7-35.1-6.6-3.85-.97-8.73,2.6-9.46,6.93-3.64,23.71-5.38,46.8-4.49,70.79.09,1.49.76,2.97,1.8,4.21,7.53,9.01,13.3,19.93,18.99,30.28,1.72,3.14,5.34,5.32,8.31,4.91,20.17-2.78,40.09-8,59.39-14.69Z"/>
                  <path class="cls-3" d="M217.74,290.32c-4.34-9.56-8.64-19.2-12.59-28.95-.49-1.2-2.06-1.28-3.77-.24-6.25,3.81-12.02,7.27-17.23,10.33-1.49.88-2.78,2.39-3.22,3.8-3.17,10.8-5.95,21.48-8.47,32.46-.29,1.35.24,2.47,1.34,2.85,11.37,3.93,23.88,5.43,35.84,7.31,2.35.37,4.91-1.79,5.18-4.38.66-6.35,1.7-13.47,3.11-21.12.14-.75.07-1.47-.19-2.05Z"/>
                  <path class="cls-7" d="M275.48,138.45c2.86-5.1,5.44-9.41,7.67-12.84,1.22-1.87,1.04-3.06-.31-2.13-4.81,3.32-7.19,5.12-11.89,8.97-1.35,1.11-3.04,3.51-2.96,4.26.29,2.86,1.73,4.11,4.23,4.64.71.15,2.36-1.3,3.25-2.9Z"/>
                  <path class="cls-10" d="M232.53,236.51c10.24-30.39,22.83-60.24,37.91-88.8.79-1.5.83-2.61.12-2.72-3.75-.58-5.71-2.28-5.4-6.86.03-.5-.46-.35-1.31.41-7.59,6.74-14.87,14.28-21.41,22.04-1.21,1.42-3.03,3.61-4.08,4.89-15.59,20-28.28,40.79-39.5,63.53-.27.58-.37,1.06-.28,1.39,1.67,5.92,4.2,13.3,7.65,22.14.45,1.15,2.02,1.25,3.74.16,6.22-3.91,12.81-8.11,19.66-12.53,1.32-.85,2.43-2.27,2.9-3.65Z"/>
                  <path class="cls-2" d="M192.66,242.97c-3.77,9.01-5.53,13.64-8.74,23.12-.54,1.59.69,2.2,2.4,1.18,4.32-2.59,9-5.45,13.99-8.54,1.56-.97,2.64-2.87,2.24-3.91-2.14-5.52-3.92-10.47-5.33-14.82-.44-1.35-3.64.79-4.56,2.98Z"/>
                  <path class="cls-10" d="M385.19,423.76c-21.03,15.96-42.13,31.96-62.39,48.9-2.41,2.01-2.94,5.55-1.35,8.5,8.2,15.27,16.32,30.68,24.07,46.16,1.05,2.11,3.12,3.48,5.42,3.55,6.24.2,12.37.16,18.34-.08,1.51-.06,3.03-.12,4.5-.22,16.93-1.18,34.14-3.68,50.62-8.45,3.12-.91,5.97-4.01,6.55-7.17,2.56-13.96,4.96-27.98,7.2-41.97.22-1.34.43-2.7.64-4.06,1.45-9.27,2.81-18.58,4.07-27.88.2-1.51.41-3.04.61-4.56,1.96-15.1,3.69-30.32,5.12-45.47.57-6.02-5.82-9.98-10.61-6.48-16.48,12.01-32.88,24.22-49.16,36.5-1.21.92-2.43,1.83-3.63,2.75Z"/>
                  <path class="cls-1" d="M446.93,465.88c5.25-2.34,11.1-5.53,16.42-8.78,2.02-1.23,2.52-3.91.9-4.85-4.88-2.83-9.58-5.42-13.74-7.56-1.75-.9-4.2.62-4.52,2.81-.8,5.51-1.61,10.87-2.43,16.07-.32,2.01,1.43,3.17,3.37,2.3Z"/>
                  <path class="cls-8" d="M455.91,345.87c-.23,4.75-.49,9.48-.77,14.31-.16,2.69,2.63,4.48,4.66,3.06,10.55-7.41,21.31-14.6,32.22-21.43,1.35-.85,1.52-2.8.37-4.23-10.18-12.61-20.2-25.46-29.99-38.37-1.76-2.32-4.88-1.84-4.92.8-.26,15.3-.83,30.61-1.57,45.86Z"/>
                  <path class="cls-5" d="M355.4,547.95c4.55-5.12,8.34-9.74,11.1-13.36-5.68.18-11.52.16-17.45-.07,2.29,4.72,4.41,9.2,6.35,13.43Z"/>
                  <path class="cls-2" d="M427.36,244.84c1.3,1.88,2.6,3.75,3.9,5.61,1.71,2.44,4.45,3.78,6.67,3.27,3.58-.82,7.68-1.42,11.8-1.38,2.26.02,3.77-1.53,3.7-3.91-.54-17.77-1.47-35.67-3.41-53.39-.42-3.85-5.42-8.95-8.24-8.38-13.35,2.73-25.52,7.55-38.07,13.49-2.4,1.14-2.83,4.95-.81,8.09,7.94,12.34,16.14,24.54,24.45,36.59Z"/>
                  <path class="cls-4" d="M453.75,281.72c.06-8.66.02-17.09-.13-25.22-5.85-.46-11.96.68-16.67,2.02,5.52,7.79,11.12,15.53,16.8,23.2Z"/>
                  <path class="cls-4" d="M449.08,169.28c.73,3.75,1.48,7.98,2.21,12.74,3.41.04,6.63.38,9.65.99-3.36-4.59-7.94-9.72-11.87-13.73Z"/>
                  <path class="cls-7" d="M444.1,146.99c.26,2.1,1.87,7.45,3.86,16.79.34,1.61,1.89,4.18,3.93,6.37,2.66,2.86,5.46,6.03,8.01,9.19,1.99,2.46,4.37,4.44,5.84,4.9,4.07,1.29,7.76,3.08,11.15,5.19,1.53.95,1.7.3.44-1.64-5.84-8.95-8.9-13.21-15.25-21.22-1.67-2.11-4.58-5.64-6.5-7.88-3.77-4.4-5.7-6.51-9.61-10.56-1.25-1.29-1.94-1.72-1.87-1.15Z"/>
                  <path class="cls-10" d="M313.49,474.81c-7.13-13.04-14.32-26.05-21.49-39.06-.93-1.68-2.57-2.9-4.34-3.18-9.12-1.44-20.54-3.89-28.53-8.95-1.49-.94-3.24-1.2-4.75-.68-19.07,6.52-38.75,11.56-58.67,14.12-2.57.33-3.57,2.88-2.09,5.65,4.99,9.33,9.92,18.69,14.81,28.07.66,1.27,1.33,2.54,1.99,3.82,3.12,5.98,6.27,12.04,9.38,18.07.92,1.77,2.6,3.46,4.39,4.36,7.81,3.93,16.26,7.8,25.22,11.44,1.28.52,2.59,1.05,3.88,1.55,26.23,10.01,53.15,16.83,81.01,19.8,3.78.4,6.38-3.68,4.55-7.25-7.54-14.71-15.37-29.36-23.27-43.9-.69-1.27-1.4-2.56-2.1-3.85Z"/>
                  <path class="cls-2" d="M279.3,412.57c-4.32,2.25-10.49,4.96-17.75,7.73,6.41,3.91,16.36,6.15,26.28,7.86-2.83-5.15-5.68-10.35-8.53-15.6Z"/>
                  <path class="cls-10" d="M343.7,300.51c-6.33-22.43-12.2-45.11-17.33-67.83-.44-1.97-1.69-3.48-3.37-4.1-13.82-5.1-28.11-10-41.18-16.56-1.4-.7-3.28-.45-5.05.73-12.93,8.59-25.94,17.13-38.98,25.53-2.05,1.32-3.77,3.51-4.42,5.69-4.25,14.34-8.07,28.93-10.9,43.72-.23,1.19-.11,2.3.32,3.23,4.39,9.54,8.93,19.04,13.53,28.47.76,1.57,2.2,2.62,3.94,2.86,26.14,3.52,52.38,6.89,78.66,9.23,2.29.2,4.51-.94,5.89-3,5.12-7.62,11.91-15.28,17.16-20.71,1.81-1.87,2.46-4.69,1.74-7.26Z"/>
                  <path class="cls-2" d="M314.16,187.57c-8.36,5.69-16.74,11.35-25.13,16.98-2.19,1.47-2.73,4.72-.87,5.53,10.15,4.46,20.66,8.37,31.04,12.32,2.18.83,4.58-1.68,4.05-4.23-2-9.66-3.84-19.42-5.45-29.16-.3-1.84-2.05-2.53-3.64-1.45Z"/>
                  <path class="cls-4" d="M218.23,319.16c4.52.66,9.24,1.34,14.12,2.01-4.11-8.45-7.97-16.53-11.53-24.16-1.3,8.09-2.16,15.57-2.6,22.15Z"/>
                  <path class="cls-7" d="M241.42,527.54c1.93-3.63,4.07-8.53,5.87-13.16.58-1.48-1.05-4.07-3.2-5.01-5.56-2.43-10.91-4.95-16.03-7.52-2.21-1.11-3.44.12-2.32,2.3,3.58,6.95,7.06,13.77,10.39,20.31,1.28,2.53,4.55,4.48,5.29,3.08Z"/>
                  <path class="cls-4" d="M340.63,234.74c-3.25-1.05-6.82-2.27-10.59-3.61.74,3.28,1.51,6.6,2.3,9.94,2.32-1.83,5.11-3.97,8.29-6.34Z"/>
                  <path class="cls-4" d="M202.4,485.01c4.51,2.72,9.4,5.51,14.65,8.31-3.03-5.72-6.07-11.48-9.1-17.17-3.4,2.38-6.29,5.52-5.56,8.86Z"/>
                  <path class="cls-10" d="M346.38,230.51c14.21-10.25,29.06-19.97,44.43-28.44,1.75-.96,2.05-3.59.71-5.76-8.17-13.31-16.18-26.81-23.66-40.57-1.07-1.97-3.13-2.72-4.66-1.68-13.33,9.07-26.66,18.24-39.98,27.35-1.54,1.05-2.45,3.1-2.13,4.93,2.18,12.53,4.66,25.12,7.34,37.56.29,1.34,1.16,2.4,2.33,2.83,4.51,1.65,8.75,3.15,12.42,4.34,1.09.35,2.24.14,3.2-.55Z"/>
                  <path class="cls-4" d="M352.26,329.49c-1.58-5.13-3.14-10.33-4.68-15.56-.6-2.02-2.9-2.66-4.3-1.18-4.01,4.25-8.72,9.6-12.74,15.08-1.35,1.84-.3,4.56,1.84,4.71,6.44.43,12.3.69,17.35.75,1.81.02,3.1-1.91,2.52-3.79Z"/>
                  <path class="cls-10" d="M282.93,410.52c3.37,6.24,6.74,12.41,10.06,18.51.49.9.98,1.8,1.47,2.69,6.31,11.53,12.63,23.05,18.92,34.59,1.65,3.02,5.4,3.96,7.84,1.93,19.07-15.9,38.85-30.99,58.58-46.02,2.05-1.56,2.85-4.38,1.88-6.79-10.22-25.34-18.53-51.45-26.81-77.5-.73.01-1.45.02-2.23.02-7.47,0-16.93-.53-27.69-1.41-1.54-.13-3.1-.26-4.69-.4-23.27-2.06-46.51-4.99-69.65-8.1-4.3-.58-7.87,4.53-5.88,8.52,11.69,23.47,23.62,46.89,36.03,69.99.71,1.33,1.43,2.66,2.15,3.98Z"/>
                  <path class="cls-10" d="M452.19,285.53c-6.32-8.56-12.57-17.22-18.7-25.93-.9-1.28-1.79-2.54-2.68-3.81-2.13-3.04-4.24-6.06-6.29-9.05-8.58-12.52-17.02-25.23-25.2-38-1.71-2.67-4.66-3.87-6.81-2.69-14.69,8.08-28.85,17.33-42.54,26.99-1.56,1.1-3.02,2.18-4.45,3.21-3.32,2.43-6.3,4.66-8.84,6.62-1.97,1.52-2.92,4.26-2.29,6.77,4.3,17.35,8.98,34.73,13.89,51.93.45,1.59.92,3.17,1.38,4.75,2.62,8.97,5.36,17.93,8.16,26.84.48,1.54.97,3.09,1.45,4.62,5.11,16.04,10.41,32.08,15.95,48.01,15.28.75,30.53,3.35,45.64,5.64,9.03-6.64,18.06-13.27,27.17-19.8,1.44-1.03,2.33-2.71,2.46-4.57.5-7.4.91-14.73,1.26-21.79.93-18.44,1.65-36.96,1.89-55.44.02-1.45-.51-2.98-1.47-4.29Z"/>
                  <path class="cls-7" d="M384.15,409.69c1.46,3.68,5.77,4.87,8.9,2.51,7.51-5.66,15.06-11.29,22.62-16.89-12.86-1.86-25.74-3.74-38.71-4.71,2.51,6.94,4.91,13.33,7.19,19.09Z"/>
                </g>
              </g>
            </g>
            <g>
              <path class="cls-9" d="M349.86,100c-82.78,0-174.18,115.98-184.53,257.73-10.05,137.71,82.62,242.27,184.53,242.27s196.53-104.72,184.53-242.27c-12.07-138.32-98.3-257.73-184.53-257.73Z"/>
              <path class="cls-11" d="M349.63,600c28.6,0,55.67-8.27,79.85-22.97,15.96-60.76,5.46-139.19-33.95-212.92-45.35-84.85-117.15-141.34-184.96-153.6-28.63,41.83-45.99,106.03-45.99,165.36,0,129.61,82.85,224.13,185.05,224.13Z"/>
              <ellipse class="cls-12" cx="376.7" cy="284.22" rx="114.08" ry="167.2"/>
            </g>
          </g>
        </g>
      </g>
    </g>
  </g>
</svg>