<?xml version="1.0" encoding="UTF-8"?>
<svg xmlns="http://www.w3.org/2000/svg" xmlns:xlink="http://www.w3.org/1999/xlink" viewBox="0 0 700 700">
  <defs>
    <style>
      .cls-1 {
        fill: #5b769c;
      }

      .cls-1, .cls-2, .cls-3, .cls-4, .cls-5, .cls-6, .cls-7, .cls-8 {
        stroke-width: 0px;
      }

      .cls-9, .cls-7, .cls-8 {
        mix-blend-mode: screen;
      }

      .cls-2 {
        fill: #fce2a1;
      }

      .cls-3 {
        fill: #1d0d2b;
      }

      .cls-4 {
        fill: #986a8d;
      }

      .cls-5 {
        fill: url(#_Безымянный_градиент_140);
        mix-blend-mode: multiply;
      }

      .cls-10 {
        isolation: isolate;
      }

      .cls-6 {
        fill: #fa9981;
      }

      .cls-7 {
        fill: url(#_Безымянный_градиент_141);
      }

      .cls-8 {
        fill: url(#_Безымянный_градиент_139);
      }
    </style>
    <radialGradient id="_Безымянный_градиент_140" data-name="Безымянный градиент 140" cx="746.79" cy="352.45" fx="746.79" fy="352.45" r="320.28" gradientTransform="translate(-394.05 -133.6) scale(1.1 1.3)" gradientUnits="userSpaceOnUse">
      <stop offset=".36" stop-color="#f1f2f2" stop-opacity="0"/>
      <stop offset=".42" stop-color="rgba(220, 221, 222, .15)" stop-opacity=".15"/>
      <stop offset=".59" stop-color="rgba(172, 173, 175, .52)" stop-opacity=".52"/>
      <stop offset=".74" stop-color="rgba(137, 138, 141, .78)" stop-opacity=".78"/>
      <stop offset=".87" stop-color="rgba(116, 117, 120, .94)" stop-opacity=".94"/>
      <stop offset=".97" stop-color="#6d6e71"/>
    </radialGradient>
    <radialGradient id="_Безымянный_градиент_141" data-name="Безымянный градиент 141" cx="521.33" cy="293.76" fx="521.33" fy="293.76" r="424.94" gradientTransform="translate(0 -22.04) scale(1 1.03)" gradientUnits="userSpaceOnUse">
      <stop offset=".84" stop-color="#221e1f" stop-opacity="0"/>
      <stop offset=".85" stop-color="rgba(46, 42, 43, .06)" stop-opacity=".06"/>
      <stop offset=".89" stop-color="rgba(79, 76, 77, .23)" stop-opacity=".23"/>
      <stop offset=".93" stop-color="rgba(133, 132, 133, .51)" stop-opacity=".51"/>
      <stop offset=".98" stop-color="rgba(206, 206, 207, .88)" stop-opacity=".88"/>
      <stop offset="1" stop-color="#e6e7e8"/>
    </radialGradient>
    <radialGradient id="_Безымянный_градиент_139" data-name="Безымянный градиент 139" cx="793.03" cy="594.83" fx="793.03" fy="594.83" r="106.23" gradientTransform="translate(-474.92 -651.99) scale(1.07 1.57)" gradientUnits="userSpaceOnUse">
      <stop offset="0" stop-color="#f1f2f2"/>
      <stop offset="1" stop-color="#221e1f" stop-opacity="0"/>
    </radialGradient>
  </defs>
  <g class="cls-10">
    <g id="_Слой_2" data-name="Слой 2">
      <g id="_Слой_3" data-name="Слой 3">
        <g>
          <rect class="cls-3" width="700" height="700"/>
          <g>
            <g>
              <path class="cls-2" d="M534.38,357.73c12.01,137.55-82.62,242.27-184.53,242.27s-194.58-104.56-184.53-242.27c10.35-141.75,101.75-257.73,184.53-257.73s172.45,119.42,184.53,257.73Z"/>
              <g>
                <path class="cls-2" d="M474.33,542.54c-73.82,73.44-174.57,73.9-248.29.05-94.76-107.78-70.41-273,14.22-379.42,28.14-31.88,64.5-62.86,109.45-63.17,44.96-.32,81.49,30.89,109.32,62.8,83.68,106.63,110.67,272.02,15.3,379.74Z"/>
                <g>
                  <path class="cls-4" d="M447.63,154.09c-31.3-20.23-63.91,59.49-71.57,77.14-20.16,46.42-64.6,127.29-126.13,117.76-11.12-1.72-19.61-10.69-24.37-20.56-17.19-35.57-7.62-85.4,11.03-118.83,1.14-2.01,1.71-3.02,2.84-5.03,18.41-32.77,38.54-64.9,63.68-92.99-.72.35-1.43.7-2.14,1.06-24.51,28.07-44.55,59.66-62.88,92-1.14,2-1.71,3-2.86,5-19.01,33.74-28.92,83.95-11.48,119.97,5.04,10.42,13.97,19.64,25.76,21.58,3.2.53,6.5.78,9.79.71,58.93-1.25,98.31-72.84,118.54-119.62,7.65-17.69,39.66-96.34,70.93-76.54,5.38,3.41,10.83,8.77,17.14,15.76-.31-.41-.62-.82-.95-1.25-6.38-7.15-11.89-12.66-17.3-16.16Z"/>
                  <path class="cls-6" d="M245.71,554.41c-30.4-35.8-86.51-93.08-68.3-144.54,6.71-18.96,25.43-30.91,45.24-32.76,64.41-6.02,121.77-48.11,148.21-107.36,15.56-34.86,30.35-70.17,46.71-104.67,3.94-8.31,8.57-24,18.73-26.35-.5-.46-1-.91-1.51-1.36-14.34,4.93-22.15,34.41-27.74,46.86-12.64,28.19-24.96,56.52-37.57,84.71-26.27,58.76-83.12,100.4-146.99,106.56-20.29,1.95-39.55,14.22-46.44,33.64-18.39,51.8,38.52,109.37,69.14,145.35,5.63,6.61,11.29,12.81,16.84,18.48.68.44,1.03.67,1.71,1.1-5.95-5.96-12.02-12.56-18.04-19.66Z"/>
                  <path class="cls-6" d="M428.3,526.36c-28.1,3.75-54.54,25.95-72.28,48.24-7.72,9.69-17.29,18.56-28.74,23.7.96.15,1.45.22,2.41.35,11.15-5.29,19.69-14.3,27.3-23.24,17.69-20.81,43.35-43.91,70.97-47.66,10.14-1.38,46.21-2.74,43.4,16.93.47-.48.7-.72,1.17-1.19,2.95-19.9-34.07-18.47-44.23-17.11Z"/>
                  <path class="cls-1" d="M336.82,383.31c-53.42-18.9-114.15-36.71-171.6-24.09-.04.59-.06.89-.1,1.48,57.31-12.47,117.91,5.47,171.19,24.31,61.41,21.71,128.11,45.76,185.57,78.04.17-.5.34-.99.51-1.49-57.93-31.89-123.95-56.44-185.59-78.24Z"/>
                  <path class="cls-1" d="M400.93,278.86c-1.67-12.21-7.94-25.4-19.44-31.05-22.04-10.83-52.4,8.46-67.25,23.46-1.13,1.14-2.43,2.56-3.88,4.11-21.27,22.75-49.78,51.02-82.77,52.79-12.29.66-24.74-3.02-34.47-10.68-16.04-12.64-12-36.8-5.46-53.3,19.98-50.44,59.38-97.46,93.61-139.62-.46.33-.93.66-1.39.99-33.98,42.2-73.58,88.23-93.48,138.98-6.64,16.94-10.98,41.19,5.67,54.2,9.93,7.76,22.53,11.47,35,10.82,33.46-1.73,62.66-29.88,84.29-53.02,1.44-1.54,2.74-2.96,3.86-4.09,14.5-14.66,44.03-33.55,65.82-23.13,11.29,5.4,16.72,17.9,18.37,29.62,6.34,44.99,2.51,94.23-7.7,138.65-6.92,30.12-22.33,93.01-60.37,97.05-37.53,3.99-76.67-25.6-104.35-47.24-22.04-17.24-43.95-36.74-60.81-59.79.11.96.16,1.44.28,2.4,16.93,22.33,38.33,41.43,59.94,58.4,26.33,20.67,60.21,45.57,95.47,47.85,3.38.22,6.68.22,9.73-.12,38.62-4.28,54.32-67.29,61.44-97.72,10.4-44.52,14.02-94.82,7.89-139.56Z"/>
                </g>
                <path class="cls-6" d="M227.79,235.54c-16.02,2.05-31.95,15.51-42.63,26.95-4.59,13.08-8.2,26.35-11.5,39.8,2.25.89,5.46.29,8.32-2.17,11.55-9.96,18.85,7.28,22.65,14.72,14.38,28.13,58.65-7.52,62.56-27.22,5.15-25.95-9.11-55.96-39.4-52.09Z"/>
                <path class="cls-1" d="M203.7,432.71c-7.08-34.03,55.01-43.29,63.27-9.54,7.38,30.14,14.63,64.82,40.77,84.68,13.94,10.59,48.25,47.61,32.13,61.74-12.47,10.93-51.56-23.94-62.36-33.6-30-26.85-65.33-62.49-73.81-103.28Z"/>
                <path class="cls-1" d="M310.3,570.66c-3.63-.69-8.85-3.43-15.45-8.27-22.8-16.71-42.74-38.63-60.63-60.45-19.37-23.62-41.24-54.41-42.25-85.51-.58-17.9,21.98-27.1,36.73-26.53.15,0,.3.01.45.02,15.13.9,28.58,10.69,30.07,26.83.48,5.23,1.02,10.33,1.5,15.15,2.63,26.53,8.69,52.56,27.51,72.17,13.41,13.98,30,33.33,31.07,53.96.29,5.56-1.45,9.72-4.77,12.08-.99.7-2.41.87-4.23.53ZM192.71,416.59c.29.06.44.09.73.15,0,31.84,22.52,61.39,41.71,84.83,17.7,21.62,37.48,43.33,60.1,59.83,9.29,6.77,15.84,9.36,18.39,7.57,3.06-2.15,4.64-6.01,4.34-11.16-1.14-19.56-17.35-39.42-30.65-52.8-19.81-19.93-25.45-46.17-28.16-73.14-.48-4.81-1.17-10-1.51-15.1-1-14.69-14.94-24.39-28.5-25.23-13.98-.86-36.84,7.33-35.73,25.2-.29-.06-.44-.09-.73-.15Z"/>
                <path class="cls-1" d="M316.99,579.5c-3.5-.61-8.58-3.21-14.94-7.89-22.76-16.75-42.04-38.76-60-60.47-19.67-23.78-39.99-53.29-42.17-84.72-1.26-18.13,21.69-26.57,36.14-25.79.15,0,.3.02.45.03,15.06,1.15,28.53,10.75,30.16,26.8.53,5.22,1.1,10.29,1.6,15.08,2.78,26.35,8.93,52.31,27.48,71.82,13.16,13.85,29.16,32.57,30.07,52.75.24,5.37-1.52,9.47-4.76,11.8-.95.68-2.3.87-4.04.57ZM200.37,426.53c.2.04.29.07.49.11.6,31.91,23.15,61.48,42.39,85.1,17.39,21.35,36.76,42.97,59.07,59.22,9.11,6.64,15.57,9.07,18.14,7.22,3.06-2.21,4.72-6.1,4.48-11.2-.96-19.89-16.81-38.35-29.8-52-18.75-19.72-25.08-45.83-27.92-72.47-.51-4.79-1.22-9.97-1.61-15.05-1.15-14.88-15.33-24.67-29.09-25.72-13.97-1.07-37.17,6.83-35.64,24.91-.2-.04-.29-.07-.49-.11Z"/>
                <path class="cls-4" d="M278.92,163.16c-7.03,32.03,27.65,51.8,56.08,49.67,25.17-1.89,39.55-13.41,59.83-25.55,12.9-7.72,34.55,2.57,41.21-4.04,9.1-9.03-20.96-46.57-33.48-54.4-14.53-9.08-31.64-8.99-48.34-6.64-10.63,1.5-28.8,7.85-35.64.07-14.18-16.13-37.54,31.16-39.67,40.88Z"/>
                <path class="cls-4" d="M348.04,217.92c-3.4.01-7.07-.21-10.93-.56-31.53-2.82-58.79-27.76-50.07-60.82.22-.07.34-.1.56-.16-.22.07-.34.1-.56.16,4.17-14.92,14.31-33.16,26.89-41.7,4.04-2.74,9.41-2.78,14.6,5.76,6.11,10.06,30.89,6.93,41.59,8.02,16.37,1.68,30.89,6.73,44.67,15.9,12.96,8.61,23.98,24.45,30.68,38.86,4.22,9.06,4.61,15.78.79,18.45-3.46,2.43-10.16.72-17.25-1.41-8.08-2.42-19.76-3.77-27.9-.2-3.42,1.5-6.8,3.12-9.95,4.82-13.44,7.26-27.45,12.67-43.13,12.87ZM316.98,114.55c-.96.29-2.01.75-3,1.42-12.16,8.18-22.01,25.95-25.82,40.26-8.55,32.06,18.44,57.63,49.14,59.56,19.62,1.23,35.61-2.78,53.1-12.15,3.17-1.7,6.54-3.33,9.97-4.84,8.26-3.63,20.15-2.27,28.35.22,6.84,2.07,13.29,3.75,16.5,1.5,3.52-2.47,3.12-8.73-.8-17.36-6.48-14.26-17.46-29.18-29.6-37.53-13.28-9.13-28.26-14-44.54-15.63-11.03-1.11-36.35,2.2-42.68-8.49-3.12-5.26-6.39-8.22-10.61-6.95Z"/>
                <path class="cls-4" d="M330.25,225.37c-28.34,1.79-63.32-15.39-58.22-47.76,2.48-15.76,12.96-34.03,24.79-44.37,4.27-3.73,10.3-5.3,16.34.7,8,7.94,32.73-2.54,43.2-4.63,14.29-2.85,29.82-3.98,43.28,3.22,13.19,7.06,24.3,21.36,31.56,34.83,4.93,9.16,6.48,16.38,3.65,20.07-2.57,3.35-8.44,2.63-15.36,2.12-7.92-.58-16.97-.87-25.83,5.64-3.07,2.25-6,4.63-8.8,7-15.67,13.29-31.38,20.58-51.35,22.95-1.05.12-2.17.17-3.26.22ZM301.97,130.79c-1.61.59-3.34,1.62-5.05,3.1-11.56,10.07-21.71,27.96-24.09,43.34-5.12,33.17,32.62,50.44,60.66,46.85,19.89-2.55,35.25-9.6,50.74-22.75,2.8-2.38,5.74-4.76,8.82-7.03,9-6.62,18.12-6.32,26.11-5.72,6.75.5,12.47,1.22,14.92-1.97,2.69-3.5,1.21-10.44-3.52-19.25-7.05-13.14-18-27.18-30.84-34.02-13.41-7.14-28.96-5.98-43.2-3.15-10.6,2.11-35.76,12.82-43.99,4.48-3.25-3.3-6.69-5.31-10.56-3.89Z"/>
                <path class="cls-6" d="M517.66,344.09c-15.02-36.81-72.09-48.14-100.59-22.75-20.76,18.49-38.52,39.54-68.5,27.1-21.65-8.99-31.33,26.1-33.31,40.35-3.87,27.95,2.48,60.82,21.84,81.9,31.71,34.52,96.46,29.73,129.57-.96,33-30.59,70.34-78.23,51-125.64Z"/>
                <path class="cls-6" d="M385.18,487.86c-17.63,1.16-38.6-1.86-52.86-13.18-29.01-23.04-46.07-71.55-33.11-107.18,3.41-9.37,11.67-18.18,22.43-16.27,25.8,4.59,40.58-10.68,53.85-30.45,2.48-3.69,5.09-7.55,7.95-11.45,13.86-18.92,40.57-28.51,63.49-24.12,16.08,3.08,31.26,14.46,39.36,28.09,27.46,46.2,12.32,95.71-20.84,136.34-16.15,19.79-41.47,31.91-66.32,36.49-4.71.87-9.39,1.44-13.96,1.73ZM318.45,352.75c-7.61.04-13.94,5.5-17.76,15.44-13.44,34.98,3.98,83.54,32.54,105.22,36.47,27.69,103.59,9.89,131.16-24.54,30.67-38.31,49.08-89.84,20.72-134.98-8.64-13.75-22.37-23.83-38.12-27.13-22.38-4.69-48.69,5.12-62.28,23.67-2.84,3.88-5.45,7.73-7.92,11.41-13.66,20.36-28.9,35.82-55.41,31.13-.98-.17-1.97-.24-2.93-.24Z"/>
                <path class="cls-6" d="M406.67,487.9c-4.86.5-10,.8-15.01.5-22.51-1.36-47.59-7.95-63.32-26.04-24.61-28.3-32.94-84.8-11.61-113.53,5.18-6.98,14.53-15.2,25.11-11.04,23.25,9.14,39.3.8,57.68-17.11,3.03-2.96,6.27-6.04,9.72-9.06,18.87-16.53,46-15.59,67.69-7.92,14.9,5.27,28.36,18.24,34.64,33.23,20.5,48.93-15.97,96.7-50.62,127.85-14.61,13.13-34.67,21.44-54.28,23.12ZM334.85,338.73c-7.4.04-12.88,5.88-16.36,11.43-20.1,32.07-12.59,83.66,11.4,110.8,30.28,34.26,96.68,32.99,130,2.53,33.53-30.64,69.78-78.23,49.91-126.1-6.15-14.82-18.67-25.8-33.17-31.8-20.66-8.54-48.6-7.39-65.97,7.83-3.43,3.01-6.64,6.08-9.68,9.03-17.53,17-35.28,27.9-59.89,17.56-2.18-.92-4.29-1.29-6.23-1.28Z"/>
                <g>
                  <path class="cls-6" d="M304.95,133.88c-5.77,4.16-13.2,12.61-12.29,14.52.91,1.9,4.33-2.15,6.8-4.98,2.47-2.84,3.69-4.54,7.27-7.4,2.25-1.8,2.73-5.38-1.78-2.14Z"/>
                  <path class="cls-6" d="M296.62,159.31c-4.7,5.01-8.92,8.05-9.54,10.14-.62,2.09,3.43.69,7.02-2.94,3.58-3.63,7.09-12.05,2.53-7.19Z"/>
                  <path class="cls-6" d="M320.52,132.77c-3.48,4.39-8.38,8.53-9.11,10.45-.74,1.92,1.96,2.18,5.18-.3s5.78-6.37,7.24-8.8c2.23-3.72.19-5.74-3.3-1.34Z"/>
                  <path class="cls-6" d="M406.43,143.07c-.07,1.56,2.86,3.42,5.3,2.82,2.44-.6,3.64-2.9,4.23-4.38.07-.18.11-.36.13-.54-1.07-1.2-2.15-2.35-3.24-3.46-.26.11-.52.29-.77.57-1.95,2.17-5.57,3.45-5.65,5Z"/>
                  <path class="cls-6" d="M340.95,132.14c-4.6.8-9.33,5.91-11.59,9.59-2.25,3.66.05,6.43,2.8,3.25,3.84-4.45,6.96-7.2,9.27-8.85,2.31-1.65,4.19-4.81-.48-3.99Z"/>
                  <path class="cls-6" d="M313.16,161.21c-4.58,3.75-6.8,7.41-8.12,10.75-1.32,3.34.41,5.63,2.98,1.01,2.57-4.62,5.5-6.9,7.69-9.12,3.82-3.87,1.42-5.89-2.55-2.65Z"/>
                  <path class="cls-6" d="M393.99,127.84c-3.18,1.42-4.27,4.03-4.62,6.73-.35,2.69,1.88,5.63,3.05,2.27,1.17-3.36,3.25-4.21,4.64-5.3,2.44-1.9-.32-4.93-3.08-3.7Z"/>
                  <path class="cls-6" d="M308.75,184.69c-4.69,4.32-8.81,11.31-6.46,11.48,2.36.17,4.45-4.56,9.14-9.26,4.68-4.71,3.25-7.67-2.68-2.21Z"/>
                  <path class="cls-6" d="M407.71,167.75c-2.91,2.98-4.41,8.97-2.06,9.72,2.35.75,2.69-3.46,5.43-6.81,2.73-3.35.31-6.67-3.37-2.91Z"/>
                  <path class="cls-6" d="M338.15,154.88c-1.87.2-6.75,6.31-7.83,10.08-1.08,3.77,1.33,1.76,4.25-1.42,2.92-3.18,6.9-9.01,3.58-8.66Z"/>
                  <path class="cls-6" d="M332.86,186.19c-3.92,3.27-6.99,9.23-8.21,12.5-1.22,3.27,2.06,1.93,3.17.46,1.11-1.47,6.37-8.03,7.31-10.73.94-2.7-.34-3.84-2.27-2.22Z"/>
                  <path class="cls-6" d="M354.72,169.42c-1.91,1.68-4.91,6.18-6.34,10.57-1.43,4.39,1.67,3.41,2.93,1.57,1.26-1.85,3.77-4.63,5.53-7.95,1.76-3.32.63-6.61-2.13-4.19Z"/>
                  <path class="cls-6" d="M426.89,163.58c-1.3.78-2.95,3.69-3.31,7.14-.35,3.44,2.26,3.58,3,2.36.73-1.22,2.35-2.84,3.15-5.11.8-2.26-.96-5.51-2.84-4.39Z"/>
                  <path class="cls-6" d="M358.87,132.84c-1.4,1.74-2.33,5.56-3.64,7.86-1.78,3.13-.29,4.7,1.35,3.49,1.64-1.21,5.9-7.21,6.49-9.98.59-2.77-1.9-4.24-4.2-1.38Z"/>
                  <path class="cls-6" d="M359.87,200.68c-1.74,1.05-4.37,5.16-5.68,7.76-.36.71-.58,1.3-.75,1.83,1.92-.48,3.75-1.02,5.49-1.62.88-1.45,1.76-3.09,2.69-4.68,1.96-3.36-.01-4.33-1.76-3.28Z"/>
                  <path class="cls-6" d="M333.34,207.35c-1.89.91-5.39,2.99-7.51,5.33,1.98.16,3.97.24,5.94.23.85-.94,1.7-1.88,2.53-2.66,1.93-1.81,1.37-4.02-.97-2.9Z"/>
                  <path class="cls-6" d="M289.91,182.73c-2.43,3.31-4.73,6.01-6.91,8.97.57.83,1.19,1.63,1.84,2.41,1.87-2.52,4.69-6.96,6.54-9.85,2.41-3.78,1.45-5.52-1.47-1.53Z"/>
                  <path class="cls-6" d="M305.36,122.01c-1.02,1.94.09,2.8,2.13.64,1.54-1.63,2.94-3.43,4.32-5.15-1.09-.2-2.19-.11-3.32.21-1.42,1.58-2.4,2.92-3.12,4.31Z"/>
                  <path class="cls-6" d="M369.25,125.99c-.75,2.88,1.31,3.18,2.58,1.76,1.27-1.42,3.61-4.1,4.62-6.35.1-.22.15-.43.2-.63-1.2-.09-2.41-.15-3.62-.18-1.66,1.67-3.2,3.16-3.78,5.4Z"/>
                  <path class="cls-6" d="M378.26,150.16c-3.05,1.55-5.46,5.48-7.44,9.47-1.98,4,2.4,3.78,3.29,2.22.89-1.55,3.76-6.56,4.95-8.71s.99-3.91-.81-2.99Z"/>
                  <path class="cls-6" d="M381.84,180.98c-1.48,1.58-3.83,9.39-4.19,11.8-.36,2.41,1.14,3.05,1.85,2.04.71-1.01,5.1-7.77,5.49-10.86.39-3.09-1.55-4.68-3.15-2.98Z"/>
                  <path class="cls-6" d="M393.83,152.32c-.52.76-3.52,2.24-4.25,6.97-.73,4.73,3.61,2.91,4.33,1.2.72-1.71,1.58-3.93,3-5.91,1.42-1.98-1.87-4.03-3.08-2.27Z"/>
                </g>
                <g>
                  <path class="cls-2" d="M452.01,357.94c-.54,0-1.01-.48-1.09-1.07-.3-2.45,4.83-9.29,8.4-13.02.39-.4,1.04-.36,1.46.08.42.45.44,1.14.06,1.54-4.69,4.9-7.82,10.19-7.84,11.26.08.61-.32,1.15-.9,1.2-.03,0-.06,0-.09,0Z"/>
                  <path class="cls-2" d="M464.28,376.44c-.32,0-.64-.15-.85-.44-.34-.49-.25-1.18.2-1.54,3.77-3,5.05-5.45,6.78-8.83.41-.79.83-1.62,1.31-2.5.28-.52.9-.67,1.4-.35.49.32.67,1,.39,1.51-.47.87-.89,1.68-1.28,2.45-1.79,3.47-3.23,6.21-7.34,9.49-.18.14-.39.21-.6.22Z"/>
                  <path class="cls-2" d="M437.04,380.86c-.16,0-.32-.03-.47-.11-.53-.27-.75-.95-.5-1.51,1.08-2.46,5.98-7.75,10.62-11.44.46-.37,1.12-.25,1.47.25.35.51.27,1.21-.19,1.58-5.05,4.04-9.24,8.9-9.98,10.58-.18.41-.55.65-.95.65Z"/>
                  <path class="cls-2" d="M421.03,367.32c-.11,0-.23-.02-.34-.06-.56-.2-.88-.86-.71-1.48.7-2.5,4.41-5.8,8.09-8.94.51-.43.95-.79,1.26-1.07.45-.39,1.11-.3,1.5.2.38.5.33,1.23-.11,1.62-.33.29-.78.68-1.3,1.12-2.2,1.87-6.82,5.79-7.39,7.81-.14.49-.55.8-1,.8Z"/>
                  <path class="cls-2" d="M403.53,400.02c-.13-.05-.24-.12-.35-.22-.44-.42-.47-1.14-.07-1.62.24-.29.36-.43.61-.71,4.25-4.99,5.3-6.63,5.43-7.12.17-.61.77-.97,1.33-.81.55.15.9.78.74,1.39-.34,1.31-2.51,4.06-5.93,8.07-.24.28-.36.42-.59.7-.31.37-.78.48-1.18.33Z"/>
                  <path class="cls-2" d="M487.39,323.71c-.12-.05-.23-.13-.34-.23-.44-.41-.55-1.06-.24-1.45.19-.23.28-.34.47-.57,3.32-4,4.05-5.26,4.12-5.67.08-.51.58-.76,1.11-.56.51.19.9.77.83,1.29-.15,1.1-1.78,3.23-4.45,6.45-.18.22-.28.34-.46.56-.24.3-.66.35-1.04.18Z"/>
                  <path class="cls-2" d="M419.68,407.66c-.27,0-.53-.08-.74-.29-.42-.42-.42-1.13,0-1.59,2.73-3.03,6.91-10.94,7.09-12.08.1-.62.65-1.06,1.23-.97.58.09.97.65.88,1.27-.3,1.93-5.01,10.32-7.68,13.29-.21.24-.49.36-.78.37Z"/>
                  <path class="cls-2" d="M379.92,422.3c-.33,0-.66-.14-.87-.44-.36-.5-.25-1.21.23-1.6.34-.27,8.39-6.73,12.19-9.46.5-.36,1.18-.23,1.5.29.32.52.18,1.23-.32,1.59-3.75,2.69-12,9.32-12.08,9.38-.2.16-.43.24-.65.24Z"/>
                  <path class="cls-2" d="M383.21,393.19c-.18,0-.36-.04-.53-.14-.53-.31-.72-1.02-.43-1.59.35-.69.96-1.4,1.81-2.39.92-1.08,2.19-2.56,3.59-4.61.36-.52,1.04-.64,1.52-.25.48.39.59,1.12.23,1.64-1.47,2.15-2.78,3.68-3.74,4.8-.71.83-1.27,1.49-1.5,1.92-.2.39-.57.61-.96.62Z"/>
                  <path class="cls-2" d="M355.06,401.07c-.25,0-.5-.09-.71-.27-.47-.42-.53-1.15-.14-1.65,1.81-2.3,7.12-7.25,11.23-8.89.57-.23,1.2.09,1.41.7.21.61-.08,1.29-.65,1.51-3.7,1.47-8.67,6.11-10.31,8.18-.22.27-.53.42-.84.42Z"/>
                  <path class="cls-2" d="M331.4,399.99c-.56,0-1.04-.47-1.09-1.08-.11-1.3,1.19-2.48,4.65-5.34,1.39-1.14,3.46-2.85,3.82-3.52.05-.56.46-1.01.99-1.06.6-.05,1.13.43,1.19,1.08.11,1.31-1.2,2.52-4.66,5.37-1.39,1.14-3.46,2.84-3.82,3.5-.05.55-.46,1-.99,1.04-.03,0-.06,0-.09,0ZM332.46,399h0ZM332.48,398.73s0,0,0,0c0,0,0,0,0,0ZM338.78,390.26s0,0,0,0c0,0,0,0,0,0Z"/>
                  <path class="cls-2" d="M323.6,427.36c-.2,0-.39-.06-.57-.18-.51-.34-.68-1.05-.37-1.57.32-.55.86-1.19,1.54-2.01,1.52-1.82,3.6-4.33,4.77-7.51.22-.59.85-.87,1.41-.63.56.24.84.92.62,1.5-1.31,3.54-3.63,6.33-5.15,8.16-.59.71-1.11,1.33-1.34,1.73-.2.34-.55.52-.91.51Z"/>
                  <path class="cls-2" d="M340.88,436.44c-.16,0-.32-.04-.48-.12-.54-.28-.76-.96-.51-1.51,1-2.16,6.07-8.85,7.43-10.13.45-.42,1.13-.38,1.54.1.4.47.36,1.19-.08,1.61-1.31,1.23-6.11,7.65-6.94,9.44-.19.4-.57.63-.97.62Z"/>
                  <path class="cls-2" d="M364.28,441.44c-.16,0-.32-.03-.47-.11-.53-.27-.75-.93-.48-1.49,1.03-2.17,6.17-8.91,7.55-10.21.45-.42,1.14-.39,1.53.07.39.46.35,1.18-.1,1.6-1.32,1.25-6.19,7.71-7.05,9.5-.19.4-.57.64-.97.64Z"/>
                  <path class="cls-2" d="M335.88,461.44c-.22,0-.45-.08-.64-.23-.47-.37-.58-1.06-.24-1.54,2.68-3.72,7.25-6.73,8.58-7.57.5-.31,1.16-.15,1.47.38.31.52.15,1.2-.35,1.52-.89.56-5.47,3.52-7.99,7.02-.2.28-.52.43-.84.42Z"/>
                  <path class="cls-2" d="M354.16,479.83c-.25,0-.5-.09-.7-.27-.43-.39-.46-1.07-.07-1.51.2-.23,4.95-5.59,7.31-7.67.45-.39,1.11-.35,1.48.1.37.45.31,1.13-.14,1.52-2.26,1.99-7.07,7.42-7.11,7.47-.21.23-.49.36-.78.36Z"/>
                  <path class="cls-2" d="M372.95,459.11c-.24,0-.48-.07-.68-.24-.44-.38-.49-1.07-.1-1.54.36-.43,1.1-1.15,2.04-2.06,1.36-1.31,4.19-4.05,4.44-4.86.11-.61.67-1.02,1.24-.94.58.08.96.65.85,1.25-.22,1.21-1.76,2.88-5.12,6.12-.82.79-1.58,1.53-1.85,1.85-.22.26-.52.4-.82.41Z"/>
                  <path class="cls-2" d="M460.92,321.52c-.23-.02-.47-.11-.67-.3-.46-.41-.58-1.09-.26-1.52.29-.39.92-1.02,1.71-1.81,1.14-1.14,3.5-3.48,3.63-4.23.03-.57.5-.9,1.05-.76.55.14.98.72.95,1.29-.05,1.14-1.29,2.54-4.12,5.37-.69.68-1.34,1.34-1.56,1.63-.18.24-.45.35-.74.33Z"/>
                  <path class="cls-2" d="M395.01,436.4c-.21,0-.41-.04-.59-.16-.48-.32-.6-1.01-.26-1.53.38-.59.73-1.24,1.11-1.95.93-1.73,2.08-3.9,4.32-6.38.42-.46,1.1-.51,1.52-.1.42.41.42,1.12,0,1.58-2.03,2.26-3.07,4.19-3.98,5.89-.42.78-.8,1.49-1.22,2.13-.22.33-.56.52-.9.53Z"/>
                  <path class="cls-2" d="M389.95,370.01c-.21,0-.42-.06-.61-.2-.5-.37-.65-1.11-.32-1.65.37-.62.69-1.3,1.05-2.04.87-1.82,1.96-4.08,4.1-6.64.4-.48,1.08-.49,1.53-.04.44.46.48,1.21.07,1.69-1.95,2.32-2.92,4.34-3.78,6.12-.39.81-.75,1.56-1.15,2.23-.21.34-.55.53-.9.53Z"/>
                  <path class="cls-2" d="M393.15,464.13c-.3.02-.59-.09-.78-.33-.36-.43-.28-1.11.18-1.52,1.15-1.03,3.96-3.64,6.68-6.18,3.1-2.89,5.78-5.39,6.34-5.86.47-.4,1.13-.37,1.47.08.34.45.23,1.13-.24,1.53-.51.44-3.43,3.16-6.25,5.79-2.74,2.55-5.56,5.17-6.71,6.21-.2.18-.45.28-.69.3Z"/>
                  <path class="cls-2" d="M440.91,439.74c-.09,0-.18,0-.26-.01-.52-.11-.82-.61-.65-1.17.44-1.5,5.38-8.15,8.23-10.46.48-.39,1.12-.35,1.44.09.32.44.18,1.11-.29,1.5-2.68,2.19-7.07,8.3-7.4,9.2-.17.47-.61.81-1.06.85Z"/>
                  <path class="cls-2" d="M448.07,410.5c-.13,0-.26,0-.39-.05-.53-.19-.77-.81-.54-1.38.74-1.84,4.61-7.02,5.38-7.99.38-.48,1.04-.57,1.47-.2.43.37.48,1.05.1,1.53-1.2,1.5-4.51,6.07-5.03,7.36-.17.43-.58.72-.99.74Z"/>
                  <path class="cls-2" d="M468.24,403.98c-.31.02-.62-.11-.81-.37-.33-.45-.22-1.12.25-1.5,2.45-2,11.27-13.43,11.86-14.55.27-.52.9-.73,1.38-.47.49.26.67.89.39,1.42-.71,1.36-9.71,12.98-12.45,15.23-.19.15-.41.24-.62.25Z"/>
                  <path class="cls-2" d="M490.95,369.77c-.14,0-.29-.03-.43-.09-.51-.24-.75-.87-.54-1.4.11-.28.17-.42.28-.7,3-7.61,4.21-9.93,5.58-10.03.55-.04,1.05.39,1.13.98.08.58-.29,1.09-.84,1.13-.5.37-1.85,3.32-4.02,8.79-.11.28-.17.42-.28.71-.16.39-.51.62-.89.62Z"/>
                  <path class="cls-2" d="M473.62,339.91c-.23,0-.47-.1-.67-.28-.46-.4-.56-1.07-.24-1.5,3.34-4.46,4.98-6.65,8.16-10.91.31-.41.92-.43,1.39-.02.46.4.58,1.05.27,1.47-3.18,4.26-4.82,6.44-8.17,10.9-.18.24-.46.36-.74.34Z"/>
                  <path class="cls-2" d="M503.71,382.13c-.22,0-.45-.06-.64-.21-.42-.35-.48-.99-.13-1.43.87-1.11,5.11-7.71,6.09-10.11.21-.51.78-.74,1.28-.52.5.23.73.83.52,1.34-1.06,2.58-5.44,9.36-6.37,10.54-.19.25-.47.38-.75.39Z"/>
                  <path class="cls-2" d="M490.4,398.77c-.15.01-.3-.01-.44-.07-.49-.22-.68-.82-.42-1.34.58-1.18,2.08-4,3.64-4.78.51-.25,1.09-.05,1.3.46.21.51-.04,1.12-.55,1.38-.52.26-1.58,1.62-2.62,3.73-.18.37-.55.61-.92.64Z"/>
                  <path class="cls-2" d="M444.54,346.4c-.15,0-.31-.04-.46-.12-.53-.28-.78-.96-.55-1.51.5-1.23,1.83-4.14,3.4-4.83.51-.22,1.14.05,1.4.62.26.57.05,1.21-.46,1.44-.52.23-1.52,1.6-2.42,3.8-.16.39-.52.61-.9.6Z"/>
                  <path class="cls-2" d="M333.6,370.86c-.16,0-.32-.04-.48-.12-.54-.29-.76-1.01-.5-1.61.59-1.33,2.16-4.54,3.85-5.34.55-.26,1.19.02,1.43.63.24.61-.02,1.32-.57,1.58-.56.27-1.69,1.79-2.75,4.18-.19.43-.58.67-.98.67Z"/>
                  <path class="cls-2" d="M490.96,425.74c-.16.02-.32,0-.46-.06-.45-.2-.57-.78-.26-1.29.15-.24.66-1.01,1.38-2.09,2.43-3.63,8-12.08,8.67-14.39.16-.54.71-.92,1.23-.84.52.08.81.58.65,1.12-.68,2.3-4.66,8.52-8.99,14.96-.69,1.02-1.18,1.75-1.31,1.97-.21.35-.56.58-.91.62Z"/>
                  <path class="cls-2" d="M356.27,368.47c-.17-.05-.34-.15-.47-.3-.44-.47-.44-1.23-.02-1.7.2-.22.89-.91,1.86-1.88,3.27-3.26,10.88-10.87,12.1-13.29.29-.57.95-.77,1.47-.45.52.32.72,1.05.44,1.62-1.22,2.42-6.71,8.12-12.53,13.91-.92.92-1.58,1.57-1.77,1.78-.29.32-.71.43-1.08.31Z"/>
                  <path class="cls-2" d="M470.83,428.83c-.26.03-.51-.04-.7-.23-.36-.36-.31-1.01.12-1.45,1.84-1.9,4.16-4.96,5.5-7.28.3-.52.93-.76,1.4-.54.47.22.61.83.3,1.35-1.46,2.52-3.89,5.71-5.89,7.77-.21.22-.48.34-.73.37Z"/>
                  <path class="cls-2" d="M459.35,454.27c-.16.02-.32,0-.47-.06-.45-.2-.56-.78-.24-1.31.39-.64,1.31-1.58,2.91-3.18,1.49-1.5,3.17-3.19,4.04-4.38.36-.5,1-.69,1.42-.44.42.26.46.86.09,1.36-1,1.36-2.77,3.14-4.33,4.7-1.01,1.01-2.26,2.28-2.5,2.66-.22.36-.58.59-.93.64Z"/>
                  <path class="cls-2" d="M475.88,457.88c-.22.04-.43,0-.59-.11-.36-.27-.32-.87.09-1.33.99-1.14,4.41-6.87,4.77-8.53.12-.54.65-1.01,1.17-1.06.53-.05.86.35.75.89-.5,2.3-4.28,8.38-5.4,9.67-.23.26-.52.43-.79.48Z"/>
                  <path class="cls-2" d="M418.76,476.96c-.18.02-.36,0-.52-.1-.45-.25-.54-.87-.2-1.38.55-.85,3.31-4.37,7.46-9.68,2.76-3.53,5.38-6.88,6.29-8.13.37-.5,1.02-.67,1.45-.39.43.29.48.92.11,1.43-.94,1.28-3.57,4.64-6.35,8.18-3.19,4.07-6.81,8.67-7.34,9.49-.22.33-.56.54-.9.58Z"/>
                  <path class="cls-2" d="M403.52,498.13c-.28.03-.55-.06-.73-.27-.32-.39-.22-1.03.23-1.44,1.76-1.6,4.83-4.52,5.5-5.54.33-.51.97-.72,1.41-.48.44.24.53.85.19,1.36-1.08,1.64-5.44,5.61-5.94,6.06-.2.18-.44.29-.66.31Z"/>
                  <path class="cls-2" d="M431.95,486.41c-.2.03-.4,0-.56-.1-.4-.26-.42-.87-.04-1.36.2-.26,4.99-6.49,8.15-9.23.47-.41,1.08-.43,1.37-.05.29.38.14,1.02-.33,1.42-2.93,2.55-7.7,8.73-7.75,8.8-.23.29-.54.48-.84.53Z"/>
                  <path class="cls-2" d="M448.82,483.45c-.23.04-.44,0-.6-.12-.35-.28-.3-.88.12-1.35,3.76-4.25,5.65-6.38,9.42-10.63.42-.47,1.04-.62,1.39-.34.35.28.3.88-.12,1.35-3.77,4.25-5.66,6.37-9.43,10.62-.23.25-.51.41-.78.46Z"/>
                  <path class="cls-2" d="M389.32,483.48c-.32.02-.63-.11-.81-.38-.31-.45-.17-1.11.3-1.48,1.36-1.05,5.17-4.25,6.43-6.32.32-.52.96-.73,1.44-.47.47.26.6.9.28,1.42-1.76,2.88-6.82,6.83-7.03,6.99-.19.15-.4.22-.61.24Z"/>
                  <path class="cls-2" d="M372.14,493.58c-.25.01-.51-.07-.7-.26-.4-.38-.39-1.04.01-1.47,2.31-2.48,4.99-5.65,5.24-6.4-.03-.58.4-1.01.97-1.08.58-.07,1.04.43,1.07,1,.02.42.04,1.56-5.84,7.86-.21.22-.48.34-.75.35Z"/>
                  <path class="cls-2" d="M378.78,514.82c-.18.01-.36-.03-.52-.12-.44-.26-.55-.87-.24-1.36,3.41-5.27,7.13-11.43,7.46-12.66-.03-.44.23-.89.66-1.11.52-.26,1.1-.06,1.29.44.19.5.42,1.58-7.8,14.28-.2.31-.53.5-.86.52ZM385.55,500.95s0,0,0,0c0,0,0,0,0,0Z"/>
                  <path class="cls-2" d="M415.42,508.92c-.2.03-.4,0-.56-.11-.38-.26-.39-.86-.02-1.34,1.22-1.56,1.83-2.34,3.05-3.91.37-.48.99-.66,1.38-.4.38.26.39.86.02,1.34-1.23,1.57-1.84,2.35-3.06,3.91-.22.28-.52.46-.81.5Z"/>
                  <path class="cls-2" d="M347.74,502.77c-.25,0-.5-.1-.7-.29-.41-.4-.42-1.05-.04-1.46.05-.06,5.36-5.69,7.52-8.31.37-.44,1.01-.51,1.45-.14.43.37.48,1.03.11,1.47-2.21,2.67-7.39,8.18-7.61,8.41-.2.21-.46.32-.73.32Z"/>
                  <path class="cls-2" d="M406.69,350.78c-.25,0-.51-.1-.71-.3-.46-.43-.53-1.16-.15-1.64,3.8-4.85,5.68-7.25,9.38-11.99.37-.47,1.03-.5,1.49-.07.46.43.53,1.15.17,1.62-3.7,4.74-5.58,7.14-9.38,11.99-.2.26-.5.39-.8.39Z"/>
                  <path class="cls-2" d="M438,328.71c-.19,0-.38-.07-.55-.19-.51-.34-.7-1.04-.44-1.55,1.76-3.37,3.06-6.87,2.88-7.69-.33-.54-.2-1.14.26-1.43.46-.29,1.14-.02,1.47.52.85,1.36-.05,4.62-2.77,9.84-.17.33-.5.51-.85.49Z"/>
                  <path class="cls-2" d="M501.1,339.49c-.23-.01-.48-.11-.68-.3-.44-.39-.53-1.03-.21-1.42.04-.04,3.7-4.5,5.42-6.8.29-.39.89-.4,1.34-.01.45.38.58,1,.28,1.39-1.74,2.32-5.42,6.8-5.46,6.85-.17.21-.42.3-.69.29Z"/>
                  <path class="cls-2" d="M422.62,435.85c-.25.02-.5-.06-.7-.24-.41-.38-.42-1.06,0-1.53.05-.05,4.78-5.48,7.1-8.34.39-.48,1.06-.59,1.49-.22.43.36.46,1.04.06,1.53-2.35,2.89-7.11,8.34-7.16,8.4-.22.25-.51.39-.79.41Z"/>
                  <path class="cls-2" d="M512.12,396.51c-.1,0-.19,0-.29-.02-.5-.12-.77-.65-.59-1.18,1.26-3.75,1.87-5.63,3.03-9.37.16-.53.71-.85,1.22-.71.51.14.79.67.63,1.19-1.17,3.73-1.78,5.6-3.04,9.33-.14.43-.54.73-.95.76Z"/>
                  <path class="cls-2" d="M513.34,362.21c-.18,0-.37-.05-.54-.16-.47-.31-.64-.94-.38-1.41.04-.08,4.28-7.71,5.25-10.93.15-.49.68-.71,1.19-.5.51.22.8.79.65,1.28-1.02,3.38-5.21,10.94-5.39,11.26-.17.3-.47.46-.79.46Z"/>
                  <path class="cls-2" d="M491.3,437.65c-.21.03-.42,0-.58-.12-.38-.27-.37-.86.02-1.33.07-.08,6.83-8.24,8.82-10.57.39-.45,1-.59,1.38-.31.37.28.35.88-.04,1.33-1.98,2.31-8.74,10.43-8.81,10.51-.22.27-.52.43-.8.48Z"/>
                </g>
                <g>
                  <path class="cls-2" d="M240.36,254.07c-1.69.46-4.54,3.12-3.09,4.68,1.45,1.55,3.52.51,4.58-1.28,1.06-1.79,2.14-4.39-1.49-3.4Z"/>
                  <path class="cls-2" d="M224.52,241.22c-2.56.75-4.75,3.6-4.27,4.74.48,1.14,2.68.53,3.64-.56.96-1.1,2.2-4.64.63-4.18Z"/>
                  <path class="cls-2" d="M238.64,240.53c-2.04.76-3.53,1.61-2.96,3.84.57,2.23,2.1,2.39,3.14.25,1.04-2.14.83-4.47-.19-4.1Z"/>
                  <path class="cls-2" d="M212.74,260.62c-2.17-1.28-5.02,3.42-5.09,5.1s3.2.3,4.31-1.42c1.11-1.72,1.48-3.26.78-3.68Z"/>
                  <path class="cls-2" d="M203.79,255.08c-.98-3.28-6.25,2.82-5.66,4.06.59,1.23,2.93.77,3.86-.18.93-.95,2.34-2.05,1.79-3.87Z"/>
                  <path class="cls-2" d="M209.94,243.71c-1.1,1.13-2.02,2.4-1.3,2.81.72.41,2.88-.73,3.42-1.78.53-1.05-1.03-2.16-2.12-1.03Z"/>
                  <path class="cls-2" d="M191.57,254.46c-2.15,1.53-3.84,3.97-1.84,4.08,2,.11,3.76-1.09,4.63-3.04.87-1.95-1.04-2.27-2.78-1.04Z"/>
                  <path class="cls-2" d="M195.7,277.28c-1.7-.32-4.19,2.74-3.34,4.55.84,1.82,4,.55,4.64-1.16.64-1.7-.18-3.19-1.29-3.4Z"/>
                  <path class="cls-2" d="M183.59,290.84c-3.07.22-5.3,4.37-3.38,5.29,1.92.92,3.58.5,4.63-1.51,1.05-2,.42-3.9-1.26-3.78Z"/>
                  <path class="cls-2" d="M214.85,287.1c-1.92.23-3.44,2.26-2.57,3.83.87,1.57,2.96.6,4.18-1.31,1.21-1.91,1.24-2.85-1.61-2.52Z"/>
                  <path class="cls-2" d="M222.88,267.6c-2.73.06-4.9,2.4-4.2,4.43.7,2.03,3.31,2.07,4.39.3,1.08-1.76,1.9-4.77-.19-4.73Z"/>
                  <path class="cls-2" d="M238.03,279.63c-3.62-.53-5.87,2.61-4.22,5.7s5.3,1.67,5.78.06,1.76-5.27-1.56-5.76Z"/>
                  <path class="cls-2" d="M255.01,262.72c-1.86.16-3.39,2.86-2.3,4.38,1.09,1.51,3.08,1.39,3.95-.28s.44-4.27-1.66-4.1Z"/>
                  <path class="cls-2" d="M255.07,246.44c-1.65.49-3.75,2.3-2.65,3.98,1.1,1.68,3.86,1.08,4.5-.67.65-1.74-.67-3.67-1.85-3.31Z"/>
                  <path class="cls-2" d="M268.28,264.44c-2.93-2.04-5.22,1.65-4.45,4.13.77,2.48,5.54,1.65,5.84.17.29-1.48-.16-3.45-1.38-4.3Z"/>
                  <path class="cls-2" d="M258.42,282.01c-1.84.08-4.63,2.81-2.91,4.37,1.72,1.56,3.91,1.49,4.63-.18s.44-4.27-1.72-4.18Z"/>
                  <path class="cls-2" d="M244.85,299.76c-2.84.11-4.85,3.34-3.32,4.36,1.53,1.02,4.92,0,5.07-1.47.15-1.47.85-2.99-1.75-2.89Z"/>
                  <path class="cls-2" d="M224.57,302.71c-1.98,0-4.9,2.89-2.22,3.87,2.68.97,4.02-1.12,4.27-2.13.26-1.01.48-1.74-2.05-1.74Z"/>
                  <path class="cls-2" d="M211,300.27c-3.24.13-3.57,3.81-2.01,4.69,1.56.88,3.38-.82,3.67-1.94.29-1.12-.23-2.8-1.67-2.75Z"/>
                  <path class="cls-2" d="M200.71,291.69c-2.63.82-2.56,2.97-1.74,3.22.83.24,1.4.53,2.11-.61s1.48-3.19-.37-2.61Z"/>
                  <path class="cls-2" d="M207.2,320.26c-2.13-3.19,2.45-5.87,3.44-5.28.99.59,1.05,3.36-.19,4.85-1.24,1.5-2.12,2.12-3.25.43Z"/>
                  <path class="cls-2" d="M230.05,320.41c-3.16-2.27,3-6.88,4.13-5.81,1.13,1.07,3.19,1.07.88,3.71s-3.72,3.02-5.01,2.1Z"/>
                  <path class="cls-2" d="M252.79,305.67c-2.46-.16-4.23,2.39-3.25,3.8s1.86.9,2.93-.22c1.07-1.12,2.38-3.45.31-3.58Z"/>
                  <path class="cls-2" d="M268.1,291.96c-2.32-4.71-8.03,1.86-6.43,4.1,1.59,2.24,3.8,2.53,4.66.52.86-2.01,2.48-3.19,1.78-4.62Z"/>
                  <path class="cls-2" d="M183.13,273.18c-.57.09-1.21.44-1.84.94-.69,2.21-1.03,3.32-1.69,5.55,1.36-.03,3.25-1.23,3.85-2.46.81-1.65,2.07-4.41-.32-4.03Z"/>
                </g>
                <path class="cls-1" d="M472.81,210.23c-10.64-13.92-26.55-7.45-24.54,9.31,1.65,13.72,13.58,21.59,25.6,24.34,11.07,2.53,19.58,18,13.28,29.14-8.98,15.9,17.43,41.56,33.09,29.49,1.64-1.26,3.02-2.75,4.23-4.28-6.21-23.56-13.99-45.98-23.88-68.24-8.69-7.75-21.06-10.95-27.79-19.75Z"/>
                <path class="cls-1" d="M499.38,289.9c-11.37.23-21.15-6.82-25.65-17.03-3.43-7.78-3.44-16.92,3.1-18.1,8.01-1.45,9.08-7.02,7.56-11.96-1.48-4.79-5.48-9.72-10.36-12.92-5.57-3.66-13.38-9.23-16.9-15.69-2.14-3.92-2.56-7.92-1.49-11.61,1.61-5.56,7.74-6.42,15.16-2.46.56.3,1.13.62,1.7.97,5.65,3.44,10.77,8.49,14.52,14.03,4.14,6.12,8.56,10.11,13.23,14.07-.16-.35-.24-.52-.41-.87-4.34-3.71-8.44-7.5-12.24-13.09-3.94-5.8-9.51-11.31-15.37-14.91-8.47-5.19-15.61-4.68-17.42,1.54-1.13,3.88-.67,8.14,1.62,12.37,3.72,6.87,11.81,12.63,17.57,16.39,4.58,2.99,8.17,7.42,9.55,11.91,1.42,4.65.37,9.9-7.24,11.26-6.97,1.25-7.04,10.96-3.41,19.17,3.9,8.8,11.71,15.73,21.31,17.46,1.76.32,3.63.46,5.56.42,8.65-.18,15.92-2.84,20.85-7.13-.14-.5-.22-.75-.36-1.25-4.56,4.23-11.65,7.22-20.85,7.41Z"/>
                <path class="cls-1" d="M500.11,297.54c-10.06,3.16-20.08-2.01-25.4-10.63-5.18-8.39-7.02-20.18-.84-23.75,7.71-4.46,7.22-12.28,4.7-17.93-2.33-5.22-6.59-9.67-11.4-11.86-5.4-2.47-13.14-6.38-17.34-12.7-2.77-4.17-3.81-9.14-3.35-14.49.74-8.61,7.21-12.51,15.3-9.18.38.16.75.32,1.13.5,4.6,2.22,9.02,6.29,12.67,11.39,5.2,7.27,10.36,10.94,15.31,14.52,3.46,2.5,6.97,5.08,10.76,8.84-.27-.6-.41-.9-.69-1.5-3.66-3.5-7.03-6-10.22-8.32-4.9-3.57-9.56-6.92-14.37-13.61-4.37-6.08-9.67-10.85-15.13-13.13-8.46-3.54-15.25.55-16.06,9.62-.51,5.72.63,11.13,3.69,15.74,4.59,6.92,12.75,11.03,18.44,13.6,4.25,1.92,8.01,5.85,10.05,10.47,2.31,5.23,1.89,12.31-4.51,16.65-7.74,5.25-3.68,18.69.72,25.65,3.74,5.91,9.92,11.26,17.55,12.36,3.08.44,6.39.21,9.81-.87,9.77-3.07,16.2-9.48,19.19-16.86-.29-.98-.43-1.47-.72-2.44-2.67,7.84-9.14,14.72-19.28,17.9Z"/>
                <path class="cls-6" d="M382.21,582.16c.16-4.64,2.17-8.95,6.02-12.42,3.4-3.06,7.83-5.17,12.42-6.21,2.92-.66,5.89-.89,8.68-.67,4.97.4,7.54-.26,9.8-2.01,3.03-2.35,5-6.49,8.58-14.23,1.34-2.9,2.84-6.27,4.76-10.15,6.5-13.08,17.65-23.39,28.8-31.66,11.95-8.86,27.08-17.75,42.82-20.01,4.41-.63,7.18-.21,8.41,1.29.31-.65.46-.97.76-1.63-1.47-1.2-4.23-1.52-8.38-.95-16.21,2.22-30.99,11.34-43.96,20.32-11.82,8.18-23.2,19.68-29.6,32.63-1.93,3.89-3.41,7.3-4.75,10.21-3.38,7.38-5.23,11.33-7.74,13.25-1.86,1.43-4.26,1.97-8.84,1.6-7.58-.61-16.46,1.98-22.4,7.32-4.19,3.76-6.45,8.62-6.59,13.63-.16,5.62,3.67,9.79,8.83,12.14.89-.24,1.34-.36,2.22-.62-5.71-2.12-10.02-6.28-9.84-11.85Z"/>
                <path class="cls-4" d="M384.77,573.53c.86-4.82,3.47-8.95,7.66-11.91,2.66-1.88,5.79-3.17,9.02-3.86,4.04-.86,8.21-.8,11.73.23,3.84,1.12,6.64,1.3,9.38-.45,3.23-2.05,5.75-6.25,10.44-14.02,1.74-2.89,3.7-6.25,6.17-10.06,7.61-11.77,19.41-22,31.41-29.02,12.11-7.08,25.4-14.55,39.56-15.72.39-.03.75-.01,1.11-.01.32-.66.48-.99.8-1.66-.2,0-.39-.01-.6,0-14.71,1.08-28.41,8.69-40.99,15.98-12.55,7.27-24.77,17.88-32.66,30.19-2.47,3.85-4.43,7.23-6.17,10.14-4.22,7.05-6.71,11.22-9.21,12.8-1.85,1.17-4.06,1.29-8.14.11-6.89-2.01-15.85-.7-22.49,3.97-4.71,3.31-7.74,8.11-8.66,13.48-1.49,8.69,5.67,15.71,13.64,18.88,1.12-.36,1.68-.54,2.79-.92-8.79-2.89-16.19-10.22-14.78-18.14Z"/>
                <path class="cls-4" d="M475.48,541.31c17.4-19.95,30.41-40.65,41.27-64.78-26.83,8.76-55.69,31.29-67.81,56.35-4.57,9.44-8.93,25.65-21.7,26.81-12.08,1.09-26.35,11.18-27.44,23.63-.27,3.04,1.35,5.51,3.77,6.94,26.67-10.87,48.52-25.82,69.08-45.94.94-1,1.88-2,2.83-3.01Z"/>
                <path class="cls-6" d="M219.69,242.87c-13.59,3.81-24.78,13.49-35.56,22.56-.15.44-.23.67-.38,1.11,10.78-9.16,21.99-18.94,35.63-22.75,29.44-8.2,54.15,10.39,52.15,41.04-1.11,17-14.94,32.67-30.14,38.07-10.01,3.56-26.12,8.34-33.87-1.68-7.92-10.26-13.64-15.75-19.59-15.36-.3.02-.61.05-.91.1-2.79.42-5.62,1.95-8.44,4.48-2.4,2.15-4.97,3.25-7.35,3.21-.07.36-.11.54-.18.9,2.61,0,5.4-1.18,8.01-3.52,2.94-2.64,5.75-4.04,8.62-4.22,5.68-.37,11.38,3.99,19,15.1,3.11,4.54,9.76,6.7,18.04,6.19,5.17-.31,11.02-1.77,16.93-4.2,15.8-6.5,29.77-21.71,30.88-39.18,1.98-31.08-22.79-50.29-52.85-41.86Z"/>
              </g>
            </g>
            <g>
              <path class="cls-5" d="M349.86,100c-82.78,0-174.18,115.98-184.53,257.73-10.05,137.71,82.62,242.27,184.53,242.27s196.53-104.72,184.53-242.27c-12.07-138.32-98.3-257.73-184.53-257.73Z"/>
              <g class="cls-9">
                <path class="cls-7" d="M349.63,600c28.6,0,55.67-8.27,79.85-22.97,15.96-60.76,5.46-139.19-33.95-212.92-45.35-84.85-117.15-141.34-184.96-153.6-28.63,41.83-45.99,106.03-45.99,165.36,0,129.61,82.85,224.13,185.05,224.13Z"/>
              </g>
              <ellipse class="cls-8" cx="376.7" cy="284.22" rx="114.08" ry="167.2"/>
            </g>
          </g>
        </g>
      </g>
    </g>
  </g>
</svg>