<?xml version="1.0" encoding="UTF-8"?>
<svg xmlns="http://www.w3.org/2000/svg" xmlns:xlink="http://www.w3.org/1999/xlink" viewBox="0 0 700 700">
  <defs>
    <style>
      .cls-1 {
        fill: #fff4bb;
      }

      .cls-1, .cls-2, .cls-3, .cls-4, .cls-5, .cls-6, .cls-7, .cls-8, .cls-9, .cls-10 {
        stroke-width: 0px;
      }

      .cls-2 {
        fill: #8498b9;
      }

      .cls-3 {
        fill: #fa9364;
      }

      .cls-4 {
        fill: url(#_Безымянный_градиент_16);
      }

      .cls-4, .cls-10 {
        mix-blend-mode: screen;
      }

      .cls-5 {
        fill: #1d0d2b;
      }

      .cls-6 {
        fill: #986a8d;
      }

      .cls-7 {
        fill: url(#_Безымянный_градиент_140);
        mix-blend-mode: multiply;
      }

      .cls-11 {
        isolation: isolate;
      }

      .cls-8 {
        fill: #ffb97e;
      }

      .cls-9 {
        fill: #475b79;
      }

      .cls-10 {
        fill: url(#_Безымянный_градиент_139);
      }
    </style>
    <radialGradient id="_Безымянный_градиент_140" data-name="Безымянный градиент 140" cx="746.01" cy="697.61" fx="746.01" fy="697.61" r="320.28" gradientTransform="translate(-393.2 -581.62) scale(1.1 1.3)" gradientUnits="userSpaceOnUse">
      <stop offset=".36" stop-color="#f1f2f2" stop-opacity="0"/>
      <stop offset=".42" stop-color="rgba(220, 221, 222, .15)" stop-opacity=".15"/>
      <stop offset=".59" stop-color="rgba(172, 173, 175, .52)" stop-opacity=".52"/>
      <stop offset=".74" stop-color="rgba(137, 138, 141, .78)" stop-opacity=".78"/>
      <stop offset=".87" stop-color="rgba(116, 117, 120, .94)" stop-opacity=".94"/>
      <stop offset=".97" stop-color="#6d6e71"/>
    </radialGradient>
    <radialGradient id="_Безымянный_градиент_16" data-name="Безымянный градиент 16" cx="521.33" cy="333.7" fx="521.33" fy="333.7" r="424.94" gradientTransform="translate(0 -63.07) scale(1 1.03)" gradientUnits="userSpaceOnUse">
      <stop offset=".68" stop-color="#221e1f" stop-opacity="0"/>
      <stop offset=".71" stop-color="rgba(46, 42, 43, .06)" stop-opacity=".06"/>
      <stop offset=".77" stop-color="rgba(79, 76, 77, .23)" stop-opacity=".23"/>
      <stop offset=".86" stop-color="rgba(133, 132, 133, .51)" stop-opacity=".51"/>
      <stop offset=".97" stop-color="rgba(206, 206, 207, .88)" stop-opacity=".88"/>
      <stop offset="1" stop-color="#e6e7e8"/>
    </radialGradient>
    <radialGradient id="_Безымянный_градиент_139" data-name="Безымянный градиент 139" cx="792.42" cy="1143.04" fx="792.42" fy="1143.04" r="106.23" gradientTransform="translate(-474.26 -1514.81) scale(1.07 1.57)" gradientUnits="userSpaceOnUse">
      <stop offset="0" stop-color="#f1f2f2"/>
      <stop offset="1" stop-color="#221e1f" stop-opacity="0"/>
    </radialGradient>
  </defs>
  <g class="cls-11">
    <g id="_Слой_2" data-name="Слой 2">
      <g id="_Слой_3" data-name="Слой 3">
        <g>
          <rect class="cls-5" width="700" height="700"/>
          <g>
            <g>
              <path class="cls-8" d="M534.38,357.73c12.01,137.55-82.62,242.27-184.53,242.27s-194.58-104.56-184.53-242.27c10.35-141.75,101.75-257.73,184.53-257.73s172.45,119.42,184.53,257.73Z"/>
              <g>
                <path class="cls-8" d="M225.4,541.73c78.53,72.74,169.96,73.07,248.27.03,93.29-112.38,70.11-268.58-14.22-379.42-72.54-77.57-146.14-78.96-218.75-.39-83.34,111.1-109.2,267.41-15.3,379.78Z"/>
                <path class="cls-1" d="M219.34,192.05c.96-1.55,1.45-2.33,2.43-3.85,93-72.17,219.85,24.02,295.26,80.74,2.44,7.43,3.57,11.21,5.63,18.89-73.59-48.54-212.27-161.93-303.32-95.78Z"/>
                <path class="cls-2" d="M164.87,380.37c47.36,18.18,105.45,19.66,155.4,23.18,49.63,3.49,107.75,9.79,156.86-2.4-.14,3.86-.23,5.78-.44,9.59-87.36,39.19-214.43,51.74-306.43,22.35-4.22-20.1-5.39-30.72-5.38-52.71Z"/>
                <path class="cls-6" d="M533.05,342.52c1.89,24.84,1.87,46.38-.38,71.18-53.07.09-106.01-8.94-157.67-20.36-66.28-14.65-146.49-28.83-205.73-63.88,1.48-9.28,2.35-13.87,4.35-22.93,114.35,27.22,242.37,29.65,359.43,35.99Z"/>
                <path class="cls-2" d="M492.99,212.53c5.93,11.07,8.7,16.87,13.76,28.89-54.54,10.26-108.3,17.98-162.16,32.62-57.09,15.51-114.92,38.59-173.79,46.39,2.11-11.52,3.37-17.2,6.27-28.33,60.31-15.31,118.57-37.99,178.74-53.92,45.11-11.94,92.62-13.76,137.17-25.66Z"/>
                <path class="cls-9" d="M524.26,452.4c-4.49,14.86-7.29,21.97-13.79,35.36-97.72,68.44-225.21,71.46-322.19-1.03-2.28-4.78-3.35-7.22-5.38-12.19,109.07,60.33,238.69,43.48,341.36-22.14Z"/>
                <path class="cls-1" d="M165.65,400.84c102.98,38.19,245.5,93.76,355.65,60.69-2.29,6.62-3.54,9.86-6.25,16.18-110.75,33.68-246.89-32.65-348.87-70.91-.24-2.37-.35-3.56-.53-5.96Z"/>
                <path class="cls-9" d="M520.23,279.2c1.54,5.21,2.27,7.84,3.63,13.17-62.86,6.63-130.25-8.59-193.04-12.02-50.36-2.75-100.29,1.27-150.47.02.32-1.08.48-1.62.8-2.7,114.32-5.29,224.66-7.58,339.08,1.54Z"/>
                <path class="cls-1" d="M534.93,366.65c.17,4.45.21,6.66.2,11.05-114.98-38.61-237.8-83.83-361.11-72.96.25-1.1.37-1.65.63-2.74,116.12-20.5,253.47,21.36,360.28,64.65Z"/>
                <path class="cls-3" d="M203.73,220.22c-1.73,3.5-2.57,5.27-4.22,8.85,98.37-23.45,207.8-22.24,304.88,6.86-.76-1.73-1.15-2.6-1.94-4.31-102.32-29.19-195.2-25.71-298.72-11.4Z"/>
                <path class="cls-6" d="M499.41,507.92c-88.13,73.69-212.69,64.86-301.39-2.92.76,1.27,1.14,1.91,1.91,3.16,87.99,67.63,206,81.77,294.51,7.46,2.04-3.02,3.03-4.56,4.97-7.69Z"/>
                <path class="cls-3" d="M533.74,404.8c-.5,4.84-.8,7.24-1.51,11.98-76.25,58.79-221.58,195.78-318.47,111.28-2.32-2.98-3.46-4.5-5.67-7.6,42.22,31.56,99.85,16.64,144.64-.72,62.18-24.1,136.65-63.57,181.01-114.94Z"/>
                <path class="cls-1" d="M485.65,527.73c-3.22,4.13-4.89,6.13-8.31,10-44.47,42.09-113.03-7.04-151.12-34.27-57.55-41.16-121.67-91.71-160.37-152.07.29-2.89.45-4.33.8-7.2,39.67,66.05,108.24,121.79,172.48,162.67,41.4,26.35,101.93,58.21,146.52,20.86Z"/>
                <path class="cls-6" d="M193.75,241.99c-1.02,2.47-1.53,3.71-2.52,6.22,79.51-59.35,195.37-130.71,288.73-57.82-.67-1.03-1-1.55-1.67-2.57-92.85-70.96-205.72-7.69-284.55,54.17Z"/>
                <path class="cls-9" d="M483.16,195.45c1.31,2.12,1.95,3.19,3.23,5.35-58.14-40.01-149.8-89.54-222.27-63.22,9.93-8.87,15.09-12.76,25.6-19.19,70.96-4.2,137.99,36.89,193.44,77.06Z"/>
              </g>
            </g>
            <g>
              <path class="cls-7" d="M349.86,100c-82.78,0-174.18,115.98-184.53,257.73-10.05,137.71,82.62,242.27,184.53,242.27s196.53-104.72,184.53-242.27c-12.07-138.32-98.3-257.73-184.53-257.73Z"/>
              <path class="cls-4" d="M349.63,600c28.6,0,55.67-8.27,79.85-22.97,15.96-60.76,5.46-139.19-33.95-212.92-45.35-84.85-117.15-141.34-184.96-153.6-28.63,41.83-45.99,106.03-45.99,165.36,0,129.61,82.85,224.13,185.05,224.13Z"/>
              <ellipse class="cls-10" cx="376.7" cy="284.22" rx="114.08" ry="167.2"/>
            </g>
          </g>
        </g>
      </g>
    </g>
  </g>
</svg>