<?xml version="1.0" encoding="UTF-8"?>
<svg xmlns="http://www.w3.org/2000/svg" xmlns:xlink="http://www.w3.org/1999/xlink" viewBox="0 0 700 700">
  <defs>
    <style>
      .cls-1 {
        fill: #3a6e60;
      }

      .cls-1, .cls-2, .cls-3, .cls-4, .cls-5, .cls-6, .cls-7, .cls-8, .cls-9, .cls-10, .cls-11, .cls-12, .cls-13 {
        stroke-width: 0px;
      }

      .cls-2 {
        fill: #ab8957;
      }

      .cls-3 {
        fill: #d6b789;
      }

      .cls-4 {
        fill: #4e6d80;
      }

      .cls-5 {
        fill: #3b4c69;
      }

      .cls-6 {
        fill: url(#_Безымянный_градиент_16);
      }

      .cls-6, .cls-13 {
        mix-blend-mode: screen;
      }

      .cls-7 {
        fill: #693f3b;
      }

      .cls-8 {
        fill: #1d0d2b;
      }

      .cls-9 {
        fill: #fbd69e;
      }

      .cls-10 {
        fill: url(#_Безымянный_градиент_140);
        mix-blend-mode: multiply;
      }

      .cls-14 {
        isolation: isolate;
      }

      .cls-11 {
        fill: #304569;
      }

      .cls-12 {
        fill: #354561;
      }

      .cls-13 {
        fill: url(#_Безымянный_градиент_139);
      }
    </style>
    <radialGradient id="_Безымянный_градиент_140" data-name="Безымянный градиент 140" cx="666.56" cy="1130.77" fx="666.56" fy="1130.77" r="320.28" gradientTransform="translate(-306.14 -1143.86) scale(1.1 1.3)" gradientUnits="userSpaceOnUse">
      <stop offset=".36" stop-color="#f1f2f2" stop-opacity="0"/>
      <stop offset=".42" stop-color="rgba(220, 221, 222, .15)" stop-opacity=".15"/>
      <stop offset=".59" stop-color="rgba(172, 173, 175, .52)" stop-opacity=".52"/>
      <stop offset=".74" stop-color="rgba(137, 138, 141, .78)" stop-opacity=".78"/>
      <stop offset=".87" stop-color="rgba(116, 117, 120, .94)" stop-opacity=".94"/>
      <stop offset=".97" stop-color="#6d6e71"/>
    </radialGradient>
    <radialGradient id="_Безымянный_градиент_16" data-name="Безымянный градиент 16" cx="521.33" cy="383.81" fx="521.33" fy="383.81" r="424.94" gradientTransform="translate(0 -114.55) scale(1 1.03)" gradientUnits="userSpaceOnUse">
      <stop offset=".68" stop-color="#221e1f" stop-opacity="0"/>
      <stop offset=".71" stop-color="rgba(46, 42, 43, .06)" stop-opacity=".06"/>
      <stop offset=".77" stop-color="rgba(79, 76, 77, .23)" stop-opacity=".23"/>
      <stop offset=".86" stop-color="rgba(133, 132, 133, .51)" stop-opacity=".51"/>
      <stop offset=".97" stop-color="rgba(206, 206, 207, .88)" stop-opacity=".88"/>
      <stop offset="1" stop-color="#e6e7e8"/>
    </radialGradient>
    <radialGradient id="_Безымянный_градиент_139" data-name="Безымянный градиент 139" cx="729.93" cy="1831.01" fx="729.93" fy="1831.01" r="106.23" gradientTransform="translate(-407.15 -2597.63) scale(1.07 1.57)" gradientUnits="userSpaceOnUse">
      <stop offset="0" stop-color="#f1f2f2"/>
      <stop offset="1" stop-color="#221e1f" stop-opacity="0"/>
    </radialGradient>
  </defs>
  <g class="cls-14">
    <g id="_Слой_2" data-name="Слой 2">
      <g id="_Слой_3" data-name="Слой 3">
        <g>
          <rect class="cls-8" y="0" width="700" height="700"/>
          <g>
            <g>
              <path class="cls-2" d="M534.38,357.73c12.01,137.55-82.62,242.27-184.53,242.27s-194.58-104.56-184.53-242.27c10.35-141.75,101.75-257.73,184.53-257.73s172.45,119.42,184.53,257.73Z"/>
              <g>
                <path class="cls-9" d="M524.19,339.8c-2.26-1.61-2.41,2.75-1.72,4.3s1.89,1.03,2.58,0,.34-3.44-.86-4.3Z"/>
                <path class="cls-3" d="M432.37,213.85c-4.3,2.75-11.73,24.39-10.73,31.21,1.93,13.14,6.68,26.4,12.66,30.58,5.98,4.18,21.1-21.84,20.12-33.54-.98-11.7-17.76-30.99-22.06-28.25Z"/>
                <path class="cls-9" d="M415.52,170.71c-3.05,3.32.48,11.54.48,15.87s10.58,3.37,12.99,4.33c2.4.96,4.33-8.18,3.85-10.58s-14.27-12.94-17.31-9.62Z"/>
                <path class="cls-9" d="M462.17,209.67c-3.76,3.76-.48,12.99-1.44,17.31-.96,4.33,10.58,5.77,11.06,4.33s3.85-10.1,3.37-12.5-9.14-12.99-12.99-9.14Z"/>
                <path class="cls-7" d="M465.06,276.52c-7.83,0-9.14,15.87-9.14,17.31s0,6.73.96,13.47c.96,6.73,5.77-.48,8.18-3.85,2.4-3.37,5.77-26.93,0-26.93Z"/>
                <path class="cls-12" d="M415.69,136.17c-7.23-3.34-8.18,7.21-5.29,12.5,2.89,5.29.48,7.69,8.66,5.77,8.18-1.92,2.89-15.39-3.37-18.28Z"/>
                <path class="cls-9" d="M353.96,120.7c-4.78-.73-8.18-3.37-11.54,4.81s6.25,10.58,10.58,6.73c4.33-3.85,7.21-10.58.96-11.54Z"/>
                <path class="cls-7" d="M453.99,181.29c-4.95-2.64-8.18.96-3.37,9.14,4.81,8.18,10.1,11.06,11.54,6.25,1.44-4.81-.96-11.54-8.18-15.39Z"/>
                <path class="cls-4" d="M413.6,304.89c-4.67,5.84-4.81,4.81-4.81,14.43s7.69,15.39,12.02,9.62c4.33-5.77,8.18-12.02,5.77-20.2-2.4-8.18-11.06-6.25-12.99-3.85Z"/>
                <path class="cls-9" d="M466.5,365.01c-4.35-7.73-26.45,8.66-27.41,11.06-.96,2.4-2.89,16.35-.48,23.57,2.4,7.21,15.39.48,22.6-5.29,7.21-5.77,9.62-21.64,5.29-29.34Z"/>
                <path class="cls-4" d="M416.96,427.05c-8.44-6.75-14.91,8.18-14.91,17.79s.48,19.72,6.25,25.97c5.77,6.25,11.06,1.92,15.87-4.81,4.81-6.73,4.33-14.91.96-21.16-3.37-6.25-3.37-13.95-8.18-17.79Z"/>
                <path class="cls-12" d="M347.71,353.95c-5.06-.72-15.39,16.35-21.64,21.16s-9.14,22.6-3.85,30.78c5.29,8.18,16.35-1.92,21.64-6.25s9.14-14.43,7.69-22.12c-1.44-7.69-.48-23.08-3.85-23.57Z"/>
                <path class="cls-1" d="M341,536.01c2.2-4.27,1.04-14.61-8.38-18.39-9.42-3.77-17.45-15.49-27.99-14.97-10.55.52-15.16,8.42-11.56,12.98,3.6,4.56,11.42,15.63,18.44,21.95,7.02,6.32,27.06,3.13,29.49-1.58Z"/>
                <path class="cls-12" d="M254.89,430.9c-6.22-1.7-11.06,8.18-13.47,16.83-2.4,8.66-1.44,28.86,6.73,39.44,8.18,10.58,18.28,1.92,20.68-5.77s3.37-18.76,0-26.45-8.66-22.6-13.95-24.05Z"/>
                <path class="cls-4" d="M212.57,372.7c-6.57-3.83-18.28,18.28-18.28,18.28,0,0-4.33,12.02,4.81,25.01,9.14,12.99,13.47,8.66,17.79,3.37,4.33-5.29,9.62-16.83,7.69-25.01-1.92-8.18-6.25-18.28-12.02-21.64Z"/>
                <path class="cls-7" d="M391.95,510.73c1.2,8.42-25.01,11.54-25.01,27.89s.96,30.3,7.69,28.86c6.73-1.44,20.68-5.77,26.45-16.83,5.77-11.06,2.4-27.41.48-33.18-1.92-5.77-10.1-10.1-9.62-6.73Z"/>
                <path class="cls-1" d="M493.91,396.27c-4.56-6.08-6.73-2.89-12.5,8.18-5.77,11.06-11.06,11.06-12.02,16.83-.96,5.77,5.77,11.54,6.73,14.43.96,2.89,14.43-8.18,16.35-10.58,1.92-2.4,4.33-25.01,1.44-28.86Z"/>
                <path class="cls-9" d="M490.55,322.69c-1.92.48-4.33,1.92-4.33,10.58s10.58,15.39,16.35,22.12c5.77,6.73,11.54-9.62,11.54-13.95s-12.99-10.58-15.87-13.47c-2.89-2.89-7.69-5.29-7.69-5.29Z"/>
                <path class="cls-7" d="M348.67,440.51c-13.41,2.68-12.99,22.6-12.02,32.7.96,10.1,5.29,19.72,9.62,23.57,4.33,3.85,12.5-5.29,13.47-15.87.96-10.58,4.33-20.2.96-24.53s-7.21-16.83-12.02-15.87Z"/>
                <path class="cls-1" d="M277.49,391.94c-8.66,0-16.35-4.33-11.06,3.85,5.29,8.18,15.39,22.12,22.12,25.49,6.73,3.37,12.5-9.14,11.54-16.35-.96-7.21-18.76-12.99-22.6-12.99Z"/>
                <path class="cls-7" d="M211.13,459.27c-6.77-.68-5.77,4.81-6.73,13.95-.96,9.14,11.06,25.01,14.43,28.86,3.37,3.85,6.25-14.91,8.66-21.16,2.4-6.25-11.54-21.16-16.35-21.64Z"/>
                <path class="cls-1" d="M458.79,450.04c-10.26,0-8.76,18.78-8.14,22.53s8.14-1.25,13.14-7.51c5.01-6.26,1.88-15.02-5.01-15.02Z"/>
                <path class="cls-12" d="M213.12,274.49c-4.7,5.77-10.95,13.32-11.99,20.49-1.04,7.17,3.13,14.34,8.86,11.27,5.73-3.07,8.34-8.19,15.12-10.75,6.78-2.56-5.73-28.68-11.99-21Z"/>
                <path class="cls-7" d="M177.15,355.54c-4.17,4.17.63,15.02,3.13,18.15,2.5,3.13,6.26.63,6.26-4.38s-3.76-19.4-9.39-13.77Z"/>
                <path class="cls-3" d="M427.56,519.88c1.22,5.5.63,8.76,5.63,14.39,5.01,5.63,11.89-1.25,11.89-8.76s-1.25-13.14-6.88-15.65c-5.63-2.5-11.89,4.38-10.64,10.01Z"/>
                <path class="cls-9" d="M251,526.39c-9.26,2.44-15.65,10.01-4.38,16.27s18.15,6.26,20.03-5.01c1.88-11.27-3.76-14.39-15.65-11.27Z"/>
                <path class="cls-9" d="M397.45,384.32c-9.17-1.15-15.65,1.25-13.77,11.27,1.88,10.01,1.88,20.03,8.76,21.28,6.88,1.25,7.51-4.38,8.76-13.14,1.25-8.76,1.25-18.78-3.76-19.4Z"/>
                <path class="cls-1" d="M261.02,175.92c-9.18-1.02-16.9,6.88-13.77,19.4,3.13,12.52,6.27,22.31,13.21,29.88,2.04,2.23,13.08-2.34,16.83-9.85,3.76-7.51-5.01-38.18-16.27-39.43Z"/>
                <path class="cls-3" d="M356.77,158.39c-2.54-4.36-13.77,5.01-11.27,20.03,2.5,15.02,6.88,15.02,11.27,9.39,4.38-5.63,8.76,2.5,10.01-7.51,1.25-10.01-5.63-14.39-10.01-21.9Z"/>
                <path class="cls-9" d="M364.28,268.54c-18.21,2.7-23.78,20.03-15.65,35.05,8.14,15.02,24.17,34.37,26.29,22.53,1.02-5.71,10.01-16.9,3.76-25.66-6.26-8.76,2.5-34.42-14.39-31.92Z"/>
                <path class="cls-7" d="M284.17,304.84c-11.81,0-16.27,13.14-13.77,25.03,2.5,11.89,1.88,14.39,5.63,19.4,3.76,5.01,8.14-6.88,12.52-14.39s3.13-30.04-4.38-30.04Z"/>
                <path class="cls-9" d="M239.11,325.49c-5.63-1.88-16.27,11.27-10.64,21.9,5.63,10.64,4.38,35.67,11.27,25.66,6.88-10.01,10.64-14.39,9.39-23.16-1.25-8.76-8.14-23.78-10.01-24.41Z"/>
                <path class="cls-11" d="M416.23,353.66c-7.89.61-10.64,0-6.88,8.14s8.76,8.14,9.39,6.26c.63-1.88,5.63-15.02-2.5-14.39Z"/>
                <path class="cls-9" d="M377.43,195.94c-6.88,9.39-16.27,18.78-15.65,24.41.63,5.63,10.67,24.59,16.27,28.79,7.51,5.63,21.9-10.64,25.66-16.27,1.67-2.5,1.15-22.26-3.13-28.79-5.37-8.19-16.27-17.52-23.16-8.14Z"/>
                <path class="cls-3" d="M287.3,243.51c-7.64-15.29-17.6,7.49-21.36,19.38-3.76,11.89,4.46,31.31,15.73,27.55,11.27-3.76,16.27-9.39,16.27-20.03s-8.14-21.9-10.64-26.91Z"/>
                <path class="cls-9" d="M308.1,146.09c-4.8,9.11-12.22,10.67-6.84,17.16,5.38,6.49,11.73,19.94,19.06,14.38,7.33-5.57,6.84-19.01,4.89-20.87-1.95-1.86-15.15-14.38-17.1-10.67Z"/>
                <path class="cls-9" d="M322.35,230.99c-4.61,5.99-11.89,8.14-5.01,21.9,6.88,13.77,17.52,1.88,18.78-5.01,1.25-6.88-7.51-25.03-13.77-16.9Z"/>
                <path class="cls-9" d="M225.34,230.99c-1.58,1.01-7.51,10.64-4.38,15.65,3.13,5.01,10.21,13.27,13.77,11.89s2.5-6.88,5.63-13.77c3.13-6.88-8.14-18.15-15.02-13.77Z"/>
                <path class="cls-9" d="M462.54,331.75c-5.01-3.76-14.39,6.26-13.14,10.64,1.25,4.38,8.76,1.88,14.39-.63,5.63-2.5,3.76-6.26-1.25-10.01Z"/>
                <path class="cls-7" d="M509.48,373.06c-8.33,6.25,1.25,14.39,4.38,22.53,3.13,8.14,13.14,5.01,11.89-6.26-1.25-11.27-11.27-20.03-16.27-16.27Z"/>
                <path class="cls-9" d="M314.21,321.74c-4.51,9.66-2.5,15.65,1.25,19.4,3.76,3.76,11.27-6.26,15.65-11.27,4.38-5.01-12.52-17.52-16.9-8.14Z"/>
                <path class="cls-9" d="M320.47,574.58c-3.13-4.38,9.39-20.03,19.4-8.76,10.01,11.27,15.65,21.28,8.14,23.78-7.51,2.5-24.41-10.64-27.54-15.02Z"/>
                <path class="cls-4" d="M286.05,558.94c-7.51.63-8.14,3.76-5.63,6.88,2.5,3.13,6.88-1.88,8.76,7.51,1.88,9.39,10.01,15.65,12.52,5.63,2.5-10.01-3.13-16.9-7.51-19.4-4.38-2.5-8.14-.63-8.14-.63Z"/>
                <path class="cls-9" d="M421.86,555.18c-6.17-1.03-20.65,6.26-20.65,10.64s5.63,8.76,5.63,8.76c0,0,6.26-4.38,8.14-3.13,1.88,1.25,13.77.63,13.14-5.01-.63-5.63,5.01-9.39-6.26-11.27Z"/>
                <path class="cls-9" d="M303.58,445.66c-1.34,7.39-10.64,1.88-11.27,8.76-.63,6.88.63,10.01.63,13.14s2.5,6.26,6.88,3.76c4.38-2.5,2.5-6.26,11.27-7.51,8.76-1.25,10.64-4.38,10.01-7.51s0-8.76-1.88-12.52c-1.88-3.76-14.39-5.01-15.65,1.88Z"/>
                <path class="cls-9" d="M189.04,432.52s-5.63,5.01-5.63,6.88,3.13,10.01,3.13,10.01c0,0,1.88.63,5.01-2.5,3.13-3.13,6.26-7.51,6.26-7.51,0,0-1.88-8.14-8.76-6.88Z"/>
                <path class="cls-7" d="M191.63,262.25c-1.89-2.83,5.83-9.72,5.35-12.63-.49-2.92,8.26,2.43,8.75,4.37.49,1.94,0,6.32-6.32,9.23-6.32,2.92-6.8.49-7.78-.97Z"/>
                <path class="cls-12" d="M491.9,494.83c-5.29-9.62-12.02-10.1-16.35-6.25-10.43,9.27-1.44,24.05-6.25,29.82-4.81,5.77-3.37,15.39,0,18.76,1.48,1.48,5.27,1.19,9.34-.12,5.67-6.52,11.01-13.46,15.98-20.81.84-7.29.39-15.75-2.71-21.39Z"/>
                <path class="cls-7" d="M524.32,447.54c-.63-10.64,1.12-16.35-.63-22.53-1.75-6.18-19.4,2.5-19.4,14.39s-.63,29.42,0,33.8c.37,2.58,6.6,3.42,11.67,3.29,3.19-7.68,6.02-15.63,8.44-23.83.03-1.76.01-3.49-.08-5.12Z"/>
                <path class="cls-3" d="M504.7,245.71c-4.51-1.5-9.84,7.16-13.42,12.97s-.45,18.79,3.58,25.94c4.03,7.16,11.18,7.6,13.87,2.68,2.12-3.88,5.06-14.42,5.99-19.81-1.88-5.59-3.87-11.09-5.96-16.5-1.58-2.78-3.1-4.98-4.06-5.29Z"/>
                <path class="cls-3" d="M223.03,213.16c4.37-2.92,6.32-8.26,8.75-17.49,1.61-6.12-1.7-10.11-5.38-13.94-5.57,7.99-10.88,16.46-15.87,25.35.75,1.14,1.51,2.07,1.82,2.69.97,1.94,6.32,6.32,10.69,3.4Z"/>
                <path class="cls-7" d="M181.72,329.79c0-2.43-1.46-17.49-1.46-29.64,0-6.38-.42-11.67-1.36-16.54-4.7,16.58-8.34,33.85-10.73,51.62,1.23-.31,2.53-.58,3.83-.58,6.32,0,9.72-2.43,9.72-4.86Z"/>
                <path class="cls-4" d="M260.45,155.34c3.89.97,9.23,7.29,15.06,3.4,5.83-3.89,11.18-7.29,8.26-14.58-2.27-5.68-1.62-14.59-5.82-17.1-8.33,6.22-16.47,13.41-24.33,21.47,2.34,3.56,5.07,6.36,6.82,6.8Z"/>
                <path class="cls-9" d="M330.12,106.74c-7.29.97-8.26,1.46-11.18,6.32s3.89,4.86,6.8,3.4,4.37-9.72,4.37-9.72Z"/>
                <path class="cls-9" d="M391.84,113.06c-2.06-1.37-3.89-3.4-4.37,2.43-.49,5.83,3.4,7.29,5.83,6.8,2.43-.49,0-8.26-1.46-9.23Z"/>
                <path class="cls-1" d="M242.07,412.31c-3.14-4.72-6.32,3.89-6.32,6.8s5.35,2.92,6.8.49c1.46-2.43.49-5.83-.49-7.29Z"/>
                <path class="cls-5" d="M404.99,483.89c-7.38,1.41,1.48,12.95,1.48,12.95,0,0,2.22,3.38,3.69-1.13,1.48-4.51,6.65-14.08-5.17-11.83Z"/>
                <path class="cls-9" d="M485.14,454.68c-8.26.49-8.75,0-8.75,3.89s9.23,7.29,10.69,9.23c1.46,1.94,6.32-3.89,5.35-8.26-.97-4.37-7.29-4.86-7.29-4.86Z"/>
                <path class="cls-3" d="M190.74,320.29c-1.87,8.06-2.48,8.39,1.25,9.49,3.73,1.1,9.61-6.79,11.88-7.64,2.28-.85-1.94-7.16-6.41-7.47-4.47-.31-6.72,5.62-6.72,5.62Z"/>
                <path class="cls-7" d="M523.53,313.76c-1.09-1.09-6.32,6.8-6.32,9.23s0,7.29,2.43,5.35c2.43-1.94,3.89-2.43,4.86-5.35.97-2.92.49-7.78-.97-9.23Z"/>
                <path class="cls-9" d="M408.36,271.96c-2.26-.9-4.37,1.94-4.37,4.37s9.72,2.43,11.18.97-4.37-4.37-6.8-5.35Z"/>
                <path class="cls-9" d="M294.82,360.58c-.73-2.91-4.64.69-4.64,3.26s2.41,1.37,2.75,2.58,3.78-1.37,3.78-2.75-1.55-1.72-1.89-3.09Z"/>
                <path class="cls-9" d="M260.29,337.56c-2.06,0-3.09-.86-3.09,1.72s.34,2.92.34,4.12,6.19.69,7.56-.86-4.81-4.98-4.81-4.98Z"/>
                <path class="cls-1" d="M216.18,335.92c-2.68-7.26-8.89,0-8.89,3.41s1.62,4.63,2.69,5.85c1.08,1.22,5.12-.73,5.39-2.44s1.62-4.63.81-6.82Z"/>
                <path class="cls-7" d="M247.57,284.3c-2.1,0-2.75,1.55-2.75,3.61s.69,5.84,1.03,6.53,4.12-1.03,4.81-2.58-1.89-7.56-3.09-7.56Z"/>
                <path class="cls-12" d="M326.09,288.93c-1.5-.38-3.44-.86-3.61,1.2s-.17,3.26.17,4.3,6.01-.86,6.36-1.55c.34-.69-1.55-3.61-2.92-3.95Z"/>
                <path class="cls-11" d="M379.35,342.37c-1.2,2.41.69,6.36,1.89,5.33,1.2-1.03,3.61-4.64,3.61-4.64,0,0,4.47,1.2,4.98.69s2.41-3.61,2.23-5.5c-.17-1.89,1.55-7.22-3.09-6.87-4.64.34-5.33-1.03-6.36,1.37-1.03,2.41-2.06,7.22-3.26,9.62Z"/>
                <path class="cls-9" d="M372.65,380.17c-1.47,0-2.92,7.22-2.06,8.76.86,1.55,2.41,0,3.26-1.37s3.78-1.89,1.89-3.95c-1.89-2.06-1.03-3.44-3.09-3.44Z"/>
                <path class="cls-7" d="M379.52,438.75c-2.58,0-4.12.52-2.92,3.95,1.2,3.44,3.78,4.64,3.78,4.64,0,0,.17-3.26,2.23-4.12,2.06-.86.17-4.47-3.09-4.47Z"/>
                <path class="cls-9" d="M453.75,428.62c-2.6-.95-5.15.52-6.53.52s-.69,2.58,1.72,3.61c2.41,1.03,6.7.52,6.7-.86s0-2.58-1.89-3.26Z"/>
                <path class="cls-7" d="M284.51,504.04c-3.92-.56-3.95,5.15-2.06,7.9,1.89,2.75,5.5.17,5.33-1.55s-.86-6.01-3.26-6.36Z"/>
                <path class="cls-9" d="M261.83,495.8c-.7.21-1.03,2.06.34,3.09s3.26,1.37,3.26-.17-1.37-3.61-3.61-2.92Z"/>
                <path class="cls-9" d="M279.01,479.82c-1.38-.09-2.92,3.09-2.92,4.81s1.55,3.09,2.06,3.09,2.41-.69,2.58-2.06.86-5.67-1.72-5.84Z"/>
                <path class="cls-7" d="M297.23,481.88c-.99.33-3.61,1.55-2.58,3.09s3.26,4.47,4.81,3.95,3.26-1.03,3.61-3.61-3.78-4.12-5.84-3.44Z"/>
                <path class="cls-9" d="M334.68,546.31c0,3.2-1.03,3.78,1.03,4.81s4.98,1.55,4.64-1.03c-.34-2.58,1.55-2.58-.34-4.81-1.89-2.23-5.33-.52-5.33,1.03Z"/>
                <path class="cls-9" d="M217.16,520.54c-4.19-2.99-2.23-7.22-.17-6.53,2.06.69,2.92,2.23,4.3,4.3,1.37,2.06,3.78,4.98,1.2,5.67s-4.12-2.58-5.33-3.44Z"/>
                <path class="cls-9" d="M205.65,506.62s-1.89,1.55-1.03,3.09,3.44,4.47,3.95,1.55-.52-4.12-2.92-4.64Z"/>
                <path class="cls-9" d="M382.44,506.79c-.92-4.15-6.53,1.89-2.92,4.3s6.53,1.37,6.36,0c-.17-1.37-2.75-1.2-3.44-4.3Z"/>
                <path class="cls-1" d="M409.25,533.25c-1.55,2.23-1.2,5.5.34,6.36,1.55.86,4.81.17,4.81-2.06s-3.61-6.53-5.15-4.3Z"/>
                <path class="cls-1" d="M413.8,513.5c-2.13,3.46-1.66,8.51.47,9.84,2.13,1.33,6.62.27,6.62-3.19s-4.97-10.1-7.09-6.65Z"/>
                <path class="cls-9" d="M431.07,539.44c-2.15.11-2.06,2.23-1.2,3.61s3.78,1.37,5.33.34-.69-4.12-4.12-3.95Z"/>
                <path class="cls-9" d="M453.75,494.59c-.64-1.42-2.23.86-1.89,3.61s2.75,4.64,3.95,2.23c1.2-2.41-1.2-3.95-2.06-5.84Z"/>
                <path class="cls-7" d="M460.96,544.76c-1.08-4.87-4.64-4.81-8.08,1.55-3.44,6.36-4.64,8.93-3.95,9.11.69.17,3.61-1.72,5.5-2.23s6.7,0,7.9-2.75c1.2-2.75-.69-2.58-1.37-5.67Z"/>
                <path class="cls-9" d="M512.85,411.95c-3.66-1.04-2.41,3.26-1.89,4.47s4.64,1.03,5.15,0-.86-3.78-3.26-4.47Z"/>
                <path class="cls-3" d="M496.91,364.77c-6.45-2.38-5.26,6.01-3.35,8.01,1.91,2,5.74.29,5.98-1.43.24-1.72.48-5.44-2.63-6.58Z"/>
                <path class="cls-4" d="M238.58,506.24c-6.45-2.38-5.26,6.01-3.35,8.01,1.91,2,5.74.29,5.98-1.43.24-1.72.48-5.44-2.63-6.58Z"/>
                <path class="cls-7" d="M465.09,355.77c-1.71.47-.34,2.92.34,3.78.69.86,1.89.17,2.23-1.2.34-1.37-.69-3.09-2.58-2.58Z"/>
                <path class="cls-9" d="M431.93,392.37c1.11.83,1.72,1.55,1.03,3.44-.69,1.89-1.72,3.78-2.75,1.72s-2.23-4.3-1.55-4.98c.69-.69,2.58-.69,3.26-.17Z"/>
                <path class="cls-9" d="M412.85,412.47c-2-.8-1.89,1.55-.86,2.58s3.61.52,3.44-.52-1.72-1.72-2.58-2.06Z"/>
                <path class="cls-9" d="M443.44,277.08c-.98.49-1.2,2.23-.52,4.12.69,1.89,4.64-.17,4.64-1.89s-.69-3.95-4.12-2.23Z"/>
                <path class="cls-9" d="M473.68,248.56c-1.6-.32-3.09,1.03-4.47,3.26-1.37,2.23-3.61,1.03-3.44,3.78.17,2.75,4.3,2.92,5.67,1.37,1.37-1.55,3.44-2.75,3.61-4.64.17-1.89-.52-3.61-1.37-3.78Z"/>
                <path class="cls-9" d="M473.16,259.38c-1.39.75-2.06,2.41,0,3.78s4.3.52,3.78-1.37c-.52-1.89-1.55-3.61-3.78-2.41Z"/>
                <path class="cls-9" d="M355.47,205.43c-3.37-.48-4.3,3.61-2.23,6.36,2.06,2.75,4.81-.34,4.81-1.89s-1.37-4.3-2.58-4.47Z"/>
                <path class="cls-5" d="M352.38,237.22c-2.67,0-3.61,2.23-2.41,4.64,1.2,2.41,2.23,3.26,3.09,1.72.86-1.55.52-6.36-.69-6.36Z"/>
                <path class="cls-11" d="M298.94,216.6c-2.74.27-3.44,1.2-2.06,3.44,1.37,2.23.17,7.73,3.09,4.3,2.92-3.44,3.09-4.47,2.92-5.5s-2.23-2.41-3.95-2.23Z"/>
                <path class="cls-9" d="M289.49,171.76c-4.28-.95-1.2,5.33-.52,6.53s3.61-.86,3.61-2.41-1.55-3.78-3.09-4.12Z"/>
                <path class="cls-9" d="M388.46,150.97c-1.15-1.92-2.75-.69-2.41,2.06.34,2.75,2.06,3.44,2.92,2.41.86-1.03.52-2.75-.52-4.47Z"/>
                <path class="cls-5" d="M394.81,159.73c-2.44-2.44-2.23-.52-3.95,2.75-1.72,3.26-3.95,7.22-1.2,5.5,2.75-1.72,4.3-1.55,4.98-3.26.69-1.72,1.37-3.78.17-4.98Z"/>
                <path class="cls-4" d="M395.16,170.04c-2.96-.21-4.12,1.55-3.26,3.78.86,2.23,3.26,3.78,3.61,1.37.34-2.41,2.06-4.98-.34-5.15Z"/>
                <path class="cls-9" d="M376.6,169.7c-2.86-.57-3.61,3.09-4.12,5.67-.52,2.58.69,6.19,3.09,4.12,2.41-2.06,3.95-4.3,4.98-6.01,1.03-1.72-2.23-3.44-3.95-3.78Z"/>
                <path class="cls-9" d="M440.34,162.65c-2.31-2.6-3.95.17-3.78,2.06.17,1.89,3.61,2.23,4.12,1.89s1.03-2.41-.34-3.95Z"/>
                <path class="cls-9" d="M433.13,201.31c-3.15.55-1.72,1.2-.34,3.09s4.47,2.41,4.12-.52c-.34-2.92.17-3.26-3.78-2.58Z"/>
                <path class="cls-3" d="M406.37,192.4c-5.78,1.01-3.15,2.21-.63,5.68,2.52,3.47,8.2,4.42,7.57-.95-.63-5.36.32-5.99-6.94-4.73Z"/>
                <path class="cls-7" d="M372.14,107.16c-3.97-.57-4.81,2.23-4.64,3.78s1.89,3.26,4.3,3.09,4.81-1.2,3.95-3.61c-.86-2.41-2.41-3.09-3.61-3.26Z"/>
                <path class="cls-5" d="M346.54,108.36c-2.38-.17-2.75,2.06-1.2,3.26,1.55,1.2,5.15.52,5.15-.69s-1.55-2.41-3.95-2.58Z"/>
                <path class="cls-9" d="M330.45,124.64c-1.33.16-1.53,1.98-.9,2.61.63.63,1.44-.36,1.62-1.08s1.53-1.8-.72-1.53Z"/>
                <path class="cls-9" d="M302.14,120.6c-2.29-1.27-3.59,1.89-3.24,2.52s1.44-.09,2.61-.09,2.25-1.53.63-2.43Z"/>
                <path class="cls-9" d="M309.06,124.37c-.87.18-.54,1.53-.09,1.8s1.44-.18,1.44-.72.36-1.44-1.35-1.08Z"/>
                <path class="cls-5" d="M312.21,130.31c-3.22-.77-2.52,2.7-1.98,3.77s2.88,1.62,3.41.45.45-3.77-1.44-4.22Z"/>
                <path class="cls-9" d="M318.14,135.7c-1.17.62-.99.81-.54,1.71s.36,1.08.63,2.16.45.72,1.8.09,2.79-.72,1.8-2.25-2.34-2.43-3.68-1.71Z"/>
                <path class="cls-4" d="M330.72,139.47c0,2.41-1.62,1.35-2.52,2.88-.9,1.53-2.97,3.06-1.17,4.67,1.8,1.62,5.12,2.07,6.92,1.44,1.8-.63,3.95.27,2.7-4.76s-5.93-5.39-5.93-4.22Z"/>
                <path class="cls-4" d="M497.56,478.53c-1.88-3.28-4.51,1.23-5.33,3.69-.82,2.46.41,8.61,3.28,4.51,2.87-4.1,3.69-5.33,2.05-8.2Z"/>
                <path class="cls-1" d="M298.24,134.52c-2.3.66-3.31,1.19-3.58,2.78s.66,2.65,1.46,2.52c.79-.13,2.91-.4,3.18-2.52.26-2.12.79-3.31-1.06-2.78Z"/>
                <path class="cls-7" d="M254.79,164.06c-2.07-.34-5.96,2.25-7.29,3.44-1.32,1.19-4.37,1.99-3.58,4.11.79,2.12,4.37.13,5.3.13s5.3-.4,5.83-1.99,1.19-3.97,1.19-4.9.13-.53-1.46-.79Z"/>
                <path class="cls-9" d="M237.96,202.61c.5-4.48-5.3,3.58-5.03,5.7.26,2.12,2.12,3.05,2.38,1.99s2.38-5.3,2.65-7.68Z"/>
                <path class="cls-7" d="M222.6,220.63c-.99-2.22-3.71,1.99-3.71,3.71s2.78,2.65,2.78,2.65c0,0,.4-1.32,1.46-2.91,1.06-1.59,0-2.25-.53-3.44Z"/>
                <path class="cls-7" d="M259.43,252.03c-.46-3.72-4.24-.79-5.03,1.59s-1.99,3.44-1.46,4.77,5.3,0,5.3,0c0,0,1.32-5.3,1.19-6.36Z"/>
                <path class="cls-7" d="M239.42,178.9c-1.61-1.13-2.91,3.44-2.12,5.43.79,1.99,3.05,3.05,3.05.66s.4-5.17-.93-6.09Z"/>
                <path class="cls-7" d="M369.79,157.7c-1.42-2.05-3.05.93-2.38,3.31.66,2.38,1.99,4.37,2.91,1.72.93-2.65.66-3.31-.53-5.03Z"/>
                <path class="cls-3" d="M396.15,185.26c-3.26-3.66-8.21,2.38-8.21,3.97s3.05,2.78,3.84,2.91c.79.13,3.71-1.32,3.71-2.52s1.72-3.18.66-4.37Z"/>
                <path class="cls-1" d="M279.7,220.37c-1.5-.55-2.78,1.06-2.78,2.78s3.18,3.31,3.71,3.84c.53.53,1.72-1.85,2.12-3.05s-1.59-3.05-3.05-3.58Z"/>
                <path class="cls-7" d="M292.94,237.06c-.59-.59-2.78,2.52-3.18,3.71s.26,1.99,1.06,2.65,2.38-1.32,2.38-2.38,1.06-2.65-.26-3.97Z"/>
                <path class="cls-9" d="M303.66,292.21c-2.47.62-3.84,2.78-3.44,4.9.4,2.12,2.78,5.17,4.64,6.89,1.85,1.72,3.05.4,3.71-3.18.66-3.58-2.78-9.14-4.9-8.61Z"/>
              </g>
            </g>
            <g>
              <path class="cls-10" d="M349.86,100c-82.78,0-174.18,115.98-184.53,257.73-10.05,137.71,82.62,242.27,184.53,242.27s196.53-104.72,184.53-242.27c-12.07-138.32-98.3-257.73-184.53-257.73Z"/>
              <path class="cls-6" d="M349.63,600c28.6,0,55.67-8.27,79.85-22.97,15.96-60.76,5.46-139.19-33.95-212.92-45.35-84.85-117.15-141.34-184.96-153.6-28.63,41.83-45.99,106.03-45.99,165.36,0,129.61,82.85,224.13,185.05,224.13Z"/>
              <ellipse class="cls-13" cx="376.7" cy="284.22" rx="114.08" ry="167.2"/>
            </g>
          </g>
        </g>
      </g>
    </g>
  </g>
</svg>