<?xml version="1.0" encoding="UTF-8"?>
<svg xmlns="http://www.w3.org/2000/svg" xmlns:xlink="http://www.w3.org/1999/xlink" viewBox="0 0 700 700">
  <defs>
    <style>
      .cls-1 {
        fill: none;
      }

      .cls-1, .cls-2, .cls-3, .cls-4, .cls-5, .cls-6, .cls-7, .cls-8, .cls-9, .cls-10, .cls-11, .cls-12, .cls-13 {
        stroke-width: 0px;
      }

      .cls-2 {
        fill: #5b7693;
      }

      .cls-3 {
        fill: #a0a2b1;
      }

      .cls-4 {
        fill: #fecb81;
      }

      .cls-5 {
        fill: url(#_Безымянный_градиент_16);
      }

      .cls-5, .cls-13 {
        mix-blend-mode: screen;
      }

      .cls-6 {
        fill: #b1859b;
      }

      .cls-7 {
        fill: #fce2a1;
      }

      .cls-8 {
        fill: #1d0d2b;
      }

      .cls-9 {
        fill: #986a8d;
      }

      .cls-10 {
        fill: url(#_Безымянный_градиент_140);
        mix-blend-mode: multiply;
      }

      .cls-14 {
        isolation: isolate;
      }

      .cls-11 {
        fill: #faac88;
      }

      .cls-12 {
        fill: #fff;
      }

      .cls-13 {
        fill: url(#_Безымянный_градиент_139);
      }
    </style>
    <radialGradient id="_Безымянный_градиент_140" data-name="Безымянный градиент 140" cx="734.64" cy="1519.36" fx="734.64" fy="1519.36" r="320.28" gradientTransform="translate(-380.75 -1648.26) scale(1.1 1.3)" gradientUnits="userSpaceOnUse">
      <stop offset=".36" stop-color="#f1f2f2" stop-opacity="0"/>
      <stop offset=".42" stop-color="rgba(220, 221, 222, .15)" stop-opacity=".15"/>
      <stop offset=".59" stop-color="rgba(172, 173, 175, .52)" stop-opacity=".52"/>
      <stop offset=".74" stop-color="rgba(137, 138, 141, .78)" stop-opacity=".78"/>
      <stop offset=".87" stop-color="rgba(116, 117, 120, .94)" stop-opacity=".94"/>
      <stop offset=".97" stop-color="#6d6e71"/>
    </radialGradient>
    <radialGradient id="_Безымянный_градиент_16" data-name="Безымянный градиент 16" cx="521.33" cy="428.77" fx="521.33" fy="428.77" r="424.94" gradientTransform="translate(0 -160.73) scale(1 1.03)" gradientUnits="userSpaceOnUse">
      <stop offset=".68" stop-color="#221e1f" stop-opacity="0"/>
      <stop offset=".71" stop-color="rgba(46, 42, 43, .06)" stop-opacity=".06"/>
      <stop offset=".77" stop-color="rgba(79, 76, 77, .23)" stop-opacity=".23"/>
      <stop offset=".86" stop-color="rgba(133, 132, 133, .51)" stop-opacity=".51"/>
      <stop offset=".97" stop-color="rgba(206, 206, 207, .88)" stop-opacity=".88"/>
      <stop offset="1" stop-color="#e6e7e8"/>
    </radialGradient>
    <radialGradient id="_Безымянный_градиент_139" data-name="Безымянный градиент 139" cx="783.48" cy="2448.19" fx="783.48" fy="2448.19" r="106.23" gradientTransform="translate(-464.66 -3569.02) scale(1.07 1.57)" gradientUnits="userSpaceOnUse">
      <stop offset="0" stop-color="#f1f2f2"/>
      <stop offset="1" stop-color="#221e1f" stop-opacity="0"/>
    </radialGradient>
  </defs>
  <g class="cls-14">
    <g id="_Слой_2" data-name="Слой 2">
      <g id="_Слой_3" data-name="Слой 3">
        <g>
          <rect class="cls-8" width="700" height="700"/>
          <g>
            <g>
              <path class="cls-7" d="M534.38,357.73c12.01,137.55-82.62,242.27-184.53,242.27s-194.58-104.56-184.53-242.27c10.35-141.75,101.75-257.73,184.53-257.73s172.45,119.42,184.53,257.73Z"/>
              <g>
                <path class="cls-7" d="M474.11,541.07c-78.56,72.08-169.78,72.21-247.92-.34-93.3-111.86-70.11-267.34,14.22-377.67,72.34-77.02,145.79-78.7,218.42-.79,83.08,110.91,108.86,266.63,15.28,378.8Z"/>
                <g>
                  <path class="cls-1" d="M371.75,359.6c-13.68-8.72-20.55-13.01-33.91-21.47-10.06,13.74-15.21,20.89-25.35,34.64,2.93,12.56,4.45,18.79,7.53,31.08,11.94-7.13,18.01-10.83,30.03-18.31,10.39,22.1,20.98,44.11,31.39,66.2,12.34-31.6,24.43-63.38,34.65-95.74-2.15-6.47-3.22-9.52-5.39-15.85-15.27,7.45-23.11,11.35-38.95,19.44Z"/>
                  <path class="cls-1" d="M328.52,437.02c5.6,21.41,8.43,31.84,13.71,51.84,13.21-9.01,20.12-13.87,34-23.83.15-.39.23-.58.38-.97-9.8-17.53-15.11-26.8-25.8-45.8-9.05,7.68-13.49,11.46-22.29,18.78Z"/>
                  <path class="cls-1" d="M217.46,206.74c5.72-5.1,8.57-7.65,14.22-12.74-2.05-.24-3.05-.31-4.95-.34-3.69,5.22-5.55,7.84-9.26,13.08Z"/>
                  <path class="cls-1" d="M257.97,482.96c-4.26-12.08-6.34-18.24-10.31-30.69-10.93-7.92-16.39-11.89-27.18-19.68-6.5,2.3-9.68,3.36-15.85,5.27.05,16.72.59,24.66,2.76,39.47,16.61,13.64,24.98,20.64,41.3,34.28,2.89.77,4.35,1.15,7.27,1.86.27-11.56.69-17.68,2.01-30.52Z"/>
                  <path class="cls-1" d="M347.97,544.94c-2.38-8.95-3.63-13.56-6.24-22.99-14.03,6.4-20.79,9.23-33.53,13.82-17.18-2.8-25.69-4.78-42.22-9.69,16.48,13.79,24.54,20.57,39.77,33.01,25.93,8.58,53.23,13.48,80.62,12.72,5.94-4.21,8.97-6.41,15.14-10.94-1.33-4.4-2.06-6.68-3.63-11.37-19.11.12-29.24-.84-49.91-4.56Z"/>
                  <path class="cls-1" d="M388.38,178.51c18.69,10.33,37.05,21.53,55.01,33.04-2.18-9.86-3.33-14.69-5.75-24.1-19.39-13.97-28.93-20.7-47.04-32.28-.69,9.02-1.14,13.7-2.21,23.33Z"/>
                  <path class="cls-1" d="M387.27,187.94c16.2,32.12,33.27,63.76,50.48,95.35,5.27-20.16,7.47-29.73,10.61-47.38-1.45-7.74-2.21-11.56-3.82-19.07-18.74-11.22-37.47-22.43-56.83-32.57-.17,1.46-.26,2.2-.45,3.67Z"/>
                  <path class="cls-1" d="M464.82,306c9.64-.12,14.39-.12,23.7.03,1.89-4.75,2.79-7.07,4.49-11.59-12.94-13.83-19.5-21.02-32.39-35.49-3.82,16.53-6.29,25.45-12.01,44.17,1.74,3.17,2.61,4.76,4.34,7.92,4.81-2.09,7.19-3.09,11.87-5.03Z"/>
                  <path class="cls-1" d="M457.04,318.51c5.94,10.86,8.89,16.25,14.62,26.89,6.08-13.46,8.9-19.93,13.93-32.16-7.12.22-10.73.36-18.04.73-4.15,1.76-6.26,2.67-10.51,4.54Z"/>
                  <path class="cls-1" d="M423.2,377.71c-10.35,26.76-21.19,53.27-32.65,79.58,4.83,8.71,7.17,12.96,11.59,21.15,13.28-23.26,26.42-46.61,38.97-70.27-3.76-1.43-5.66-2.16-9.47-3.65-3.2-10.48-4.9-15.86-8.44-26.82Z"/>
                  <path class="cls-1" d="M263.86,515.31c11.35,2.49,17.16,3.52,28.91,5.1,15.18-8.8,23.6-14.18,41.25-26-5.47-19.41-8.38-29.53-14.12-50.27-16.75,13.75-24.89,20.24-39.81,31.59-8.02-5.77-12.05-8.69-20.12-14.53,2.14,9.68,3.27,14.45,5.61,23.84-1.13,12.67-1.49,18.74-1.72,30.28Z"/>
                  <path class="cls-1" d="M306.51,318.45c-2.71-1.68-4.06-2.52-6.74-4.17.65,3.22.98,4.83,1.65,8.08,2.04-1.56,3.06-2.35,5.1-3.91Z"/>
                  <path class="cls-1" d="M259.61,184.15c4.47.38,8.91,1.04,12.96,1.8-.07-5.4-.06-8.04.07-13.16-5.14,4.49-7.75,6.77-13.03,11.36Z"/>
                  <path class="cls-1" d="M265.72,434.51c17.27-9.07,26.38-14.22,44.82-25.05-2.64-10.06-3.94-15.14-6.46-25.38-12.63,16.92-25.46,33.71-38.36,50.43Z"/>
                  <path class="cls-1" d="M264.47,542.55c7.29,3.44,10.95,5.06,18.31,8.08-7.37-6.44-11.14-9.74-18.77-16.43.13,3.4.22,5.07.46,8.35Z"/>
                  <path class="cls-1" d="M473.64,505.7c-3.91-1.07-5.96-1.71-10.24-3.19-2.6.8-3.91,1.19-6.53,1.95,1.96,4.58,2.84,6.76,4.38,10.87,4.94-3.84,7.42-5.77,12.39-9.64Z"/>
                  <path class="cls-1" d="M287.02,306.51c-10.73-6.47-15.97-9.56-26.08-15.29-7.75,5.89-11.64,8.82-19.4,14.61.24,19.69,1.34,39.57,3.17,59.18,15.74-11.65,31.46-23.36,47.02-35.25-1.99-9.42-2.93-14.07-4.71-23.25Z"/>
                  <path class="cls-1" d="M317.4,188.98c-13.05,7.85-19.83,12.13-33.61,20.94,1.47,16.68,2.55,25.49,5.26,43.8,18.34-14.51,27.33-21.74,44.19-35.04-6.85-12.43-10.05-18.42-15.85-29.7Z"/>
                  <path class="cls-1" d="M323.55,305.33c14.55-11.23,21.68-16.82,35.64-27.4,5.35-21.5,7.86-32,12.27-52.09-6.32-18.93-12.37-38.01-17.97-57.16-10.78,5.43-16.18,8.55-27.62,15.26,7.53,15.37,11.8,23.64,21.03,40.84-18.58,14.34-37.1,28.75-55.63,43.15.89,5.46,1.36,8.21,2.34,13.78,11.55,8.96,17.58,13.75,29.94,23.62Z"/>
                  <path class="cls-1" d="M351.45,161.69c-5.64-19.65-7.95-28.98-11.73-46.11-11.93,9.47-18.53,15.09-32.52,27.14,4.61,11.37,7.43,17.7,13.86,31.26,12.51-5.68,18.41-8.21,30.39-12.29Z"/>
                  <path class="cls-1" d="M311.96,178.23c-6.1-12.27-8.77-17.98-13.2-28.22-6.61,5.74-10.01,8.71-16.95,14.76-.09,8.92.01,13.59.47,23.31,4.08,1.01,6.64,1.77,6.64,1.77,9.33-4.93,13.95-7.28,23.03-11.62Z"/>
                  <path class="cls-1" d="M347.68,324.66c11.21,9,17.05,13.6,28.57,22.74,12.83-6.41,19.17-9.56,31.59-15.56-9.86-28.49-19.76-56.96-29.51-85.48-3.37,19.04-5.28,28.9-9.34,49.06-8.29,11.46-12.64,17.35-21.31,29.24Z"/>
                  <path class="cls-1" d="M354.98,538.61c22.78,3.9,33.86,4.82,54.56,4.26,1.45,3.93,2.12,5.84,3.36,9.54,11.89-8.91,18.01-13.61,30.41-23.18-1.14-7.59-1.93-11.63-3.89-20.16-13.67,3.29-20.67,4.66-34.83,6.77-3.96-7.77-6.11-11.84-10.65-20.29-18.02,9.82-26.95,14.49-44.08,22.61,2.14,8.36,3.17,12.46,5.11,20.45Z"/>
                  <path class="cls-2" d="M359.18,277.93c-13.95,10.58-21.08,16.16-35.64,27.4,9.47,7.56,14.32,11.45,24.13,19.33,8.66-11.9,13.02-17.79,21.31-29.24,4.06-20.15,5.98-30.02,9.34-49.06-2.81-8.29-4.19-12.4-6.87-20.52-4.41,20.09-6.92,30.58-12.27,52.09Z"/>
                  <path class="cls-2" d="M319.91,444.13c-3.77-13.64-5.67-20.59-9.36-34.68-18.44,10.83-27.55,15.99-44.82,25.05,12.9-16.72,25.73-33.51,38.36-50.43-5.37-21.79-7.89-33.11-12.36-54.32-15.56,11.89-31.27,23.6-47.02,35.25,3.09,32.31,8.12,64.5,15.27,96.18,8.07,5.84,12.1,8.77,20.12,14.53,14.92-11.35,23.06-17.84,39.81-31.59Z"/>
                  <path class="cls-2" d="M301.41,322.36c4.06,19.68,6.32,29.98,11.07,50.41,10.15-13.75,15.29-20.9,25.35-34.64-12.74-8.07-19.04-12.06-31.33-19.68-2.04,1.56-3.06,2.35-5.1,3.91Z"/>
                  <path class="cls-2" d="M320.01,403.85c3.37,13.47,5.1,20.11,8.51,33.17,8.8-7.31,13.24-11.1,22.29-18.78,10.69,19,16,28.27,25.8,45.8,1.92-4.89,2.89-7.35,4.82-12.3-10.42-22.09-21-44.1-31.39-66.2-12.02,7.47-18.09,11.18-30.03,18.31Z"/>
                  <path class="cls-2" d="M404.6,515.85c14.16-2.11,21.15-3.48,34.83-6.77-1.14-4.95-1.77-7.5-3.16-12.74-12.1,4.12-18.2,6.05-30.43,9.54-2.23-5.32-3.41-8.05-5.86-13.63-2.41,1.33-3.62,1.99-6.02,3.3,4.54,8.45,6.69,12.52,10.65,20.29Z"/>
                  <path class="cls-2" d="M387.71,184.27c-1.24-.65-1.85-.97-3.09-1.61,1.05,2.1,1.57,3.16,2.64,5.28.18-1.48.27-2.21.45-3.67Z"/>
                  <path class="cls-2" d="M390.59,155.17c18.12,11.58,27.66,18.3,47.04,32.28-2.41-9.37-3.68-13.93-6.31-22.8-14.42-13.02-28.93-25.98-43.7-38.61-1.37,17.81-2.66,27.66-6.17,48.69,2.75,1.48,4.14,2.24,6.92,3.78,1.08-9.63,1.53-14.31,2.21-23.33Z"/>
                  <path class="cls-2" d="M456.87,504.46c2.63-.76,3.93-1.15,6.53-1.95,4.27,1.48,6.32,2.12,10.24,3.19,6.14-4.78,9.22-7.17,15.37-11.96-9.7-1.6-15.11-3.02-26.74-6.83-3.75,1.44-5.63,2.15-9.4,3.54-.33,1.31-.49,1.96-.82,3.26,2.09,4.48,3.05,6.63,4.82,10.75Z"/>
                  <path class="cls-2" d="M499.07,508.64c3.34-5.31,4.93-8.05,7.94-13.68-4.21.23-6.5.16-11.38-.33-6.39,5.02-9.6,7.54-15.98,12.55,9.02,1.96,12.97,2.3,19.43,1.47Z"/>
                  <path class="cls-2" d="M167.55,415.74c1.82,12.31,3.09,18.3,6.27,29.87,4.45-.81,6.75-1.29,11.49-2.42-.25-14.73.23-22.62,2.31-39.24-8.43,5.21-12.47,7.59-20.07,11.79Z"/>
                  <path class="cls-2" d="M503.29,236.07c-2.19-5.01-3.33-7.47-5.67-12.32-13.86-12.08-20.78-18.24-34.31-30.34,3.68,7.7,5.49,11.62,9.05,19.55,12.35,9.19,18.57,13.87,30.93,23.11Z"/>
                  <path class="cls-2" d="M220.49,432.59c10.79,7.79,16.25,11.76,27.18,19.68-7.87-24.67-14.67-49.7-19.88-75.07-8.34,5.89-12.43,8.7-20.37,14-2.26,19.57-2.83,28.95-2.78,46.66,6.17-1.91,9.35-2.97,15.85-5.27Z"/>
                  <path class="cls-12" d="M469.78,176.41c-1.37-1.9-2.07-2.83-3.46-4.68-13.06-12.9-21.12-17.1-39.39-21.22,1.8,5.54,2.68,8.38,4.4,14.15,12.46,11.21,18.91,17.05,31.99,28.75-4.98-10.41-7.52-15.51-12.66-25.42,8.82,1.67,12.69,3.31,19.12,8.43Z"/>
                  <path class="cls-12" d="M342.23,488.85c3.18,12.03,4.72,17.91,7.63,29.31,17.13-8.12,26.06-12.79,44.08-22.61-6.45-12.01-9.97-18.36-17.33-31.51-.15.39-.23.58-.38.97-13.88,9.97-20.78,14.82-34,23.83Z"/>
                  <path class="cls-12" d="M248.69,511.61c2.89,2.42,4.33,3.62,7.2,6.03.02-1.65.03-2.48.07-4.17-2.93-.71-4.38-1.09-7.27-1.86Z"/>
                  <path class="cls-12" d="M443.39,211.55c15.63,9.92,23.55,15.11,39.3,25.43-4.01-9.75-6.09-14.56-10.33-24.03-14.01-10.43-21.01-15.61-34.73-25.5,2.42,9.41,3.58,14.24,5.75,24.1Z"/>
                  <path class="cls-12" d="M190.87,489.95c1.1,2.18,1.66,3.25,2.81,5.38,16.94,9.85,35.8,18.46,54.32,24.88-6.08-5.3-9.15-7.97-15.31-13.31-17.6-5.68-26.05-9.1-41.82-16.95Z"/>
                  <path class="cls-12" d="M402.14,478.44c-4.43-8.19-6.76-12.43-11.59-21.15,11.46-26.31,22.3-52.82,32.65-79.58-2.76-8.55-4.19-12.9-7.11-21.7-10.22,32.36-22.31,64.14-34.65,95.74,8,17.02,11.8,25.19,18.53,40.51,1.01-.55,1.51-.83,2.52-1.39,15.82-26.42,31.47-52.91,46.7-79.68-3.21-1.18-4.83-1.79-8.08-3.02-12.55,23.66-25.69,47.01-38.97,70.27Z"/>
                  <path class="cls-12" d="M292.78,520.41c-11.76-1.58-17.56-2.6-28.91-5.1-.07,3.64-.09,5.43-.07,8.95.88.73,1.31,1.1,2.19,1.83,16.53,4.91,25.04,6.89,42.22,9.69,12.74-4.59,19.5-7.42,33.53-13.82-2.97-10.74-4.52-16.26-7.7-27.55-17.65,11.83-26.07,17.21-41.25,26Z"/>
                  <path class="cls-12" d="M471.67,345.4c2.4,4.46,3.59,6.58,5.94,11.09,8.94-19.03,13.06-27.39,19.95-43.53-4.74.08-7.13.13-11.97.28-5.03,12.23-7.85,18.7-13.93,32.16Z"/>
                  <path class="cls-12" d="M448.36,235.91c-3.14,17.65-5.34,27.22-10.61,47.38,4.34,7.94,6.52,11.91,10.86,19.82,5.72-18.72,8.19-27.64,12.01-44.17,12.89,14.47,19.45,21.66,32.39,35.49-1.7,4.52-2.6,6.84-4.49,11.59,4.79.07,7.16.13,11.85.27,1.69-4.09,2.5-6.09,4.02-9.98-7.05-22.21-11.11-33.22-19.74-54.56-16.04-10.11-24.13-15.2-40.11-24.92,1.6,7.51,2.37,11.33,3.82,19.07Z"/>
                  <path class="cls-3" d="M376.61,464.04c7.36,13.16,10.88,19.5,17.33,31.51,2.4-1.31,3.61-1.97,6.02-3.3-6.73-15.32-10.53-23.5-18.53-40.51-1.94,4.96-2.9,7.42-4.82,12.3Z"/>
                  <path class="cls-11" d="M437.64,187.45c13.72,9.89,20.71,15.08,34.73,25.5-3.56-7.93-5.37-11.85-9.05-19.55-13.08-11.7-19.53-17.54-31.99-28.75,2.63,8.86,3.9,13.43,6.31,22.8Z"/>
                  <path class="cls-4" d="M291.26,267.93c-3.09,2.4-4.65,3.6-7.77,6.01,3.98,3.04,6,4.59,10.1,7.78-.98-5.57-1.45-8.33-2.34-13.78Z"/>
                  <path class="cls-4" d="M285.58,121.8c-3,1.98-4.49,3.03-7.45,5.21-2.6,10.37-3.52,16.21-4.6,28.99,3.59-3.27,5.37-4.89,8.89-8.08.72-11.32,1.35-16.57,3.17-26.12Z"/>
                  <path class="cls-4" d="M354.98,538.61c-1.95-7.99-2.97-12.08-5.11-20.45-3.28,1.56-4.91,2.31-8.14,3.79,2.6,9.43,3.86,14.04,6.24,22.99,20.67,3.72,30.8,4.67,49.91,4.56,1.58,4.69,2.3,6.97,3.63,11.37,4.51-3.31,6.79-5.01,11.4-8.46-1.24-3.69-1.91-5.6-3.36-9.54-20.71.56-31.78-.36-54.56-4.26Z"/>
                  <path class="cls-4" d="M272.63,172.79c-.13,5.12-.14,7.76-.07,13.16,3.69.69,7.03,1.46,9.72,2.12-.46-9.71-.56-14.39-.47-23.31-3.63,3.17-5.47,4.78-9.18,8.02Z"/>
                  <path class="cls-4" d="M334.03,494.4c3.25-2.18,4.89-3.29,8.21-5.55-5.28-19.99-8.11-30.42-13.71-51.84-3.47,2.88-5.19,4.31-8.61,7.12,5.74,20.74,8.64,30.86,14.12,50.27Z"/>
                  <path class="cls-4" d="M407.82,586.61c5.05-2,7.55-3.11,12.47-5.53-1.2-8.18-2.39-12.94-5.71-23.51-4.66,3.5-6.97,5.22-11.53,8.57,2.51,8.89,3.48,13.01,4.77,20.47Z"/>
                  <path class="cls-4" d="M283.79,209.91c-1.36.87-2.03,1.3-3.4,2.17-2.82-1.48-4.2-2.19-6.92-3.54,1.29,19.81,2.5,30.49,5.8,52.88,3.93-3.09,5.89-4.64,9.78-7.71-2.71-18.31-3.79-27.13-5.26-43.8Z"/>
                  <path class="cls-4" d="M299.76,314.28c-5.15-3.17-7.71-4.73-12.75-7.77,1.77,9.17,2.72,13.83,4.71,23.25,3.88-2.96,5.82-4.44,9.69-7.4-.67-3.24-1-4.86-1.65-8.08Z"/>
                  <path class="cls-4" d="M310.54,409.46c3.77-2.22,5.67-3.34,9.47-5.61-3.08-12.29-4.6-18.52-7.53-31.08-3.37,4.57-5.05,6.83-8.4,11.31,2.52,10.24,3.82,15.32,6.46,25.38Z"/>
                  <path class="cls-4" d="M319.91,444.13c3.42-2.81,5.15-4.23,8.61-7.12-3.42-13.05-5.14-19.7-8.51-33.17-3.8,2.27-5.69,3.39-9.47,5.61,3.69,14.08,5.59,21.04,9.36,34.68Z"/>
                  <path class="cls-4" d="M291.72,329.76c4.47,21.21,7,32.53,12.36,54.32,3.35-4.48,5.03-6.75,8.4-11.31-4.76-20.43-7.01-30.73-11.07-50.41-3.87,2.96-5.81,4.45-9.69,7.4Z"/>
                  <path class="cls-4" d="M341.73,521.95c3.23-1.47,4.85-2.23,8.14-3.79-2.91-11.4-4.46-17.28-7.63-29.31-3.31,2.26-4.96,3.37-8.21,5.55,3.18,11.29,4.74,16.81,7.7,27.55Z"/>
                  <path class="cls-11" d="M264.01,534.2c-3.2-2.8-4.81-4.21-8.04-7.03.12,4.75.24,7.06.59,11.54,3.15,1.57,4.74,2.34,7.91,3.84-.23-3.27-.32-4.94-.46-8.35Z"/>
                  <path class="cls-11" d="M262.38,571.1c2.87,1.85,4.32,2.74,7.25,4.44-2.58-9.77-3.5-15.17-4.65-26.86-3.16-1.57-4.74-2.38-7.88-4.04,1.26,11.65,2.3,16.98,5.27,26.46Z"/>
                  <path class="cls-11" d="M255.96,513.48c3.14.77,4.72,1.13,7.9,1.83.24-11.53.59-17.61,1.72-30.28-2.34-9.38-3.47-14.16-5.61-23.84-4.93-3.57-7.39-5.36-12.31-8.93,3.96,12.46,6.05,18.61,10.31,30.69-1.32,12.83-1.74,18.96-2.01,30.52Z"/>
                  <path class="cls-11" d="M279.27,261.43c-2.41,1.9-3.62,2.85-6.04,4.75,3.02,2.26,4.55,3.41,7.66,5.77-.68-4.25-1-6.35-1.62-10.52Z"/>
                  <path class="cls-11" d="M297.37,114.71c-3.81,2.06-5.71,3.18-9.47,5.58,1.58,5.94,2.76,9.46,5.82,17.39,3.49-3.14,5.2-4.69,8.59-7.71-2.42-6.7-3.42-9.77-4.93-15.27Z"/>
                  <path class="cls-11" d="M325.86,183.94c-3.35,1.97-5.05,2.98-8.47,5.03,5.8,11.28,9,17.27,15.85,29.7-16.86,13.3-25.85,20.54-44.19,35.04.83,5.62,1.28,8.46,2.21,14.21,18.53-14.4,37.06-28.81,55.63-43.15-9.23-17.19-13.51-25.47-21.03-40.84Z"/>
                  <path class="cls-11" d="M321.06,173.98c-6.43-13.56-9.25-19.89-13.86-31.26-3.32,2.86-5.01,4.32-8.43,7.29,4.42,10.24,7.1,15.95,13.2,28.22,3.66-1.75,5.48-2.6,9.1-4.25Z"/>
                  <path class="cls-11" d="M241.54,305.83c7.76-5.79,11.65-8.72,19.4-14.61-4.73-2.68-7.05-3.97-11.63-6.46-12.61,9.7-18.96,14.52-31.53,23.83,1.97,23.12,5.89,45.8,10,68.61,6.67-4.71,10.07-7.16,16.92-12.19-1.83-19.61-2.92-39.49-3.17-59.18Z"/>
                  <path class="cls-3" d="M259.98,461.19c-7.15-31.68-12.18-63.87-15.27-96.18-6.85,5.03-10.25,7.48-16.92,12.19,5.2,25.37,12,50.4,19.88,75.07,4.92,3.57,7.39,5.36,12.31,8.93Z"/>
                  <path class="cls-11" d="M263.86,515.31c-3.18-.7-4.76-1.06-7.9-1.83-.04,1.68-.05,2.51-.07,4.17,3.17,2.66,4.75,3.98,7.9,6.61-.02-3.52,0-5.31.07-8.95Z"/>
                  <path class="cls-4" d="M283.5,273.93c3.12-2.41,4.67-3.61,7.77-6.01-.94-5.75-1.38-8.59-2.21-14.21-3.89,3.08-5.85,4.62-9.78,7.71.61,4.17.94,6.27,1.62,10.52,1.04.79,1.56,1.19,2.61,1.98Z"/>
                  <path class="cls-9" d="M485.12,423.34c9.95-22.55,18.72-45.65,25.36-69.39,8.25,19.94,16.53,39.76,22.19,60.63.66-4.92.94-7.41,1.36-12.44-6.1-20.94-14.56-40.86-23.11-60.89-8.91,12.18-13.74,19.04-24.18,32.96-3.52-6.91-5.35-10.46-9.14-17.71-8.68,18.56-18.34,36.86-28.42,54.69,14.86,5.47,22.1,7.95,35.94,12.15Z"/>
                  <path class="cls-9" d="M380.47,180.52c-10.67-5.42-15.91-7.93-26.1-12.29-.35.18-.53.27-.88.44,5.6,19.16,11.65,38.23,17.97,57.16,4.15-18.92,5.99-28.04,9.01-45.32Z"/>
                  <path class="cls-9" d="M298.77,150c-2.26-5.22-3.27-7.7-5.05-12.31-4.44,4-6.7,6.06-11.3,10.23-.41,6.47-.53,9.85-.6,16.85,6.94-6.06,10.34-9.03,16.95-14.76Z"/>
                  <path class="cls-9" d="M339.73,115.58c3.78,17.13,6.09,26.46,11.73,46.11.89-.3,1.33-.45,2.21-.74,10.41,4.66,15.79,7.36,26.78,13.24-11.68-24.36-23.2-48.74-32.87-73.98-4.78.13-7.18.36-11.99,1.11-12.13,9.86-18.89,15.81-33.28,28.67,1.74,4.81,2.72,7.36,4.9,12.73,14-12.05,20.59-17.66,32.52-27.14Z"/>
                  <path class="cls-9" d="M217.46,206.74c3.72-5.24,5.57-7.85,9.26-13.08-2.83-.05-4.17.05-6.66.48-3.4,4.21-5.1,6.31-8.53,10.5-7.74,13.42-11.33,20.57-17.74,35.51,17.18-14.3,34.29-28.65,51.17-43.3-5.72-1.7-8.38-2.28-13.29-2.86-5.65,5.08-8.5,7.64-14.22,12.74Z"/>
                  <path class="cls-9" d="M441.47,325.53c-6.6,20-10.26,30.81-18.27,52.18,3.54,10.96,5.24,16.33,8.44,26.82,3.81,1.49,5.71,2.22,9.47,3.65,10.71-20.77,20.83-41.52,30.56-62.77-5.74-10.64-8.68-16.03-14.62-26.89-6.13,2.7-9.25,4.11-15.57,7.02Z"/>
                  <path class="cls-9" d="M410.7,340.16c2.17,6.33,3.25,9.38,5.39,15.85,2.86-9.02,4.26-13.21,6.94-21.81-4.89,2.34-7.36,3.54-12.34,5.96Z"/>
                  <path class="cls-9" d="M452.95,311.03c-1.73-3.16-2.6-4.75-4.34-7.92-1.37,4.5-2.09,6.78-3.56,11.38,3.18-1.42,4.76-2.11,7.9-3.47Z"/>
                  <path class="cls-9" d="M272.63,172.79c.17-6.99.35-10.35.9-16.79-12.01,10.93-18.25,16.65-30.96,28.16,5.27-.53,11.16-.52,17.03-.01,5.27-4.59,7.88-6.87,13.03-11.36Z"/>
                  <path class="cls-9" d="M266.65,136.22c-2.24,1.94-3.35,2.93-5.56,4.99-11.86,16.09-24.13,31.95-36.66,47.52,2-.88,4.59-1.86,7.68-2.69,11.66-16.5,23.21-33.1,34.54-49.82Z"/>
                  <path class="cls-9" d="M378.33,246.36c9.75,28.52,19.65,56.99,29.51,85.48,7.55-3.65,11.29-5.43,18.64-8.87,4.98-16.42,7.27-24.4,11.26-39.68-17.21-31.59-34.28-63.23-50.48-95.35-2.39,19.52-5.44,39.06-8.94,58.42Z"/>
                  <path class="cls-9" d="M378.33,246.36c3.49-19.35,6.55-38.89,8.94-58.42-1.06-2.12-1.59-3.18-2.64-5.28-1.67-.86-2.5-1.29-4.16-2.13-3.02,17.28-4.86,26.4-9.01,45.32,2.69,8.12,4.07,12.22,6.87,20.52Z"/>
                  <path class="cls-9" d="M445.05,314.5c1.47-4.61,2.18-6.89,3.56-11.38-4.34-7.91-6.52-11.88-10.86-19.82-4,15.28-6.29,23.26-11.26,39.68,7.55-3.53,11.27-5.23,18.57-8.48Z"/>
                  <path class="cls-11" d="M441.11,408.17c3.25,1.23,4.86,1.84,8.08,3.02,10.08-17.84,19.74-36.14,28.42-54.69-2.36-4.51-3.54-6.63-5.94-11.09-9.73,21.25-19.84,41.99-30.56,62.77Z"/>
                  <path class="cls-9" d="M423.03,334.19c-2.68,8.6-4.08,12.79-6.94,21.81,2.92,8.81,4.35,13.15,7.11,21.7,8.01-21.37,11.67-32.17,18.27-52.18-7.26,3.34-10.96,5.08-18.44,8.66Z"/>
                  <path class="cls-9" d="M281.82,164.77c.07-7,.19-10.38.6-16.85-3.51,3.19-5.29,4.81-8.89,8.08-.55,6.43-.73,9.8-.9,16.79,3.71-3.24,5.55-4.85,9.18-8.02Z"/>
                  <path class="cls-11" d="M307.2,142.72c-2.18-5.37-3.16-7.93-4.9-12.73-3.38,3.02-5.1,4.57-8.59,7.71,1.78,4.62,2.8,7.09,5.05,12.31,3.42-2.97,5.11-4.43,8.43-7.29Z"/>
                  <path class="cls-12" d="M381.46,174.73c-.4-.22-.61-.33-1.01-.54.33.67.49,1,.82,1.67.08-.45.11-.68.19-1.13Z"/>
                  <path class="cls-12" d="M325.86,183.94c11.44-6.71,16.83-9.83,27.62-15.26-.83-2.82-1.23-4.21-2.03-6.99-11.98,4.08-17.88,6.6-30.39,12.29,1.85,3.91,2.81,5.9,4.8,9.96Z"/>
                  <path class="cls-12" d="M231.68,194c4.39-3.95,6.57-5.92,10.9-9.84-3.87.39-7.41,1.06-10.47,1.88-2.15,3.04-3.22,4.57-5.38,7.62,1.9.03,2.9.1,4.95.34Z"/>
                  <path class="cls-12" d="M259.61,184.15c-5.79,5.04-8.72,7.59-14.64,12.71,10.22,3.04,15.99,5.47,28.51,11.69-.61-9.37-.79-13.9-.91-22.6-4.04-.76-8.49-1.41-12.96-1.8Z"/>
                  <path class="cls-12" d="M219.76,191.18c-.91,1.4-1.36,2.11-2.25,3.54.99-.27,1.51-.39,2.56-.57,1.75-2.17,2.62-3.25,4.35-5.42-2.69,1.19-4.34,2.18-4.67,2.45Z"/>
                  <path class="cls-12" d="M387.71,184.27c19.36,10.15,38.08,21.35,56.83,32.57-.45-2.13-.68-3.18-1.15-5.29-17.97-11.52-36.33-22.72-55.01-33.04-.26,2.29-.39,3.44-.67,5.76Z"/>
                  <path class="cls-12" d="M311.96,178.23c-9.08,4.34-13.7,6.69-23.03,11.62,0,0-2.56-.76-6.64-1.77.4,8.46.7,12.83,1.5,21.84,13.78-8.81,20.56-13.08,33.61-20.94-2.26-4.4-3.35-6.55-5.44-10.75Z"/>
                  <path class="cls-12" d="M512.59,259.43c-.53-1.49-.8-2.23-1.35-3.7-11.35-7.46-17.08-11.24-28.54-18.75.79,1.91,1.18,2.86,1.95,4.78,11.23,7.08,16.84,10.65,27.94,17.67Z"/>
                  <path class="cls-12" d="M384.63,182.66c1.23.64,1.85.96,3.09,1.61.28-2.32.41-3.47.67-5.76-2.78-1.54-4.17-2.3-6.92-3.78-.08.45-.11.68-.19,1.13,1.33,2.7,2,4.06,3.36,6.8Z"/>
                  <path class="cls-2" d="M444.54,216.84c15.98,9.72,24.06,14.81,40.11,24.92-.78-1.92-1.17-2.87-1.95-4.78-15.75-10.32-23.68-15.51-39.3-25.43.47,2.11.69,3.16,1.15,5.29Z"/>
                  <path class="cls-2" d="M283.79,209.91c-.79-9.01-1.1-13.38-1.5-21.84-2.69-.67-6.04-1.43-9.72-2.12.11,8.7.3,13.23.91,22.6,2.72,1.35,4.1,2.06,6.92,3.54,1.36-.87,2.04-1.31,3.4-2.17Z"/>
                  <path class="cls-12" d="M311.96,178.23c2.08,4.2,3.17,6.35,5.44,10.75,3.42-2.06,5.11-3.06,8.47-5.03-1.99-4.06-2.95-6.06-4.8-9.96-3.61,1.64-5.43,2.49-9.1,4.25Z"/>
                  <path class="cls-9" d="M351.45,161.69c.8,2.77,1.2,4.17,2.03,6.99.35-.18.53-.27.88-.44,10.18,4.36,15.42,6.86,26.1,12.29.33-1.88.49-2.81.8-4.66-.33-.67-.49-1.01-.82-1.67-10.99-5.87-16.37-8.58-26.78-13.24-.88.29-1.32.44-2.21.74Z"/>
                  <path class="cls-4" d="M232.11,186.04c-3.09.83-5.68,1.8-7.68,2.69-1.74,2.17-2.61,3.25-4.35,5.42,2.49-.43,3.82-.52,6.66-.48,2.16-3.05,3.24-4.58,5.38-7.62Z"/>
                  <path class="cls-12" d="M242.57,184.16c-4.33,3.92-6.51,5.89-10.9,9.84,4.9.57,7.57,1.16,13.29,2.86,5.92-5.12,8.85-7.67,14.64-12.71-5.87-.51-11.77-.52-17.03.01Z"/>
                  <path class="cls-9" d="M381.27,175.86c-.31,1.85-.47,2.79-.8,4.66,1.66.84,2.49,1.27,4.16,2.13-1.36-2.73-2.03-4.09-3.36-6.8Z"/>
                  <path class="cls-3" d="M463.89,435.14c19.17,8.81,38.23,17.88,58.81,23.03,1.36-4.13,2-6.23,3.18-10.47-23.5-6.54-46.01-16.48-67.77-27.36-6.14,25.52-13.59,50.72-21.96,75.61.04.16.06.24.1.39,6.68-2.27,10-3.46,16.61-5.89,5.28-21.21,7.57-32.33,11.03-55.31Z"/>
                  <path class="cls-3" d="M443.52,567.4c9.44-6.54,13.98-10.22,22.55-18.3,3.3-6.69,2.39-12.77-3.07-28.86-7.62,5.97-11.41,8.93-18.91,14.75,1.82,15.28,1.8,21.88-.57,32.4Z"/>
                  <path class="cls-3" d="M461.25,515.33c-1.54-4.12-2.42-6.29-4.38-10.87-6.89,1.99-10.39,2.92-17.44,4.61,1.96,8.52,2.75,12.57,3.89,20.16,7.12-5.49,10.71-8.28,17.94-13.9Z"/>
                  <path class="cls-3" d="M456.87,504.46c-1.77-4.12-2.73-6.28-4.82-10.75.33-1.3.5-1.95.82-3.26-6.61,2.44-9.93,3.62-16.61,5.89,1.39,5.24,2.03,7.79,3.16,12.74,7.06-1.7,10.55-2.62,17.44-4.61Z"/>
                  <path class="cls-6" d="M248,520.21c3.2,2.79,4.8,4.19,7.97,6.96-.04-1.68-.06-2.53-.08-4.25-3.18-1.05-4.75-1.59-7.89-2.71Z"/>
                  <path class="cls-6" d="M337.73,597.38c7.24.59,10.93.67,18.18.39-13.26-9.29-20.82-15.08-36.67-27.76-9.17-2.59-13.77-4.13-22.92-7.58,17.82,15.47,26.26,22.77,41.41,34.95Z"/>
                  <path class="cls-6" d="M263.8,525.43c.03,3.57.07,5.33.21,8.77,7.64,6.68,11.4,9.99,18.77,16.43,9.15,3.75,13.76,5.46,22.97,8.46-15.23-12.44-23.29-19.22-39.77-33.01-.87-.26-1.31-.39-2.18-.65Z"/>
                  <path class="cls-6" d="M215.92,339.97c-19.66-7.73-29.06-11.16-46.46-16.49-.59,3.54-.86,5.33-1.37,8.9,12.3,3.37,18.75,5.35,32.06,9.71-5.62,20.04-10.05,41.18-12.53,61.85,7.64-4.72,11.62-7.29,19.8-12.75,2.29-19.85,4.17-30.66,8.51-51.23Z"/>
                  <path class="cls-6" d="M207.39,477.33c-2.16-14.82-2.71-22.75-2.76-39.47-8.04,2.49-11.92,3.57-19.33,5.33.18,10.51.57,15.52,1.97,24.96,15.26,12.77,30.39,25.71,45.41,38.75,6.3,2.03,9.51,2.98,16,4.72-16.32-13.65-24.69-20.64-41.3-34.28Z"/>
                  <path class="cls-2" d="M207.42,391.2c-8.18,5.46-12.16,8.02-19.8,12.75-2.07,16.62-2.55,24.51-2.31,39.24,7.4-1.76,11.29-2.84,19.33-5.33-.05-17.71.52-27.08,2.78-46.66Z"/>
                  <path class="cls-12" d="M255.9,517.64c-2.87-2.4-4.31-3.61-7.2-6.03-6.49-1.74-9.7-2.68-16-4.72,6.17,5.34,9.24,8.01,15.31,13.31,3.14,1.12,4.72,1.66,7.89,2.71-.02-2.09-.02-3.14,0-5.28Z"/>
                  <path class="cls-6" d="M263.8,524.25c0,.47,0,.71,0,1.17.87.26,1.3.4,2.18.65-.87-.73-1.31-1.1-2.19-1.83Z"/>
                  <path class="cls-11" d="M255.9,517.64c-.02,2.14-.02,3.19,0,5.28.02,1.72.03,2.57.08,4.25,3.23,2.83,4.84,4.24,8.04,7.03-.13-3.44-.18-5.2-.21-8.77,0-.47,0-.7,0-1.17-3.14-2.63-4.72-3.95-7.9-6.61Z"/>
                  <path class="cls-3" d="M198.74,504.22c1.43,2.39,2.16,3.57,3.66,5.89,17.03,12.79,35.8,24.71,54.72,34.53-.25-2.33-.36-3.52-.55-5.94-20.15-10.75-38.78-21.89-57.82-34.49Z"/>
                  <path class="cls-3" d="M264.47,542.55c.18,2.49.28,3.72.52,6.14,12.42,6.18,18.71,8.97,31.33,13.73-5.32-4.62-8.03-6.99-13.53-11.79-7.36-3.01-11.03-4.64-18.31-8.08Z"/>
                  <path class="cls-11" d="M461.25,515.33c.75,2.02,1.1,3,1.75,4.91,6.63-5.19,9.97-7.82,16.65-13.06-2.33-.5-3.53-.8-6.01-1.48-4.97,3.87-7.45,5.8-12.39,9.64Z"/>
                  <path class="cls-11" d="M514.3,480c1.51-3.41,2.24-5.14,3.63-8.64-11.51,8.85-17.33,13.37-28.92,22.38,2.73.45,4.06.63,6.61.89,7.48-5.87,11.23-8.81,18.68-14.63Z"/>
                  <path class="cls-11" d="M412.9,552.41c.71,2.11,1.04,3.14,1.68,5.16,11.54-8.67,17.48-13.24,29.51-22.58-.27-2.26-.42-3.41-.78-5.76-12.4,9.57-18.52,14.27-30.41,23.18Z"/>
                  <path class="cls-11" d="M386.37,571.81c-27.38.75-54.68-4.14-80.62-12.72,5.5,4.49,8.2,6.69,13.48,10.91,22.33,5.13,43.8,9.78,66.93,8.29,6.61-4.64,9.99-7.09,16.88-12.15-.58-2.07-.89-3.13-1.54-5.27-6.16,4.53-9.2,6.73-15.14,10.94Z"/>
                  <path class="cls-2" d="M479.64,507.18c6.38-5.01,9.58-7.53,15.98-12.55-2.56-.26-3.88-.44-6.61-.89-6.16,4.78-9.24,7.18-15.37,11.96,2.48.68,3.68.97,6.01,1.48Z"/>
                  <path class="cls-4" d="M401.51,560.87c.65,2.15.96,3.2,1.54,5.27,4.56-3.35,6.87-5.07,11.53-8.57-.63-2.02-.97-3.06-1.68-5.16-4.61,3.45-6.89,5.15-11.4,8.46Z"/>
                  <path class="cls-3" d="M256.56,538.71c.19,2.42.3,3.6.55,5.94,3.14,1.66,4.72,2.47,7.88,4.04-.24-2.42-.34-3.64-.52-6.14-3.17-1.5-4.76-2.27-7.91-3.84Z"/>
                  <path class="cls-11" d="M443.31,529.23c.35,2.35.51,3.5.78,5.76,7.5-5.82,11.29-8.78,18.91-14.75-.65-1.9-1-2.89-1.75-4.91-7.22,5.61-10.82,8.4-17.94,13.9Z"/>
                  <path class="cls-9" d="M282.79,550.63c5.5,4.81,8.21,7.17,13.53,11.79,9.15,3.45,13.74,4.99,22.92,7.58-5.28-4.22-7.98-6.42-13.48-10.91-9.21-3.01-13.81-4.72-22.97-8.46Z"/>
                  <path class="cls-3" d="M347.68,324.66c-3.9,5.36-5.88,8.06-9.84,13.47,13.36,8.46,20.23,12.75,33.91,21.47,15.84-8.09,23.67-11.99,38.95-19.44-1.14-3.33-1.71-4.99-2.86-8.32-12.42,6-18.76,9.15-31.59,15.56-11.53-9.14-17.36-13.74-28.57-22.74Z"/>
                  <path class="cls-3" d="M323.55,305.33c-12.37-9.87-18.4-14.66-29.94-23.62,2.25,12.76,3.49,19.29,6.16,32.57,2.68,1.65,4.03,2.48,6.74,4.17,6.86-5.26,10.27-7.9,17.04-13.12Z"/>
                  <path class="cls-3" d="M452.95,311.03c1.64,3,2.46,4.5,4.1,7.48,4.25-1.87,6.36-2.78,10.51-4.54,7.31-.37,10.92-.51,18.04-.73,1.2-2.93,1.79-4.37,2.92-7.22-9.31-.14-14.06-.15-23.7-.03-4.68,1.93-7.06,2.94-11.87,5.03Z"/>
                  <path class="cls-3" d="M527.6,313.1c-.45-2.21-.68-3.31-1.16-5.51-10.15-.71-15.37-.96-26.07-1.29-1.09,2.63-1.65,3.96-2.8,6.66,12.37-.2,18.4-.17,30.04.14Z"/>
                  <path class="cls-3" d="M281.46,275.5c-8.16,6.29-12.28,9.45-20.53,15.72,10.11,5.73,15.35,8.82,26.08,15.29-2.45-12.67-3.57-18.89-5.55-31.01Z"/>
                  <path class="cls-3" d="M234.72,239.37c-20.35,9.52-30.5,14.59-50.15,24.66-5.17,14.95-7.42,22.73-11.03,38.69,18.25-9.48,36.39-19.18,54.47-28.97,8.18,3.98,12.46,6.21,21.31,11.01,9.62-7.4,14.42-11.14,23.91-18.58-16.93-12.64-24.78-18.21-38.51-26.81Z"/>
                  <path class="cls-12" d="M323.55,305.33c-6.77,5.22-10.18,7.86-17.04,13.12,12.29,7.62,18.59,11.61,31.33,19.68,3.96-5.41,5.93-8.11,9.84-13.47-9.81-7.88-14.66-11.77-24.13-19.33Z"/>
                  <path class="cls-3" d="M485.59,313.25c4.83-.15,7.23-.2,11.97-.28,1.16-2.7,1.72-4.04,2.8-6.66-4.69-.14-7.06-.2-11.85-.27-1.14,2.85-1.72,4.29-2.92,7.22Z"/>
                  <path class="cls-3" d="M299.76,314.28c-2.67-13.28-3.92-19.81-6.16-32.57-4.1-3.18-6.13-4.74-10.1-7.78-.81.63-1.22.94-2.03,1.57,1.98,12.12,3.1,18.34,5.55,31.01,5.04,3.04,7.59,4.6,12.75,7.77Z"/>
                  <path class="cls-11" d="M280.89,271.95c-3.11-2.36-4.64-3.51-7.66-5.77-9.49,7.45-14.3,11.19-23.91,18.58,4.57,2.48,6.9,3.78,11.63,6.46,8.25-6.27,12.37-9.43,20.53-15.72.81-.63,1.22-.94,2.03-1.57-1.05-.8-1.57-1.2-2.61-1.98Z"/>
                  <path class="cls-3" d="M457.04,318.51c-1.63-2.99-2.45-4.49-4.1-7.48-3.13,1.36-4.71,2.05-7.9,3.47-1.39,4.37-2.11,6.58-3.58,11.03,6.32-2.91,9.44-4.32,15.57-7.02Z"/>
                  <path class="cls-3" d="M423.03,334.19c1.41-4.52,2.1-6.77,3.45-11.22-7.35,3.43-11.09,5.22-18.64,8.87,1.15,3.33,1.72,4.99,2.86,8.32,4.97-2.43,7.44-3.62,12.34-5.96Z"/>
                  <path class="cls-3" d="M441.47,325.53c1.47-4.46,2.19-6.67,3.58-11.03-7.3,3.25-11.02,4.95-18.57,8.48-1.35,4.45-2.04,6.7-3.45,11.22,7.48-3.58,11.17-5.32,18.44-8.66Z"/>
                  <path class="cls-11" d="M409.26,290.22c-4.23-.27-6.35-.39-10.6-.61-.24-4.62-.37-6.92-.63-11.5,4.2.26,6.29.4,10.47.7.32,4.54.47,6.82.76,11.41Z"/>
                  <path class="cls-11" d="M371.49,193.31c-3-.22-4.51-.31-7.51-.46-.11-3.43-.16-5.14-.28-8.52,2.95.15,4.42.25,7.36.49.17,3.38.26,5.08.43,8.5Z"/>
                  <path class="cls-11" d="M402.06,233.7c-3.34-.38-5.02-.56-8.37-.89-.28-3.72-.42-5.57-.72-9.25,3.3.35,4.95.54,8.24.95.35,3.65.52,5.49.85,9.19Z"/>
                  <path class="cls-11" d="M404.27,157.22c-2.73-.8-4.1-1.17-6.85-1.87-.51-3.22-.77-4.81-1.29-7.97,2.67.73,4,1.12,6.66,1.95.6,3.13.89,4.71,1.48,7.89Z"/>
                  <path class="cls-11" d="M348.83,304.95c-3.53,0-5.3,0-8.83.03.02-3.88.04-5.81.07-9.66,3.5-.03,5.25-.04,8.75-.04,0,3.85,0,5.79.01,9.67Z"/>
                  <path class="cls-7" d="M279.45,370.58c-3.93-.02-5.88-.04-9.79-.07.05-4.22.09-6.34.19-10.61,3.89-.01,5.85-.02,9.76-.03-.08,4.3-.12,6.44-.16,10.7Z"/>
                  <path class="cls-11" d="M222,415.41c-3.86-.37-5.78-.56-9.6-.95-.29-3.84-.41-5.77-.61-9.66,3.84.32,5.77.47,9.65.77.19,3.96.3,5.93.56,9.84Z"/>
                  <path class="cls-11" d="M274.98,415.55c-4.38-.22-6.56-.34-10.91-.59-.16-4.51-.23-6.79-.34-11.36,4.37.19,6.56.29,10.96.46.09,4.62.15,6.92.29,11.49Z"/>
                  <path class="cls-11" d="M289.59,438.58c-2.26-.13-3.39-.2-5.65-.35-.11-2.32-.16-3.49-.26-5.83,2.26.13,3.4.2,5.67.32.09,2.35.14,3.52.24,5.86Z"/>
                  <path class="cls-11" d="M442.21,373.92c-1.61.02-2.42.03-4.04.05-.03-1.74-.05-2.61-.09-4.36,1.62-.01,2.43-.02,4.04-.03.04,1.74.06,2.61.09,4.34Z"/>
                  <path class="cls-11" d="M455.25,348.16c-1.11-.02-1.66-.04-2.77-.06-.06-1.18-.1-1.77-.16-2.95,1.11.03,1.66.04,2.77.07.07,1.17.1,1.76.17,2.94Z"/>
                  <path class="cls-11" d="M468.67,390.12c-1.58.07-2.37.1-3.95.16.01-1.65.01-2.48.01-4.14,1.58-.05,2.37-.08,3.95-.14,0,1.65,0,2.47-.01,4.11Z"/>
                  <path class="cls-11" d="M480.49,403.14c-2.17.16-3.26.23-5.44.38.08-2.24.11-3.36.16-5.61,2.19-.13,3.28-.2,5.45-.33-.06,2.23-.09,3.34-.17,5.56Z"/>
                  <path class="cls-11" d="M488.94,387.58c-1.69.08-2.54.12-4.25.2.01-1.76.01-2.64,0-4.41,1.7-.06,2.55-.1,4.25-.17,0,1.75,0,2.63,0,4.38Z"/>
                  <path class="cls-11" d="M331.36,255.92c-2.28.07-3.41.11-5.69.19.09-2.53.13-3.78.22-6.29,2.25-.09,3.38-.13,5.64-.21-.07,2.51-.1,3.78-.17,6.31Z"/>
                  <path class="cls-11" d="M351.1,256.94c-3.69-.01-5.48,0-9.13.04.04-4.06.06-6.08.11-10.11,3.6-.05,5.36-.06,9-.04,0,4.02.01,6.05.02,10.11Z"/>
                  <path class="cls-11" d="M343.78,269.73c-2.17.02-3.25.03-5.41.06.03-2.4.05-3.59.08-5.98,2.15-.03,3.22-.05,5.37-.06-.02,2.39-.02,3.58-.04,5.98Z"/>
                  <path class="cls-11" d="M223.48,253.69c-2.38.58-3.56.88-5.92,1.49.6-2.44.91-3.65,1.54-6.06,2.33-.65,3.5-.96,5.85-1.58-.6,2.45-.89,3.68-1.47,6.16Z"/>
                  <path class="cls-11" d="M202.89,275.46c-2.19.49-3.29.74-5.46,1.24.54-2.2.82-3.29,1.38-5.47,2.16-.54,3.24-.8,5.41-1.32-.54,2.21-.81,3.33-1.33,5.56Z"/>
                  <path class="cls-7" d="M192.96,272.72c-3.3.86-4.94,1.3-8.19,2.2.95-3.22,1.44-4.82,2.46-8,3.2-.99,4.81-1.47,8.06-2.41-.96,3.26-1.43,4.91-2.34,8.22Z"/>
                  <path class="cls-11" d="M218.37,218.09c-2.1.95-3.14,1.43-5.22,2.42.87-2.12,1.31-3.18,2.21-5.27,2.04-1.03,3.07-1.53,5.13-2.52-.86,2.14-1.29,3.21-2.12,5.38Z"/>
                  <path class="cls-11" d="M491.36,503.45c-1.92.91-2.89,1.36-4.84,2.24.79-1.87,1.18-2.82,1.93-4.72,1.98-.85,2.96-1.28,4.92-2.16-.79,1.87-1.19,2.79-2.01,4.63Z"/>
                  <path class="cls-11" d="M331.3,549.24c-2.99-.2-4.48-.32-7.46-.6-.21-3.04-.31-4.57-.52-7.66,3.04.27,4.56.38,7.61.58.14,3.1.22,4.64.37,7.69Z"/>
                  <path class="cls-11" d="M369.97,563.55c-3.63.31-5.44.43-9.09.6.13-3.73.19-5.62.32-9.44,3.75-.16,5.62-.27,9.35-.56-.22,3.81-.34,5.69-.58,9.41Z"/>
                  <path class="cls-11" d="M357.41,585.24c-2.14.09-3.21.12-5.36.14.02-2.22.03-3.34.05-5.6,2.19-.02,3.29-.05,5.47-.14-.07,2.26-.1,3.37-.17,5.59Z"/>
                  <path class="cls-11" d="M390.95,523.49c-4.17.47-6.27.67-10.47,1.02.27-4.26.4-6.42.65-10.77,4.29-.32,6.43-.51,10.7-.94-.34,4.32-.52,6.46-.89,10.69Z"/>
                  <path class="cls-6" d="M231.12,477.98c-2.26-.52-3.39-.79-5.63-1.34-.47-2.2-.7-3.31-1.15-5.54,2.27.52,3.4.77,5.69,1.26.42,2.25.64,3.38,1.09,5.61Z"/>
                  <path class="cls-6" d="M247.39,493.36c-3.89-.89-5.82-1.36-9.66-2.33-.83-3.79-1.23-5.7-1.99-9.57,3.91.89,5.88,1.32,9.84,2.14.69,3.94,1.05,5.89,1.8,9.76Z"/>
                  <path class="cls-6" d="M212.62,497.83c-1.46-.59-2.19-.89-3.64-1.5-.54-1.39-.81-2.09-1.34-3.5,1.47.59,2.2.88,3.68,1.45.51,1.42.77,2.13,1.3,3.54Z"/>
                  <path class="cls-6" d="M320.17,476.24c-2-.09-3-.15-5-.26-.09-2.04-.13-3.07-.21-5.12,2.01.1,3.02.15,5.03.24.07,2.06.11,3.09.18,5.13Z"/>
                  <path class="cls-6" d="M396.82,379.32c-3.15.03-4.73.04-7.88.06-.03-3.41-.05-5.13-.09-8.56,3.15,0,4.73-.01,7.87-.02.05,3.42.07,5.13.1,8.53Z"/>
                  <path class="cls-6" d="M396.98,360.77c-1.57,0-2.35,0-3.92,0-.03-1.73-.05-2.6-.09-4.33,1.57,0,2.35.01,3.92.02.04,1.73.06,2.6.09,4.32Z"/>
                  <path class="cls-6" d="M373.85,365.08c-1.58,0-2.38,0-3.96,0-.02-1.74-.03-2.61-.05-4.35,1.58,0,2.37,0,3.95,0,.02,1.74.03,2.61.05,4.35Z"/>
                  <path class="cls-6" d="M512.08,426.58c-3.35.56-5.04.84-8.44,1.37.43-3.34.62-5.02.97-8.41,3.43-.46,5.13-.7,8.51-1.19-.37,3.31-.58,4.96-1.03,8.23Z"/>
                  <path class="cls-6" d="M513.74,407.76c-1.55.18-2.33.27-3.89.44.12-1.55.17-2.32.27-3.88,1.56-.16,2.34-.24,3.9-.4-.1,1.54-.16,2.31-.28,3.84Z"/>
                  <path class="cls-6" d="M515.56,329.81c-2.9-.24-4.36-.36-7.29-.6-.38-2.98-.59-4.47-1.01-7.44,2.91.29,4.36.44,7.24.74.44,2.91.66,4.37,1.06,7.3Z"/>
                  <path class="cls-7" d="M434.54,304.54c-3.12-.22-4.69-.33-7.83-.53-.25-3.38-.37-5.06-.64-8.42,3.12.23,4.67.35,7.77.6.29,3.33.43,4.99.7,8.34Z"/>
                  <path class="cls-6" d="M255.5,320c-2.48.13-3.72.2-6.19.34.2-2.63.3-3.94.52-6.56,2.46-.16,3.69-.24,6.16-.4-.2,2.64-.3,3.96-.49,6.61Z"/>
                  <path class="cls-6" d="M186.49,348.49c-3.75.12-5.61.18-9.3.3.32-3.74.51-5.6.91-9.31,3.67-.21,5.52-.32,9.25-.52-.39,3.8-.56,5.71-.87,9.54Z"/>
                  <path class="cls-6" d="M186.03,361.39c-1.88,0-2.82,0-4.69,0,.1-1.93.15-2.9.28-4.84,1.87-.02,2.8-.03,4.68-.05-.12,1.96-.18,2.95-.27,4.9Z"/>
                  <path class="cls-6" d="M176.69,372.46c-1.55-.05-2.32-.07-3.86-.12.03-1.56.05-2.34.09-3.9,1.54.03,2.31.05,3.86.08-.05,1.58-.07,2.37-.09,3.94Z"/>
                  <path class="cls-2" d="M487.46,266.17c-2.61-.62-3.93-.93-6.57-1.53-.6-2.75-.91-4.12-1.54-6.85,2.61.64,3.91.97,6.49,1.64.66,2.68.99,4.03,1.62,6.74Z"/>
                  <path class="cls-2" d="M418.71,147.54c-1.15-.52-1.73-.78-2.89-1.29-.36-1.36-.55-2.03-.92-3.38,1.14.51,1.71.78,2.85,1.31.38,1.34.58,2.01.96,3.36Z"/>
                  <path class="cls-2" d="M402.07,127.75c-2.53-1.06-3.8-1.57-6.35-2.51-.64-3.11-.97-4.64-1.63-7.67,2.46.98,3.68,1.5,6.13,2.61.75,2.99,1.12,4.51,1.86,7.57Z"/>
                  <path class="cls-2" d="M412.84,126.62c-1.15-.65-1.72-.97-2.87-1.59-.43-1.4-.65-2.09-1.08-3.47,1.13.63,1.7.96,2.82,1.62.45,1.37.68,2.05,1.13,3.44Z"/>
                  <path class="cls-2" d="M480.79,195.4c-2.62-1.94-3.94-2.88-6.61-4.74-1.5-2.84-2.26-4.24-3.81-7,2.58,1.94,3.86,2.94,6.4,4.97,1.63,2.67,2.44,4.02,4.02,6.77Z"/>
                  <path class="cls-2" d="M484.49,205.53c-.7-.44-1.04-.65-1.74-1.08-.36-.73-.54-1.09-.91-1.82.69.44,1.04.66,1.73,1.1.37.72.55,1.08.92,1.81Z"/>
                  <path class="cls-2" d="M423.73,188.93c-1.07-.3-1.61-.45-2.69-.75-.23-1.21-.35-1.82-.59-3.03,1.07.3,1.6.45,2.67.76.24,1.2.37,1.8.61,3.01Z"/>
                  <path class="cls-2" d="M372.74,127.52c-2.11-.35-3.16-.51-5.28-.78-.18-2.58-.27-3.86-.46-6.4,2.06.28,3.09.44,5.14.8.24,2.53.36,3.8.59,6.37Z"/>
                  <path class="cls-2" d="M334.16,148.14c-1.5.14-2.26.21-3.76.38.12-1.81.18-2.71.31-4.5,1.48-.17,2.22-.25,3.7-.39-.1,1.79-.15,2.7-.25,4.51Z"/>
                  <path class="cls-2" d="M335.24,165.3c-2.65.18-3.97.29-6.62.55.2-3.12.3-4.67.5-7.74,2.59-.27,3.88-.39,6.46-.57-.14,3.08-.21,4.64-.35,7.77Z"/>
                  <path class="cls-2" d="M338.67,381.9c-4.4,0-6.6-.02-10.99-.04,0-4.76-.01-7.16,0-11.97,4.38,0,6.58,0,10.97.01,0,4.82.01,7.22.03,11.99Z"/>
                  <path class="cls-2" d="M345.19,359.74c-1.93,0-2.89,0-4.82,0,0-2.14,0-3.24,0-5.34,1.92,0,2.88,0,4.81,0,0,2.1,0,3.2.02,5.34Z"/>
                  <path class="cls-2" d="M354.06,372.8c-2.3,0-3.45,0-5.74,0-.01-2.5-.02-3.76-.03-6.27,2.28,0,3.43,0,5.73,0,.01,2.51.02,3.77.03,6.27Z"/>
                  <path class="cls-2" d="M345.55,445.81c-1.73,0-2.59-.01-4.32-.03-.01-1.79-.02-2.69-.04-4.48,1.73.01,2.6.02,4.34.03,0,1.8.01,2.7.02,4.49Z"/>
                  <path class="cls-2" d="M233.87,453.2c-3.18-.5-4.76-.76-7.9-1.29-.45-3.12-.66-4.69-1.06-7.85,3.17.48,4.77.72,7.98,1.17.37,3.21.57,4.8.98,7.97Z"/>
                  <path class="cls-2" d="M218.69,446.5c-2.04-.35-3.05-.52-5.07-.88-.3-1.99-.45-2.99-.73-5,2.03.34,3.06.5,5.1.83.27,2.03.41,3.04.7,5.06Z"/>
                  <path class="cls-2" d="M188.99,305.9c-1.2.18-1.8.26-3,.44.22-1.2.34-1.8.57-3,1.19-.19,1.79-.28,2.99-.47-.23,1.21-.34,1.81-.56,3.03Z"/>
                  <path class="cls-2" d="M211.3,304.45c-1.87.23-2.8.34-4.65.57.29-1.91.44-2.86.74-4.76,1.85-.25,2.77-.38,4.63-.62-.3,1.92-.44,2.88-.72,4.81Z"/>
                  <path class="cls-2" d="M494.42,474.12c-1.29.39-1.94.58-3.24.96.34-1.26.5-1.89.82-3.16,1.31-.37,1.96-.55,3.27-.93-.33,1.26-.5,1.88-.85,3.13Z"/>
                  <path class="cls-2" d="M485.85,485.9c-1.14.36-1.71.54-2.85.9.31-1.11.47-1.67.78-2.78,1.15-.35,1.72-.52,2.87-.88-.31,1.11-.47,1.66-.79,2.76Z"/>
                  <path class="cls-2" d="M503.5,480.92c-2.31.88-3.48,1.31-5.82,2.16.77-2.24,1.14-3.37,1.86-5.65,2.38-.8,3.56-1.21,5.91-2.05-.76,2.23-1.15,3.34-1.95,5.54Z"/>
                  <path class="cls-2" d="M508.78,465.97c-1.55.49-2.33.74-3.9,1.22.43-1.5.64-2.25,1.06-3.76,1.58-.46,2.36-.7,3.93-1.17-.43,1.49-.64,2.23-1.09,3.71Z"/>
                  <path class="cls-9" d="M242.28,215.39c-1.5.5-2.25.75-3.75,1.26.45-1.59.68-2.38,1.14-3.96,1.48-.53,2.22-.79,3.71-1.3-.44,1.59-.66,2.39-1.1,4Z"/>
                  <path class="cls-9" d="M253.08,223.03c-2.99.77-4.48,1.17-7.45,1.99.74-3.18,1.12-4.75,1.89-7.89,2.91-.87,4.38-1.3,7.32-2.11-.72,3.18-1.07,4.79-1.76,8.01Z"/>
                  <path class="cls-9" d="M240.76,228.84c-2.26.63-3.39.96-5.64,1.62.61-2.38.92-3.56,1.55-5.91,2.22-.7,3.33-1.04,5.56-1.7-.6,2.38-.89,3.58-1.47,5.99Z"/>
                  <path class="cls-9" d="M270.9,144.11c-2.05,1.26-3.08,1.91-5.12,3.25.98-2.32,1.47-3.46,2.47-5.73,1.98-1.38,2.97-2.05,4.97-3.36-.93,2.31-1.4,3.48-2.32,5.84Z"/>
                  <path class="cls-9" d="M259.92,155.15c-1.31.85-1.97,1.28-3.27,2.15.66-1.45.98-2.17,1.65-3.61,1.28-.89,1.93-1.33,3.22-2.2-.64,1.45-.96,2.18-1.59,3.65Z"/>
                  <path class="cls-9" d="M516.08,280.07c-3.09-.81-4.65-1.21-7.78-1.99-.84-3.17-1.27-4.74-2.16-7.87,3.09.86,4.63,1.29,7.67,2.19.93,3.05,1.39,4.59,2.26,7.68Z"/>
                  <path class="cls-9" d="M516.91,297.08c-1.31-.25-1.96-.38-3.28-.63-.29-1.32-.44-1.98-.74-3.3,1.31.26,1.96.39,3.27.66.31,1.31.46,1.96.76,3.27Z"/>
                  <path class="cls-9" d="M436.92,229.25c-2.34-.5-3.51-.74-5.86-1.2-.41-2.58-.62-3.86-1.04-6.41,2.32.49,3.48.74,5.79,1.26.45,2.53.67,3.8,1.11,6.35Z"/>
                  <path class="cls-9" d="M432.92,237.84c-1.65-.3-2.47-.44-4.12-.73-.25-1.8-.38-2.7-.64-4.5,1.64.29,2.46.45,4.09.75.27,1.78.41,2.68.68,4.47Z"/>
                  <path class="cls-9" d="M248.79,553.67c-1.94-1.17-2.9-1.77-4.8-2.99-1.02-1.91-1.52-2.88-2.52-4.84,1.96,1.18,2.95,1.76,4.94,2.89.94,1.99,1.42,2.98,2.39,4.93Z"/>
                  <path class="cls-9" d="M231.93,538c-1.37-.88-2.05-1.32-3.4-2.22-.78-1.33-1.16-2-1.92-3.35,1.38.88,2.07,1.31,3.47,2.17.73,1.37,1.11,2.05,1.86,3.4Z"/>
                  <path class="cls-9" d="M240.74,550.37c-1.52-1.07-2.27-1.62-3.76-2.73-.94-1.49-1.4-2.24-2.32-3.76,1.53,1.08,2.3,1.61,3.85,2.66.88,1.55,1.33,2.31,2.23,3.83Z"/>
                  <path class="cls-9" d="M292.18,500.24c-2.21-.28-3.31-.42-5.51-.72-.24-2.22-.36-3.34-.59-5.59,2.22.29,3.34.43,5.57.69.21,2.26.32,3.38.54,5.62Z"/>
                  <path class="cls-9" d="M219.27,525.94c-1.26-.82-1.88-1.24-3.13-2.08-.74-1.2-1.11-1.8-1.84-3.02,1.26.82,1.9,1.23,3.18,2.04.71,1.23,1.07,1.85,1.79,3.07Z"/>
                  <path class="cls-9" d="M481.64,527.98c-.67.47-1,.7-1.67,1.17.41-.65.61-.98,1.02-1.63.68-.46,1.01-.69,1.69-1.15-.41.65-.62.97-1.03,1.62Z"/>
                  <path class="cls-9" d="M442.74,551.96c-.99.46-1.48.68-2.47,1.13.37-1,.55-1.5.92-2.51,1-.44,1.5-.66,2.5-1.11-.38,1-.56,1.5-.95,2.49Z"/>
                  <path class="cls-9" d="M435.49,565.32c-1.4.72-2.1,1.08-3.52,1.77.56-1.45.84-2.18,1.4-3.65,1.44-.68,2.16-1.03,3.58-1.73-.58,1.45-.87,2.17-1.46,3.61Z"/>
                  <path class="cls-9" d="M430.58,558.03c-1.51.61-2.27.9-3.79,1.48.47-1.55.7-2.33,1.16-3.9,1.54-.57,2.31-.85,3.85-1.45-.49,1.56-.73,2.33-1.23,3.86Z"/>
                  <path class="cls-11" d="M419.24,434.82c-2.92.19-4.39.28-7.33.44.11-3.03.16-4.56.26-7.62,2.95-.15,4.42-.23,7.36-.39-.11,3.04-.16,4.55-.29,7.57Z"/>
                  <path class="cls-11" d="M388.91,405c-3.01.06-4.52.08-7.55.13.01-3.2.01-4.8.01-8.03,3.03-.04,4.54-.06,7.56-.11,0,3.21,0,4.81-.02,8Z"/>
                  <path class="cls-11" d="M424.08,476.63c-1.39.17-2.09.25-3.48.42.13-1.41.19-2.12.32-3.54,1.4-.16,2.1-.24,3.5-.4-.13,1.41-.2,2.12-.33,3.53Z"/>
                  <path class="cls-12" d="M319.84,278.73c-2.59.09-3.89.14-6.47.25.12-2.84.18-4.26.3-7.08,2.57-.12,3.85-.18,6.42-.28-.1,2.83-.15,4.25-.25,7.11Z"/>
                  <path class="cls-12" d="M431,349.15c-2.68-.04-4.03-.06-6.72-.1-.11-2.9-.17-4.35-.29-7.24,2.69.06,4.03.09,6.7.15.13,2.87.2,4.31.32,7.19Z"/>
                  <path class="cls-12" d="M354.18,466.31c-1.71.01-2.57.01-4.28.01,0-1.75,0-2.63,0-4.39,1.72,0,2.58,0,4.3-.01,0,1.76,0,2.64-.01,4.39Z"/>
                  <path class="cls-12" d="M457.79,538.57c-2.84,1.4-4.27,2.08-7.16,3.39,1.11-2.89,1.65-4.35,2.71-7.31,2.97-1.25,4.45-1.89,7.38-3.22-1.14,2.89-1.73,4.32-2.92,7.14Z"/>
                  <path class="cls-12" d="M455.46,551.39c-1.29.81-1.95,1.22-3.25,2.01.66-1.31.99-1.98,1.64-3.31,1.33-.77,1.99-1.17,3.31-1.96-.68,1.32-1.02,1.97-1.7,3.27Z"/>
                  <path class="cls-12" d="M191.51,421.82c-1.11-.17-1.66-.25-2.76-.42-.14-1.08-.2-1.62-.33-2.7,1.11.16,1.66.24,2.77.4.13,1.09.19,1.64.32,2.72Z"/>
                  <path class="cls-12" d="M212.81,429.23c-2.73-.37-4.09-.56-6.79-.95-.32-2.68-.46-4.02-.73-6.73,2.72.35,4.09.52,6.84.85.26,2.75.4,4.11.69,6.83Z"/>
                  <path class="cls-12" d="M270.05,456.53c-1.42-.15-2.13-.22-3.54-.38-.12-1.44-.18-2.16-.3-3.6,1.42.15,2.13.22,3.56.36.11,1.45.17,2.17.29,3.62Z"/>
                  <path class="cls-12" d="M247.34,263.9c-3.31.53-4.95.81-8.23,1.38.58-3.47.88-5.19,1.5-8.62,3.24-.62,4.86-.92,8.12-1.51-.57,3.48-.85,5.23-1.39,8.75Z"/>
                  <path class="cls-12" d="M270.43,166.54c-1.58.67-2.37,1.01-3.94,1.7.54-1.76.81-2.64,1.36-4.38,1.55-.71,2.32-1.06,3.88-1.75-.52,1.76-.78,2.65-1.3,4.43Z"/>
                  <path class="cls-12" d="M436.41,146.29c-1.78-1.28-2.67-1.9-4.47-3.12-.88-2.09-1.32-3.13-2.22-5.17,1.74,1.26,2.61,1.9,4.34,3.22.94,2.01,1.41,3.03,2.34,5.08Z"/>
                  <path class="cls-12" d="M258.5,337.6c-2.65.08-3.97.12-6.6.2.15-2.82.23-4.22.4-7.02,2.62-.11,3.94-.16,6.58-.26-.16,2.82-.23,4.24-.38,7.08Z"/>
                  <path class="cls-12" d="M256.11,383.29c-1.46-.04-2.19-.05-3.65-.09,0-1.55,0-2.32,0-3.87,1.46.03,2.19.04,3.65.07,0,1.56,0,2.34,0,3.89Z"/>
                  <path class="cls-12" d="M235.22,349.01c-1.9.04-2.85.06-4.74.1.11-2,.16-3,.28-5,1.89-.05,2.83-.08,4.73-.13-.11,2.01-.17,3.02-.27,5.03Z"/>
                  <path class="cls-12" d="M227.6,323.99c-3.02.2-4.52.3-7.51.5.3-3.13.47-4.68.81-7.79,2.97-.25,4.47-.37,7.47-.61-.32,3.15-.47,4.73-.76,7.89Z"/>
                  <path class="cls-12" d="M342.82,408.71c-1.51,0-2.27,0-3.78-.02,0-1.6-.01-2.41-.02-4.01,1.51,0,2.27.01,3.78.02,0,1.61.01,2.41.02,4.02Z"/>
                  <path class="cls-12" d="M297.71,577.8c-1.97-.59-2.96-.9-4.91-1.54-.49-2.03-.74-3.05-1.22-5.12,2,.62,3.01.92,5.02,1.5.44,2.09.66,3.12,1.11,5.17Z"/>
                  <path class="cls-12" d="M317.69,578.84c-1.5-.26-2.24-.4-3.74-.68-.21-1.55-.32-2.32-.53-3.89,1.51.28,2.27.42,3.79.67.19,1.57.28,2.35.47,3.9Z"/>
                </g>
              </g>
            </g>
            <g>
              <path class="cls-10" d="M349.86,100c-82.78,0-174.18,115.98-184.53,257.73-10.05,137.71,82.62,242.27,184.53,242.27s196.53-104.72,184.53-242.27c-12.07-138.32-98.3-257.73-184.53-257.73Z"/>
              <path class="cls-5" d="M349.63,600c28.6,0,55.67-8.27,79.85-22.97,15.96-60.76,5.46-139.19-33.95-212.92-45.35-84.85-117.15-141.34-184.96-153.6-28.63,41.83-45.99,106.03-45.99,165.36,0,129.61,82.85,224.13,185.05,224.13Z"/>
              <ellipse class="cls-13" cx="376.7" cy="284.22" rx="114.08" ry="167.2"/>
            </g>
          </g>
        </g>
      </g>
    </g>
  </g>
</svg>