<?xml version="1.0" encoding="UTF-8"?>
<svg xmlns="http://www.w3.org/2000/svg" xmlns:xlink="http://www.w3.org/1999/xlink" viewBox="0 0 700 700">
  <defs>
    <style>
      .cls-1 {
        fill: #e0b36e;
      }

      .cls-1, .cls-2, .cls-3, .cls-4, .cls-5, .cls-6, .cls-7, .cls-8, .cls-9, .cls-10, .cls-11, .cls-12, .cls-13, .cls-14, .cls-15, .cls-16, .cls-17, .cls-18, .cls-19, .cls-20, .cls-21, .cls-22, .cls-23 {
        stroke-width: 0px;
      }

      .cls-2 {
        fill: #cc6e17;
      }

      .cls-3 {
        fill: #d17066;
      }

      .cls-4 {
        fill: #819ec4;
      }

      .cls-5 {
        fill: #d15d52;
      }

      .cls-6 {
        fill: #f7ae40;
      }

      .cls-7 {
        fill: #913252;
      }

      .cls-8 {
        fill: #7888c2;
      }

      .cls-9 {
        fill: #e8ac64;
      }

      .cls-10 {
        fill: #a65137;
      }

      .cls-11 {
        fill: url(#_Безымянный_градиент_16);
      }

      .cls-11, .cls-23 {
        mix-blend-mode: screen;
      }

      .cls-12 {
        fill: #cc6217;
      }

      .cls-13 {
        fill: #4d6592;
      }

      .cls-14 {
        fill: #1d0d2b;
      }

      .cls-15 {
        fill: #f7941c;
      }

      .cls-16 {
        fill: #fbd69e;
      }

      .cls-17 {
        fill: #f6c399;
      }

      .cls-18 {
        fill: url(#_Безымянный_градиент_140);
        mix-blend-mode: multiply;
      }

      .cls-24 {
        isolation: isolate;
      }

      .cls-19 {
        fill: #e88b1a;
      }

      .cls-20 {
        fill: #6686c3;
      }

      .cls-21 {
        fill: #992f24;
      }

      .cls-22 {
        fill: #f7bb60;
      }

      .cls-23 {
        fill: url(#_Безымянный_градиент_139);
      }
    </style>
    <radialGradient id="_Безымянный_градиент_140" data-name="Безымянный градиент 140" cx="737.65" cy="940.48" fx="737.65" fy="940.48" r="320.28" gradientTransform="translate(-384.05 -896.87) scale(1.1 1.3)" gradientUnits="userSpaceOnUse">
      <stop offset=".36" stop-color="#f1f2f2" stop-opacity="0"/>
      <stop offset=".42" stop-color="rgba(220, 221, 222, .15)" stop-opacity=".15"/>
      <stop offset=".59" stop-color="rgba(172, 173, 175, .52)" stop-opacity=".52"/>
      <stop offset=".74" stop-color="rgba(137, 138, 141, .78)" stop-opacity=".78"/>
      <stop offset=".87" stop-color="rgba(116, 117, 120, .94)" stop-opacity=".94"/>
      <stop offset=".97" stop-color="#6d6e71"/>
    </radialGradient>
    <radialGradient id="_Безымянный_градиент_16" data-name="Безымянный градиент 16" cx="521.33" cy="361.8" fx="521.33" fy="361.8" r="424.94" gradientTransform="translate(0 -91.93) scale(1 1.03)" gradientUnits="userSpaceOnUse">
      <stop offset=".68" stop-color="#221e1f" stop-opacity="0"/>
      <stop offset=".71" stop-color="rgba(46, 42, 43, .06)" stop-opacity=".06"/>
      <stop offset=".77" stop-color="rgba(79, 76, 77, .23)" stop-opacity=".23"/>
      <stop offset=".86" stop-color="rgba(133, 132, 133, .51)" stop-opacity=".51"/>
      <stop offset=".97" stop-color="rgba(206, 206, 207, .88)" stop-opacity=".88"/>
      <stop offset="1" stop-color="#e6e7e8"/>
    </radialGradient>
    <radialGradient id="_Безымянный_градиент_139" data-name="Безымянный градиент 139" cx="785.85" cy="1528.78" fx="785.85" fy="1528.78" r="106.23" gradientTransform="translate(-467.2 -2121.95) scale(1.07 1.57)" gradientUnits="userSpaceOnUse">
      <stop offset="0" stop-color="#f1f2f2"/>
      <stop offset="1" stop-color="#221e1f" stop-opacity="0"/>
    </radialGradient>
  </defs>
  <g class="cls-24">
    <g id="_Слой_2" data-name="Слой 2">
      <g id="_Слой_3" data-name="Слой 3">
        <g>
          <rect class="cls-14" width="700" height="700"/>
          <g>
            <g>
              <path class="cls-13" d="M534.38,357.73c12.01,137.55-82.62,242.27-184.53,242.27s-194.58-104.56-184.53-242.27c10.35-141.75,101.75-257.73,184.53-257.73s172.45,119.42,184.53,257.73Z"/>
              <g>
                <path class="cls-15" d="M425.13,524.01c-12,3.6-27.06,6.8-44.07,8.31-3.44.31-6.96.54-10.54.7-.6.03-1.18.34-1.57.85-3.02,4.07-7.42,9.4-12.73,15.26-.51.56-.65,1.37-.36,2.03,8.41,19.39,12.73,33.01,14.22,41.67.14.82-.45,1.78-1.29,2.11-.01,0-.02,0-.03.01-.82.32-1.58-.07-1.73-.88-1.5-8.19-5.59-20.86-13.3-38.69-.5-1.15-2-1.4-2.88-.48-12.27,12.85-27.65,26.86-41.58,34.82-1.02.58-.08,2.68,1.34,3.05,36.52,8.93,68.29,3.64,102.81-9.1.89-.4,1.86-1.55,2-2.38,2.12-12.06,6.32-31.05,11.26-55.94.21-1.04-.5-1.66-1.56-1.34Z"/>
                <path class="cls-10" d="M347.26,553.28c2.22-2.36,2.9-5.96,1.49-9.03-1.04-2.27-2.14-4.61-3.28-7.02-1.3-2.74-3.98-4.59-6.98-4.85-27.77-2.37-55.11-9.25-80.99-19.52-3.24-1.28-6-.65-6.9,1.6-2.59,6.48-5.75,13.22-8.34,16.92-.67.95-.48,2.59.5,4.58,4.98,10.15,9.32,19.17,12.76,26.49,1.58,3.37,5.5,7.82,8.73,9.87,13.22,8.38,20.22,11.81,34.64,16.85,1.26.44,2.43.47,3.32.04,16.53-7.98,32.62-22.72,45.07-35.94Z"/>
                <path class="cls-21" d="M239.49,534.26c-.67-1.31-1.35-2.64-2.03-3.98-5.12-10.03-10.78-21.04-16.62-32.35-.98-1.9-2.81-3.76-4.72-4.84-4.73-2.67-9.19-5.34-13.34-7.97-.81-.51-1.61-1.02-2.4-1.53-3.27-2.11-6.33-4.18-9.16-6.19-3.59-2.54-6.14-1.85-4.8,1.24,10.88,21.92,21.31,38.7,36.36,57.94,1.6,1.82,4.35,4.83,6.16,6.72,8.74,9.12,13.42,13.28,23.22,20.66,1.96,1.48,2.74,1.04,1.73-1.03-3.71-7.56-8.66-17.4-14.4-28.68Z"/>
                <path class="cls-2" d="M502.36,480.16c-6.93-6.51-18.6-14.39-30.83-22-1.53-.95-3.8-.73-5.86.57-6.55,4.17-14.25,8.48-21.12,11.36-2.46,1.03-4.43,3.38-4.87,5.87-2.79,15.85-5.56,30.07-8.12,42.63-.25,1.22-.5,2.43-.75,3.62-5.37,26.03-9.76,44.52-12.11,56.17-.37,1.85.76,2.45,2.7,1.46,5.61-2.88,8.37-4.46,13.77-7.87,1.75-1.11,3.89-3.28,5.28-5.3,19.17-27.78,39.81-54.83,60.66-81.46,1.65-2.11,2.2-4.15,1.24-5.04Z"/>
                <path class="cls-19" d="M511.24,483.61c2.94-6.32,4.31-9.56,6.81-16.21-2.92,3.59-6.24,7.71-9.85,12.22,1.24,1.37,2.25,2.69,3.04,3.99Z"/>
                <path class="cls-17" d="M466.06,189.99c-.7-.18-1.42-.34-2.15-.48-2.93-.59-6.05-.93-9.34-.99-1.26-.02-1.89.95-1.67,2.61,2.79,21.33,3.78,42.99,4.38,64.33.04,1.24.05,2.51.07,3.79.13,8.43.15,17.33.04,26.67-.02,1.88.67,3.93,1.94,5.65,11.65,15.85,22.8,30.38,33,43.17,2.45,3.08,6.45,4.09,9.29,2.48,9.63-5.47,17.48-9.37,23.38-11.87,2-.85,2.96-2.9,2.52-5.32-8.85-40.91-21.12-79.88-42.04-116.42-1.97-3.43-6.45-8.3-9.01-9.63-3.19-1.67-6.64-3.03-10.41-3.97Z"/>
                <path class="cls-21" d="M522.56,330.88c-5.1,2.44-11.33,5.72-18.6,9.9-2.42,1.39-2.75,4.95-.68,7.46,8.07,9.78,15.38,18.46,21.74,25.63,3.01,3.39,8.47,1.15,8.31-3.32-.53-14.15-1.32-21.17-3.26-34.83-.5-3.53-4.62-6.22-7.51-4.84Z"/>
                <path class="cls-22" d="M231.68,246.8c.51-1.62-.72-2.4-2.27-1.43-5.7,3.54-11.2,6.92-16.44,10.1-1.29.79-2.15,2.32-1.79,3.23,2.35,5.93,5.05,12.41,8.07,19.39.72,1.66,3.61.5,4.14-1.7,2.3-9.53,5.09-19.52,8.29-29.59Z"/>
                <path class="cls-1" d="M500.41,350.62c-2.43-2.97-6.43-3.92-9.37-2.1-10.28,6.37-22.01,14.27-34.76,23.16-1.9,1.32-3.13,3.54-3.34,5.98-1.73,19.86-4.02,38.59-6.5,55.98-.42,2.91.79,5.52,3.11,6.71,5.96,3.05,13.15,7.16,20.43,11.59,1.01.61,2.01,1.23,3.02,1.85,11.44,7.07,22.58,14.52,29.99,20.85,2.02,1.73,6.96-.67,10.12-4.62,2.09-2.61,4.03-5.02,5.81-7.19.9-1.1,1.58-2.24,1.93-3.31,6.64-23.59,10.23-43.78,12.44-68.21.07-1.67-.52-3.24-1.65-4.41-8.65-9.06-19.28-21.66-31.23-36.27Z"/>
                <path class="cls-10" d="M507.72,486.35c-.96-1.52-5.37.61-8.15,4.13-18.56,23.56-37.08,47.35-54.51,71.79-2.15,3.02-1.72,4.26.78,2.42,9.38-6.88,13.88-10.74,22.34-19.18,1.87-1.86,4.72-4.84,6.38-6.65,13.15-13.97,25.26-31.7,33.63-48.94.45-.89.59-1.63.36-2.08-.24-.49-.52-.98-.84-1.47Z"/>
                <path class="cls-19" d="M199.32,477.9c.63-2.82,3.06-5.13,5.61-6.91.87-.61.93-1.99.14-3.52-5.15-9.91-10.16-19.51-14.81-28.28-1.04-1.95-3.21-3.36-5.02-3.29-3.52.13-6.83.11-9.9-.02-1.65-.07-2.54,1.07-2.14,2.73,2.72,11.49,4.4,17.06,8.33,27.78.44,1.21,1.55,2.58,2.88,3.62,3.16,2.46,6.82,5.09,10.93,7.82,1.93,1.28,3.68,1.37,3.97.07Z"/>
                <path class="cls-17" d="M326.21,178.47c13.8-9.34,26.36-17.89,37.24-25.26,1.52-1.03,1.9-3.4.93-5.33-9.8-19.37-15.5-33.83-17.68-42.65-.34-1.38-1.3-2.25-2.43-2.16-9.54.77-14.36,1.8-23.95,4.97-1.7.56-3.38,2.99-3.45,5-.75,21.22,1.82,42.64,4.49,63.39.32,2.45,2.75,3.48,4.86,2.05Z"/>
                <path class="cls-21" d="M366.91,146.2c.95,1.87,2.96,2.64,4.34,1.68,16.48-11.35,27.1-19.39,31.52-26.92.82-1.4-1.13-5.01-3.21-6.06-18.45-9.27-28.07-11.95-47.17-12.14-1.83-.02-3.04,2.41-2.38,4.58,2.55,8.34,7.89,21.2,16.89,38.84Z"/>
                <path class="cls-6" d="M372.49,151.43c-1.17.8-1.47,2.7-.62,4.3,6.57,12.32,14.7,26.57,24.34,42.34,1.02,1.67,2.83,2.46,4.13,1.81,17.54-8.73,34.32-14.32,47.93-14.91.6-.03.88-.49.78-1.25-.71-5.42-1.46-10.27-2.19-14.53-.15-.87-.3-1.71-.44-2.54-1.62-9.04-3.1-15.07-3.68-18.26-.17-.91-2.2-3.69-3.68-5.09-11.75-11.14-17.92-15.92-30.55-23.46-.73-.44-1.26-.36-1.43.19-2.87,8.99-14.48,17.75-34.58,31.41Z"/>
                <path class="cls-4" d="M278.38,143.44c-.62,1.13-1.25,2.3-1.88,3.5-14,26.4-25.66,54.06-35.68,81.86-1.24,3.43,1.41,5.17,4.74,3.04,10.87-6.98,22.18-14.36,33.48-21.81,1.31-.86,2.61-1.73,3.92-2.59,11.09-7.34,22.11-14.71,32.63-21.79,1.85-1.25,2.95-3.67,2.65-5.77-3.1-21.97-5.31-44.64-3.99-66.78.1-1.72-.87-2.54-2.34-1.93-8.72,3.62-13.07,5.91-21.63,11.31.22.33.33.5.55.84-2.97,3.56-7.24,10.56-12.44,20.11Z"/>
                <path class="cls-8" d="M186.46,432.08c-7.76-14.41-14.29-25.85-19.3-32.24,1.04,13.35,1.99,19.85,4.62,32.43,4.37.21,9.29.17,14.68-.18Z"/>
                <path class="cls-10" d="M186.94,426.36c1.69,3.12,5.2,5.27,8.18,4.94,19.62-2.19,40.4-7.45,58.93-14,1.35-.48,2.69-.95,3.99-1.42,4.71-1.71,8.99-3.4,12.63-4.98,3.74-1.62,5.17-6.4,3.11-10.34-12.48-23.91-24.51-48.23-36.27-72.53-.84-1.75-2.41-2.91-4.29-3.2-4.63-.71-9.13-1.43-13.45-2.13-1.31-.21-2.6-.43-3.88-.64-14.14-2.35-26.11-4.59-34.69-6.86-3.82-1.01-8.66,2.5-9.43,6.78-3.48,24.07-5.18,45.72-5.1,70.05.07,1.48.7,2.94,1.74,4.19,4.85,5.77,11.11,16.43,18.53,30.15Z"/>
                <path class="cls-5" d="M176.11,309.63c6.99,2.6,19.45,4.96,35.42,7.57,2.33.38,4.88-1.72,5.17-4.29.71-6.28,1.81-13.32,3.28-20.88.14-.74.08-1.46-.17-2.03-4.75-10.64-8.84-20.29-12.2-28.78-.47-1.19-2.03-1.28-3.73-.27-6.22,3.72-11.97,7.09-17.16,10.07-1.48.85-2.77,2.34-3.22,3.73-4,12.48-5.76,18.91-8.69,32.06-.3,1.33.2,2.42,1.3,2.83Z"/>
                <path class="cls-7" d="M275.12,143c.71.16,2.35-1.27,3.25-2.84,2.88-5.02,5.47-9.27,7.72-12.64,1.23-1.84,1.05-3.02-.29-2.11-4.79,3.24-7.16,5-11.85,8.77-1.35,1.08-3.04,3.45-2.97,4.19.25,2.84,1.67,4.08,4.15,4.63Z"/>
                <path class="cls-12" d="M212.46,252.67c6.19-3.81,12.76-7.91,19.58-12.23,1.32-.83,2.42-2.24,2.9-3.58,10.56-29.82,23.15-59.34,38.35-87.57.8-1.48.85-2.57.14-2.69-3.71-.61-5.63-2.31-5.28-6.84.04-.5-.45-.36-1.3.4-8.82,7.78-13.13,12.13-21.4,21.62-1.21,1.39-3.04,3.54-4.08,4.8-15.77,19.09-28.97,40.24-39.7,62.53-.28.58-.38,1.05-.29,1.38,1.59,5.87,4.04,13.21,7.37,21.99.43,1.14,1.99,1.25,3.7.2Z"/>
                <path class="cls-8" d="M188.91,266.88c4.3-2.53,8.96-5.31,13.93-8.33,1.56-.94,2.64-2.82,2.25-3.85-2.07-5.49-3.78-10.4-5.14-14.72-.42-1.34-3.61.75-4.54,2.91-3.81,8.89-5.6,13.46-8.87,22.81-.55,1.57.67,2.19,2.37,1.19Z"/>
                <path class="cls-8" d="M437,385.29c-16.45,11.72-32.79,23.64-49.01,35.69-1.21.9-2.42,1.79-3.62,2.69-20.92,15.61-42.01,31.27-62.22,47.84-2.4,1.97-2.96,5.47-1.42,8.4,8.92,16.92,16.82,32.34,23.41,45.92,1.02,2.1,3.06,3.47,5.34,3.57,6.17.25,12.24.27,18.16.09,1.49-.05,2.98-.1,4.46-.18,18.95-.93,36.13-4.01,50.2-7.9,3.11-.86,5.95-3.92,6.55-7.04,2.45-12.67,5.01-26.6,7.52-41.49.22-1.33.45-2.67.67-4.01,1.47-8.9,2.91-18.11,4.29-27.57.22-1.5.43-3,.65-4.51,2.06-14.57,3.94-29.68,5.49-44.97.6-5.98-5.66-9.93-10.45-6.52Z"/>
                <path class="cls-9" d="M449.56,368.11c.56-7.32,1.02-14.56,1.45-21.57,1.14-18.58,1.97-37.14,2.39-54.88.03-1.43-.48-2.96-1.42-4.26-6.21-8.6-12.35-17.27-18.27-25.84-.88-1.27-1.75-2.54-2.62-3.8-2.08-3.03-4.13-6.04-6.15-9.02-8.43-12.48-16.78-25.32-24.6-37.86-1.67-2.67-4.58-3.88-6.72-2.73-15.31,8.27-30.49,18.1-42.37,26.33-1.55,1.08-3.01,2.13-4.43,3.14-3.31,2.37-6.28,4.56-8.81,6.47-1.97,1.49-2.92,4.18-2.33,6.69,3.95,16.81,8.47,34.27,13.28,51.55.44,1.58.88,3.15,1.32,4.72,2.53,9,5.18,17.92,7.83,26.65.46,1.53.93,3.07,1.4,4.58,7.41,23.9,14.94,47.98,23.96,71.43,1.41,3.66,5.67,4.87,8.79,2.56,18.11-13.41,36.39-26.69,54.83-39.66,1.43-1.01,2.34-2.66,2.48-4.5Z"/>
                <path class="cls-16" d="M445.11,465.93c5.22-2.27,11.04-5.37,16.34-8.54,2.01-1.2,2.53-3.85.93-4.79-4.81-2.84-9.44-5.46-13.53-7.61-1.72-.9-4.17.58-4.5,2.74-.84,5.44-1.7,10.74-2.56,15.89-.33,1.99,1.38,3.15,3.31,2.31Z"/>
                <path class="cls-3" d="M457.09,301.8c-.37,14.3-1.03,29.49-1.97,45.39-.28,4.71-.57,9.39-.9,14.16-.18,2.66,2.56,4.47,4.59,3.07,11.76-8.15,22.57-15.15,32.1-20.92,1.36-.82,1.54-2.75.4-4.18-9.43-11.85-19.39-24.82-29.34-38.27-1.72-2.32-4.81-1.87-4.88.75Z"/>
                <path class="cls-16" d="M347.57,532.99c2.23,4.7,4.28,9.15,6.16,13.36,4.55-5.03,8.35-9.56,11.12-13.13-5.63.12-11.41.05-17.28-.23Z"/>
                <path class="cls-20" d="M442.6,189.43c-11.32,1.82-24.32,6.49-37.81,13.01-2.41,1.16-2.85,4.87-.88,8,7.3,11.6,15.31,23.84,23.87,36.46,1.27,1.87,2.54,3.74,3.81,5.59,1.67,2.44,4.37,3.78,6.58,3.3,3.55-.78,7.62-1.33,11.7-1.25,2.24.04,3.74-1.47,3.7-3.84-.35-20.13-1.41-38.05-2.89-52.89-.38-3.82-5.17-8.84-8.08-8.37Z"/>
                <path class="cls-16" d="M453.67,258.69c-5.79-.51-11.85.56-16.53,1.84,5.51,7.92,11,15.65,16.42,23.13.14-8.57.17-16.92.11-24.97Z"/>
                <path class="cls-16" d="M461.6,185.98c-3.28-4.57-7.77-9.69-11.62-13.7.69,3.72,1.39,7.92,2.07,12.63,3.38.07,6.56.43,9.55,1.07Z"/>
                <path class="cls-22" d="M452.75,173.17c2.61,2.85,5.35,6.02,7.84,9.18,1.94,2.46,4.28,4.43,5.73,4.91,4.02,1.31,7.66,3.12,11,5.25,1.51.96,1.68.31.45-1.62-5.7-8.91-8.69-13.16-14.9-21.15-1.63-2.1-4.48-5.63-6.36-7.86-3.7-4.39-5.58-6.5-9.42-10.54-1.22-1.29-1.9-1.72-1.84-1.15.24,2.08,1.78,7.4,3.67,16.66.32,1.59,1.83,4.16,3.83,6.34Z"/>
                <path class="cls-19" d="M253,507.84c25.6,10.31,52.57,17.45,80.02,20.35,3.78.4,6.34-3.57,4.57-7.14-6.53-13.11-14.16-27.77-22.64-43.68-.68-1.27-1.36-2.55-2.05-3.83-6.59-12.34-13.65-25.37-20.92-38.87-.9-1.67-2.5-2.86-4.27-3.19-10.78-2-21.16-4.5-28.17-9.12-1.47-.97-3.2-1.24-4.69-.72-18.28,6.38-38.87,11.47-58.22,13.44-2.59.26-3.56,2.82-2.12,5.58,4.57,8.74,9.44,18.2,14.41,27.93.65,1.26,1.29,2.53,1.94,3.8,3.03,5.95,6.09,11.98,9.13,17.97.89,1.76,2.55,3.45,4.31,4.36,7.7,3.96,16.03,7.88,24.86,11.56,1.27.53,2.55,1.05,3.83,1.57Z"/>
                <path class="cls-16" d="M287.93,427.13c-2.75-5.12-5.53-10.3-8.31-15.52-4.3,2.18-10.43,4.81-17.64,7.49,6.31,3.93,16.14,6.24,25.95,8.03Z"/>
                <path class="cls-17" d="M241.8,321.82c25.85,3.69,51.94,7.17,77.8,9.86,2.25.23,4.48-.89,5.86-2.91,5.14-7.49,11.94-15.02,17.18-20.35,1.81-1.84,2.48-4.62,1.79-7.17-6-22.22-11.75-44.72-16.54-67.32-.41-1.96-1.64-3.46-3.3-4.09-15.28-5.75-31.53-11.97-40.62-16.78-1.38-.73-3.24-.48-5.01.68-13.18,8.6-26.35,17.06-38.83,24.92-2.05,1.29-3.75,3.43-4.42,5.59-4.64,14.84-8.48,29.63-11.19,43.19-.24,1.17-.13,2.27.28,3.2,3.98,8.84,8.38,18.33,13.13,28.32.74,1.56,2.15,2.62,3.88,2.86Z"/>
                <path class="cls-16" d="M316.23,189.15c-8.12,5.41-16.53,10.99-25.04,16.58-2.18,1.44-2.75,4.64-.91,5.47,7.81,3.55,19.21,8.03,30.62,12.49,2.15.84,4.55-1.62,4.05-4.15-1.99-10.15-3.71-19.83-5.13-28.92-.29-1.83-2-2.52-3.59-1.47Z"/>
                <path class="cls-16" d="M234,320.68c-4-8.4-7.74-16.44-11.19-24.03-1.36,8-2.28,15.4-2.77,21.9,4.47.7,9.14,1.41,13.97,2.12Z"/>
                <path class="cls-4" d="M228.08,499.53c-2.18-1.12-3.41.09-2.32,2.25,3.48,6.91,6.87,13.7,10.1,20.2,1.25,2.51,4.46,4.47,5.21,3.1,1.95-3.57,4.11-8.41,5.93-12.98.59-1.46-1.01-4.04-3.12-4.99-5.48-2.46-10.76-5.01-15.8-7.59Z"/>
                <path class="cls-16" d="M333.72,242.29c2.31-1.79,5.1-3.88,8.27-6.2-3.2-1.06-6.73-2.31-10.46-3.67.71,3.26,1.44,6.55,2.19,9.87Z"/>
                <path class="cls-16" d="M202.82,482.62c4.44,2.74,9.26,5.55,14.43,8.36-2.94-5.7-5.91-11.42-8.85-17.09-3.39,2.33-6.27,5.41-5.58,8.73Z"/>
                <path class="cls-5" d="M347.73,231.97c12.05-8.56,28.16-19.05,44.25-27.75,1.74-.94,2.07-3.54.76-5.7-8.74-14.44-16.56-28.16-23.05-40.39-1.04-1.96-3.08-2.72-4.6-1.7-11.58,7.75-25.06,16.82-39.84,26.71-1.54,1.03-2.45,3.04-2.16,4.86,1.85,11.52,4.16,24.04,6.92,37.25.28,1.33,1.13,2.39,2.28,2.82,4.45,1.67,8.63,3.2,12.26,4.41,1.07.36,2.22.17,3.18-.52Z"/>
                <path class="cls-16" d="M332.94,332.85c6.37.49,12.17.8,17.17.9,1.79.04,3.09-1.86,2.53-3.73-1.52-5.1-3.02-10.25-4.49-15.45-.57-2.01-2.85-2.66-4.24-1.21-4.01,4.17-8.72,9.43-12.75,14.82-1.36,1.81-.34,4.52,1.78,4.68Z"/>
                <path class="cls-6" d="M281.15,405.65c.69,1.32,1.39,2.64,2.09,3.96,3.28,6.2,6.55,12.35,9.79,18.42.48.9.95,1.79,1.43,2.68,6.35,11.87,12.55,23.4,18.42,34.42,1.6,3,5.31,3.97,7.74,1.98,19.03-15.54,38.78-30.32,58.43-45.03,2.04-1.53,2.86-4.31,1.93-6.71-9.84-25.18-17.81-51.11-25.83-76.98-.72,0-1.44,0-2.21,0-7.39-.08-16.75-.68-27.4-1.65-1.52-.14-3.06-.28-4.64-.44-23.04-2.25-46.04-5.41-68.89-8.67-4.25-.61-7.83,4.42-5.9,8.38,11.37,23.34,23,46.66,35.03,69.63Z"/>
              </g>
            </g>
            <g>
              <path class="cls-18" d="M349.86,100c-82.78,0-174.18,115.98-184.53,257.73-10.05,137.71,82.62,242.27,184.53,242.27s196.53-104.72,184.53-242.27c-12.07-138.32-98.3-257.73-184.53-257.73Z"/>
              <path class="cls-11" d="M349.63,600c28.6,0,55.67-8.27,79.85-22.97,15.96-60.76,5.46-139.19-33.95-212.92-45.35-84.85-117.15-141.34-184.96-153.6-28.63,41.83-45.99,106.03-45.99,165.36,0,129.61,82.85,224.13,185.05,224.13Z"/>
              <ellipse class="cls-23" cx="376.7" cy="284.22" rx="114.08" ry="167.2"/>
            </g>
          </g>
        </g>
      </g>
    </g>
  </g>
</svg>