<?xml version="1.0" encoding="UTF-8"?>
<svg xmlns="http://www.w3.org/2000/svg" xmlns:xlink="http://www.w3.org/1999/xlink" viewBox="0 0 700 700">
  <defs>
    <style>
      .cls-1 {
        fill: #e7bdc8;
      }

      .cls-1, .cls-2, .cls-3, .cls-4, .cls-5, .cls-6, .cls-7, .cls-8, .cls-9, .cls-10, .cls-11, .cls-12 {
        stroke-width: 0px;
      }

      .cls-2 {
        fill: none;
      }

      .cls-3 {
        fill: #c683a4;
      }

      .cls-4 {
        fill: #809cc4;
      }

      .cls-5 {
        fill: #4f678a;
      }

      .cls-6 {
        fill: url(#_Безымянный_градиент_16);
      }

      .cls-6, .cls-12 {
        mix-blend-mode: screen;
      }

      .cls-7 {
        fill: #1d0d2b;
      }

      .cls-8 {
        fill: #a2b3e2;
      }

      .cls-9 {
        fill: url(#_Безымянный_градиент_140);
        mix-blend-mode: multiply;
      }

      .cls-13 {
        isolation: isolate;
      }

      .cls-10 {
        fill: #223a67;
      }

      .cls-11 {
        fill: #93436b;
      }

      .cls-12 {
        fill: url(#_Безымянный_градиент_139);
      }
    </style>
    <radialGradient id="_Безымянный_градиент_140" data-name="Безымянный градиент 140" cx="680.66" cy="522.09" fx="680.66" fy="522.09" r="320.28" gradientTransform="translate(-321.6 -353.8) scale(1.1 1.3)" gradientUnits="userSpaceOnUse">
      <stop offset=".36" stop-color="#f1f2f2" stop-opacity="0"/>
      <stop offset=".42" stop-color="rgba(220, 221, 222, .15)" stop-opacity=".15"/>
      <stop offset=".59" stop-color="rgba(172, 173, 175, .52)" stop-opacity=".52"/>
      <stop offset=".74" stop-color="rgba(137, 138, 141, .78)" stop-opacity=".78"/>
      <stop offset=".87" stop-color="rgba(116, 117, 120, .94)" stop-opacity=".94"/>
      <stop offset=".97" stop-color="#6d6e71"/>
    </radialGradient>
    <radialGradient id="_Безымянный_градиент_16" data-name="Безымянный градиент 16" cx="521.33" cy="313.39" fx="521.33" fy="313.39" r="424.94" gradientTransform="translate(0 -42.21) scale(1 1.03)" gradientUnits="userSpaceOnUse">
      <stop offset=".68" stop-color="#221e1f" stop-opacity="0"/>
      <stop offset=".71" stop-color="rgba(46, 42, 43, .06)" stop-opacity=".06"/>
      <stop offset=".77" stop-color="rgba(79, 76, 77, .23)" stop-opacity=".23"/>
      <stop offset=".86" stop-color="rgba(133, 132, 133, .51)" stop-opacity=".51"/>
      <stop offset=".97" stop-color="rgba(206, 206, 207, .88)" stop-opacity=".88"/>
      <stop offset="1" stop-color="#e6e7e8"/>
    </radialGradient>
    <radialGradient id="_Безымянный_градиент_139" data-name="Безымянный градиент 139" cx="741.02" cy="864.27" fx="741.02" fy="864.27" r="106.23" gradientTransform="translate(-419.06 -1076.07) scale(1.07 1.57)" gradientUnits="userSpaceOnUse">
      <stop offset="0" stop-color="#f1f2f2"/>
      <stop offset="1" stop-color="#221e1f" stop-opacity="0"/>
    </radialGradient>
  </defs>
  <g class="cls-13">
    <g id="_Слой_2" data-name="Слой 2">
      <g id="_Слой_3" data-name="Слой 3">
        <g>
          <rect class="cls-7" width="700" height="700"/>
          <g>
            <g>
              <path class="cls-10" d="M534.38,357.73c12.01,137.55-82.62,242.27-184.53,242.27s-194.58-104.56-184.53-242.27c10.35-141.75,101.75-257.73,184.53-257.73s172.45,119.42,184.53,257.73Z"/>
              <g>
                <g>
                  <path class="cls-10" d="M473.3,543.1c-78.15,72.44-169.17,73.18-247.54.85-92.61-113.08-69.59-269.55,14.19-381.08,73.38-76.98,145.03-77.74,218.04.49,83.35,111.09,109.21,267.39,15.3,379.74Z"/>
                  <path class="cls-1" d="M454.05,536.31c7.11-9.31,13.44-9.14,9.74-2.02-1.92,3.7-8.12,12.13-14.91,19.74-8.39,9.4-5.69,13.82,1.85,8.48,6.97-4.93,16.44-14.57,26.53-26.26,14.83-17.19,17.39-30.81,9.96-39.42-10.96-12.71,23.5-50.68,39.84-59.85.53-.3,1.04-.63,1.55-.95,4.72-20.4,6.66-43.44,5.57-64.33-24.32-7.78-46.97,9.67-58.87,29.5-14.66,24.44-6.91,52.57-6.11,78.43,1.04,33.77-32.09,66.43-54.6,87.11-14.68,13.49-37.39,15.92-48.72,32.86,19.37-1.87,41.26-8.94,58.21-18.46,15.61-18.74,21.58-33.86,29.96-44.82Z"/>
                  <path class="cls-8" d="M354.52,196.37c-21.76,5.12-46.53-1.47-65.31-8.74-23.72-9.18-47.67,4.78-65.08,18.38-9.79,7.65-19.73,19.04-28.31,29.72-10.55,23.99-18.47,49.12-23.7,74.8,2.78,8.98,7.83,15.57,13.39,15.87,13.61.73,9.78-9.42,4.22-20.65-5.56-11.23.59-20.73,8.7-22.4,8.11-1.68,4.68,30.33,15.55,49.8,14.99,26.86,49.62,26.75,75,22.28,26.03-4.59,15.1-39.03-6.85-40.06-22.83-1.07-33.92-23.48-28-40.25,12.29-34.86,59.62-35.37,84.93-15.9,26,20,75.79-4.54,72.01-37.55-3.1-27.09-35.32-30.28-56.54-25.29Z"/>
                  <path class="cls-4" d="M220.06,314.77c1.73,12.57,13.32,30.35,37.39,31.2,24.07.86,47.53-18.08,26.99-21.11-17.89-2.65-42.81-18.76-44.18-37.83-1.24-17.3,13.98-39.47,30.11-46.95,9.54-4.43,14.19-15.79,10.54-29.72-1.89-7.23-6.94-14.87-18.16-15.29-23.58-.87-52.73,25.61-64.34,46.81-7.1,12.98.56,7.81,19.31-5.45,24.49-17.31,30.78-1.49,16.27,22.51-9.01,14.91-16.4,37.98-13.94,55.82Z"/>
                  <path class="cls-5" d="M305.59,204.19c7.32,4.85,34.11,6.86,52.55.17,30.64-11.12,39.92-.46,37.3,17.44-2.61,17.9-17.83,30.21-37.1,29.25-12.98-.64-15.96-13.28-3.74-12.73,21.04.95,21.93-23.18,7.87-17.17-19.04,8.15-43.46,19.27-62.59,12.13-9.68-3.62-13.2-16.58-9.87-25.81,1.93-5.36,5.74-9.81,15.58-3.29Z"/>
                  <path class="cls-4" d="M504.34,305.77c-28.62,7.27-28.01,54.09-70.46,61.39-36.15,6.21-77.41,27.09-104.28,52.93-28.28,27.18-40.87,81.53-9.49,110.6,20.58,19.06,60.04,19.95,74.75-8.3,10.95-21.03-6.53-41.1-6.1-60.95.39-18.19,13.38-32.51,34.65-29.88,26.97,3.33,21.74-24.48,9.65-32.85-12.09-8.36-16.51-21.94,6.04-19.03,29.27,3.78,71.67-10.02,82.96-40.19,7.47-19.95-5.22-36.88-17.72-33.71Z"/>
                  <path class="cls-3" d="M336.08,285.71c4.61,21.07.92,42.34,8,62.03,5.57,15.49,20.6,17.56,29.05,12.53,8.45-5.04,20.56,10.86.76,18.18-28.57,10.56-58.8,24.05-79.6,47.21-25.14,27.99-24.57,65.54-13.41,94.83,11.54,30.27-15.01,30.7-29.86,15.33-19.92-20.61-31.56-52.84-18.76-80.25,10.61-22.73,27.03-34.75,13.6-47.42-13.44-12.67-30.15-37.65-4.53-42.28,25.62-4.64,24.95,16.62,51.29,12.39,32.15-5.16,43.77-85.14,9.21-79.69-25.5,4.02-45.54-3.92-39.17-18.44,14.16-32.28,65.81-29.23,73.43,5.59Z"/>
                  <path class="cls-11" d="M449.87,470.29c-1.01-25.61-38.51-37.11-48.16-18.07-11.84,23.35,21.48,57.07.13,88.08-15.45,22.45-47.57,29.67-67.58,10.67-18.36-17.43-37.22-14.03-40.01,3.16-2.79,17.18-19.87,16.11-41.53-5-15.76-15.36-33.48-23.3-36.41-19.38-1.25,1.66,3.9,7.86,12.27,17.14,27.4,29.06,66.39,49.17,106.2,53.02,9.46-7.03,24.13-14.03,48.22-24.06,39.27-16.36,68.51-63.94,66.87-105.55Z"/>
                  <path class="cls-4" d="M190.27,467.66c-1.76,2.96-5.15,5.32-7.19,8.01,3.97,9.85,6.2,14.6,11.09,23.69,12.48,13.02,26.68,24.09,31.01,22.27,8.74-3.68-8.91-23.37-12.14-46.03-1.93-13.53,1.27-23.22,8.86-38.87,9.56-19.73-13.6-47.14-8.46-69.27,6.9-29.72-28.69-33.71-46.71-22.37-1.79,25.16-1.66,46.94.75,72.02,16.12,19.75,29.82,38.78,22.8,50.56Z"/>
                  <path class="cls-4" d="M411.95,132.78c5.59,12.88,18.96,53.61,4.59,54.57-6.43.43-9.6-13.87-6.79-23.08,3.6-11.77,2.64-24.12-6.19-42.21-1.38-2.83-2.9-5.68-4.57-8.48-5.88-3.03-8.86-4.34-14.84-6.52,12.04,13.88,18.47,38.25,13.51,55.84-4.85,17.23-5.76,30.41,9.1,32.89,14.87,2.48,22.2,9.69,26.03,29.47,3.83,19.78-3.57,33.46-22.6,35.31-24.32,2.36-42,22.08-41.33,46.87.73,27.06,22.17,49.05,47.39,45.65,26.75-3.61,61.75-29.86,74.5-56.76,10.83-22.85,7.43-48.65-6.41-69.27-14.56-21.69-29.63-26.71-32.32-44.08-2.69-17.37,3.97-12.67.99-20.68-1.46-3.93-4.71-8.77-8.51-14.03-13.61-13.99-20.85-19.96-35.72-29.14-.28,3.35.8,8.24,3.15,13.64Z"/>
                  <path class="cls-3" d="M314.32,116.38c-15.83,17.38-23.76,29.33-33.55,35.16-6.79,4.04-6.17-1.56-4.55-5.48,1.75-4.25,5.86-10.14,9.45-10.93,6.48-1.44,16.05-8.39,20.47-17.19,1.59-3.17,2.35-6.31,1.38-8.28-20.36,8.51-36.06,22.26-52.35,36.68-8.44,9.54-16.62,19.21-24.18,28.07-11.08,15.05-16.28,23.39-25.56,41.25,2.5-1.57,5.74-4.2,9.28-7.88,13.54-14.08,42.03-45.98,60.38-37.5,12.94,5.98,26.7,18.99,33.94,8.01,4.83-7.32-1.5-11.8,3.46-30.09,5.42-19.97,32.46-31.82,36.4-13.11,3.94,18.71-4.51,32.96,1.62,41.49,8.14,11.31,25.52,7.28,35.18-8.08,12.05-19.16,7.06-47.52-9.71-64.06-18.11-5.1-27.26-5.56-45.16-2.08-5.92,3.69-11.58,8.62-16.51,14.04Z"/>
                  <path class="cls-3" d="M323.94,579.63c13.59,7.93,26.48,2.47,31.72-1.96,5.24-4.42,6.02-10.3-3.24-7.71-16.77,4.7-33.94-19.83-44.17-13.69-10.23,6.14-5.54,18.39-18.72,21.27-13.26,2.89-26.65-10.47-45.07-29.88-14.29-15.06-24.33-16.5-18.88-7.52,2.51,4.14,9.03,11.35,16.21,19.04,15.45,13.68,36.39,26.03,56.01,32.55,2.27-1.11,4.54-2.74,6.83-5.03,7.44-7.43,4.19-15.9,19.31-7.08Z"/>
                  <path class="cls-3" d="M424.88,526.26c6.92-17.88,11.81-68.91-4.52-74.24-9.7-3.16-15.16,11.76-9.67,23.5,9.99,21.35,13.37,56.43-7.04,70.75-14.51,10.17-5.78,12.29,2.15,7.15,7.93-5.14,13.48-12.71,19.08-27.16Z"/>
                  <path class="cls-3" d="M471.4,365.4c18.41-1.23,41.18-16.79,42.84-32.32,1.66-15.52-6.27-23.13-12.44-19.24-6.16,3.89-18.09,33.59-28.48,40.6-10.39,7.01-12.16,11.65-1.92,10.96Z"/>
                  <path class="cls-8" d="M366.46,416.73c-21.25,18.33-54.67,74.13-25.57,98.43,20.5,17.12,43.09-8.69,41.96-29.23-1.15-20.89-5.41-36.55,1.48-47.48,9.41-14.92,21.61-19.16,33.57-19.38,12.16-.22,8.52-24.93-7.51-23.16-16.03,1.76-28,7.08-43.93,20.82Z"/>
                  <path class="cls-3" d="M505.82,388.08c-22.93,12.87-33.37,48.01-25.6,73.24,3.03,9.83,8.91,5.81,11.99-3.5,5.05-15.28,27.24-30.39,40.03-42.65,1.36-10.42,1.78-15.76,2.06-26.64-6.51-4.43-18.1-6.29-28.48-.46Z"/>
                  <path class="cls-11" d="M229.14,241.55c-2.31-7.88-32.26,8.44-45.37,25.43-2.63,7.87-3.84,11.89-6.06,20.04,1.68,2.53,5,2.9,8.02.1,8.3-7.68,14.67-10.93,21.76-11.41,11.32-.77,23.03-29.5,21.66-34.16Z"/>
                  <path class="cls-3" d="M480.95,199.44c-2.62-5.38-3.38-7.92-3.7-9.6-7.29-11.31-11.17-16.64-19.25-26.46-3.55-4.31-5.36-6.4-9.03-10.39,4.42,6.35,13.99,17.47,11.14,19.26-3.78,2.38-7.25,14.65,11.82,34.4,14.81,15.34,36.76,38.11,35.19,59.27-1.08,14.51-2.3,33.74,13.6,40.15,1.69.68,3.21.83,4.58.61-7.71-29.75-17.28-57.13-30.05-85.08-6.34-8.65-11.6-16.58-14.31-22.14Z"/>
                  <path class="cls-8" d="M324.53,181.96c-7.65-5.63-9.14-27.81.7-38.94,9.84-11.13,17.62-9.36,19.06,2.61,1.44,11.97.97,25.42-4.62,32.61-3.56,4.58-9.82,7.64-15.15,3.72Z"/>
                  <path class="cls-1" d="M465.29,179.23c-1.73,2.58-1.73,11.72,9.73,25.03,11.46,13.32,16.39,15.51,11.21,7.48-5.17-8.03-12.32-20.88-11.97-23.57.35-2.69-7.19-11.6-8.97-8.94Z"/>
                  <path class="cls-4" d="M497.66,489.82c.06,5.88,3.94,7.79,9.98,4.56,8.2-15.82,11.67-24.34,16.89-42.31-12.35,6.58-26.99,26.83-26.88,37.76Z"/>
                  <path class="cls-8" d="M418.78,125.83c-1.68,4.34,4.09,21.78,13.24,33.03,11,13.53,12.87-.8,7.34-12.06-1.4-2.86-2.95-5.48-4.53-7.89-6.29-5.71-9.51-8.34-16.05-13.08Z"/>
                  <path class="cls-11" d="M231.82,175.97c-16.39,19.77-23.61,30.74-13.15,23.3,10.45-7.44,22.12-23.99,28.32-31.46,15.05-18.12,26.04-29.56,33.05-33.16,5.87-3.02,13-8.82,15.36-15.34.73-2.02.84-3.28.55-4-8.1,4.43-12.12,7.04-19.99,12.97-15.87,14.47-30.5,31.26-44.13,47.69Z"/>
                  <path class="cls-11" d="M442.96,218.53c8.97,27.69-5.39,46.42-32.65,51.83-22.57,4.48-44.12,35.37-24.47,53.49,23.46,21.63,71.67.09,79.23-29.58,7.66-30.08,5.02-65.48-17.09-92.09-8.03-9.67-11.01-2.14-5.02,16.35Z"/>
                  <path class="cls-3" d="M475.97,502.49c-2.13,6.71,16.17,4.96,9.81,16.8-8.81,16.41-21.5,30.37-26.16,28.15-2.69-1.28,14.98-20.48,14.07-25.13-.92-4.66-7.69-5.68-4.66-14.24,3.04-8.56,8.76-11.29,6.94-5.58Z"/>
                  <path class="cls-11" d="M501.38,412.91c-4.07,8.78-18.96,17.77-17.71,31.92.72,8.13,9.96-3.02,12.54-7.78,6.88-12.72,15.61-14.62,25.78-20.27,10.17-5.64,8.57-20.26.24-15.41-8.33,4.86-11.67,1.73-7.68-2.44,3.99-4.16,5.7-10.5-5.98-5.16-11.68,5.34-14.67,15.72-12.57,15.52,2.1-.2,7.84-1.68,5.39,3.62Z"/>
                  <path class="cls-1" d="M243.01,471.06c-3.17,18.1,4.07,49.61,20.81,56.02,10.3,3.94,6.03-18.51,3.48-37.33-3.42-25.27.34-59.59,22.32-76.76,12.16-9.5,5.78-16.06-9.2-5.15-19.18,13.97-33.36,40.14-37.41,63.23Z"/>
                  <path class="cls-1" d="M251.23,374.35c-9.91.19-15.35,5.48-9.58,15.05,5.78,9.57,19.82,7.16,21.39-.02,1.57-7.18-.97-15.24-11.82-15.03Z"/>
                  <path class="cls-10" d="M294.93,266.56c-15.47,2.02-28.61,20.74-13.29,20.29,15.32-.45,34.33-3.33,39.08,7.31,4.75,10.63,4.89,26.57,9.1,24.04,4.21-2.53,2.89-13.09-.85-28.05-3.79-15.2-9.19-26.84-34.04-23.59Z"/>
                  <path class="cls-4" d="M348.41,289.96c-3.24,9.57-5.28,42.86,5.42,52.84,6.97,6.5,16.45.76,12.68-11.42-3.77-12.18-8.76-33.06-3.25-43.02,5.51-9.97-9.54-14.05-14.85,1.6Z"/>
                  <path class="cls-10" d="M239.78,208.57c-10.57,4.95-18.55,14.45-8.22,10.94,10.33-3.51,27.34.04,19.47,13.47-7.87,13.43,10.01,6.43,15.64-4.52,8.24-16.05-5.98-29.67-26.88-19.88Z"/>
                  <path class="cls-3" d="M172.44,401.5c-6.97-21.87-1.12-42.04,9.36-45.23,10.48-3.19,19.66,8.2,15.29,19.99-4.37,11.79-2.58,25.31,3.74,34.66,6.32,9.34-.54,16.71-10.07,13.57-9.53-3.14-14.97-12.48-18.32-22.99Z"/>
                  <path class="cls-8" d="M205.56,482.9c8.53,15.71,13.8,30.87,4.21,24.26-9.59-6.61-16.75-13.26-15.56-22.98,1.19-9.72,7.53-8.33,11.35-1.29Z"/>
                  <path class="cls-3" d="M210.11,428.69c-9.45-.81-17.45,5.88-14.18,13.57,3.26,7.69,8.03,5.57,12.61-.47,4.58-6.04,7.83-12.56,1.58-13.1Z"/>
                  <path class="cls-1" d="M326.89,356.57c-.49,5.94-9.64,20.18-18.52,28.33-5.74,5.27,1.34,10.05,8.92,4.02,9.99-7.94,19.39-8.09,29.11-11.46,6.29-2.18,3.23-9.13-2.08-9.61-6.9-.63-8.38-10.65-8.55-13.48-.32-5.43-8.19-6.14-8.89,2.19Z"/>
                  <path class="cls-3" d="M230.25,308.81c.46,13.12,14.61,28.65,32.03,28.47,9.82-.1,8.02-9.21.93-11.62-7.08-2.41-21.27-14.44-24.89-22.37-3.62-7.93-8.36-2.66-8.08,5.52Z"/>
                  <path class="cls-10" d="M333.45,217.62c-8.88,2.61-20.76-.92-25.38-4.78-4.62-3.85-12.45,3-7.5,9.62,4.96,6.62,24.78,6.19,34.41,1.25,6.07-3.12,7.28-8.68-1.53-6.09Z"/>
                  <path class="cls-3" d="M418.07,228.46c-.35-4.71-2.11-11.54-4.77-17.38-2.66-5.84,3.19-7.2,8.34,1.39,7.8,13.01,7.31,31.59-3.32,36.82-7.08,3.49-8.82-2.1-5.24-6.05,3.58-3.95,5.35-9.84,4.98-14.77Z"/>
                  <path class="cls-5" d="M331.35,155.9c.11-4.35,2.93-10.03,6.26-12.24,3.33-2.21,6.4,11.11,1.5,18.42-4.9,7.31-7.97,1.63-7.76-6.19Z"/>
                  <path class="cls-11" d="M335.33,109.02c22.25-14.21,36.85,1.18,40.35,15.45,3.51,14.26-4.33,42.81-13.93,45.23-9.61,2.42-6.04-10.55-4.07-18.73,5.63-23.38-12.64-33.78-19.87-31.78-7.23,2-10.94-4.78-2.48-10.18Z"/>
                  <path class="cls-1" d="M314.34,132.24c-9.29,7.86-9.99,29-9.29,34.46.7,5.46-4.09,12.75-10.5,7.9-6.41-4.85-11-8.81-4.08-22.76,4.9-9.87,15.32-23.85,23.08-26.78,7.76-2.93,5.12,3.52.79,7.18Z"/>
                  <path class="cls-11" d="M266.94,149.84c-10.14,8.21-24.48,25.27-18.26,22.14,6.22-3.13,14.3-6.17,18.36-14.41,4.06-8.25,5.94-12.62-.11-7.73Z"/>
                  <path class="cls-8" d="M288.44,138.03c-3.77.92-9.11,6.65-9.07,8.35.04,1.7,6.81-1.96,8.7-4.82,1.9-2.86,2.57-4.08.36-3.54Z"/>
                  <path class="cls-8" d="M440.37,169.63c-5.26-1.16-11.54,6.6-9.19,12.43,2.34,5.82,15.81,15.36,14.45,8.04-1.35-7.32-2.32-10.79-1.55-12.96.77-2.16.42-6.6-3.71-7.51Z"/>
                  <path class="cls-1" d="M400.82,282.65c-10.85,9.1-11.58,31.04,6.33,36.23,10.97,3.18,20.03-.3,21.63-15.53,1.57-14.91,4.48-27.11,13.19-25.4,8.7,1.71,2.05,9.72-.75,14.62-2.8,4.89-8.21,9.52-3.36,16.41,4.18,5.92,22.92-8.52,21.08-25.67-1.83-17.15-13.36-18.38-21.32-14.74-7.96,3.64-31.47,9.62-36.79,14.09Z"/>
                  <path class="cls-3" d="M455.75,248.82c-3.65-12.19-11.55-30.68-6.87-33.18,4.68-2.51,12.64,16.55,12,25.15-.65,8.6-3.66,12.94-5.13,8.03Z"/>
                  <path class="cls-8" d="M479.12,279.41c2.26-8.13-4.12-34.27-11.12-48.68-4.82-9.92,3.83-11.31,9.79-1.65,9.8,15.86,16.94,42.41,8.23,57.89-4.93,8.76-9.03.1-6.9-7.56Z"/>
                  <path class="cls-1" d="M355.44,461.68c-15.22,13.05-14.85,39.21-9.16,46.45,6.13,7.8,16.48,8.52,22.3-2.59,5.82-11.12,5.19-26.1,1.9-37.19-2.43-8.19-7.57-13.07-15.03-6.67Z"/>
                  <path class="cls-8" d="M289.94,450.35c-10.03,19.07-11.85,46.28-1.11,64.64,6.81,11.65,16.49,9.97,13.04,1.16-7.7-19.63-11.07-45.76-4.25-65,3.52-9.94-.99-13.52-7.67-.81Z"/>
                  <path class="cls-1" d="M467.16,387.41c-4.95,3.18-8.1,3.1-18.32,2.28-6.05-.49-7.35,8.09-2.03,12.85,7.89,7.06,7.95,17.88,2.33,23.49-5.62,5.62-2.18,14.88,3.71,10.18,5.89-4.69,4.24-11.77,6.21-21.6,1.98-9.82,4.27-16.22,10.56-21.08,6.29-4.86,7.85-12.76-2.47-6.13Z"/>
                  <path class="cls-3" d="M346.61,415.27c-10.55,2.98-23.35,19.31-23.73,28.52-.38,9.21,8.36,5.4,11.62-.34,3.26-5.74,4.88-13.34,11.59-18.06,6.71-4.72,8.96-12.5.52-10.11Z"/>
                  <path class="cls-3" d="M313.63,465.56c-3.89,7.8-5.84,23.16-3.43,29.17,2.41,6.01,12.77,7.28,11.29-4.11-1.48-11.39-2.09-13.13-.12-19.16,1.97-6.03-4.22-12.98-7.74-5.91Z"/>
                  <path class="cls-3" d="M320.58,516.38c5.64,11.7,17.15,20.35,27.95,20.36,10.8,0,9.48-8.14,3.49-8.08-5.99.05-14.45-5.1-22.01-17.45-7.16-11.69-13.81-3.92-9.42,5.17Z"/>
                  <path class="cls-1" d="M379.79,419.59c6.33-9.12,16.46-14.44,25.15-14.67,9.98-.27,8.96,7.7-1.99,9.65-8.41,1.5-14.45,6.82-18.67,11.7-4.23,4.88-8.71-.58-4.48-6.68Z"/>
                  <path class="cls-1" d="M359.93,433.89c-7.24,1.58-6.08,11.51-1.94,12.64,4.14,1.13,11.72-3.29,10.64-9.2-1.08-5.9-4.9-4.28-8.7-3.44Z"/>
                  <path class="cls-11" d="M234.46,412.51c-5.28.87-6.65,13.24-4.62,16.68,2.03,3.43,6.2,3.61,8.59-3.47,2.38-7.08.66-13.97-3.97-13.21Z"/>
                  <path class="cls-10" d="M180.02,376.89c1.43-5.42,9.25-6.74,8.52,2.06-.73,8.81-.7,18.41,2.81,25.58,4.36,8.89,7.6,14.77.62,11.88-6.98-2.89-15.11-27.49-11.95-39.52Z"/>
                  <path class="cls-1" d="M195.66,266.1c3.59-7.73,18.22-20.99,18.57-14.9.36,6.1-.53,12.58-7.86,17.11-7.34,4.53-14.38,5.68-10.71-2.21Z"/>
                  <path class="cls-1" d="M244.3,163.31c-7.29,8.16-19.31,21.57-19.74,24.04-.43,2.47,7.05-3.94,12.68-11.03,5.63-7.09,8.6-11.45,12.3-15.7,5.13-5.89,8.38-8.9,7.88-10.37-.44-1.28-8.24,7.6-13.12,13.06Z"/>
                  <path class="cls-10" d="M367.42,117.97c-7.17-8.51-9.78.37-7.83,4.88,1.95,4.51,7.44,6.08,8.51,3.76,1.08-2.32,2.52-4.83-.69-8.64Z"/>
                  <path class="cls-1" d="M435.01,148.54c-6.05-6.8-8.52-4.1-5.15,2.04,3.37,6.14,7.45,8.62,8.16,6.4.71-2.23.42-4.58-3.01-8.44Z"/>
                  <path class="cls-1" d="M256.1,564.16c-8.12-6.6-20.78-22.3-23.08-21.31-2.29,1,7.9,13.09,15.79,20.19,9.37,8.43,14.93,11.38,14.12,8.2-.81-3.19-1.38-2.66-6.83-7.08Z"/>
                  <path class="cls-2" d="M167.48,417.1c2.52,19.51,8.04,40.39,15.61,58.57,2.04-2.69,5.43-5.05,7.19-8.01,7.02-11.78-6.68-30.81-22.8-50.56Z"/>
                  <path class="cls-2" d="M306.13,117.93c-4.41,8.81-13.98,15.76-20.47,17.19-3.59.8-7.71,6.69-9.45,10.93-1.61,3.92-2.24,9.52,4.55,5.48,9.79-5.83,17.72-17.78,33.55-35.16,4.93-5.41,10.59-10.34,16.51-14.04-9.33,1.82-14.02,3.31-23.31,7.31.97,1.97.21,5.11-1.38,8.28Z"/>
                  <path class="cls-2" d="M409.76,164.27c-2.81,9.21.39,23.5,6.79,23.08,14.46-.96,1.01-41.68-4.59-54.57-2.35-5.41-3.43-10.29-3.15-13.64-3.89-2.4-5.86-3.52-9.81-5.55,1.67,2.8,3.19,5.65,4.57,8.48,8.83,18.08,9.79,30.43,6.19,42.21Z"/>
                  <path class="cls-10" d="M433.9,562.1c4.62-7.4,5.58-12.23-5-2.39-14.67,13.64-42.6,24.21-49.16,35.33-.28.48-.21,1.63-.23,2.37,14.8-3.05,22.08-5.5,36.01-11.99,7.88-8.55,15.13-18.09,18.39-23.32Z"/>
                </g>
                <path class="cls-11" d="M413.05,282.39c-6.52,1.63-8.44,6.22-4.88,11.1,3.55,4.88,8.44,3.55,9.33-.89.89-4.44,2.66-11.99-4.44-10.21Z"/>
              </g>
            </g>
            <g>
              <path class="cls-9" d="M349.86,100c-82.78,0-174.18,115.98-184.53,257.73-10.05,137.71,82.62,242.27,184.53,242.27s196.53-104.72,184.53-242.27c-12.07-138.32-98.3-257.73-184.53-257.73Z"/>
              <path class="cls-6" d="M349.63,600c28.6,0,55.67-8.27,79.85-22.97,15.96-60.76,5.46-139.19-33.95-212.92-45.35-84.85-117.15-141.34-184.96-153.6-28.63,41.83-45.99,106.03-45.99,165.36,0,129.61,82.85,224.13,185.05,224.13Z"/>
              <ellipse class="cls-12" cx="376.7" cy="284.22" rx="114.08" ry="167.2"/>
            </g>
          </g>
        </g>
      </g>
    </g>
  </g>
</svg>