<?xml version="1.0" encoding="UTF-8"?>
<svg xmlns="http://www.w3.org/2000/svg" xmlns:xlink="http://www.w3.org/1999/xlink" viewBox="0 0 700 700">
  <defs>
    <style>
      .cls-1 {
        fill: #d1d669;
      }

      .cls-1, .cls-2, .cls-3, .cls-4, .cls-5, .cls-6, .cls-7, .cls-8, .cls-9, .cls-10, .cls-11, .cls-12, .cls-13, .cls-14 {
        stroke-width: 0px;
      }

      .cls-2 {
        fill: #9372a6;
      }

      .cls-3 {
        fill: #5b769c;
      }

      .cls-4 {
        fill: #de9a98;
      }

      .cls-5 {
        fill: #6e567d;
      }

      .cls-6 {
        fill: #5e8da1;
      }

      .cls-7 {
        fill: #1d0d2b;
      }

      .cls-8 {
        fill: #faff97;
      }

      .cls-9 {
        fill: #986a8d;
      }

      .cls-10 {
        fill: url(#_Безымянный_градиент_140);
        mix-blend-mode: multiply;
      }

      .cls-15 {
        isolation: isolate;
      }

      .cls-11 {
        fill: #fa9981;
      }

      .cls-12 {
        fill: #a98eb8;
      }

      .cls-13 {
        fill: url(#_Безымянный_градиент_141);
      }

      .cls-13, .cls-14 {
        mix-blend-mode: screen;
      }

      .cls-14 {
        fill: url(#_Безымянный_градиент_139);
      }
    </style>
    <radialGradient id="_Безымянный_градиент_140" data-name="Безымянный градиент 140" cx="680.68" cy="353.65" fx="680.68" fy="353.65" r="320.28" gradientTransform="translate(-321.61 -135.16) scale(1.1 1.3)" gradientUnits="userSpaceOnUse">
      <stop offset=".36" stop-color="#f1f2f2" stop-opacity="0"/>
      <stop offset=".42" stop-color="rgba(220, 221, 222, .15)" stop-opacity=".15"/>
      <stop offset=".59" stop-color="rgba(172, 173, 175, .52)" stop-opacity=".52"/>
      <stop offset=".74" stop-color="rgba(137, 138, 141, .78)" stop-opacity=".78"/>
      <stop offset=".87" stop-color="rgba(116, 117, 120, .94)" stop-opacity=".94"/>
      <stop offset=".97" stop-color="#6d6e71"/>
    </radialGradient>
    <radialGradient id="_Безымянный_градиент_141" data-name="Безымянный градиент 141" cx="521.33" cy="293.9" fx="521.33" fy="293.9" r="424.94" gradientTransform="translate(0 -22.19) scale(1 1.03)" gradientUnits="userSpaceOnUse">
      <stop offset=".84" stop-color="#221e1f" stop-opacity="0"/>
      <stop offset=".85" stop-color="rgba(46, 42, 43, .06)" stop-opacity=".06"/>
      <stop offset=".89" stop-color="rgba(79, 76, 77, .23)" stop-opacity=".23"/>
      <stop offset=".93" stop-color="rgba(133, 132, 133, .51)" stop-opacity=".51"/>
      <stop offset=".98" stop-color="rgba(206, 206, 207, .88)" stop-opacity=".88"/>
      <stop offset="1" stop-color="#e6e7e8"/>
    </radialGradient>
    <radialGradient id="_Безымянный_градиент_139" data-name="Безымянный градиент 139" cx="741.04" cy="596.75" fx="741.04" fy="596.75" r="106.23" gradientTransform="translate(-419.08 -655) scale(1.07 1.57)" gradientUnits="userSpaceOnUse">
      <stop offset="0" stop-color="#f1f2f2"/>
      <stop offset="1" stop-color="#221e1f" stop-opacity="0"/>
    </radialGradient>
  </defs>
  <g class="cls-15">
    <g id="_Слой_2" data-name="Слой 2">
      <g id="_Слой_3" data-name="Слой 3">
        <g>
          <rect class="cls-7" width="700" height="700"/>
          <g>
            <g>
              <path class="cls-1" d="M534.38,357.73c12.01,137.55-82.62,242.27-184.53,242.27s-194.58-104.56-184.53-242.27c10.35-141.75,101.75-257.73,184.53-257.73s172.45,119.42,184.53,257.73Z"/>
              <g>
                <g>
                  <path class="cls-2" d="M445.45,153.84c-32.48-19.74-62.72,59.02-70.53,77.46-19.32,45.63-63.89,126.36-124.45,118.39-9.93-1.31-18.69-8.64-24.44-20.25-17.65-35.63-8.38-84.15,9.9-118.42,1.11-2.01,1.67-3.02,2.78-5.03,17.82-32.88,37.93-64.9,62.53-93.17-.71.35-1.42.71-2.12,1.08-24.01,28.21-43.97,59.74-61.75,92.17-1.12,2-1.68,3-2.8,5.01-18.64,34.57-28.22,83.5-10.34,119.56,6.01,12.13,15.12,19.64,25.83,21.26,3.2.48,6.51.74,9.75.62,58.88-2.31,95.98-73.07,116.88-120.18,8.28-18.66,37.49-96.14,69.89-76.86,5.54,3.3,10.85,8.63,17.2,15.54-.31-.4-.63-.81-.96-1.24-6.41-7.07-11.77-12.54-17.36-15.93Z"/>
                  <path class="cls-4" d="M248.12,554.26c-31.16-36.22-86.13-92.18-69.27-143.3,6.16-18.67,25.02-31.03,44.73-33.03,63.78-6.46,120.73-48.95,146.53-108.24,15.07-34.64,29.04-70.07,45.36-104.15,5.01-10.46,8.42-21.39,18.57-26.9-.5-.45-1.01-.9-1.51-1.34-14.59,9.8-20.38,31.53-27.28,47.2-12.36,28.05-24.28,56.32-36.52,84.41-25.61,58.78-82.06,100.82-145.32,107.43-20.2,2.11-39.58,14.79-45.91,33.92-17.04,51.44,38.73,107.71,70.12,144.1,5.64,6.53,11.35,12.65,16.92,18.25.68.44,1.03.65,1.72,1.08-5.97-5.88-12.1-12.4-18.13-19.41Z"/>
                  <path class="cls-11" d="M429.57,524.68c-28.49,5.31-54.06,26.63-71.49,48.68-8.86,11.21-18.68,19.54-28.38,23.85.96.14,1.44.2,2.4.32,9.21-4.55,18.51-12.7,26.95-23.39,17.13-21.68,42.19-42.79,70.19-48.1,25.39-4.82,46.32,6.45,43.34,16.47.46-.48.69-.72,1.15-1.2,3.1-10.04-18.25-21.48-44.17-16.64Z"/>
                  <path class="cls-2" d="M337.25,383.07c-53.55-18.33-113.3-34.92-170.98-22.44-.03.59-.05.88-.08,1.47,57.49-12.41,117.22,4.4,170.58,22.66,61.62,21.08,126.49,45.73,185.38,76.03.17-.49.33-.99.5-1.49-59.16-30.02-123.65-55.09-185.39-76.23Z"/>
                  <path class="cls-3" d="M400.09,278.49c-2.58-15.77-9.68-26.94-19.62-30.74-22.43-8.56-50.47,7.47-66.71,23.97-1.11,1.13-2.4,2.57-3.82,4.13-20.77,22.77-49,51.16-81.89,53.31-11.97.78-24.41-2.34-34.39-10.32-15.85-12.68-12.62-35.95-5.92-53.02,20.01-50.96,57.93-97.23,91.9-139.87-.46.33-.92.66-1.37,1-33.71,42.66-71.41,88.99-91.77,139.22-6.87,16.96-10.07,41.21,6.13,53.91,10.27,8.06,22.72,11.23,34.93,10.46,33.39-2.11,62.25-30.36,83.4-53.56,1.41-1.55,2.7-2.98,3.81-4.11,15.85-16.14,43.36-31.94,65.3-23.62,9.39,3.56,16.11,14.23,18.55,29.33,8.42,52.2,6.4,227.02-65.62,235.3-37.1,4.27-76.22-24.56-104.27-46.1-21.97-16.86-44.89-37.25-62.22-60.06.11.96.17,1.43.3,2.38,17.33,22.1,39.8,42.15,61.35,58.68,26.29,20.16,59.83,44.62,95.44,46.79,3.37.2,6.71.21,9.68-.2,73.56-10.26,75.63-183.15,66.84-236.89Z"/>
                </g>
                <path class="cls-4" d="M226.78,237.13c-10.28,1.37-29.23,13.32-42.18,27.22-5.23,15.34-7.49,23.33-11.08,39.74,2.25.86,5.17.22,8.26-2.24,9.52-7.56,14.64.87,22.68,14.45,13.7,23.13,57.53-5.28,62.01-27.67,4.89-24.44-10.99-55.32-39.68-51.51Z"/>
                <path class="cls-6" d="M195.22,452.07c-5.67-32.63,54.54-43.89,62.88-10.07,7.47,30.31,15.24,63.96,41.33,83.95,15.56,11.92,45.75,50.4,32.54,61.18-11.12,9.07-48.45-20.73-62.35-32.86-30.42-26.53-67.61-63.13-74.4-102.2Z"/>
                <path class="cls-8" d="M312.55,569.86c-3.61-.65-8.88-3.33-15.45-8.09-40.95-29.7-102.67-90.08-103.7-144.4-.33-17.17,18.22-27.35,36.31-26.74.15,0,.3.01.45.02,13.23.56,28.15,7.98,30.16,26.44.57,5.24,1.18,10.33,1.63,15.07,2.48,25.79,8.63,52.59,28.02,71.62,14.37,14.1,29.78,33.4,31.41,53.45.44,5.41-1.35,9.7-4.64,12.07-.98.7-2.39.89-4.21.57ZM194.13,417.51c.29.06.44.09.73.15.64,54.22,61.92,113.74,102.62,143.12,9.24,6.67,15.85,9.18,18.37,7.37,3.02-2.17,4.67-6.15,4.22-11.15-1.73-19.52-16.94-38.92-30.97-52.3-19.52-18.61-25.89-46.66-28.69-72.58-.52-4.78-1.07-9.8-1.64-15.02-1.91-17.32-16.03-24.28-28.59-24.86-17.47-.8-35.72,8.76-35.33,25.42-.29-.06-.44-.09-.73-.15Z"/>
                <path class="cls-8" d="M319.28,578.6c-3.49-.57-8.64-3.11-14.94-7.72-22.56-16.51-42.14-38.2-60.25-59.67-20.04-23.75-40.58-52.96-42.73-83.97-1.16-16.68,17.67-26.85,35.74-26.01.15,0,.3.02.45.02,13.19.78,28.11,8.2,30.25,26.41.61,5.22,1.25,10.28,1.73,15.01,2.62,25.63,8.75,52.31,28,71.27,13.97,13.76,29.01,32.75,30.4,52.26.37,5.24-1.43,9.44-4.63,11.8-.94.69-2.29.89-4.01.61ZM201.85,427.34c.19.04.29.06.49.11,1.67,53.81,61.52,113.4,102.26,142.78,9.07,6.54,15.57,8.89,18.12,7.02,3.03-2.22,4.72-6.21,4.35-11.19-1.43-19.22-16.35-38.36-30.12-51.51-19.31-18.44-25.52-46.31-28.44-71.91-.54-4.76-1.13-9.77-1.74-14.97-2.06-17.45-16.45-24.59-29.18-25.35-17.71-1.06-35.94,8.33-35.24,25.13-.19-.04-.29-.06-.49-.11Z"/>
                <path class="cls-12" d="M277.64,164.39c-6.8,30.26,28.45,50.31,56.26,48.95,23.05-1.13,41.22-13.45,59.31-25.98,15.96-11.05,38.45.87,40.97-4.4,6.46-13.53-18.5-44.08-33.81-53.86-26.62-17.01-61.14,6.47-83.63-5.78-18.55-10.1-35.93,26.91-39.11,41.06Z"/>
                <path class="cls-4" d="M346.91,218.29c-3.38.04-7.07-.19-10.89-.46-30.8-2.18-58.37-27.85-50.37-60.1.22-.07.33-.1.56-.17-.22.07-.33.1-.56.17,3.63-13.88,16.26-35.18,26.39-41.76,4.19-2.73,9.67-4.15,14.58,5.6,4.57,9.07,22.63,6,41.46,7.61,15.46,1.33,30.85,5.74,44.6,15.42,13.13,9.25,25.3,26.52,30.88,38.42,4.25,9.07,4.73,15.67.96,18.36-3.43,2.45-9.78.63-17.18-1.24-8.4-2.12-17.88-4.29-27.76.05-3.43,1.51-6.67,3.19-9.86,4.89-12.11,6.47-23.96,12.97-42.81,13.2ZM315.08,115.64c-.95.3-1.94.78-2.98,1.44-9.77,6.29-21.99,26.93-25.33,40.32-7.83,31.3,19.73,58.4,49.44,58.86,18.86.29,36.22-2.73,52.73-12.58,2.96-1.77,6.43-3.4,9.87-4.91,10.11-4.44,19.71-2.22,28.22-.04,7.14,1.83,13.26,3.61,16.43,1.35,3.48-2.49,3.03-8.72-.95-17.28-5.53-11.9-17.65-28.61-29.8-37.1-13.63-9.52-29.01-13.86-44.47-15.16-20.08-1.69-37.73,1.53-42.55-8.06-2.97-5.9-6.44-8.13-10.62-6.83Z"/>
                <path class="cls-12" d="M329.27,225.88c-28.17,2.56-62.52-15.58-58.37-47.03,1.73-13.11,13.65-35.29,24.27-44.4,4.37-3.75,10.23-7.01,16.27.55,5.73,7.17,24.31-.95,42.95-5,15.24-3.31,29.87-3.65,43.1,2.82,12.57,6.15,25.11,22.44,31.72,34.4,5.02,9.08,6.6,16.25,3.81,19.95-2.53,3.36-8.37,2.69-15.26,2.25-7.89-.5-16.89-.71-25.65,5.85-3.03,2.27-5.98,4.66-8.69,7.05-14.35,12.66-31.41,21.58-50.89,23.31-1.06.09-2.16.19-3.24.25ZM300.28,131.96c-1.59.6-3.25,1.65-4.99,3.13-10.35,8.84-21.94,30.54-23.58,43.38-4.11,32.2,33.03,49.05,60.78,46.1,18.91-2.01,36.11-10.58,50.29-23.11,2.72-2.4,5.67-4.79,8.71-7.08,8.9-6.67,17.98-6.45,25.93-5.93,6.73.44,12.42,1.1,14.83-2.09,2.65-3.51,1.13-10.4-3.67-19.14-6.64-12.08-19.24-27.88-31-33.59-13.14-6.38-27.78-6.03-43.02-2.74-19.73,4.26-37.78,12.3-43.73,4.86-3.25-4.05-6.7-5.23-10.55-3.78Z"/>
                <path class="cls-2" d="M514.59,354.47c-14.38-31.66-62.83-41.08-87.11-18.88-16.68,15.25-33.67,33.16-58.99,23.97-43.42-15.77-23.55,90.79-8.96,105.8,27.62,28.4,83.08,25.55,111.97-1.85,27.83-26.4,61.36-68.83,43.09-109.04Z"/>
                <path class="cls-2" d="M406.73,482.84c-14.85,1.74-35.28-1.99-47.34-11.36-26.59-20.65-42.18-63.41-30.46-95.55,3.91-10.71,11.51-16.29,19.91-14.72,21.73,4.06,37.41-10.81,47.87-27.66,2.04-3.29,4.48-6.85,7.01-10.3,12.5-17.04,35.49-26.04,56.54-22.08,14.73,2.77,28.1,12.03,35.4,24.79,23.43,40.99,13.28,84.32-17.51,122.07-14.44,17.71-36.55,28.82-58.96,33.16-4.2.82-8.37,1.37-12.46,1.66ZM346.01,362.58c-6.8.09-12.52,5.08-15.74,13.95-11.48,31.54,3.98,74.64,29.93,93.81,33.58,24.8,91.81,7.39,117-23,27.49-33.17,43.19-80.95,17.42-120.84-10.25-15.87-24.32-22.1-34.28-23.95-20.64-3.83-43.2,4.96-55.46,21.67-2.52,3.43-4.85,6.97-6.99,10.27-11.77,18.21-25.6,32.05-49.26,28.28-.89-.14-1.76-.2-2.62-.19Z"/>
                <path class="cls-4" d="M425.93,482.7c-4.34.49-8.81.68-13.41.57-20.62-.51-43.05-7.44-56.79-22.76-22.5-25.1-28.9-71.8-11.3-101.41,5.78-9.72,14.35-13.54,22.35-10.07,19.86,8.61,37.91-1.68,51.4-15.76,2.55-2.67,5.56-5.53,8.61-8.18,16.01-13.92,40.72-15.47,60.41-7.63,14.61,5.81,25.49,16.12,31.22,29.43,18.68,43.32-14.36,86.75-44.19,114.72-11.98,11.23-31.93,19.82-48.32,21.11ZM360.55,349.92c-6.61.09-11.59,5.39-14.53,10.35-17.12,28.88-10.87,75.25,11.09,98.97,26.94,29.1,86.01,29.39,116.18,1.21,29.35-27.4,61.65-70.66,43.57-113.14-6.89-16.19-20.12-24.31-29.9-28.16-19.21-7.56-43.29-6.02-58.88,7.53-3.04,2.64-6.03,5.5-8.58,8.15-14.02,14.65-32.77,25.13-53.38,16.18-1.9-.82-3.85-1.12-5.58-1.1Z"/>
                <g>
                  <path class="cls-8" d="M303.27,135c-5.71,4.19-13.02,12.68-12.1,14.57.92,1.89,4.29-2.18,6.72-5.02,2.43-2.85,3.64-4.55,7.17-7.43,2.23-1.81,2.67-5.38-1.79-2.11Z"/>
                  <path class="cls-8" d="M295.22,160.39c-4.63,5.03-8.8,8.1-9.41,10.18-.6,2.08,3.42.65,6.96-2.99,3.53-3.65,6.94-12.06,2.45-7.19Z"/>
                  <path class="cls-8" d="M318.76,133.76c-3.43,4.4-8.26,8.57-8.97,10.48-.72,1.92,1.97,2.16,5.15-.34,3.18-2.5,5.69-6.39,7.12-8.83,2.18-3.73.13-5.71-3.3-1.31Z"/>
                  <path class="cls-8" d="M404.35,143.23c-.06,1.55,2.88,3.38,5.3,2.76,2.42-.62,3.6-2.92,4.17-4.4.07-.18.1-.36.13-.54-1.07-1.18-2.16-2.32-3.26-3.42-.26.11-.52.29-.76.57-1.93,2.18-5.52,3.48-5.58,5.03Z"/>
                  <path class="cls-8" d="M339.09,132.95c-4.57.84-9.23,5.96-11.45,9.66-2.2,3.66.11,6.4,2.81,3.21,3.78-4.47,6.86-7.23,9.15-8.89,2.28-1.66,4.13-4.82-.51-3.97Z"/>
                  <path class="cls-8" d="M311.7,162.14c-4.53,3.77-6.7,7.44-7.98,10.78-1.29,3.34.46,5.6,2.97.98,2.51-4.62,5.41-6.92,7.57-9.15,3.77-3.89,1.36-5.88-2.56-2.61Z"/>
                  <path class="cls-8" d="M391.83,128.18c-3.15,1.45-4.21,4.05-4.54,6.74-.32,2.69,1.92,5.59,3.06,2.23s3.19-4.22,4.57-5.32c2.41-1.91-.36-4.91-3.09-3.66Z"/>
                  <path class="cls-8" d="M307.52,185.55c-4.63,4.34-8.67,11.34-6.32,11.49,2.35.15,4.39-4.58,9.01-9.31,4.62-4.73,3.16-7.67-2.69-2.18Z"/>
                  <path class="cls-8" d="M405.84,167.79c-2.87,2.99-4.31,8.98-1.96,9.7,2.35.72,2.65-3.47,5.34-6.83,2.69-3.36.24-6.64-3.38-2.87Z"/>
                  <path class="cls-8" d="M336.5,155.61c-1.86.21-6.66,6.35-7.7,10.11-1.04,3.76,1.34,1.74,4.21-1.46,2.88-3.19,6.79-9.03,3.48-8.65Z"/>
                  <path class="cls-8" d="M331.52,186.83c-3.87,3.3-6.87,9.25-8.06,12.52-1.19,3.27,2.07,1.9,3.16.43,1.09-1.47,6.27-8.05,7.18-10.75.92-2.7-.37-3.82-2.28-2.2Z"/>
                  <path class="cls-8" d="M353.13,169.94c-1.89,1.69-4.83,6.19-6.21,10.58-1.38,4.39,1.69,3.38,2.93,1.53,1.24-1.85,3.71-4.65,5.43-7.97,1.72-3.32.57-6.59-2.15-4.15Z"/>
                  <path class="cls-8" d="M424.89,163.47c-1.29.79-2.91,3.71-3.23,7.13-.32,3.43,2.28,3.55,3,2.32.72-1.23,2.31-2.85,3.09-5.11.77-2.26-1.01-5.48-2.86-4.34Z"/>
                  <path class="cls-8" d="M356.92,133.48c-1.38,1.75-2.27,5.56-3.55,7.86-1.74,3.13-.25,4.68,1.38,3.46,1.62-1.21,5.8-7.23,6.37-9.99.57-2.76-1.93-4.2-4.19-1.33Z"/>
                  <path class="cls-8" d="M358.53,201.02c-1.73,1.06-4.3,5.18-5.58,7.77-.35.71-.57,1.3-.73,1.83,1.9-.5,3.72-1.05,5.45-1.66.86-1.45,1.72-3.09,2.64-4.69,1.92-3.36-.05-4.31-1.78-3.25Z"/>
                  <path class="cls-8" d="M332.19,207.9c-1.88.92-5.34,3.03-7.42,5.37,1.97.14,3.95.2,5.91.17.84-.94,1.68-1.88,2.5-2.67,1.9-1.82,1.33-4.01-.99-2.88Z"/>
                  <path class="cls-8" d="M288.75,183.78c-2.39,3.32-4.65,6.03-6.79,8.99.58.82,1.2,1.61,1.86,2.39,1.84-2.53,4.61-6.97,6.42-9.87,2.37-3.78,1.39-5.5-1.48-1.51Z"/>
                  <path class="cls-8" d="M303.58,123.18c-1,1.94.12,2.79,2.12.62,1.51-1.64,2.9-3.44,4.25-5.17-1.08-.19-2.18-.09-3.3.24-1.4,1.58-2.36,2.93-3.07,4.32Z"/>
                  <path class="cls-8" d="M367.19,126.56c-.72,2.87,1.34,3.15,2.59,1.73,1.25-1.42,3.55-4.11,4.54-6.36.1-.22.15-.43.19-.63-1.2-.08-2.4-.13-3.6-.14-1.64,1.68-3.16,3.17-3.72,5.41Z"/>
                  <path class="cls-8" d="M376.37,150.55c-3.02,1.57-5.39,5.5-7.32,9.5-1.93,4,2.42,3.74,3.3,2.19.87-1.55,3.68-6.57,4.85-8.72,1.17-2.15.95-3.9-.83-2.97Z"/>
                  <path class="cls-8" d="M380.22,181.2c-1.46,1.59-3.73,9.38-4.07,11.79-.34,2.41,1.17,3.03,1.86,2.02.69-1.01,5.01-7.79,5.37-10.87.36-3.08-1.59-4.65-3.16-2.94Z"/>
                  <path class="cls-8" d="M391.89,152.56c-.52.76-3.48,2.26-4.17,6.98-.68,4.72,3.62,2.86,4.32,1.16.7-1.7,1.54-3.93,2.93-5.91,1.4-1.98-1.89-3.99-3.08-2.23Z"/>
                </g>
                <g>
                  <path class="cls-8" d="M456.88,369.86c-.53,0-1.01-.47-1.09-1.06-.32-2.44,4.72-9.3,8.24-13.04.38-.4,1.03-.37,1.45.07.42.44.45,1.13.07,1.53-4.63,4.92-7.69,10.22-7.7,11.28.08.61-.31,1.15-.88,1.2-.03,0-.06,0-.09,0Z"/>
                  <path class="cls-8" d="M469.25,388.17c-.32,0-.64-.14-.85-.43-.35-.48-.26-1.17.19-1.54,3.72-3.02,4.97-5.47,6.67-8.86.4-.79.81-1.62,1.28-2.5.27-.52.89-.67,1.39-.36.49.32.67.99.4,1.5-.46.87-.87,1.68-1.26,2.45-1.75,3.47-3.16,6.21-7.22,9.51-.18.14-.39.22-.6.22Z"/>
                  <path class="cls-8" d="M442.19,392.81c-.16,0-.31-.03-.47-.1-.53-.26-.76-.93-.51-1.5,1.06-2.46,5.88-7.78,10.46-11.49.45-.37,1.11-.26,1.47.24.36.5.28,1.21-.18,1.58-4.99,4.07-9.11,8.95-9.84,10.62-.17.41-.54.65-.94.66Z"/>
                  <path class="cls-8" d="M426.14,379.47c-.11,0-.23-.02-.34-.06-.56-.2-.89-.85-.72-1.47.67-2.5,4.33-5.82,7.97-8.98.5-.44.93-.8,1.25-1.08.44-.39,1.11-.31,1.49.18.39.49.34,1.22-.09,1.62-.33.3-.77.68-1.29,1.13-2.17,1.88-6.74,5.83-7.28,7.84-.13.49-.54.8-.98.81Z"/>
                  <path class="cls-8" d="M409.01,412.19c-.13-.05-.24-.12-.35-.21-.44-.41-.48-1.14-.09-1.62.24-.29.36-.43.6-.72,4.19-5.01,5.21-6.65,5.34-7.14.16-.61.76-.97,1.32-.82.55.15.91.77.75,1.38-.32,1.31-2.46,4.06-5.83,8.08-.23.28-.35.42-.58.7-.3.37-.77.49-1.17.34Z"/>
                  <path class="cls-8" d="M322.82,481.28c-.13-.05-.24-.12-.35-.21-.44-.41-.48-1.14-.09-1.62.24-.29.36-.43.6-.72,4.19-5.01,5.21-6.65,5.34-7.14.16-.61.76-.97,1.32-.82.55.15.91.77.75,1.38-.32,1.31-2.46,4.06-5.83,8.08-.23.28-.35.42-.58.7-.3.37-.77.49-1.17.34Z"/>
                  <path class="cls-8" d="M491.78,335.45c-.12-.05-.23-.13-.34-.22-.45-.41-.56-1.05-.25-1.44.19-.23.28-.35.47-.58,3.27-4.01,3.98-5.28,4.05-5.69.08-.51.57-.76,1.1-.56.51.19.9.76.84,1.27-.14,1.09-1.74,3.23-4.37,6.46-.18.22-.27.34-.46.56-.24.3-.65.36-1.03.19Z"/>
                  <path class="cls-8" d="M425.16,419.65c-.27.01-.53-.08-.74-.28-.42-.41-.43-1.12-.02-1.59,2.69-3.04,6.78-10.95,6.95-12.09.09-.62.64-1.06,1.21-.98.58.08.98.64.89,1.26-.28,1.93-4.9,10.32-7.52,13.3-.21.24-.49.37-.77.38Z"/>
                  <path class="cls-8" d="M385.72,434.59c-.33,0-.65-.14-.87-.43-.36-.49-.26-1.21.22-1.6.34-.27,8.28-6.78,12.05-9.53.49-.36,1.17-.24,1.49.27.33.51.19,1.23-.31,1.59-3.71,2.71-11.86,9.38-11.94,9.45-.19.16-.42.24-.65.25Z"/>
                  <path class="cls-8" d="M388.74,405.57c-.18,0-.36-.04-.53-.13-.53-.3-.73-1.01-.45-1.58.34-.69.95-1.41,1.78-2.4.91-1.08,2.15-2.57,3.53-4.62.35-.52,1.03-.64,1.51-.26.49.38.59,1.11.24,1.63-1.44,2.15-2.73,3.69-3.68,4.81-.7.83-1.26,1.49-1.47,1.93-.19.39-.56.61-.95.62Z"/>
                  <path class="cls-8" d="M360.79,413.67c-.25,0-.5-.08-.71-.27-.47-.41-.53-1.15-.15-1.64,1.78-2.31,7.02-7.28,11.09-8.95.56-.23,1.2.07,1.41.68.21.61-.07,1.28-.63,1.51-3.66,1.5-8.58,6.17-10.18,8.24-.21.27-.52.42-.83.42Z"/>
                  <path class="cls-8" d="M337.24,412.81c-.56,0-1.04-.46-1.1-1.07-.12-1.29,1.16-2.48,4.58-5.36,1.37-1.15,3.42-2.87,3.77-3.54.04-.55.45-1.01.98-1.06.59-.06,1.13.42,1.19,1.07.12,1.3-1.17,2.52-4.59,5.39-1.37,1.15-3.42,2.86-3.77,3.52-.04.55-.45,1-.97,1.05-.03,0-.06,0-.09,0ZM338.31,411.55s0,0,0,0c0,0,0,0,0,0ZM344.5,403.06s0,0,0,0c0,0,0,0,0,0Z"/>
                  <path class="cls-8" d="M329.73,440.14c-.2,0-.39-.06-.57-.18-.51-.34-.68-1.04-.38-1.56.32-.55.84-1.2,1.51-2.02,1.49-1.83,3.54-4.34,4.68-7.52.21-.59.84-.87,1.39-.64.56.24.84.9.63,1.49-1.27,3.54-3.55,6.34-5.05,8.18-.58.72-1.09,1.33-1.32,1.73-.2.34-.54.53-.9.52Z"/>
                  <path class="cls-8" d="M347,449.02c-.16,0-.32-.04-.47-.11-.54-.27-.77-.95-.52-1.5.98-2.16,5.96-8.87,7.31-10.16.44-.42,1.12-.39,1.53.08.4.47.37,1.19-.07,1.61-1.29,1.24-6.01,7.67-6.82,9.46-.18.4-.56.63-.96.63Z"/>
                  <path class="cls-8" d="M370.34,453.78c-.16,0-.32-.03-.47-.1-.53-.26-.76-.92-.5-1.48,1.01-2.17,6.06-8.93,7.43-10.23.44-.43,1.12-.4,1.52.05.4.45.36,1.17-.09,1.59-1.31,1.25-6.09,7.74-6.93,9.53-.19.4-.57.64-.96.65Z"/>
                  <path class="cls-8" d="M342.25,473.96c-.22,0-.44-.07-.64-.22-.47-.36-.59-1.05-.25-1.53,2.63-3.73,7.15-6.77,8.47-7.62.5-.32,1.15-.16,1.47.36.31.52.16,1.2-.33,1.51-.88.57-5.41,3.55-7.89,7.06-.2.28-.51.43-.84.43Z"/>
                  <path class="cls-8" d="M327.83,504.82c-.22,0-.44-.07-.64-.22-.47-.36-.59-1.05-.25-1.53,2.63-3.73,7.15-6.77,8.47-7.62.5-.32,1.15-.16,1.47.36.31.52.16,1.2-.33,1.51-.88.57-5.41,3.55-7.89,7.06-.2.28-.51.43-.84.43Z"/>
                  <path class="cls-8" d="M360.61,492.1c-.25,0-.5-.08-.7-.26-.43-.39-.47-1.06-.08-1.5.2-.23,4.87-5.61,7.21-7.7.44-.39,1.11-.36,1.48.08.37.44.32,1.12-.12,1.52-2.23,2-6.96,7.45-7.01,7.5-.2.24-.49.36-.77.36Z"/>
                  <path class="cls-8" d="M379.12,471.3c-.24,0-.48-.07-.68-.23-.44-.37-.49-1.06-.11-1.53.35-.44,1.08-1.15,2.01-2.07,1.34-1.32,4.14-4.07,4.38-4.88.1-.6.65-1.02,1.23-.95.58.07.96.63.86,1.24-.2,1.21-1.73,2.88-5.04,6.14-.8.79-1.56,1.53-1.83,1.86-.21.26-.51.41-.81.42Z"/>
                  <path class="cls-8" d="M465.41,333.51c-.23-.01-.47-.11-.67-.29-.46-.4-.58-1.08-.27-1.51.29-.39.91-1.02,1.69-1.82,1.13-1.15,3.45-3.5,3.58-4.25.02-.57.49-.9,1.04-.77.55.13.98.71.96,1.28-.04,1.13-1.26,2.54-4.05,5.38-.68.69-1.32,1.34-1.54,1.64-.17.24-.45.35-.73.33Z"/>
                  <path class="cls-8" d="M400.87,448.49c-.2.01-.41-.04-.59-.16-.48-.32-.6-1-.27-1.53.38-.59.72-1.24,1.09-1.95.91-1.74,2.04-3.9,4.24-6.39.41-.47,1.09-.52,1.51-.11.42.4.43,1.11.02,1.58-2,2.27-3.01,4.2-3.91,5.9-.41.78-.78,1.49-1.19,2.13-.21.33-.55.52-.89.54Z"/>
                  <path class="cls-8" d="M395.23,382.43c-.21,0-.42-.06-.61-.19-.51-.36-.65-1.1-.33-1.64.36-.62.68-1.3,1.03-2.05.85-1.82,1.91-4.08,4.02-6.64.4-.48,1.07-.5,1.52-.05.44.45.48,1.2.09,1.68-1.92,2.32-2.87,4.35-3.7,6.13-.38.81-.73,1.56-1.13,2.23-.2.34-.54.53-.89.54Z"/>
                  <path class="cls-8" d="M399.27,476.12c-.3.02-.58-.09-.78-.32-.36-.43-.29-1.11.17-1.52,1.13-1.04,3.91-3.66,6.6-6.22,3.06-2.9,5.7-5.42,6.25-5.9.47-.41,1.12-.38,1.47.06.34.44.24,1.12-.22,1.53-.51.44-3.39,3.18-6.17,5.82-2.7,2.56-5.49,5.2-6.62,6.24-.2.18-.44.28-.68.3Z"/>
                  <path class="cls-8" d="M446.57,451.4c-.09,0-.17,0-.26-.01-.52-.1-.82-.6-.66-1.16.42-1.49,5.28-8.15,8.09-10.49.47-.39,1.11-.35,1.43.08.32.43.19,1.11-.28,1.5-2.65,2.21-6.96,8.33-7.28,9.23-.17.47-.6.82-1.04.86Z"/>
                  <path class="cls-8" d="M453.43,422.22c-.13,0-.26,0-.38-.05-.53-.18-.78-.8-.55-1.37.72-1.83,4.52-7.03,5.28-8.01.37-.48,1.03-.58,1.46-.22.44.36.48,1.04.11,1.52-1.17,1.51-4.43,6.08-4.94,7.37-.17.43-.57.72-.98.75Z"/>
                  <path class="cls-8" d="M473.45,415.54c-.31.02-.62-.1-.81-.37-.33-.44-.23-1.12.23-1.5,2.42-2.02,11.09-13.48,11.67-14.59.27-.52.89-.74,1.37-.48.49.26.67.88.41,1.41-.69,1.36-9.55,13.02-12.25,15.27-.19.15-.4.24-.62.25Z"/>
                  <path class="cls-8" d="M495.74,381.28c-.14,0-.28-.02-.42-.09-.51-.24-.76-.86-.55-1.39.11-.28.16-.42.27-.7,2.92-7.6,4.1-9.92,5.46-10.04.54-.05,1.05.38,1.14.96.09.58-.28,1.09-.82,1.14-.5.37-1.81,3.33-3.92,8.79-.11.28-.16.42-.27.71-.15.39-.5.62-.88.63Z"/>
                  <path class="cls-8" d="M478.23,351.71c-.23,0-.47-.1-.67-.27-.46-.39-.57-1.06-.25-1.5,3.29-4.47,4.9-6.66,8.03-10.93.3-.41.92-.43,1.38-.04.46.39.58,1.04.28,1.46-3.13,4.27-4.74,6.46-8.03,10.93-.18.24-.45.36-.74.35Z"/>
                  <path class="cls-8" d="M508.55,393.47c-.22.01-.45-.06-.64-.21-.42-.34-.48-.98-.14-1.42.85-1.11,5.02-7.72,5.97-10.12.2-.51.77-.75,1.27-.53.5.22.74.82.53,1.33-1.03,2.58-5.33,9.37-6.25,10.55-.19.25-.47.38-.75.4Z"/>
                  <path class="cls-8" d="M495.45,410.16c-.15.01-.3,0-.44-.07-.49-.21-.68-.81-.43-1.33.56-1.18,2.03-4.01,3.58-4.79.5-.26,1.09-.06,1.3.45.21.5-.03,1.12-.54,1.38-.52.26-1.56,1.63-2.58,3.74-.18.38-.54.61-.91.64Z"/>
                  <path class="cls-8" d="M449.35,358.43c-.15,0-.31-.04-.46-.12-.53-.28-.78-.95-.57-1.49.49-1.23,1.79-4.14,3.34-4.84.51-.23,1.13.04,1.4.61.26.56.06,1.21-.44,1.44-.52.23-1.5,1.61-2.37,3.8-.16.39-.51.61-.89.61Z"/>
                  <path class="cls-8" d="M339.17,383.79c-.16,0-.32-.04-.48-.12-.54-.29-.77-1-.51-1.6.58-1.33,2.11-4.54,3.78-5.35.54-.27,1.19,0,1.43.62.24.61,0,1.31-.55,1.58-.56.27-1.66,1.8-2.7,4.19-.18.43-.57.67-.97.68Z"/>
                  <path class="cls-8" d="M492.23,431.98c-.16.02-.32,0-.46-.06-.45-.2-.57-.77-.27-1.28.14-.24.64-1.01,1.36-2.09,2.39-3.64,7.85-12.1,8.5-14.41.15-.54.7-.93,1.22-.85.52.07.81.57.66,1.11-.66,2.3-4.56,8.52-8.81,14.98-.68,1.03-1.16,1.75-1.29,1.98-.21.35-.56.58-.9.63Z"/>
                  <path class="cls-8" d="M361.7,381.2c-.17-.05-.34-.15-.47-.3-.44-.46-.45-1.22-.04-1.7.2-.23.87-.91,1.84-1.89,3.23-3.28,10.73-10.92,11.92-13.34.28-.57.94-.77,1.46-.46.53.32.73,1.03.45,1.6-1.19,2.42-6.61,8.15-12.34,13.97-.91.93-1.56,1.57-1.74,1.79-.28.33-.7.43-1.07.32Z"/>
                  <path class="cls-8" d="M476.25,440.27c-.26.03-.51-.04-.69-.22-.36-.35-.31-1,.11-1.44,1.81-1.91,4.09-4.97,5.41-7.3.3-.52.92-.77,1.39-.55.47.22.61.82.31,1.34-1.43,2.52-3.82,5.72-5.8,7.79-.21.22-.47.35-.72.38Z"/>
                  <path class="cls-8" d="M465.06,465.7c-.16.02-.32.01-.46-.05-.45-.19-.56-.78-.25-1.3.38-.64,1.29-1.58,2.87-3.19,1.47-1.5,3.13-3.2,3.99-4.4.36-.5.99-.7,1.41-.45.42.25.46.86.11,1.35-.99,1.37-2.73,3.15-4.26,4.72-.99,1.02-2.23,2.29-2.46,2.67-.22.36-.57.59-.92.65Z"/>
                  <path class="cls-8" d="M481.54,469.14c-.22.04-.43.01-.59-.11-.36-.26-.32-.86.08-1.33.97-1.14,4.33-6.87,4.67-8.54.11-.54.64-1.01,1.16-1.07.52-.05.86.35.75.88-.48,2.29-4.18,8.38-5.28,9.68-.22.26-.51.43-.78.48Z"/>
                  <path class="cls-8" d="M424.87,488.67c-.18.02-.36,0-.52-.09-.45-.24-.54-.86-.21-1.38.54-.85,3.25-4.38,7.34-9.7,2.72-3.54,5.29-6.9,6.19-8.15.36-.5,1.01-.68,1.44-.4.43.28.48.92.12,1.42-.92,1.28-3.51,4.65-6.25,8.21-3.14,4.09-6.69,8.7-7.22,9.51-.21.33-.56.54-.89.58Z"/>
                  <path class="cls-8" d="M409.89,509.88c-.28.03-.55-.05-.73-.27-.32-.38-.23-1.02.22-1.43,1.74-1.6,4.76-4.55,5.42-5.57.33-.51.95-.73,1.39-.49.44.24.53.84.2,1.35-1.06,1.64-5.37,5.64-5.85,6.09-.2.18-.43.29-.66.32Z"/>
                  <path class="cls-8" d="M344.49,556.5c-.28.03-.55-.05-.73-.27-.32-.38-.23-1.02.22-1.43,1.74-1.6,4.76-4.55,5.42-5.57.33-.51.95-.73,1.39-.49.44.24.53.84.2,1.35-1.06,1.64-5.37,5.64-5.85,6.09-.2.18-.43.29-.66.32Z"/>
                  <path class="cls-8" d="M373,567.23c-.28.03-.55-.05-.73-.27-.32-.38-.23-1.02.22-1.43,1.74-1.6,4.76-4.55,5.42-5.57.33-.51.95-.73,1.39-.49.44.24.53.84.2,1.35-1.06,1.64-5.37,5.64-5.85,6.09-.2.18-.43.29-.66.32Z"/>
                  <path class="cls-8" d="M438.08,497.95c-.2.03-.4,0-.56-.1-.4-.25-.42-.86-.05-1.35.2-.26,4.9-6.51,8.02-9.27.47-.41,1.08-.44,1.37-.06.29.37.15,1.01-.32,1.42-2.89,2.56-7.58,8.77-7.63,8.83-.22.29-.53.48-.83.53Z"/>
                  <path class="cls-8" d="M454.84,494.85c-.22.04-.44,0-.6-.12-.35-.27-.3-.88.11-1.35,3.71-4.26,5.56-6.4,9.28-10.67.41-.47,1.03-.62,1.38-.35.35.28.3.88-.1,1.35-3.72,4.26-5.58,6.4-9.29,10.66-.22.25-.5.42-.77.47Z"/>
                  <path class="cls-8" d="M395.63,495.42c-.32.02-.62-.1-.81-.37-.31-.44-.18-1.1.29-1.48,1.34-1.06,5.11-4.28,6.35-6.35.31-.52.95-.74,1.42-.48.47.26.61.89.29,1.41-1.72,2.89-6.73,6.86-6.94,7.03-.19.15-.4.23-.6.24Z"/>
                  <path class="cls-8" d="M378.63,505.63c-.25.01-.5-.07-.7-.25-.4-.38-.4-1.03,0-1.47,2.28-2.49,4.91-5.67,5.15-6.42-.03-.57.39-1.01.95-1.09.57-.08,1.04.42,1.07.99.02.41.05,1.55-5.74,7.88-.2.22-.47.34-.74.36Z"/>
                  <path class="cls-8" d="M348.78,523.74c-.25.01-.5-.07-.7-.25-.4-.38-.4-1.03,0-1.47,2.28-2.49,4.91-5.67,5.15-6.42-.03-.57.39-1.01.95-1.09.57-.08,1.04.42,1.07.99.02.41.05,1.55-5.74,7.88-.2.22-.47.34-.74.36Z"/>
                  <path class="cls-8" d="M385.42,526.72c-.18.01-.36-.02-.51-.11-.44-.26-.55-.86-.25-1.35,3.34-5.27,6.99-11.45,7.31-12.67-.03-.43.22-.89.64-1.11.52-.27,1.09-.07,1.28.42.19.5.44,1.57-7.63,14.29-.2.31-.52.5-.85.53ZM392.03,512.85s0,0,0,0c0,0,0,0,0,0Z"/>
                  <path class="cls-8" d="M421.84,520.52c-.2.03-.4,0-.55-.1-.38-.26-.4-.85-.03-1.33,1.2-1.56,1.8-2.35,3.01-3.92.37-.48.98-.66,1.37-.41.39.26.4.85.03,1.33-1.21,1.57-1.81,2.35-3.01,3.92-.22.28-.52.46-.81.51Z"/>
                  <path class="cls-8" d="M416.13,469.05c-.25,0-.5-.09-.7-.28-.41-.39-.43-1.04-.05-1.45.05-.06,5.28-5.72,7.41-8.34.36-.44,1.01-.52,1.44-.15.43.36.49,1.02.12,1.46-2.18,2.68-7.28,8.21-7.5,8.44-.19.21-.46.32-.72.32Z"/>
                  <path class="cls-8" d="M411.72,363.13c-.25,0-.5-.09-.71-.29-.46-.42-.53-1.15-.16-1.63,3.74-4.87,5.59-7.27,9.23-12.02.36-.47,1.02-.51,1.48-.08.46.42.54,1.14.18,1.61-3.64,4.75-5.49,7.16-9.23,12.03-.2.26-.49.39-.79.39Z"/>
                  <path class="cls-8" d="M442.67,340.88c-.18,0-.38-.07-.55-.18-.51-.34-.71-1.03-.45-1.54,1.72-3.37,2.98-6.87,2.8-7.68-.34-.53-.21-1.13.25-1.42.45-.29,1.13-.03,1.47.5.86,1.35,0,4.6-2.67,9.83-.17.33-.5.51-.84.5Z"/>
                  <path class="cls-8" d="M505.57,351.04c-.23-.01-.48-.11-.68-.29-.44-.39-.54-1.02-.22-1.42.04-.04,3.63-4.51,5.33-6.82.28-.39.88-.4,1.33-.02.45.38.58.99.3,1.38-1.72,2.33-5.33,6.82-5.37,6.87-.17.21-.42.31-.68.29Z"/>
                  <path class="cls-8" d="M512.61,331.58c-.23-.01-.48-.11-.68-.29-.44-.39-.54-1.02-.22-1.42.04-.04,3.63-4.51,5.33-6.82.28-.39.88-.4,1.33-.02.45.38.58.99.3,1.38-1.72,2.33-5.33,6.82-5.37,6.87-.17.21-.42.31-.68.29Z"/>
                  <path class="cls-8" d="M428.34,447.69c-.25.02-.5-.05-.69-.23-.41-.37-.42-1.05-.02-1.53.05-.05,4.7-5.5,6.99-8.37.38-.49,1.05-.59,1.48-.23.43.36.47,1.04.08,1.52-2.31,2.9-7,8.37-7.05,8.43-.22.25-.5.39-.79.41Z"/>
                  <path class="cls-8" d="M517.05,407.71c-.1,0-.19,0-.29-.02-.5-.11-.78-.64-.6-1.17,1.22-3.75,1.81-5.62,2.93-9.36.16-.53.7-.85,1.21-.72.51.13.79.66.63,1.18-1.13,3.72-1.72,5.59-2.94,9.32-.14.43-.53.73-.94.77Z"/>
                  <path class="cls-8" d="M520.06,413.08c-.1,0-.19,0-.29-.02-.5-.11-.78-.64-.6-1.17,1.22-3.75,1.81-5.62,2.93-9.36.16-.53.7-.85,1.21-.72.51.13.79.66.63,1.18-1.13,3.72-1.72,5.59-2.94,9.32-.14.43-.53.73-.94.77Z"/>
                  <path class="cls-8" d="M517.95,373.55c-.18,0-.37-.05-.54-.16-.47-.3-.64-.93-.39-1.4.04-.08,4.19-7.72,5.12-10.93.14-.49.67-.72,1.18-.51.51.21.81.78.66,1.27-.99,3.38-5.09,10.94-5.26,11.26-.16.3-.46.46-.78.47Z"/>
                  <path class="cls-8" d="M496.7,448.86c-.21.04-.42,0-.58-.11-.38-.26-.37-.86.01-1.33.07-.08,6.72-8.27,8.69-10.61.38-.46.99-.6,1.37-.32.37.28.36.87-.03,1.33-1.95,2.31-8.6,10.47-8.67,10.55-.22.27-.51.44-.79.49Z"/>
                  <path class="cls-8" d="M496.36,477.71c-.21.04-.42,0-.58-.11-.38-.26-.37-.86.01-1.33.07-.08,6.72-8.27,8.69-10.61.38-.46.99-.6,1.37-.32.37.28.36.87-.03,1.33-1.95,2.31-8.6,10.47-8.67,10.55-.22.27-.51.44-.79.49Z"/>
                </g>
                <g>
                  <path class="cls-8" d="M240.08,255.26c-1.67.48-4.49,3.15-3.03,4.68,1.45,1.53,3.5.48,4.55-1.32,1.04-1.79,2.09-4.39-1.52-3.37Z"/>
                  <path class="cls-8" d="M225.86,247.99c-2.54.77-4.69,3.62-4.2,4.76.49,1.13,2.67.51,3.62-.59.94-1.1,2.15-4.64.59-4.16Z"/>
                  <path class="cls-8" d="M235.98,245.32c-2.02.77-3.5,1.64-2.91,3.85.59,2.22,2.11,2.36,3.13.22,1.02-2.14.79-4.46-.22-4.08Z"/>
                  <path class="cls-8" d="M212.66,262.04c-2.17-1.26-4.97,3.45-5.02,5.13-.05,1.68,3.19.27,4.28-1.45,1.09-1.72,1.45-3.26.74-3.67Z"/>
                  <path class="cls-8" d="M203.71,256.59c-1-3.25-6.2,2.87-5.59,4.09.6,1.22,2.92.74,3.84-.21.92-.95,2.31-2.07,1.75-3.87Z"/>
                  <path class="cls-8" d="M209.72,245.21c-1.08,1.14-1.99,2.41-1.27,2.81.72.4,2.86-.75,3.38-1.8.52-1.05-1.04-2.14-2.12-1.01Z"/>
                  <path class="cls-8" d="M191.53,260.23c-2.13,1.54-3.79,3.99-1.8,4.08,1.99.09,3.73-1.12,4.58-3.07.84-1.95-1.06-2.26-2.78-1.01Z"/>
                  <path class="cls-8" d="M195.85,278.78c-1.7-.3-4.14,2.76-3.29,4.56.86,1.8,3.99.51,4.61-1.19.62-1.7-.21-3.17-1.32-3.37Z"/>
                  <path class="cls-8" d="M183.93,292.38c-3.06.25-5.23,4.4-3.31,5.3,1.92.9,3.57.46,4.6-1.54,1.03-2.01.38-3.89-1.28-3.75Z"/>
                  <path class="cls-8" d="M214.99,288.38c-1.91.24-3.41,2.28-2.52,3.84.88,1.56,2.95.57,4.14-1.34,1.19-1.92,1.21-2.85-1.62-2.49Z"/>
                  <path class="cls-8" d="M222.81,268.89c-2.72.08-4.85,2.43-4.14,4.45.71,2.02,3.31,2.03,4.37.26,1.06-1.76,1.85-4.77-.23-4.71Z"/>
                  <path class="cls-8" d="M238,280.73c-3.61-.5-5.82,2.66-4.15,5.71,1.67,3.06,5.29,1.61,5.75.01.46-1.6,1.71-5.27-1.6-5.72Z"/>
                  <path class="cls-8" d="M254.74,263.74c-1.85.17-3.35,2.88-2.25,4.38,1.1,1.5,3.08,1.35,3.93-.32.85-1.67.4-4.26-1.68-4.06Z"/>
                  <path class="cls-8" d="M250,252.19c-1.63.51-3.71,2.33-2.6,3.99,1.11,1.66,3.85,1.04,4.48-.71.63-1.74-.7-3.65-1.87-3.28Z"/>
                  <path class="cls-8" d="M262.26,269.58c-2.93-2-5.18,1.69-4.39,4.16.79,2.46,5.53,1.59,5.81.12.28-1.48-.19-3.43-1.42-4.27Z"/>
                  <path class="cls-8" d="M261.52,279.19c-1.83.09-4.58,2.84-2.85,4.37,1.73,1.53,3.91,1.45,4.6-.23.7-1.68.4-4.26-1.75-4.15Z"/>
                  <path class="cls-8" d="M243.93,296.05c-2.83.14-4.8,3.37-3.27,4.37,1.53,1,4.9-.04,5.03-1.51.13-1.47.82-2.99-1.77-2.86Z"/>
                  <path class="cls-8" d="M224.82,303.83c-1.97.02-4.85,2.93-2.18,3.87,2.68.94,3.99-1.15,4.23-2.16.25-1.01.46-1.74-2.06-1.71Z"/>
                  <path class="cls-8" d="M211.29,301.53c-3.23.16-3.52,3.82-1.96,4.69,1.56.86,3.36-.85,3.64-1.97.28-1.12-.26-2.79-1.68-2.72Z"/>
                  <path class="cls-8" d="M200.96,293.07c-2.61.84-2.52,2.98-1.7,3.22.82.23,1.39.52,2.1-.62.7-1.14,1.44-3.19-.39-2.59Z"/>
                  <path class="cls-8" d="M210.38,319.29c-2.15-3.16,2.39-5.87,3.38-5.29.99.58,1.08,3.33-.15,4.84-1.22,1.5-2.09,2.13-3.23.45Z"/>
                  <path class="cls-8" d="M230.42,321.41c-3.17-2.23,2.92-6.88,4.05-5.83,1.13,1.06,3.19,1.04.91,3.69-2.28,2.65-3.68,3.04-4.97,2.14Z"/>
                  <path class="cls-8" d="M245.98,308.7c-2.45-.14-4.19,2.42-3.2,3.81.99,1.39,1.86.88,2.92-.24,1.05-1.12,2.33-3.45.28-3.57Z"/>
                  <path class="cls-8" d="M258.81,293.05c-2.35-4.67-7.97,1.92-6.37,4.14,1.61,2.22,3.8,2.48,4.64.47s2.44-3.2,1.72-4.62Z"/>
                  <path class="cls-8" d="M183.3,274.8c-.57.1-1.2.45-1.82.95-.67,2.21-1,3.32-1.64,5.54,1.36-.05,3.22-1.25,3.81-2.48.8-1.65,2.02-4.41-.35-4.01Z"/>
                </g>
                <path class="cls-6" d="M471.31,208.07c-13.97-15.42-27.39-8.49-24.34,9.49,3.06,17.97,15.07,22.26,25.7,24,10.63,1.74,18.27,18.94,13.48,28.9-6.87,14.28,16.96,39.98,33.2,29.07,1.58-1.06,2.98-2.76,4.17-4.3-5.97-23.28-14.11-46.01-24.38-67.73-11-9.66-17.05-7.52-27.83-19.42Z"/>
                <path class="cls-6" d="M498.48,287.15c-12.89.36-21.84-8.24-25.68-16.72-3.49-7.72-3.57-16.82,2.92-18.05,7.95-1.51,8.97-7.07,7.41-11.97-1.52-4.75-5.54-9.62-10.42-12.77-5.58-3.59-13.4-9.07-16.96-15.47-2.16-3.89-2.62-7.86-1.59-11.54,1.55-5.55,7.64-6.46,15.06-2.59.56.29,1.13.61,1.71.95,5.66,3.37,10.8,8.35,14.57,13.84,4.17,6.06,8.61,9.99,13.29,13.89-.16-.35-.25-.52-.41-.86-4.35-3.66-8.47-7.39-12.3-12.92-3.97-5.74-9.56-11.18-15.43-14.71-8.48-5.09-15.58-4.51-17.32,1.69-1.09,3.87-.6,8.11,1.72,12.3,3.77,6.8,11.86,12.46,17.63,16.16,4.58,2.94,8.2,7.32,9.61,11.77,1.46,4.61.46,9.86-7.1,11.28-6.92,1.3-6.9,10.95-3.22,19.12,3.3,7.32,10.72,15.42,21.37,17.19,1.76.29,3.61.42,5.53.37,8.61-.26,15.81-2.97,20.68-7.28-.15-.5-.22-.74-.37-1.24-4.5,4.25-11.51,7.32-20.69,7.57Z"/>
                <path class="cls-5" d="M499.28,294.76c-9.32,3-19.02-.53-25.38-10.35-5.39-8.34-7.17-20.03-1.06-23.64,7.63-4.51,7.07-12.29,4.51-17.9-2.36-5.18-6.64-9.57-11.45-11.71-5.4-2.41-13.13-6.23-17.37-12.49-2.8-4.13-3.88-9.07-3.47-14.39.66-8.58,7.06-12.52,15.14-9.28.38.15.75.32,1.13.49,4.6,2.17,9.03,6.18,12.71,11.23,5.24,7.19,10.4,10.79,15.37,14.32,3.47,2.46,6.98,5,10.78,8.71-.28-.6-.42-.89-.69-1.49-3.67-3.45-7.05-5.91-10.24-8.19-4.91-3.51-9.57-6.8-14.43-13.42-4.4-6.01-9.72-10.71-15.17-12.93-8.45-3.44-15.17.69-15.89,9.73-.45,5.7.73,11.08,3.81,15.64,4.63,6.85,12.79,10.87,18.48,13.38,4.25,1.88,8.02,5.75,10.1,10.34,2.35,5.18,2.8,12.4-4.34,16.61-6.65,3.92-4.83,16.57.95,25.54,3.77,5.86,9.98,11.12,17.57,12.15,3.07.41,6.36.15,9.75-.95,9.69-3.15,16.03-9.59,18.95-16.96-.29-.97-.44-1.46-.74-2.42-2.59,7.84-8.94,14.75-19.02,17.99Z"/>
                <path class="cls-11" d="M383.56,581.63c.11-4.62,2.08-8.93,5.88-12.42,3.35-3.08,7.74-5.22,12.3-6.29,2.9-.69,5.86-.94,8.63-.75,4.95.35,7.5-.32,9.74-2.09,3-2.36,4.92-6.5,8.41-14.24,1.31-2.9,2.79-6.2,4.65-10.15,4.71-10,15.24-21.9,28.37-31.78,15.39-11.58,31.78-18.7,42.43-20.31,4.39-.67,7.14-.27,8.38,1.21.3-.65.45-.97.74-1.63-1.48-1.18-4.22-1.47-8.35-.87-11.13,1.63-27.57,8.65-43.56,20.63-13.7,10.27-24.26,22.24-29.17,32.76-1.85,3.97-3.33,7.3-4.63,10.21-3.3,7.38-5.1,11.32-7.58,13.27-1.83,1.44-4.22,2-8.79,1.67-7.54-.54-16.37,2.12-22.22,7.49-4.13,3.78-6.34,8.64-6.44,13.63-.11,5.59,3.74,9.71,8.9,12.01.88-.25,1.33-.37,2.21-.64-5.7-2.06-10.03-6.16-9.9-11.71Z"/>
                <path class="cls-9" d="M385.28,573.45c.81-4.81,3.38-8.94,7.51-11.93,2.63-1.9,5.74-3.21,8.94-3.93,4.01-.9,8.16-.87,11.67.12,3.83,1.08,6.62,1.24,9.34-.53,3.19-2.07,5.67-6.27,10.26-14.05,1.71-2.89,3.65-6.18,6.05-10.08,6.05-9.82,17.7-20.67,31-29.18,15.6-9.98,30.82-15.44,39.22-16.01.4-.03.75-.02,1.1-.02.31-.66.47-.99.78-1.66-.2,0-.38,0-.59,0-8.88.54-24.29,5.9-40.65,16.28-14.02,8.89-25.83,19.9-32.23,30.36-2.41,3.93-4.34,7.24-6.05,10.15-4.13,7.06-6.58,11.23-9.05,12.82-1.83,1.18-4.02,1.33-8.1.18-6.88-1.94-15.78-.55-22.34,4.16-4.65,3.34-7.63,8.14-8.5,13.5-1.41,8.66,5.78,15.59,13.74,18.67,1.11-.37,1.66-.55,2.77-.94-8.77-2.8-16.21-10.03-14.87-17.93Z"/>
                <path class="cls-2" d="M477.19,539.03c17.2-19.02,30.85-41.13,40.49-64.88-27.07,9.32-54.62,32.07-66.97,56.72-10.4,20.76-9.22,25.19-21.35,26.89-12.13,1.7-26.65,12.18-27.09,23.78-.12,3.16,1.65,6.24,4.07,7.65,26.58-11.3,45.41-23.24,68.07-47.14.92-1,1.85-2.01,2.79-3.02Z"/>
                <path class="cls-4" d="M219.42,244.29c-9.59,2.7-23.75,12.2-35.18,22.78-.15.44-.22.66-.37,1.11,11.35-10.65,25.65-20.3,35.25-22.97,29.27-8.15,53.91,10.46,52.27,40.4-1.02,18.62-16.01,32.23-29.65,38.18-14.91,6.51-28.84,5.61-33.72-1.37-7.83-11.22-13.71-15.56-19.63-15.12-.3.02-.6.06-.91.11-2.77.45-5.58,1.99-8.36,4.54-2.37,2.17-4.91,3.28-7.28,3.27-.07.36-.1.54-.17.9,2.6-.02,5.37-1.22,7.94-3.58,2.9-2.65,5.69-4.07,8.54-4.28,5.65-.42,11.36,3.87,19.04,14.86,3.14,4.49,9.77,6.58,18.01,6,5.15-.36,10.91-1.77,16.81-4.34,13.98-6.08,29.34-20.08,30.38-39.29,1.63-30.34-23.15-49.59-52.97-41.2Z"/>
              </g>
            </g>
            <g>
              <path class="cls-10" d="M349.86,100c-82.78,0-174.18,115.98-184.53,257.73-10.05,137.71,82.62,242.27,184.53,242.27s196.53-104.72,184.53-242.27c-12.07-138.32-98.3-257.73-184.53-257.73Z"/>
              <path class="cls-13" d="M349.63,600c28.6,0,55.67-8.27,79.85-22.97,15.96-60.76,5.46-139.19-33.95-212.92-45.35-84.85-117.15-141.34-184.96-153.6-28.63,41.83-45.99,106.03-45.99,165.36,0,129.61,82.85,224.13,185.05,224.13Z"/>
              <ellipse class="cls-14" cx="376.7" cy="284.22" rx="114.08" ry="167.2"/>
            </g>
          </g>
        </g>
      </g>
    </g>
  </g>
</svg>