<?xml version="1.0" encoding="UTF-8"?>
<svg xmlns="http://www.w3.org/2000/svg" xmlns:xlink="http://www.w3.org/1999/xlink" viewBox="0 0 700 700">
  <defs>
    <style>
      .cls-1 {
        fill: #a68555;
      }

      .cls-1, .cls-2, .cls-3, .cls-4, .cls-5, .cls-6, .cls-7, .cls-8, .cls-9, .cls-10, .cls-11, .cls-12, .cls-13, .cls-14 {
        stroke-width: 0px;
      }

      .cls-2 {
        fill: #66aca0;
      }

      .cls-3 {
        fill: #6891ab;
      }

      .cls-4 {
        fill: #7d569a;
      }

      .cls-5 {
        fill: #913252;
      }

      .cls-6 {
        fill: #f0ba7d;
      }

      .cls-7 {
        fill: #ebd88e;
      }

      .cls-8 {
        fill: #c7b57b;
      }

      .cls-9 {
        fill: url(#_Безымянный_градиент_16);
      }

      .cls-9, .cls-14 {
        mix-blend-mode: screen;
      }

      .cls-10 {
        fill: #3e346e;
      }

      .cls-11 {
        fill: #473c7d;
      }

      .cls-12 {
        fill: #1d0d2b;
      }

      .cls-13 {
        fill: url(#_Безымянный_градиент_140);
        mix-blend-mode: multiply;
      }

      .cls-15 {
        isolation: isolate;
      }

      .cls-14 {
        fill: url(#_Безымянный_градиент_139);
      }
    </style>
    <radialGradient id="_Безымянный_градиент_140" data-name="Безымянный градиент 140" cx="666.08" cy="937.06" fx="666.08" fy="937.06" r="320.28" gradientTransform="translate(-305.62 -892.42) scale(1.1 1.3)" gradientUnits="userSpaceOnUse">
      <stop offset=".36" stop-color="#f1f2f2" stop-opacity="0"/>
      <stop offset=".42" stop-color="rgba(220, 221, 222, .15)" stop-opacity=".15"/>
      <stop offset=".59" stop-color="rgba(172, 173, 175, .52)" stop-opacity=".52"/>
      <stop offset=".74" stop-color="rgba(137, 138, 141, .78)" stop-opacity=".78"/>
      <stop offset=".87" stop-color="rgba(116, 117, 120, .94)" stop-opacity=".94"/>
      <stop offset=".97" stop-color="#6d6e71"/>
    </radialGradient>
    <radialGradient id="_Безымянный_градиент_16" data-name="Безымянный градиент 16" cx="521.33" cy="361.4" fx="521.33" fy="361.4" r="424.94" gradientTransform="translate(0 -91.52) scale(1 1.03)" gradientUnits="userSpaceOnUse">
      <stop offset=".68" stop-color="#221e1f" stop-opacity="0"/>
      <stop offset=".71" stop-color="rgba(46, 42, 43, .06)" stop-opacity=".06"/>
      <stop offset=".77" stop-color="rgba(79, 76, 77, .23)" stop-opacity=".23"/>
      <stop offset=".86" stop-color="rgba(133, 132, 133, .51)" stop-opacity=".51"/>
      <stop offset=".97" stop-color="rgba(206, 206, 207, .88)" stop-opacity=".88"/>
      <stop offset="1" stop-color="#e6e7e8"/>
    </radialGradient>
    <radialGradient id="_Безымянный_градиент_139" data-name="Безымянный градиент 139" cx="729.56" cy="1523.34" fx="729.56" fy="1523.34" r="106.23" gradientTransform="translate(-406.75 -2113.39) scale(1.07 1.57)" gradientUnits="userSpaceOnUse">
      <stop offset="0" stop-color="#f1f2f2"/>
      <stop offset="1" stop-color="#221e1f" stop-opacity="0"/>
    </radialGradient>
  </defs>
  <g class="cls-15">
    <g id="_Слой_2" data-name="Слой 2">
      <g id="_Слой_3" data-name="Слой 3">
        <g>
          <rect class="cls-12" width="700" height="700"/>
          <g>
            <g>
              <path class="cls-11" d="M534.38,357.73c12.01,137.55-82.62,242.27-184.53,242.27s-194.58-104.56-184.53-242.27c10.35-141.75,101.75-257.73,184.53-257.73s172.45,119.42,184.53,257.73Z"/>
              <g>
                <path class="cls-10" d="M474.33,542.54c-73.82,73.44-174.57,73.9-248.29.05-94.76-107.78-70.41-273,14.22-379.42,28.14-31.88,64.5-62.86,109.45-63.17,44.96-.32,81.49,30.89,109.32,62.8,83.68,106.63,110.67,272.02,15.3,379.74Z"/>
                <g>
                  <path class="cls-11" d="M474,542.89c-73.86,73.14-174.39,73.4-247.96-.3-94.76-107.78-70.41-273,14.22-379.42,28.16-31.82,64.4-62.87,109.33-63.06,44.95-.2,81.07,30.33,109.13,62.31,83.44,106.94,110.35,272.45,15.29,380.48Z"/>
                  <path class="cls-5" d="M352.83,556.62c-12.33,13.28-26.18,26.34-41.64,35.63-1.01.6-.06,2.71,1.38,3.07,19.52,4.1,37.36,5.16,57.18,3.36-3.23-14.38-8.32-28.26-14.01-41.6-.49-1.15-2.04-1.4-2.91-.45Z"/>
                  <path class="cls-1" d="M429.01,526.03c.2-1.05-.52-1.67-1.58-1.34-14.53,4.5-29.46,7.15-44.35,8.82-3.41.38-7.01.62-10.62.82-.61.03-1.19.35-1.57.88-3.01,4.15-7.4,9.56-12.7,15.53-.5.57-.63,1.39-.35,2.05,6.26,14.55,11.77,29.72,15.09,45.42,15.21-2.97,28.91-7.18,43.2-13.17.9-.41,1.86-1.58,2-2.42,3.19-18.9,7.29-37.75,10.88-56.59Z"/>
                  <path class="cls-4" d="M350.62,545.88c-1.08-2.28-2.2-4.64-3.37-7.05-1.34-2.76-4.09-4.57-7.08-4.82-28.16-2.42-55.34-8.94-81.86-18.85-3.26-1.22-6.06-.59-6.95,1.7-2.56,6.58-5.69,13.44-8.28,17.22-.67.97-.46,2.63.54,4.63,4.43,8.84,8.82,17.73,13.08,26.67,1.62,3.39,5.61,7.85,8.89,9.87,11.03,6.83,22.82,12.44,35.11,16.59,1.28.43,2.46.44,3.35,0,17.3-8.73,31.77-22.9,45.15-36.81,2.28-2.37,2.87-6.05,1.42-9.13Z"/>
                  <path class="cls-5" d="M240.31,537.01c-.68-1.32-1.38-2.66-2.08-4.01-5.65-10.85-11.34-21.71-17.04-32.54-1.01-1.91-2.87-3.77-4.81-4.84-4.8-2.65-9.32-5.3-13.54-7.9-.82-.51-1.63-1.02-2.43-1.52-3.32-2.1-6.42-4.15-9.3-6.15-3.65-2.53-6.21-1.8-4.84,1.32,10.15,21.39,21.97,40.17,37.14,58.31,1.62,1.83,4.43,4.84,6.27,6.72,7.15,7.41,15.3,14.51,23.64,20.55,2,1.47,2.78,1,1.75-1.07-4.83-9.67-9.8-19.27-14.76-28.86Z"/>
                  <path class="cls-2" d="M467.72,458.39c-6.56,4.27-14.28,8.7-21.19,11.67-2.48,1.07-4.43,3.46-4.85,5.97-2.43,14.38-5.02,28.78-7.81,43.12-.24,1.23-.48,2.46-.72,3.66-3.77,18.94-8.04,37.87-11.73,56.82-.36,1.87.79,2.47,2.73,1.45,5.63-2.96,8.4-4.58,13.81-8.08,1.75-1.13,3.9-3.35,5.28-5.4,19.08-28.29,39.67-55.71,60.45-82.81,1.65-2.15,2.18-4.22,1.21-5.11-9.34-8.5-20.59-15.3-31.27-21.94-1.53-.95-3.84-.71-5.9.63Z"/>
                  <path class="cls-5" d="M513.88,483.11c2.91-6.41,4.26-9.7,6.72-16.44-2.92,3.66-6.22,7.84-9.82,12.43,1.26,1.37,2.29,2.7,3.1,4.01Z"/>
                  <path class="cls-5" d="M463.36,186.56c-2.96-.56-6.1-.88-9.43-.9-1.27,0-1.89.97-1.66,2.65,2.99,21.53,4.33,43.29,5.06,64.92.04,1.26.07,2.54.11,3.82.22,8.51.32,17.5.3,26.93,0,1.9.72,3.97,2.01,5.69,10.96,14.59,22.16,29.09,33.69,43.27,2.5,3.08,6.54,4.07,9.39,2.41,9.66-5.61,17.53-9.62,23.46-12.21,2.01-.88,2.96-2.96,2.49-5.39-8.8-41.54-22.74-80.14-43.55-117.18-2.02-3.44-6.59-8.31-9.18-9.63-3.23-1.65-6.72-2.99-10.52-3.9-.71-.17-1.43-.33-2.17-.47Z"/>
                  <path class="cls-7" d="M535.12,368.73c-.57-11.77-1.86-23.5-3.62-35.15-.54-3.56-4.72-6.24-7.62-4.82-5.12,2.51-11.37,5.88-18.65,10.18-2.42,1.43-2.72,5.04-.61,7.54,7.27,8.61,14.59,17.28,22.16,25.67,3.06,3.4,8.55,1.08,8.34-3.43Z"/>
                  <path class="cls-6" d="M221.71,276.47c2.3-10.05,5.03-20.15,8.06-29.99.51-1.64-.75-2.42-2.31-1.43-5.72,3.63-11.23,7.08-16.49,10.34-1.3.8-2.15,2.36-1.77,3.29,2.43,5.98,5.22,12.52,8.34,19.55.74,1.67,3.66.47,4.16-1.75Z"/>
                  <path class="cls-4" d="M397.74,111.87c-15.51-6.82-30.54-11.55-47.67-11.87-1.85,0-3.05,2.46-2.35,4.65,4.35,13.57,10.97,26.49,17.43,39.09.96,1.88,3.02,2.64,4.4,1.66,11.03-7.85,24.44-15.85,31.49-27.45.83-1.36-1.19-5.05-3.3-6.09Z"/>
                  <path class="cls-2" d="M275.83,141.58c-.61,1.15-1.23,2.33-1.86,3.55-13.85,26.76-25.45,54.73-35.16,83.06-1.2,3.5,1.49,5.22,4.81,3.04,11.21-7.37,22.41-14.82,33.55-22.31,1.31-.88,2.62-1.76,3.92-2.65,10.91-7.38,21.82-14.82,32.68-22.27,1.86-1.27,2.92-3.74,2.62-5.85-3.16-22.15-5.87-44.94-4.71-67.46.09-1.75-.9-2.57-2.38-1.94-8.76,3.71-13.13,6.04-21.71,11.55.22.33.34.51.57.85-2.96,3.61-7.2,10.72-12.34,20.42Z"/>
                  <path class="cls-2" d="M166.16,401.81c1.22,11.13,2.82,21.77,4.95,32.76,4.41.17,9.38.07,14.82-.34-6.15-11.03-12.08-22.35-19.77-32.42Z"/>
                  <path class="cls-5" d="M253.98,418.6c1.36-.47,2.71-.98,4.02-1.47,4.73-1.77,9.03-3.53,12.69-5.15,3.76-1.67,5.16-6.51,3.04-10.48-12.87-24.05-25.22-48.48-37.27-72.95-.87-1.76-2.46-2.92-4.36-3.2-4.68-.68-9.22-1.36-13.59-2.03-1.32-.2-2.63-.4-3.92-.61-11.69-1.89-23.57-3.72-35.07-6.63-3.85-.98-8.72,2.6-9.45,6.94-3.63,23.74-5.36,46.88-4.48,70.9.09,1.5.76,2.97,1.8,4.22,7.52,9.02,13.29,19.95,18.97,30.31,1.72,3.14,5.33,5.32,8.3,4.91,20.15-2.81,40.05-8.04,59.33-14.75Z"/>
                  <path class="cls-2" d="M218.23,290.24c-4.34-9.58-8.64-19.24-12.6-29.01-.49-1.2-2.06-1.28-3.77-.24-6.24,3.81-12.01,7.26-17.21,10.32-1.49.88-2.78,2.39-3.21,3.8-3.16,10.82-5.93,21.52-8.45,32.51-.29,1.35.24,2.47,1.34,2.85,11.35,3.95,23.86,5.46,35.82,7.35,2.35.37,4.9-1.79,5.18-4.38.66-6.35,1.69-13.49,3.1-21.14.14-.75.07-1.47-.19-2.06Z"/>
                  <path class="cls-5" d="M275.79,138.26c2.85-5.1,5.42-9.41,7.65-12.83,1.22-1.87,1.03-3.07-.32-2.14-4.8,3.3-7.18,5.09-11.88,8.92-1.35,1.1-3.03,3.5-2.95,4.26.29,2.88,1.74,4.14,4.24,4.69.71.16,2.35-1.29,3.25-2.89Z"/>
                  <path class="cls-2" d="M433.64,259.62c-.9-1.27-1.79-2.54-2.68-3.81-2.12-3.04-4.24-6.06-6.28-9.05-8.57-12.51-17.01-25.22-25.18-38-1.71-2.67-4.66-3.87-6.8-2.69-14.66,8.08-28.79,17.32-42.46,26.97-1.56,1.1-3.02,2.17-4.44,3.21-3.31,2.43-6.28,4.66-8.82,6.61-1.97,1.52-2.91,4.26-2.29,6.77,4.3,17.36,8.97,34.74,13.89,51.94.45,1.59.91,3.17,1.38,4.75,2.64,8.97,5.36,17.93,8.15,26.84.48,1.54.96,3.09,1.45,4.62,7.67,24.12,15.53,48.32,24.83,71.9,1.45,3.68,5.76,4.86,8.88,2.5,18.16-13.69,36.44-27.27,54.91-40.57,1.43-1.03,2.33-2.71,2.45-4.57.49-7.4.91-14.73,1.26-21.79.92-18.44,1.64-36.95,1.88-55.43.02-1.45-.51-2.98-1.47-4.28-6.31-8.56-12.55-17.22-18.67-25.92Z"/>
                  <path class="cls-7" d="M447.07,465.86c5.24-2.34,11.08-5.53,16.39-8.78,2.02-1.23,2.51-3.91.9-4.84-4.87-2.83-9.56-5.42-13.71-7.56-1.74-.9-4.19.62-4.51,2.81-.8,5.51-1.61,10.86-2.43,16.07-.32,2.01,1.42,3.17,3.36,2.3Z"/>
                  <path class="cls-7" d="M355.67,547.94c4.54-5.12,8.33-9.74,11.09-13.37-5.67.18-11.5.17-17.42-.06,2.29,4.72,4.4,9.2,6.33,13.43Z"/>
                  <path class="cls-4" d="M427.51,244.87c1.29,1.88,2.6,3.75,3.9,5.61,1.71,2.44,4.45,3.78,6.66,3.27,3.57-.82,7.66-1.42,11.78-1.38,2.26.02,3.76-1.53,3.69-3.91-.55-17.76-1.49-35.66-3.44-53.38-.42-3.85-5.41-8.95-8.23-8.37-13.32,2.74-25.46,7.55-37.98,13.49-2.4,1.14-2.83,4.94-.81,8.09,7.93,12.34,16.12,24.53,24.42,36.59Z"/>
                  <path class="cls-8" d="M453.87,281.74c.06-8.66.01-17.09-.14-25.22-5.84-.46-11.94.68-16.64,2.02,5.51,7.79,11.1,15.53,16.78,23.2Z"/>
                  <path class="cls-7" d="M449.13,169.31c.73,3.75,1.48,7.98,2.22,12.74,3.4.03,6.61.37,9.63.98-3.35-4.58-7.93-9.71-11.85-13.72Z"/>
                  <path class="cls-2" d="M313.85,474.83c-7.11-13.04-14.29-26.05-21.45-39.06-.92-1.68-2.57-2.9-4.33-3.18-9.1-1.43-20.52-3.88-28.49-8.94-1.49-.94-3.24-1.19-4.74-.68-19.06,6.54-38.71,11.6-58.62,14.18-2.57.33-3.57,2.89-2.09,5.66,4.98,9.33,9.9,18.7,14.79,28.09.66,1.27,1.32,2.54,1.99,3.82,3.11,5.99,6.25,12.05,9.36,18.08.91,1.77,2.6,3.46,4.38,4.36,7.8,3.92,16.24,7.78,25.19,11.41,1.28.52,2.59,1.05,3.88,1.54,26.2,9.97,53.08,16.76,80.9,19.71,3.78.4,6.37-3.69,4.54-7.25-7.52-14.7-15.34-29.35-23.22-43.89-.69-1.27-1.4-2.56-2.1-3.85Z"/>
                  <path class="cls-7" d="M279.72,412.59c-4.32,2.25-10.47,4.96-17.72,7.74,6.4,3.91,16.33,6.14,26.24,7.86-2.82-5.15-5.67-10.35-8.52-15.6Z"/>
                  <path class="cls-3" d="M205.02,469.83c-5.03-9.5-10.08-18.99-15.2-28.45-1.06-1.96-3.26-3.36-5.09-3.28-3.55.16-6.89.19-10,.09-1.67-.05-2.55,1.11-2.14,2.78,2.25,9.44,5.18,18.97,8.65,28.03.46,1.22,1.59,2.6,2.94,3.63,3.21,2.46,6.93,5.07,11.11,7.79,1.96,1.28,3.73,1.35,4.01.02.61-2.87,3.05-5.23,5.61-7.06.87-.62.92-2.03.11-3.56Z"/>
                  <path class="cls-3" d="M362.61,145.45c-7.01-13.76-14.26-27.99-18.27-42.93-.37-1.38-1.33-2.27-2.47-2.17-9.61.85-14.46,1.92-24.1,5.18-1.71.58-3.39,3.05-3.43,5.07-.45,21.39,2.11,42.93,5.17,64.02.36,2.49,2.81,3.5,4.93,2.03,12.43-8.59,24.87-17.25,37.29-25.82,1.53-1.05,1.87-3.46.88-5.39Z"/>
                  <path class="cls-3" d="M193.13,242.76c-3.76,9.03-5.51,13.67-8.72,23.16-.54,1.6.7,2.21,2.4,1.18,4.31-2.59,8.99-5.44,13.98-8.53,1.56-.97,2.64-2.87,2.23-3.91-2.14-5.54-3.92-10.5-5.34-14.87-.44-1.35-3.64.78-4.55,2.97Z"/>
                  <path class="cls-3" d="M385.45,423.75c-21,15.96-42.08,31.97-62.3,48.92-2.4,2.01-2.93,5.56-1.35,8.5,8.19,15.27,16.29,30.67,24.01,46.14,1.05,2.11,3.12,3.48,5.41,3.55,6.23.19,12.35.15,18.31-.09,1.51-.06,3.02-.12,4.49-.22,16.9-1.19,34.08-3.69,50.53-8.47,3.12-.91,5.96-4.01,6.54-7.17,2.57-13.96,4.97-27.98,7.21-41.97.22-1.34.43-2.7.64-4.06,1.45-9.27,2.81-18.58,4.07-27.87.2-1.51.41-3.04.61-4.56,1.96-15.1,3.69-30.31,5.12-45.46.57-6.02-5.81-9.98-10.59-6.48-16.45,12.01-32.82,24.21-49.08,36.5-1.21.92-2.42,1.83-3.63,2.75Z"/>
                  <path class="cls-6" d="M456.05,345.87c-.23,4.75-.49,9.48-.77,14.31-.16,2.69,2.63,4.48,4.66,3.06,10.53-7.41,21.27-14.6,32.16-21.43,1.35-.84,1.52-2.79.36-4.23-10.16-12.6-20.17-25.45-29.94-38.36-1.75-2.32-4.87-1.84-4.91.8-.25,15.29-.82,30.6-1.55,45.85Z"/>
                  <path class="cls-3" d="M444.12,147.01c.26,2.1,1.88,7.46,3.88,16.79.34,1.61,1.89,4.18,3.93,6.37,2.66,2.85,5.45,6.03,8,9.19,1.98,2.46,4.36,4.43,5.83,4.9,4.06,1.28,7.75,3.07,11.13,5.18,1.53.95,1.7.29.43-1.65-5.84-8.95-8.9-13.21-15.25-21.22-1.67-2.11-4.57-5.64-6.49-7.88-3.77-4.39-5.69-6.5-9.6-10.54-1.24-1.29-1.93-1.72-1.86-1.14Z"/>
                  <path class="cls-3" d="M344.02,300.51c-6.32-22.44-12.2-45.12-17.33-67.84-.44-1.97-1.69-3.48-3.37-4.1-13.81-5.11-28.07-10.03-41.13-16.61-1.4-.7-3.28-.45-5.05.72-12.91,8.58-25.9,17.1-38.92,25.49-2.05,1.32-3.76,3.51-4.41,5.69-4.24,14.36-8.05,28.96-10.86,43.76-.23,1.19-.11,2.3.32,3.23,4.39,9.55,8.92,19.06,13.52,28.51.76,1.57,2.2,2.62,3.94,2.86,26.1,3.53,52.3,6.91,78.55,9.25,2.28.2,4.5-.94,5.88-3,5.11-7.62,11.89-15.28,17.12-20.71,1.81-1.87,2.46-4.68,1.73-7.26Z"/>
                  <path class="cls-7" d="M218.73,319.12c4.52.67,9.23,1.34,14.11,2.02-4.11-8.46-7.97-16.55-11.52-24.19-1.29,8.1-2.15,15.59-2.59,22.17Z"/>
                  <path class="cls-7" d="M241.83,527.7c1.94-3.64,4.08-8.56,5.88-13.2.58-1.48-1.05-4.08-3.19-5.01-5.55-2.42-10.9-4.94-16.01-7.5-2.21-1.11-3.44.13-2.32,2.31,3.57,6.96,7.05,13.78,10.36,20.32,1.28,2.53,4.54,4.47,5.29,3.07Z"/>
                  <path class="cls-7" d="M340.92,234.73c-3.24-1.05-6.81-2.27-10.58-3.61.74,3.28,1.51,6.6,2.3,9.95,2.31-1.83,5.1-3.96,8.28-6.33Z"/>
                  <path class="cls-6" d="M202.87,485.18c4.5,2.72,9.4,5.5,14.64,8.29-3.02-5.73-6.06-11.49-9.07-17.19-3.4,2.39-6.29,5.54-5.56,8.9Z"/>
                  <path class="cls-5" d="M346.66,230.51c14.18-10.24,29-19.95,44.34-28.41,1.74-.96,2.04-3.59.71-5.76-8.17-13.31-16.17-26.82-23.65-40.58-1.07-1.97-3.13-2.72-4.65-1.68-13.3,9.06-26.6,18.22-39.9,27.3-1.54,1.05-2.44,3.1-2.12,4.93,2.19,12.54,4.67,25.12,7.35,37.57.29,1.34,1.16,2.4,2.33,2.83,4.5,1.65,8.74,3.16,12.4,4.35,1.08.35,2.24.14,3.2-.55Z"/>
                  <path class="cls-7" d="M352.58,329.49c-1.58-5.13-3.14-10.33-4.68-15.56-.6-2.02-2.9-2.66-4.29-1.19-4,4.24-8.7,9.6-12.71,15.08-1.35,1.84-.3,4.56,1.84,4.71,6.43.43,12.23.69,17.32.75,1.82.02,3.1-1.91,2.52-3.79Z"/>
                  <path class="cls-8" d="M454.15,376.66c-1.53,18.86-3.54,37.78-6.03,56.59-.39,2.94.85,5.57,3.2,6.75,6.03,3.03,13.32,7.11,20.7,11.51,1.02.61,2.05,1.22,3.06,1.84,10.36,6.39,21.01,12.94,30.41,20.78,2.05,1.71,7.01-.74,10.16-4.75,2.08-2.65,4.02-5.11,5.8-7.32.9-1.12,1.57-2.28,1.92-3.36,7.33-22.54,10.64-45.41,11.92-69.01.05-1.69-.56-3.26-1.7-4.44-11.18-11.57-21.52-24.01-31.83-36.34-2.48-2.96-6.52-3.9-9.46-2.03-11.88,7.52-23.38,15.59-34.82,23.72-1.9,1.35-3.11,3.62-3.31,6.07Z"/>
                  <path class="cls-8" d="M448.64,565.57c7.87-5.8,15.54-12.53,22.35-19.55,1.87-1.89,4.72-4.93,6.37-6.77,13.63-14.92,24.16-31.91,33.5-49.74.45-.91.58-1.65.35-2.11-.25-.49-.53-.98-.85-1.48-.98-1.53-5.4.66-8.18,4.24-18.54,23.96-36.98,48.12-54.34,72.98-2.14,3.07-1.7,4.32.81,2.44Z"/>
                  <path class="cls-8" d="M370.25,153.31c7.87,14.44,16.33,28.59,24.96,42.53,1.03,1.67,2.89,2.42,4.19,1.79,15.1-7.41,30.98-14.45,48.16-15.5.6-.04.88-.5.77-1.27-.77-5.47-1.58-10.36-2.36-14.65-.16-.88-.32-1.73-.47-2.56-1.73-9.11-3.29-15.2-3.91-18.41-.18-.92-2.26-3.7-3.76-5.11-9.48-8.85-19.83-16.81-31.02-23.39-.74-.44-1.26-.32-1.44.2-5.02,14.09-22.46,23.55-34.53,32.01-1.17.82-1.46,2.74-.58,4.35Z"/>
                  <path class="cls-1" d="M232.97,236.39c10.21-30.4,22.75-60.3,37.79-88.87.79-1.5.83-2.61.11-2.72-3.75-.61-5.72-2.32-5.41-6.93.03-.51-.46-.36-1.31.4-7.58,6.7-14.86,14.21-21.39,21.94-1.21,1.41-3.03,3.6-4.07,4.88-15.54,20.06-28.2,40.89-39.38,63.67-.27.58-.37,1.07-.28,1.4,1.68,5.95,4.22,13.36,7.67,22.22.45,1.16,2.02,1.25,3.74.17,6.21-3.91,12.79-8.1,19.64-12.52,1.32-.85,2.43-2.27,2.89-3.65Z"/>
                  <path class="cls-6" d="M314.48,187.53c-8.34,5.68-16.71,11.33-25.09,16.95-2.19,1.47-2.72,4.72-.86,5.54,10.14,4.47,20.64,8.39,31,12.36,2.18.83,4.57-1.67,4.04-4.23-2.01-9.67-3.85-19.43-5.46-29.17-.3-1.84-2.05-2.53-3.63-1.45Z"/>
                  <path class="cls-8" d="M283.35,410.54c3.37,6.24,6.72,12.42,10.05,18.51.49.9.98,1.8,1.47,2.69,6.3,11.52,12.61,23.05,18.89,34.58,1.64,3.02,5.39,3.96,7.83,1.92,19.04-15.91,38.79-31,58.5-46.04,2.05-1.56,2.85-4.38,1.88-6.79-10.2-25.34-18.5-51.45-26.77-77.49-.73,0-1.45.02-2.22.02-7.45-.01-16.9-.53-27.65-1.41-1.54-.13-3.09-.26-4.68-.4-23.24-2.07-46.45-5-69.55-8.12-4.3-.58-7.85,4.53-5.87,8.53,11.68,23.48,23.59,46.91,35.98,70.02.71,1.33,1.43,2.66,2.15,3.98Z"/>
                </g>
              </g>
            </g>
            <g>
              <path class="cls-13" d="M349.86,100c-82.78,0-174.18,115.98-184.53,257.73-10.05,137.71,82.62,242.27,184.53,242.27s196.53-104.72,184.53-242.27c-12.07-138.32-98.3-257.73-184.53-257.73Z"/>
              <path class="cls-9" d="M349.63,600c28.6,0,55.67-8.27,79.85-22.97,15.96-60.76,5.46-139.19-33.95-212.92-45.35-84.85-117.15-141.34-184.96-153.6-28.63,41.83-45.99,106.03-45.99,165.36,0,129.61,82.85,224.13,185.05,224.13Z"/>
              <ellipse class="cls-14" cx="376.7" cy="284.22" rx="114.08" ry="167.2"/>
            </g>
          </g>
        </g>
      </g>
    </g>
  </g>
</svg>