<?xml version="1.0" encoding="UTF-8"?>
<svg xmlns="http://www.w3.org/2000/svg" xmlns:xlink="http://www.w3.org/1999/xlink" viewBox="0 0 700 700">
  <defs>
    <style>
      .cls-1 {
        fill: #3e2354;
      }

      .cls-1, .cls-2, .cls-3, .cls-4, .cls-5, .cls-6, .cls-7, .cls-8, .cls-9 {
        stroke-width: 0px;
      }

      .cls-2 {
        fill: #674585;
      }

      .cls-3 {
        fill: #b18bcf;
      }

      .cls-4 {
        fill: #d1b2eb;
      }

      .cls-5 {
        fill: url(#_Безымянный_градиент_16);
      }

      .cls-5, .cls-9 {
        mix-blend-mode: screen;
      }

      .cls-6 {
        fill: #8763a8;
      }

      .cls-7 {
        fill: #1d0d2b;
      }

      .cls-8 {
        fill: url(#_Безымянный_градиент_140);
        mix-blend-mode: multiply;
      }

      .cls-10 {
        isolation: isolate;
      }

      .cls-9 {
        fill: url(#_Безымянный_градиент_139);
      }
    </style>
    <radialGradient id="_Безымянный_градиент_140" data-name="Безымянный градиент 140" cx="737.59" cy="1313.47" fx="737.59" fy="1313.47" r="320.28" gradientTransform="translate(-383.97 -1381) scale(1.1 1.3)" gradientUnits="userSpaceOnUse">
      <stop offset=".36" stop-color="#f1f2f2" stop-opacity="0"/>
      <stop offset=".42" stop-color="rgba(220, 221, 222, .15)" stop-opacity=".15"/>
      <stop offset=".59" stop-color="rgba(172, 173, 175, .52)" stop-opacity=".52"/>
      <stop offset=".74" stop-color="rgba(137, 138, 141, .78)" stop-opacity=".78"/>
      <stop offset=".87" stop-color="rgba(116, 117, 120, .94)" stop-opacity=".94"/>
      <stop offset=".97" stop-color="#6d6e71"/>
    </radialGradient>
    <radialGradient id="_Безымянный_градиент_16" data-name="Безымянный градиент 16" cx="521.33" cy="404.95" fx="521.33" fy="404.95" r="424.94" gradientTransform="translate(0 -136.26) scale(1 1.03)" gradientUnits="userSpaceOnUse">
      <stop offset=".68" stop-color="#221e1f" stop-opacity="0"/>
      <stop offset=".71" stop-color="rgba(46, 42, 43, .06)" stop-opacity=".06"/>
      <stop offset=".77" stop-color="rgba(79, 76, 77, .23)" stop-opacity=".23"/>
      <stop offset=".86" stop-color="rgba(133, 132, 133, .51)" stop-opacity=".51"/>
      <stop offset=".97" stop-color="rgba(206, 206, 207, .88)" stop-opacity=".88"/>
      <stop offset="1" stop-color="#e6e7e8"/>
    </radialGradient>
    <radialGradient id="_Безымянный_градиент_139" data-name="Безымянный градиент 139" cx="785.8" cy="2121.18" fx="785.8" fy="2121.18" r="106.23" gradientTransform="translate(-467.15 -3054.33) scale(1.07 1.57)" gradientUnits="userSpaceOnUse">
      <stop offset="0" stop-color="#f1f2f2"/>
      <stop offset="1" stop-color="#221e1f" stop-opacity="0"/>
    </radialGradient>
  </defs>
  <g class="cls-10">
    <g id="_Слой_2" data-name="Слой 2">
      <g id="_Слой_3" data-name="Слой 3">
        <g>
          <rect class="cls-7" y="0" width="700" height="700"/>
          <g>
            <g>
              <path class="cls-3" d="M474.33,542.54c-73.82,73.44-174.57,73.9-248.29.05-94.76-107.78-70.41-273,14.22-379.42,28.14-31.88,64.5-62.86,109.45-63.17,44.96-.32,81.49,30.89,109.32,62.8,83.68,106.63,110.67,272.02,15.3,379.74Z"/>
              <g>
                <path class="cls-6" d="M258.88,475.16c-7.61,7.04-28.69,20.14-27.65,25.8,2.24,12.12,31.43,33.53,47.27,49.69,9.91-8.45,19.55-17.2,29.17-25.97-1.4-12.56-2.64-25.14-3.72-37.73-15.13-3.59-30.11-7.52-45.07-11.79Z"/>
                <path class="cls-6" d="M322.43,489.13c.15,12.94-2.3,30.89.9,38.82,4.97,12.31,41.14,30.12,53.43,31.64,9.2,1.14,28.19-24.31,37.87-34.81-9.61-17.42-19.89-34.45-30.2-51.46-17.04,1.4-34.06,2.4-51.16,2.66-4.42,5.38-6.6,8.01-10.84,13.15Z"/>
                <path class="cls-6" d="M292.56,559.69c0-4.32,16.89-21.56,22.19-21.18,11.39.82,34.69,19.97,52.85,28.47-8.28,8.13-12.23,11.99-19.62,19.08-12.39.45-27.95.85-37.28-3.51-7.14-3.34-18.15-18.74-18.14-22.86Z"/>
                <path class="cls-6" d="M218.44,524.2s-10.57-17.86-8.61-18.59c1.96-.73,20.7,3.28,22.27,5.53,10.32,14.89,27.38,28.93,39.97,43.77,3.98,4.69-7.09,4.45-13.76,2.32-14.09-4.5-27.92-21.76-39.86-33.04Z"/>
                <path class="cls-6" d="M263.9,567.2c-1.36-1.9,17.08-6.45,23.56,1.18,6.48,7.63,12.74,16.19,11.03,16.53-7.99,1.62-29.26-10.26-34.59-17.72Z"/>
                <path class="cls-6" d="M359.01,588.15c-.37-1.14,20.98-22.35,28.86-23.64,7.82-1.28,23.23,6.65,34.7,9.22,2.62.59-7.15,8.43-17.88,12.05-14.29,4.82-45.68,2.36-45.68,2.36Z"/>
                <path class="cls-6" d="M434.02,519.04c-7.38,5.74-37.88,28.12-34.54,33.08,3.47,5.15,25.64,13.41,31.63,11.84,6.42-1.68,17.6-16.09,25.41-24.62,6.65-7.27,10.84-26.65,9.18-28-2.29-1.86-23.81,1.57-31.68,7.69Z"/>
                <path class="cls-6" d="M402.41,469.25c5.73,13.07,15.16,43.92,23.64,44.98,8.55,1.06,31.24-7.21,41.79-12.88,7.42-3.99,10.13-28.53,8.53-30.17-3.9-4.01-39.13-4.57-56.21-4.45-2.53.02-20.21-3.07-17.76,2.52Z"/>
                <path class="cls-6" d="M268.38,463.6c5.58,7.38,30.86,12.28,47.11,14.58,7.19-6.57,10.9-10,18.46-17.05,2.05-17.91,4.18-35.82,6.32-53.72-19.07-8.29-38.07-16.75-57.04-25.25-7.03,7.15-15.59,15.27-19.06,23.36-6.37,14.87-1.82,50.1,4.22,58.08Z"/>
                <path class="cls-6" d="M243.5,410.38c9.5,7.04,8.94,39.7,7.67,51.92-.95,9.16-26.84,23.86-32.24,23.15-5.33-.7-21.75-14.49-25.35-22.1-3.99-8.44-6.44-31.75-2.66-37.54,4.43-6.79,44.47-21.45,52.58-15.43Z"/>
                <path class="cls-6" d="M198.02,475.98c7.7,6.39,14.88,13.41,21.89,20.54,0,0-14.66.04-16.64-.75-7.25-2.89-14.26-19.51-19.48-29.36,5.66,3.81,8.51,5.73,14.22,9.57Z"/>
                <path class="cls-6" d="M177.53,412.92c13.74-10.11,45.59-20.45,46.75-24.2,1.21-3.91-12.89-30.75-21.02-37.29-6.33-5.09-24.26.59-34.41,3.48-.57,19.31.3,37.99,2.73,57.15,2.37.35,3.56.52,5.95.85Z"/>
                <path class="cls-6" d="M354.14,415.92c-1.26,10.02-7.29,34.65.97,39.31,8.67,4.89,34.48,5.95,39.35,2.81,7.76-5.01,25.46-44.22,23.61-53.87-1.52-7.89-33.94-29.78-38.3-29.26-4.97.59-23.73,25.9-25.63,41.01Z"/>
                <path class="cls-6" d="M307.67,371.6c3.03,5.9,29.67,25.02,36.5,24.03,8.72-1.27,23.08-30.99,32.31-45.93-10.53-11.14-21.04-22.3-31.49-33.51-9.64,3.32-23.79,5.81-28.93,9.91-7.28,5.81-11.21,39.99-8.38,45.51Z"/>
                <path class="cls-6" d="M225.88,353.92c7.08,15.19,17.93,44.92,25.8,46.98,5.07,1.32,17.59-18.76,22.87-27.34-3.51-16.65-6.82-33.34-9.72-50.11-9.44,2-19.19,3.8-28.23,6.38-3.69,1.05-10.72,24.08-10.72,24.08Z"/>
                <path class="cls-6" d="M202.74,327.22c2.6,10.28,9.07,20.45,13.64,17.15,9.23-6.67,15.19-22.6,21.04-34.09-6.25-7.61-12.51-15.21-18.77-22.81,0,0-13.87,12.63-15.31,16.34-1.44,3.71-2.42,16.22-.6,23.41Z"/>
                <path class="cls-6" d="M274.13,325.12c1.67,12.98,1.24,37.64,10.16,43.15,4.58,2.84,14.41-.16,14.63-3.22,1.12-15.69,6.19-33.06,9.73-49.41-11.52,3.11-23.02,6.29-34.52,9.48Z"/>
                <path class="cls-6" d="M385.4,355.16c1.93,8.66,32.51,33.92,43.38,35.18,9.07,1.05,42.73-13.47,45.17-21.3,2.44-7.85-16.71-35.12-24.6-40.67-9.11-6.41-40.76-15.69-48.66-12.35-6.54,2.76-16.67,32.98-15.29,39.14Z"/>
                <path class="cls-6" d="M426.53,416.13c-3.34,5.95-8.5,23.14-14.6,32.91,21.65,3.91,43.21,6.96,65.15,8.68-1.51-14.92-1.99-39.08-6.24-44.48-3.37-4.27-41.12-2.8-44.3,2.89Z"/>
                <path class="cls-6" d="M480.61,375.89c-11.14,2.53-38.57,17.8-38.4,19.21.37,2.92,30.89,8.25,45.41,10.18,8.48-5.55,16.98-11.07,25.5-16.55-9.36-5.98-22.92-15.02-32.51-12.84Z"/>
                <path class="cls-6" d="M483.95,421.33c.97,10.06,3.73,19.89,5.97,29.72,10.63.25,15.79.19,25.67-.34,6.25-17.05,15.61-55.12,12.97-57-2.24-1.6-23.82,9.36-31.34,16.21-3.79,3.45-13.28,11.41-13.28,11.41Z"/>
                <path class="cls-6" d="M483.12,469.76c-1.75,4.83.57,24.6-.12,26.73-.69,2.13,19.85.47,19.85.47,6.09-10.39,19.1-37.84,16.55-39.84-2.68-2.09-21.45,2.58-32.22,3.54-1.6,3.65-2.42,5.47-4.07,9.1Z"/>
                <path class="cls-6" d="M471.85,515.05c-.11,7.42-.39,10.87-1.48,17.22,0,0,12.49-2.17,13.71-3.94,5.65-8.17,11.26-16.58,16.37-25.2-9.11,4.64-18.9,8.7-28.6,11.93Z"/>
                <path class="cls-6" d="M434.41,570.73c1.79-3.02,4.7-8.82,8.52-12.95s18.02-18.33,20.42-18.17c2.4.16,18.9-8.15,17.91-6.26-.99,1.9-6,7.88-6,7.88-12.03,11.76-26.05,21.57-40.86,29.5Z"/>
                <path class="cls-6" d="M175.44,309.8s15.94-6.35,17.11-1.53c2.29,9.41,5.36,18.83,8.47,28.11-9.73,2.34-19.48,4.64-29.23,6.88.9-11.26,2.09-22.27,3.66-33.46Z"/>
                <path class="cls-6" d="M241.57,320.97c10.36,2.93,49.29-7.09,54.99-13.03,3.12-3.25-4.41-29.3-8.9-33.08-4.63-3.9-25.32-1.68-30.47,1.32-4.89,2.85-21.46,43.13-15.62,44.78Z"/>
                <path class="cls-6" d="M224.96,274.02c.43,6.54,6.12,19.58,8.54,18.91,6.92-1.9,14.91-16.36,20.61-24.66-1.5-11.43-2.09-16.97-2.95-27.63,0,0-18.29,2.3-19.22,3.98-4.2,7.58-7.56,20.6-6.97,29.4Z"/>
                <path class="cls-6" d="M187.24,289.74c1.36,2.78,7.35,4.79,13.01,2.82,5.66-1.97,15.95-8.46,17.03-13.57,2.39-11.35,6.37-22.9,10.14-34.13-7.92-2.39-11.7-3.34-18.79-4.63,0,0-12.86,5.71-13.87,8.77-4.18,12.65-10.22,35.2-7.52,40.74Z"/>
                <path class="cls-6" d="M262.34,242.11c-1.56,4.19,5.1,21.05,5.1,21.05,0,0,25.22.09,26.42-.5,6.27-3.06,15.47-20.95,17.57-29.77.33-1.4-16.29-20.38-16.29-20.38,0,0-22.84-.79-24.75,1.01-5.34,5.04-5.04,20.51-8.04,28.59Z"/>
                <path class="cls-6" d="M299.42,274.01c-1.52,7.1,4.35,19.07,7.89,28.01,12.05.4,24.1,1,36.13,1.77,5.17-9.74,7.72-14.57,12.69-24.06-8.65-9.02-36.6-38.81-40.8-35.6-4.03,3.08-14.15,21.65-15.91,29.87Z"/>
                <path class="cls-6" d="M352.97,306.29c.23,5.34,16.9,28.04,23.13,27.86,5.41-.15,16.31-17.01,19.1-24.55,2.62-7.08,5.05-27.08-.89-31.03-4.25-2.83-16.56.75-21.7,2.09-8.11,2.12-19.85,20.93-19.65,25.62Z"/>
                <path class="cls-6" d="M360.67,252.65c1.48,7.62-.98,23.63,7.98,22.44,10.95-1.45,27.48-4.22,32.97-8.49,5.26-4.1,11.34-27.87,9.46-32.73-2.47-6.37-23.76-14.49-35.77-20.61,0,0-10.06,10.82-13.05,13.62-2.99,2.8-2.75,19.8-1.59,25.78Z"/>
                <path class="cls-6" d="M408.95,280.13c-.94,9.68-7.34,24.51-3.7,29.86,5.65,8.31,48.19,16.23,53.36,12.43,4.24-3.11,7.78-22.22,11.24-33.47-10.74-9.09-21.4-18.26-32.02-27.49-9.72,6.11-19.32,12.33-28.88,18.67Z"/>
                <path class="cls-6" d="M321.04,232.77c6.62,7.41,21.97,23.41,24.79,22.16,3.1-1.38,8.25-23.35,6.74-28.82-1.58-5.75-16.07-22.52-22.72-23.36-2.28-.29-17.75,13.09-14.05,16.72,3.7,3.63,5.23,13.3,5.23,13.3Z"/>
                <path class="cls-6" d="M421.15,232.1c-4.38,5.61-10.47,24.98-7.05,26.94,2.24,1.28,23.62-5.8,23.62-5.8,0,0-15.48-22.53-16.57-21.14Z"/>
                <path class="cls-6" d="M475.84,302.67c-5.62,6.87-11.05,19.11-8.5,27.75,2.68,9.09,5.86,22.42,12.22,27.99,7.28,6.38,20.14,11.23,30.43,16.22,2.11,1.02,8.42-17.89,8.37-23.76-.11-12.74-13.75-28.44-20.78-40.78-2.14-3.75-21.74-7.41-21.74-7.41Z"/>
                <path class="cls-6" d="M519.7,298.36c-8.31,3.44-16.42,2.61-12.73,11.92,4.76,12.01,12.45,23.53,19.34,34.72-1.34-15.64-3.43-31.26-6.61-46.63Z"/>
                <path class="cls-6" d="M453.99,260.3c7.85,9.83,15.29,25.07,26.06,30.14,6.14,2.89,12.64,7.57,16.54,5.19,3.9-2.38,20.37-8.34,20.37-8.34,0,0-12.73-20.24-13.67-21.31-6.52-7.49-23.84-17-34.48-18.69-3.45-.55-14.82,13-14.82,13Z"/>
                <path class="cls-6" d="M428.07,226.93c5.31,7.78,12.3,20.83,20.32,22.85,3.97,1,16.65-9.25,16.65-9.25-4.32-11.12-8.77-22.19-13.34-33.21-8.39-5.67-17.35-13.03-25.6-16.51-1.13-.48-5.91,15.29-5.32,19.02.59,3.73,7.29,17.1,7.29,17.1Z"/>
                <path class="cls-6" d="M458.32,207.17c.27,7.31,6.16,22.34,12.11,28.83,7.21,7.85,21.9,15.18,32.56,19.73,1.21.52-2.51-22.75-2.51-22.75-5.9-8.26-11.78-16.52-17.64-24.8-6.44-3.07-24.78-8.14-24.52-1.01Z"/>
                <path class="cls-6" d="M430.28,183.87c8.43,5.58,18.17,15.63,20.75,14.12,2.59-1.51,20.29-.49,20.29-.49-6.92-9.8-13.56-22.56-21.17-29.27-1.11-.98-17.87-13.32-20.12-14.52-2.25-1.2-6.39,4.84-6.41,7.72-.03,4.65,6.65,22.44,6.65,22.44Z"/>
                <path class="cls-6" d="M414.12,158.97c6.14,7.12,9.06,15.96,7.38,21.51-1.68,5.56-6.95,25.8-6.95,25.8-8.2-4.93-19.77-9.76-24.35-15.26-4.98-5.98-7.98-26.7-5.28-32.14,2.54-5.11,23.48-6.55,29.21.09Z"/>
                <path class="cls-6" d="M389.68,198.12c8.44,3.43,19.37,9.56,23.38,15.97,1.63,2.6.16,12.86-1.36,12.17-8.68-3.98-31.75-11.18-31.78-18.23-.02-4.19,9.76-9.9,9.76-9.9Z"/>
                <path class="cls-6" d="M338.74,192.89c2.3,4.46,8.35,21.23,18.21,17.81,9.27-3.22,23.18-12.07,25.23-18.35,2.1-6.43-3.08-20.95-5.12-31.14,0,0-16.56-7.24-18.4-5.28-7.47,7.97-23.55,29.93-19.92,36.96Z"/>
                <path class="cls-6" d="M300.28,200.47c3.49,6.82,13.62,5.24,18.05,3.16,4.43-2.07,11.84-10.03,12.02-11.96,1.06-11.15-3.6-26.46-5.4-39.6-6.2.92-9.3,1.5-15.49,2.91-5.93,9.98-11.97,19.96-18.24,29.67-2.26,3.51,8.29,14.35,9.05,15.82Z"/>
                <path class="cls-6" d="M283.96,189.34c3.6,4.05,10.05,13.22,8.49,14.55s-19.45,4.98-18.78,1.33c.67-3.65,10.29-15.88,10.29-15.88Z"/>
                <path class="cls-6" d="M222.55,226.46c3.96,3.47,7.62,12.45,13.3,10.92,5.68-1.52,18.04-1.42,19.22-5.22,1.18-3.81,10.85-21.07,11.16-22.62s-9.61-17.39-9.61-17.39c-9.46,1.83-20.16,5.19-25.95,12.12-5.21,6.24-8.11,22.19-8.11,22.19Z"/>
                <path class="cls-6" d="M210.84,210.14c9.17-5.93,13.76-8.77,12.89-3.54-.88,5.23-6.09,18.56-7.05,21.32-.96,2.76-17.02,7.62-16.3,5.9s10.46-23.68,10.46-23.68Z"/>
                <path class="cls-6" d="M257.69,176.94c.02.9,8.91,18.59,15.66,15.7,6.75-2.9,16.9-15.07,16.9-15.07,5.11-6.77,14.99-19.15,12.74-25.2-1.28-3.46-12.26-11.08-15.9-8.34-10.67,8.01-29.51,28.82-29.4,32.91Z"/>
                <path class="cls-6" d="M226.19,191.39c.11.16,10.83,2.08,14.67.2,3.84-1.87,10.16-10.72,11.41-13.26,1.24-2.54-5.25-11.29-5.25-11.29-7.06,7.89-20.83,24.35-20.83,24.35Z"/>
                <path class="cls-6" d="M226.45,185.19c8.19-7.66,17.43-15.65,23.48-24.48,2.66-3.89,10.68-16.86,9.33-15.69-1.35,1.18-15.28,13.85-18.31,17.62-3.03,3.77-14.49,22.55-14.49,22.55Z"/>
                <path class="cls-6" d="M267.34,137.59c-6.89,11.08-14.83,23.59-12.72,23.76,2.11.17,2.4,10.84,9.24,4.3,9.73-9.31,18.46-20.21,27.04-30.77,0,0-.9-12.92-2.17-12.51-1.27.41-21.39,15.21-21.39,15.21Z"/>
                <path class="cls-6" d="M299.28,115.87c.32,4.43-3.06,15.39-1.07,17.66,1.99,2.28,6.92,10.27,11.49,9.8,9.96-1.03,30.25-3.02,33.07-7,2.98-4.21.73-21.5.94-32.24-15.81.97-28.84,4.05-43.59,9.83-.33.78-.5,1.17-.84,1.95Z"/>
                <path class="cls-6" d="M332.16,147.55c-1.13,1.51.43,25.24,5.12,23.32,4.69-1.91,14.74-17.81,16.06-19.39,1.32-1.58-16.52-10.17-21.18-3.93Z"/>
                <path class="cls-6" d="M373.98,126.62c-3.97-.22-17.54,6.07-16.15,10.28,1.39,4.21-2.8,9.78,1.62,11.08s18.64,9.27,21.53,7.65c2.9-1.61,19.37-9.91,19.37-9.91-5.14-7.43-7.62-11.09-12.37-18.22-5.51-.67-8.32-.85-14-.89Z"/>
                <path class="cls-6" d="M389.31,112.72c0,1.7-1.06,5.23,2.46,10.89,5.09,8.18,9.65,18.01,15.36,24.73,1.2,1.41,11.89,7.1,14.06,4.72,2.17-2.38,7.15-13.74,7.34-14.52.18-.78-2-6.32-2-6.32-12.23-8.64-24.19-15.56-37.94-21.47.29.79.44,1.18.73,1.97Z"/>
                <path class="cls-6" d="M348.02,102.97c-.03,3.31-1.07,20.83,5.42,22.02,6.49,1.19,23.91-6.34,26.15-6.25,2.24.09-.84-11.16-.84-11.16-9.53-3.03-20.72-4.78-30.73-4.6Z"/>
                <path class="cls-6" d="M432.91,137.34c-.43,1.52,2.43,15.59,4.31,16.77,1.88,1.17,13.44,9.54,17.23,12.15s13.22,9.1,11.87,6.84c-1.35-2.25-8.4-11.58-8.4-11.58-8.07-8.81-15.91-16.45-25.01-24.19Z"/>
                <path class="cls-6" d="M472.32,181.43c-6.99-5.68-18.23-13.06-14.89-8.22,3.34,4.84,15.12,21.68,15.12,21.68,0,0,8.87,7.86,11.98,9.35s-12.21-22.81-12.21-22.81Z"/>
                <path class="cls-6" d="M218.75,529.5c-.33.47,10.78,16.44,12.26,17.86,8.63,8.31,18.2,16.51,28.35,22.44,3.31,1.93-2.21-7.76-7.27-12.26-9.21-8.18-18.54-16.39-27.82-24.45-2.93-2.54-5.2-4.05-5.51-3.59Z"/>
              </g>
              <g>
                <path class="cls-4" d="M518.45,452.42c1.54-.15,2.71-.23,3.37-.21.25,0,.51.02.76.07,3.36-11.96,5.83-24.16,7.41-36.48-2.61,11.18-6.08,22.16-10.12,32.9-.56,1.49-.84,2.24-1.42,3.72Z"/>
                <path class="cls-4" d="M501.29,498.49c-19.97,3.57-21.54-.31-20.84-2.65.12-.88.06-4.05-.06-6.7-.13-2.88-.29-5.46-.42-7.73-1.12,6.96-3.39,14.15-6.98,18.19-1.58,1.78-3.44,3.09-5.23,3.66-2.61.82-8.37,2.81-14.86,4.9,6.63-1.08,12.67-1.67,15.5-1.95.63-.06.95-.09,1.58-.16.08.54.12.81.19,1.35.07.48.24,1.92.22,3.98,11.7-3.58,23.14-8,34.16-13.31.76-1.46,1.13-2.19,1.86-3.67-.85,1.41-1.27,2.11-2.13,3.52-1.18.25-1.78.37-3,.59Z"/>
                <path class="cls-4" d="M455.85,542.2c4.68-4.14,9.3-7.55,11.24-7.4.39.03,1.67-.23,3.19-.66-.51.04-1.05.06-1.61.08-.31,0-.46.01-.77.02.84-5.2,1.09-7.98,1.28-13.89-1.47,5.61-4.6,12.11-10.13,18.35-1.03,1.17-2.1,2.34-3.2,3.5Z"/>
                <path class="cls-4" d="M484.78,528.44c-.11.11-.23.22-.35.33.59-.22.94-.3,1.1-.23,3.33-4.48,4.93-6.8,8.02-11.56-2.93,4.24-5.28,7.43-5.67,7.98-.7,1-1.86,2.29-3.1,3.47Z"/>
                <path class="cls-4" d="M399.8,309.09c-.06.28-.09.42-.15.71.11-.03.22-.06.32-.08.41-.1,1.06-.11,1.92-.04-.81-1.69-1.12-3.74-1.08-6.18-.37,2.35-.75,4.31-1.01,5.6Z"/>
                <path class="cls-4" d="M348.51,304.67c.54-1.04.81-1.56,1.35-2.59,4.26-8.49,9.78-17.8,16.63-24.48-1.93-.42-3.32-1.38-4.25-2.26-4.06-3.89-4.28-10.95-4.49-17.11-.08-2.54-.21-4.95-.48-6.58-1.51-9.07-2.48-23.25,2.93-29.84,2.16-2.63,12.7-13.3,12.8-13.4.65-.7.97-1.05,1.61-1.74.81.42,1.22.63,2.04,1.05-.22-1.14-.16-2.28.2-3.31.53-1.51,1.31-2.9,2.23-4.14-5.66,4.9-14.07,10.84-20.58,12.81-9.64,2.92-14.32-5.76-17.5-12.01-1.33-2.62-2.68-5.29-4.08-6.59-1.22-1.12-1.84-2.88-1.77-4.95.2-5.43,6.16-15.65,11.55-23.96-3.14,3.9-5.85,6.5-8.1,7.41-1.15.46-4.13,1.07-6.3-3.17-.32-.63-.65-1.49-.96-2.52,3.21,20.53,3.13,22.57,2.91,23.48-.41,1.67-1.89,3.9-3.84,6.16,10.8,3.35,18.59,16.4,25.43,24.6.51.63.77.94,1.28,1.57-.12.82-.17,1.24-.29,2.06-1.34,10-1.88,25.66-8.43,31.76-.82.76-2.7,1.8-7.42-1.24,4.94,4.88,10.97,11.08,18.49,19.02.94,1,1.42,1.5,2.37,2.5-5.15,9.86-10.33,19.69-15.53,29.53-13.74-.92-27.49-1.61-41.25-2.07-.39-.96-.58-1.43-.96-2.38-3.85-9.43-9.37-21.24-7.92-30.65.26-1.71,1.9-4.3,6.17-11.37,3.47-5.75,9.16-15.3,9.83-18.38,0,0,0,0,0,0,.42-1.91,1.65-3.47,3.28-4.16,1.2-.51,3.02-1.4,10.24,4.15-2.13-2.26-4.44-4.8-6.94-7.65-.28-.33-.43-.49-.71-.81-.07-.46-.11-.7-.18-1.16-.5-3.24-2.06-9.1-4.13-11.13-1.66-1.63-2.06-4.15-1.13-6.95.78-2.34,2.63-4.99,4.87-7.49-6.66,2.14-16.14,1.89-19.75-5.18-.07-.1-.41-.51-.81-1,.02.41,0,.8-.08,1.16-.28,1.36-1.05,2.66-2.11,3.56-.55.46-1.43.9-2.54,1.3,1.52.05,3.11.13,4.8.24.42.03.64.04,1.06.07.27.31.41.46.68.77,5.82,6.51,16.32,15.83,17.14,23.27.07.67-.04,2.62-8.5,17.58-9.3,16.43-10.99,16.64-13.15,16.81-2.17.18-22.8.3-26.86.42-.8.02-1.2.04-2,.06-.32-.71-.47-1.06-.79-1.76-5.47-12.21-6.72-19.96-4.75-24.22.36-1.03,1.16-4.86,1.82-7.91,1.11-5.16,2.05-9.2,2.95-12.38-2.11,4.12-4.81,9.42-5.23,10.79-.69,2.27-2.03,3.84-3.83,4.96.82,10.53,2.12,20.98,3.45,31.45-.46.68-.69,1.03-1.16,1.71-.79,1.16-1.55,2.27-2.28,3.33.87-.78,1.82-1.31,2.91-1.45.33-.04,1.07-.15,2.07-.31,8.42-1.37,26.06-5.18,30.91-.16,6.08,6.31,12.21,26.8,10.21,37.01-.35,1.79-2.12,3.39-3.91,3.79-.67.15-2.95.7-6.23,1.5-5.75,1.41-14.1,3.48-22.36,5.49.85,5.03,1.3,7.56,2.23,12.67-.23-2.29-.48-4.86-.59-5.43-.47-1.86-.7-2.79-1.17-4.63,1.81-.49,2.72-.73,4.54-1.22,13.58-3.84,27.16-7.64,40.77-11.36-.6,2.81-.9,4.21-1.51,7.03-.71,3.31-1.5,7.06-2.32,10.97,1.8-5,3.34-5.45,4.66-5.84,0,0,0,0,0,0,9.58-3.13,19.07-6.55,28.59-9.85.96-.33,1.45-.5,2.41-.83,6.82,7.34,13.68,14.64,20.55,21.93-3.99-4.37-8.83-11.23-15.08-20.71-1.48-2.23-2.22-3.35-3.68-5.57Z"/>
                <path class="cls-4" d="M197.07,304.73c.29,1.24.91,3.62,1.72,6.53.32-3.98.98-7.52,1.78-9.53,1.09-2.74,5.44-7.45,9.89-11.87-3.54,2.25-7.11,3.89-9.46,4.7-7.23,2.47-9.97.6-15.52-2.88-.51-.32-.77-.48-1.28-.8.07-.6.1-.9.17-1.5,1.14-9.89,2.78-19.72,5.01-29.42-4.77,14.71-8.81,29.4-12.27,44.48,2.79-1.1,6.77-2.5,10.47-3.12,4.53-.75,8.62-.3,9.48,3.41Z"/>
                <path class="cls-4" d="M211.42,234.92c7.73,1.27,11.88,2.28,20.64,4.92.1-.07.19-.13.3-.2-3.62-.7-6.16-4.07-8.57-7.3-1.15-1.54-2.3-3.08-3.43-4.07-.23-.2-.34-.29-.56-.49.06-.32.09-.48.14-.79-1.53,2.29-4.37,4.2-8.4,5.81-2.62,1.04-5.87,2.08-8.46,2.73-1.47.37-3.54.92-4.57.52-1.52,3.61-2.26,5.43-3.7,9.12,2.25-2.34,6.6-5.75,15.67-9.82.38-.17.57-.25.94-.42Z"/>
                <path class="cls-4" d="M428.76,133.22c.03.07.05.11.08.18.65,1.52,1.17,2.82,1.55,3.9-.23-1.32-.4-2.4-.47-3.14-.46-.38-.69-.56-1.16-.93Z"/>
                <path class="cls-4" d="M467.05,175.37c.9.75,1.78,1.49,2.6,2.2-.37-.55-.56-.82-.93-1.36-.33-.08-.92-.39-1.67-.84Z"/>
                <path class="cls-4" d="M232.15,327.85c2.15-3.17,3.59-3.64,4.47-3.93.57-.18,1.55-.45,2.81-.77-1.04-.42-1.89-1.19-2.46-2.26-.17-.33-.32-.69-.43-1.08-1.38,2.6-2.87,5.34-4.4,8.05Z"/>
                <path class="cls-4" d="M221.84,276.62c-.25,1.34-.78,2.66-1.52,3.93.15-.14.22-.21.37-.34,1.6,1.95,2.42,2.94,4.09,4.97-1.14-3.18-2.01-6.7-2.63-9.99-.14.59-.24,1.08-.31,1.43Z"/>
                <path class="cls-4" d="M294.72,132.71c-.7.86-1.05,1.3-1.75,2.16-.18.23-1.32,1.63-3.06,3.75,6.5-2.05,15.12,7.37,16.42,9.16.97,1.32,1.03,3.36.48,5.77.56-.93.89-1.49.91-1.52.46-.77.69-1.15,1.15-1.92,7.72-1.9,11.6-2.65,19.33-3.72.16,1.1.24,1.65.4,2.76.2,1.36.39,2.68.58,3.95-.15-4.19.21-7.84,1.35-9.37.85-1.15,1.9-2.05,3.14-2.69-1.58.28-3.37.6-5.4.97-7.04,1.29-16.01,3.3-18.99,3.43-4.58.21-8.35-4.23-11.63-8.6-.51-.68-.95-1.27-1.31-1.68-1.61-1.84-.87-6.37-.04-11.04.51-2.86,1.06-5.75.97-7.31-.02-.27-.02-.4-.04-.67-1.83.97-2.74,1.47-4.56,2.51.53,1.49.96,4.65,1.83,12.3.08.7.12,1.05.21,1.76Z"/>
                <path class="cls-4" d="M250.94,162.19c4.67,6.32,5.92,11.09,5.31,12.93.36-.42.54-.63.89-1.05,1.31-1.54,2.74-3.22,4.25-4.98-.02,0-.04.02-.06.03-4.64,2.24-6.31-1.42-7.26-3.73-.33-.8-1.08-1.91-1.15-1.98-1.82-2.02,7.97-17.57,12.58-24.85.33-.52.5-.79.84-1.31-1.32,1.12-1.98,1.68-3.3,2.84.05.01.09.05.12.11.26.64-1.3,3.42-8.67,15.54-.53.88-1,1.65-1.36,2.24-.59.98-1.5,2.22-2.64,3.61.17.23.26.35.44.6Z"/>
                <path class="cls-4" d="M259.03,186.82c.44-.08.66-.12,1.1-.2.18.3.27.45.46.75,9.21,15.13,10.18,18.11,9.9,19.6-.1.53-.28,1.09-.69,2.03.29-.22.59-.43.9-.61.32-.18.73-.36,1.24-.53-1.21-1.02-1.15-2.55-.97-3.49.54-2.8,3.57-7.55,6.68-11.92-1.3.87-2.58,1.59-3.8,2.11-6.64,2.79-12.09-5.02-16.43-12.82-.77-1.38-1.45-2.62-1.81-3-.32-.33-.48-.5-.79-.82-2.51,4.14-8.2,11.88-13.23,14.88.89-.47,1.79-.91,2.69-1.33,5.59-2.57,11.32-4.03,14.76-4.66Z"/>
                <path class="cls-4" d="M516.76,333.82c4.18,7.84,6.25,13.31,5.77,16.45-1.36,8.95-3.65,21.49-9.85,26.25-.92.71-2.67.69-3.88.09-.62-.3-.93-.45-1.55-.75-9.98-4.76-20.67-9.61-29.42-15.72-1.24-.86-3.68-4.6-3.68-4.6,0,0,4.56,12.1,4.16,13.28-.25.75-.84,1.57-1.71,2.42,1.47-.59,2.63-1.08,3.22-1.22,11.32-2.72,26,6.99,36.1,13.71,1.99,1.31,2.97,1.96,4.92,3.23-10.74,6.89-21.44,13.86-32.12,20.85-.59-.07-.89-.11-1.48-.19-7.78-1.08-47.54-2.84-48.68-14.24-.12-1.19.16-2.49,1.68-4.01-5.81,2.19-10.27,3.7-10.88,3.63-7.9-1.03-17.4-11.08-24.47-16.81-7.75-6.29-15.93-12.77-22.52-20.38-.49-.79-.73-1.18-1.22-1.97.28-.89.41-1.33.69-2.21,3.01-9.47,5.94-18.99,9.55-28.26-9.14,13.47-13.16,13.58-14.65,13.56-2.56-.03-5.25-1.62-8.49-4.94,5.73,6.08,8.61,9.13,14.39,15.22-.79,1.3-1.19,1.94-1.98,3.25-7.45,12.16-22.19,45.83-35.89,47.96-2.66.41-7.68-2.98-19.61-11.63-6.46-4.68-13.74-10.01-18.88-12.89-1.05-.59-1.58-.88-2.63-1.47.12-1.29.18-1.93.3-3.22.7-7.38,1.42-13.72,2.14-19-1.29,6.71-2.18,11.84-2.26,13.03-.02,2.13-1.05,4.21-2.91,5.73-3.82,3.12-11.11,3.89-17.27,1.91-2.13-.69-3.91-2.4-5.47-5.65.61,2.94.93,4.4,1.56,7.33-.41.67-.61,1.01-1.02,1.68-4.5,7.1-18.94,32.99-27.99,28.9-9.79-4.43-16.84-25.26-22.14-36.54-2.09-4.45-4.04-8.75-5.74-12.29-.28-.6-.43-.89-.71-1.49.2-.67.3-1,.49-1.67,2.79-9.39,5.27-15.47,7.29-19.45-4.14,6.99-8.32,13.01-11.32,14.64-2.28,1.24-4.7,1.4-6.99.5-3.3-1.29-5.96-4.74-7.94-8.58-11,2.57-22.01,5.1-33.03,7.6-.14,1.36-.2,2.04-.33,3.4,10.58-3.14,29.46-9.13,36.64-2.52,8.59,7.92,14.7,25.48,21.45,38.31.82,1.56,1.23,2.34,2.06,3.91-1.47.77-2.2,1.15-3.66,1.9-15.05,7.72-30.6,14.73-45.36,23-.17.69-.25,1.03-.41,1.72-4-.57-5.99-.87-9.92-1.48,1.92,15.84,5.51,31.51,10.25,46.73,7.04,4.65,10.59,7,17.72,11.71,8,6.56,15.42,13.81,22.66,21.18,2,2.04,3,3.07,4.99,5.11-1.88.05-2.81.06-4.65.06-.14,0-13.49-.57-16.49-.77-.95-.06-2.22-.7-3.57-1.77-3.24-2.56-8.78-9.82-15.92-21.92,10.29,24.94,22.77,46.61,39.69,67.63.67.65,1,.98,1.67,1.62-4.08-4.79-12.81-17.48-12.27-18.26.55-.79,3.75.98,8.39,4.86.49.41,1.44,1.22,2.7,2.3-3.91-3.65-7.05-6.63-8.57-8.08-.57-.54-.86-.82-1.43-1.36-.33-.52-.5-.78-.83-1.31-12.1-19.1-9.51-20.35-8.77-20.64,2.18-.84,19.18,1.91,24.72,5.18,1.82,1.07,2.88,2.38,3.43,3.24,7.79,8.93,16.05,17.47,24.1,26.17,8.5,9.17,13.58,14.78,15.2,16.75,1.51,1.83,2.28,3.66,2.22,5.13-.04.96-.43,1.67-1.13,2.17,6.04.26,11.02,2.05,14.29,5.9.75.88,1.5,1.76,2.25,2.63,5.71,6.67,10,11.79,10.4,15.48.15,1.4-.27,2.46-1.17,3-.57.34-1.88.24-3.68-.2,30.74,9.09,59.11,10.47,90.56,4.21-9.68.9-19.46.57-29.08-.76-2.38-.33-3.57-.52-5.98-.93,1.75-1.84,2.63-2.78,4.44-4.69,9.56-8.9,22.22-23.6,31.69-25.02,9.11-1.37,24.8,6.82,36.89,9.53,1.64.37,1.28,2.22.39,3.8-1.46,2.6-4.7,5.41-8.37,7.9,10.1-4.86,19.22-9.91,28.71-15.89-6.24,4.08-9.46,5.94-16.05,9.3.92-1.59,1.38-2.39,2.3-3.99.3-.52.63-1.12.99-1.78,1.84-3.34,4.28-7.89,7.77-11.95-5.04,4.71-8.77,7.92-9.08,8.18-.72.62-1.09.93-1.81,1.54-.47-.08-.7-.13-1.18-.22-11.11-2.33-22.53-6.28-31.87-12.05-1.39-.86-2.01-2.54-1.69-4.49.11-.65.32-1.32.63-2-17.86,17.61-20.02,15.03-21.66,13.76-1.07-.83-8.41-4.18-15.08-7.63-10.61-5.49-37.63-15.92-39.91-27.37-2.16-10.86-.9-25.98-1.1-38.97,0-.59-.01-.88-.02-1.47,5.03-6.11,7.62-9.26,12.91-15.7,18.64-.4,37.16-1.38,55.73-2.9,11.13,18.37,22.23,36.77,32.52,55.63-.92,1-1.38,1.5-2.3,2.51-3.01,3.29-5.79,6.28-8.34,9,2.7-2.18,5.79-4.58,9.23-7.25,5.37-4.16,10.98-8.54,14.37-11.74.56-.53,1.2-1.02,1.89-1.48-3.76,1.12-6.87,2.24-7.99,2.45-10.95,2.05-22.27-34.37-26.04-43.03-.61-1.41-1.14-2.6-1.54-3.52t0,0c-1.36-3.06,0-5.46.66-6.35,2.95-3.97,9.12-3.56,18-2.74,1.27.12,2.85.26,3.3.23,19.23,1.46,38.24,4.37,57.56,4.96.9.03,1.35.04,2.25.06,0,.41,0,.61,0,1.02,1.99-4.51,2.96-6.77,4.88-11.32,1.3-.09,1.94-.14,3.23-.24,2.28-.18,17.92-1.64,26.77-2.58-9.47.65-19.1.79-28.59.52-.16-.71-.25-1.06-.41-1.78-2.44-10.28-5.68-20.81-6.29-31.38.06-.84.09-1.26.14-2.1.71-.55,1.06-.83,1.77-1.39,2.56-2,9.8-8.26,12.67-10.87,8.16-7.42,25.32-17.99,35.26-17.21.51.04,1.15.3,1.6.76.36-10.61-.23-21.11-.93-31.69-2.98-4.92-4.5-7.42-7.62-12.48-.27-.44-3.16-5.13-6.75-11.25ZM221.77,487.68c-.64.27-.96.4-1.59.65-.9-.71-1.35-1.06-2.25-1.76-8.94-6.95-24.46-15.89-27.81-25.51-3.6-10.31-6.82-32.31-2.33-39.25,5.74-8.87,34.24-16.78,49.89-18.48,2.5-.27,6.29-.24,8.93,2.23h0c9.15,11.21,7.49,30.98,8.04,44.48.19,4.55.62,9.34.79,10.67,1.43,11.8-23.79,22.76-33.66,26.97ZM279.73,554.06c-1.11-1.14-1.67-1.71-2.79-2.85-16.17-16.52-43.34-35.84-48.9-51.95-2.17-6.28,12.61-16.17,18.57-20.93,3.99-3.19,7.64-6.16,9.44-7.95.49-.49.74-.74,1.24-1.23,16.88,4.7,33.8,8.99,50.89,12.83,1.15,14.43,2.43,28.83,3.85,43.23-10.65,9.76-21.31,19.48-32.31,28.85ZM369.95,562.15c1.72.79,2.57,1.18,4.27,1.93-8.12,8.01-16.25,15.98-24.43,23.93-.48.02-.72.03-1.2.05-10.44.42-20.99-.16-31.24-2.06-2.91-.54-5.21-1.12-6.37-1.55t0,0c-9.23-5.54-15.31-16.32-20.87-25.2-.48-.75-.72-1.13-1.2-1.89.23-.56.35-.85.58-1.41,1.18-2.83,6.15-8.37,10.96-13.05,10.88-10.59,13.67-10.32,15.59-9.38,17.47,8.57,35.4,20.04,53.92,28.62ZM338.53,461.58c-6.93,6.49-13.89,12.94-20.9,19.33-.71-.09-1.06-.14-1.77-.23-16.67-2.35-33.31-7.39-48.29-15.08-.91-.47-1.37-.71-2.28-1.19-.2-.97-.3-1.45-.51-2.43-3.7-18.07-11.1-44.89-3.85-60.56,4.02-8.68,12.56-17.07,19.94-24.57.8-.81,1.2-1.22,2.01-2.03,20.87,9.32,41.76,18.62,62.73,27.71-2.37,19.68-4.78,39.35-7.09,59.03ZM398.85,457.83c-.51,1.06-.77,1.59-1.28,2.65-1.11.03-1.66.05-2.77.08-13.12.32-29.58,1.6-40.63-3.01-9.96-4.15-6.59-22.55-5.2-31.61.62-4.06,1.02-8.59,1.39-12.25,1.61-16.15,16.18-31.95,26.85-44.08.99-1.11,1.48-1.67,2.47-2.78,1.2.85,1.81,1.28,3.01,2.12,11.63,8.23,39.47,22.39,40.27,33.2,1.04,13.97-15.77,38.17-24.11,55.68ZM481.72,454.43c.24,2.35.35,3.51.54,5.81-25.83-1.51-51.04-5.07-76.47-9.82,1.33-2.1,1.99-3.16,3.32-5.27,5.5-8.73,14.06-20.71,13.84-29.8-.04-1.75.54-4.43,2.16-5.46,10.81-6.93,35.42-6.85,47.8-2.8,2.33.76,2.67,3.22,2.63,4.08,2.17,14.42,4.7,28.75,6.18,43.27Z"/>
                <path class="cls-4" d="M219.29,201.9c5.9-3.62,9.63-4.94,8.73.78h0c-.14.9-.4,1.99-.72,3.21.68-1.19,1.4-2.33,2.15-3.39,2.56-3.56,6.68-6.69,11.15-9.17-3.05,1.44-6.7.62-11.45.06-1.78-.21-3.52-.27-4.48-.01-.83.22-1.04-.28-.57-1.34.46-1.05,1.56-3,14.88-18.05-5.62,5.63-11.05,10.74-12.52,12.04-1.29,1.13-1.93,1.7-3.21,2.84.54-1.04.81-1.56,1.36-2.58.66-1.21,1.41-2.56,2.23-3.96-5.93,9.09-8.77,13.88-14.12,23.87.6-.4.9-.61,1.49-1.01,1.8-1.21,3.51-2.33,5.07-3.29Z"/>
                <path class="cls-4" d="M233.16,295.34s-.02,0-.03,0c2.5,3.04,3.77,4.59,6.37,7.76,3.19-8.72,7.31-17.39,11.83-25.52-13.11,18.05-16.36,17.82-18.18,17.76Z"/>
                <path class="cls-4" d="M376.98,121.8c4.77.21,7.12.43,11.76,1.12,3.02,4.55,4.58,6.86,7.77,11.54-.07-.12-.14-.24-.21-.36-2.48-4.16-4.96-8.39-6.34-10.57-4.03-6.42-3.49-10.9-3.3-13.02,0-.02,0-.05,0-.07-.27-.74-.4-1.11-.66-1.84-1.79-.65-2.69-.95-4.49-1.52,1.07,3.83,2.58,10.15,1.35,12.57-.44.88-1.22,1.34-2.18,1.3-.42,0-2.06.41-3.71.87Z"/>
                <path class="cls-4" d="M343.83,140.49c.37.09,7.5,1.99,11.14,5.39-.64-2.1-.22-4.26.12-6.05.21-1.11.49-2.63.29-3.27-.31-.95-.64-2.88.46-5.06.89-1.78,2.72-3.52,4.86-5.01-2.82.63-5.31.93-7.2.59-3.95-.72-5.96-4.63-6.92-9.24-.08,8.75-.22,16.42-.51,17.75-.38,1.79-.64,3-6.34,4.28,1.26.06,2.63.26,4.1.62Z"/>
                <path class="cls-4" d="M356.96,151.33c.4-.38,1.02-.97,2.75-1.07-.14-.05-.28-.09-.4-.13-.94-.28-1.75-.7-2.43-1.27.21.94.14,1.91-.18,2.75.11-.13.2-.22.26-.28Z"/>
                <path class="cls-4" d="M423.94,155.18c-1.62,1.77-6.01.55-10.07-1.24.88.77,1.65,1.63,2.31,2.58,7.28,10.49,10.53,18.88,8.67,25.22,0,0,0,0,0,0-.3,1.01-.72,2.39-1.22,3.97.58-.32,1.25-.26,1.81-.03,8.78,3.64,17.9,11.36,26.5,17.34.78.54,1.17.81,1.95,1.35,2.31,5.36,3.45,8.06,5.73,13.49-1.62-4.42-3.15-8.98-4.49-13.07-.72-2.18-.57-3.8.16-4.94-.7.14-1.2.29-1.46.44-2.87,1.65-8.93-3.03-15.19-7.99-2.81-2.22-5.71-4.51-8.42-6.28-.98-.64-1.47-.96-2.46-1.6-.22-1.07-.34-1.6-.56-2.67-.61-2.87-3.78-17.03-3.85-20.21-.06-2.73,2.31-11.79,6.86-9.31,1.3.71,6.22,3.68,10.93,6.79,3.41,2.26,6.91,4.72,7.49,5.11,1.13.76,2.03,1.4,7.7,9.09-.39-.58-.74-1.08-1.02-1.5-1.14-1.68-1.75-3.06-1.74-3.86,0-.43.19-.67.55-.73-3.35-2.39-8.61-6.17-12.34-8.7-1.64-1.11-2.91-1.94-3.42-2.26-1.16-.71-2.52-2.11-3.52-3.66-1.75-2.69-2.89-7.49-3.71-11.52-.57,1.79-5.04,11.88-7.15,14.18Z"/>
                <path class="cls-4" d="M471.17,199.67c3.93,1.36,7.57,3.12,9.7,4.23.81.42,1.21.63,2.01,1.06,4.55,6.29,6.83,9.44,11.4,15.73-2.69-5.62-4.08-8.38-6.96-13.77-.28-.04-.61-.2-.9-.33-3.4-1.61-10.75-7.82-13.31-10.06.02.03.05.07.07.1,1.09,1.51,1.63,2.27,2.72,3.78-.93-.18-1.39-.26-2.34-.41-.74-.12-1.54-.23-2.39-.33Z"/>
                <path class="cls-4" d="M404.39,147.17c-.72.3-1.08.46-1.81.77,0,0-1.22.53-3.09,1.39,2.23.06,4.24.3,5.73.62.89.19,1.72.41,2.5.66-.67-.46-1.21-.87-1.56-1.21-.47-.46-.97-1.06-1.77-2.22Z"/>
                <path class="cls-4" d="M504.12,257.91c-11.46-4.72-26.36-12.45-35.41-21.43-1.32-1.31-2.65-3.62-3.98-6.29,1.87,4.56,2.79,6.85,4.63,11.46-.27.22-.41.33-.69.55.03,0,.06.02.09.02,2.06.55,6.84,2.52,18.71,9.36,17.06,9.83,17.83,11.32,18.82,13.01.57.97,5.61,8.63,10.77,16.46-3.23-10.71-6.69-21.14-10.5-31.66,1.08,9.4-.45,9.34-2.43,8.53Z"/>
                <path class="cls-4" d="M380.53,159.61c.6,2.82,1.14,5.4,1.63,7.77-.34-3.63-.48-6.93-.39-9.25-.47.06-.99.05-1.56,0,.13.59.19.89.32,1.49Z"/>
                <path class="cls-4" d="M462.8,322.83s0,0,0,0c-.98,2.53-3.8,2.51-5,2.5-.7,0-2.26-.16-4.42-.45,7.1,9.79,20.39,30,20.39,30,0,0-5.6-12.94-9.42-24.08-.16-.46-.24-.7-.4-1.16-.79-2.28-1.07-4.73-.97-7.26-.08.2-.13.36-.17.45Z"/>
                <path class="cls-4" d="M384.47,194.98c1.77-1.3,3.2-2.05,3.55-2.23.3-.15.44-.22.74-.37.35.05.53.07.89.12,9.72,3.92,22.4,11.04,26.93,19.41,1.97,3.65,1.23,13.44-1.03,15.9-.7.77-1.65,1.12-2.68,1.03,2.05,1.79,2.16,2.72,2.3,3.93,0,.02,0,.05,0,.08,1.31-2.75,2.5-4.82,3.25-5.66.72-.81,2.11-1.19,3.07-.73,7.54,3.57,13.57,15.29,19.31,23.44,1.28,1.85,1.92,2.78,3.21,4.63-1.62.45-2.43.68-4.06,1.16-.25.07-.59.17-1,.29,8.82,7.76,17.69,15.47,26.63,23.1-2.33-2.95-4.82-6.29-7.5-9.93-2.48-3.38-4.82-6.58-6.23-8.22-1.08-1.26-1.62-1.88-2.7-3.14.76-.92,1.13-1.37,1.88-2.27.95-1.16,2.27-2.71,3.75-4.34-1.87.79-3.77,1.36-5.1,1.14-9.28-1.5-16.92-14.74-22.09-22.47-.95-1.4-1.42-2.11-2.37-3.51-1.67-3.34-7.09-14.53-7.73-18.76-.18-1.22-.05-2.89.25-4.72-.33.89-.53,1.43-.54,1.46-.41,1.09-.61,1.64-1.03,2.74-1.24-.74-1.85-1.12-3.09-1.85-8.51-5.09-18.24-9.81-25.28-15.93-.86-.75-1.66-2.4-2.35-4.38.98,6.45.64,7.41.41,8.04-.19.51-.66,1.22-1.37,2.07Z"/>
                <path class="cls-4" d="M485.6,295.23c-1.8-.92-3.66-1.88-5.53-2.58-1.85-.7-3.82-2.05-5.93-3.97-.11.35-.16.53-.27.89-.16.53-1.89,6.26-4.09,12.98.98-1.6,2-3.11,3.04-4.48.41-.55.62-.83,1.03-1.37.77.14,1.16.21,1.92.35,7.99,1.24,20.89,3.53,25.32,10.46.37.58,1.61,2.65,3.05,4.97,2.26,3.63,4.33,7,6.19,10.11-2.86-5.18-5.42-10.17-6.65-13.47-3.83-10.31,2.43-12.28,7.79-13.76,1.83-.5,3.88-1.05,5.87-1.85,1.11-.45,1.67-.67,2.77-1.09-.29-1.15-.44-1.73-.74-2.87-4.47,1.48-16.85,6.29-19.88,8.14-4.09,2.48-9.3-.09-13.89-2.44Z"/>
                <path class="cls-4" d="M403.72,286.61c.72-3.13,1.66-7.38,1.61-8.54-.04-.93-.06-1.39-.11-2.32.68-.49,1.01-.74,1.69-1.23,8.56-5.76,17.23-11.4,26.01-16.83-6.01,1.68-14.13,3.94-17.65,3.96-2.18.01-4.25-1.36-5.37-3.6-.09-.18-.17-.36-.24-.55-3.27,10.95-4.6,11.32-6.32,11.67-.51-1.73-.77-2.6-1.28-4.32.51,1.73.77,2.59,1.28,4.32-.44.09-1.75.46-3.62,1-1.78.51-3.92,1.14-6.27,1.82.71.14,1.41.32,2.1.55,1.23.41,2.99,1.41,4.37,3.8,2.41,4.18,2.54,11.93,1.91,19.07.51-2.64,1.16-5.57,1.9-8.81Z"/>
              </g>
              <g>
                <path class="cls-2" d="M277.42,546.31c9.49-8.12,18.78-16.48,27.98-24.93-1.33-11.72-2.51-23.46-3.56-35.21-14.24-3.41-28.35-7.13-42.43-11.13-2.05,1.92-5.41,4.66-9.08,7.58-6.82,5.44-18.02,13.84-18.07,16.57,13.87,16.64,30,31.69,45.15,47.12Z"/>
                <path class="cls-2" d="M361.92,547.8c9.22,4.64,14.3,6.91,15.91,8.03,13.28-7.97,24.38-21.79,34.71-33.02-9.48-16.76-19.33-33.28-29.32-49.74-16.33,1.48-32.73,2.27-49.13,2.54-4.02,4.89-6,7.29-9.87,11.98.1,12.64.29,25.27.72,37.9,10.79,9.31,24.31,15.95,36.97,22.32Z"/>
                <path class="cls-2" d="M294.01,558.19c5.38,8.5,13.41,19.93,16.26,20.82,11.19,3.5,24.8,3.9,36.92,3.39,6.61-6.32,10.12-9.72,17.43-16.86-17.23-8.25-33.73-17.77-50.24-27.34-7.84,5.03-15.08,12.35-20.36,19.99Z"/>
                <path class="cls-2" d="M255.64,537.23c-8.43-9.1-17.21-17.97-25.23-27.45-3.31-1.79-18.31-4.97-19.99-4.33-.63.58,2.86,8.47,7.98,17.05,11.43,10.69,23.82,24.43,38.12,31.26.78.15,1.18.22,1.97.35,4.17.71,12.38,1.4,12.18-.29,0,0-.05-.09-.2-.26-1.52-1.84-7.89-8.82-14.84-16.32Z"/>
                <path class="cls-2" d="M280.86,564.67c-6.78-1.38-14.47.11-15.98,1.3,9.37,6.48,20.63,13.39,31.96,15.49.05-.03.05-.08.04-.17-.21-1.63-5-7.27-8.59-11.47-.76-.89-1.53-1.79-2.3-2.69-.97-1.14-2.81-1.99-5.13-2.46Z"/>
                <path class="cls-2" d="M225.99,535.68c-4.45-2.61.5,4.02,2.51,7.1.79,1.21,2.59,3.2,4.08,4.54,7.85,7.04,16.15,14.23,25.45,19.34,0-.04.02-.08.03-.12-.58-1.4-1.53-3.2-5.41-7.59-.82-.93-7.53-6.44-8.37-7.37-1.06-1.19-16.34-14.75-18.28-15.89Z"/>
                <path class="cls-2" d="M362.55,584.93c14.14,1.52,29.42,1.86,42.91-2.49,7.99-2.58,14.23-7.08,16.18-8.87-11.49-2.43-22.44-6.67-33.85-9.32-9.2,5.67-17.28,13.43-25.24,20.69Z"/>
                <path class="cls-2" d="M464.5,511.28c-6.06.69-15.12,1.82-21.83,3.55-3.34.86-6.07,1.9-7.46,3.22-3.72,3.53-9.24,7.88-15,12.4-7.69,6.02-19.01,14.79-19.51,17.64-.01.07-.03.2.23.36,9.12,5.6,20.43,9.65,31.33,11.96,8.47-7.27,16.7-14.97,24.09-23.27,8.38-9.41,8.48-22.62,8.16-25.86Z"/>
                <path class="cls-2" d="M426.43,510.21c14.11-4.19,28.33-8.37,42.3-12.6.16-.05.35-.13.68-.51,3.17-3.63,5.32-16.79,5.38-26.18-18.38-.45-36.49-2.75-54.76-4.52,0,0,0,0,0,0-.69.12-1.97-.02-4.24-.22-2.58-.23-9.11-.87-11.38-.19.39.87.87,1.98,1.42,3.25,5.53,12.75,10.34,30.99,20.6,40.96Z"/>
                <path class="cls-2" d="M337.78,406.18c-18.14-7.86-36.18-15.94-54.21-24.03-6.52,6.75-14.76,14.44-17.76,21.93-5.67,14.2.64,38.75,3.95,55.85,13.81,6.97,29.42,11.35,44.71,13.57,6.77-6.2,10.25-9.42,17.33-16.04,1.92-17.1,3.95-34.19,5.98-51.28Z"/>
                <path class="cls-2" d="M217.74,481.3c10.78-4.8,24.58-11.08,31.12-21.42-.5-1.97-.79-6.02-1.02-11.66-.49-11.82.81-28.47-5.83-38.81h0c-1.17-1.09-8.58-.75-26.26,5.64-12.26,4.44-22.21,8.75-23.54,9.87-1.31,11.98.11,24.96,2.45,36.75,6.72,7.41,15.22,13.51,23.08,19.62Z"/>
                <path class="cls-2" d="M196.96,475.21c-4.26-2.86-6.38-4.29-10.61-7.14,4.63,8.18,9.15,16.9,15.22,24.17,2.71.16,10.29.53,14.26.52-4.39-4.39-13.49-13.27-18.87-17.55Z"/>
                <path class="cls-2" d="M176.28,408.83c13.99-9.27,30.22-15.86,45.08-23.55-6.15-11.55-11.99-28.89-19.54-34.75-5.7-4.43-22.23,1.03-31.14,3.58-.59,18.3.08,36.08,2.12,54.26,1.38.18,2.08.27,3.47.45Z"/>
                <path class="cls-2" d="M355.73,450.6c11.08,3.61,25.23,3,37.48,2.79,7.96-16.85,16.25-33.86,22.53-51.43-10.83-10.12-23.74-18.24-35.8-26.79-9.31,10.81-21.95,24.62-23.8,38.23-.51,3.73-.89,8.45-1.47,12.71-1.41,10.31-2.99,23.16,1.06,24.48Z"/>
                <path class="cls-2" d="M373.53,347.24c-9.78-10.36-19.54-20.72-29.24-31.14-9.15,3.16-18.27,6.39-27.46,9.41-4.61,13.34-5.5,28.04-7.02,41.97,5.31,3.16,12.11,8.15,18.2,12.59,6.05,4.4,13.55,9.81,15.77,10.43,11.83-12.69,20.61-28.63,29.74-43.26Z"/>
                <path class="cls-2" d="M252.08,396.26c8.72-5.63,14.89-17.25,20.13-25.82-3.33-15.6-6.32-31.28-9.02-47-8.86,1.88-23.5,5.11-26.2,5.95-1.67,1.18-6.05,12.02-8.95,21.69,1.62,3.42,3.44,7.43,5.4,11.64,5.22,11.24,10.29,24.15,18.64,33.53Z"/>
                <path class="cls-2" d="M213.57,340.23c.75.29,1.57.27,2.11-.13,8.18-6.18,14.11-21.1,19.49-31.66-7.16-8.71-10.55-12.84-16.87-20.49-6.01,5.64-12.31,12.07-12.99,13.83-1.2,3.1-2.32,15.24-.57,22.27,2.15,8.62,5.67,14.97,8.82,16.19Z"/>
                <path class="cls-2" d="M284.8,363.31c3.29,2.5,11.38-.08,11.94-1.2,2.07-15.47,5.77-30.84,9.1-46.07-9.8,2.66-19.59,5.36-29.37,8.08.11.99.25,2.31.42,4.06,1.13,11.29,1.82,30.48,7.91,35.12Z"/>
                <path class="cls-2" d="M401.2,315.58c-6.38,11.11-9.76,24.18-13.56,36.32,12.54,12.05,26.22,24.5,41.17,33.51,14.25-4.39,31.26-10.25,43-19.68-4.7-13.92-15.39-26.27-23.8-38.03-15.3-4.54-30.97-9.73-46.81-12.12Z"/>
                <path class="cls-2" d="M428.61,413.98c-1.16,11.12-7.68,21.6-13.37,30.96,19.84,3.62,39.71,6.78,59.82,8.42-1.61-13.83-4.15-27.5-6.15-41.27-12.6-1.7-28.02-1.56-40.29,1.9Z"/>
                <path class="cls-2" d="M481.04,375.43c-10.92,2.48-24.38,10.01-35.56,16.66,13.42,4.41,27.89,6.76,41.85,8.69,9-5.86,13.43-8.73,22.06-14.27-8.04-5.01-19.98-12.99-28.35-11.08Z"/>
                <path class="cls-2" d="M514.93,447.04c5.57-17.09,11.71-35.28,12.18-53.44-9.86,3.74-21.33,8.66-28.58,15.29-3.18,2.91-10.02,8.85-12.57,10.87.32,4.91,3.83,18.66,5.85,27.26,9.53.3,14.17.31,23.12.01Z"/>
                <path class="cls-2" d="M488.41,460.2c-1.32,3-1.99,4.49-3.34,7.48-.92,2.78.02,12.81.24,18.46.17,4.49.11,6.42-.08,7.48,1.26.92,10.26,1.44,18.09.37,6.12-11.49,13.85-23.96,15.48-37.12-10.14.94-20.23,2.42-30.37,3.33Z"/>
                <path class="cls-2" d="M484.56,526.52c2.98-4.39,11.63-18.08,14.36-22.81-9.49,4.64-14.48,6.71-24.81,10.33-.16,6.35-.41,9.33-1.31,14.88,4.77-.07,9.67-1.37,11.76-2.4Z"/>
                <path class="cls-2" d="M469.79,537.8c-3.68,1.31-6.16,1.9-7.07,1.82-1.25-.1-11.56,9.45-18.56,16.99-2.7,2.91-5.05,7.1-6.77,10.12,13.9-7.33,27.16-16.24,38.75-26.89,1.62-2.03,4.03-5.26,4.61-6.46.24-.77-6.77,2.91-10.95,4.4Z"/>
                <path class="cls-2" d="M198.54,332.68c-2-6.08-6.66-21.69-7.56-25.67-.42-1.85-7.28-.54-13.66,1.8-1.57,9.87-2.71,19.94-3.41,29.91,9.68-2.34,14.62-3.56,24.62-6.04Z"/>
                <path class="cls-2" d="M289.96,304.68c2.3-.58,4.11-1.03,5.25-1.31-1.34-9.87-4.44-20.53-8.98-29.39-.85-.58-5.7-1.53-26.89,1.55-.66.1-1.2.18-1.61.23-7.28,11.14-13.68,24.82-15.99,37.53-.36,2.01-.11,2.84-.02,3.06,16.24-3.04,32.23-7.63,48.24-11.67Z"/>
                <path class="cls-2" d="M233.42,243.51c-3.05,8.63-6.83,19.13-6.3,27.24.57,8.83,5.23,17.27,6.99,17.72,7.07-6.62,12.73-14.68,18.21-22.64-1.3-10.46-1.83-15.55-2.58-25.35-6.66.73-14.02,2.12-16.32,3.03Z"/>
                <path class="cls-2" d="M196.94,246.62c-3.73,12.85-6.02,26.38-7.42,39.67,5,3.09,6.41,3.98,11.09,2.29,5.46-1.96,14.38-7.99,15.15-11.48,2.39-10.9,6.24-22,9.95-32.79-7.33-2.15-10.83-3-17.43-4.19-5.01,2.21-10.22,5.24-11.35,6.49Z"/>
                <path class="cls-2" d="M293.61,258.03c6.28-8.28,11.34-17.87,15.85-27.22-1.49-2.5-8.89-11.41-15.25-18.64-9.88-.62-20.61-.11-23.06.73-1.4,2.34-3.59,12.49-4.63,17.53-1.16,5.67-1.72,8.5-2.35,9.8-.85,1.9,1.14,9.96,4.82,18.38,8.9-.35,21.71-.47,24.63-.57Z"/>
                <path class="cls-2" d="M342.21,298.76c4.57-8.6,6.8-12.86,11.22-21.26-11.12-11.52-22.76-25.79-36.61-34.22-1.37,4.2-5.26,10.98-10.26,19.34-2.16,3.61-4.88,8.12-5.2,9.16-.58,2.6,3.12,14.75,7.33,25.39,11.19.42,22.34.95,33.52,1.59Z"/>
                <path class="cls-2" d="M375.87,329.11c7.43-6.06,12.51-14.86,17.16-23.16,1.76-8.66,3.44-23.25,1.13-27.33-.25-.44-.41-.49-.48-.51-3.75-1.24-8.48-.23-13.1.79-2.79.62-6.23.78-7.94,1.39-6.66,2.35-12.85,14.74-17.35,23.2.52.78.77,1.16,1.29,1.94,5.36,8.14,10.87,18.36,19.28,23.68Z"/>
                <path class="cls-2" d="M363.33,226.05c-1.9,1.78-2.27,16.77-.92,23.65.43,2.21.54,4.87.66,7.7.18,4.53.41,10.21,2.37,12.12.24.23,1.01.96,2.75.74,9.51-1.21,19.18-4.55,28.58-7.27,1.79-.52,2.88-.82,3.5-.97,4.1-9.47,6.57-19.94,8.48-30.07-10.56-7.02-21.92-12.8-33.13-18.68-2.41,2.58-9.76,10.43-12.29,12.79Z"/>
                <path class="cls-2" d="M410.62,278.96c-.12,2.01-.74,4.95-1.69,9.18-1.22,5.47-3.64,15.82-2.27,18.1,14.07,7.52,34.07,11.1,50.02,11.88,3.72-10.34,7.19-20.76,10.44-31.26-9.9-8.36-19.71-16.82-29.47-25.34-9.13,5.63-18.08,11.53-27.03,17.44Z"/>
                <path class="cls-2" d="M322.77,229.1c6.59,7.45,13.64,15.62,22.08,21.04,1.44-3,3.94-15.23,5.59-25.86-6.27-7.75-12.64-15.78-20.56-21.88-2.45.75-11.46,8.45-12.71,12.37-.15.47-.08.54-.02.6,3.52,3.45,5.21,11.45,5.63,13.72Z"/>
                <path class="cls-2" d="M421.52,232.24c-3.08,4.58-7.7,18.04-7.46,22.13,4.17-.38,14.63-3.41,20.22-4.97-5-7.2-10.46-14.7-12.76-17.16Z"/>
                <path class="cls-2" d="M509.65,303.85c-.71,2.92,7.2,19.65,11.6,23.65,4.4,4-.62-21.61-1.8-25.07-1.18-3.47-9.08-1.49-9.8,1.43Z"/>
                <path class="cls-2" d="M476.52,302.46c-5.39,7.42-10.05,18.24-7.67,25,.16.46.24.69.41,1.15,2.94,8.55,5.48,20.51,11.08,25.58,6.65,6.01,19.01,10.75,28.76,15.52.23.11.34.17.57.28,1.89-2.93,6.61-16.2,6.49-21.91-.23-10.56-10.99-23.91-17.38-34.33-1.68-2.75-2.8-4.57-3.27-5.44-1.2-1.45-9.88-4.22-19-5.87Z"/>
                <path class="cls-2" d="M469,247c-1.91-.33-8.49,6.11-13.05,11.47,1.5,1.9,3.35,4.41,5.42,7.2,5.63,7.61,14.18,18.99,18.27,20.59,2.25.88,4.38,2.01,6.27,3,4.37,2.29,6.93,3.51,8.83,2.36,3.29-1.98,15.24-6.48,19.09-7.75-3.17-4.92-10.62-16.48-12.38-19.36-9.92-6.61-22.48-15.77-32.46-17.51Z"/>
                <path class="cls-2" d="M426.39,190.74c-1.4,2.25-4.81,14.37-4.35,17.16.39,2.37,4.41,10.98,6.97,16.02.71,1.02,1.07,1.53,1.79,2.55,4.5,6.41,12.97,18.25,16.4,18.94.06.01.12.02.17.03,2.96.27,10.7-5.03,15-8.37-4.06-10.37-8.19-20.71-12.39-31.02-7.76-5.24-15.55-10.48-23.59-15.3Z"/>
                <path class="cls-2" d="M459.17,205.63s0,0,0,0c3.13,9.12,5.88,21.3,11.45,27.3,6.75,7.26,19.91,12.99,30.22,18.65.21-2.6-.83-12.6-2.79-21.13-5.44-7.65-10.86-15.31-16.26-22.98-10.45-4.93-24.57-7.48-22.62-1.84Z"/>
                <path class="cls-2" d="M448.42,193.41c2.28-1.32,15.69-.37,19.68.25-6.13-8.73-12.13-17.58-18.6-26.06-1.18-.85-4.16-3.18-10.12-7.53-5.48-4-8.58-5.7-9.71-6.29-1.28-.44-4.2,5.3-4.08,8.13.06,1.54,2.19,10.01,6.84,20.17,2.71,1.91,14.9,11.97,15.99,11.33Z"/>
                <path class="cls-2" d="M412.52,200.22c1.43-5.31,5.41-18.47,6.85-23.21,1.43-4.74-.98-11.09-6.78-19.52-.37-.54-1.88-1.72-5.22-2.57-8.85-2.26-20.52.81-21.28,2.79-.42,9.39,1.4,19.75,4.51,28.63,1.72,1.55,12.08,7.87,21.92,13.88Z"/>
                <path class="cls-2" d="M409.55,221.1c.43.18.81.34,1.12.47.7-1.83,1.18-7.51.37-9.51-1.58-2.61-17.46-13.03-21.13-14.2-1.53.86-6.94,4.2-8.54,8.62,7.28,7.23,19.1,10.76,28.17,14.62Z"/>
                <path class="cls-2" d="M359.43,155.31c-7.55,9.29-17.03,21.81-19.58,33.63,2.07,1.94,3.65,5.07,5.21,8.12,3.44,6.72,6.31,10.9,11.22,9.19,8.88-3.09,17.65-9.84,23.96-17.25-1.03-9.67-2.97-19.19-4.77-28.74-6.92-3.17-14.67-5.59-16.04-4.95Z"/>
                <path class="cls-2" d="M310.26,154.5c-5.68,9.58-11.49,19.09-17.46,28.5-.14,1.54,2.08,5.09,7.16,11.21,1.23,1.48,1.8,2.17,2.03,2.63h0c3.09,6.04,12.33,4.28,15.97,2.56,3.88-1.84,9.9-8.54,10.71-10.35-1.24-12.41-3.34-24.73-4.98-37.1-5.38.83-8.07,1.35-13.44,2.55Z"/>
                <path class="cls-2" d="M290.83,200.49c-.98-2.36-4.09-7.04-6.98-10.53-3.66,4.87-7.38,10.33-8.07,12.29,1.65,1,11.13-.55,15.05-1.76Z"/>
                <path class="cls-2" d="M228.26,227.1c2.37,3.18,5.34,7.14,8.44,6.27,1.78-.5,4.08-.87,6.54-1.23,3.15-.47,9.02-1.2,10.54-2.35.81-2.3,3.41-7.27,6.92-13.92,1.57-2.98,3.48-6.6,4.05-7.89-.68-1.99-5.33-9.88-8.99-15.92-9.71,1.8-20.9,6.91-23.42,10.47-3.67,5.18-6.61,15.97-7.45,20.51,1.15,1.08,2.25,2.56,3.36,4.06Z"/>
                <path class="cls-2" d="M215.9,226.01c.09-.25.2-.54.32-.85,1.54-4.11,5.78-14.85,6.57-19.17.67-3.71-1.84-2.5-10.38,2.99-2.15,4.44-8.1,18.17-9.51,21.65,1.81-.02,10.34-2.85,13.01-4.61Z"/>
                <path class="cls-2" d="M287.36,143.64c-9.66,7.46-18.3,20.23-27.11,30.51.39.62.87,1.48,1.44,2.51,2.1,3.77,8.02,13.88,12.16,12.07,4.99-2.18,13.1-11.07,15.74-14.29,7.28-9.5,13.7-20.78,12.33-22.64-3.46-4.71-12.04-10.12-14.57-8.16Z"/>
                <path class="cls-2" d="M251.43,177.1c.13-1.66-2.72-6.67-4.79-9.58-7.35,8.23-15.58,17.44-17.86,20.38,1.11-.22,2.54-.19,4.26-.02,2.67.26,7.11,1.21,9.06.22,2.66-1.35,8.05-8.66,9.33-10.99Z"/>
                <path class="cls-2" d="M249.61,159.75c.39-.55.87-1.38,1.43-2.26,1.84-2.89,6.41-10.02,7.53-12.05-.44.35-1.08.84-2.03,1.61-8.04,6.52-12.41,11.78-14,13.66-1.78,2.25-8.25,11.13-13.1,20.34,6.98-6.79,14.84-13.77,20.17-21.3Z"/>
                <path class="cls-2" d="M258.34,160.33c1.18,2.86,2.8,5.36,5.84,2.39,9.16-8.94,17.49-19.27,25.65-29.35-.51-5.27-1-10.34-1.53-11-1.73.88-12.77,8.35-20,14.28-.02.04-.03.05-.06.09-4.8,7.76-13.05,21.07-11.66,21.16.8.05,1.21,1.11,1.75,2.43Z"/>
                <path class="cls-2" d="M301.18,131.84c2.05,2.75,6.03,7.96,9.24,7.62,9.88-1.03,20.87-3.68,30.98-6.3.55-9.77.72-19.56.98-29.34-14.92,1.08-27.39,4.05-41.33,9.45,0,.02-.01.03-.02.05.06,2.07-.46,5.1-.93,8.08-.57,3.54-1.17,7.65-.3,8.65.38.44.84,1.06,1.39,1.79Z"/>
                <path class="cls-2" d="M337.17,144.87c-1.71.12-2.99.63-3.73,1.41-.68,3.61,1.19,19.87,3.46,20.47,3.15-1.32,10.61-12.23,13.32-16.17.38-.56.69-1.01.95-1.37-2.4-1.71-8.97-4.71-13.98-4.34,0,0-.01,0-.02,0Z"/>
                <path class="cls-2" d="M358.82,143.61c.04.07.23.24.7.38,1.35.4,3.45,1.31,5.9,2.41,4.11,1.85,12.83,6.12,14.31,5.29,2.36-1.32,14.14-7.54,17.88-9.23-4.28-6.24-6.36-9.31-10.36-15.32-5.22-.61-7.88-.77-13.26-.82-4.29-.24-14.8,5.57-14.94,7.99.73,2.14.33,4.49,0,6.4-.16.93-.44,2.5-.23,2.89Z"/>
                <path class="cls-2" d="M398.79,131.92c3.08,5.11,7.48,12.25,8.37,13.3,1.21,1.06,10.34,6.09,12.05,4.2,2.11-2.32,6.97-13.51,7.13-14.22.04-.33-.57-2.28-1.31-4.27-11.14-7.77-22.28-14.81-34.96-19.86.03.09.05.14.09.23,0,.14,0,.22,0,.36,0,.3-.02.65-.05,1.04-.13,1.84-.38,4.41,2.1,8.35,1.47,2.33,3.9,6.44,6.57,10.86Z"/>
                <path class="cls-2" d="M353.47,121.17c4.22.78,14.89-3.41,20.27-5,2.72-.81,4.11-1.13,4.88-1.15.29-.81-.21-4.39-1.09-8.06-8.85-2.71-19.08-4.3-28.35-4.26-.16,14.24,2.21,18.09,4.29,18.47Z"/>
                <path class="cls-2" d="M452.64,163c4.61,3.31,11.96,8.37,11.22,7.11-.89-1.5-4.86-7.02-7.2-10.06-7.39-7.99-14.73-15.75-23.31-22.5,0,1.93,2.09,10.64,3.31,13.75.67.46,1.59,1.1,2.67,1.86,4.04,2.87,10.73,7.99,13.31,9.84Z"/>
                <path class="cls-2" d="M482.38,200.79c.55-.58-5.02-10.99-11.29-20.46-.85-.69-1.75-1.39-2.66-2.09-3.78-2.9-11.18-7.69-11.02-6.56,2.96,4.22,12.45,17.68,14.71,20.86,2.61,2.34,8.15,7.11,10.26,8.24Z"/>
              </g>
              <g>
                <path class="cls-1" d="M509.47,303.66c-.62,1.53,4.64,10.62,7.72,12.9,3.08,2.28.17-11.48-.53-13.37-.7-1.89-6.57-1.06-7.19.47Z"/>
                <path class="cls-1" d="M226.21,536.22c-3.44-2.1-.2,2.19.96,4.13.46.76,1.71,2.12,2.86,3.09,6.11,5.18,18.33,14.03,19.68,14.45.01-.02.02-.04.03-.06-.36-.87-1.01-2.01-3.84-5-.6-.63-5.6-4.62-6.2-5.25-.76-.8-11.98-10.44-13.49-11.36Z"/>
                <path class="cls-1" d="M274,538.15c8.54-7.32,16.87-14.87,25.2-22.42-1.23-9.99-2.32-20.01-3.28-30.03-12.45-3.01-24.83-6.34-37.11-9.96-2.09,1.85-4.93,4.15-8,6.61-3.98,3.17-14.34,11.16-16.9,14.43,12.93,14.19,26.63,27.71,40.11,41.37Z"/>
                <path class="cls-1" d="M376.97,548.79c10.8-8.3,20.12-18.75,29.46-28.6-8.85-15.59-18.17-30.9-27.5-46.21-15,1.1-29.95,1.83-44.99,2.18-3.19,3.88-4.77,5.79-7.87,9.55.07,11.65.19,23.31.5,34.96,10.91,8.1,23.25,14.5,35.35,20.61,8.32,4.2,12.66,6.21,15.05,7.51Z"/>
                <path class="cls-1" d="M295.79,556.01c5.6,8.66,10.8,15.38,12.55,16.63,11.7,2.95,23.73,3.18,35.71,3.37,4.95-4.69,7.54-7.16,12.88-12.31-14.98-7.77-29.61-16.03-44.11-24.65-3.96,2.76-13.54,12.13-17.03,16.96Z"/>
                <path class="cls-1" d="M251.63,535.38c-.06-.07-.09-.1-.16-.17-8.16-8.75-16.48-17.38-24.43-26.33-3.85-1.27-13.38-3.35-15.94-3.49.46,1.66,2.46,6.56,6.49,13.72,10.59,9.58,21.39,21.48,34.36,27.93.81.14,1.21.21,2.03.33,1.84.29,6.58.86,9.34.71-2.84-3.14-7.28-7.97-11.69-12.71Z"/>
                <path class="cls-1" d="M284.06,567.74c-.64-.75-1.29-1.5-1.94-2.26-.32-.18-1.09-.51-2.3-.76,0,0,0,0,0,0-3.56-.76-7.58-.46-10.45-.02,6.43,3.61,14.98,7.53,19.89,9.24-1.7-2.12-3.83-4.6-5.04-6.01-.06-.07-.1-.11-.16-.19Z"/>
                <path class="cls-1" d="M405.32,577.05c3.18-.92,6.05-2.24,8.36-3.44-9.32-2.42-18.31-5.85-27.57-8.46-2.64,1.62-10.66,8.36-17.41,14.31,12.15,1,25.05.94,36.62-2.4Z"/>
                <path class="cls-1" d="M440.73,515.83c-3.88.98-5,1.8-5.04,1.84-3.87,3.67-9.5,8.11-15.38,12.72-4.04,3.17-12.41,9.68-16.1,13.3,8.79,4.7,18.81,8.62,28.48,11,7.5-6.31,14.89-13.2,21.35-20.53,4.92-5.59,6.67-14.42,6.14-21.43-5.53.63-13.48,1.59-19.45,3.1Z"/>
                <path class="cls-1" d="M466.65,492.1c1.29-3.16,2.84-11.21,2.98-20.2-17.43-.9-34.64-2.75-51.97-4.66-1.04.07-2.31-.03-4.7-.25-1.55-.14-2.87-.25-3.99-.33,5.31,12.11,9.93,25.56,17.61,36.5,13.38-3.63,26.75-7.2,40.06-11.06Z"/>
                <path class="cls-1" d="M330.88,405.16c-16.2-7.11-32.36-14.33-48.51-21.57-6.03,6.39-13.61,14.52-15.11,18.94-4.58,13.52,1.03,34.88,3.62,51.05,12.7,5.63,26.07,9.41,39.75,11.71,5.87-5.39,8.87-8.17,14.97-13.87,1.7-15.43,3.47-30.84,5.28-46.26Z"/>
                <path class="cls-1" d="M214.1,473.58c9.89-4.55,20.91-10.32,28.28-18.58-.43-2.42-.68-6.05-.9-11.17-.47-10.77.17-24.11-3.74-34.45-1.89-.03-8.23.77-22.44,5.9-10.98,3.96-19.39,7.6-21.93,8.95-.63,11.26.2,22.74,2.02,33.85,2.27,2.24,9.18,8.11,18.7,15.5Z"/>
                <path class="cls-1" d="M193.64,474.17c-1.26-.85-1.9-1.28-3.16-2.13,3.55,6.35,6.5,10.97,8.28,13.54,2.13.1,5.01.19,7.61.21-4.15-4.01-9.29-8.82-12.74-11.61Z"/>
                <path class="cls-1" d="M213.79,379.74c-5.23-9.87-10.01-20.38-16.51-29.5-2.33-.97-12.75.39-24.68,3.54-.75,15.65-.52,31.42,1.18,47.01,12.99-7.57,26.71-14.07,40.02-21.04Z"/>
                <path class="cls-1" d="M388.7,445.44c6.94-15.15,13.9-30.3,19.94-45.84-9.7-7.93-20.04-15.07-30.23-22.35-7.67,9.71-18.47,20.94-20.21,32.59-.58,3.88-.94,8.94-1.51,13.06-.77,5.63-2.34,16.97-1.15,19.97,10.73,2.49,22.2,2.56,33.15,2.57Z"/>
                <path class="cls-1" d="M340.75,380.92c9.25-11.66,17.02-24.57,24.98-37.11-8.27-8.77-16.53-17.55-24.72-26.4-5.63,1.95-17.75,6.18-23.32,8.03-2.92,11.57-4.11,23.54-5.51,35.37,4.98,3.2,10.76,7.46,15.97,11.28,3.48,2.55,9.36,6.83,12.6,8.84Z"/>
                <path class="cls-1" d="M235.12,356.84c4.58,10.15,9.39,20.28,15.25,29.77,3.09-3.26,8.9-10.83,15.27-20.96-2.72-13.55-5.36-27.11-7.66-40.74-8.71,1.87-17.27,3.79-20.8,4.69-1.36,2.45-4.15,9.11-6.7,17.22,1.39,2.98,2.91,6.32,4.52,9.8.04.09.06.14.1.23Z"/>
                <path class="cls-1" d="M213.01,332.49c6.22-8.02,11.09-17.26,15.84-26.18-5.48-6.66-8.1-9.85-13.06-15.85-4.55,4.43-7.65,7.79-8.47,8.96-.79,2.56-1.91,13.36-.38,19.67,1.94,7.99,4.64,12.13,6.07,13.4Z"/>
                <path class="cls-1" d="M213.6,332.88c-.71,1.57-1.06,2.35-1.76,3.92.7-1.56,1.06-2.35,1.77-3.92t0,0Z"/>
                <path class="cls-1" d="M290.78,355.07c2.09-12.31,4.81-24.53,7.52-36.71-7.71,2.11-11.57,3.18-19.26,5.31.95,10.38,2.02,21.55,5.71,31.39,2.45.58,4.68.34,6.03,0Z"/>
                <path class="cls-1" d="M401.09,316.43c-4.37,9.71-7.61,20.01-10.79,30.16,11.62,10.64,23.84,21.22,36.82,30.19,12.83-4.33,25.96-9.65,37.69-16.45-5.93-11.55-13.78-22.09-21.24-32.67-14.04-4.05-28.13-8.35-42.47-11.23Z"/>
                <path class="cls-1" d="M430.39,413.63c-1.23,6.89-5.84,16.28-10.6,24.57,16.27,3.02,32.58,5.82,49.05,7.63-1.59-11.18-3.56-22.29-5.46-33.43-10.9-.64-22.19-.4-32.99,1.23Z"/>
                <path class="cls-1" d="M480.14,375.9s0,0,0,0c-3.48,1.2-15.89,6.57-25.3,11.19,9.86,2.45,19.95,4.44,29.98,6.02,6.09-3.94,9.1-5.88,15.02-9.67-9.34-5.25-17.46-8.31-19.69-7.54Z"/>
                <path class="cls-1" d="M511.49,440.92c4.27-14.76,8.1-29.58,9.81-44.88-7.55,3.41-20.07,10.22-22.01,12.22-2.68,2.77-7.58,6.9-10.9,9.59.88,5.08,3.29,14.59,5.24,22.61,7.3.35,10.88.45,17.85.47Z"/>
                <path class="cls-1" d="M489.01,460.78c-.73,1.65-1.1,2.47-1.84,4.11-.54,2.62.42,13.18.6,17.01.16,3.5.17,5.42.1,6.71,1.88.51,7.42,1.13,14.27.72,4.82-10.11,10.05-20.35,12.49-31.38-4.34.42-15.11,1.85-25.61,2.81Z"/>
                <path class="cls-1" d="M484.39,522.9c2.97-4.81,7.08-11.85,9.59-16.42-6.68,3.09-10.13,4.52-17.2,7.12-.19,4.28-.37,6.34-.91,10.24,3.27.02,6.34-.4,8.52-.94Z"/>
                <path class="cls-1" d="M460.18,541.29c-2.2,1.63-9.2,8.07-15.29,14.62-1.01,1.08-2.11,2.72-3.13,4.38,12.04-6.01,23.45-13.29,33.98-21.69.94-1.39,1.63-2.51,1.96-3.15-1.1.23-7.91,3.25-10.38,4.08.92-1.29,1.38-1.93,2.3-3.23-.93,1.3-1.39,1.94-2.32,3.24-3.57,1.2-5.84,1.71-7.11,1.76Z"/>
                <path class="cls-1" d="M191.88,326.89c-2.27-7.27-4.73-16.06-5.63-19.88-1.14,0-3.65.37-7.03,1.41-1.35,8.87-1.9,13.38-2.74,22.53,6.1-1.6,9.18-2.41,15.41-4.06Z"/>
                <path class="cls-1" d="M288.67,296.37c-1.47-6.74-5.16-18.56-6.87-22-1.7-.19-7.33-.48-24.02,1.95-5.58,9.92-10.46,20.51-13.45,31.51,14.45-3.43,28.77-7.39,43.13-11.15.24,1.72.36,2.58.6,4.3-.2-1.74-.3-2.6-.49-4.33.38-.1.74-.19,1.09-.29Z"/>
                <path class="cls-1" d="M234.54,243.66c-2.11,6.65-5.22,19.89-5.01,22.17,1.14,6.49,2.93,11.32,4.21,13.83,2.79-3.13,7.61-9.18,13.17-17.03-.94-8.56-1.32-12.72-1.86-20.81-4.35.57-8.09,1.27-10.51,1.84Z"/>
                <path class="cls-1" d="M198.97,245.15c-3.14,11.75-5.04,23.68-6.74,35.71,4.04,2.42,4.59,2.41,7.32,1.37,4.49-1.71,10.24-5.85,11.42-7.56,2.59-10.09,6-19.98,9.51-29.78-6.16-1.68-9.11-2.35-14.73-3.32-2.8,1.29-5.24,2.64-6.79,3.58Z"/>
                <path class="cls-1" d="M290.63,250.36c3.01-4.33,9.86-16.14,12.8-21.91-2.4-3.21-7.57-9.44-12.83-15.42-8.21-.41-15.15-.08-18.7.34-.74,2.57-1.82,7.07-3.14,13.52-1.2,5.87-1.73,8.51-2.46,10.36.02,1.62,1.05,6.72,3.95,13.82,7.73-.39,16.3-.61,20.38-.71Z"/>
                <path class="cls-1" d="M337.93,290.21c3.39-6.34,5.06-9.49,8.34-15.72-9.54-9.86-19.06-20-29.78-28.61-2.01,4.16-5.01,9.31-8.57,15.28-1.32,2.21-3.6,6.02-4.47,7.67.25,2.48,2.27,10.12,6.11,20.18,9.46.24,18.92.65,28.37,1.21Z"/>
                <path class="cls-1" d="M373.27,319.83c2.41-2.5,7.68-9.39,13.62-19.81,1.87-9.33,2.45-18.19,1.97-21.9-2.68-.23-6.07.53-9.42,1.28-2.82.63-5.51,1.25-8.2,1.46-1.87,1.08-7.21,7.88-13.15,18.53,8.66,13.07,13.07,18.48,15.17,20.44Z"/>
                <path class="cls-1" d="M364.11,245.19c.51,2.58.64,5.41.77,8.41.09,2.19.28,6.5.86,8.37,9.29-1.55,18.33-4.47,27.34-7.06.87-.25,1.57-.45,2.14-.61,1.71-4.13,5.48-17.47,7.01-24.6-8.97-5.48-18.3-10.34-27.61-15.22-2.91,3.11-8.06,8.56-10.47,10.87-.85,2.67-1.23,13.87-.04,19.83Z"/>
                <path class="cls-1" d="M412.05,278.04c-.28,1.98-.79,4.44-1.53,7.8-.6,2.71-2.3,10.26-2.5,13.84,13.76,5.01,28.82,8.49,43.34,10.33,2.2-6.21,6.77-19.9,8.76-26.25-8.16-6.97-16.31-13.94-24.39-21-7.98,4.95-15.87,10.07-23.67,15.29Z"/>
                <path class="cls-1" d="M340.95,239.85c1.06-4.18,2.41-10.63,3.63-17.81-7.65-9.33-14.19-16.35-16.82-18.47-2.13,1.43-6.03,4.91-7.91,7.29,2.53,3.79,3.94,9.17,4.6,12.34,5.9,6.66,12.47,13.16,16.51,16.65Z"/>
                <path class="cls-1" d="M425.86,242.73c-2.02-2.86-3.9-5.46-5.46-7.53-1.31,2.95-2.63,6.7-3.56,9.89,2.78-.68,5.98-1.54,9.02-2.36Z"/>
                <path class="cls-1" d="M490.6,307.18c-1.97-.9-7.28-2.63-14.25-4.01-4.82,7.2-7.63,15.67-6.2,19.68.17.46.25.69.41,1.15,6.54,18.31,8.85,22.37,9.67,23.28,8.17,5.1,16.84,9.49,25.39,13.89,1.67-4.52,3.85-12.29,4.49-17.51-3.42-11.38-10.8-21.99-16.82-32.03-1.22-2.03-2.09-3.45-2.69-4.47Z"/>
                <path class="cls-1" d="M468.06,247.24c-1.39.44-5.19,3.68-9.73,8.76.97,1.29,2.02,2.71,3.15,4.23,3.53,4.76,12.96,17.31,15.86,18.7,2.46,1,4.72,2.22,6.72,3.3,3.39,1.83,5,2.59,5.55,2.27,2.81-1.68,11.48-5.06,16.71-6.8-3.27-5.16-7.35-11.6-9.39-14.88-9.17-5.72-18.79-11.61-28.87-15.58Z"/>
                <path class="cls-1" d="M426.33,191.87c-1.28,3.59-3.21,11.09-3.17,13.17.39,1.5,2.94,7.35,6.25,13.85.61.86.91,1.29,1.52,2.16,6.76,9.61,11.26,15.2,13.2,16.59,1.79-.32,6.68-3.15,11.59-6.81-3.38-8.93-6.84-17.83-10.38-26.71-7.25-4.82-14.91-9.75-19.01-12.26Z"/>
                <path class="cls-1" d="M459.78,203.34c4.4,12.29,8.54,22.1,10.01,24.26,7.83,5.88,16.48,10.76,24.92,15.7-.17-3.75-.97-10.64-2.45-17.62-5.38-7.72-8.08-11.6-13.43-19.34-11.04-4.73-18.61-4.65-19.05-3.01Z"/>
                <path class="cls-1" d="M460.84,186.26c-6.75-9.78-11.96-17.26-14.12-20.2-1.64-1.2-4.41-3.29-9.08-6.64-3.85-2.77-5.98-4.33-8.36-5.85-.9.77-2.4,4.06-2.44,5.81.53,1.8,1.26,8.62,5.68,18.18.69.81,10.28,8.52,11.64,9.25,2.6-1.08,10.99-1.31,16.67-.54Z"/>
                <path class="cls-1" d="M407.71,191.87c2.06-7.57,5.03-16.98,6.28-21.04.68-2.22.73-6.14-5.02-14.81-.45-.24-1.35-.65-2.87-1.02-7.83-1.93-16.97.45-19.03,1.79-.28,4.11,2.16,19.25,3.77,24.36,2.28,1.61,8.4,5.46,16.87,10.73Z"/>
                <path class="cls-1" d="M384.2,202.4c2.72,1.72,8.63,4.77,21.32,10.24.1-1.06.14-2.18.1-2.99-3.1-2.72-12.87-9.15-16.88-11.06-1.59,1.01-3.3,2.36-4.54,3.81Z"/>
                <path class="cls-1" d="M359.16,155.72c-6.6,8.71-12.93,18.2-17.38,28.18,1.79,2.21,3.2,5.01,4.5,7.55,3.8,7.44,4.98,7.93,7.08,7.27,7.71-2.44,18.55-12.09,21.38-15.23-.32-3.35-1.8-12.8-3.81-23.99-5.66-2.38-10.05-3.57-11.77-3.78Z"/>
                <path class="cls-1" d="M310.31,155.01c-4.9,8.26-9.9,16.47-15.01,24.61.59,1.18,2.04,3.52,6.1,8.42,1.36,1.64,1.94,2.34,2.31,3.07,2.19,4.31,9.65,2.46,11.93,1.35,2.29-1.12,6.34-5.3,7.98-7.42-1.15-10.65-2.68-21.26-3.94-31.9-3.75.66-5.63,1.03-9.37,1.87Z"/>
                <path class="cls-1" d="M280.05,195.67c1.01-.13,2.17-.31,3.37-.52-.48-.71-.99-1.44-1.53-2.17-.69.97-1.3,1.88-1.84,2.68Z"/>
                <path class="cls-1" d="M236.68,227.06h.01c1.89-.58,4.23-1.02,6.71-1.45,1.41-.24,5-.82,7.21-1.38,1.35-2.8,3.45-6.7,6.17-11.71.97-1.79,2.23-4.11,3.08-5.74-1.27-2.57-4.49-8.15-7.52-13.19-8.97,1.92-16.49,5.77-18.69,7.58-2.07,3.24-4.61,10.58-5.89,16.76.98,1.02,1.91,2.28,2.85,3.54,0,0,0,.01.01.02,1.35,1.82,4.37,5.87,6.05,5.57Z"/>
                <path class="cls-1" d="M213.36,222.25c1.84-4.55,5.13-12.48,5.82-15.69.27-1.25.33-1.75-5.45,1.83-2.53,5.35-5.59,12.44-7.24,16.46,1.82-.58,4.75-1.69,6.87-2.61Z"/>
                <path class="cls-1" d="M286.3,144.54c-7.92,8.32-15.29,17.16-22.76,25.88.15.28.31.57.48.88,4.94,8.97,8.25,11.27,9.4,11.25,3.32-1.68,9.85-8.41,13.26-12.57,6.28-8.2,10.54-15.79,11.27-18.18-3.28-4.16-9.5-7.68-11.65-7.27Z"/>
                <path class="cls-1" d="M247.7,177.05c-.4-1.37-1.82-4.21-3.5-6.76-4.48,5.04-8.38,9.44-10.96,12.41.68-.03,1.43-.02,2.26.02,1.67.09,5.75.68,7.39.21,1.03-.9,3.43-3.89,4.81-5.87Z"/>
                <path class="cls-1" d="M247.76,159.42c.35-.53.77-1.16,1.24-1.86,2.61-3.91,4.53-6.8,5.78-8.7-.02.01-.03.03-.05.04-6.69,5.45-9.72,9.12-11.22,10.76-1.91,2.58-5.62,7.72-9.56,14.7,5.41-5.6,12.02-12.75,13.81-14.94Z"/>
                <path class="cls-1" d="M260.95,155.4c.86,2.15,1.78,3.32,2.49,3.18,8.1-8.35,15.54-17.38,22.86-26.41-.3-4-.54-6.64-.75-7.78-2.88,1.77-10.12,6.73-16.86,12.19-3.23,5.27-8.54,14-9.43,16.31.8.24,1.18,1.27,1.68,2.52Z"/>
                <path class="cls-1" d="M301.51,124.74c.35.4.82,1.03,1.37,1.77h0c1.46,1.97,5.18,6.98,7.55,6.79,3.93-.31,20.67-4.37,26.97-5.9.31-5.02.75-14.45,1.15-22.85-12.3.67-24.41,3.65-35.74,8.46-.19,1.5-.45,3.11-.71,4.71-.35,2.2-.95,6.28-.59,7.02Z"/>
                <path class="cls-1" d="M334.92,145.64c.08,3.33.8,9.19,1.63,12.55,1.53-1.68,4.12-4.9,8.12-10.71-2.71-1.17-6.25-2.16-9.08-1.93,0,0,0,0-.02,0-.25.02-.47.05-.66.08Z"/>
                <path class="cls-1" d="M364.34,139.63c6.52,2.96,10.63,4.8,12.04,5.02,2.44-1.4,10.23-5.71,14.75-7.9-2.62-3.88-3.9-5.8-6.41-9.58-4.64-.44-6.99-.54-11.74-.54-3.14-.15-10.1,3.45-12.33,5.56.32,2.14.07,4.17-.19,5.75,1.14.46,2.45,1.04,3.89,1.69Z"/>
                <path class="cls-1" d="M414.36,142.69c1.9-2.11,6.49-12.43,6.93-13.81-.02-.1-.05-.23-.1-.41-10.1-6.53-19.4-11.7-30.35-16.64-.09,1.63-.02,2.84,1.24,4.84,1.5,2.38,3.92,6.46,6.57,10.86.04.07.06.1.11.18,2.06,3.42,5.8,9.52,7.29,11.75,2.38,1.52,7.66,3.97,8.32,3.24Z"/>
                <path class="cls-1" d="M352.35,114.72c3.55.54,14.11-3.72,18.41-5.06,1.57-.49,2.66-.79,3.48-.98-.06-.58-.16-1.33-.31-2.21-9.37-2.36-14.09-3.04-23.5-3.24.23,9.21,1.72,11.27,1.92,11.49Z"/>
                <path class="cls-1" d="M448.35,156.55s0,0,0,0c3.87,2.92,9.07,6.51,9.87,6.89-.67-1.08-2.33-3.59-4.54-6.67-7.62-8.29-11.62-12.05-19.9-18.67.35,1.91,1.41,5.96,2.25,8.92,3.73,2.77,10.04,7.81,12.32,9.53Z"/>
                <path class="cls-1" d="M470.34,188.09c2.28,2.06,4.45,3.92,5.86,5.04-.93-2.27-3.74-7.82-8.26-15.14-.06-.05-.13-.1-.19-.15-1.77-1.33-6.54-4.66-8.89-5.85,3.46,4.88,8.88,12.46,11.48,16.09Z"/>
              </g>
            </g>
            <g>
              <path class="cls-8" d="M349.86,100c-82.78,0-174.18,115.98-184.53,257.73-10.05,137.71,82.62,242.27,184.53,242.27s196.53-104.72,184.53-242.27c-12.07-138.32-98.3-257.73-184.53-257.73Z"/>
              <path class="cls-5" d="M349.63,600c28.6,0,55.67-8.27,79.85-22.97,15.96-60.76,5.46-139.19-33.95-212.92-45.35-84.85-117.15-141.34-184.96-153.6-28.63,41.83-45.99,106.03-45.99,165.36,0,129.61,82.85,224.13,185.05,224.13Z"/>
              <ellipse class="cls-9" cx="376.7" cy="284.22" rx="114.08" ry="167.2"/>
            </g>
          </g>
        </g>
      </g>
    </g>
  </g>
</svg>