<?xml version="1.0" encoding="UTF-8"?>
<svg xmlns="http://www.w3.org/2000/svg" xmlns:xlink="http://www.w3.org/1999/xlink" viewBox="0 0 700 700">
  <defs>
    <style>
      .cls-1 {
        fill: #3a6e60;
      }

      .cls-1, .cls-2, .cls-3, .cls-4, .cls-5, .cls-6, .cls-7, .cls-8, .cls-9, .cls-10, .cls-11, .cls-12, .cls-13, .cls-14 {
        stroke-width: 0px;
      }

      .cls-2 {
        fill: #d6b789;
      }

      .cls-3 {
        fill: #4e6d80;
      }

      .cls-4 {
        fill: #3b4c69;
      }

      .cls-5 {
        fill: #bda57d;
      }

      .cls-6 {
        fill: #84bfb1;
      }

      .cls-7 {
        fill: url(#_Безымянный_градиент_16);
      }

      .cls-7, .cls-14 {
        mix-blend-mode: screen;
      }

      .cls-8 {
        fill: #693f3b;
      }

      .cls-9 {
        fill: #1d0d2b;
      }

      .cls-10 {
        fill: #fbd69e;
      }

      .cls-11 {
        fill: url(#_Безымянный_градиент_140);
        mix-blend-mode: multiply;
      }

      .cls-15 {
        isolation: isolate;
      }

      .cls-12 {
        fill: #304569;
      }

      .cls-13 {
        fill: #354561;
      }

      .cls-14 {
        fill: url(#_Безымянный_градиент_139);
      }
    </style>
    <radialGradient id="_Безымянный_градиент_140" data-name="Безымянный градиент 140" cx="737.76" cy="1124.95" fx="737.76" fy="1124.95" r="320.28" gradientTransform="translate(-384.17 -1136.3) scale(1.1 1.3)" gradientUnits="userSpaceOnUse">
      <stop offset=".36" stop-color="#f1f2f2" stop-opacity="0"/>
      <stop offset=".42" stop-color="rgba(220, 221, 222, .15)" stop-opacity=".15"/>
      <stop offset=".59" stop-color="rgba(172, 173, 175, .52)" stop-opacity=".52"/>
      <stop offset=".74" stop-color="rgba(137, 138, 141, .78)" stop-opacity=".78"/>
      <stop offset=".87" stop-color="rgba(116, 117, 120, .94)" stop-opacity=".94"/>
      <stop offset=".97" stop-color="#6d6e71"/>
    </radialGradient>
    <radialGradient id="_Безымянный_градиент_16" data-name="Безымянный градиент 16" cx="521.33" cy="383.14" fx="521.33" fy="383.14" r="424.94" gradientTransform="translate(0 -113.86) scale(1 1.03)" gradientUnits="userSpaceOnUse">
      <stop offset=".68" stop-color="#221e1f" stop-opacity="0"/>
      <stop offset=".71" stop-color="rgba(46, 42, 43, .06)" stop-opacity=".06"/>
      <stop offset=".77" stop-color="rgba(79, 76, 77, .23)" stop-opacity=".23"/>
      <stop offset=".86" stop-color="rgba(133, 132, 133, .51)" stop-opacity=".51"/>
      <stop offset=".97" stop-color="rgba(206, 206, 207, .88)" stop-opacity=".88"/>
      <stop offset="1" stop-color="#e6e7e8"/>
    </radialGradient>
    <radialGradient id="_Безымянный_градиент_139" data-name="Безымянный градиент 139" cx="785.94" cy="1821.76" fx="785.94" fy="1821.76" r="106.23" gradientTransform="translate(-467.29 -2583.07) scale(1.07 1.57)" gradientUnits="userSpaceOnUse">
      <stop offset="0" stop-color="#f1f2f2"/>
      <stop offset="1" stop-color="#221e1f" stop-opacity="0"/>
    </radialGradient>
  </defs>
  <g class="cls-15">
    <g id="_Слой_2" data-name="Слой 2">
      <g id="_Слой_3" data-name="Слой 3">
        <g>
          <rect class="cls-9" y="0" width="700" height="700"/>
          <g>
            <g>
              <path class="cls-6" d="M534.38,357.73c12.01,137.55-82.62,242.27-184.53,242.27s-194.58-104.56-184.53-242.27c10.35-141.75,101.75-257.73,184.53-257.73s172.45,119.42,184.53,257.73Z"/>
              <g>
                <path class="cls-10" d="M525.26,340.86c-2.25-1.64-2.44,2.74-1.76,4.29.68,1.56,1.89,1.05,2.59.02.7-1.03.38-3.44-.82-4.32Z"/>
                <path class="cls-2" d="M434.31,213.66c-4.33,2.72-11.99,24.36-11.05,31.21,1.81,13.2,6.46,26.54,12.42,30.79,5.96,4.25,21.37-21.71,20.5-33.46-.87-11.75-17.53-31.26-21.87-28.54Z"/>
                <path class="cls-10" d="M417.8,170.23c-3.09,3.31.38,11.58.34,15.93s10.58,3.47,12.99,4.46c2.4.99,4.42-8.16,3.96-10.58-.46-2.42-14.19-13.12-17.28-9.81Z"/>
                <path class="cls-10" d="M464.24,209.74c-3.8,3.73-.6,13.02-1.61,17.36s10.56,5.89,11.06,4.44c.5-1.44,3.95-10.1,3.49-12.51-.46-2.42-9.05-13.11-12.94-9.29Z"/>
                <path class="cls-8" d="M466.52,276.83c-7.85-.07-9.31,15.84-9.33,17.29-.01,1.45-.06,6.75.84,13.52.9,6.76,5.79-.43,8.24-3.78,2.44-3.36,6.04-26.97.25-27.02Z"/>
                <path class="cls-13" d="M418.29,135.57c-7.22-3.41-8.27,7.16-5.42,12.5,2.85,5.33.41,7.72,8.63,5.87,8.22-1.85,3.04-15.41-3.21-18.37Z"/>
                <path class="cls-10" d="M356.5,119.48c-4.79-.78-8.17-3.45-11.62,4.72-3.45,8.17,6.18,10.67,10.55,6.85,4.38-3.82,7.33-10.55,1.07-11.57Z"/>
                <path class="cls-8" d="M456.3,181.2c-4.94-2.69-8.21.89-3.46,9.14,4.75,8.25,10.03,11.19,11.52,6.38,1.49-4.81-.86-11.59-8.06-15.51Z"/>
                <path class="cls-3" d="M414.64,304.82c-4.74,5.82-4.87,4.78-4.96,14.43-.09,9.65,7.58,15.51,11.97,9.76,4.4-5.75,8.31-11.99,5.98-20.21-2.34-8.22-11.04-6.37-12.99-3.98Z"/>
                <path class="cls-5" d="M467.16,365.62c-4.29-7.79-26.62,8.44-27.6,10.85-.99,2.4-3.05,16.38-.7,23.64,2.35,7.26,15.44.62,22.73-5.1,7.29-5.72,9.85-21.62,5.58-29.38Z"/>
                <path class="cls-3" d="M416.89,427.4c-8.4-6.85-15.03,8.07-15.12,17.71-.09,9.65.3,19.79,6.03,26.11,5.73,6.33,11.08,2.03,15.97-4.68,4.89-6.71,4.48-14.92,1.16-21.22-3.32-6.3-3.25-14.02-8.04-17.93Z"/>
                <path class="cls-13" d="M348.08,353.43c-5.07-.77-15.59,16.26-21.91,21.03-6.32,4.77-9.37,22.59-4.14,30.84,5.23,8.25,16.42-1.78,21.77-6.07,5.35-4.29,9.3-14.39,7.92-22.12-1.38-7.73-.27-23.16-3.64-23.68Z"/>
                <path class="cls-1" d="M339.68,536.02c2.25-4.27,1.18-14.65-8.24-18.52-9.41-3.87-17.36-15.7-27.95-15.27-10.58.42-15.29,8.31-11.72,12.92,3.57,4.61,11.32,15.78,18.3,22.19,6.99,6.41,27.12,3.39,29.6-1.31Z"/>
                <path class="cls-13" d="M254.26,429.78c-6.23-1.76-11.17,8.1-13.66,16.76-2.49,8.66-1.71,28.94,6.39,39.63,8.11,10.69,18.32,2.1,20.8-5.6,2.48-7.7,3.55-18.79.24-26.54-3.31-7.75-8.48-22.76-13.77-24.25Z"/>
                <path class="cls-3" d="M212.34,371.01c-6.55-3.9-18.5,18.17-18.5,18.17,0,0-4.45,12.02,4.6,25.13,9.05,13.11,13.43,8.81,17.82,3.54,4.39-5.27,9.8-16.8,7.95-25.02-1.85-8.22-6.1-18.39-11.86-21.82Z"/>
                <path class="cls-8" d="M391.03,511.13c1.13,8.46-25.2,11.35-25.35,27.75-.15,16.4.69,30.41,7.45,29.02,6.77-1.39,20.8-5.6,26.69-16.64,5.89-11.04,2.66-27.48.79-33.29-1.88-5.81-10.04-10.22-9.59-6.84Z"/>
                <path class="cls-1" d="M494.37,397.23c-4.52-6.14-6.73-2.96-12.62,8.09s-11.2,11-12.22,16.78c-1.02,5.78,5.68,11.63,6.62,14.54.94,2.9,14.55-8.07,16.5-10.46,1.95-2.39,4.57-25.05,1.71-28.94Z"/>
                <path class="cls-10" d="M491.67,323.38c-1.93.46-4.36,1.89-4.44,10.57s10.47,15.54,16.2,22.34c5.73,6.81,11.67-9.54,11.71-13.89.04-4.34-12.93-10.73-15.8-13.66-2.87-2.92-7.67-5.38-7.67-5.38Z"/>
                <path class="cls-8" d="M348.25,440.29c-13.47,2.57-13.23,22.56-12.36,32.7.87,10.14,5.13,19.83,9.43,23.73,4.31,3.9,12.59-5.19,13.66-15.8s4.53-20.22,1.19-24.6c-3.34-4.37-7.08-16.95-11.92-16.03Z"/>
                <path class="cls-1" d="M277.29,390.9c-8.68-.08-16.36-4.49-11.13,3.76,5.23,8.25,15.24,22.34,21.96,25.77,6.72,3.44,12.63-9.05,11.73-16.3-.9-7.25-18.7-13.2-22.56-13.23Z"/>
                <path class="cls-8" d="M210.09,457.84c-6.78-.74-5.83,4.77-6.88,13.93-1.05,9.16,10.87,25.19,14.21,29.08,3.34,3.89,6.41-14.9,8.88-21.15,2.47-6.25-11.39-21.34-16.21-21.86Z"/>
                <path class="cls-1" d="M458.64,450.85c-10.3-.09-8.96,18.76-8.37,22.53.59,3.77,8.17-1.18,13.25-7.41,5.08-6.23,2.02-15.05-4.89-15.11Z"/>
                <path class="cls-13" d="M213.79,272.48c-4.76,5.74-11.1,13.26-12.22,20.44-1.11,7.18,3.01,14.41,8.79,11.38,5.78-3.03,8.44-8.14,15.26-10.65,6.82-2.51-5.49-28.82-11.84-21.18Z"/>
                <path class="cls-8" d="M176.96,353.46c-4.23,4.15.49,15.07,2.97,18.24,2.48,3.16,6.27.69,6.32-4.34.05-5.02-3.59-19.5-9.29-13.9Z"/>
                <path class="cls-2" d="M426.67,520.63c1.18,5.53.55,8.8,5.52,14.49,4.97,5.7,11.94-1.15,12.01-8.68.07-7.53-1.14-13.2-6.76-15.76-5.63-2.56-11.97,4.29-10.77,9.95Z"/>
                <path class="cls-10" d="M249.48,525.54c-9.31,2.36-15.79,9.9-4.54,16.28,11.24,6.38,18.15,6.45,20.14-4.84,1.99-11.28-3.64-14.48-15.59-11.45Z"/>
                <path class="cls-10" d="M397.71,384.36c-9.19-1.23-15.71,1.11-13.92,11.18,1.79,10.06,1.7,20.11,8.59,21.43,6.9,1.32,7.57-4.33,8.91-13.1,1.34-8.78,1.43-18.82-3.59-19.5Z"/>
                <path class="cls-1" d="M262.75,174.03c-9.2-1.11-17.02,6.75-13.99,19.34,3.02,12.59,6.09,22.44,12.98,30.09,2.03,2.25,13.14-2.23,16.98-9.73,3.84-7.5-4.67-38.35-15.96-39.71Z"/>
                <path class="cls-2" d="M358.97,157.33c-2.51-4.4-13.86,4.9-11.49,19.99,2.37,15.09,6.77,15.13,11.22,9.52,4.45-5.61,8.77,2.59,10.11-7.44,1.35-10.03-5.52-14.49-9.84-22.07Z"/>
                <path class="cls-10" d="M365.5,267.9c-18.29,2.54-24.04,19.87-16.02,35.02,8.02,15.14,23.94,34.7,26.16,22.84,1.07-5.72,10.2-16.86,4-25.71-6.2-8.85,2.83-34.51-14.15-32.15Z"/>
                <path class="cls-8" d="M284.8,303.58c-11.85-.11-16.45,13.04-14.04,24.99,2.4,11.95,1.75,14.46,5.47,19.52,3.72,5.06,8.23-6.83,12.69-14.33,4.46-7.49,3.42-30.11-4.12-30.18Z"/>
                <path class="cls-10" d="M239.4,323.89c-5.63-1.94-16.43,11.15-10.88,21.88,5.55,10.73,4.07,35.83,11.07,25.85,7-9.98,10.81-14.34,9.63-23.15-1.18-8.8-7.94-23.93-9.82-24.58Z"/>
                <path class="cls-12" d="M416.83,353.77c-7.92.54-10.67-.1-6.98,8.1,3.69,8.2,8.72,8.24,9.36,6.36.65-1.88,5.79-15.02-2.38-14.46Z"/>
                <path class="cls-10" d="M379.35,195.19c-6.99,9.35-16.5,18.69-15.92,24.34.58,5.66,10.48,24.77,16.06,29.03,7.48,5.72,22.07-10.47,25.89-16.09,1.69-2.49,1.36-22.32-2.87-28.91-5.31-8.26-16.16-17.73-23.16-8.38Z"/>
                <path class="cls-2" d="M288.5,242.08c-7.53-15.41-17.73,7.36-21.61,19.25-3.88,11.9,4.19,31.45,15.52,27.79,11.34-3.66,16.41-9.27,16.51-19.94.1-10.67-7.96-22.05-10.43-27.1Z"/>
                <path class="cls-10" d="M310.26,144.54c-4.9,9.09-12.35,10.59-7.02,17.15,5.33,6.56,11.58,20.11,18.99,14.6,7.4-5.52,7.04-19.01,5.09-20.89-1.94-1.88-15.07-14.56-17.06-10.86Z"/>
                <path class="cls-10" d="M323.77,229.84c-4.68,5.97-12,8.05-5.22,21.93,6.78,13.88,17.56,2.04,18.88-4.85,1.32-6.9-7.3-25.18-13.66-17.08Z"/>
                <path class="cls-10" d="M226.45,228.95c-1.6,1-7.63,10.6-4.54,15.66,3.09,5.05,10.12,13.41,13.7,12.06,3.59-1.35,2.57-6.88,5.78-13.76,3.2-6.88-8-18.28-14.94-13.95Z"/>
                <path class="cls-10" d="M463.49,332.22c-4.99-3.81-14.5,6.15-13.28,10.55,1.22,4.41,8.77,1.96,14.45-.5,5.67-2.46,3.82-6.24-1.16-10.06Z"/>
                <path class="cls-8" d="M510.2,374.09c-8.42,6.19,1.12,14.45,4.19,22.64,3.06,8.19,13.14,5.14,11.99-6.17-1.15-11.31-11.12-20.2-16.18-16.47Z"/>
                <path class="cls-10" d="M314.78,320.81c-4.61,9.65-2.66,15.67,1.08,19.48,3.73,3.8,11.36-6.18,15.8-11.16,4.44-4.98-12.4-17.7-16.88-8.32Z"/>
                <path class="cls-10" d="M318.73,574.53c-3.1-4.42,9.6-20.01,19.54-8.61,9.94,11.39,15.5,21.49,7.94,23.93-7.56,2.44-24.39-10.9-27.49-15.32Z"/>
                <path class="cls-3" d="M284.34,558.52c-7.54.56-8.2,3.69-5.71,6.85,2.48,3.16,6.92-1.82,8.72,7.61,1.8,9.44,9.9,15.79,12.51,5.77,2.6-10.02-2.98-16.98-7.36-19.53-4.37-2.55-8.16-.7-8.16-.7Z"/>
                <path class="cls-10" d="M420.63,556c-6.18-1.09-20.78,6.09-20.82,10.48s5.57,8.84,5.57,8.84c0,0,6.32-4.34,8.19-3.06,1.87,1.27,13.81.75,13.23-4.9-.58-5.66,5.11-9.37-6.18-11.36Z"/>
                <path class="cls-10" d="M302.97,445.03c-1.42,7.4-10.69,1.79-11.38,8.69-.69,6.9.54,10.05.51,13.19-.03,3.14,2.45,6.3,6.87,3.83,4.42-2.47,2.57-6.26,11.37-7.43,8.8-1.18,10.71-4.3,10.11-7.44-.6-3.15.08-8.79-1.77-12.57-1.85-3.78-14.4-5.16-15.71,1.74Z"/>
                <path class="cls-10" d="M188.19,430.79s-5.7,4.97-5.71,6.85c-.02,1.88,3.05,10.07,3.05,10.07,0,0,1.88.65,5.05-2.47,3.17-3.11,6.35-7.48,6.35-7.48,0,0-1.81-8.18-8.73-6.99Z"/>
                <path class="cls-8" d="M192.34,260c-1.87-2.86,5.94-9.7,5.48-12.63-.46-2.93,8.27,2.51,8.74,4.47.47,1.95-.06,6.34-6.42,9.2-6.36,2.87-6.83.43-7.79-1.05Z"/>
                <path class="cls-13" d="M491.45,496.09c-5.22-9.7-11.97-10.24-16.35-6.42-10.55,9.21-1.67,24.11-6.55,29.86-4.88,5.75-3.52,15.41-.17,18.82,1.47,1.5,5.27,1.25,9.37-.03,5.75-6.48,11.17-13.41,16.22-20.73.91-7.31.54-15.79-2.53-21.49Z"/>
                <path class="cls-8" d="M524.41,448.94c-.53-10.68,1.28-16.39-.42-22.61-1.7-6.22-19.49,2.33-19.6,14.26-.11,11.93-.9,29.5-.31,33.91.35,2.6,6.59,3.49,11.67,3.41,3.27-7.68,6.18-15.62,8.69-23.83.05-1.77.05-3.51-.03-5.13Z"/>
                <path class="cls-2" d="M506.58,246.28c-4.51-1.55-9.94,7.09-13.58,12.89-3.64,5.8-.62,18.84,3.35,26.06,3.97,7.22,11.15,7.73,13.89,2.82,2.16-3.88,5.21-14.42,6.2-19.82-1.83-5.62-3.78-11.16-5.83-16.6-1.56-2.81-3.07-5.02-4.02-5.35Z"/>
                <path class="cls-2" d="M224.3,211.05c4.41-2.88,6.41-8.23,8.94-17.47,1.67-6.13-1.61-10.16-5.27-14.04-5.66,7.97-11.06,16.41-16.16,25.28.74,1.15,1.49,2.09,1.8,2.71.96,1.96,6.28,6.4,10.69,3.51Z"/>
                <path class="cls-8" d="M181.79,327.67c.02-2.44-1.3-17.56-1.19-29.75.06-6.4-.31-11.71-1.21-16.6-4.87,16.59-8.68,33.88-11.24,51.69,1.23-.3,2.54-.56,3.85-.55,6.34.06,9.77-2.35,9.8-4.79Z"/>
                <path class="cls-3" d="M262.37,153.38c3.89,1.01,9.2,7.4,15.08,3.55,5.89-3.85,11.28-7.21,8.42-14.55-2.23-5.72-1.49-14.65-5.68-17.2-8.42,6.16-16.65,13.3-24.6,21.32,2.32,3.6,5.03,6.43,6.78,6.89Z"/>
                <path class="cls-10" d="M332.71,105.26c-7.32.91-8.3,1.39-11.27,6.24-2.97,4.85,3.86,4.91,6.79,3.48,2.94-1.44,4.48-9.71,4.48-9.71Z"/>
                <path class="cls-10" d="M394.57,112.17c-2.06-1.4-3.87-3.45-4.41,2.4-.54,5.85,3.35,7.34,5.79,6.88s.08-8.29-1.38-9.28Z"/>
                <path class="cls-1" d="M241.57,411.01c-3.11-4.76-6.37,3.84-6.4,6.77s5.34,2.97,6.82.55c1.48-2.42.54-5.85-.42-7.32Z"/>
                <path class="cls-4" d="M404.36,484.32c-7.41,1.34,1.36,13.01,1.36,13.01,0,0,2.19,3.41,3.71-1.1,1.52-4.51,6.8-14.06-5.08-11.91Z"/>
                <path class="cls-10" d="M485.04,455.75c-8.29.41-8.78-.08-8.81,3.82-.04,3.9,9.2,7.4,10.64,9.36,1.44,1.96,6.37-3.84,5.44-8.24-.93-4.4-7.27-4.94-7.27-4.94Z"/>
                <path class="cls-2" d="M190.92,318.22c-1.95,8.07-2.56,8.39,1.17,9.53,3.73,1.14,9.7-6.73,11.99-7.56s-1.88-7.2-6.36-7.55c-4.48-.35-6.8,5.57-6.8,5.57Z"/>
                <path class="cls-8" d="M524.85,314.72c-1.08-1.1-6.4,6.77-6.42,9.2-.02,2.44-.07,7.31,2.39,5.39,2.46-1.93,3.92-2.4,4.92-5.32s.56-7.8-.89-9.27Z"/>
                <path class="cls-10" d="M409.69,271.74c-2.25-.93-4.41,1.91-4.43,4.35s9.73,2.53,11.2,1.08c1.48-1.45-4.35-4.43-6.78-5.43Z"/>
                <path class="cls-10" d="M294.96,359.6c-.7-2.93-4.66.65-4.68,3.23-.02,2.59,2.4,1.4,2.73,2.61.33,1.21,3.8-1.34,3.82-2.72.01-1.38-1.54-1.74-1.87-3.12Z"/>
                <path class="cls-10" d="M260.53,336.18c-2.07-.02-3.09-.89-3.12,1.7-.02,2.59.32,2.93.31,4.14-.01,1.21,6.2.75,7.59-.79,1.39-1.54-4.78-5.04-4.78-5.04Z"/>
                <path class="cls-1" d="M216.29,334.13c-2.62-7.31-8.92-.08-8.95,3.34-.03,3.42,1.58,4.66,2.65,5.89,1.07,1.23,5.14-.69,5.43-2.4.29-1.71,1.66-4.63.87-6.84Z"/>
                <path class="cls-8" d="M248.26,282.63c-2.1-.02-2.77,1.53-2.79,3.59-.02,2.07.64,5.87.97,6.56s4.15-1,4.85-2.54-1.83-7.6-3.03-7.61Z"/>
                <path class="cls-13" d="M326.99,288.01c-1.5-.39-3.44-.89-3.63,1.17-.19,2.07-.2,3.27.13,4.31s6.04-.81,6.39-1.49c.35-.69-1.52-3.63-2.89-3.99Z"/>
                <path class="cls-12" d="M379.94,342.1c-1.23,2.4.63,6.38,1.85,5.36,1.22-1.02,3.66-4.62,3.66-4.62,0,0,4.47,1.25,4.99.74.52-.51,2.45-3.6,2.29-5.5-.16-1.9,1.62-7.23-3.04-6.92-4.66.3-5.33-1.08-6.39,1.32-1.06,2.4-2.13,7.22-3.36,9.62Z"/>
                <path class="cls-10" d="M372.87,379.96c-1.47-.01-3,7.21-2.15,8.77.85,1.56,2.41.02,3.29-1.35.87-1.37,3.81-1.86,1.93-3.95-1.88-2.09-1-3.46-3.07-3.48Z"/>
                <path class="cls-8" d="M379.22,438.8c-2.59-.02-4.14.48-2.97,3.94,1.17,3.46,3.75,4.69,3.75,4.69,0,0,.2-3.27,2.28-4.12,2.08-.84.21-4.48-3.06-4.51Z"/>
                <path class="cls-10" d="M453.78,429.32c-2.6-.97-5.18.47-6.55.46-1.38-.01-.71,2.58,1.69,3.64,2.4,1.06,6.72.58,6.73-.8.01-1.38.02-2.59-1.87-3.29Z"/>
                <path class="cls-8" d="M283.3,503.43c-3.92-.6-4.01,5.13-2.14,7.91s5.51.22,5.36-1.5c-.16-1.73-.81-6.04-3.22-6.41Z"/>
                <path class="cls-10" d="M260.63,494.95c-.7.21-1.05,2.06.32,3.11,1.37,1.05,3.26,1.41,3.28-.14.01-1.55-1.35-3.63-3.59-2.96Z"/>
                <path class="cls-10" d="M278.01,479.08c-1.39-.11-2.96,3.08-2.97,4.8s1.52,3.12,2.04,3.12,2.42-.67,2.6-2.04c.18-1.38.91-5.68-1.67-5.88Z"/>
                <path class="cls-8" d="M296.26,481.31c-1,.32-3.63,1.52-2.61,3.08,1.02,1.56,3.23,4.51,4.79,4.01,1.56-.5,3.28-1,3.65-3.59s-3.75-4.17-5.83-3.5Z"/>
                <path class="cls-10" d="M333.25,546.29c-.03,3.21-1.07,3.78.99,4.84s4.98,1.6,4.66-.99,1.57-2.57-.3-4.83c-1.88-2.26-5.34-.57-5.35.99Z"/>
                <path class="cls-10" d="M215.59,519.36c-4.18-3.04-2.17-7.26-.11-6.55,2.06.71,2.91,2.27,4.27,4.35s3.75,5.03,1.15,5.7c-2.59.67-4.11-2.62-5.31-3.5Z"/>
                <path class="cls-10" d="M204.16,505.29s-1.91,1.53-1.06,3.09c.85,1.56,3.41,4.51,3.95,1.59.54-2.93-.48-4.14-2.89-4.68Z"/>
                <path class="cls-10" d="M381.53,507.09c-.89-4.17-6.57,1.84-2.97,4.28,3.6,2.45,6.54,1.44,6.38.06-.16-1.38-2.75-1.23-3.41-4.34Z"/>
                <path class="cls-1" d="M408.17,533.88c-1.57,2.23-1.26,5.5.29,6.38,1.54.88,4.82.22,4.85-2.02.02-2.24-3.56-6.58-5.13-4.36Z"/>
                <path class="cls-1" d="M412.92,514.11c-2.17,3.45-1.74,8.52.38,9.87s6.64.33,6.67-3.14c.03-3.47-4.89-10.18-7.06-6.73Z"/>
                <path class="cls-10" d="M430.01,540.28c-2.16.09-2.09,2.22-1.24,3.61.85,1.39,3.78,1.41,5.34.39,1.56-1.02-.65-4.14-4.1-4Z"/>
                <path class="cls-10" d="M453.17,495.5c-.63-1.43-2.25.84-1.93,3.6.32,2.76,2.72,4.68,3.94,2.28,1.23-2.4-1.17-3.98-2.01-5.88Z"/>
                <path class="cls-8" d="M459.95,545.9c-1.04-4.89-4.61-4.87-8.12,1.48-3.51,6.35-4.74,8.92-4.05,9.1s3.64-1.69,5.54-2.19c1.9-.5,6.72.06,7.95-2.69,1.23-2.75-.67-2.59-1.33-5.7Z"/>
                <path class="cls-10" d="M513.22,413.14c-3.66-1.08-2.44,3.25-1.94,4.46s4.64,1.08,5.17.05-.83-3.8-3.23-4.51Z"/>
                <path class="cls-2" d="M497.67,365.66c-6.45-2.44-5.33,5.98-3.43,8.01,1.9,2.03,5.76.34,6.01-1.38s.53-5.45-2.58-6.63Z"/>
                <path class="cls-3" d="M237.2,505.22c-6.45-2.44-5.33,5.98-3.43,8.01,1.9,2.03,5.76.34,6.01-1.38.26-1.72.53-5.45-2.58-6.63Z"/>
                <path class="cls-8" d="M465.82,356.34c-1.72.45-.37,2.93.31,3.8s1.89.19,2.25-1.19c.36-1.38-.66-3.11-2.56-2.61Z"/>
                <path class="cls-10" d="M432.22,392.75c1.1.84,1.71,1.57,1,3.46-.71,1.89-1.76,3.78-2.77,1.7-1.02-2.08-2.2-4.33-1.51-5.01s2.59-.67,3.28-.14Z"/>
                <path class="cls-10" d="M412.9,412.74c-2-.82-1.91,1.53-.89,2.58s3.61.55,3.45-.49c-.16-1.04-1.71-1.74-2.57-2.09Z"/>
                <path class="cls-10" d="M444.83,277.19c-.99.48-1.23,2.23-.55,4.13s4.66-.13,4.67-1.85c.02-1.72-.65-3.97-4.12-2.28Z"/>
                <path class="cls-10" d="M475.43,248.86c-1.6-.34-3.11,1.01-4.51,3.23-1.4,2.23-3.63,1-3.48,3.76.15,2.76,4.28,2.97,5.68,1.43,1.39-1.54,3.47-2.73,3.66-4.62.19-1.89-.48-3.62-1.34-3.8Z"/>
                <path class="cls-10" d="M474.81,259.71c-1.41.74-2.09,2.39-.03,3.79,2.06,1.4,4.3.56,3.8-1.34-.5-1.9-1.52-3.63-3.77-2.45Z"/>
                <path class="cls-10" d="M357.23,204.51c-3.37-.51-4.34,3.58-2.3,6.36s4.83-.3,4.84-1.85c.01-1.55-1.34-4.32-2.54-4.51Z"/>
                <path class="cls-4" d="M353.84,236.37c-2.68-.02-3.64,2.21-2.46,4.63s2.21,3.3,3.09,1.75.58-6.37-.63-6.38Z"/>
                <path class="cls-12" d="M300.42,215.19c-2.75.25-3.46,1.17-2.1,3.43,1.36,2.25.1,7.76,3.06,4.34,2.96-3.42,3.14-4.45,2.98-5.49-.16-1.04-2.22-2.43-3.94-2.28Z"/>
                <path class="cls-10" d="M291.36,170.12c-4.28-.99-1.26,5.33-.58,6.55.68,1.21,3.63-.83,3.64-2.38s-1.52-3.81-3.06-4.17Z"/>
                <path class="cls-10" d="M390.83,150.17c-1.14-1.93-2.75-.71-2.43,2.05s2.04,3.47,2.91,2.44.54-2.75-.48-4.49Z"/>
                <path class="cls-4" d="M397.13,159.02c-2.43-2.47-2.24-.54-3.99,2.72-1.75,3.26-4.03,7.2-1.26,5.5,2.77-1.7,4.32-1.51,5.03-3.23s1.41-3.78.22-5Z"/>
                <path class="cls-3" d="M397.38,169.37c-2.97-.24-4.15,1.51-3.31,3.76.84,2.25,3.24,3.82,3.61,1.41s2.11-4.98-.3-5.17Z"/>
                <path class="cls-10" d="M378.76,168.85c-2.87-.6-3.65,3.07-4.19,5.65-.54,2.58.63,6.21,3.06,4.17,2.43-2.05,4-4.27,5.05-5.99,1.05-1.71-2.21-3.47-3.93-3.83Z"/>
                <path class="cls-10" d="M442.78,162.37c-2.29-2.63-3.97.14-3.81,2.03s3.6,2.27,4.12,1.93,1.06-2.4-.31-3.97Z"/>
                <path class="cls-10" d="M435.18,201.09c-3.16.52-1.73,1.19-.37,3.1,1.36,1.91,4.46,2.45,4.14-.48-.32-2.93.2-3.27-3.77-2.62Z"/>
                <path class="cls-2" d="M408.42,191.9c-5.81.96-3.19,2.19-.69,5.69,2.5,3.5,8.19,4.51,7.6-.88s.37-6.01-6.92-4.81Z"/>
                <path class="cls-8" d="M374.86,106.07c-3.98-.61-4.85,2.2-4.69,3.75s1.87,3.29,4.28,3.14c2.41-.15,4.84-1.16,4-3.58-.84-2.42-2.38-3.12-3.59-3.31Z"/>
                <path class="cls-4" d="M349.16,107.04c-2.39-.19-2.78,2.04-1.24,3.26,1.54,1.22,5.17.56,5.18-.64.01-1.21-1.53-2.43-3.94-2.62Z"/>
                <path class="cls-10" d="M332.87,123.23c-1.33.15-1.55,1.97-.93,2.61s1.45-.35,1.63-1.07,1.55-1.79-.71-1.54Z"/>
                <path class="cls-10" d="M304.51,118.91c-2.29-1.3-3.62,1.86-3.27,2.49.35.63,1.44-.08,2.62-.07,1.17.01,2.27-1.51.65-2.43Z"/>
                <path class="cls-10" d="M311.42,122.76c-.88.18-.55,1.53-.11,1.8s1.44-.17,1.45-.71c0-.54.37-1.44-1.34-1.09Z"/>
                <path class="cls-4" d="M314.52,128.74c-3.23-.8-2.55,2.68-2.02,3.77.53,1.09,2.87,1.65,3.42.48.55-1.17.49-3.78-1.4-4.25Z"/>
                <path class="cls-10" d="M320.42,134.2c-1.18.62-1,.8-.56,1.71.44.91.35,1.09.61,2.17s.44.73,1.8.11c1.36-.62,2.8-.7,1.82-2.24s-2.32-2.46-3.68-1.75Z"/>
                <path class="cls-3" d="M333.01,138.11c-.02,2.42-1.64,1.34-2.55,2.86-.92,1.52-3,3.04-1.21,4.68s5.12,2.12,6.93,1.51c1.81-.61,3.96.31,2.75-4.75-1.22-5.06-5.9-5.46-5.91-4.29Z"/>
                <path class="cls-3" d="M497.28,479.79c-1.85-3.31-4.54,1.19-5.38,3.65-.85,2.46.33,8.64,3.25,4.56,2.92-4.09,3.75-5.31,2.13-8.21Z"/>
                <path class="cls-1" d="M300.47,132.84c-2.31.64-3.33,1.17-3.61,2.76-.28,1.59.64,2.66,1.44,2.54s2.93-.37,3.21-2.5c.29-2.12.83-3.32-1.04-2.8Z"/>
                <path class="cls-8" d="M256.61,162.08c-2.07-.36-6,2.2-7.34,3.39-1.34,1.18-4.4,1.95-3.63,4.09.78,2.13,4.38.17,5.32.18.93,0,5.32-.35,5.87-1.94.55-1.59,1.23-3.98,1.24-4.91,0-.93.14-.53-1.45-.81Z"/>
                <path class="cls-10" d="M239.37,200.6c.54-4.49-5.35,3.54-5.1,5.67.25,2.13,2.1,3.08,2.37,2.02.28-1.06,2.44-5.29,2.73-7.68Z"/>
                <path class="cls-8" d="M223.79,218.54c-.97-2.24-3.74,1.96-3.76,3.69-.02,1.73,2.77,2.68,2.77,2.68,0,0,.41-1.33,1.49-2.91,1.08-1.59.02-2.26-.5-3.46Z"/>
                <path class="cls-8" d="M260.45,250.37c-.43-3.73-4.25-.84-5.07,1.55-.82,2.39-2.03,3.44-1.51,4.77.52,1.33,5.32.05,5.32.05,0,0,1.38-5.3,1.25-6.37Z"/>
                <path class="cls-8" d="M241.05,176.82c-1.61-1.15-2.96,3.43-2.18,5.43s3.03,3.08,3.05.69c.02-2.39.45-5.18-.87-6.12Z"/>
                <path class="cls-8" d="M372.03,156.75c-1.4-2.07-3.07.9-2.42,3.3.64,2.4,1.95,4.4,2.91,1.75.95-2.65.69-3.32-.49-5.06Z"/>
                <path class="cls-2" d="M398.23,184.64c-3.23-3.71-8.26,2.32-8.28,3.91-.01,1.59,3.03,2.82,3.83,2.96.8.14,3.73-1.3,3.74-2.49.01-1.2,1.76-3.17.7-4.38Z"/>
                <path class="cls-1" d="M281.08,218.79c-1.5-.56-2.8,1.04-2.82,2.77s3.16,3.35,3.69,3.89c.53.54,1.74-1.84,2.15-3.04.41-1.19-1.57-3.07-3.02-3.62Z"/>
                <path class="cls-8" d="M294.22,235.66c-.59-.6-2.81,2.5-3.22,3.69-.41,1.19.25,2,1.04,2.67s2.4-1.31,2.41-2.37c0-1.06,1.09-2.65-.23-3.99Z"/>
                <path class="cls-10" d="M304.46,291.09c-2.49.6-3.88,2.76-3.5,4.89.38,2.13,2.74,5.21,4.59,6.95,1.84,1.74,3.05.43,3.75-3.16.7-3.58-2.71-9.2-4.84-8.68Z"/>
              </g>
            </g>
            <g>
              <path class="cls-11" d="M349.86,100c-82.78,0-174.18,115.98-184.53,257.73-10.05,137.71,82.62,242.27,184.53,242.27s196.53-104.72,184.53-242.27c-12.07-138.32-98.3-257.73-184.53-257.73Z"/>
              <path class="cls-7" d="M349.63,600c28.6,0,55.67-8.27,79.85-22.97,15.96-60.76,5.46-139.19-33.95-212.92-45.35-84.85-117.15-141.34-184.96-153.6-28.63,41.83-45.99,106.03-45.99,165.36,0,129.61,82.85,224.13,185.05,224.13Z"/>
              <ellipse class="cls-14" cx="376.7" cy="284.22" rx="114.08" ry="167.2"/>
            </g>
          </g>
        </g>
      </g>
    </g>
  </g>
</svg>