<?xml version="1.0" encoding="UTF-8"?>
<svg xmlns="http://www.w3.org/2000/svg" xmlns:xlink="http://www.w3.org/1999/xlink" viewBox="0 0 700 700">
  <defs>
    <style>
      .cls-1 {
        fill: #d9ae6f;
      }

      .cls-1, .cls-2, .cls-3, .cls-4, .cls-5, .cls-6, .cls-7, .cls-8, .cls-9, .cls-10, .cls-11, .cls-12, .cls-13, .cls-14, .cls-15, .cls-16 {
        stroke-width: 0px;
      }

      .cls-2 {
        fill: #e0bb83;
      }

      .cls-3 {
        fill: #ccb067;
      }

      .cls-4 {
        fill: #a37f48;
      }

      .cls-5 {
        fill: url(#_Безымянный_градиент_16);
      }

      .cls-5, .cls-16 {
        mix-blend-mode: screen;
      }

      .cls-6 {
        fill: #edcd78;
      }

      .cls-7 {
        fill: #e0d9c3;
      }

      .cls-7, .cls-13 {
        mix-blend-mode: multiply;
      }

      .cls-8 {
        fill: #fce4bd;
      }

      .cls-9 {
        fill: #b0433a;
      }

      .cls-10 {
        fill: #1d0d2b;
      }

      .cls-11 {
        fill: #fbd69e;
      }

      .cls-12 {
        fill: #d9b57f;
      }

      .cls-13 {
        fill: url(#_Безымянный_градиент_131);
      }

      .cls-17 {
        isolation: isolate;
      }

      .cls-14 {
        fill: #bc9d6e;
      }

      .cls-15 {
        fill: #ffe9b0;
      }

      .cls-16 {
        fill: url(#_Безымянный_градиент_111);
      }
    </style>
    <radialGradient id="_Безымянный_градиент_131" data-name="Безымянный градиент 131" cx="742.96" cy="1653.13" fx="742.96" fy="1653.13" r="320.28" gradientTransform="translate(-376.39 -1898.7) scale(1.1 1.3)" gradientUnits="userSpaceOnUse">
      <stop offset=".38" stop-color="#f1f2f2" stop-opacity="0"/>
      <stop offset=".56" stop-color="rgba(197, 198, 199, .33)" stop-opacity=".33"/>
      <stop offset=".85" stop-color="rgba(133, 134, 137, .81)" stop-opacity=".81"/>
      <stop offset=".99" stop-color="#6d6e71"/>
    </radialGradient>
    <radialGradient id="_Безымянный_градиент_111" data-name="Безымянный градиент 111" cx="1061.18" cy="2765.21" fx="1061.18" fy="2765.21" r="106.23" gradientTransform="translate(-898.1 -4051.34) scale(1.19 1.57)" gradientUnits="userSpaceOnUse">
      <stop offset="0" stop-color="#fff"/>
      <stop offset="1" stop-color="#221e1f" stop-opacity="0"/>
    </radialGradient>
    <radialGradient id="_Безымянный_градиент_16" data-name="Безымянный градиент 16" cx="521.33" cy="451.09" fx="521.33" fy="451.09" r="424.94" gradientTransform="translate(0 -183.66) scale(1 1.03)" gradientUnits="userSpaceOnUse">
      <stop offset=".68" stop-color="#221e1f" stop-opacity="0"/>
      <stop offset=".71" stop-color="rgba(46, 42, 43, .06)" stop-opacity=".06"/>
      <stop offset=".77" stop-color="rgba(79, 76, 77, .23)" stop-opacity=".23"/>
      <stop offset=".86" stop-color="rgba(133, 132, 133, .51)" stop-opacity=".51"/>
      <stop offset=".97" stop-color="rgba(206, 206, 207, .88)" stop-opacity=".88"/>
      <stop offset="1" stop-color="#e6e7e8"/>
    </radialGradient>
  </defs>
  <g class="cls-17">
    <g id="_Слой_2" data-name="Слой 2">
      <g id="_Слой_3" data-name="Слой 3">
        <g>
          <rect class="cls-10" width="700" height="700"/>
          <g>
            <g>
              <path class="cls-9" d="M534.38,357.73c12.01,137.55-82.62,242.27-184.53,242.27s-194.58-104.56-184.53-242.27c10.35-141.75,101.75-257.73,184.53-257.73s172.45,119.42,184.53,257.73Z"/>
              <g>
                <path class="cls-9" d="M474.33,542.54c-73.82,73.44-174.57,73.9-248.29.05-94.76-107.78-70.41-273,14.22-379.42,28.14-31.88,64.5-62.86,109.45-63.17,44.96-.32,81.49,30.89,109.32,62.8,83.68,106.63,110.67,272.02,15.3,379.74Z"/>
                <g>
                  <path class="cls-3" d="M275.12,387.79c-.38,7.51-.54,11.22-.8,18.58,6.55,3.05,9.84,4.59,16.43,7.64-6.79,1.63-10.16,2.41-16.86,3.9-.28,7.24-.39,10.82-.53,17.88-4.03-6.27-6.04-9.41-10.02-15.69-6.65,1.28-9.94,1.89-16.46,3.01,4.01-5.05,6.07-7.65,10.27-12.99-3.84-6.33-5.73-9.49-9.45-15.8,6.46,2.9,9.71,4.36,16.26,7.3,4.39-5.42,6.63-8.19,11.15-13.84Z"/>
                  <path class="cls-6" d="M271.3,398.09c-.16,3.85-.23,5.77-.35,9.58,3.41,1.59,5.11,2.39,8.53,3.99-3.52.82-5.27,1.23-8.75,2.01-.16,3.78-.22,5.65-.34,9.39-2.08-3.28-3.11-4.92-5.17-8.21-3.48.7-5.22,1.05-8.67,1.71,2.16-2.73,3.25-4.12,5.46-6.92-2-3.31-2.99-4.97-4.96-8.28,3.39,1.53,5.1,2.3,8.51,3.84,2.28-2.81,3.43-4.23,5.75-7.1Z"/>
                  <path class="cls-15" d="M269.35,403.39c-.07,1.99-.1,2.98-.17,4.96,1.77.83,2.65,1.25,4.43,2.08-1.82.42-2.73.63-4.54,1.04-.08,1.97-.12,2.94-.2,4.9-1.07-1.71-1.61-2.57-2.67-4.28-1.82.37-2.72.56-4.53.92,1.14-1.45,1.71-2.18,2.86-3.64-1.04-1.73-1.56-2.59-2.59-4.31,1.77.8,2.66,1.2,4.43,2,1.18-1.46,1.78-2.19,2.97-3.66Z"/>
                </g>
                <path class="cls-3" d="M356.97,447.89c-.69,8.58-1.03,12.82-1.71,21.17,7.49,3.27,11.2,4.85,18.5,7.85-7.89,2.21-11.83,3.26-19.67,5.23-.8,8.19-1.19,12.22-1.95,20.15-4.07-6.77-6.16-10.23-10.41-17.27-7.79,1.67-11.66,2.43-19.31,3.81,4.91-5.88,7.44-8.91,12.59-15.1-4.24-7.24-6.39-10.92-10.73-18.35,7.66,3.49,11.47,5.19,19.06,8.49,5.37-6.27,8.11-9.48,13.64-15.97Z"/>
                <path class="cls-4" d="M224.73,222.95c-2.1,5.37-3.12,8.08-5.13,13.56,4.1.55,6.2.89,10.51,1.73-5.49,2.77-8.23,4.18-13.69,7-2.02,5.56-3.01,8.37-4.92,14.02-1.6-3.99-2.34-5.91-3.69-9.58-5.43,2.78-8.13,4.18-13.5,6.99,4.63-5.03,6.94-7.57,11.56-12.7-1.1-3.53-1.59-5.22-2.42-8.42,3.78-.03,5.73.03,9.74.3,4.64-5.14,6.95-7.72,11.54-12.92Z"/>
                <path class="cls-4" d="M216.19,412.74c-.09,6.08-.09,9.09.02,15.02,5.73,3.08,8.61,4.63,14.4,7.75-5.76.7-8.6,1.01-14.2,1.53.14,5.8.26,8.66.6,14.29-3.8-5.46-5.68-8.19-9.41-13.62-5.53.32-8.25.44-13.61.58,2.99-3.5,4.56-5.34,7.83-9.17-3.58-5.43-5.35-8.13-8.8-13.5,5.61,2.91,8.45,4.38,14.15,7.35,3.5-3.95,5.3-6,9.02-10.23Z"/>
                <path class="cls-4" d="M479.31,235.29c.88,3.83,1.3,5.76,2.1,9.67,3.96,2.69,5.94,4.03,9.89,6.7-3.44-.25-5.18-.35-8.71-.49.69,3.94,1.01,5.94,1.62,9.96-2.91-4.05-4.37-6.09-7.28-10.17-3.62-.13-5.45-.17-9.16-.18,1.91-2.6,2.83-3.86,4.6-6.3-2.86-4.12-4.29-6.18-7.13-10.31,3.96,2.63,5.94,3.95,9.91,6.58,1.74-2.27,2.57-3.37,4.17-5.46Z"/>
                <path class="cls-4" d="M228.45,533.05c.99,2.19,1.49,3.26,2.53,5.38,2.57,2.21,3.85,3.31,6.41,5.49-1.95-.83-2.9-1.27-4.78-2.19,1.03,2.05,1.57,3.06,2.65,5.05-2.23-2.63-3.35-3.95-5.6-6.59-1.85-1.02-2.76-1.55-4.54-2.66.34-.54.53-.85.98-1.51-2.24-2.64-3.37-3.96-5.63-6.61,2.57,2.22,3.86,3.33,6.43,5.53.56-.7.87-1.08,1.53-1.9Z"/>
                <path class="cls-4" d="M483.16,527.3c-2.12,3.15-3.2,4.7-5.38,7.77,1.95-.9,2.87-1.41,4.63-2.53-3.24,2.97-4.87,4.45-8.15,7.35-2.27,3.04-3.41,4.53-5.73,7.48.33-1.07.44-1.66.56-2.95-3.27,2.82-4.91,4.21-8.21,6.94,3.31-3.65,4.97-5.48,8.34-9.14.04-1.48.02-2.28-.14-3.97,2.29-.62,3.39-.98,5.5-1.81,3.41-3.66,5.13-5.48,8.59-9.13Z"/>
                <path class="cls-4" d="M325.47,570.7c.01,3.84.02,5.74.07,9.47,3.48,1.93,5.2,2.86,8.61,4.64-3.47.57-5.18.81-8.56,1.2.01,3.65.03,5.44.08,8.97-2.11-3.34-3.19-5.04-5.4-8.49-3.34.21-4.99.27-8.24.3,1.81-2.24,2.76-3.41,4.73-5.82-2.23-3.53-3.36-5.32-5.68-8.95,3.59,2.1,5.38,3.12,8.91,5.08,2.12-2.48,3.21-3.75,5.48-6.39Z"/>
                <path class="cls-11" d="M405.96,530.5c-.97,4.68-1.47,6.99-2.46,11.56,3.81,1.05,5.68,1.53,9.34,2.37-4.4,1.99-6.6,2.95-10.98,4.8-1.08,4.5-1.62,6.72-2.71,11.11-1.6-3.22-2.45-4.89-4.23-8.3-4.38,1.69-6.57,2.5-10.93,4.04,3.18-3.78,4.8-5.69,8.08-9.57-1.82-3.58-2.76-5.41-4.73-9.16,4.07,1.3,6.08,1.9,10.02,3,3.39-3.9,5.11-5.87,8.59-9.85Z"/>
                <path class="cls-11" d="M266.97,231.82c-.86,3.76-1.28,5.64-2.12,9.44,2.95.94,4.44,1.43,7.45,2.47-3.52,1.41-5.28,2.12-8.81,3.56-.88,3.82-1.31,5.75-2.17,9.61-1.4-2.99-2.09-4.46-3.41-7.35-3.53,1.4-5.29,2.12-8.81,3.55,2.73-3.24,4.09-4.86,6.8-8.11-1.22-2.87-1.82-4.29-2.96-7.06,2.87.73,4.32,1.12,7.26,1.95,2.73-3.22,4.08-4.83,6.78-8.04Z"/>
                <path class="cls-11" d="M409.04,338.34c-.16,4.25-.24,6.38-.42,10.66,3.69,1.75,5.53,2.63,9.21,4.36-3.81.95-5.72,1.44-9.56,2.41-.26,4.29-.39,6.55-.68,10.91-2.16-3.73-3.24-5.61-5.41-9.39-3.87.94-5.81,1.41-9.71,2.36,2.54-3.36,3.8-5.01,6.31-8.28-2.12-3.75-3.18-5.62-5.31-9.37,3.72,1.71,5.58,2.56,9.29,4.26,2.53-3.19,3.79-4.78,6.28-7.92Z"/>
                <path class="cls-11" d="M199.01,323.31c-.74,3.7-1.1,5.55-1.78,9.27,3.15,1.25,4.74,1.9,7.95,3.22-3.63,1.08-5.44,1.61-9.04,2.67-.7,3.73-1.03,5.59-1.67,9.33-1.64-3.13-2.45-4.68-4.01-7.72-3.58.99-5.36,1.47-8.9,2.43,2.58-2.86,3.88-4.3,6.5-7.22-1.46-3.01-2.18-4.5-3.56-7.41,3.07,1.08,4.62,1.64,7.75,2.79,2.68-2.92,4.03-4.39,6.75-7.37Z"/>
                <g>
                  <path class="cls-14" d="M347.74,255.48c-.75,10.29-1.52,20.57-2.29,30.86,8.86,4.21,17.7,8.46,26.5,12.79-9.4,2.26-18.79,4.64-28.13,7.15-.95,10.68-1.9,21.36-2.84,32.04-5.07-9.08-10.09-18.19-15.06-27.32-9.51,2.47-19,5-28.48,7.58,6.54-8.14,13.04-16.3,19.51-24.49-4.44-8.6-8.81-17.23-13.09-25.91,9.91,4.01,14.97,6.16,25.24,10.68,6.25-7.76,12.47-15.54,18.64-23.36Z"/>
                  <path class="cls-12" d="M341.99,270.4c-.57,7.15-.86,10.76-1.44,18.02,6.02,2.84,9.06,4.3,15.23,7.26-6.5,1.66-9.73,2.52-16.23,4.28-.69,7.32-1.03,11-1.72,18.41-3.49-6.32-5.22-9.46-8.6-15.67-6.54,1.7-9.83,2.58-16.4,4.35,4.51-5.68,6.75-8.52,11.18-14.15-3.21-6.19-4.78-9.24-7.85-15.27,5.89,2.5,8.86,3.8,14.87,6.45,4.44-5.52,6.64-8.26,10.96-13.67Z"/>
                  <path class="cls-8" d="M337.1,284.77c-.25,2.92-.37,4.39-.62,7.33,2.44,1.14,3.66,1.72,6.11,2.88-2.61.7-3.92,1.06-6.53,1.78-.29,2.95-.43,4.42-.72,7.39-1.38-2.52-2.07-3.78-3.43-6.28-2.63.68-3.95,1.03-6.58,1.73,1.79-2.28,2.69-3.42,4.47-5.69-1.31-2.51-1.97-3.76-3.26-6.25,2.43,1.06,3.64,1.6,6.09,2.69,1.8-2.23,2.69-3.35,4.47-5.57Z"/>
                </g>
                <g>
                  <path class="cls-4" d="M445.44,160.22c3.13,7.94,4.6,12.1,7.33,20.73,7.43,6.36,14.84,12.74,22.24,19.13-6.97-2.56-10.62-3.6-18.23-5.2,2.34,8.97,3.4,13.62,5.29,23.2-5.96-8.41-11.86-16.88-17.67-25.39-8.04-1.17-12.21-1.52-20.76-1.77,4.45-6.22,6.47-9.09,10.03-14.23-5.44-8.26-10.81-16.57-16.09-24.93,8.39,6.75,12.68,10.28,21.35,17.5,3.09-4.25,4.4-6.08,6.5-9.04Z"/>
                  <path class="cls-1" d="M445.88,168.16c1.63,4.87,2.42,7.36,3.92,12.45,5.13,4.31,7.71,6.5,12.9,10.89-4.16-1.27-6.29-1.82-10.65-2.76,1.34,5.19,1.97,7.84,3.16,13.24-4.13-5.86-6.17-8.79-10.2-14.64-4.53-.82-6.84-1.16-11.56-1.66,2.26-3.22,3.32-4.74,5.28-7.57-3.91-5.83-5.83-8.74-9.62-14.51,5,4.04,7.53,6.11,12.61,10.29,1.83-2.5,2.66-3.65,4.16-5.73Z"/>
                  <path class="cls-8" d="M445.5,174.69c.6,2.05.89,3.08,1.47,5.16,2.07,1.72,3.11,2.59,5.2,4.33-1.71-.44-2.57-.64-4.32-1.03.53,2.09.79,3.14,1.31,5.27-1.65-2.35-2.47-3.53-4.09-5.88-1.78-.39-2.68-.56-4.49-.9.8-1.16,1.19-1.72,1.94-2.82-1.6-2.35-2.39-3.52-3.97-5.86,2.06,1.67,3.09,2.5,5.15,4.19.75-1.02,1.11-1.51,1.8-2.47Z"/>
                </g>
                <g>
                  <path class="cls-4" d="M474.39,468.04c-2.16,8.46-3.33,12.62-5.79,20.8,6.75,1.25,10,1.73,16.2,2.33-8.07,4.28-12.14,6.38-20.33,10.48-2.75,8.02-4.19,11.95-7.17,19.66-2-5-3.18-7.68-5.82-13.39-8.24,3.83-12.38,5.69-20.67,9.23,6.44-7.41,9.7-11.15,16.28-18.66-2.9-6.21-4.49-9.48-7.93-16.31,7.59,2.06,11.29,2.96,18.44,4.47,6.7-7.46,10.07-11.19,16.79-18.62Z"/>
                  <path class="cls-12" d="M468.19,479.03c-1.31,4.86-1.99,7.27-3.4,12.03,3.93.75,5.86,1.08,9.61,1.62-4.76,2.38-7.15,3.56-11.94,5.87-1.53,4.71-2.32,7.05-3.93,11.66-1.36-3.12-2.1-4.73-3.67-8.08-4.81,2.2-7.22,3.28-12.06,5.4,3.79-4.33,5.7-6.5,9.53-10.85-1.63-3.54-2.49-5.37-4.31-9.12,4.24,1,6.33,1.46,10.41,2.27,3.89-4.32,5.84-6.48,9.74-10.79Z"/>
                  <path class="cls-8" d="M462.97,487.64c-.54,1.95-.82,2.92-1.38,4.85,1.6.32,2.39.47,3.96.75-1.95.93-2.92,1.39-4.87,2.3-.6,1.93-.9,2.89-1.51,4.8-.62-1.33-.93-2.01-1.58-3.38-1.96.88-2.93,1.32-4.89,2.19,1.55-1.75,2.32-2.63,3.87-4.39-.64-1.41-.97-2.13-1.65-3.58,1.66.34,2.48.5,4.12.81,1.57-1.74,2.36-2.61,3.93-4.35Z"/>
                </g>
                <path class="cls-14" d="M391.14,213.41c3.45,3.74,5.2,5.63,8.73,9.43,3.7-1.8,5.52-2.66,9.11-4.31-1.35,4.08-2.06,6.16-3.52,10.38,3.53,3.87,5.32,5.82,8.91,9.73-4.53-1.25-6.8-1.86-11.33-3.03-1.6,4.25-2.42,6.41-4.12,10.78-1.23-5.09-1.84-7.62-3.06-12.65-4.53-1.19-6.8-1.76-11.33-2.85,3.84-2.1,5.73-3.12,9.46-5.08-1.14-4.99-1.71-7.48-2.85-12.4Z"/>
                <path class="cls-14" d="M241.15,166.88c.5.21.76.34,1.33.65,2.07-2.14,3.11-3.2,5.16-5.33-1.7,2.35-2.55,3.53-4.26,5.88.57.4.87.62,1.51,1.1-1.71,1.02-2.56,1.55-4.25,2.64-1.74,2.37-2.62,3.55-4.38,5.92.68-1.71,1.03-2.55,1.75-4.2-1.64,1.09-2.46,1.65-4.06,2.8,2.1-2.17,3.15-3.25,5.24-5.41.77-1.65,1.16-2.46,1.96-4.05Z"/>
                <path class="cls-2" d="M496.71,299.35c-.02,3.63-.05,5.47-.15,9.17,3.56,2.32,5.33,3.46,8.87,5.73-3.61.04-5.43.06-9.1.15-.2,3.73-.32,5.61-.6,9.4-2.08-3.7-3.13-5.56-5.25-9.3-3.72.05-5.6.08-9.38.16,2.47-2.5,3.68-3.72,6.05-6.11-2.08-3.77-3.13-5.67-5.24-9.47,3.61,2.33,5.41,3.49,9,5.79,2.37-2.27,3.53-3.37,5.8-5.52Z"/>
                <path class="cls-2" d="M360.35,111.26c-.34,3.28-.52,4.94-.89,8.3,2.5,1.9,3.78,2.88,6.36,4.9-2.79.11-4.2.2-7.02.46-.45,3.41-.68,5.13-1.18,8.62-1.36-3.32-2.02-4.95-3.31-8.18-2.85.3-4.28.49-7.08.94,2.08-2.47,3.1-3.67,5.12-6.02-1.2-3.19-1.8-4.76-2.89-7.86,2.32,1.62,3.59,2.47,6.06,4.24,1.99-2.23,2.95-3.31,4.83-5.4Z"/>
                <g>
                  <path class="cls-3" d="M450.58,356.07c5.2,9.46,7.75,14.4,12.62,23.58,9.8-1.97,14.63-2.95,24.15-4.83-6.51,7.51-9.88,11.35-16.78,19.13,4.45,8.89,6.57,13.2,10.51,21.47-8.46-3.4-12.8-5.25-21.65-9.16-7.18,7.78-10.84,11.72-18.21,19.62,1.8-10.34,2.63-15.58,4.1-26.14-8.98-4.34-13.55-6.62-22.77-11.32,10.11-2.2,15.13-3.3,25.04-5.48,1.4-10.67,1.98-16.29,2.98-26.86Z"/>
                  <path class="cls-6" d="M453.75,372.1c2.61,4.91,3.89,7.33,6.4,12.09,5.13-1.06,7.67-1.58,12.73-2.62-3.5,4.02-5.28,6.04-8.88,10.12,2.36,4.71,3.52,7.03,5.75,11.58-4.56-2-6.87-3.03-11.53-5.15-3.7,4.05-5.58,6.09-9.34,10.18.84-5.44,1.23-8.17,1.96-13.66-4.67-2.27-7.03-3.44-11.78-5.82,5.21-1.16,7.8-1.74,12.95-2.89.75-5.51,1.1-8.28,1.73-13.84Z"/>
                  <path class="cls-15" d="M455.26,380.34c1.32,2.51,1.98,3.76,3.28,6.23,2.67-.56,4-.84,6.65-1.39-1.85,2.11-2.78,3.17-4.65,5.3,1.24,2.47,1.85,3.69,3.06,6.12-2.41-1.09-3.62-1.65-6.05-2.77-1.92,2.11-2.88,3.16-4.81,5.28.4-2.84.59-4.26.97-7.11-2.43-1.19-3.65-1.79-6.1-3,2.69-.61,4.03-.91,6.7-1.51.4-2.85.59-4.28.95-7.15Z"/>
                  <path class="cls-7" d="M448.56,375.25c-.37,3.08-.56,4.61-.96,7.67-9.92,2.17-14.93,3.27-25.04,5.48,9.22,4.71,13.79,6.99,22.77,11.32-1.48,10.57-2.31,15.8-4.1,26.14,7.36-7.89,11.02-11.83,18.21-19.62,8.85,3.91,13.19,5.75,21.65,9.16-1.42-2.99-2.15-4.5-3.64-7.57-12.95-8.48-21.37-19.28-28.87-32.58Z"/>
                </g>
                <g>
                  <path class="cls-3" d="M279.02,143.88c1.02,5.24,1.69,8.08,3.32,14.13,7.51-4.12,11.26-6.04,18.68-9.55-6.13,7.69-9.32,11.62-15.89,19.59,1.89,6.63,2.97,10.13,5.41,17.45-6.67-2.32-9.89-3.29-16.05-4.81-6.88,8.02-10.41,12.07-17.61,20.19,3.24-9.06,4.89-13.52,8.2-22.27-5.73-1.12-8.45-1.46-13.58-1.68,7.57-5.04,11.36-7.46,18.92-12.04,3.44-8.58,5.17-12.79,8.6-21.01Z"/>
                  <path class="cls-6" d="M277.27,154.8c.69,2.95,1.07,4.48,1.92,7.64,3.96-2.16,5.93-3.21,9.87-5.21-3.34,4.11-5.04,6.19-8.49,10.36.89,3.35,1.38,5.07,2.42,8.61-3.26-.92-4.85-1.32-7.96-2.01-3.55,4.17-5.35,6.27-9,10.48,1.67-4.65,2.51-6.95,4.19-11.51-2.97-.61-4.42-.86-7.24-1.23,3.98-2.45,5.97-3.64,9.94-5.95,1.74-4.52,2.61-6.75,4.35-11.18Z"/>
                  <path class="cls-15" d="M276.47,160.71c.4,1.59.61,2.4,1.05,4.04,2.07-1.13,3.1-1.68,5.17-2.77-1.77,2.16-2.67,3.25-4.47,5.42.44,1.71.67,2.58,1.15,4.34-1.63-.39-2.44-.57-4.03-.91-1.84,2.17-2.76,3.26-4.63,5.44.86-2.39,1.29-3.59,2.15-5.96-1.54-.33-2.3-.47-3.8-.74,2.08-1.22,3.12-1.82,5.19-3.01.89-2.36,1.34-3.54,2.23-5.87Z"/>
                  <path class="cls-7" d="M272.89,158.77c-.99,2.44-1.48,3.66-2.47,6.12-7.56,4.57-11.35,7-18.92,12.04,5.13.21,7.85.56,13.58,1.68-3.31,8.76-4.96,13.22-8.2,22.27,7.2-8.11,10.73-12.17,17.61-20.19,6.16,1.52,9.38,2.49,16.05,4.81-.88-2.64-1.3-3.94-2.11-6.5-8.31-5.28-14.29-11.4-15.53-20.23Z"/>
                </g>
                <g>
                  <path class="cls-3" d="M247.14,480.57c5.7,8.97,8.56,13.45,14.22,22.31,8.64.36,13.06.4,22.05.2-5.61,5.87-8.28,8.64-13.24,13.77,5.48,8.79,8.19,13.15,13.49,21.71-8.34-5.48-12.56-8.31-21.07-14.09-4.61,4.49-6.74,6.53-10.55,10.13-1.39-7.5-1.98-11.4-2.94-19.46-8.54-6.02-12.84-9.07-21.45-15.21,7.87,1.19,11.93,1.63,20.27,2.22-.54-8.36-.69-12.68-.79-21.56Z"/>
                  <path class="cls-6" d="M251.81,494.55c2.99,4.63,4.48,6.93,7.45,11.53,4.44.26,6.69.35,11.23.45-2.73,2.83-4.05,4.19-6.59,6.81,2.89,4.58,4.34,6.87,7.19,11.4-4.45-2.93-6.68-4.42-11.16-7.42-2.48,2.42-3.67,3.57-5.93,5.75-.52-4.15-.75-6.27-1.16-10.57-4.48-3.09-6.73-4.65-11.23-7.78,4.22.45,6.37.63,10.71.92-.26-4.37-.36-6.59-.5-11.1Z"/>
                  <path class="cls-15" d="M254.31,501.75c1.56,2.39,2.33,3.58,3.88,5.97,2.29.15,3.44.22,5.76.33-1.36,1.41-2.03,2.09-3.34,3.44,1.52,2.38,2.27,3.57,3.78,5.94-2.34-1.54-3.51-2.31-5.85-3.87-1.31,1.28-1.95,1.9-3.2,3.11-.22-2.22-.32-3.34-.5-5.61-2.34-1.59-3.51-2.39-5.85-4,2.23.19,3.35.27,5.61.41-.13-2.27-.19-3.42-.28-5.73Z"/>
                  <path class="cls-7" d="M247.59,496.07c.12,2.44.19,3.66.34,6.05-8.33-.59-12.4-1.03-20.27-2.22,8.6,6.14,12.91,9.2,21.45,15.21.95,8.07,1.54,11.97,2.94,19.46,3.81-3.6,5.93-5.64,10.55-10.13,8.5,5.78,12.73,8.62,21.07,14.09-1.91-3.09-2.88-4.65-4.82-7.77-12.08-9.82-23-21.49-31.25-34.71Z"/>
                </g>
              </g>
            </g>
            <g>
              <path class="cls-13" d="M349.86,100c-82.78,0-174.18,115.98-184.53,257.73-10.05,137.71,82.62,242.27,184.53,242.27s196.53-104.72,184.53-242.27c-12.07-138.32-98.3-257.73-184.53-257.73Z"/>
              <g>
                <ellipse class="cls-16" cx="366.09" cy="300.87" rx="126.55" ry="167.2"/>
                <path class="cls-5" d="M349.63,600c28.6,0,55.67-8.27,79.85-22.97,15.96-60.76,5.46-139.19-33.95-212.92-45.35-84.85-117.15-141.34-184.96-153.6-28.63,41.83-45.99,106.03-45.99,165.36,0,129.61,82.85,224.13,185.05,224.13Z"/>
              </g>
            </g>
          </g>
        </g>
      </g>
    </g>
  </g>
</svg>